<?xml version="1.0" standalone="no"?>
<!DOCTYPE svg PUBLIC "-//W3C//DTD SVG 1.1//EN" "http://www.w3.org/Graphics/SVG/1.1/DTD/svg11.dtd" >
<svg xmlns="http://www.w3.org/2000/svg">
<metadata>
This is a custom SVG webfont generated by Font Squirrel.
Copyright   : Copyright URW copyright 1999 by URW Design  Development Cyrillic glyphs added by Valek Filippov copyright 20012002 Vietnamese characters were added by Han The Thanh copyright 2006 2008 for TeX Gyre extensions by B Jackowski and JM Nowacki on behalf of TeX users groups This work is released under the GUST Font License   see httptugorgfontslicensesGUSTFONTLICENSEtxt for details
</metadata>
<defs>
<font id="webfontmZhs1cLk" horiz-adv-x="681" >
<font-face units-per-em="2048" ascent="1634" descent="-414" />
<missing-glyph horiz-adv-x="569" />
<glyph unicode="IJ" horiz-adv-x="2023" d="M82 0v96h41q125 0 154.5 15.5t29.5 81.5v1093q0 66 -29.5 81t-154.5 15h-41v97h678v-97h-41q-123 0 -152.5 -15t-29.5 -81v-1093q0 -66 29.5 -81.5t152.5 -15.5h41v-96h-678zM852 317q0 109 57.5 179.5t147.5 70.5q68 0 110.5 -41t42.5 -106q0 -63 -36.5 -105.5 t-92.5 -42.5q-33 0 -75 11h-7q-25 0 -24 -33q0 -72 73.5 -128t174.5 -56q182 0 241 178q27 80 27 323v719q0 66 -29.5 81t-152.5 15h-39v97h672v-97h-39q-125 0 -155 -15t-30 -81v-737q0 -326 -108.5 -453t-349.5 -127q-193 0 -300.5 97t-107.5 251z" />
<glyph unicode="ij" horiz-adv-x="1196" d="M82 844v88l385 22v-784q0 -63 23.5 -79.5t121.5 -16.5h25v-74h-531v74h25q96 0 119.5 16t23.5 80v571q0 66 -15 84.5t-73 18.5h-104zM268 1249q0 41 31 72t72 31t71.5 -31t30.5 -72q0 -43 -30.5 -72.5t-73.5 -29.5q-41 0 -71 30.5t-30 71.5zM522 -246q0 53 33 88t82 35 q43 0 74.5 -28.5t31.5 -67.5q0 -18 -14 -49q-10 -25 -10 -33q0 -27 51 -27q33 0 65.5 20.5t47.5 51.5q39 80 39 303v694q0 66 -15.5 84.5t-72.5 18.5h-119v88l399 22v-809q0 -174 -18.5 -266t-65.5 -160q-96 -133 -278 -133q-102 0 -166 46t-64 122zM915 1249q0 41 31 72 t72 31t71.5 -31t30.5 -72q0 -43 -30.5 -72.5t-73.5 -29.5q-41 0 -71 30.5t-30 71.5z" />
<glyph unicode="fk" horiz-adv-x="1814" d="M39 866v88h180v64q0 252 105.5 371.5t293.5 119.5h422v-1013l277 266q47 47 47 80q0 39 -96 39h-64v73h539v-73q-104 -12 -181 -51t-165 -128l-92 -90l290 -397q63 -80 108.5 -106.5t131.5 -34.5v-74h-541v74h39q90 0 90 35q0 12 -14 36l-244 342l-125 -118v-199 q0 -66 19.5 -81t116.5 -15h28v-74h-518v74h29q94 0 113.5 15t19.5 81v1051q-33 -29 -76 -29q-47 0 -80 31.5t-33 76.5q0 23 17 58l14 35q0 35 -69 34q-104 0 -156.5 -83.5t-52.5 -272.5v-117h225v-88h-225v-696q0 -61 27.5 -78.5t127.5 -17.5h37v-74h-547v74h29 q94 0 113.5 15t19.5 81v696h-180z" />
<glyph unicode="&#xfb00;" horiz-adv-x="1282" d="M39 866v88h180v64q0 252 105.5 371.5t293.5 119.5q125 0 197 -51t72 -141q0 -55 -32 -90t-83 -35q-47 0 -80 31.5t-33 76.5q0 23 17 58l14 35q0 35 -69 34q-104 0 -156.5 -83.5t-52.5 -272.5v-117h440v64q0 252 105.5 371.5t293.5 119.5q125 0 197 -51t72 -141 q0 -55 -32 -90t-83 -35q-47 0 -80 31.5t-33 76.5q0 23 15 58l16 35q0 35 -70 34q-104 0 -156.5 -83.5t-52.5 -272.5v-117h226v-88h-226v-696q0 -61 28 -78.5t128 -17.5h37v-74h-547v74h29q94 0 113.5 15t19.5 81v696h-440v-696q0 -61 27.5 -78.5t127.5 -17.5h37v-74h-547v74 h29q94 0 113.5 15t19.5 81v696h-180z" />
<glyph unicode="&#xfb01;" horiz-adv-x="1251" d="M33 866v88h194v19q0 268 137.5 401t368.5 133q139 0 221 -54t82 -144q0 -55 -35.5 -89t-93.5 -34q-53 0 -90 30.5t-37 75.5q0 27 19 64l16 37q0 33 -96 32q-299 0 -299 -428v-43h309q106 0 313 15v-801q0 -63 19.5 -78.5t114.5 -15.5h28v-74h-518v74h29q96 0 115.5 15 t19.5 81v555q0 100 -13.5 120.5t-74.5 20.5h-342v-698q0 -63 19.5 -78.5t113.5 -15.5h29v-74h-519v74h29q96 0 115.5 15t19.5 81v696h-194z" />
<glyph unicode="&#xfb02;" horiz-adv-x="1251" d="M33 866v88h180v64q0 246 127 368.5t408 122.5h290v-1339q0 -66 19.5 -81t116.5 -15h34v-74h-530v74h35q94 0 113.5 15t19.5 81v1026q-27 -8 -45 -8q-41 0 -68.5 27.5t-27.5 72.5q0 14 17 46t17 55q0 39 -82 38q-127 0 -189 -83.5t-62 -272.5v-117h225v-88h-225v-696 q0 -61 27.5 -78.5t127.5 -17.5h37v-74h-547v74h29q94 0 113.5 15t19.5 81v696h-180z" />
<glyph unicode="&#xfb03;" horiz-adv-x="1851" d="M39 866v88h180v64q0 252 105.5 371.5t293.5 119.5q125 0 197 -51t72 -141q0 -55 -32 -90t-83 -35q-47 0 -80 31.5t-33 76.5q0 23 17 58l14 35q0 35 -69 34q-104 0 -156.5 -83.5t-52.5 -272.5v-117h448v19q0 268 137.5 401t368.5 133q139 0 221 -54t82 -144q0 -55 -36 -89 t-93 -34q-53 0 -90 30.5t-37 75.5q0 27 17 64l18 37q0 33 -96 32q-299 0 -299 -428v-43h309q106 0 313 15v-801q0 -63 19.5 -78.5t113.5 -15.5h29v-74h-518v74h29q96 0 115.5 15t19.5 81v555q0 100 -13.5 120.5t-74.5 20.5h-342v-698q0 -63 19.5 -78.5t113.5 -15.5h28v-74 h-518v74h29q96 0 115.5 15t19.5 81v696h-448v-696q0 -61 27.5 -78.5t127.5 -17.5h37v-74h-547v74h29q94 0 113.5 15t19.5 81v696h-180z" />
<glyph unicode="&#xfb04;" horiz-adv-x="1851" d="M39 866v88h180v64q0 252 105.5 371.5t293.5 119.5q125 0 197 -51t72 -141q0 -55 -32 -90t-83 -35q-47 0 -80 31.5t-33 76.5q0 23 17 58l14 35q0 35 -69 34q-104 0 -156.5 -83.5t-52.5 -272.5v-117h434v64q0 246 127 368.5t407 122.5h291v-1339q0 -66 19.5 -81t115.5 -15 h35v-74h-530v74h35q94 0 113.5 15t19.5 81v1026q-27 -8 -45 -8q-41 0 -69 27.5t-28 72.5q0 14 17.5 46t17.5 55q0 39 -82 38q-127 0 -189.5 -83.5t-62.5 -272.5v-117h226v-88h-226v-696q0 -61 28 -78.5t128 -17.5h37v-74h-547v74h29q94 0 113.5 15t19.5 81v696h-434v-696 q0 -61 27.5 -78.5t127.5 -17.5h37v-74h-547v74h29q94 0 113.5 15t19.5 81v696h-180z" />
<glyph unicode=" "  horiz-adv-x="569" />
<glyph unicode="&#x09;" horiz-adv-x="569" />
<glyph unicode="&#xa0;" horiz-adv-x="569" />
<glyph unicode="!" horiz-adv-x="606" d="M178 100.5q0 53.5 38 90t91 36.5t90 -37.5t37 -89.5q0 -53 -38 -91t-91 -38t-90 38t-37 91.5zM180 1315q0 193 127 192q125 0 125 -194q0 -82 -37 -266q-29 -145 -38 -266.5t-11 -389.5h-80q-4 279 -12 395.5t-37 260.5q-37 184 -37 268z" />
<glyph unicode="&#x22;" horiz-adv-x="796" d="M125 1421q0 37 25.5 61.5t62.5 24.5q39 0 63.5 -24.5t24.5 -63.5q0 -23 -2 -33l-63 -366h-46l-63 366q-2 12 -2 35zM496 1419q0 39 25.5 63.5t62.5 24.5q39 0 63.5 -24.5t24.5 -63.5q0 -23 -2 -33l-64 -366h-45l-63 366q-2 13 -2 33z" />
<glyph unicode="#" horiz-adv-x="1138" d="M68 467v115h225l39 270h-209v115h225l64 438h133l-64 -438h252l64 438h133l-64 -438h207v-115h-223l-39 -270h207v-115h-223l-68 -467h-133l68 467h-252l-68 -467h-133l67 467h-208zM426 582h252l39 270h-252z" />
<glyph unicode="$" horiz-adv-x="1138" d="M92 303q0 76 41 126t105 50q53 0 88.5 -36.5t35.5 -90.5q0 -45 -20 -73.5t-74 -59.5q-16 -8 -16 -22q0 -47 75.5 -85t186.5 -46v571q-215 63 -305 153.5t-90 247.5q0 160 104.5 262.5t290.5 124.5v215h96v-213q168 -12 270.5 -95t102.5 -206q0 -68 -34 -105.5t-93 -37.5 q-55 0 -89 33t-34 86q0 35 14.5 57.5t59.5 54.5q12 12 12 21q0 33 -62.5 62.5t-146.5 37.5v-506q258 -86 346 -165.5t88 -249.5q0 -193 -115.5 -308.5t-318.5 -125.5v-246h-96v243q-195 10 -308.5 97.5t-113.5 228.5zM266 1104q0 -88 56.5 -143.5t191.5 -100.5v471 q-109 -8 -178.5 -72.5t-69.5 -154.5zM610 68q127 14 205 88.5t78 183.5q0 102 -69.5 166.5t-213.5 103.5v-542z" />
<glyph unicode="%" horiz-adv-x="1705" d="M92 911q0 186 151.5 362.5t325.5 176.5q113 0 187 -96q80 -45 149 -45q207 0 332 170h94l-848 -1479h-102l737 1292q-100 -59 -196 -59q-61 0 -129 24q6 -45 6 -65q0 -199 -137.5 -367t-307.5 -168q-115 0 -188.5 71.5t-73.5 182.5zM270 856q0 -53 32 -87t83 -34 q123 0 230.5 148.5t107.5 318.5q0 45 -12 84q-76 27 -125 84q-63 -23 -97 -55.5t-92 -134.5q-127 -222 -127 -324zM911 279q0 190 147.5 366t323.5 176q104 0 172 -68.5t68 -174.5q0 -182 -133 -364.5t-311 -182.5q-115 0 -191 71t-76 177zM1085 227q0 -49 34 -82.5 t81 -33.5q123 0 233.5 147.5t110.5 314.5q0 70 -37 118t-90 48q-90 0 -180 -149q-152 -246 -152 -363z" />
<glyph unicode="&#x26;" horiz-adv-x="1669" d="M104 387q0 137 91.5 254t263.5 201q-86 182 -86 305q0 164 98 263t260 99q143 0 231.5 -76.5t88.5 -199.5q0 -133 -83 -220t-272 -171q180 -332 330 -508q143 166 143 309q0 96 -163 96h-41v88h577v-88h-43q-86 -2 -139 -55q-18 -18 -28.5 -32.5t-35.5 -58.5l-71 -132 q-51 -92 -135 -197q117 -125 225 -125q68 0 116 55.5t66 151.5l90 -12q-23 -172 -120 -264.5t-238 -92.5q-84 0 -150.5 31t-140.5 107q-188 -145 -393 -146q-201 0 -321 123t-120 295zM324 498q0 -154 104 -271.5t240 -117.5q88 0 206 75q-129 152 -201.5 262.5 t-174.5 311.5q-92 -53 -133 -114.5t-41 -145.5zM565 1219q0 -109 88 -291q123 61 178.5 128.5t55.5 172.5q0 84 -45 138t-117 54q-70 0 -115 -57t-45 -145z" />
<glyph unicode="'" horiz-adv-x="417" d="M121 1421q0 37 25.5 61.5t62.5 24.5q39 0 63.5 -24.5t24.5 -63.5q0 -23 -2 -33l-64 -366h-45l-63 366q-2 12 -2 35z" />
<glyph unicode="(" d="M74 629q0 569 497 878v-75q-154 -135 -220 -321.5t-66 -481.5t66.5 -482.5t219.5 -322.5v-76q-497 308 -497 881z" />
<glyph unicode=")" d="M111 -176q154 135 220 321.5t66 483.5q0 295 -66.5 481t-219.5 322v75q250 -152 373.5 -378t123.5 -500q0 -575 -497 -881v76z" />
<glyph unicode="*" horiz-adv-x="1024" d="M115 877q0 86 106 98q111 12 182 51l64 35l-64 37q-66 39 -182 51q-106 10 -106 98q0 33 25.5 56.5t60.5 23.5q49 0 90 -57.5t68.5 -84t66.5 -48.5l63 -37v74q0 49 -7 77.5t-40 104.5q-16 39 -16 61q0 35 25.5 62.5t58.5 27.5t59.5 -27.5t26.5 -62.5q0 -25 -35 -106 q-29 -63 -29 -137v-74l64 37q68 39 135 133q41 57 90 57q35 0 60.5 -23.5t25.5 -56.5q0 -86 -106 -98q-115 -12 -183 -51l-63 -37l63 -37q39 -23 71 -31t112 -18q106 -12 106 -98q0 -33 -25.5 -56.5t-60.5 -23.5q-49 0 -90 57q-68 94 -135 133l-64 37v-74q0 -49 8.5 -78.5 t39.5 -105.5q16 -39 16 -64q0 -33 -26.5 -60.5t-59.5 -27.5t-59.5 29t-26.5 62q0 23 16 61q33 74 41 104.5t8 79.5v74l-63 -37q-70 -41 -135 -135q-41 -55 -90 -55q-35 0 -60.5 23.5t-25.5 56.5z" />
<glyph unicode="+" horiz-adv-x="1241" d="M82 430v164h457v457h163v-457h457v-164h-457v-457h-163v457h-457z" />
<glyph unicode="," horiz-adv-x="569" d="M131 -317q207 145 207 278q0 18 -14 19h-7q-4 -2 -32 -3q-63 0 -101.5 33t-38.5 88q0 53 38 88t96 35q76 0 121.5 -55t45.5 -148q0 -209 -268 -393z" />
<glyph unicode="-" d="M86 399v170h510v-170h-510z" />
<glyph unicode="." horiz-adv-x="569" d="M152 100.5q0 53.5 37.5 90t91.5 36.5q51 0 89 -37.5t38 -89.5q0 -53 -38 -91t-91.5 -38t-90 38t-36.5 91.5z" />
<glyph unicode="/" horiz-adv-x="569" d="M-47 -29l547 1536h118l-546 -1536h-119z" />
<glyph unicode="0" horiz-adv-x="1138" d="M86 700q0 322 140.5 532t355.5 210q211 0 341 -214t130 -533.5t-136.5 -522.5t-351.5 -203q-207 0 -343 208t-136 523zM313 743q0 -252 15.5 -369.5t58.5 -189.5q76 -127 182 -127q123 0 199 162q55 121 55 512q0 209 -16 316.5t-57 179.5q-76 127 -183 127 q-125 0 -198 -164q-56 -119 -56 -447z" />
<glyph unicode="1" horiz-adv-x="1138" d="M205 0v96h133q123 0 152.5 15.5t29.5 81.5v880q0 90 -18.5 109.5t-108.5 19.5h-180v88q139 0 266 44t180 108h74q-14 -203 -14 -344v-846q0 -84 2 -100.5t12 -26.5q23 -29 170 -29h113v-96h-811z" />
<glyph unicode="2" horiz-adv-x="1138" d="M72 0v57q117 154 200 252l281 299q127 135 184.5 246t57.5 223q0 129 -72 203t-199 74q-113 0 -197.5 -65.5t-84.5 -145.5q0 -20 11 -28.5t69 -33.5q74 -31 73 -116q0 -55 -34.5 -90t-92.5 -35q-74 0 -119 60.5t-45 156.5q0 164 133.5 274.5t327.5 110.5 q201 0 331 -112.5t130 -287.5q0 -150 -98 -280q-55 -76 -314 -277q-98 -78 -155.5 -130t-163.5 -162h459q94 0 121.5 23.5t48.5 121.5l20 104h90l-39 -442h-923z" />
<glyph unicode="3" horiz-adv-x="1138" d="M86 305q0 80 41 130t104 50q57 0 94 -36.5t37 -92.5q0 -76 -79 -120q-33 -18 -39 -24.5t-6 -21.5q0 -47 86 -90t182 -43q137 0 212 87t75 245q0 152 -59.5 231.5t-174.5 79.5q-4 0 -16.5 -1t-44 -2t-84.5 -1q-63 0 -64 52q0 55 66 55q18 0 65 -3t62 -3q225 0 225 290 q0 266 -225 267q-86 0 -161 -38t-75 -81q0 -18 27 -37q63 -45 63 -104q0 -55 -33.5 -89t-87.5 -34q-59 0 -97 40t-38 103q0 139 121 233.5t301 94.5q190 0 304 -96.5t114 -255.5q0 -238 -272 -336q311 -88 311 -369q0 -188 -134 -302t-356 -114q-197 0 -320.5 93t-123.5 243 z" />
<glyph unicode="4" horiz-adv-x="1138" d="M57 358v115l697 969h88q-10 -154 -11 -410v-559h248v-115h-248v-165q0 -68 21.5 -82.5t142.5 -14.5h29v-96h-598v96h43q121 0 142.5 14.5t21.5 82.5v165h-576zM182 473h451v621z" />
<glyph unicode="5" horiz-adv-x="1138" d="M92 305q0 72 43 122t105 50q55 0 92 -37t37 -90q0 -41 -17.5 -66.5t-64.5 -54.5q-37 -20 -37 -45q0 -47 79 -87t171 -40q305 0 305 389q0 174 -78 274.5t-215 100.5q-119 0 -221 -73q-12 -125 -92 -125q-29 0 -47.5 19.5t-18.5 49.5q0 45 57 105q43 377 56 645 q258 -61 422 -62q147 0 272 54q14 8 27 8q16 0 16 -19q0 -20 -31 -73q-104 -174 -368 -174q-102 0 -248 34l-35 -348q147 61 264 62q207 0 335 -128t128 -337q0 -225 -141.5 -357.5t-382.5 -132.5q-184 0 -298 97.5t-114 238.5z" />
<glyph unicode="6" horiz-adv-x="1138" d="M86 631q0 215 67.5 396t207 298t323.5 117q145 0 240.5 -69.5t95.5 -176.5q0 -63 -38 -105t-97 -42q-53 0 -89 34.5t-36 85.5q0 39 31 97q10 18 10 28q0 59 -115 60q-203 0 -297 -230q-33 -78 -46 -155.5t-30 -272.5q137 184 338 185q174 0 290 -121t116 -301 q0 -201 -135.5 -345.5t-335.5 -144.5q-227 0 -363.5 181.5t-136.5 480.5zM328 416q0 -152 76.5 -255.5t185.5 -103.5q113 0 178.5 105.5t65.5 281.5q0 145 -63.5 228.5t-174.5 83.5q-125 0 -196.5 -91t-71.5 -249z" />
<glyph unicode="7" horiz-adv-x="1138" d="M121 946l63 496q319 -20 537 -21q168 0 319 13v-60q-8 -16 -14 -33l-6 -16l-92 -192q-150 -332 -199 -495t-49 -345q0 -12 1 -38t1 -40q0 -133 -30.5 -188.5t-104.5 -55.5q-59 0 -94 41t-35 111q0 127 96 369q33 82 221 464l139 281l-126 -2q-43 0 -186.5 7t-209.5 7 q-45 0 -63.5 -27.5t-40.5 -127.5l-37 -162z" />
<glyph unicode="8" horiz-adv-x="1138" d="M84 344q0 127 70.5 213t228.5 148q-231 123 -231 346q0 170 122.5 280.5t309.5 110.5q176 0 291.5 -92.5t115.5 -233.5q0 -195 -225 -317q150 -68 217.5 -161t67.5 -226q0 -197 -135.5 -320t-368.5 -123q-211 0 -337 103.5t-126 271.5zM254 344q0 -135 80 -211t223 -76 q152 0 241 73t89 196q0 100 -52.5 164.5t-168.5 105.5l-189 68q-119 -55 -171 -130t-52 -190zM309 1137q0 -90 57.5 -151.5t180.5 -106.5l135 -50q88 74 123 134.5t35 140.5q0 113 -72 181.5t-190 68.5q-121 0 -195 -60.5t-74 -156.5z" />
<glyph unicode="9" horiz-adv-x="1138" d="M80 948q0 207 136 350.5t333 143.5q229 0 365.5 -183.5t136.5 -492.5q0 -217 -68 -395t-207 -290t-327 -112q-141 0 -236.5 68.5t-95.5 169.5q0 61 41 104t98 43q51 0 86 -34.5t35 -86.5q0 -33 -29 -90q-12 -25 -12 -34q0 -23 31.5 -37.5t83.5 -14.5q102 0 183 63.5 t120 176.5q43 119 73 414q-84 -104 -158.5 -145.5t-183.5 -41.5q-174 0 -289.5 121t-115.5 303zM303 985q0 -162 63.5 -250t180.5 -88t189.5 85t72.5 241q0 172 -68.5 276.5t-183.5 104.5q-117 0 -185.5 -99.5t-68.5 -269.5z" />
<glyph unicode=":" horiz-adv-x="569" d="M176 100.5q0 53.5 38 90t91 36.5q51 0 89 -37.5t38 -89.5q0 -53 -38 -91t-91 -38t-90 38t-37 91.5zM176 841.5q0 53.5 38 90.5t91 37q51 0 89 -38t38 -89q0 -53 -38 -91t-91 -38t-90 37.5t-37 91z" />
<glyph unicode=";" horiz-adv-x="569" d="M147 -317q207 145 207 278q0 18 -14 19h-6q-4 -2 -33 -3q-63 0 -101 33t-38 88q0 53 38 88t95 35q76 0 122 -55t46 -148q0 -209 -268 -393zM178 839.5q0 53.5 38 90.5t91 37t90 -37t37 -90.5t-38 -91t-91 -37.5t-90 37.5t-37 91z" />
<glyph unicode="&#x3c;" horiz-adv-x="1241" d="M129 438v148l948 458v-180l-725 -352l725 -352v-180z" />
<glyph unicode="=" horiz-adv-x="1241" d="M82 246v164h1077v-164h-1077zM82 614v164h1077v-164h-1077z" />
<glyph unicode="&#x3e;" horiz-adv-x="1241" d="M129 -20v180l725 352l-725 352v180l948 -458v-148z" />
<glyph unicode="?" horiz-adv-x="909" d="M51 1204q0 131 112.5 217t287.5 86q176 0 283.5 -98t107.5 -258q0 -106 -48.5 -183t-197.5 -208q-98 -86 -125 -151.5t-27 -217.5h-90v66q0 127 29 207q12 37 23.5 57t47.5 72l107 149q66 92 66 221q0 119 -60.5 185.5t-169.5 66.5q-74 0 -131 -30.5t-57 -71.5 q0 -6 46 -61.5t46 -92.5q0 -47 -34 -79.5t-83 -32.5q-57 0 -95 44.5t-38 112.5zM266 98.5q0 53.5 38 90t91 36.5q51 0 89 -36.5t38 -90t-38 -91.5t-91 -38t-90 38t-37 91.5z" />
<glyph unicode="@" horiz-adv-x="1509" d="M88 729q0 332 205 555t504 223q268 0 457.5 -181t189.5 -435q0 -217 -145.5 -403.5t-321.5 -186.5q-63 0 -102 37t-39 96q0 25 2 41q-59 -88 -109.5 -125t-112.5 -37q-106 0 -181 86t-75 219q0 186 129 340t283 154q121 0 160 -133l33 115h180l-150 -592q-8 -33 -8 -62 q0 -20 15.5 -34.5t37.5 -14.5q96 0 196.5 159t100.5 327q0 209 -154.5 367.5t-375.5 158.5q-262 0 -433 -187.5t-171 -476.5q0 -291 173 -477t441 -186q313 0 488 309h125q-76 -174 -250 -294t-379 -120q-303 0 -508 218t-205 540zM545 555q0 -76 25.5 -118t72.5 -42 q59 0 118.5 82t95.5 195.5t36 208.5q0 68 -24.5 107.5t-67.5 39.5q-68 0 -129.5 -88t-94 -196.5t-32.5 -188.5z" />
<glyph unicode="A" horiz-adv-x="1478" d="M-16 0v96h28q76 0 113 39t92 178l471 1194h86l522 -1280q37 -88 61.5 -109.5t100.5 -21.5h39v-96h-635v96h86q127 0 127 54q0 14 -16 55l-111 274h-542l-68 -180q-18 -49 -19 -86q0 -117 166 -117h41v-96h-542zM446 590h459l-231 581z" />
<glyph unicode="B" horiz-adv-x="1478" d="M61 0v96h37q125 0 155 15.5t30 81.5v1093q0 66 -30 81t-155 15h-37v97h736q236 0 366.5 -92.5t130.5 -268.5q0 -129 -84 -220t-247 -126q209 -37 309 -128t100 -243q0 -188 -150.5 -294.5t-416.5 -106.5h-744zM512 225q0 -84 20.5 -106.5t98.5 -22.5h86q219 0 311 67.5 t92 244.5q0 170 -95 239.5t-333 69.5h-180v-492zM512 813h182q197 0 280 63.5t83 215.5q0 150 -76 220t-252 70h-82q-80 0 -107.5 -21.5t-27.5 -80.5v-467z" />
<glyph unicode="C" horiz-adv-x="1478" d="M92 725q0 322 206 553t488 231q102 0 178 -28.5t185 -108.5l82 121h108v-592h-90q-63 213 -116 305q-59 98 -150.5 152.5t-198.5 54.5q-211 0 -316.5 -178t-105.5 -518q0 -330 110 -490.5t337 -160.5q377 0 463 456l96 -16q-35 -258 -186.5 -397.5t-397.5 -139.5 q-303 0 -497.5 213t-194.5 543z" />
<glyph unicode="D" horiz-adv-x="1593" d="M59 0v96h39q123 0 153 15.5t30 81.5v1093q0 66 -30 81t-153 15h-39v97h652q334 0 497 -105q141 -92 216 -255t75 -371q0 -365 -188.5 -556.5t-562.5 -191.5h-689zM510 209q0 -76 19.5 -94.5t97.5 -18.5h139q248 0 355.5 149.5t107.5 493.5q0 340 -117 491.5t-379 151.5 h-106q-76 0 -96.5 -19.5t-20.5 -94.5v-1059z" />
<glyph unicode="E" horiz-adv-x="1478" d="M59 0v96h37q125 0 155 15.5t30 81.5v1093q0 66 -30 81t-155 15h-37v97h1260v-525h-88q-23 139 -52.5 219t-86 129.5t-135 64.5t-212.5 15h-106q-84 0 -106.5 -18t-22.5 -84v-467h49q145 0 212 65.5t75 215.5h96v-672h-96q-4 160 -60.5 227.5t-234.5 67.5h-41v-522 q0 -61 31.5 -80t115.5 -19h136q233 0 329.5 95.5t145.5 355.5h90l-41 -547h-1258z" />
<glyph unicode="F" horiz-adv-x="1366" d="M59 0v96h37q125 0 155 15.5t30 81.5v1093q0 66 -30 81t-155 15h-37v97h1248v-525h-90q-43 262 -136.5 345t-347.5 83h-94q-84 0 -106.5 -18t-22.5 -84v-467h49q145 0 212 65.5t75 215.5h96v-672h-96q-4 162 -60.5 228.5t-234.5 66.5h-41v-524q0 -66 29.5 -81.5 t154.5 -15.5h68v-96h-703z" />
<glyph unicode="G" horiz-adv-x="1593" d="M86 713q0 207 88 388t254 294.5t373 113.5q113 0 192.5 -30.5t180.5 -110.5l79 125h107v-575h-88q-127 496 -479 495q-213 0 -325 -179t-112 -521q0 -317 114 -482t329 -165q170 0 263 101t93 288q0 84 -28.5 103.5t-157.5 19.5h-39v96h651v-96h-31q-145 0 -172 -29 q-12 -14 -12 -127v-451h-86l-76 185q-100 -100 -198.5 -143.5t-227.5 -43.5q-295 0 -493.5 209t-198.5 535z" />
<glyph unicode="H" horiz-adv-x="1705" d="M59 0v96h37q125 0 155 15.5t30 81.5v1093q0 66 -30 81t-155 15h-37v97h674v-97h-39q-125 0 -154.5 -15t-29.5 -81v-465h686v465q0 66 -29.5 81t-154.5 15h-29v97h664v-97h-37q-125 0 -155 -15t-30 -81v-1093q0 -66 30 -81.5t155 -15.5h37v-96h-672v96h37 q125 0 154.5 15.5t29.5 81.5v518h-686v-518q0 -66 29.5 -81.5t154.5 -15.5h39v-96h-674z" />
<glyph unicode="I" horiz-adv-x="833" d="M78 0v96h41q125 0 154.5 15.5t29.5 81.5v1093q0 66 -29.5 81t-154.5 15h-41v97h678v-97h-41q-123 0 -153 -15t-30 -81v-1093q0 -66 30 -81.5t153 -15.5h41v-96h-678z" />
<glyph unicode="J" horiz-adv-x="1138" d="M10 317q0 109 57.5 179.5t147.5 70.5q68 0 111 -41t43 -106q0 -63 -37 -105.5t-92 -42.5q-33 0 -76 11h-6q-25 0 -25 -33q0 -72 74 -128t174 -56q182 0 242 178q27 80 26 323v719q0 66 -29.5 81t-152.5 15h-39v97h672v-97h-39q-125 0 -154.5 -15t-29.5 -81v-737 q0 -326 -109 -453t-350 -127q-193 0 -300.5 97t-107.5 251z" />
<glyph unicode="K" horiz-adv-x="1593" d="M61 0v96h37q125 0 155 15.5t30 81.5v1093q0 66 -30 81t-155 15h-37v97h674v-97h-39q-125 0 -154.5 -15t-29.5 -81v-616l502 504q100 100 100 147q0 61 -133 61h-51v97h631v-97q-193 0 -347 -163l-305 -306l496 -714q45 -68 80 -85.5t121 -17.5h39v-96h-701v96h64 q139 0 139 47q0 25 -41 86l-356 523l-238 -240v-319q0 -66 29.5 -81.5t154.5 -15.5h39v-96h-674z" />
<glyph unicode="L" horiz-adv-x="1366" d="M72 0v96h37q125 0 154.5 15.5t29.5 81.5v1093q0 66 -30 81t-154 15h-37v97h671v-97h-36q-125 0 -155 -15t-30 -81v-1091q0 -61 32 -80t116 -19h86q244 0 342 105.5t135 359.5h90l-43 -561h-1208z" />
<glyph unicode="M" horiz-adv-x="1933" d="M45 0v96q147 6 192.5 71.5t45.5 274.5v844q0 66 -30 81t-155 15h-39v97h529l393 -1092l375 1092h514v-97h-37q-125 0 -154.5 -15t-29.5 -81v-1093q0 -66 29.5 -81.5t154.5 -15.5h37v-96h-672v96h37q125 0 154.5 15.5t29.5 81.5v1155l-456 -1348h-82l-488 1348v-906 q0 -209 45 -274.5t191 -71.5v-96h-584z" />
<glyph unicode="N" horiz-adv-x="1669" d="M39 1382v97h422l817 -1088v643q0 211 -45 276.5t-191 71.5v97h584v-97q-147 -6 -192 -71.5t-45 -276.5v-1063h-86l-914 1233v-760q0 -211 45 -276.5t191 -71.5v-96h-584v96q147 6 192.5 71.5t45.5 276.5v871q-27 39 -69 53t-120 14h-51z" />
<glyph unicode="O" horiz-adv-x="1593" d="M92 737q0 322 200 547t513 225q295 0 495.5 -222t200.5 -548q0 -330 -201.5 -550t-502.5 -220q-299 0 -502 220t-203 548zM362 743q0 -348 109 -512.5t326 -164.5q434 0 434 673.5t-428 673.5q-221 0 -331 -163t-110 -507z" />
<glyph unicode="P" horiz-adv-x="1366" d="M57 0v96h37q125 0 155 15.5t30 81.5v1093q0 66 -30 81t-155 15h-37v97h717q276 0 415.5 -105.5t139.5 -300.5q0 -121 -59.5 -216t-167.5 -146q-113 -53 -363 -54h-231v-464q0 -66 29.5 -81.5t154.5 -15.5h53v-96h-688zM508 754h248q322 0 321 311q0 162 -76.5 239.5 t-236.5 77.5h-131q-84 0 -104.5 -17t-20.5 -87v-524z" />
<glyph unicode="Q" horiz-adv-x="1593" d="M92 737q0 309 203 540.5t500 231.5t502.5 -219t205.5 -534q0 -399 -323 -668q53 -168 93 -238.5t85 -70.5q39 0 56.5 41t25.5 139h92q0 -162 -69.5 -254t-192.5 -92q-127 0 -200 101.5t-79 285.5q-92 -31 -182 -31q-299 0 -508 223t-209 545zM362 737q0 -350 121 -510 q-2 16 -2 37q0 123 83 201t212 78t220 -78t130 -221q59 96 83 207.5t24 291.5q0 332 -104.5 501t-329.5 169q-229 0 -333 -183.5t-104 -492.5zM575 244q0 -84 56.5 -131t159.5 -47q104 0 192 45v20q0 152 -56.5 233.5t-160.5 81.5q-84 0 -137.5 -56t-53.5 -146z" />
<glyph unicode="R" horiz-adv-x="1478" d="M53 0v96h37q125 0 154.5 15.5t29.5 81.5v1093q0 66 -29.5 81t-154.5 15h-37v97h709q258 0 399.5 -96.5t141.5 -270.5q0 -305 -437 -367q121 -31 185.5 -102.5t99.5 -212.5l33 -129q27 -109 46 -142.5t56 -33.5q41 0 61.5 48t26.5 155h86q-4 -184 -65.5 -271.5 t-188.5 -87.5q-121 0 -183 77t-79 249l-10 104q-18 176 -93 247t-218 71h-119v-524q0 -66 29.5 -81.5t154.5 -15.5h37v-96h-672zM504 813h225q160 0 241 69.5t81 227.5q0 139 -72 205.5t-223 66.5h-111q-98 0 -119.5 -10t-21.5 -57v-502z" />
<glyph unicode="S" horiz-adv-x="1290" d="M104 567h89q43 -219 159 -350q139 -154 357 -154q154 0 247 82q92 82 92.5 205t-94.5 195q-31 25 -61.5 35t-147.5 41l-194 49q-225 57 -318.5 150t-93.5 261q0 193 124 310.5t325 117.5q225 0 373 -141l81 123h76l25 -533h-88q-41 158 -123 275q-125 178 -342 178 q-131 0 -211 -66.5t-80 -175.5q0 -182 268 -251l219 -56q223 -55 299 -129q123 -119 123 -313q0 -207 -134 -329t-359 -122q-133 0 -230.5 35t-199.5 119l-92 -139h-80z" />
<glyph unicode="T" horiz-adv-x="1366" d="M39 909l31 570h1226l31 -570h-88q-25 174 -68 281q-39 92 -110.5 142t-165.5 50q-96 0 -96 -73v-1116q0 -66 29.5 -81.5t152.5 -15.5h53v-96h-702v96h53q125 0 154.5 15.5t29.5 81.5v1116q0 74 -96 73q-209 0 -291 -227q-35 -102 -55 -246h-88z" />
<glyph unicode="U" horiz-adv-x="1669" d="M35 1382v97h670v-97h-39q-125 0 -155 -15t-30 -81v-745q0 -231 88 -346t305 -115q225 0 319.5 132t94.5 370v452q0 211 -45 276.5t-190 71.5v97h583v-97q-147 -6 -192 -71.5t-45 -276.5v-465q0 -315 -146.5 -457.5t-433.5 -142.5q-264 0 -415.5 108.5t-151.5 334.5v874 q0 66 -29.5 81t-152.5 15h-35z" />
<glyph unicode="V" horiz-adv-x="1478" d="M-16 1382v97h639v-97h-82q-127 0 -127 -51q0 -23 16 -61l375 -953l317 844q25 68 25 115q0 49 -44 77.5t-122 28.5h-39v97h555v-97h-37q-84 0 -122 -37.5t-85 -162.5l-471 -1213h-82l-518 1299q-29 70 -59.5 92t-97.5 22h-41z" />
<glyph unicode="W" horiz-adv-x="2009" d="M12 1382v97h578v-97h-92q-88 0 -88 -41q0 -20 10 -51l295 -917l237 786l-53 160q-12 37 -38.5 50t-90.5 13h-47v97h592v-97h-33q-68 0 -101.5 -7t-39.5 -17t-6 -31q0 -12 14 -57l283 -897l245 831q12 33 13 72q0 55 -35 80.5t-121 25.5h-37v97h502v-97h-29 q-82 0 -115.5 -41t-70.5 -170l-361 -1202h-84l-331 1018l-303 -1018h-89l-442 1334q-18 53 -38.5 66t-84.5 13h-39z" />
<glyph unicode="X" horiz-adv-x="1441" d="M-12 1382v97h633v-97h-78q-98 0 -99 -26q0 -18 23 -51l272 -394l222 322q29 41 28 70q0 43 -24.5 61t-96.5 18h-49v97h563v-97h-32q-82 0 -139.5 -38.5t-141.5 -153.5l-272 -371l430 -616q53 -76 82.5 -91.5t128.5 -15.5h28v-96h-671v96h57q94 0 115.5 6.5t21.5 30.5 q0 23 -26 64l-306 432l-237 -344q-33 -49 -33 -90q0 -45 36 -72t97 -27h51v-96h-581v96h28h8q71 0 121 36q53 38 119 128l332 461l-403 584q-35 51 -66 64t-106 13h-35z" />
<glyph unicode="Y" horiz-adv-x="1441" d="M-27 1382v97h658v-97h-121q-80 0 -80 -39q0 -25 23 -57l344 -555l254 453q35 63 34 106q0 49 -37.5 70.5t-121.5 21.5h-47v97h581v-97h-33q-90 0 -141 -43t-125 -176l-305 -551v-419q0 -66 28.5 -81.5t153.5 -15.5h54v-96h-703v96h53q125 0 155 15.5t30 81.5v395 l-443 700q-35 57 -67.5 75.5t-98.5 18.5h-45z" />
<glyph unicode="Z" horiz-adv-x="1251" d="M49 0v74l838 1308h-266q-207 0 -289 -82.5t-131 -338.5h-92l41 518h1015v-74l-841 -1309h340q215 0 294 107q84 102 123 366h97l-37 -569h-1092z" />
<glyph unicode="[" d="M135 -221v1700h473v-76h-289v-1550h289v-74h-473z" />
<glyph unicode="\" horiz-adv-x="1241" d="M152 1509h118l820 -1509h-119z" />
<glyph unicode="]" d="M74 -145h286v1550h-286v74h471v-1700h-471v76z" />
<glyph unicode="^" horiz-adv-x="1241" d="M106 651l429 828h174l426 -828h-179l-333 637l-338 -637h-179z" />
<glyph unicode="_" horiz-adv-x="1024" d="M0 -150h1024v-124h-1024v124z" />
<glyph unicode="`" d="M35 1352q0 29 21.5 50t49.5 21q39 0 103 -63l287 -287h-84l-326 199q-51 31 -51 80z" />
<glyph unicode="a" horiz-adv-x="1138" d="M90 209q0 152 143.5 236.5t499.5 146.5v80q0 127 -55 176t-166 49q-74 0 -128 -23.5t-54 -56.5q0 -2 22.5 -45t22.5 -65q0 -45 -32 -75t-79 -30q-53 0 -86 35t-33 92q0 111 114 183.5t286 72.5q193 0 287 -69.5t94 -256.5v-411q0 -78 17.5 -110t60.5 -32q4 0 37.5 11.5 t50.5 11.5q20 0 20 -25q0 -45 -59.5 -81.5t-128.5 -36.5q-72 0 -114 33.5t-67 111.5q-137 -162 -356 -162q-135 0 -216 65.5t-81 174.5zM297 238q0 -70 46 -115t116 -45q66 0 130 34.5t103 92.5q27 41 34 76.5t7 128.5v94q-260 -43 -348 -99t-88 -167z" />
<glyph unicode="b" horiz-adv-x="1138" d="M16 1399v88l353 22v-684q57 88 120.5 124t157.5 36q184 0 301 -140t117 -361.5t-126 -368t-314 -146.5q-184 0 -308 162l-100 -160h-78q37 168 37 529v796q0 66 -15.5 84.5t-72.5 18.5h-72zM358 459q0 -188 69 -295t189 -107q113 0 173.5 105.5t60.5 300.5 q0 201 -62.5 309.5t-177.5 108.5q-123 0 -187.5 -108.5t-64.5 -313.5z" />
<glyph unicode="c" horiz-adv-x="909" d="M70 461q0 229 129 376.5t327 147.5q137 0 228.5 -70.5t91.5 -173.5q0 -61 -36 -100t-89 -39t-88 32t-35 83q0 45 41 94q12 18 12 25q0 25 -34.5 43t-79.5 18q-113 0 -182.5 -113.5t-69.5 -300.5q0 -180 71.5 -284.5t194.5 -104.5q80 0 136 48t106 159l79 -31 q-66 -164 -151.5 -232.5t-222.5 -68.5q-190 0 -309 136.5t-119 355.5z" />
<glyph unicode="d" horiz-adv-x="1175" d="M88 467q0 221 117 369.5t291 148.5q172 0 282 -151v462q0 66 -16.5 84.5t-71.5 18.5h-121v88l402 22v-1271q0 -96 22.5 -123t104.5 -27h37v-88l-357 -14v161q-94 -178 -282 -178q-178 0 -293 140.5t-115 357.5zM303 442q0 -170 61.5 -266t170.5 -96q111 0 176 107.5 t65 285.5q0 150 -39 246q-27 70 -82 112.5t-118.5 42.5t-115.5 -40.5t-79 -108.5q-39 -103 -39 -283z" />
<glyph unicode="e" horiz-adv-x="1024" d="M72 451q0 229 131 381.5t327 152.5q188 0 305 -146.5t117 -377.5h-663q0 -188 76.5 -284.5t207.5 -96.5q102 0 173 50t135 169l71 -39q-125 -291 -417 -291q-207 0 -335 133.5t-128 348.5zM291 549h358q49 0 66.5 15.5t17.5 60.5q0 123 -56 197.5t-151 74.5 q-98 0 -166.5 -95t-68.5 -253z" />
<glyph unicode="f" d="M39 866v88h180v64q0 252 105.5 371.5t293.5 119.5q125 0 197 -51t72 -141q0 -55 -32 -90t-83 -35q-47 0 -80 31.5t-33 76.5q0 23 17 58l14 35q0 35 -69 34q-104 0 -156.5 -83.5t-52.5 -272.5v-117h225v-88h-225v-696q0 -61 27.5 -78.5t127.5 -17.5h37v-74h-547v74h29 q94 0 113.5 15t19.5 81v696h-180z" />
<glyph unicode="g" horiz-adv-x="1099" d="M47 -205q0 127 189 195q-137 47 -138 176q0 84 46 133t149 72q-80 37 -126 110.5t-46 163.5q0 154 110.5 247t292.5 93q137 0 254 -78q72 66 110 86.5t87 20.5q59 0 97 -33t38 -86q0 -41 -26.5 -69.5t-65.5 -28.5t-61.5 25.5t-33 52t-18.5 26.5q-23 0 -69 -49 q76 -90 75 -201q0 -211 -192 -297q-51 -23 -99.5 -30t-193.5 -9q-102 -2 -147.5 -23.5t-45.5 -68.5q0 -39 25 -53q37 -18 143 -18h209q186 0 260 -29q57 -23 90 -81t33 -134q0 -324 -514 -324q-207 0 -319.5 55.5t-112.5 155.5zM217 -188q0 -70 70.5 -107t199.5 -37 q172 0 267.5 48t95.5 137q0 49 -36 80.5t-97 37.5q-31 4 -213 4h-152q-74 -39 -104.5 -75.5t-30.5 -87.5zM307 643q0 -115 55.5 -182.5t151.5 -67.5q98 0 153.5 67.5t55.5 188.5q0 119 -52.5 183.5t-148.5 64.5q-102 0 -158.5 -66.5t-56.5 -187.5z" />
<glyph unicode="h" horiz-adv-x="1251" d="M31 1399v88l379 22v-723q133 199 323 199q92 0 165 -42t112 -116q27 -51 35 -97t8 -157v-403q0 -66 19.5 -81t113.5 -15h28v-74h-518v74h29q96 0 115.5 15t19.5 81v412q0 141 -45 206q-23 31 -64.5 51.5t-80.5 20.5q-66 0 -128.5 -43t-95.5 -112q-37 -78 -36 -242v-293 q0 -66 19.5 -81t115.5 -15h28v-74h-518v74h29q94 0 113.5 15t19.5 81v1126q0 66 -15.5 84.5t-72.5 18.5h-98z" />
<glyph unicode="i" horiz-adv-x="645" d="M37 844v88l385 22v-784q0 -63 23.5 -79.5t121.5 -16.5h25v-74h-531v74h25q96 0 119.5 16t23.5 80v571q0 66 -15 84.5t-73 18.5h-104zM223 1249q0 41 31 72t72 31t71.5 -31t30.5 -72q0 -43 -30.5 -72.5t-73.5 -29.5q-41 0 -71 30.5t-30 71.5z" />
<glyph unicode="j" horiz-adv-x="606" d="M-168 -246q0 53 33 88t82 35q43 0 74.5 -28.5t31.5 -67.5q0 -18 -14 -49q-10 -27 -10 -33q0 -27 51 -27q33 0 65.5 20.5t47.5 51.5q39 80 38 303v694q0 66 -15 84.5t-73 18.5h-118v88l399 22v-809q0 -174 -18.5 -266t-65.5 -160q-96 -133 -279 -133q-102 0 -165.5 46 t-63.5 122zM225 1249q0 41 31 72t72 31t71.5 -31t30.5 -72q0 -43 -30.5 -72.5t-73.5 -29.5q-41 0 -71 30.5t-30 71.5z" />
<glyph unicode="k" horiz-adv-x="1214" d="M29 1399v88l379 22v-1013l276 266q47 47 47 80q0 39 -96 39h-64v73h539v-73q-104 -12 -181 -51t-165 -128l-92 -90l291 -397q63 -80 108 -106.5t131 -34.5v-74h-540v74h38q90 0 91 35q0 12 -15 36l-244 342l-124 -118v-199q0 -66 19 -81t116 -15h28v-74h-518v74h29 q94 0 113.5 15t19.5 81v1126q0 66 -15.5 84.5t-72.5 18.5h-98z" />
<glyph unicode="l" horiz-adv-x="645" d="M39 1399v88l379 22v-1339q0 -66 19.5 -81t115.5 -15h35v-74h-531v74h35q94 0 113.5 15t19.5 81v1126q0 66 -15 84.5t-71 18.5h-100z" />
<glyph unicode="m" horiz-adv-x="1820" d="M47 844v88l365 22v-157q117 188 295 188q102 0 179 -56.5t103 -148.5q127 205 320 205q150 0 241 -117q41 -53 53.5 -99t12.5 -140v-457q0 -66 19.5 -82t113.5 -16h29v-74h-518v74h28q96 0 115.5 15t19.5 81v418q0 111 -24 170q-43 102 -150 102q-109 0 -172 -91 t-63 -245v-354q0 -66 19.5 -81t113.5 -15h29v-74h-519v74h29q96 0 115.5 15t19.5 81v440q0 127 -41 183q-18 29 -57 48t-78 19q-100 0 -166.5 -90t-66.5 -227v-371q0 -66 19.5 -82t113.5 -16h28v-74h-516v74h29q94 0 113.5 16t19.5 82v569q0 66 -15.5 84.5t-72.5 18.5h-84z " />
<glyph unicode="n" horiz-adv-x="1251" d="M55 0v74h29q94 0 113.5 15t19.5 81v571q0 66 -15.5 84.5t-72.5 18.5h-74v88l355 22v-166q131 197 323 197q90 0 164 -42t113 -116q27 -51 35 -97t8 -157v-403q0 -66 19.5 -81t113.5 -15h28v-74h-518v74h29q96 0 115.5 15t19.5 81v414q0 141 -45 204q-23 31 -64.5 51.5 t-80.5 20.5q-66 0 -128.5 -43t-95.5 -112q-37 -78 -36 -240v-295q0 -66 19.5 -81t115.5 -15h28v-74h-518z" />
<glyph unicode="o" horiz-adv-x="1024" d="M70 475q0 215 129 362.5t317 147.5q182 0 310 -148.5t128 -359.5t-129 -359.5t-313 -148.5t-313 147.5t-129 358.5zM285 475q0 -203 58 -310.5t169 -107.5t169 107.5t58 312.5q0 203 -57 311.5t-166 108.5q-231 0 -231 -422z" />
<glyph unicode="p" horiz-adv-x="1175" d="M57 -340h29q94 0 113.5 15.5t19.5 80.5v985q0 66 -15.5 84.5t-72.5 18.5h-74v88l355 22v-145q102 176 282 176q168 0 285 -145.5t117 -358.5q0 -219 -118 -365.5t-296 -146.5q-94 0 -156.5 39t-113.5 127v-379q0 -61 25.5 -78.5t123.5 -17.5h29v-74h-533v74zM410 467 q0 -176 66.5 -281.5t175 -105.5t169 107.5t60.5 306.5q0 180 -58.5 280t-165.5 100q-117 0 -182 -108.5t-65 -298.5z" />
<glyph unicode="q" horiz-adv-x="1138" d="M74 455q0 227 125 378.5t313 151.5q190 0 311 -170l97 139h75q-29 -135 -32 -174l-2 -147v-877q0 -66 19 -81t114 -15h28v-74h-532v74h26q98 0 125 17.5t27 78.5v363q-61 -84 -121.5 -117t-157.5 -33q-180 0 -297.5 137.5t-117.5 348.5zM289 467q0 -184 62.5 -285.5 t176.5 -101.5q240 0 240 420q0 164 -43 258q-29 66 -81 102.5t-114 36.5q-241 0 -241 -430z" />
<glyph unicode="r" horiz-adv-x="909" d="M43 844v88l363 22v-254q49 135 129.5 210t177.5 75q82 0 130 -45t48 -119q0 -63 -35 -101t-90 -38q-49 0 -81 31.5t-32 81t37 92.5q-131 -16 -205 -189q-80 -182 -79 -426v-102q0 -61 27.5 -78.5t125.5 -17.5h39v-74h-547v74h29q96 0 115.5 15t19.5 81v571 q0 66 -15.5 84.5t-72.5 18.5h-84z" />
<glyph unicode="s" horiz-adv-x="948" d="M104 -14v387h82q37 -154 126 -235t218 -81q90 0 147.5 46.5t57.5 117.5q0 61 -48 97t-171 65l-108 25q-156 37 -218 92q-72 66 -71 188q0 133 82 215t217 82q145 0 250 -82l59 74h72v-344h-72q-43 123 -100 180q-84 82 -199 82q-84 0 -137 -40t-53 -101q0 -76 71 -109 q37 -20 150 -45l102 -22q94 -20 136 -37t79 -49q86 -72 86 -207q0 -143 -91 -229.5t-243 -86.5q-156 0 -280 101l-72 -84h-72z" />
<glyph unicode="t" horiz-adv-x="796" d="M37 866v80q246 18 276 414h84v-406h301v-88h-301v-559q0 -123 26 -168t95 -45q150 0 160 279h86q2 -20 2 -47q0 -154 -79 -255.5t-224 -101.5q-180 0 -234 133q-25 57 -24 242v522h-168z" />
<glyph unicode="u" horiz-adv-x="1251" d="M43 844v88l358 22v-624q0 -84 5.5 -114t25.5 -58q41 -63 143 -64q158 0 226 144q43 94 43 251v252q0 66 -15.5 84.5t-72.5 18.5h-105v88l385 22v-716q0 -98 22.5 -124t106.5 -26h52v-88l-373 -14v170q-68 -98 -143.5 -142.5t-176.5 -44.5q-190 0 -276 131q-39 59 -39 199 v442q0 66 -15.5 84.5t-72.5 18.5h-78z" />
<glyph unicode="v" horiz-adv-x="1099" d="M16 881v73h484v-73h-29q-63 0 -87 -10.5t-24 -36.5q0 -23 11 -43l233 -543l189 475q14 35 18 86q0 72 -111 72h-28v73h409v-73h-28q-55 0 -90 -42t-80 -151l-291 -719h-72l-352 824q-25 55 -46.5 71.5t-76.5 16.5h-29z" />
<glyph unicode="w" horiz-adv-x="1593" d="M31 881v73h450v-73h-37q-84 0 -84 -47q0 -16 9 -46l198 -514l181 478l-19 53q-16 45 -36.5 60.5t-69.5 15.5h-35v73h459v-73h-50q-51 0 -68.5 -9.5t-17.5 -37.5q0 -25 9 -43l200 -527l174 467q16 49 17 76q0 74 -101 74h-34v73h387v-73h-27q-51 0 -77.5 -31t-61.5 -125 l-287 -756h-63l-250 647l-244 -647h-72l-307 811q-20 61 -41.5 81t-64.5 20h-37z" />
<glyph unicode="x" horiz-adv-x="1099" d="M18 0v74h33q74 0 164 106l236 275l-250 315q-51 66 -82 86.5t-88 24.5v73h485v-73h-33q-86 0 -86 -37q0 -20 21 -45l157 -201l130 154q41 51 40 84q0 45 -92 45h-39v73h424v-73h-30q-68 0 -142 -86l-233 -273l258 -348q41 -55 77 -77.5t87 -22.5h28v-74h-516v74h27 q57 0 76.5 8t19.5 29q0 23 -26 61l-156 207l-172 -207q-16 -16 -17 -43q0 -29 19.5 -42t81.5 -13h31v-74h-433z" />
<glyph unicode="y" horiz-adv-x="1099" d="M6 -264q0 55 35 91t88 36q45 0 74.5 -26.5t29.5 -65.5q0 -12 -7 -39t-7 -33q0 -20 33 -21q49 0 113.5 73t121.5 192l35 71l-334 756q-29 61 -57.5 86t-77.5 25h-26v73h487v-73h-43q-94 0 -94 -52q0 -14 12 -43l225 -526l187 463q20 49 20 82q0 76 -110 76h-33v73h409v-73 h-24q-57 0 -89 -35t-71 -131l-233 -578q-119 -293 -195 -395q-121 -164 -282 -164q-80 0 -133.5 45t-53.5 113z" />
<glyph unicode="z" horiz-adv-x="985" d="M80 0v74l559 792h-178q-125 0 -185.5 -59t-74.5 -199h-82l18 346h740v-73l-560 -793h209q139 0 204 63.5t79 215.5h82l-14 -367h-797z" />
<glyph unicode="{" d="M135 596v66q45 14 58.5 19t39 19.5t30.5 27.5t15.5 43t11.5 66.5t1 96.5v237q0 176 60.5 242t203.5 66h53v-70q-100 -6 -133 -58.5t-33 -199.5v-266q0 -104 -26.5 -154.5t-110.5 -101.5q84 -51 110.5 -101.5t26.5 -154.5v-267q0 -147 33 -199t133 -59v-69h-53 q-143 0 -203.5 65.5t-60.5 241.5v238q0 59 -3 98t-10.5 66.5t-18.5 43t-28.5 26.5t-41 18.5t-54.5 19.5z" />
<glyph unicode="|" horiz-adv-x="1241" d="M539 -221v1700h163v-1700h-163z" />
<glyph unicode="}" d="M74 -152q98 6 131 58.5t33 199.5v267q0 104 26.5 154.5t110.5 101.5q-84 51 -110.5 101t-26.5 155v266q0 147 -33 199.5t-131 58.5v70h51q141 0 202.5 -64.5t61.5 -243.5v-237q0 -88 4 -132t27.5 -74t44 -38t82.5 -28v-66q-47 -14 -59.5 -19.5t-39 -19.5t-31.5 -27.5 l-15.5 -43t-11.5 -66.5t-1 -96v-238q0 -178 -61.5 -242.5t-202.5 -64.5h-51v69z" />
<glyph unicode="~" horiz-adv-x="1241" d="M104 451q57 100 135 159.5t152 59.5q66 0 203 -66l94 -45q84 -41 108.5 -50t55.5 -7q88 0 176 133l109 -78q-57 -100 -135 -159.5t-152 -59.5q-76 0 -203 63l-94 48q-111 55 -164 57q-88 0 -176 -133z" />
<glyph unicode="&#xa0;" />
<glyph unicode="&#xa1;" horiz-adv-x="606" d="M172 854q0 53 38 91t91 38t90 -38t37 -91t-38 -90t-91 -37t-90 38t-37 89zM174 -358q0 82 37 266q29 145 38 266t11 389h80q4 -279 12 -395.5t37 -259.5q37 -184 37 -268q0 -193 -127 -193q-125 0 -125 195z" />
<glyph unicode="&#xa2;" horiz-adv-x="1138" d="M145 459q0 231 135.5 378.5t348.5 147.5q86 0 159 -27l95 240h88l-109 -276q43 -31 72 -83.5t29 -101.5q0 -53 -40 -93t-94 -40q-43 0 -79 31l-203 -520q51 -16 92 -17q182 0 262 203l80 -29q-102 -303 -381 -303q-47 0 -106 13l-107 -271h-88l117 297q-127 55 -199 174 t-72 277zM358 492q0 -238 115 -336l279 706q-39 35 -115 35q-131 0 -205 -107.5t-74 -297.5z" />
<glyph unicode="&#xa3;" horiz-adv-x="1138" d="M35 133q0 78 53 127t139 49q66 0 174 -47q14 57 15 90q0 121 -68 314h-274v96h245q-51 182 -51 274q0 180 112 293t294 113q158 0 260 -83t102 -208q0 -76 -41 -124t-106 -48q-53 0 -88 34t-35 87q0 43 20.5 67.5t75.5 53.5q31 14 31 34q0 37 -59.5 68t-128.5 31 q-109 0 -171.5 -64.5t-62.5 -177.5q0 -68 68 -350h346v-96h-328q20 -100 21 -179q0 -160 -56 -270q145 -70 248 -70q100 0 157.5 41t100.5 144l72 -31q-35 -162 -123 -247t-217 -85q-147 0 -314 121q-113 -121 -233 -121q-78 0 -128 46t-50 118zM119 139q0 -37 29.5 -62.5 t70.5 -25.5q86 0 146 103q-92 72 -158 71q-35 0 -61.5 -25.5t-26.5 -60.5z" />
<glyph unicode="&#xa4;" horiz-adv-x="1138" d="M53 295l109 108q-106 143 -107 310q0 170 103 301l-105 102l105 107l104 -105q137 102 301 103q166 0 309 -107l109 109l104 -107l-108 -106q106 -137 106 -310q0 -168 -102 -301l104 -104l-104 -105l-104 105q-133 -102 -302 -102q-170 0 -309 106l-108 -109zM223 707 q0 -141 101.5 -244t240.5 -103q147 0 248.5 100.5t101.5 246.5q0 143 -101 244.5t-244.5 101.5t-245 -101.5t-101.5 -244.5z" />
<glyph unicode="&#xa5;" horiz-adv-x="1138" d="M-2 1382v97h477v-97h-49q-57 0 -57 -39q0 -25 16 -57l256 -555l186 453q27 66 25 108q0 90 -94 90h-35v97h418v-97h-29q-66 0 -95.5 -38.5t-88.5 -180.5l-199 -483h207v-96h-236v-176h236v-97h-236v-59q0 -111 11 -127q16 -29 129 -29h39v-96h-584v96h39q94 0 115.5 16.5 t21.5 82.5v116h-238v97h238v176h-238v96h195l-281 608q-29 61 -46 77.5t-62 16.5h-41z" />
<glyph unicode="&#xa6;" horiz-adv-x="1241" d="M539 -221v680h163v-680h-163zM539 799v680h163v-680h-163z" />
<glyph unicode="&#xa7;" horiz-adv-x="1024" d="M119 645q0 113 73.5 190.5t182.5 77.5h35q-121 117 -158 175.5t-37 148.5q0 119 85 194.5t216 75.5q119 0 205 -67.5t86 -157.5q0 -47 -33 -80t-80 -33q-49 0 -80.5 29t-31.5 72q0 31 35.5 71.5t35.5 42.5q0 20 -40 38t-89 18q-72 0 -120 -41t-48 -103q0 -78 140 -194 l225 -189q197 -170 197 -335q0 -121 -76 -204t-185 -83q-20 0 -36 2q117 -94 163.5 -164t46.5 -162q0 -115 -88 -192.5t-221 -77.5q-119 0 -206 67.5t-87 159.5q0 47 33 80t80 33q49 0 81 -28.5t32 -74.5q0 -51 -56 -92q-16 -12 -16 -22q0 -20 41 -38t88 -18q78 0 128 40 t50 102q0 53 -37 102t-149 142l-160 131q-123 102 -174 184t-51 180zM254 709q0 -57 29.5 -103.5t115.5 -124.5q150 -137 244 -137q55 0 97 44t42 104q0 119 -190 276q-113 90 -191 90q-63 0 -105 -43t-42 -106z" />
<glyph unicode="&#xa8;" d="M35 1249q0 41 30.5 72t71.5 31t72 -31t31 -72q0 -43 -31 -72.5t-74 -29.5q-41 0 -70.5 30.5t-29.5 71.5zM442 1249q0 41 31 72t72 31t71.5 -31t30.5 -72q0 -43 -30.5 -72.5t-73.5 -29.5q-41 0 -71 30.5t-30 71.5z" />
<glyph unicode="&#xa9;" horiz-adv-x="1509" d="M43 684q0 295 209 505t504 210t504.5 -210t209.5 -505t-209.5 -504t-504.5 -209t-504 209t-209 504zM133 684q0 -258 182.5 -440.5t440.5 -182.5t441 182.5t183 440.5t-183 441.5t-441 183.5t-440.5 -183.5t-182.5 -441.5zM385 676q0 168 120 288.5t286 120.5 q100 0 204 -67l45 59h70v-315h-61q-37 115 -66 160q-66 104 -195 104q-227 0 -227 -354q0 -332 242 -332q213 0 258 238l65 -11q-20 -137 -107 -211.5t-231 -74.5q-176 0 -289.5 110.5t-113.5 284.5z" />
<glyph unicode="&#xaa;" horiz-adv-x="684" d="M10 1030q0 90 92.5 141.5t325.5 88.5v49q0 72 -35 102.5t-110 30.5q-47 0 -82 -13.5t-35 -33.5q0 -2 14.5 -29t14.5 -37q0 -27 -20.5 -45t-51.5 -18q-35 0 -56.5 20.5t-21.5 54.5q0 66 74 110t186 44q123 0 185.5 -41t62.5 -154v-247q0 -84 49 -84q2 0 24.5 7t32.5 7 q14 0 15 -14q0 -27 -39 -49.5t-84 -22.5q-86 0 -115 86q-92 -96 -233 -96q-88 0 -140.5 38.5t-52.5 104.5zM47 674v82h533v-82h-533zM145 1047q0 -41 30 -69t75 -28q78 0 128 48.5t50 152.5v57q-164 -27 -223.5 -60t-59.5 -101z" />
<glyph unicode="&#xab;" horiz-adv-x="872" d="M78 498l303 295q33 31 47 30q23 0 23 -24q2 -12 -91 -148l-104 -153q195 -276 195 -301q0 -23 -25 -23q-12 -2 -45 31l-178 174l-84 80q-27 27 -41 39zM420 498l225 217l75 71q26 25 35 31t17 6q23 0 23 -24q0 -6 -19.5 -39t-49.5 -77l-57 -84l-51 -71l-20 -30 q195 -276 195 -301q0 -23 -25 -23q-12 -2 -45 31l-178 174l-84 80q-27 27 -41 39z" />
<glyph unicode="&#xac;" horiz-adv-x="1241" d="M82 614v164h1077v-450h-164v286h-913z" />
<glyph unicode="&#xad;" d="M86 399v170h510v-170h-510z" />
<glyph unicode="&#xae;" horiz-adv-x="1509" d="M43 684q0 295 209 505t504 210t504.5 -210t209.5 -505t-209.5 -504t-504.5 -209t-504 209t-209 504zM133 684q0 -258 182.5 -440.5t440.5 -182.5t441 182.5t183 440.5t-183 441.5t-441 183.5t-440.5 -183.5t-182.5 -441.5zM348 305v60h23q61 0 77.5 8t16.5 37v565 q0 29 -15.5 36t-78.5 7h-23v61h406q152 0 234.5 -50t82.5 -144q0 -154 -231 -191q59 -18 93 -55t52 -107l19 -65q14 -55 22 -71.5t25 -16.5q39 0 45 104h65q-2 -195 -155 -194q-74 0 -113 40t-47 134l-6 53q-10 86 -50 123t-116 37h-56v-266q0 -29 15.5 -37t77.5 -8h24v-60 h-387zM618 735h117q170 0 170 148q0 135 -155 135h-64q-47 0 -57.5 -4t-10.5 -25v-254z" />
<glyph unicode="&#xaf;" d="M20 1194v111h642v-111h-642z" />
<glyph unicode="&#xb0;" horiz-adv-x="819" d="M102 1094q0 131 91.5 221t222.5 90q127 0 214 -90t87 -223q0 -131 -89 -222.5t-218 -91.5t-218.5 91.5t-89.5 224.5zM217 1092q0 -82 57.5 -139.5t135.5 -57.5q80 0 135 57.5t55 139.5t-54 139t-132 57q-82 0 -139.5 -57t-57.5 -139z" />
<glyph unicode="&#xb1;" horiz-adv-x="1241" d="M82 0v164h1077v-164h-1077zM82 594v164h457v456h163v-456h457v-164h-457v-283h-163v283h-457z" />
<glyph unicode="&#xb2;" d="M27 592v45q20 33 68 85t65 69l172 172q152 150 151 272q0 74 -43 115t-121 41q-68 0 -120 -36t-52 -81q0 -6 25 -17.5t49.5 -34t24.5 -55.5q0 -35 -24.5 -57.5t-63.5 -22.5q-49 0 -80 38t-31 98q0 100 86 167.5t213 67.5q129 0 213 -68.5t84 -175.5q0 -88 -51 -153.5 t-209 -179.5q-96 -72 -190 -160h278q55 0 70.5 13.5t27.5 66.5l15 67h69l-24 -276h-602z" />
<glyph unicode="&#xb3;" d="M37 780q0 51 27.5 83t72.5 32q37 0 62.5 -24.5t25.5 -59.5q0 -29 -13 -46t-54 -40l-11 -12q0 -25 53.5 -48.5t108.5 -23.5q84 0 129 49t45 139q0 176 -141 177q-2 0 -34 -1t-58 -1q-45 0 -45 38.5t49 38.5q18 0 29 -2l49 -2q137 -6 137 164q0 150 -135 150 q-49 0 -95 -20.5t-46 -41.5q0 -6 27.5 -34.5t27.5 -49.5q0 -35 -23.5 -57.5t-60.5 -22.5q-41 0 -66.5 26t-25.5 66q0 86 78.5 143.5t195.5 57.5q125 0 198.5 -58.5t73.5 -156.5q0 -70 -38.5 -115t-116.5 -84q180 -49 180 -219q0 -113 -88 -182.5t-231 -69.5 q-125 0 -206 58.5t-81 148.5z" />
<glyph unicode="&#xb4;" d="M186 1073l287 287q63 63 102 63q29 0 50.5 -21.5t21.5 -49.5q0 -49 -51 -80l-326 -199h-84z" />
<glyph unicode="&#xb5;" horiz-adv-x="1251" d="M43 844v88l358 22v-624q0 -84 5.5 -114t25.5 -58q41 -63 143 -64q158 0 226 144q43 94 43 251v252q0 66 -15.5 84.5t-72.5 18.5h-105v88l385 22v-716q0 -98 22.5 -124t106.5 -26h52v-88l-373 -14v170q-125 -186 -316 -187q-150 0 -239 111q0 -104 24 -189 q39 -139 39 -188q0 -68 -27.5 -110t-72.5 -42t-73.5 42t-28.5 106q0 53 34 186q25 90 25 156v700q0 66 -15.5 84.5t-72.5 18.5h-78z" />
<glyph unicode="&#xb6;" horiz-adv-x="1241" d="M100 1071q0 193 91.5 300.5t263.5 107.5h686v-74q-90 -4 -111.5 -20.5t-21.5 -75.5v-1352q0 -100 2 -118.5t12 -31.5q16 -23 119 -28v-74h-735v74h8q117 0 141 28q10 12 11 31t1 119v707h-61q-199 0 -302.5 104t-103.5 303zM379 985q0 -254 164 -254h24v674 q-106 0 -147 -55.5t-41 -196.5v-168zM700 -219h174v1624h-174v-1624z" />
<glyph unicode="&#xb7;" horiz-adv-x="569" d="M158 512q0 53 37.5 90t89 37t89.5 -37t38 -90t-38 -90t-89.5 -37t-89 37t-37.5 90z" />
<glyph unicode="&#xb8;" d="M59 -406l29 68q74 -25 125 -24q53 0 85 22.5t32 58.5q0 35 -27 57.5t-70 22.5q-29 0 -69 -10l-19 10l91 211h71l-49 -139q43 6 59 6q76 0 122 -39t46 -100q0 -78 -68.5 -128t-176.5 -50q-93 -1 -181 34z" />
<glyph unicode="&#xb9;" d="M80 592v72h88q88 0 102 14q6 6 6 70v485q0 51 -10 60.5t-63 9.5h-121v67q92 0 173 24.5t116 63.5h57q-10 -119 -10 -209v-501q0 -61 6 -70q14 -14 100 -14h78v-72h-522z" />
<glyph unicode="&#xba;" horiz-adv-x="614" d="M20 1190q0 129 83 217t208 88q121 0 203 -90t82 -221q0 -133 -81 -215t-212 -82q-125 0 -204 85t-79 218zM43 674v82h532v-82h-532zM160 1186q0 -246 147 -246q150 0 150 262q0 240 -146 240q-151 0 -151 -256z" />
<glyph unicode="&#xbb;" horiz-adv-x="872" d="M80 197q0 25 194 301q-195 281 -194 301q0 8 7 16t17 8q16 0 46 -30l118 -117l185 -178l-125 -119l-99 -96l-79 -78q-29 -31 -48 -31q-22 0 -22 23zM422 197q0 25 194 301q-195 281 -194 301q0 8 8 16t16 8q16 0 46 -30l118 -117l185 -178l-125 -119l-99 -96l-79 -78 q-29 -31 -48 -31q-22 0 -22 23z" />
<glyph unicode="&#xbc;" horiz-adv-x="1708" d="M80 592v72h88q78 0 93 11t15 73v485q0 51 -10 60.5t-63 9.5h-121v67q92 0 173 24.5t116 63.5h57q-10 -119 -10 -209v-501q0 -61 14 -72.5t92 -11.5h78v-72h-522zM317 0l1029 1450h110l-1028 -1450h-111zM969 211v76l442 579h66q-6 -102 -7 -250v-323h158v-82h-158v-90 q0 -35 15.5 -41t105.5 -8v-72h-391v72h23q76 0 92 7t16 42v90h-362zM1071 293h260v338z" />
<glyph unicode="&#xbd;" horiz-adv-x="1708" d="M80 592v72h88q78 0 93 11t15 73v485q0 51 -10 60.5t-63 9.5h-121v67q92 0 173 24.5t116 63.5h57q-10 -119 -10 -209v-501q0 -61 14 -72.5t92 -11.5h78v-72h-522zM305 0l1028 1450h111l-1028 -1450h-111zM1055 0v45q125 156 229 252q123 113 175 190.5t52 155.5 q0 74 -43 115t-120 41q-68 0 -120 -36t-52 -81q0 -2 49 -33t49 -74q0 -35 -24.5 -57t-63.5 -22q-49 0 -80 37.5t-31 97.5q0 100 86 167.5t213 67.5q129 0 213 -68.5t84 -174.5q0 -88 -51 -154t-209 -180q-94 -68 -190 -160h278q55 0 70.5 13.5t27.5 66.5l15 67h69l-24 -276 h-602z" />
<glyph unicode="&#xbe;" horiz-adv-x="1708" d="M57 780q0 51 28 83t73 32q37 0 62.5 -24.5t25.5 -59.5q0 -29 -13.5 -46t-54.5 -40l-10 -12q0 -25 53 -48.5t109 -23.5q84 0 129 49t45 139q0 176 -142 177q-2 0 -33.5 -1t-58.5 -1q-45 0 -45 38.5t49 38.5q18 0 29 -2l49 -2q137 -6 137 164q0 150 -135 150 q-49 0 -95 -20.5t-46 -41.5q0 -6 27.5 -34.5t27.5 -49.5q0 -35 -23.5 -57.5t-60.5 -22.5q-41 0 -66.5 26t-25.5 66q0 86 79 143.5t196 57.5q125 0 198.5 -58.5t73.5 -156.5q0 -70 -39 -115t-117 -84q180 -49 181 -219q0 -113 -88.5 -182.5t-231.5 -69.5q-125 0 -206 58.5 t-81 148.5zM338 0l1028 1450h111l-1028 -1450h-111zM969 211v76l442 579h66q-6 -102 -7 -250v-323h158v-82h-158v-90q0 -35 15.5 -41t105.5 -8v-72h-391v72h23q76 0 92 7t16 42v90h-362zM1071 293h260v338z" />
<glyph unicode="&#xbf;" horiz-adv-x="909" d="M68 -197q0 106 48 183t197 209q98 86 125 151.5t27 216.5h90v-65q0 -127 -29 -207q-12 -37 -23 -57.5t-47 -71.5l-108 -150q-66 -92 -65 -221q0 -119 60 -185.5t169 -66.5q74 0 131 31t57 72q0 6 -46 61t-46 92q0 47 34 80t83 33q57 0 95 -45t38 -113q0 -131 -112.5 -217 t-286.5 -86q-176 0 -283.5 98t-107.5 258zM387 856q0 53 38 91t91 38t90 -38t37 -91t-38 -90t-91 -37q-51 0 -89 37t-38 90z" />
<glyph unicode="&#xc0;" horiz-adv-x="1478" d="M-16 0v96h28q76 0 113 39t92 178l471 1194h86l522 -1280q37 -88 61.5 -109.5t100.5 -21.5h39v-96h-635v96h86q127 0 127 54q0 14 -16 55l-111 274h-542l-68 -180q-18 -49 -19 -86q0 -117 166 -117h41v-96h-542zM387 1827q0 27 25.5 45t60.5 18q47 0 123 -57l344 -258 h-100l-391 180q-62 31 -62 72zM446 590h459l-231 581z" />
<glyph unicode="&#xc1;" horiz-adv-x="1478" d="M-16 0v96h28q76 0 113 39t92 178l471 1194h86l522 -1280q37 -88 61.5 -109.5t100.5 -21.5h39v-96h-635v96h86q127 0 127 54q0 14 -16 55l-111 274h-542l-68 -180q-18 -49 -19 -86q0 -117 166 -117h41v-96h-542zM446 590h459l-231 581zM522 1575l344 258q76 57 123 57 q35 0 60.5 -18.5t25.5 -44.5q0 -41 -61 -72l-391 -180h-101z" />
<glyph unicode="&#xc2;" horiz-adv-x="1478" d="M-16 0v96h28q76 0 113 39t92 178l471 1194h86l522 -1280q37 -88 61.5 -109.5t100.5 -21.5h39v-96h-635v96h86q127 0 127 54q0 14 -16 55l-111 274h-542l-68 -180q-18 -49 -19 -86q0 -117 166 -117h41v-96h-542zM346 1579l307 307h156l307 -307h-90l-295 186l-297 -186 h-88zM446 590h459l-231 581z" />
<glyph unicode="&#xc3;" horiz-adv-x="1478" d="M-16 0v96h28q76 0 113 39t92 178l471 1194h86l522 -1280q37 -88 61.5 -109.5t100.5 -21.5h39v-96h-635v96h86q127 0 127 54q0 14 -16 55l-111 274h-542l-68 -180q-18 -49 -19 -86q0 -117 166 -117h41v-96h-542zM393 1624q20 96 74.5 151.5t130.5 55.5q55 0 176 -55 q88 -39 121 -39q35 0 65.5 29.5t38.5 74.5h72q-10 -96 -71.5 -156.5t-149.5 -60.5q-39 0 -70.5 10.5t-111.5 46.5q-61 29 -107 29q-74 0 -96 -86h-72zM446 590h459l-231 581z" />
<glyph unicode="&#xc4;" horiz-adv-x="1478" d="M-16 0v96h28q76 0 113 39t92 178l471 1194h86l522 -1280q37 -88 61.5 -109.5t100.5 -21.5h39v-96h-635v96h86q127 0 127 54q0 14 -16 55l-111 274h-542l-68 -180q-18 -49 -19 -86q0 -117 166 -117h41v-96h-542zM426 1733q0 41 30.5 71.5t71.5 30.5t72 -30.5t31 -71.5 q0 -43 -31 -73t-74 -30q-41 0 -70.5 31t-29.5 72zM446 590h459l-231 581zM834 1733q0 41 30.5 71.5t71.5 30.5t71.5 -30.5t30.5 -71.5q0 -43 -30.5 -73t-73.5 -30q-41 0 -70.5 31t-29.5 72z" />
<glyph unicode="&#xc5;" horiz-adv-x="1478" d="M-16 0v96h28q76 0 113 39t92 178l471 1194h86l522 -1280q37 -88 61.5 -109.5t100.5 -21.5h39v-96h-635v96h86q127 0 127 54q0 14 -16 55l-111 274h-542l-68 -180q-18 -49 -19 -86q0 -117 166 -117h41v-96h-542zM446 590h459l-231 581zM528 1765q0 82 59.5 142.5 t143.5 60.5t144.5 -59.5t60.5 -143.5q0 -86 -60.5 -145t-146.5 -59q-82 0 -141.5 60t-59.5 144zM602 1765.5q0 -53.5 38 -92.5t91 -39q55 0 93 38t38 93q0 53 -38 91t-91 38t-92 -37.5t-39 -91z" />
<glyph unicode="&#xc6;" horiz-adv-x="2048" d="M0 0v96q53 10 93 47t89 127l506 910q27 49 27 92q0 63 -33 86.5t-135 23.5h-55v97h1419l28 -525h-88q-31 186 -81 274.5t-139 121t-265 32.5h-49q-84 0 -106.5 -18t-22.5 -84v-467h57q125 0 186.5 65.5t69.5 215.5h96v-672h-96q-4 160 -55 227.5t-209 67.5h-49v-522 q0 -61 31.5 -80t115.5 -19h72q236 0 330 95.5t147 355.5h88l-41 -547h-1196v96h39q125 0 154.5 15.5t29.5 81.5v358h-489l-145 -266q-29 -51 -29 -95q0 -49 31.5 -71.5t109.5 -22.5h41v-96h-477zM528 662h430v665q0 31 -4 39t-16 8q-16 0 -35 -37z" />
<glyph unicode="&#xc7;" horiz-adv-x="1478" d="M92 725q0 322 206 553t488 231q102 0 178 -28.5t185 -108.5l82 121h108v-592h-90q-63 213 -116 305q-59 98 -150.5 152.5t-198.5 54.5q-211 0 -316.5 -178t-105.5 -518q0 -330 110 -490.5t337 -160.5q377 0 463 456l96 -16q-35 -256 -185.5 -396.5t-389.5 -140.5 q-43 0 -84 4l-39 -104q45 6 61 6q74 0 120 -39t46 -100q0 -78 -68.5 -128t-179.5 -50q-96 0 -178 34l29 68q74 -25 127 -25q51 0 82.5 23t31.5 59q0 35 -26.5 57.5t-69.5 22.5q-31 0 -70 -12l-16 10l80 189q-244 41 -395.5 253t-151.5 488z" />
<glyph unicode="&#xc8;" horiz-adv-x="1478" d="M59 0v96h37q125 0 155 15.5t30 81.5v1093q0 66 -30 81t-155 15h-37v97h1260v-525h-88q-23 139 -52.5 219t-86 129.5t-135 64.5t-212.5 15h-106q-84 0 -106.5 -18t-22.5 -84v-467h49q145 0 212 65.5t75 215.5h96v-672h-96q-4 160 -60.5 227.5t-234.5 67.5h-41v-522 q0 -61 31.5 -80t115.5 -19h136q233 0 329.5 95.5t145.5 355.5h90l-41 -547h-1258zM395 1827q0 27 25.5 45t60.5 18q47 0 123 -57l344 -258h-100l-391 180q-62 31 -62 72z" />
<glyph unicode="&#xc9;" horiz-adv-x="1478" d="M59 0v96h37q125 0 155 15.5t30 81.5v1093q0 66 -30 81t-155 15h-37v97h1260v-525h-88q-23 139 -52.5 219t-86 129.5t-135 64.5t-212.5 15h-106q-84 0 -106.5 -18t-22.5 -84v-467h49q145 0 212 65.5t75 215.5h96v-672h-96q-4 160 -60.5 227.5t-234.5 67.5h-41v-522 q0 -61 31.5 -80t115.5 -19h136q233 0 329.5 95.5t145.5 355.5h90l-41 -547h-1258zM530 1575l344 258q76 57 123 57q35 0 60.5 -18.5t25.5 -44.5q0 -41 -61 -72l-391 -180h-101z" />
<glyph unicode="&#xca;" horiz-adv-x="1478" d="M59 0v96h37q125 0 155 15.5t30 81.5v1093q0 66 -30 81t-155 15h-37v97h1260v-525h-88q-23 139 -52.5 219t-86 129.5t-135 64.5t-212.5 15h-106q-84 0 -106.5 -18t-22.5 -84v-467h49q145 0 212 65.5t75 215.5h96v-672h-96q-4 160 -60.5 227.5t-234.5 67.5h-41v-522 q0 -61 31.5 -80t115.5 -19h136q233 0 329.5 95.5t145.5 355.5h90l-41 -547h-1258zM354 1579l308 307h155l307 -307h-90l-295 186l-297 -186h-88z" />
<glyph unicode="&#xcb;" horiz-adv-x="1478" d="M59 0v96h37q125 0 155 15.5t30 81.5v1093q0 66 -30 81t-155 15h-37v97h1260v-525h-88q-23 139 -52.5 219t-86 129.5t-135 64.5t-212.5 15h-106q-84 0 -106.5 -18t-22.5 -84v-467h49q145 0 212 65.5t75 215.5h96v-672h-96q-4 160 -60.5 227.5t-234.5 67.5h-41v-522 q0 -61 31.5 -80t115.5 -19h136q233 0 329.5 95.5t145.5 355.5h90l-41 -547h-1258zM434 1733q0 41 31 71.5t72 30.5t71.5 -30.5t30.5 -71.5q0 -43 -30.5 -73t-73.5 -30q-41 0 -71 31t-30 72zM842 1733q0 41 30.5 71.5t71.5 30.5t72 -30.5t31 -71.5q0 -43 -31 -73t-74 -30 q-41 0 -70.5 31t-29.5 72z" />
<glyph unicode="&#xcc;" horiz-adv-x="833" d="M72 1827q0 27 25.5 45t60.5 18q47 0 123 -57l344 -258h-101l-391 180q-61 31 -61 72zM78 0v96h41q125 0 154.5 15.5t29.5 81.5v1093q0 66 -29.5 81t-154.5 15h-41v97h678v-97h-41q-123 0 -153 -15t-30 -81v-1093q0 -66 30 -81.5t153 -15.5h41v-96h-678z" />
<glyph unicode="&#xcd;" horiz-adv-x="833" d="M78 0v96h41q125 0 154.5 15.5t29.5 81.5v1093q0 66 -29.5 81t-154.5 15h-41v97h678v-97h-41q-123 0 -153 -15t-30 -81v-1093q0 -66 30 -81.5t153 -15.5h41v-96h-678zM209 1575l344 258q76 57 123 57q35 0 60.5 -18.5t25.5 -44.5q0 -41 -62 -72l-391 -180h-100z" />
<glyph unicode="&#xce;" horiz-adv-x="833" d="M33 1579l307 307h156l307 -307h-90l-295 186l-297 -186h-88zM78 0v96h41q125 0 154.5 15.5t29.5 81.5v1093q0 66 -29.5 81t-154.5 15h-41v97h678v-97h-41q-123 0 -153 -15t-30 -81v-1093q0 -66 30 -81.5t153 -15.5h41v-96h-678z" />
<glyph unicode="&#xcf;" horiz-adv-x="833" d="M78 0v96h41q125 0 154.5 15.5t29.5 81.5v1093q0 66 -29.5 81t-154.5 15h-41v97h678v-97h-41q-123 0 -153 -15t-30 -81v-1093q0 -66 30 -81.5t153 -15.5h41v-96h-678zM111 1733q0 41 30.5 71.5t71.5 30.5t71.5 -30.5t30.5 -71.5q0 -43 -30.5 -73t-73.5 -30q-41 0 -70.5 31 t-29.5 72zM518 1733q0 41 31 71.5t72 30.5t71.5 -30.5t30.5 -71.5q0 -43 -30.5 -73t-74.5 -30q-41 0 -70.5 31t-29.5 72z" />
<glyph unicode="&#xd0;" horiz-adv-x="1593" d="M59 0v96h39q123 0 153 15.5t30 81.5v524h-222v96h222v473q0 66 -30 81t-153 15h-39v97h652q336 0 497 -105q137 -88 214 -256t77 -379q0 -358 -189.5 -548.5t-561.5 -190.5h-689zM510 209q0 -76 19.5 -94.5t97.5 -18.5h139q248 0 355.5 148.5t107.5 494.5 q0 340 -117 491.5t-377 151.5h-108q-76 0 -96.5 -19.5t-20.5 -94.5v-455h369v-96h-369v-508z" />
<glyph unicode="&#xd1;" horiz-adv-x="1669" d="M39 1382v97h422l817 -1088v643q0 211 -45 276.5t-191 71.5v97h584v-97q-147 -6 -192 -71.5t-45 -276.5v-1063h-86l-914 1233v-760q0 -211 45 -276.5t191 -71.5v-96h-584v96q147 6 192.5 71.5t45.5 276.5v871q-27 39 -69 53t-120 14h-51zM496 1624q20 96 74.5 151.5 t129.5 55.5q55 0 177 -55q88 -39 120 -39q35 0 66 29.5t39 74.5h72q-10 -96 -72 -156.5t-150 -60.5q-39 0 -70.5 10.5t-111.5 46.5q-61 29 -106 29q-74 0 -97 -86h-71z" />
<glyph unicode="&#xd2;" horiz-adv-x="1593" d="M92 737q0 322 200 547t513 225q295 0 495.5 -222t200.5 -548q0 -330 -201.5 -550t-502.5 -220q-299 0 -502 220t-203 548zM362 743q0 -348 109 -512.5t326 -164.5q434 0 434 673.5t-428 673.5q-221 0 -331 -163t-110 -507zM453 1827q0 27 25.5 45t60.5 18q47 0 123 -57 l344 -258h-101l-391 180q-61 31 -61 72z" />
<glyph unicode="&#xd3;" horiz-adv-x="1593" d="M92 737q0 322 200 547t513 225q295 0 495.5 -222t200.5 -548q0 -330 -201.5 -550t-502.5 -220q-299 0 -502 220t-203 548zM362 743q0 -348 109 -512.5t326 -164.5q434 0 434 673.5t-428 673.5q-221 0 -331 -163t-110 -507zM588 1575l344 258q76 57 123 57 q35 0 60.5 -18.5t25.5 -44.5q0 -41 -62 -72l-391 -180h-100z" />
<glyph unicode="&#xd4;" horiz-adv-x="1593" d="M92 737q0 322 200 547t513 225q295 0 495.5 -222t200.5 -548q0 -330 -201.5 -550t-502.5 -220q-299 0 -502 220t-203 548zM362 743q0 -348 109 -512.5t326 -164.5q434 0 434 673.5t-428 673.5q-221 0 -331 -163t-110 -507zM412 1579l307 307h155l308 -307h-90l-295 186 l-297 -186h-88z" />
<glyph unicode="&#xd5;" horiz-adv-x="1593" d="M92 737q0 322 200 547t513 225q295 0 495.5 -222t200.5 -548q0 -330 -201.5 -550t-502.5 -220q-299 0 -502 220t-203 548zM362 743q0 -348 109 -512.5t326 -164.5q434 0 434 673.5t-428 673.5q-221 0 -331 -163t-110 -507zM459 1624q20 96 74.5 151.5t130.5 55.5 q55 0 176 -55q88 -39 121 -39q35 0 65.5 29.5t38.5 74.5h72q-10 -96 -71.5 -156.5t-150.5 -60.5q-39 0 -70.5 10.5t-111.5 46.5q-61 29 -106 29q-74 0 -97 -86h-71z" />
<glyph unicode="&#xd6;" horiz-adv-x="1593" d="M92 737q0 322 200 547t513 225q295 0 495.5 -222t200.5 -548q0 -330 -201.5 -550t-502.5 -220q-299 0 -502 220t-203 548zM362 743q0 -348 109 -512.5t326 -164.5q434 0 434 673.5t-428 673.5q-221 0 -331 -163t-110 -507zM492 1733q0 41 30.5 71.5t71.5 30.5t71.5 -30.5 t30.5 -71.5q0 -43 -30.5 -73t-73.5 -30q-41 0 -70.5 31t-29.5 72zM899 1733q0 41 31 71.5t71.5 30.5t71.5 -30.5t31 -71.5q0 -43 -31 -73t-74 -30q-41 0 -70.5 31t-29.5 72z" />
<glyph unicode="&#xd7;" horiz-adv-x="1241" d="M182 188l322 324l-322 324l115 114l324 -321l323 321l115 -114l-322 -324l322 -324l-115 -114l-323 321l-324 -321z" />
<glyph unicode="&#xd8;" horiz-adv-x="1593" d="M61 -156l248 336q-102 106 -160.5 256t-58.5 301q0 309 205 540.5t506 231.5q215 0 397 -129l133 181h111l-176 -240q111 -111 173 -262.5t62 -308.5q0 -311 -200.5 -546t-507.5 -235q-229 0 -418 150l-203 -275h-111zM360 723q0 -252 62 -389l688 928q-113 152 -315 151 q-213 0 -324 -175t-111 -515zM469 246q115 -180 330 -180q432 0 432 696q0 266 -72 416z" />
<glyph unicode="&#xd9;" horiz-adv-x="1669" d="M35 1382v97h670v-97h-39q-125 0 -155 -15t-30 -81v-745q0 -231 88 -346t305 -115q225 0 319.5 132t94.5 370v452q0 211 -45 276.5t-190 71.5v97h583v-97q-147 -6 -192 -71.5t-45 -276.5v-465q0 -315 -146.5 -457.5t-433.5 -142.5q-264 0 -415.5 108.5t-151.5 334.5v874 q0 66 -29.5 81t-152.5 15h-35zM489 1827q0 27 26 45t60 18q47 0 123 -57l344 -258h-100l-391 180q-62 31 -62 72z" />
<glyph unicode="&#xda;" horiz-adv-x="1669" d="M35 1382v97h670v-97h-39q-125 0 -155 -15t-30 -81v-745q0 -231 88 -346t305 -115q225 0 319.5 132t94.5 370v452q0 211 -45 276.5t-190 71.5v97h583v-97q-147 -6 -192 -71.5t-45 -276.5v-465q0 -315 -146.5 -457.5t-433.5 -142.5q-264 0 -415.5 108.5t-151.5 334.5v874 q0 66 -29.5 81t-152.5 15h-35zM627 1575l344 258q76 57 123 57q35 0 60.5 -18.5t25.5 -44.5q0 -41 -62 -72l-391 -180h-100z" />
<glyph unicode="&#xdb;" horiz-adv-x="1669" d="M35 1382v97h670v-97h-39q-125 0 -155 -15t-30 -81v-745q0 -231 88 -346t305 -115q225 0 319.5 132t94.5 370v452q0 211 -45 276.5t-190 71.5v97h583v-97q-147 -6 -192 -71.5t-45 -276.5v-465q0 -315 -146.5 -457.5t-433.5 -142.5q-264 0 -415.5 108.5t-151.5 334.5v874 q0 66 -29.5 81t-152.5 15h-35zM451 1579l307 307h155l308 -307h-91l-294 186l-297 -186h-88z" />
<glyph unicode="&#xdc;" horiz-adv-x="1669" d="M35 1382v97h670v-97h-39q-125 0 -155 -15t-30 -81v-745q0 -231 88 -346t305 -115q225 0 319.5 132t94.5 370v452q0 211 -45 276.5t-190 71.5v97h583v-97q-147 -6 -192 -71.5t-45 -276.5v-465q0 -315 -146.5 -457.5t-433.5 -142.5q-264 0 -415.5 108.5t-151.5 334.5v874 q0 66 -29.5 81t-152.5 15h-35zM528 1733q0 41 31 71.5t72 30.5t71.5 -30.5t30.5 -71.5q0 -43 -30.5 -73t-73.5 -30q-41 0 -71 31t-30 72zM936 1733q0 41 30.5 71.5t71.5 30.5t72 -30.5t31 -71.5q0 -43 -31 -73t-74 -30q-41 0 -70.5 31t-29.5 72z" />
<glyph unicode="&#xdd;" horiz-adv-x="1441" d="M-27 1382v97h658v-97h-121q-80 0 -80 -39q0 -25 23 -57l344 -555l254 453q35 63 34 106q0 49 -37.5 70.5t-121.5 21.5h-47v97h581v-97h-33q-90 0 -141 -43t-125 -176l-305 -551v-419q0 -66 28.5 -81.5t153.5 -15.5h54v-96h-703v96h53q125 0 155 15.5t30 81.5v395 l-443 700q-35 57 -67.5 75.5t-98.5 18.5h-45zM532 1575l345 258q76 57 122 57q35 0 60.5 -18.5t25.5 -44.5q0 -41 -61 -72l-391 -180h-101z" />
<glyph unicode="&#xde;" horiz-adv-x="1366" d="M57 0v96h41q125 0 155 16.5t30 82.5v1091q0 66 -30 81t-155 15h-41v97h678v-97h-41q-123 0 -152.5 -15t-29.5 -81v-110h135q342 0 512 -105.5t170 -294.5q0 -205 -177 -310.5t-523 -105.5h-117v-167q0 -66 29.5 -81.5t152.5 -15.5h41v-96h-678zM512 453h94 q266 0 368.5 70.5t102.5 256.5q0 162 -94 231.5t-321 69.5h-46q-72 0 -88 -16t-16 -90v-522z" />
<glyph unicode="&#xdf;" horiz-adv-x="1175" d="M59 0v74h29q94 0 113.5 16t19.5 82v838q0 145 16.5 216.5t63.5 135.5q109 147 326 147q178 0 284.5 -97t106.5 -259q0 -106 -50 -178t-167 -131q295 -111 295 -447q0 -190 -93.5 -309t-242.5 -119q-113 0 -178.5 51.5t-65.5 137.5q0 57 31 91t82 34q47 0 78.5 -32 t31.5 -77q0 -27 -24 -74q-4 -12 -4 -20q0 -33 39 -33q57 0 94 97.5t37 254.5q0 207 -64.5 302.5t-208.5 105.5q-57 2 -57 41q0 27 16.5 36t59.5 9q104 0 151 59.5t47 192.5q0 279 -200 278q-100 0 -155.5 -74.5t-55.5 -207.5v-1141h-355z" />
<glyph unicode="&#xe0;" horiz-adv-x="1138" d="M90 209q0 152 143.5 236.5t499.5 146.5v80q0 127 -55 176t-166 49q-74 0 -128 -23.5t-54 -56.5q0 -2 22.5 -45t22.5 -65q0 -45 -32 -75t-79 -30q-53 0 -86 35t-33 92q0 111 114 183.5t286 72.5q193 0 287 -69.5t94 -256.5v-411q0 -78 17.5 -110t60.5 -32q4 0 37.5 11.5 t50.5 11.5q20 0 20 -25q0 -45 -59.5 -81.5t-128.5 -36.5q-72 0 -114 33.5t-67 111.5q-137 -162 -356 -162q-135 0 -216 65.5t-81 174.5zM240 1352q0 29 21.5 50t49.5 21q39 0 103 -63l286 -287h-84l-325 199q-51 31 -51 80zM297 238q0 -70 46 -115t116 -45q66 0 130 34.5 t103 92.5q27 41 34 76.5t7 128.5v94q-260 -43 -348 -99t-88 -167z" />
<glyph unicode="&#xe1;" horiz-adv-x="1138" d="M90 209q0 152 143.5 236.5t499.5 146.5v80q0 127 -55 176t-166 49q-74 0 -128 -23.5t-54 -56.5q0 -2 22.5 -45t22.5 -65q0 -45 -32 -75t-79 -30q-53 0 -86 35t-33 92q0 111 114 183.5t286 72.5q193 0 287 -69.5t94 -256.5v-411q0 -78 17.5 -110t60.5 -32q4 0 37.5 11.5 t50.5 11.5q20 0 20 -25q0 -45 -59.5 -81.5t-128.5 -36.5q-72 0 -114 33.5t-67 111.5q-137 -162 -356 -162q-135 0 -216 65.5t-81 174.5zM297 238q0 -70 46 -115t116 -45q66 0 130 34.5t103 92.5q27 41 34 76.5t7 128.5v94q-260 -43 -348 -99t-88 -167zM389 1073l287 287 q63 63 102 63q29 0 50.5 -21.5t21.5 -49.5q0 -49 -51 -80l-326 -199h-84z" />
<glyph unicode="&#xe2;" horiz-adv-x="1138" d="M90 209q0 152 143.5 236.5t499.5 146.5v80q0 127 -55 176t-166 49q-74 0 -128 -23.5t-54 -56.5q0 -2 22.5 -45t22.5 -65q0 -45 -32 -75t-79 -30q-53 0 -86 35t-33 92q0 111 114 183.5t286 72.5q193 0 287 -69.5t94 -256.5v-411q0 -78 17.5 -110t60.5 -32q4 0 37.5 11.5 t50.5 11.5q20 0 20 -25q0 -45 -59.5 -81.5t-128.5 -36.5q-72 0 -114 33.5t-67 111.5q-137 -162 -356 -162q-135 0 -216 65.5t-81 174.5zM223 1079l256 340h129l256 -340h-73l-246 207l-248 -207h-74zM297 238q0 -70 46 -115t116 -45q66 0 130 34.5t103 92.5q27 41 34 76.5 t7 128.5v94q-260 -43 -348 -99t-88 -167z" />
<glyph unicode="&#xe3;" horiz-adv-x="1138" d="M90 209q0 152 143.5 236.5t499.5 146.5v80q0 127 -55 176t-166 49q-74 0 -128 -23.5t-54 -56.5q0 -2 22.5 -45t22.5 -65q0 -45 -32 -75t-79 -30q-53 0 -86 35t-33 92q0 111 114 183.5t286 72.5q193 0 287 -69.5t94 -256.5v-411q0 -78 17.5 -110t60.5 -32q4 0 37.5 11.5 t50.5 11.5q20 0 20 -25q0 -45 -59.5 -81.5t-128.5 -36.5q-72 0 -114 33.5t-67 111.5q-137 -162 -356 -162q-135 0 -216 65.5t-81 174.5zM205 1141q20 96 74.5 151.5t130.5 55.5q55 0 176 -56q88 -39 121 -39q35 0 65.5 30t38.5 75h72q-10 -96 -71.5 -156.5t-149.5 -60.5 q-39 0 -71 10t-112 47q-61 29 -106 29q-74 0 -97 -86h-71zM297 238q0 -70 46 -115t116 -45q66 0 130 34.5t103 92.5q27 41 34 76.5t7 128.5v94q-260 -43 -348 -99t-88 -167z" />
<glyph unicode="&#xe4;" horiz-adv-x="1138" d="M90 209q0 152 143.5 236.5t499.5 146.5v80q0 127 -55 176t-166 49q-74 0 -128 -23.5t-54 -56.5q0 -2 22.5 -45t22.5 -65q0 -45 -32 -75t-79 -30q-53 0 -86 35t-33 92q0 111 114 183.5t286 72.5q193 0 287 -69.5t94 -256.5v-411q0 -78 17.5 -110t60.5 -32q4 0 37.5 11.5 t50.5 11.5q20 0 20 -25q0 -45 -59.5 -81.5t-128.5 -36.5q-72 0 -114 33.5t-67 111.5q-137 -162 -356 -162q-135 0 -216 65.5t-81 174.5zM238 1249q0 41 30.5 72t71.5 31t71.5 -31t30.5 -72q0 -43 -30.5 -72.5t-73.5 -29.5q-41 0 -70.5 30.5t-29.5 71.5zM297 238 q0 -70 46 -115t116 -45q66 0 130 34.5t103 92.5q27 41 34 76.5t7 128.5v94q-260 -43 -348 -99t-88 -167zM645 1249q0 41 31 72t71.5 31t71.5 -31t31 -72q0 -43 -31 -72.5t-74 -29.5q-41 0 -70.5 30.5t-29.5 71.5z" />
<glyph unicode="&#xe5;" horiz-adv-x="1138" d="M90 209q0 152 143.5 236.5t499.5 146.5v80q0 127 -55 176t-166 49q-74 0 -128 -23.5t-54 -56.5q0 -2 22.5 -45t22.5 -65q0 -45 -32 -75t-79 -30q-53 0 -86 35t-33 92q0 111 114 183.5t286 72.5q193 0 287 -69.5t94 -256.5v-411q0 -78 17.5 -110t60.5 -32q4 0 37.5 11.5 t50.5 11.5q20 0 20 -25q0 -45 -59.5 -81.5t-128.5 -36.5q-72 0 -114 33.5t-67 111.5q-137 -162 -356 -162q-135 0 -216 65.5t-81 174.5zM297 238q0 -70 46 -115t116 -45q66 0 130 34.5t103 92.5q27 41 34 76.5t7 128.5v94q-260 -43 -348 -99t-88 -167zM340 1251 q0 84 59.5 143.5t143.5 59.5t144.5 -59.5t60.5 -143.5q0 -86 -60.5 -145t-146.5 -59q-82 0 -141.5 60t-59.5 144zM414 1251.5q0 -53.5 37.5 -92.5t91.5 -39q55 0 93 38t38 93q0 51 -38 90t-91 39t-92 -37.5t-39 -91z" />
<glyph unicode="&#xe6;" horiz-adv-x="1630" d="M74 203q0 205 241 297q119 47 375 92v94q0 115 -45 163t-153 48q-72 0 -124.5 -22.5t-52.5 -55.5q0 -12 15 -28q31 -43 30 -84q0 -45 -31.5 -75t-78.5 -30q-55 0 -88 35t-33 92q0 109 112.5 182.5t276.5 73.5q225 0 316 -117q127 117 296 117q201 0 314 -160 q109 -147 108 -327v-37h-665q2 -166 49 -246q84 -135 238 -135q100 0 171.5 51t135.5 168l73 -39q-135 -291 -419 -291q-199 0 -320 109q-12 10 -72 72q-80 -96 -164.5 -138.5t-201.5 -42.5q-137 0 -220 64t-83 170zM281 246q0 -74 43 -122t110 -48q63 0 121.5 30.5 t93.5 81.5q27 41 34 77t7 130v109q-217 -37 -289 -76q-120 -67 -120 -182zM889 549h358q49 0 66.5 15.5t17.5 60.5q0 121 -56 195.5t-151 74.5q-145 0 -206 -182q-29 -78 -29 -164z" />
<glyph unicode="&#xe7;" horiz-adv-x="909" d="M70 461q0 229 129 376.5t327 147.5q137 0 228.5 -70.5t91.5 -173.5q0 -61 -36 -100t-89 -39t-88 32t-35 83q0 45 41 94q12 18 12 25q0 25 -34.5 43t-79.5 18q-113 0 -182.5 -113.5t-69.5 -300.5q0 -180 71.5 -284.5t194.5 -104.5q80 0 136 48t106 159l79 -31 q-61 -158 -151 -229.5t-225 -71.5l-39 -98q43 6 59 6q76 0 122 -39t46 -100q0 -78 -68.5 -128t-177.5 -50q-92 0 -180 34l31 68q72 -25 125 -24q51 0 82.5 22.5t31.5 58.5q0 35 -26.5 57.5t-69.5 22.5q-23 0 -70 -10l-16 10l76 176q-160 27 -256 159t-96 327z" />
<glyph unicode="&#xe8;" horiz-adv-x="1024" d="M72 451q0 229 131 381.5t327 152.5q188 0 305 -146.5t117 -377.5h-663q0 -188 76.5 -284.5t207.5 -96.5q102 0 173 50t135 169l71 -39q-125 -291 -417 -291q-207 0 -335 133.5t-128 348.5zM225 1352q0 29 21.5 50t50.5 21q39 0 102 -63l287 -287h-84l-326 199 q-51 31 -51 80zM291 549h358q49 0 66.5 15.5t17.5 60.5q0 123 -56 197.5t-151 74.5q-98 0 -166.5 -95t-68.5 -253z" />
<glyph unicode="&#xe9;" horiz-adv-x="1024" d="M72 451q0 229 131 381.5t327 152.5q188 0 305 -146.5t117 -377.5h-663q0 -188 76.5 -284.5t207.5 -96.5q102 0 173 50t135 169l71 -39q-125 -291 -417 -291q-207 0 -335 133.5t-128 348.5zM291 549h358q49 0 66.5 15.5t17.5 60.5q0 123 -56 197.5t-151 74.5 q-98 0 -166.5 -95t-68.5 -253zM375 1073l287 287q63 63 102 63q29 0 50.5 -21.5t21.5 -49.5q0 -49 -52 -80l-325 -199h-84z" />
<glyph unicode="&#xea;" horiz-adv-x="1024" d="M72 451q0 229 131 381.5t327 152.5q188 0 305 -146.5t117 -377.5h-663q0 -188 76.5 -284.5t207.5 -96.5q102 0 173 50t135 169l71 -39q-125 -291 -417 -291q-207 0 -335 133.5t-128 348.5zM209 1079l256 340h129l256 -340h-74l-246 207l-247 -207h-74zM291 549h358 q49 0 66.5 15.5t17.5 60.5q0 123 -56 197.5t-151 74.5q-98 0 -166.5 -95t-68.5 -253z" />
<glyph unicode="&#xeb;" horiz-adv-x="1024" d="M72 451q0 229 131 381.5t327 152.5q188 0 305 -146.5t117 -377.5h-663q0 -188 76.5 -284.5t207.5 -96.5q102 0 173 50t135 169l71 -39q-125 -291 -417 -291q-207 0 -335 133.5t-128 348.5zM223 1249q0 41 31 72t72 31t71.5 -31t30.5 -72q0 -43 -30.5 -72.5t-73.5 -29.5 q-41 0 -71 30.5t-30 71.5zM291 549h358q49 0 66.5 15.5t17.5 60.5q0 123 -56 197.5t-151 74.5q-98 0 -166.5 -95t-68.5 -253zM631 1249q0 41 30.5 72t71.5 31t72 -31t31 -72q0 -43 -31 -72.5t-74 -29.5q-41 0 -70.5 30.5t-29.5 71.5z" />
<glyph unicode="&#xec;" horiz-adv-x="645" d="M20 1352q0 29 21.5 50t50.5 21q39 0 103 -63l286 -287h-84l-325 199q-52 31 -52 80zM37 844v88l385 22v-784q0 -63 23.5 -79.5t121.5 -16.5h25v-74h-531v74h25q96 0 119.5 16t23.5 80v571q0 66 -15 84.5t-73 18.5h-104z" />
<glyph unicode="&#xed;" horiz-adv-x="645" d="M37 844v88l385 22v-784q0 -63 23.5 -79.5t121.5 -16.5h25v-74h-531v74h25q96 0 119.5 16t23.5 80v571q0 66 -15 84.5t-73 18.5h-104zM170 1073l287 287q63 63 102 63q29 0 50.5 -21.5t21.5 -49.5q0 -49 -51 -80l-326 -199h-84z" />
<glyph unicode="&#xee;" horiz-adv-x="645" d="M4 1079l256 340h129l256 -340h-74l-245 207l-248 -207h-74zM37 844v88l385 22v-784q0 -63 23.5 -79.5t121.5 -16.5h25v-74h-531v74h25q96 0 119.5 16t23.5 80v571q0 66 -15 84.5t-73 18.5h-104z" />
<glyph unicode="&#xef;" horiz-adv-x="645" d="M18 1249q0 41 31 72t72 31t71.5 -31t30.5 -72q0 -43 -30.5 -72.5t-73.5 -29.5q-41 0 -71 30.5t-30 71.5zM37 844v88l385 22v-784q0 -63 23.5 -79.5t121.5 -16.5h25v-74h-531v74h25q96 0 119.5 16t23.5 80v571q0 66 -15 84.5t-73 18.5h-104zM426 1249q0 41 30.5 72 t71.5 31t72 -31t31 -72q0 -43 -31 -72.5t-74 -29.5q-41 0 -70.5 30.5t-29.5 71.5z" />
<glyph unicode="&#xf0;" horiz-adv-x="1024" d="M70 477q0 213 129 360.5t315 147.5q37 0 88 -10q-57 70 -92 104.5l-152 143.5l-241 -140l-47 78l209 121l-187 123l53 80q131 -59 248 -135l250 147l51 -76l-215 -127q252 -184 363.5 -377.5t111.5 -433.5q0 -217 -128 -365.5t-314 -148.5q-184 0 -313 148.5t-129 359.5z M285 475q0 -203 58 -310.5t169 -107.5t169 107.5t58 312.5q0 203 -57 311.5t-166 108.5q-231 0 -231 -422z" />
<glyph unicode="&#xf1;" horiz-adv-x="1251" d="M55 0v74h29q94 0 113.5 15t19.5 81v571q0 66 -15.5 84.5t-72.5 18.5h-74v88l355 22v-166q131 197 323 197q90 0 164 -42t113 -116q27 -51 35 -97t8 -157v-403q0 -66 19.5 -81t113.5 -15h28v-74h-518v74h29q96 0 115.5 15t19.5 81v414q0 141 -45 204q-23 31 -64.5 51.5 t-80.5 20.5q-66 0 -128.5 -43t-95.5 -112q-37 -78 -36 -240v-295q0 -66 19.5 -81t115.5 -15h28v-74h-518zM287 1141q20 96 74.5 151.5t130.5 55.5q55 0 176 -56q88 -39 120 -39q35 0 66 30t39 75h72q-10 -96 -72 -156.5t-150 -60.5q-39 0 -70.5 10t-111.5 47q-61 29 -106 29 q-74 0 -97 -86h-71z" />
<glyph unicode="&#xf2;" horiz-adv-x="1024" d="M70 475q0 215 129 362.5t317 147.5q182 0 310 -148.5t128 -359.5t-129 -359.5t-313 -148.5t-313 147.5t-129 358.5zM211 1352q0 29 21.5 50t50.5 21q39 0 102 -63l287 -287h-84l-326 199q-51 31 -51 80zM285 475q0 -203 58 -310.5t169 -107.5t169 107.5t58 312.5 q0 203 -57 311.5t-166 108.5q-231 0 -231 -422z" />
<glyph unicode="&#xf3;" horiz-adv-x="1024" d="M70 475q0 215 129 362.5t317 147.5q182 0 310 -148.5t128 -359.5t-129 -359.5t-313 -148.5t-313 147.5t-129 358.5zM285 475q0 -203 58 -310.5t169 -107.5t169 107.5t58 312.5q0 203 -57 311.5t-166 108.5q-231 0 -231 -422zM360 1073l287 287q63 63 103 63 q29 0 50 -21.5t21 -49.5q0 -49 -51 -80l-326 -199h-84z" />
<glyph unicode="&#xf4;" horiz-adv-x="1024" d="M70 475q0 215 129 362.5t317 147.5q182 0 310 -148.5t128 -359.5t-129 -359.5t-313 -148.5t-313 147.5t-129 358.5zM195 1079l256 340h129l256 -340h-74l-246 207l-248 -207h-73zM285 475q0 -203 58 -310.5t169 -107.5t169 107.5t58 312.5q0 203 -57 311.5t-166 108.5 q-231 0 -231 -422z" />
<glyph unicode="&#xf5;" horiz-adv-x="1024" d="M70 475q0 215 129 362.5t317 147.5q182 0 310 -148.5t128 -359.5t-129 -359.5t-313 -148.5t-313 147.5t-129 358.5zM176 1141q20 96 74.5 151.5t130.5 55.5q55 0 176 -56q88 -39 121 -39q35 0 65.5 30t38.5 75h72q-10 -96 -71.5 -156.5t-149.5 -60.5q-39 0 -71 10 t-111 47q-61 29 -107 29q-74 0 -96 -86h-72zM285 475q0 -203 58 -310.5t169 -107.5t169 107.5t58 312.5q0 203 -57 311.5t-166 108.5q-231 0 -231 -422z" />
<glyph unicode="&#xf6;" horiz-adv-x="1024" d="M70 475q0 215 129 362.5t317 147.5q182 0 310 -148.5t128 -359.5t-129 -359.5t-313 -148.5t-313 147.5t-129 358.5zM209 1249q0 41 30.5 72t71.5 31t72 -31t31 -72q0 -43 -31 -72.5t-74 -29.5q-41 0 -70.5 30.5t-29.5 71.5zM285 475q0 -203 58 -310.5t169 -107.5 t169 107.5t58 312.5q0 203 -57 311.5t-166 108.5q-231 0 -231 -422zM616 1249q0 41 31 72t72 31t71.5 -31t30.5 -72q0 -43 -30.5 -72.5t-73.5 -29.5q-41 0 -71 30.5t-30 71.5z" />
<glyph unicode="&#xf7;" horiz-adv-x="1241" d="M82 430v164h1077v-164h-1077zM494 143.5q0 53.5 37.5 90t89 36.5t89.5 -36.5t38 -90t-37 -90.5t-90.5 -37t-90 37t-36.5 90.5zM494 883q0 51 37.5 89t89 38t89.5 -38t38 -89q0 -53 -37 -90t-90.5 -37t-90 37t-36.5 90z" />
<glyph unicode="&#xf8;" horiz-adv-x="1024" d="M70 475q0 213 129 361.5t313 148.5q94 0 186 -47l103 199h102l-129 -250q84 -72 132 -183.5t48 -236.5q0 -219 -126 -358.5t-322 -139.5q-106 0 -182 39l-101 -194h-102l125 243q-176 154 -176 418zM285 469q0 -152 39 -260l323 629q-57 59 -133 59q-229 0 -229 -428z M379 117q51 -59 131 -60q229 0 229 439q0 143 -37 249z" />
<glyph unicode="&#xf9;" horiz-adv-x="1251" d="M43 844v88l358 22v-624q0 -84 5.5 -114t25.5 -58q41 -63 143 -64q158 0 226 144q43 94 43 251v252q0 66 -15.5 84.5t-72.5 18.5h-105v88l385 22v-716q0 -98 22.5 -124t106.5 -26h52v-88l-373 -14v170q-68 -98 -143.5 -142.5t-176.5 -44.5q-190 0 -276 131q-39 59 -39 199 v442q0 66 -15.5 84.5t-72.5 18.5h-78zM317 1352q0 29 21.5 50t50.5 21q39 0 103 -63l286 -287h-84l-325 199q-52 31 -52 80z" />
<glyph unicode="&#xfa;" horiz-adv-x="1251" d="M43 844v88l358 22v-624q0 -84 5.5 -114t25.5 -58q41 -63 143 -64q158 0 226 144q43 94 43 251v252q0 66 -15.5 84.5t-72.5 18.5h-105v88l385 22v-716q0 -98 22.5 -124t106.5 -26h52v-88l-373 -14v170q-68 -98 -143.5 -142.5t-176.5 -44.5q-190 0 -276 131q-39 59 -39 199 v442q0 66 -15.5 84.5t-72.5 18.5h-78zM467 1073l287 287q63 63 102 63q29 0 50.5 -21.5t21.5 -49.5q0 -49 -51 -80l-326 -199h-84z" />
<glyph unicode="&#xfb;" horiz-adv-x="1251" d="M43 844v88l358 22v-624q0 -84 5.5 -114t25.5 -58q41 -63 143 -64q158 0 226 144q43 94 43 251v252q0 66 -15.5 84.5t-72.5 18.5h-105v88l385 22v-716q0 -98 22.5 -124t106.5 -26h52v-88l-373 -14v170q-68 -98 -143.5 -142.5t-176.5 -44.5q-190 0 -276 131q-39 59 -39 199 v442q0 66 -15.5 84.5t-72.5 18.5h-78zM301 1079l256 340h129l256 -340h-74l-245 207l-248 -207h-74z" />
<glyph unicode="&#xfc;" horiz-adv-x="1251" d="M43 844v88l358 22v-624q0 -84 5.5 -114t25.5 -58q41 -63 143 -64q158 0 226 144q43 94 43 251v252q0 66 -15.5 84.5t-72.5 18.5h-105v88l385 22v-716q0 -98 22.5 -124t106.5 -26h52v-88l-373 -14v170q-68 -98 -143.5 -142.5t-176.5 -44.5q-190 0 -276 131q-39 59 -39 199 v442q0 66 -15.5 84.5t-72.5 18.5h-78zM315 1249q0 41 31 72t72 31t71.5 -31t30.5 -72q0 -43 -30.5 -72.5t-73.5 -29.5q-41 0 -71 30.5t-30 71.5zM723 1249q0 41 30.5 72t71.5 31t72 -31t31 -72q0 -43 -31 -72.5t-74 -29.5q-41 0 -70.5 30.5t-29.5 71.5z" />
<glyph unicode="&#xfd;" horiz-adv-x="1099" d="M6 -264q0 55 35 91t88 36q45 0 74.5 -26.5t29.5 -65.5q0 -12 -7 -39t-7 -33q0 -20 33 -21q49 0 113.5 73t121.5 192l35 71l-334 756q-29 61 -57.5 86t-77.5 25h-26v73h487v-73h-43q-94 0 -94 -52q0 -14 12 -43l225 -526l187 463q20 49 20 82q0 76 -110 76h-33v73h409v-73 h-24q-57 0 -89 -35t-71 -131l-233 -578q-119 -293 -195 -395q-121 -164 -282 -164q-80 0 -133.5 45t-53.5 113zM440 1073l287 287q63 63 102 63q29 0 50.5 -21.5t21.5 -49.5q0 -49 -51 -80l-326 -199h-84z" />
<glyph unicode="&#xfe;" horiz-adv-x="1175" d="M57 -340h29q94 0 113.5 15.5t19.5 80.5v1540q0 66 -15.5 84.5t-72.5 18.5h-74v90l355 20v-702q53 94 120.5 136t161.5 42q168 0 285 -146.5t117 -357.5q0 -219 -118 -365.5t-296 -146.5q-94 0 -156.5 39t-113.5 127v-379q0 -61 25.5 -78.5t123.5 -17.5h29v-74h-533v74z M410 467q0 -176 66.5 -281.5t175 -105.5t169 107.5t60.5 306.5q0 180 -59.5 280t-164.5 100q-115 0 -181 -108.5t-66 -298.5z" />
<glyph unicode="&#xff;" horiz-adv-x="1099" d="M6 -264q0 55 35 91t88 36q45 0 74.5 -26.5t29.5 -65.5q0 -12 -7 -39t-7 -33q0 -20 33 -21q49 0 113.5 73t121.5 192l35 71l-334 756q-29 61 -57.5 86t-77.5 25h-26v73h487v-73h-43q-94 0 -94 -52q0 -14 12 -43l225 -526l187 463q20 49 20 82q0 76 -110 76h-33v73h409v-73 h-24q-57 0 -89 -35t-71 -131l-233 -578q-119 -293 -195 -395q-121 -164 -282 -164q-80 0 -133.5 45t-53.5 113zM289 1249q0 41 30.5 72t71.5 31t72 -31t31 -72q0 -43 -31 -72.5t-74 -29.5q-41 0 -70.5 30.5t-29.5 71.5zM696 1249q0 41 31 72t72 31t71.5 -31t30.5 -72 q0 -43 -30.5 -72.5t-73.5 -29.5q-41 0 -71 30.5t-30 71.5z" />
<glyph unicode="&#x100;" horiz-adv-x="1478" d="M-16 0v96h28q76 0 113 39t92 178l471 1194h86l522 -1280q37 -88 61.5 -109.5t100.5 -21.5h39v-96h-635v96h86q127 0 127 54q0 14 -16 55l-111 274h-542l-68 -180q-18 -49 -19 -86q0 -117 166 -117h41v-96h-542zM412 1677v111h641v-111h-641zM446 590h459l-231 581z" />
<glyph unicode="&#x101;" horiz-adv-x="1138" d="M90 209q0 152 143.5 236.5t499.5 146.5v80q0 127 -55 176t-166 49q-74 0 -128 -23.5t-54 -56.5q0 -2 22.5 -45t22.5 -65q0 -45 -32 -75t-79 -30q-53 0 -86 35t-33 92q0 111 114 183.5t286 72.5q193 0 287 -69.5t94 -256.5v-411q0 -78 17.5 -110t60.5 -32q4 0 37.5 11.5 t50.5 11.5q20 0 20 -25q0 -45 -59.5 -81.5t-128.5 -36.5q-72 0 -114 33.5t-67 111.5q-137 -162 -356 -162q-135 0 -216 65.5t-81 174.5zM223 1194v111h641v-111h-641zM297 238q0 -70 46 -115t116 -45q66 0 130 34.5t103 92.5q27 41 34 76.5t7 128.5v94q-260 -43 -348 -99 t-88 -167z" />
<glyph unicode="&#x102;" horiz-adv-x="1478" d="M-16 0v96h28q76 0 113 39t92 178l471 1194h86l522 -1280q37 -88 61.5 -109.5t100.5 -21.5h39v-96h-635v96h86q127 0 127 54q0 14 -16 55l-111 274h-542l-68 -180q-18 -49 -19 -86q0 -117 166 -117h41v-96h-542zM383 1878h88q10 -84 77.5 -130t182.5 -46t181.5 46 t76.5 130h90q0 -131 -99 -211t-250.5 -80t-249 80t-97.5 211zM446 590h459l-231 581z" />
<glyph unicode="&#x103;" horiz-adv-x="1138" d="M90 209q0 152 143.5 236.5t499.5 146.5v80q0 127 -55 176t-166 49q-74 0 -128 -23.5t-54 -56.5q0 -2 22.5 -45t22.5 -65q0 -45 -32 -75t-79 -30q-53 0 -86 35t-33 92q0 111 114 183.5t286 72.5q193 0 287 -69.5t94 -256.5v-411q0 -78 17.5 -110t60.5 -32q4 0 37.5 11.5 t50.5 11.5q20 0 20 -25q0 -45 -59.5 -81.5t-128.5 -36.5q-72 0 -114 33.5t-67 111.5q-137 -162 -356 -162q-135 0 -216 65.5t-81 174.5zM254 1384v27h74q8 -92 64.5 -143t152.5 -51q94 0 150.5 51t64.5 143h74v-29q0 -125 -83 -208.5t-208 -83.5t-207 83.5t-82 210.5z M297 238q0 -70 46 -115t116 -45q66 0 130 34.5t103 92.5q27 41 34 76.5t7 128.5v94q-260 -43 -348 -99t-88 -167z" />
<glyph unicode="&#x104;" horiz-adv-x="1478" d="M-16 0v96h28q76 0 113 39t92 178l471 1194h86l522 -1280q37 -88 61.5 -109.5t100.5 -21.5h39v-96h-18q-193 0 -242 -92q-37 -74 -37 -156q0 -104 82 -104q59 0 101 20.5t63.5 41t30.5 20.5q20 0 20 -25q0 -72 -60.5 -130t-183.5 -58q-96 0 -164.5 62.5t-68.5 166.5 q0 123 172 254h-330v96h86q127 0 127 54q0 14 -16 55l-111 274h-542l-68 -180q-18 -49 -19 -86q0 -117 166 -117h41v-96h-542zM446 590h459l-231 581z" />
<glyph unicode="&#x105;" horiz-adv-x="1138" d="M90 209q0 152 143.5 236.5t499.5 146.5v80q0 127 -55 176t-166 49q-74 0 -128 -23.5t-54 -56.5q0 -2 22.5 -45t22.5 -65q0 -45 -32 -75t-79 -30q-53 0 -86 35t-33 92q0 111 114 183.5t286 72.5q193 0 287 -69.5t94 -256.5v-411q0 -78 17.5 -110t60.5 -32q4 0 37.5 11.5 t50.5 11.5q20 0 20 -25q0 -35 -39 -66.5t-94 -45.5q-106 -25 -141 -117q-23 -57 -23 -123q0 -104 82 -104q59 0 101 20.5t63.5 41t30.5 20.5q20 0 20 -25q0 -72 -60.5 -130t-183.5 -58q-96 0 -164.5 62.5t-68.5 166.5q0 66 55 137.5t131 126.5q-51 33 -78 121 q-137 -162 -356 -162q-135 0 -216 65.5t-81 174.5zM297 238q0 -70 46 -115t116 -45q66 0 130 34.5t103 92.5q27 41 34 76.5t7 128.5v94q-260 -43 -348 -99t-88 -167z" />
<glyph unicode="&#x106;" horiz-adv-x="1478" d="M92 725q0 322 206 553t488 231q102 0 178 -28.5t185 -108.5l82 121h108v-592h-90q-63 213 -116 305q-59 98 -150.5 152.5t-198.5 54.5q-211 0 -316.5 -178t-105.5 -518q0 -330 110 -490.5t337 -160.5q377 0 463 456l96 -16q-35 -258 -186.5 -397.5t-397.5 -139.5 q-303 0 -497.5 213t-194.5 543zM578 1575l344 258q76 57 122 57q35 0 60.5 -18.5t25.5 -44.5q0 -41 -61 -72l-391 -180h-100z" />
<glyph unicode="&#x107;" horiz-adv-x="909" d="M70 461q0 229 129 376.5t327 147.5q137 0 228.5 -70.5t91.5 -173.5q0 -61 -36 -100t-89 -39t-88 32t-35 83q0 45 41 94q12 18 12 25q0 25 -34.5 43t-79.5 18q-113 0 -182.5 -113.5t-69.5 -300.5q0 -180 71.5 -284.5t194.5 -104.5q80 0 136 48t106 159l79 -31 q-66 -164 -151.5 -232.5t-222.5 -68.5q-190 0 -309 136.5t-119 355.5zM371 1073l286 287q63 63 103 63q29 0 50 -21.5t21 -49.5q0 -49 -51 -80l-325 -199h-84z" />
<glyph unicode="&#x108;" horiz-adv-x="1478" d="M92 725q0 322 206 553t488 231q102 0 178 -28.5t185 -108.5l82 121h108v-592h-90q-63 213 -116 305q-59 98 -150.5 152.5t-198.5 54.5q-211 0 -316.5 -178t-105.5 -518q0 -330 110 -490.5t337 -160.5q377 0 463 456l96 -16q-35 -258 -186.5 -397.5t-397.5 -139.5 q-303 0 -497.5 213t-194.5 543zM401 1579l308 307h155l307 -307h-90l-295 186l-297 -186h-88z" />
<glyph unicode="&#x109;" horiz-adv-x="909" d="M70 461q0 229 129 376.5t327 147.5q137 0 228.5 -70.5t91.5 -173.5q0 -61 -36 -100t-89 -39t-88 32t-35 83q0 45 41 94q12 18 12 25q0 25 -34.5 43t-79.5 18q-113 0 -182.5 -113.5t-69.5 -300.5q0 -180 71.5 -284.5t194.5 -104.5q80 0 136 48t106 159l79 -31 q-66 -164 -151.5 -232.5t-222.5 -68.5q-190 0 -309 136.5t-119 355.5zM205 1079l256 340h129l256 -340h-74l-246 207l-247 -207h-74z" />
<glyph unicode="&#x10a;" horiz-adv-x="1478" d="M92 725q0 322 206 553t488 231q102 0 178 -28.5t185 -108.5l82 121h108v-592h-90q-63 213 -116 305q-59 98 -150.5 152.5t-198.5 54.5q-211 0 -316.5 -178t-105.5 -518q0 -330 110 -490.5t337 -160.5q377 0 463 456l96 -16q-35 -258 -186.5 -397.5t-397.5 -139.5 q-303 0 -497.5 213t-194.5 543zM686 1733q0 41 31 71.5t71.5 30.5t71.5 -30.5t31 -71.5q0 -43 -31 -73t-74 -30q-41 0 -70.5 31t-29.5 72z" />
<glyph unicode="&#x10b;" horiz-adv-x="909" d="M70 461q0 229 129 376.5t327 147.5q137 0 228.5 -70.5t91.5 -173.5q0 -61 -36 -100t-89 -39t-88 32t-35 83q0 45 41 94q12 18 12 25q0 25 -34.5 43t-79.5 18q-113 0 -182.5 -113.5t-69.5 -300.5q0 -180 71.5 -284.5t194.5 -104.5q80 0 136 48t106 159l79 -31 q-66 -164 -151.5 -232.5t-222.5 -68.5q-190 0 -309 136.5t-119 355.5zM424 1249q0 41 30.5 72t71.5 31t72 -31t31 -72q0 -43 -31 -72.5t-74 -29.5q-41 0 -70.5 30.5t-29.5 71.5z" />
<glyph unicode="&#x10c;" horiz-adv-x="1478" d="M92 725q0 322 206 553t488 231q102 0 178 -28.5t185 -108.5l82 121h108v-592h-90q-63 213 -116 305q-59 98 -150.5 152.5t-198.5 54.5q-211 0 -316.5 -178t-105.5 -518q0 -330 110 -490.5t337 -160.5q377 0 463 456l96 -16q-35 -258 -186.5 -397.5t-397.5 -139.5 q-303 0 -497.5 213t-194.5 543zM403 1886h91l294 -186l297 186h89l-308 -307h-155z" />
<glyph unicode="&#x10d;" horiz-adv-x="909" d="M70 461q0 229 129 376.5t327 147.5q137 0 228.5 -70.5t91.5 -173.5q0 -61 -36 -100t-89 -39t-88 32t-35 83q0 45 41 94q12 18 12 25q0 25 -34.5 43t-79.5 18q-113 0 -182.5 -113.5t-69.5 -300.5q0 -180 71.5 -284.5t194.5 -104.5q80 0 136 48t106 159l79 -31 q-66 -164 -151.5 -232.5t-222.5 -68.5q-190 0 -309 136.5t-119 355.5zM205 1419h74l245 -207l248 207h74l-256 -340h-129z" />
<glyph unicode="&#x10e;" horiz-adv-x="1593" d="M59 0v96h39q123 0 153 15.5t30 81.5v1093q0 66 -30 81t-153 15h-39v97h652q334 0 497 -105q141 -92 216 -255t75 -371q0 -365 -188.5 -556.5t-562.5 -191.5h-689zM414 1886h90l295 -186l297 186h88l-307 -307h-156zM510 209q0 -76 19.5 -94.5t97.5 -18.5h139 q248 0 355.5 149.5t107.5 493.5q0 340 -117 491.5t-379 151.5h-106q-76 0 -96.5 -19.5t-20.5 -94.5v-1059z" />
<glyph unicode="&#x10f;" horiz-adv-x="1175" d="M88 467q0 221 117 369.5t291 148.5q172 0 282 -151v462q0 66 -16.5 84.5t-71.5 18.5h-121v88l402 22v-1271q0 -96 22.5 -123t104.5 -27h37v-88l-357 -14v161q-94 -178 -282 -178q-178 0 -293 140.5t-115 357.5zM303 442q0 -170 61.5 -266t170.5 -96q111 0 176 107.5 t65 285.5q0 150 -39 246q-27 70 -82 112.5t-118.5 42.5t-115.5 -40.5t-79 -108.5q-39 -103 -39 -283zM1053 1024q186 117 186 252q0 16 -12 16h-6q-8 -2 -25 -2q-61 0 -96 29t-35 80q0 47 35 78.5t86 31.5q66 0 108.5 -49t42.5 -127q0 -119 -77 -223q-55 -72 -166 -137z" />
<glyph unicode="&#x110;" horiz-adv-x="1593" d="M59 0v96h39q123 0 153 15.5t30 81.5v524h-222v96h222v473q0 66 -30 81t-153 15h-39v97h652q336 0 497 -105q137 -88 214 -256t77 -379q0 -358 -189.5 -548.5t-561.5 -190.5h-689zM510 209q0 -76 19.5 -94.5t97.5 -18.5h139q248 0 355.5 148.5t107.5 494.5 q0 340 -117 491.5t-377 151.5h-108q-76 0 -96.5 -19.5t-20.5 -94.5v-455h369v-96h-369v-508z" />
<glyph unicode="&#x111;" horiz-adv-x="1175" d="M88 467q0 221 118 369.5t292 148.5q170 0 280 -151v329h-284v97h284v36q0 66 -16.5 84.5t-71.5 18.5h-121v88l402 22v-249h164v-97h-164v-925q0 -96 22.5 -123t104.5 -27h37v-88l-357 -14v161q-94 -178 -282 -178q-178 0 -293 140.5t-115 357.5zM303 442 q0 -170 61.5 -266t170.5 -96q111 0 176 106.5t65 286.5q0 150 -39 246q-27 70 -82 112.5t-118.5 42.5t-115.5 -40.5t-79 -108.5q-39 -103 -39 -283z" />
<glyph unicode="&#x112;" horiz-adv-x="1478" d="M59 0v96h37q125 0 155 15.5t30 81.5v1093q0 66 -30 81t-155 15h-37v97h1260v-525h-88q-23 139 -52.5 219t-86 129.5t-135 64.5t-212.5 15h-106q-84 0 -106.5 -18t-22.5 -84v-467h49q145 0 212 65.5t75 215.5h96v-672h-96q-4 160 -60.5 227.5t-234.5 67.5h-41v-522 q0 -61 31.5 -80t115.5 -19h136q233 0 329.5 95.5t145.5 355.5h90l-41 -547h-1258zM420 1677v111h641v-111h-641z" />
<glyph unicode="&#x113;" horiz-adv-x="1024" d="M72 451q0 229 131 381.5t327 152.5q188 0 305 -146.5t117 -377.5h-663q0 -188 76.5 -284.5t207.5 -96.5q102 0 173 50t135 169l71 -39q-125 -291 -417 -291q-207 0 -335 133.5t-128 348.5zM209 1194v111h641v-111h-641zM291 549h358q49 0 66.5 15.5t17.5 60.5 q0 123 -56 197.5t-151 74.5q-98 0 -166.5 -95t-68.5 -253z" />
<glyph unicode="&#x114;" horiz-adv-x="1478" d="M59 0v96h37q125 0 155 15.5t30 81.5v1093q0 66 -30 81t-155 15h-37v97h1260v-525h-88q-23 139 -52.5 219t-86 129.5t-135 64.5t-212.5 15h-106q-84 0 -106.5 -18t-22.5 -84v-467h49q145 0 212 65.5t75 215.5h96v-672h-96q-4 160 -60.5 227.5t-234.5 67.5h-41v-522 q0 -61 31.5 -80t115.5 -19h136q233 0 329.5 95.5t145.5 355.5h90l-41 -547h-1258zM391 1878h88q10 -84 78 -130t182.5 -46t181 46t76.5 130h90q0 -131 -99 -211t-250.5 -80t-249 80t-97.5 211z" />
<glyph unicode="&#x115;" horiz-adv-x="1024" d="M72 451q0 229 131 381.5t327 152.5q188 0 305 -146.5t117 -377.5h-663q0 -188 76.5 -284.5t207.5 -96.5q102 0 173 50t135 169l71 -39q-125 -291 -417 -291q-207 0 -335 133.5t-128 348.5zM240 1384v27h73q8 -92 64.5 -143t152.5 -51q94 0 150.5 51t64.5 143h74v-29 q0 -125 -83 -208.5t-208 -83.5t-206.5 83.5t-81.5 210.5zM291 549h358q49 0 66.5 15.5t17.5 60.5q0 123 -56 197.5t-151 74.5q-98 0 -166.5 -95t-68.5 -253z" />
<glyph unicode="&#x116;" horiz-adv-x="1478" d="M59 0v96h37q125 0 155 15.5t30 81.5v1093q0 66 -30 81t-155 15h-37v97h1260v-525h-88q-23 139 -52.5 219t-86 129.5t-135 64.5t-212.5 15h-106q-84 0 -106.5 -18t-22.5 -84v-467h49q145 0 212 65.5t75 215.5h96v-672h-96q-4 160 -60.5 227.5t-234.5 67.5h-41v-522 q0 -61 31.5 -80t115.5 -19h136q233 0 329.5 95.5t145.5 355.5h90l-41 -547h-1258zM639 1733q0 41 30.5 71.5t71.5 30.5t72 -30.5t31 -71.5q0 -43 -31 -73t-74 -30q-41 0 -70.5 31t-29.5 72z" />
<glyph unicode="&#x117;" horiz-adv-x="1024" d="M72 451q0 229 131 381.5t327 152.5q188 0 305 -146.5t117 -377.5h-663q0 -188 76.5 -284.5t207.5 -96.5q102 0 173 50t135 169l71 -39q-125 -291 -417 -291q-207 0 -335 133.5t-128 348.5zM291 549h358q49 0 66.5 15.5t17.5 60.5q0 123 -56 197.5t-151 74.5 q-98 0 -166.5 -95t-68.5 -253zM428 1249q0 41 30.5 72t71.5 31t72 -31t31 -72q0 -43 -31 -72.5t-74 -29.5q-41 0 -70.5 30.5t-29.5 71.5z" />
<glyph unicode="&#x118;" horiz-adv-x="1478" d="M59 0v96h37q125 0 155 15.5t30 81.5v1093q0 66 -30 81t-155 15h-37v97h1260v-525h-88q-23 139 -52.5 219t-86 129.5t-135 64.5t-212.5 15h-106q-84 0 -106.5 -18t-22.5 -84v-467h49q145 0 212 65.5t75 215.5h96v-672h-96q-4 160 -60.5 227.5t-234.5 67.5h-41v-522 q0 -61 31.5 -80t115.5 -19h136q233 0 329.5 95.5t145.5 355.5h90l-41 -547h-35q-176 0 -225 -92q-37 -74 -37 -156q0 -104 82 -104q59 0 101 20.5t63.5 41t29.5 20.5q20 0 21 -25q0 -72 -60.5 -130t-183.5 -58q-96 0 -164.5 62.5t-68.5 166.5q0 123 172 254h-953z" />
<glyph unicode="&#x119;" horiz-adv-x="1024" d="M72 451q0 229 131 381.5t327 152.5q188 0 305 -146.5t117 -377.5h-663q0 -188 76.5 -284.5t207.5 -96.5q102 0 173 50t135 169l71 -39q-61 -143 -168 -219q-141 -96 -168 -166q-23 -57 -22 -123q0 -104 82 -104q59 0 101 20.5t63.5 41t29.5 20.5q20 0 21 -25 q0 -72 -60.5 -130t-183.5 -58q-96 0 -164.5 62.5t-68.5 166.5t135 223h-14q-207 0 -335 133.5t-128 348.5zM291 549h358q49 0 66.5 15.5t17.5 60.5q0 123 -56 197.5t-151 74.5q-98 0 -166.5 -95t-68.5 -253z" />
<glyph unicode="&#x11a;" horiz-adv-x="1478" d="M59 0v96h37q125 0 155 15.5t30 81.5v1093q0 66 -30 81t-155 15h-37v97h1260v-525h-88q-23 139 -52.5 219t-86 129.5t-135 64.5t-212.5 15h-106q-84 0 -106.5 -18t-22.5 -84v-467h49q145 0 212 65.5t75 215.5h96v-672h-96q-4 160 -60.5 227.5t-234.5 67.5h-41v-522 q0 -61 31.5 -80t115.5 -19h136q233 0 329.5 95.5t145.5 355.5h90l-41 -547h-1258zM356 1886h90l295 -186l297 186h88l-307 -307h-155z" />
<glyph unicode="&#x11b;" horiz-adv-x="1024" d="M72 451q0 229 131 381.5t327 152.5q188 0 305 -146.5t117 -377.5h-663q0 -188 76.5 -284.5t207.5 -96.5q102 0 173 50t135 169l71 -39q-125 -291 -417 -291q-207 0 -335 133.5t-128 348.5zM209 1419h74l245 -207l248 207h74l-256 -340h-129zM291 549h358q49 0 66.5 15.5 t17.5 60.5q0 123 -56 197.5t-151 74.5q-98 0 -166.5 -95t-68.5 -253z" />
<glyph unicode="&#x11c;" horiz-adv-x="1593" d="M86 713q0 207 88 388t254 294.5t373 113.5q113 0 192.5 -30.5t180.5 -110.5l79 125h107v-575h-88q-127 496 -479 495q-213 0 -325 -179t-112 -521q0 -317 114 -482t329 -165q170 0 263 101t93 288q0 84 -28.5 103.5t-157.5 19.5h-39v96h651v-96h-31q-145 0 -172 -29 q-12 -14 -12 -127v-451h-86l-76 185q-100 -100 -198.5 -143.5t-227.5 -43.5q-295 0 -493.5 209t-198.5 535zM412 1579l307 307h155l308 -307h-90l-295 186l-297 -186h-88z" />
<glyph unicode="&#x11d;" horiz-adv-x="1099" d="M47 -205q0 127 189 195q-137 47 -138 176q0 84 46 133t149 72q-80 37 -126 110.5t-46 163.5q0 154 110.5 247t292.5 93q137 0 254 -78q72 66 110 86.5t87 20.5q59 0 97 -33t38 -86q0 -41 -26.5 -69.5t-65.5 -28.5t-61.5 25.5t-33 52t-18.5 26.5q-23 0 -69 -49 q76 -90 75 -201q0 -211 -192 -297q-51 -23 -99.5 -30t-193.5 -9q-102 -2 -147.5 -23.5t-45.5 -68.5q0 -39 25 -53q37 -18 143 -18h209q186 0 260 -29q57 -23 90 -81t33 -134q0 -324 -514 -324q-207 0 -319.5 55.5t-112.5 155.5zM203 1079l256 340h129l256 -340h-74l-246 207 l-248 -207h-73zM217 -188q0 -70 70.5 -107t199.5 -37q172 0 267.5 48t95.5 137q0 49 -36 80.5t-97 37.5q-31 4 -213 4h-152q-74 -39 -104.5 -75.5t-30.5 -87.5zM307 643q0 -115 55.5 -182.5t151.5 -67.5q98 0 153.5 67.5t55.5 188.5q0 119 -52.5 183.5t-148.5 64.5 q-102 0 -158.5 -66.5t-56.5 -187.5z" />
<glyph unicode="&#x11e;" horiz-adv-x="1593" d="M86 713q0 207 88 388t254 294.5t373 113.5q113 0 192.5 -30.5t180.5 -110.5l79 125h107v-575h-88q-127 496 -479 495q-213 0 -325 -179t-112 -521q0 -317 114 -482t329 -165q170 0 263 101t93 288q0 84 -28.5 103.5t-157.5 19.5h-39v96h651v-96h-31q-145 0 -172 -29 q-12 -14 -12 -127v-451h-86l-76 185q-100 -100 -198.5 -143.5t-227.5 -43.5q-295 0 -493.5 209t-198.5 535zM449 1878h88q10 -84 77.5 -130t182 -46t181 46t77.5 130h90q0 -131 -99.5 -211t-251 -80t-248.5 80t-97 211z" />
<glyph unicode="&#x11f;" horiz-adv-x="1099" d="M47 -205q0 127 189 195q-137 47 -138 176q0 84 46 133t149 72q-80 37 -126 110.5t-46 163.5q0 154 110.5 247t292.5 93q137 0 254 -78q72 66 110 86.5t87 20.5q59 0 97 -33t38 -86q0 -41 -26.5 -69.5t-65.5 -28.5t-61.5 25.5t-33 52t-18.5 26.5q-23 0 -69 -49 q76 -90 75 -201q0 -211 -192 -297q-51 -23 -99.5 -30t-193.5 -9q-102 -2 -147.5 -23.5t-45.5 -68.5q0 -39 25 -53q37 -18 143 -18h209q186 0 260 -29q57 -23 90 -81t33 -134q0 -324 -514 -324q-207 0 -319.5 55.5t-112.5 155.5zM217 -188q0 -70 70.5 -107t199.5 -37 q172 0 267.5 48t95.5 137q0 49 -36 80.5t-97 37.5q-31 4 -213 4h-152q-74 -39 -104.5 -75.5t-30.5 -87.5zM233 1384v27h74q8 -92 64.5 -143t152.5 -51q94 0 150.5 51t64.5 143h74v-29q0 -125 -83 -208.5t-208 -83.5t-207 83.5t-82 210.5zM307 643q0 -115 55.5 -182.5 t151.5 -67.5q98 0 153.5 67.5t55.5 188.5q0 119 -52.5 183.5t-148.5 64.5q-102 0 -158.5 -66.5t-56.5 -187.5z" />
<glyph unicode="&#x120;" horiz-adv-x="1593" d="M86 713q0 207 88 388t254 294.5t373 113.5q113 0 192.5 -30.5t180.5 -110.5l79 125h107v-575h-88q-127 496 -479 495q-213 0 -325 -179t-112 -521q0 -317 114 -482t329 -165q170 0 263 101t93 288q0 84 -28.5 103.5t-157.5 19.5h-39v96h651v-96h-31q-145 0 -172 -29 q-12 -14 -12 -127v-451h-86l-76 185q-100 -100 -198.5 -143.5t-227.5 -43.5q-295 0 -493.5 209t-198.5 535zM696 1733q0 41 31 71.5t72 30.5t71.5 -30.5t30.5 -71.5q0 -43 -30.5 -73t-73.5 -30q-41 0 -71 31t-30 72z" />
<glyph unicode="&#x121;" horiz-adv-x="1099" d="M47 -205q0 127 189 195q-137 47 -138 176q0 84 46 133t149 72q-80 37 -126 110.5t-46 163.5q0 154 110.5 247t292.5 93q137 0 254 -78q72 66 110 86.5t87 20.5q59 0 97 -33t38 -86q0 -41 -26.5 -69.5t-65.5 -28.5t-61.5 25.5t-33 52t-18.5 26.5q-23 0 -69 -49 q76 -90 75 -201q0 -211 -192 -297q-51 -23 -99.5 -30t-193.5 -9q-102 -2 -147.5 -23.5t-45.5 -68.5q0 -39 25 -53q37 -18 143 -18h209q186 0 260 -29q57 -23 90 -81t33 -134q0 -324 -514 -324q-207 0 -319.5 55.5t-112.5 155.5zM217 -188q0 -70 70.5 -107t199.5 -37 q172 0 267.5 48t95.5 137q0 49 -36 80.5t-97 37.5q-31 4 -213 4h-152q-74 -39 -104.5 -75.5t-30.5 -87.5zM307 643q0 -115 55.5 -182.5t151.5 -67.5q98 0 153.5 67.5t55.5 188.5q0 119 -52.5 183.5t-148.5 64.5q-102 0 -158.5 -66.5t-56.5 -187.5zM422 1249q0 41 30.5 72 t71.5 31t72 -31t31 -72q0 -43 -31 -72.5t-74 -29.5q-41 0 -70.5 30.5t-29.5 71.5z" />
<glyph unicode="&#x122;" horiz-adv-x="1593" d="M86 713q0 207 88 388t254 294.5t373 113.5q113 0 192.5 -30.5t180.5 -110.5l79 125h107v-575h-88q-127 496 -479 495q-213 0 -325 -179t-112 -521q0 -317 114 -482t329 -165q170 0 263 101t93 288q0 84 -28.5 103.5t-157.5 19.5h-39v96h651v-96h-31q-145 0 -172 -29 q-12 -14 -12 -127v-451h-86l-76 185q-100 -100 -198.5 -143.5t-227.5 -43.5q-295 0 -493.5 209t-198.5 535zM653 -567q186 117 187 252q0 16 -13 16h-6q-8 -2 -24 -2q-61 0 -96 28.5t-35 79.5q0 47 34.5 79t85.5 32q66 0 109 -49t43 -127q0 -119 -78 -223q-55 -72 -166 -137 z" />
<glyph unicode="&#x123;" horiz-adv-x="1099" d="M47 -205q0 127 189 195q-137 47 -138 176q0 84 46 133t149 72q-80 37 -126 110.5t-46 163.5q0 154 110.5 247t292.5 93q137 0 254 -78q72 66 110 86.5t87 20.5q59 0 97 -33t38 -86q0 -41 -26.5 -69.5t-65.5 -28.5t-61.5 25.5t-33 52t-18.5 26.5q-23 0 -69 -49 q76 -90 75 -201q0 -211 -192 -297q-51 -23 -99.5 -30t-193.5 -9q-102 -2 -147.5 -23.5t-45.5 -68.5q0 -39 25 -53q37 -18 143 -18h209q186 0 260 -29q57 -23 90 -81t33 -134q0 -324 -514 -324q-207 0 -319.5 55.5t-112.5 155.5zM217 -188q0 -70 70.5 -107t199.5 -37 q172 0 267.5 48t95.5 137q0 49 -36 80.5t-97 37.5q-31 4 -213 4h-152q-74 -39 -104.5 -75.5t-30.5 -87.5zM307 643q0 -115 55.5 -182.5t151.5 -67.5q98 0 153.5 67.5t55.5 188.5q0 119 -52.5 183.5t-148.5 64.5q-102 0 -158.5 -66.5t-56.5 -187.5zM383 1198q0 119 78 223 q55 72 166 138l41 -52q-186 -117 -187 -252q0 -16 13 -16h6q8 2 24 2q61 0 96 -28.5t35 -79.5q0 -47 -34.5 -79t-85.5 -32q-66 0 -109 49t-43 127z" />
<glyph unicode="&#x124;" horiz-adv-x="1705" d="M59 0v96h37q125 0 155 15.5t30 81.5v1093q0 66 -30 81t-155 15h-37v97h674v-97h-39q-125 0 -154.5 -15t-29.5 -81v-465h686v465q0 66 -29.5 81t-154.5 15h-29v97h664v-97h-37q-125 0 -155 -15t-30 -81v-1093q0 -66 30 -81.5t155 -15.5h37v-96h-672v96h37 q125 0 154.5 15.5t29.5 81.5v518h-686v-518q0 -66 29.5 -81.5t154.5 -15.5h39v-96h-674zM469 1579l307 307h156l307 -307h-90l-295 186l-297 -186h-88z" />
<glyph unicode="&#x125;" horiz-adv-x="1251" d="M31 1399v88l379 22v-723q133 199 323 199q92 0 165 -42t112 -116q27 -51 35 -97t8 -157v-403q0 -66 19.5 -81t113.5 -15h28v-74h-518v74h29q96 0 115.5 15t19.5 81v412q0 141 -45 206q-23 31 -64.5 51.5t-80.5 20.5q-66 0 -128.5 -43t-95.5 -112q-37 -78 -36 -242v-293 q0 -66 19.5 -81t115.5 -15h28v-74h-518v74h29q94 0 113.5 15t19.5 81v1126q0 66 -15.5 84.5t-72.5 18.5h-98zM242 1610l307 307h156l307 -307h-90l-295 186l-297 -186h-88z" />
<glyph unicode="&#x126;" horiz-adv-x="1705" d="M59 0v96h37q125 0 155 15.5t30 81.5v874h-222v86h222v133q0 66 -30 81t-155 15h-37v97h674v-97h-39q-125 0 -154.5 -15t-29.5 -81v-133h686v133q0 66 -29.5 81t-154.5 15h-29v97h664v-97h-37q-125 0 -155 -15t-30 -81v-133h222v-86h-222v-874q0 -66 30 -81.5t155 -15.5 h37v-96h-672v96h37q125 0 154.5 15.5t29.5 81.5v518h-686v-518q0 -66 29.5 -81.5t154.5 -15.5h39v-96h-674zM510 821h686v246h-686v-246z" />
<glyph unicode="&#x127;" horiz-adv-x="1347" d="M82 918v73l186 82v223q0 66 -15 84.5t-73 18.5h-98v88l379 22v-350l217 94v-73l-217 -97v-297q133 199 323 199q92 0 165 -42t112 -116q27 -51 35 -97t8 -157v-403q0 -66 19.5 -81t113.5 -15h29v-74h-518v74h28q96 0 115.5 15t19.5 81v412q0 141 -45 206 q-23 31 -64.5 51.5t-80.5 20.5q-66 0 -128.5 -43t-94.5 -112q-37 -78 -37 -242v-293q0 -66 19.5 -81t115.5 -15h29v-74h-519v74h29q94 0 113.5 15t19.5 81v829z" />
<glyph unicode="&#x128;" horiz-adv-x="833" d="M78 0v96h41q125 0 154.5 15.5t29.5 81.5v1093q0 66 -29.5 81t-154.5 15h-41v97h678v-97h-41q-123 0 -153 -15t-30 -81v-1093q0 -66 30 -81.5t153 -15.5h41v-96h-678zM78 1624q20 96 74.5 151.5t130.5 55.5q55 0 176 -55q88 -39 121 -39q35 0 65.5 29.5t38.5 74.5h72 q-10 -96 -71.5 -156.5t-149.5 -60.5q-39 0 -71 10.5t-112 46.5q-61 29 -106 29q-74 0 -96 -86h-72z" />
<glyph unicode="&#x129;" horiz-adv-x="645" d="M-14 1141q20 96 74.5 151.5t129.5 55.5q55 0 177 -56q88 -39 120 -39q35 0 65 30t40 75h72q-10 -96 -72 -156.5t-150 -60.5q-61 0 -182 57q-61 29 -106 29q-74 0 -97 -86h-71zM37 844v88l385 22v-784q0 -63 23.5 -79.5t121.5 -16.5h25v-74h-531v74h25q96 0 119.5 16 t23.5 80v571q0 66 -15 84.5t-73 18.5h-104z" />
<glyph unicode="&#x12a;" horiz-adv-x="833" d="M78 0v96h41q125 0 154.5 15.5t29.5 81.5v1093q0 66 -29.5 81t-154.5 15h-41v97h678v-97h-41q-123 0 -153 -15t-30 -81v-1093q0 -66 30 -81.5t153 -15.5h41v-96h-678zM96 1677v111h641v-111h-641z" />
<glyph unicode="&#x12b;" horiz-adv-x="645" d="M4 1194v111h641v-111h-641zM37 844v88l385 22v-784q0 -63 23.5 -79.5t121.5 -16.5h25v-74h-531v74h25q96 0 119.5 16t23.5 80v571q0 66 -15 84.5t-73 18.5h-104z" />
<glyph unicode="&#x12c;" horiz-adv-x="833" d="M70 1878h88q10 -84 77.5 -130t182 -46t181.5 46t77 130h90q0 -131 -99.5 -211t-251 -80t-248.5 80t-97 211zM78 0v96h41q125 0 154.5 15.5t29.5 81.5v1093q0 66 -29.5 81t-154.5 15h-41v97h678v-97h-41q-123 0 -153 -15t-30 -81v-1093q0 -66 30 -81.5t153 -15.5h41v-96 h-678z" />
<glyph unicode="&#x12d;" horiz-adv-x="645" d="M35 1384v27h74q8 -92 64 -143t153 -51q94 0 150 51t65 143h73v-29q0 -125 -82.5 -208.5t-207.5 -83.5t-207 83.5t-82 210.5zM37 844v88l385 22v-784q0 -63 23.5 -79.5t121.5 -16.5h25v-74h-531v74h25q96 0 119.5 16t23.5 80v571q0 66 -15 84.5t-73 18.5h-104z" />
<glyph unicode="&#x12e;" horiz-adv-x="833" d="M78 0v96h41q125 0 154.5 15.5t29.5 81.5v1093q0 66 -29.5 81t-154.5 15h-41v97h678v-97h-41q-123 0 -153 -15t-30 -81v-1093q0 -66 30 -81.5t153 -15.5h41v-96h-19q-76 0 -116.5 -3t-92 -24.5t-73.5 -64.5q-37 -74 -37 -156q0 -104 82 -104q59 0 101 20.5t63.5 41 t29.5 20.5q20 0 21 -25q0 -72 -60.5 -130t-183.5 -58q-96 0 -164.5 62.5t-68.5 166.5q0 123 172 254h-332z" />
<glyph unicode="&#x12f;" horiz-adv-x="645" d="M37 844v88l385 22v-784q0 -63 23.5 -79.5t121.5 -16.5h25v-74h-115q-98 0 -145 -92q-37 -74 -37 -156q0 -104 82 -104q59 0 101 20.5t63.5 41t29.5 20.5q20 0 21 -25q0 -72 -60.5 -130t-183.5 -58q-96 0 -164.5 62.5t-68.5 166.5q0 123 172 254h-226v74h25q96 0 119.5 16 t23.5 80v571q0 66 -15 84.5t-73 18.5h-104zM223 1249q0 41 31 72t72 31t71.5 -31t30.5 -72q0 -43 -30.5 -72.5t-73.5 -29.5q-41 0 -71 30.5t-30 71.5z" />
<glyph unicode="&#x130;" horiz-adv-x="833" d="M78 0v96h41q125 0 154.5 15.5t29.5 81.5v1093q0 66 -29.5 81t-154.5 15h-41v97h678v-97h-41q-123 0 -153 -15t-30 -81v-1093q0 -66 30 -81.5t153 -15.5h41v-96h-678zM315 1733q0 41 31 71.5t72 30.5t71.5 -30.5t30.5 -71.5q0 -43 -30.5 -73t-73.5 -30q-41 0 -71 31 t-30 72z" />
<glyph unicode="&#x131;" horiz-adv-x="645" d="M37 844v88l385 22v-784q0 -63 23.5 -79.5t121.5 -16.5h25v-74h-531v74h25q96 0 119.5 16t23.5 80v571q0 66 -15 84.5t-73 18.5h-104z" />
<glyph unicode="&#x134;" horiz-adv-x="1138" d="M10 317q0 109 57.5 179.5t147.5 70.5q68 0 111 -41t43 -106q0 -63 -37 -105.5t-92 -42.5q-33 0 -76 11h-6q-25 0 -25 -33q0 -72 74 -128t174 -56q182 0 242 178q27 80 26 323v719q0 66 -29.5 81t-152.5 15h-39v97h672v-97h-39q-125 0 -154.5 -15t-29.5 -81v-737 q0 -326 -109 -453t-350 -127q-193 0 -300.5 97t-107.5 251zM379 1579l307 307h156l307 -307h-90l-295 186l-297 -186h-88z" />
<glyph unicode="&#x135;" horiz-adv-x="606" d="M-168 -246q0 53 33 88t82 35q43 0 74.5 -28.5t31.5 -67.5q0 -18 -14 -49q-10 -27 -10 -33q0 -27 51 -27q33 0 65.5 20.5t47.5 51.5q39 80 38 303v694q0 66 -15 84.5t-73 18.5h-118v88l399 22v-809q0 -174 -18.5 -266t-65.5 -160q-96 -133 -279 -133q-102 0 -165.5 46 t-63.5 122zM6 1079l256 340h129l256 -340h-74l-245 207l-248 -207h-74z" />
<glyph unicode="&#x136;" horiz-adv-x="1593" d="M61 0v96h37q125 0 155 15.5t30 81.5v1093q0 66 -30 81t-155 15h-37v97h674v-97h-39q-125 0 -154.5 -15t-29.5 -81v-616l502 504q100 100 100 147q0 61 -133 61h-51v97h631v-97q-193 0 -347 -163l-305 -306l496 -714q45 -68 80 -85.5t121 -17.5h39v-96h-701v96h64 q139 0 139 47q0 25 -41 86l-356 523l-238 -240v-319q0 -66 29.5 -81.5t154.5 -15.5h39v-96h-674zM696 -567q186 117 187 252q0 16 -13 16h-6q-8 -2 -24 -2q-61 0 -96 28.5t-35 79.5q0 47 34.5 79t85.5 32q66 0 109 -49t43 -127q0 -119 -78 -223q-55 -72 -166 -137z" />
<glyph unicode="&#x137;" horiz-adv-x="1214" d="M29 1399v88l379 22v-1013l276 266q47 47 47 80q0 39 -96 39h-64v73h539v-73q-104 -12 -181 -51t-165 -128l-92 -90l291 -397q63 -80 108 -106.5t131 -34.5v-74h-540v74h38q90 0 91 35q0 12 -15 36l-244 342l-124 -118v-199q0 -66 19 -81t116 -15h28v-74h-518v74h29 q94 0 113.5 15t19.5 81v1126q0 66 -15.5 84.5t-72.5 18.5h-98zM473 -567q186 117 186 252q0 16 -12 16h-6q-8 -2 -25 -2q-61 0 -96 28.5t-35 79.5q0 47 35 79t86 32q66 0 109 -49t43 -127q0 -119 -78 -223q-55 -72 -166 -137z" />
<glyph unicode="&#x139;" horiz-adv-x="1366" d="M72 0v96h37q125 0 154.5 15.5t29.5 81.5v1093q0 66 -30 81t-154 15h-37v97h671v-97h-36q-125 0 -155 -15t-30 -81v-1091q0 -61 32 -80t116 -19h86q244 0 342 105.5t135 359.5h90l-43 -561h-1208zM199 1575l344 258q76 57 123 57q35 0 60.5 -18.5t25.5 -44.5 q0 -41 -62 -72l-391 -180h-100z" />
<glyph unicode="&#x13a;" horiz-adv-x="645" d="M39 1399v88l379 22v-1339q0 -66 19.5 -81t115.5 -15h35v-74h-531v74h35q94 0 113.5 15t19.5 81v1126q0 66 -15 84.5t-71 18.5h-100zM82 1606l344 258q76 57 123 57q35 0 60.5 -18.5t25.5 -44.5q0 -41 -62 -72l-391 -180h-100z" />
<glyph unicode="&#x13b;" horiz-adv-x="1366" d="M72 0v96h37q125 0 154.5 15.5t29.5 81.5v1093q0 66 -30 81t-154 15h-37v97h671v-97h-36q-125 0 -155 -15t-30 -81v-1091q0 -61 32 -80t116 -19h86q244 0 342 105.5t135 359.5h90l-43 -561h-1208zM539 -567q186 117 186 252q0 16 -12 16h-6q-8 -2 -25 -2q-61 0 -96 28.5 t-35 79.5q0 47 35 79t86 32q66 0 108.5 -49t42.5 -127q0 -119 -78 -223q-55 -72 -165 -137z" />
<glyph unicode="&#x13c;" horiz-adv-x="645" d="M39 1399v88l379 22v-1339q0 -66 19.5 -81t115.5 -15h35v-74h-531v74h35q94 0 113.5 15t19.5 81v1126q0 66 -15 84.5t-71 18.5h-100zM178 -567q186 117 187 252q0 16 -13 16h-6q-8 -2 -24 -2q-61 0 -96.5 28.5t-35.5 79.5q0 47 35 79t86 32q66 0 109 -49t43 -127 q0 -119 -78 -223q-55 -72 -166 -137z" />
<glyph unicode="&#x13d;" horiz-adv-x="1366" d="M72 0v96h37q125 0 154.5 15.5t29.5 81.5v1093q0 66 -30 81t-154 15h-37v97h671v-97h-36q-125 0 -155 -15t-30 -81v-1091q0 -61 32 -80t116 -19h86q244 0 342 105.5t135 359.5h90l-43 -561h-1208zM825 993q186 117 187 252q0 16 -13 17h-6q-8 -2 -24 -2q-61 0 -96 28.5 t-35 79.5q0 47 34.5 79t85.5 32q66 0 109 -49.5t43 -126.5q0 -119 -78 -224q-55 -72 -166 -137z" />
<glyph unicode="&#x13e;" horiz-adv-x="645" d="M39 1399v88l379 22v-1339q0 -66 19.5 -81t115.5 -15h35v-74h-531v74h35q94 0 113.5 15t19.5 81v1126q0 66 -15 84.5t-71 18.5h-100zM500 1024q186 117 186 252q0 16 -12 16h-6q-8 -2 -25 -2q-61 0 -96 29t-35 80q0 47 35 78.5t86 31.5q66 0 108.5 -49t42.5 -127 q0 -119 -77 -223q-55 -72 -166 -137z" />
<glyph unicode="&#x13f;" horiz-adv-x="1366" d="M72 0v96h37q125 0 154.5 15.5t29.5 81.5v1093q0 66 -30 81t-154 15h-37v97h671v-97h-36q-125 0 -155 -15t-30 -81v-1091q0 -61 32 -80t116 -19h86q244 0 342 105.5t135 359.5h90l-43 -561h-1208zM989 786q0 41 31 72t72 31t71.5 -31t30.5 -72q0 -43 -30.5 -72.5 t-73.5 -29.5q-41 0 -71 30.5t-30 71.5z" />
<glyph unicode="&#x140;" horiz-adv-x="645" d="M39 1399v88l379 22v-1339q0 -66 19.5 -81t115.5 -15h35v-74h-531v74h35q94 0 113.5 15t19.5 81v1126q0 66 -15 84.5t-71 18.5h-100zM543 786q0 41 30.5 72t71.5 31t72 -31t31 -72q0 -43 -31 -72.5t-74 -29.5q-41 0 -70.5 30.5t-29.5 71.5z" />
<glyph unicode="&#x141;" horiz-adv-x="1366" d="M70 0v96h36q125 0 155 15.5t30 81.5v356l-221 -154v113l221 156v622q0 66 -30 81t-155 15h-36v97h671v-97h-36q-125 0 -155 -15t-30 -81v-489l383 280v-119l-383 -278v-485q0 -61 32 -80t116 -19h88q127 0 211 27t137 88t80.5 142t46.5 208h90l-41 -561h-1210z" />
<glyph unicode="&#x142;" horiz-adv-x="645" d="M39 1399v88l379 22v-510l160 162v-131l-160 -162v-698q0 -61 27.5 -78.5t127.5 -17.5h15v-74h-531v74h15q98 0 125.5 17.5t27.5 78.5v537l-159 -162v131l159 162v458q0 66 -15 84.5t-71 18.5h-100z" />
<glyph unicode="&#x143;" horiz-adv-x="1669" d="M39 1382v97h422l817 -1088v643q0 211 -45 276.5t-191 71.5v97h584v-97q-147 -6 -192 -71.5t-45 -276.5v-1063h-86l-914 1233v-760q0 -211 45 -276.5t191 -71.5v-96h-584v96q147 6 192.5 71.5t45.5 276.5v871q-27 39 -69 53t-120 14h-51zM625 1575l344 258q76 57 123 57 q35 0 60.5 -18.5t25.5 -44.5q0 -41 -62 -72l-391 -180h-100z" />
<glyph unicode="&#x144;" horiz-adv-x="1251" d="M55 0v74h29q94 0 113.5 15t19.5 81v571q0 66 -15.5 84.5t-72.5 18.5h-74v88l355 22v-166q131 197 323 197q90 0 164 -42t113 -116q27 -51 35 -97t8 -157v-403q0 -66 19.5 -81t113.5 -15h28v-74h-518v74h29q96 0 115.5 15t19.5 81v414q0 141 -45 204q-23 31 -64.5 51.5 t-80.5 20.5q-66 0 -128.5 -43t-95.5 -112q-37 -78 -36 -240v-295q0 -66 19.5 -81t115.5 -15h28v-74h-518zM471 1073l287 287q63 63 102 63q29 0 50.5 -21.5t21.5 -49.5q0 -49 -51 -80l-326 -199h-84z" />
<glyph unicode="&#x145;" horiz-adv-x="1669" d="M39 1382v97h422l817 -1088v643q0 211 -45 276.5t-191 71.5v97h584v-97q-147 -6 -192 -71.5t-45 -276.5v-1063h-86l-914 1233v-760q0 -211 45 -276.5t191 -71.5v-96h-584v96q147 6 192.5 71.5t45.5 276.5v871q-27 39 -69 53t-120 14h-51zM690 -567q186 117 187 252 q0 16 -13 16h-6q-8 -2 -24 -2q-61 0 -96.5 28.5t-35.5 79.5q0 47 35 79t86 32q66 0 109 -49t43 -127q0 -119 -78 -223q-55 -72 -166 -137z" />
<glyph unicode="&#x146;" horiz-adv-x="1251" d="M55 0v74h29q94 0 113.5 15t19.5 81v571q0 66 -15.5 84.5t-72.5 18.5h-74v88l355 22v-166q131 197 323 197q90 0 164 -42t113 -116q27 -51 35 -97t8 -157v-403q0 -66 19.5 -81t113.5 -15h28v-74h-518v74h29q96 0 115.5 15t19.5 81v414q0 141 -45 204q-23 31 -64.5 51.5 t-80.5 20.5q-66 0 -128.5 -43t-95.5 -112q-37 -78 -36 -240v-295q0 -66 19.5 -81t115.5 -15h28v-74h-518zM481 -567q186 117 187 252q0 16 -13 16h-6q-8 -2 -24 -2q-61 0 -96 28.5t-35 79.5q0 47 34.5 79t85.5 32q66 0 109 -49t43 -127q0 -119 -78 -223q-55 -72 -166 -137z " />
<glyph unicode="&#x147;" horiz-adv-x="1669" d="M39 1382v97h422l817 -1088v643q0 211 -45 276.5t-191 71.5v97h584v-97q-147 -6 -192 -71.5t-45 -276.5v-1063h-86l-914 1233v-760q0 -211 45 -276.5t191 -71.5v-96h-584v96q147 6 192.5 71.5t45.5 276.5v871q-27 39 -69 53t-120 14h-51zM451 1886h90l295 -186l297 186h88 l-308 -307h-155z" />
<glyph unicode="&#x148;" horiz-adv-x="1251" d="M55 0v74h29q94 0 113.5 15t19.5 81v571q0 66 -15.5 84.5t-72.5 18.5h-74v88l355 22v-166q131 197 323 197q90 0 164 -42t113 -116q27 -51 35 -97t8 -157v-403q0 -66 19.5 -81t113.5 -15h28v-74h-518v74h29q96 0 115.5 15t19.5 81v414q0 141 -45 204q-23 31 -64.5 51.5 t-80.5 20.5q-66 0 -128.5 -43t-95.5 -112q-37 -78 -36 -240v-295q0 -66 19.5 -81t115.5 -15h28v-74h-518zM305 1419h74l246 -207l247 207h74l-256 -340h-129z" />
<glyph unicode="&#x14a;" horiz-adv-x="1669" d="M39 1382v97h422l817 -1088v643q0 211 -45 276.5t-191 71.5v97h584v-97q-147 -6 -192 -71.5t-45 -276.5v-1063q0 -170 -41 -313t-137.5 -240.5t-231.5 -97.5q-102 0 -165.5 46t-63.5 122q0 53 32.5 88t81.5 35q43 0 75 -28.5t32 -67.5q0 -18 -15 -50q-10 -27 -10 -32 q0 -27 51 -27q88 0 146.5 51t86 144.5t38 187.5t10.5 217l-889 1198v-760q0 -211 45 -276.5t191 -71.5v-96h-584v96q147 6 192.5 71.5t45.5 276.5v871q-27 39 -69 53t-120 14h-51z" />
<glyph unicode="&#x14b;" horiz-adv-x="1251" d="M55 0v74h29q94 0 113.5 15t19.5 81v571q0 66 -15.5 84.5t-72.5 18.5h-74v88l355 22v-166q131 197 323 197q90 0 164 -42t113 -116q27 -51 35 -97t8 -157v-403q0 -850 -428 -850q-102 0 -166 46t-64 122q0 53 33 88t82 35q43 0 74.5 -28.5t31.5 -67.5q0 -18 -14 -50 q-10 -25 -10 -32q0 -27 51 -27q39 0 72 17.5t54.5 55.5t37.5 76.5t26 105.5l15 115q6 48 9 132t3 130v132v414q0 141 -45 204q-23 31 -64.5 51.5t-80.5 20.5q-66 0 -128.5 -43t-95.5 -112q-37 -78 -36 -240v-295q0 -66 19.5 -81t115.5 -15h28v-74h-518z" />
<glyph unicode="&#x14c;" horiz-adv-x="1593" d="M92 737q0 322 200 547t513 225q295 0 495.5 -222t200.5 -548q0 -330 -201.5 -550t-502.5 -220q-299 0 -502 220t-203 548zM362 743q0 -348 109 -512.5t326 -164.5q434 0 434 673.5t-428 673.5q-221 0 -331 -163t-110 -507zM477 1677v111h641v-111h-641z" />
<glyph unicode="&#x14d;" horiz-adv-x="1024" d="M70 475q0 215 129 362.5t317 147.5q182 0 310 -148.5t128 -359.5t-129 -359.5t-313 -148.5t-313 147.5t-129 358.5zM195 1194v111h641v-111h-641zM285 475q0 -203 58 -310.5t169 -107.5t169 107.5t58 312.5q0 203 -57 311.5t-166 108.5q-231 0 -231 -422z" />
<glyph unicode="&#x14e;" horiz-adv-x="1593" d="M92 737q0 322 200 547t513 225q295 0 495.5 -222t200.5 -548q0 -330 -201.5 -550t-502.5 -220q-299 0 -502 220t-203 548zM362 743q0 -348 109 -512.5t326 -164.5q434 0 434 673.5t-428 673.5q-221 0 -331 -163t-110 -507zM449 1878h88q10 -84 77.5 -130t182 -46t181 46 t77.5 130h90q0 -131 -99.5 -211t-251 -80t-248.5 80t-97 211z" />
<glyph unicode="&#x14f;" horiz-adv-x="1024" d="M70 475q0 215 129 362.5t317 147.5q182 0 310 -148.5t128 -359.5t-129 -359.5t-313 -148.5t-313 147.5t-129 358.5zM225 1384v27h74q8 -92 64.5 -143t152.5 -51q94 0 150.5 51t64.5 143h74v-29q0 -125 -83 -208.5t-208 -83.5t-207 83.5t-82 210.5zM285 475 q0 -203 58 -310.5t169 -107.5t169 107.5t58 312.5q0 203 -57 311.5t-166 108.5q-231 0 -231 -422z" />
<glyph unicode="&#x150;" horiz-adv-x="1593" d="M92 737q0 322 200 547t513 225q295 0 495.5 -222t200.5 -548q0 -330 -201.5 -550t-502.5 -220q-299 0 -502 220t-203 548zM362 743q0 -348 109 -512.5t326 -164.5q434 0 434 673.5t-428 673.5q-221 0 -331 -163t-110 -507zM649 1622l72 201q43 121 108 121 q23 0 39.5 -17.5t16.5 -40.5q0 -39 -37 -82l-166 -200zM891 1622l72 201q43 121 108 121q23 0 39 -17.5t16 -40.5q0 -37 -36 -82l-166 -200z" />
<glyph unicode="&#x151;" horiz-adv-x="1024" d="M70 475q0 215 129 362.5t317 147.5q182 0 310 -148.5t128 -359.5t-129 -359.5t-313 -148.5t-313 147.5t-129 358.5zM285 475q0 -203 58 -310.5t169 -107.5t169 107.5t58 312.5q0 203 -57 311.5t-166 108.5q-231 0 -231 -422zM369 1098l71 200q43 121 109 121 q23 0 39 -17.5t16 -39.5q0 -39 -37 -82l-166 -201zM610 1098l72 200q43 121 109 121q23 0 39 -17.5t16 -39.5q0 -37 -37 -82l-166 -201z" />
<glyph unicode="&#x152;" horiz-adv-x="2048" d="M39 750q0 315 196.5 522t544.5 207h1168l28 -525h-90q-45 268 -137 348t-346 80h-53q-84 0 -106.5 -18t-22.5 -84v-467h47q143 0 200.5 63.5t65.5 217.5h96v-672h-96q-2 68 -6 105.5t-19.5 79.5t-44 62.5t-79 34t-125.5 13.5h-39v-522q0 -61 31.5 -80t115.5 -19h76 q227 0 324.5 93.5t150.5 357.5h90l-41 -547h-1204q-166 0 -285 44t-213 140q-106 111 -166.5 259.5t-60.5 306.5zM309 737q0 -641 404 -641q80 0 143.5 30t93.5 83q41 72 41 276v557q0 115 -10 161t-43 87q-74 92 -227 92q-402 0 -402 -645z" />
<glyph unicode="&#x153;" horiz-adv-x="1705" d="M70 475q0 213 130 361.5t318 148.5q100 0 192.5 -48t149.5 -130q139 178 352 178q188 0 307 -146.5t119 -377.5h-671q0 -197 78.5 -289t209.5 -92q102 0 175 51t137 168l71 -39q-125 -291 -421 -291q-236 0 -361 158q-131 -158 -348 -158q-193 0 -315.5 141.5 t-122.5 364.5zM285 469q0 -199 59 -305.5t172 -106.5q233 0 234 432q0 197 -59.5 302.5t-170.5 105.5q-235 0 -235 -428zM969 549h362q51 0 68.5 15.5t17.5 60.5q0 123 -57 197.5t-152 74.5q-100 0 -166.5 -92t-72.5 -256z" />
<glyph unicode="&#x154;" horiz-adv-x="1478" d="M53 0v96h37q125 0 154.5 15.5t29.5 81.5v1093q0 66 -29.5 81t-154.5 15h-37v97h709q258 0 399.5 -96.5t141.5 -270.5q0 -305 -437 -367q121 -31 185.5 -102.5t99.5 -212.5l33 -129q27 -109 46 -142.5t56 -33.5q41 0 61.5 48t26.5 155h86q-4 -184 -65.5 -271.5 t-188.5 -87.5q-121 0 -183 77t-79 249l-10 104q-18 176 -93 247t-218 71h-119v-524q0 -66 29.5 -81.5t154.5 -15.5h37v-96h-672zM504 813h225q160 0 241 69.5t81 227.5q0 139 -72 205.5t-223 66.5h-111q-98 0 -119.5 -10t-21.5 -57v-502zM530 1575l344 258q76 57 123 57 q35 0 60.5 -18.5t25.5 -44.5q0 -41 -61 -72l-391 -180h-101z" />
<glyph unicode="&#x155;" horiz-adv-x="909" d="M43 844v88l363 22v-254q49 135 129.5 210t177.5 75q82 0 130 -45t48 -119q0 -63 -35 -101t-90 -38q-49 0 -81 31.5t-32 81t37 92.5q-131 -16 -205 -189q-80 -182 -79 -426v-102q0 -61 27.5 -78.5t125.5 -17.5h39v-74h-547v74h29q96 0 115.5 15t19.5 81v571 q0 66 -15.5 84.5t-72.5 18.5h-84zM250 1073l287 287q63 63 102 63q29 0 50.5 -21.5t21.5 -49.5q0 -49 -52 -80l-325 -199h-84z" />
<glyph unicode="&#x156;" horiz-adv-x="1478" d="M53 0v96h37q125 0 154.5 15.5t29.5 81.5v1093q0 66 -29.5 81t-154.5 15h-37v97h709q258 0 399.5 -96.5t141.5 -270.5q0 -305 -437 -367q121 -31 185.5 -102.5t99.5 -212.5l33 -129q27 -109 46 -142.5t56 -33.5q41 0 61.5 48t26.5 155h86q-4 -184 -65.5 -271.5 t-188.5 -87.5q-121 0 -183 77t-79 249l-10 104q-18 176 -93 247t-218 71h-119v-524q0 -66 29.5 -81.5t154.5 -15.5h37v-96h-672zM504 813h225q160 0 241 69.5t81 227.5q0 139 -72 205.5t-223 66.5h-111q-98 0 -119.5 -10t-21.5 -57v-502zM596 -567q186 117 186 252 q0 16 -12 16h-6q-8 -2 -25 -2q-61 0 -96 28.5t-35 79.5q0 47 35 79t86 32q66 0 109 -49t43 -127q0 -119 -78 -223q-55 -72 -166 -137z" />
<glyph unicode="&#x157;" horiz-adv-x="909" d="M43 844v88l363 22v-254q49 135 129.5 210t177.5 75q82 0 130 -45t48 -119q0 -63 -35 -101t-90 -38q-49 0 -81 31.5t-32 81t37 92.5q-131 -16 -205 -189q-80 -182 -79 -426v-102q0 -61 27.5 -78.5t125.5 -17.5h39v-74h-547v74h29q96 0 115.5 15t19.5 81v571 q0 66 -15.5 84.5t-72.5 18.5h-84zM180 -567q186 117 187 252q0 16 -13 16h-6q-8 -2 -24 -2q-61 0 -96 28.5t-35 79.5q0 47 34.5 79t85.5 32q66 0 109 -49t43 -127q0 -119 -78 -223q-55 -72 -166 -137z" />
<glyph unicode="&#x158;" horiz-adv-x="1478" d="M53 0v96h37q125 0 154.5 15.5t29.5 81.5v1093q0 66 -29.5 81t-154.5 15h-37v97h709q258 0 399.5 -96.5t141.5 -270.5q0 -305 -437 -367q121 -31 185.5 -102.5t99.5 -212.5l33 -129q27 -109 46 -142.5t56 -33.5q41 0 61.5 48t26.5 155h86q-4 -184 -65.5 -271.5 t-188.5 -87.5q-121 0 -183 77t-79 249l-10 104q-18 176 -93 247t-218 71h-119v-524q0 -66 29.5 -81.5t154.5 -15.5h37v-96h-672zM356 1886h90l295 -186l297 186h88l-307 -307h-155zM504 813h225q160 0 241 69.5t81 227.5q0 139 -72 205.5t-223 66.5h-111q-98 0 -119.5 -10 t-21.5 -57v-502z" />
<glyph unicode="&#x159;" horiz-adv-x="909" d="M43 844v88l363 22v-254q49 135 129.5 210t177.5 75q82 0 130 -45t48 -119q0 -63 -35 -101t-90 -38q-49 0 -81 31.5t-32 81t37 92.5q-131 -16 -205 -189q-80 -182 -79 -426v-102q0 -61 27.5 -78.5t125.5 -17.5h39v-74h-547v74h29q96 0 115.5 15t19.5 81v571 q0 66 -15.5 84.5t-72.5 18.5h-84zM84 1419h74l245 -207l248 207h74l-256 -340h-129z" />
<glyph unicode="&#x15a;" horiz-adv-x="1290" d="M104 567h89q43 -219 159 -350q139 -154 357 -154q154 0 247 82q92 82 92.5 205t-94.5 195q-31 25 -61.5 35t-147.5 41l-194 49q-225 57 -318.5 150t-93.5 261q0 193 124 310.5t325 117.5q225 0 373 -141l81 123h76l25 -533h-88q-41 158 -123 275q-125 178 -342 178 q-131 0 -211 -66.5t-80 -175.5q0 -182 268 -251l219 -56q223 -55 299 -129q123 -119 123 -313q0 -207 -134 -329t-359 -122q-133 0 -230.5 35t-199.5 119l-92 -139h-80zM436 1575l344 258q76 57 123 57q35 0 60.5 -18.5t25.5 -44.5q0 -41 -61 -72l-391 -180h-101z" />
<glyph unicode="&#x15b;" horiz-adv-x="948" d="M104 -14v387h82q37 -154 126 -235t218 -81q90 0 147.5 46.5t57.5 117.5q0 61 -48 97t-171 65l-108 25q-156 37 -218 92q-72 66 -71 188q0 133 82 215t217 82q145 0 250 -82l59 74h72v-344h-72q-43 123 -100 180q-84 82 -199 82q-84 0 -137 -40t-53 -101q0 -76 71 -109 q37 -20 150 -45l102 -22q94 -20 136 -37t79 -49q86 -72 86 -207q0 -143 -91 -229.5t-243 -86.5q-156 0 -280 101l-72 -84h-72zM319 1073l287 287q63 63 103 63q29 0 50 -21.5t21 -49.5q0 -49 -51 -80l-326 -199h-84z" />
<glyph unicode="&#x15c;" horiz-adv-x="1290" d="M104 567h89q43 -219 159 -350q139 -154 357 -154q154 0 247 82q92 82 92.5 205t-94.5 195q-31 25 -61.5 35t-147.5 41l-194 49q-225 57 -318.5 150t-93.5 261q0 193 124 310.5t325 117.5q225 0 373 -141l81 123h76l25 -533h-88q-41 158 -123 275q-125 178 -342 178 q-131 0 -211 -66.5t-80 -175.5q0 -182 268 -251l219 -56q223 -55 299 -129q123 -119 123 -313q0 -207 -134 -329t-359 -122q-133 0 -230.5 35t-199.5 119l-92 -139h-80zM260 1579l307 307h156l307 -307h-90l-295 186l-297 -186h-88z" />
<glyph unicode="&#x15d;" horiz-adv-x="948" d="M104 -14v387h82q37 -154 126 -235t218 -81q90 0 147.5 46.5t57.5 117.5q0 61 -48 97t-171 65l-108 25q-156 37 -218 92q-72 66 -71 188q0 133 82 215t217 82q145 0 250 -82l59 74h72v-344h-72q-43 123 -100 180q-84 82 -199 82q-84 0 -137 -40t-53 -101q0 -76 71 -109 q37 -20 150 -45l102 -22q94 -20 136 -37t79 -49q86 -72 86 -207q0 -143 -91 -229.5t-243 -86.5q-156 0 -280 101l-72 -84h-72zM154 1079l256 340h129l256 -340h-74l-246 207l-248 -207h-73z" />
<glyph unicode="&#x15e;" horiz-adv-x="1290" d="M104 567h89q43 -219 159 -350q139 -154 357 -154q154 0 247 82q92 82 92.5 205t-94.5 195q-31 25 -61.5 35t-147.5 41l-194 49q-225 57 -318.5 150t-93.5 261q0 193 124 310.5t325 117.5q225 0 373 -141l81 123h76l25 -533h-88q-41 158 -123 275q-125 178 -342 178 q-131 0 -211 -66.5t-80 -175.5q0 -182 268 -251l219 -56q223 -55 299 -129q123 -119 123 -313q0 -205 -133 -328t-354 -123q-31 0 -53 2l-37 -100q43 6 59 6q76 0 122 -39t46 -100q0 -78 -68.5 -128t-179.5 -50q-90 0 -178 34l29 68q74 -25 125 -24q53 0 84.5 22.5 t31.5 58.5q0 35 -26.5 57.5t-69.5 22.5q-29 0 -69 -10l-19 10l80 178q-98 16 -165.5 47t-147.5 99l-92 -139h-80z" />
<glyph unicode="&#x15f;" horiz-adv-x="948" d="M104 -14v387h82q37 -154 126 -235t218 -81q90 0 147.5 46.5t57.5 117.5q0 61 -48 97t-171 65l-108 25q-156 37 -218 92q-72 66 -71 188q0 133 82 215t217 82q145 0 250 -82l59 74h72v-344h-72q-43 123 -100 180q-84 82 -199 82q-84 0 -137 -40t-53 -101q0 -76 71 -109 q37 -20 150 -45l102 -22q94 -20 136 -37t79 -49q86 -72 86 -207q0 -141 -91 -228.5t-241 -87.5h-32l-37 -98q39 6 57 6q76 0 122 -39t46 -100q0 -78 -68.5 -128t-177.5 -50q-92 0 -180 34l31 68q70 -25 125 -24q51 0 82.5 22.5t31.5 58.5q0 35 -26.5 57.5t-69.5 22.5 q-29 0 -69 -10l-17 10l80 183q-109 27 -180 88l-72 -84h-72z" />
<glyph unicode="&#x160;" horiz-adv-x="1290" d="M104 567h89q43 -219 159 -350q139 -154 357 -154q154 0 247 82q92 82 92.5 205t-94.5 195q-31 25 -61.5 35t-147.5 41l-194 49q-225 57 -318.5 150t-93.5 261q0 193 124 310.5t325 117.5q225 0 373 -141l81 123h76l25 -533h-88q-41 158 -123 275q-125 178 -342 178 q-131 0 -211 -66.5t-80 -175.5q0 -182 268 -251l219 -56q223 -55 299 -129q123 -119 123 -313q0 -207 -134 -329t-359 -122q-133 0 -230.5 35t-199.5 119l-92 -139h-80zM262 1886h90l295 -186l297 186h88l-307 -307h-156z" />
<glyph unicode="&#x161;" horiz-adv-x="948" d="M104 -14v387h82q37 -154 126 -235t218 -81q90 0 147.5 46.5t57.5 117.5q0 61 -48 97t-171 65l-108 25q-156 37 -218 92q-72 66 -71 188q0 133 82 215t217 82q145 0 250 -82l59 74h72v-344h-72q-43 123 -100 180q-84 82 -199 82q-84 0 -137 -40t-53 -101q0 -76 71 -109 q37 -20 150 -45l102 -22q94 -20 136 -37t79 -49q86 -72 86 -207q0 -143 -91 -229.5t-243 -86.5q-156 0 -280 101l-72 -84h-72zM154 1419h73l246 -207l248 207h74l-256 -340h-129z" />
<glyph unicode="&#x162;" horiz-adv-x="1366" d="M39 909l31 570h1226l31 -570h-88q-25 174 -68 281q-39 92 -110.5 142t-165.5 50q-96 0 -96 -73v-1116q0 -66 29.5 -81.5t152.5 -15.5h53v-96h-321l-45 -129q43 6 59 6q76 0 122 -39t46 -100q0 -78 -68.5 -128t-177.5 -50q-92 0 -180 34l29 68q74 -25 125 -24 q53 0 84.5 22.5t31.5 58.5q0 35 -26.5 57.5t-69.5 22.5q-29 0 -70 -10l-18 10l86 201h-309v96h53q125 0 154.5 15.5t29.5 81.5v1116q0 74 -96 73q-209 0 -291 -227q-35 -102 -55 -246h-88z" />
<glyph unicode="&#x163;" horiz-adv-x="796" d="M37 866v80q246 18 276 414h84v-406h301v-88h-301v-559q0 -123 26 -168t95 -45q150 0 160 279h86q2 -20 2 -47q0 -150 -75 -250.5t-214 -106.5l-35 -98q43 6 60 6q76 0 122 -39t46 -100q0 -78 -69 -128t-177 -50q-92 0 -180 34l28 68q74 -25 125 -24q53 0 85 22.5t32 58.5 q0 35 -26.5 57.5t-69.5 22.5q-29 0 -70 -10l-18 10l73 174q-131 23 -174 129q-25 57 -24 242v522h-168z" />
<glyph unicode="&#x164;" horiz-adv-x="1366" d="M39 909l31 570h1226l31 -570h-88q-25 174 -68 281q-39 92 -110.5 142t-165.5 50q-96 0 -96 -73v-1116q0 -66 29.5 -81.5t152.5 -15.5h53v-96h-702v96h53q125 0 154.5 15.5t29.5 81.5v1116q0 74 -96 73q-209 0 -291 -227q-35 -102 -55 -246h-88zM299 1886h90l295 -186 l297 186h88l-307 -307h-156z" />
<glyph unicode="&#x165;" horiz-adv-x="796" d="M37 866v80q246 18 276 414h84v-406h301v-88h-301v-559q0 -123 26 -168t95 -45q150 0 160 279h86q2 -20 2 -47q0 -154 -79 -255.5t-224 -101.5q-180 0 -234 133q-25 57 -24 242v522h-168zM438 1047q186 117 187 251q0 16 -13 17h-6q-8 -2 -24 -2q-61 0 -96 28.5t-35 79.5 q0 47 34.5 79t85.5 32q66 0 109 -49t43 -127q0 -119 -78 -223q-55 -72 -166 -138z" />
<glyph unicode="&#x168;" horiz-adv-x="1669" d="M35 1382v97h670v-97h-39q-125 0 -155 -15t-30 -81v-745q0 -231 88 -346t305 -115q225 0 319.5 132t94.5 370v452q0 211 -45 276.5t-190 71.5v97h583v-97q-147 -6 -192 -71.5t-45 -276.5v-465q0 -315 -146.5 -457.5t-433.5 -142.5q-264 0 -415.5 108.5t-151.5 334.5v874 q0 66 -29.5 81t-152.5 15h-35zM496 1624q20 96 74.5 151.5t129.5 55.5q55 0 177 -55q88 -39 120 -39q35 0 66 29.5t39 74.5h72q-10 -96 -72 -156.5t-150 -60.5q-39 0 -70.5 10.5t-111.5 46.5q-61 29 -106 29q-74 0 -97 -86h-71z" />
<glyph unicode="&#x169;" horiz-adv-x="1251" d="M43 844v88l358 22v-624q0 -84 5.5 -114t25.5 -58q41 -63 143 -64q158 0 226 144q43 94 43 251v252q0 66 -15.5 84.5t-72.5 18.5h-105v88l385 22v-716q0 -98 22.5 -124t106.5 -26h52v-88l-373 -14v170q-68 -98 -143.5 -142.5t-176.5 -44.5q-190 0 -276 131q-39 59 -39 199 v442q0 66 -15.5 84.5t-72.5 18.5h-78zM283 1141q20 96 74.5 151.5t129.5 55.5q55 0 177 -56q88 -39 120 -39q35 0 66 30t39 75h72q-10 -96 -72 -156.5t-150 -60.5q-39 0 -70.5 10t-111.5 47q-61 29 -106 29q-74 0 -97 -86h-71z" />
<glyph unicode="&#x16a;" horiz-adv-x="1669" d="M35 1382v97h670v-97h-39q-125 0 -155 -15t-30 -81v-745q0 -231 88 -346t305 -115q225 0 319.5 132t94.5 370v452q0 211 -45 276.5t-190 71.5v97h583v-97q-147 -6 -192 -71.5t-45 -276.5v-465q0 -315 -146.5 -457.5t-433.5 -142.5q-264 0 -415.5 108.5t-151.5 334.5v874 q0 66 -29.5 81t-152.5 15h-35zM514 1677v111h641v-111h-641z" />
<glyph unicode="&#x16b;" horiz-adv-x="1251" d="M43 844v88l358 22v-624q0 -84 5.5 -114t25.5 -58q41 -63 143 -64q158 0 226 144q43 94 43 251v252q0 66 -15.5 84.5t-72.5 18.5h-105v88l385 22v-716q0 -98 22.5 -124t106.5 -26h52v-88l-373 -14v170q-68 -98 -143.5 -142.5t-176.5 -44.5q-190 0 -276 131q-39 59 -39 199 v442q0 66 -15.5 84.5t-72.5 18.5h-78zM301 1194v111h641v-111h-641z" />
<glyph unicode="&#x16c;" horiz-adv-x="1669" d="M35 1382v97h670v-97h-39q-125 0 -155 -15t-30 -81v-745q0 -231 88 -346t305 -115q225 0 319.5 132t94.5 370v452q0 211 -45 276.5t-190 71.5v97h583v-97q-147 -6 -192 -71.5t-45 -276.5v-465q0 -315 -146.5 -457.5t-433.5 -142.5q-264 0 -415.5 108.5t-151.5 334.5v874 q0 66 -29.5 81t-152.5 15h-35zM487 1878h88q10 -84 78 -130t182.5 -46t181 46t77.5 130h90q0 -131 -99.5 -211t-251 -80t-249 80t-97.5 211z" />
<glyph unicode="&#x16d;" horiz-adv-x="1251" d="M43 844v88l358 22v-624q0 -84 5.5 -114t25.5 -58q41 -63 143 -64q158 0 226 144q43 94 43 251v252q0 66 -15.5 84.5t-72.5 18.5h-105v88l385 22v-716q0 -98 22.5 -124t106.5 -26h52v-88l-373 -14v170q-68 -98 -143.5 -142.5t-176.5 -44.5q-190 0 -276 131q-39 59 -39 199 v442q0 66 -15.5 84.5t-72.5 18.5h-78zM332 1384v27h74q8 -92 64 -143t153 -51q94 0 150 51t65 143h73v-29q0 -125 -83 -208.5t-207.5 -83.5t-206.5 83.5t-82 210.5z" />
<glyph unicode="&#x16e;" horiz-adv-x="1669" d="M35 1382v97h670v-97h-39q-125 0 -155 -15t-30 -81v-745q0 -231 88 -346t305 -115q225 0 319.5 132t94.5 370v452q0 211 -45 276.5t-190 71.5v97h583v-97q-147 -6 -192 -71.5t-45 -276.5v-465q0 -315 -146.5 -457.5t-433.5 -142.5q-264 0 -415.5 108.5t-151.5 334.5v874 q0 66 -29.5 81t-152.5 15h-35zM631 1765q0 82 59.5 142.5t143.5 60.5t144 -59.5t60 -143.5q0 -86 -60 -145t-147 -59q-82 0 -141 60t-59 144zM705 1765.5q0 -53.5 37.5 -92.5t91.5 -39q55 0 93 38t38 93q0 53 -38 91t-91.5 38t-92 -37.5t-38.5 -91z" />
<glyph unicode="&#x16f;" horiz-adv-x="1251" d="M43 844v88l358 22v-624q0 -84 5.5 -114t25.5 -58q41 -63 143 -64q158 0 226 144q43 94 43 251v252q0 66 -15.5 84.5t-72.5 18.5h-105v88l385 22v-716q0 -98 22.5 -124t106.5 -26h52v-88l-373 -14v170q-68 -98 -143.5 -142.5t-176.5 -44.5q-190 0 -276 131q-39 59 -39 199 v442q0 66 -15.5 84.5t-72.5 18.5h-78zM418 1251q0 84 59.5 143.5t143.5 59.5t144 -59.5t60 -143.5q0 -86 -60 -145t-147 -59q-82 0 -141 60t-59 144zM492 1251.5q0 -53.5 37.5 -92.5t91.5 -39q55 0 93 38t38 93q0 51 -38 90t-91.5 39t-92 -37.5t-38.5 -91z" />
<glyph unicode="&#x170;" horiz-adv-x="1669" d="M35 1382v97h670v-97h-39q-125 0 -155 -15t-30 -81v-745q0 -231 88 -346t305 -115q225 0 319.5 132t94.5 370v452q0 211 -45 276.5t-190 71.5v97h583v-97q-147 -6 -192 -71.5t-45 -276.5v-465q0 -315 -146.5 -457.5t-433.5 -142.5q-264 0 -415.5 108.5t-151.5 334.5v874 q0 66 -29.5 81t-152.5 15h-35zM688 1622l72 201q43 121 108 121q23 0 39.5 -17.5t16.5 -40.5q0 -39 -37 -82l-166 -200zM930 1622l71 201q43 121 109 121q23 0 39 -17.5t16 -40.5q0 -37 -37 -82l-165 -200z" />
<glyph unicode="&#x171;" horiz-adv-x="1251" d="M43 844v88l358 22v-624q0 -84 5.5 -114t25.5 -58q41 -63 143 -64q158 0 226 144q43 94 43 251v252q0 66 -15.5 84.5t-72.5 18.5h-105v88l385 22v-716q0 -98 22.5 -124t106.5 -26h52v-88l-373 -14v170q-68 -98 -143.5 -142.5t-176.5 -44.5q-190 0 -276 131q-39 59 -39 199 v442q0 66 -15.5 84.5t-72.5 18.5h-78zM475 1098l72 200q43 121 108 121q23 0 39.5 -17.5t16.5 -39.5q0 -39 -37 -82l-166 -201zM717 1098l71 200q43 121 109 121q23 0 39 -17.5t16 -39.5q0 -37 -37 -82l-165 -201z" />
<glyph unicode="&#x172;" horiz-adv-x="1669" d="M35 1382v97h670v-97h-39q-125 0 -155 -15t-30 -81v-745q0 -231 88 -346t305 -115q225 0 319.5 132t94.5 370v452q0 211 -45 276.5t-190 71.5v97h583v-97q-147 -6 -192 -71.5t-45 -276.5v-465q0 -489 -377 -579q-127 -31 -160 -115q-23 -57 -22 -123q0 -104 82 -104 q59 0 101 20.5t63.5 41t29.5 20.5q20 0 21 -25q0 -72 -60.5 -130t-183.5 -58q-96 0 -165 62.5t-69 166.5t136 223q-254 4 -398.5 114t-144.5 329v874q0 66 -29.5 81t-152.5 15h-35z" />
<glyph unicode="&#x173;" horiz-adv-x="1251" d="M43 844v88l358 22v-624q0 -84 5.5 -114t25.5 -58q41 -63 143 -64q158 0 226 144q43 94 43 251v252q0 66 -15.5 84.5t-72.5 18.5h-105v88l385 22v-716q0 -98 22.5 -124t106.5 -26h52v-88l-80 -4q-137 -4 -181 -88q-37 -74 -36 -156q0 -104 81 -104q59 0 101.5 20.5t64 41 t29.5 20.5q20 0 21 -25q0 -72 -60.5 -130t-183.5 -58q-96 0 -165 62.5t-69 166.5q0 115 156 242l-51 -2v170q-68 -98 -143.5 -142.5t-176.5 -44.5q-190 0 -276 131q-39 59 -39 199v442q0 66 -15.5 84.5t-72.5 18.5h-78z" />
<glyph unicode="&#x174;" horiz-adv-x="2009" d="M12 1382v97h578v-97h-92q-88 0 -88 -41q0 -20 10 -51l295 -917l237 786l-53 160q-12 37 -38.5 50t-90.5 13h-47v97h592v-97h-33q-68 0 -101.5 -7t-39.5 -17t-6 -31q0 -12 14 -57l283 -897l245 831q12 33 13 72q0 55 -35 80.5t-121 25.5h-37v97h502v-97h-29 q-82 0 -115.5 -41t-70.5 -170l-361 -1202h-84l-331 1018l-303 -1018h-89l-442 1334q-18 53 -38.5 66t-84.5 13h-39zM621 1579l307 307h155l308 -307h-91l-294 186l-297 -186h-88z" />
<glyph unicode="&#x175;" horiz-adv-x="1593" d="M31 881v73h450v-73h-37q-84 0 -84 -47q0 -16 9 -46l198 -514l181 478l-19 53q-16 45 -36.5 60.5t-69.5 15.5h-35v73h459v-73h-50q-51 0 -68.5 -9.5t-17.5 -37.5q0 -25 9 -43l200 -527l174 467q16 49 17 76q0 74 -101 74h-34v73h387v-73h-27q-51 0 -77.5 -31t-61.5 -125 l-287 -756h-63l-250 647l-244 -647h-72l-307 811q-20 61 -41.5 81t-64.5 20h-37zM475 1079l256 340h129l256 -340h-74l-245 207l-248 -207h-74z" />
<glyph unicode="&#x176;" horiz-adv-x="1441" d="M-27 1382v97h658v-97h-121q-80 0 -80 -39q0 -25 23 -57l344 -555l254 453q35 63 34 106q0 49 -37.5 70.5t-121.5 21.5h-47v97h581v-97h-33q-90 0 -141 -43t-125 -176l-305 -551v-419q0 -66 28.5 -81.5t153.5 -15.5h54v-96h-703v96h53q125 0 155 15.5t30 81.5v395 l-443 700q-35 57 -67.5 75.5t-98.5 18.5h-45zM356 1579l308 307h155l307 -307h-90l-295 186l-297 -186h-88z" />
<glyph unicode="&#x177;" horiz-adv-x="1099" d="M6 -264q0 55 35 91t88 36q45 0 74.5 -26.5t29.5 -65.5q0 -12 -7 -39t-7 -33q0 -20 33 -21q49 0 113.5 73t121.5 192l35 71l-334 756q-29 61 -57.5 86t-77.5 25h-26v73h487v-73h-43q-94 0 -94 -52q0 -14 12 -43l225 -526l187 463q20 49 20 82q0 76 -110 76h-33v73h409v-73 h-24q-57 0 -89 -35t-71 -131l-233 -578q-119 -293 -195 -395q-121 -164 -282 -164q-80 0 -133.5 45t-53.5 113zM274 1079l256 340h129l256 -340h-73l-246 207l-248 -207h-74z" />
<glyph unicode="&#x178;" horiz-adv-x="1441" d="M-27 1382v97h658v-97h-121q-80 0 -80 -39q0 -25 23 -57l344 -555l254 453q35 63 34 106q0 49 -37.5 70.5t-121.5 21.5h-47v97h581v-97h-33q-90 0 -141 -43t-125 -176l-305 -551v-419q0 -66 28.5 -81.5t153.5 -15.5h54v-96h-703v96h53q125 0 155 15.5t30 81.5v395 l-443 700q-35 57 -67.5 75.5t-98.5 18.5h-45zM436 1733q0 41 31 71.5t72 30.5t71.5 -30.5t30.5 -71.5q0 -43 -30.5 -73t-73.5 -30q-41 0 -71 31t-30 72zM844 1733q0 41 30.5 71.5t71.5 30.5t72 -30.5t31 -71.5q0 -43 -31 -73t-74 -30q-41 0 -70.5 31t-29.5 72z" />
<glyph unicode="&#x179;" horiz-adv-x="1251" d="M49 0v74l838 1308h-266q-207 0 -289 -82.5t-131 -338.5h-92l41 518h1015v-74l-841 -1309h340q215 0 294 107q84 102 123 366h97l-37 -569h-1092zM449 1575l344 258q76 57 122 57q35 0 60.5 -18.5t25.5 -44.5q0 -41 -61 -72l-391 -180h-100z" />
<glyph unicode="&#x17a;" horiz-adv-x="985" d="M80 0v74l559 792h-178q-125 0 -185.5 -59t-74.5 -199h-82l18 346h740v-73l-560 -793h209q139 0 204 63.5t79 215.5h82l-14 -367h-797zM352 1073l287 287q63 63 102 63q29 0 50.5 -21.5t21.5 -49.5q0 -49 -51 -80l-326 -199h-84z" />
<glyph unicode="&#x17b;" horiz-adv-x="1251" d="M49 0v74l838 1308h-266q-207 0 -289 -82.5t-131 -338.5h-92l41 518h1015v-74l-841 -1309h340q215 0 294 107q84 102 123 366h97l-37 -569h-1092zM557 1733q0 41 30.5 71.5t71.5 30.5t72 -30.5t31 -71.5q0 -43 -31 -73t-74 -30q-41 0 -70.5 31t-29.5 72z" />
<glyph unicode="&#x17c;" horiz-adv-x="985" d="M80 0v74l559 792h-178q-125 0 -185.5 -59t-74.5 -199h-82l18 346h740v-73l-560 -793h209q139 0 204 63.5t79 215.5h82l-14 -367h-797zM406 1249q0 41 30.5 72t71.5 31t71.5 -31t30.5 -72q0 -43 -30.5 -72.5t-73.5 -29.5q-41 0 -70.5 30.5t-29.5 71.5z" />
<glyph unicode="&#x17d;" horiz-adv-x="1251" d="M49 0v74l838 1308h-266q-207 0 -289 -82.5t-131 -338.5h-92l41 518h1015v-74l-841 -1309h340q215 0 294 107q84 102 123 366h97l-37 -569h-1092zM274 1886h91l294 -186l297 186h88l-307 -307h-155z" />
<glyph unicode="&#x17e;" horiz-adv-x="985" d="M80 0v74l559 792h-178q-125 0 -185.5 -59t-74.5 -199h-82l18 346h740v-73l-560 -793h209q139 0 204 63.5t79 215.5h82l-14 -367h-797zM186 1419h74l246 -207l248 207h73l-256 -340h-129z" />
<glyph unicode="&#x17f;" d="M39 866v88h180v64q0 252 105.5 371.5t293.5 119.5q125 0 197 -51t72 -141q0 -55 -32 -90t-83 -35q-47 0 -80 31.5t-33 76.5q0 23 17 58l14 35q0 35 -69 34q-104 0 -156.5 -83.5t-52.5 -272.5v-901q0 -61 27.5 -78.5t127.5 -17.5h37v-74h-547v74h9q98 0 125.5 17.5 t27.5 78.5v696h-180z" />
<glyph unicode="&#x18e;" horiz-adv-x="1478" d="M59 547h91q49 -260 145 -355.5t330 -95.5h135q84 0 115.5 18.5t31.5 80.5v522h-41q-178 0 -234.5 -67.5t-60.5 -227.5h-96v672h96q8 -150 75 -215.5t212 -65.5h49v467q0 66 -22.5 84t-106.5 18h-106q-133 0 -212 -15t-135.5 -64.5t-86 -129t-52.5 -219.5h-88v525h1260 v-97h-37q-125 0 -154.5 -15t-29.5 -81v-1093q0 -66 29.5 -81.5t154.5 -15.5h37v-96h-1258z" />
<glyph unicode="&#x192;" horiz-adv-x="1138" d="M6 -258q0 55 33 92t84 37q45 0 75.5 -27.5t30.5 -68.5q0 -23 -16 -54l-18 -32q0 -20 28 -21q41 0 83 38t65 95q29 78 39 160t36 410l35 428h-237v96h245l13 98q33 256 135 386t268 130q90 0 146.5 -46t56.5 -122q0 -53 -32 -85.5t-83 -32.5q-45 0 -76.5 25.5t-31.5 62.5 q0 35 30 84l7 14q0 18 -37 18q-156 0 -193 -403l-12 -129h272v-96h-280l-39 -465q-37 -430 -135 -582q-115 -172 -283 -172q-88 0 -148.5 47t-60.5 115z" />
<glyph unicode="&#x1a0;" horiz-adv-x="1593" d="M92 737q0 322 200 547t513 225q150 0 287 -65q37 18 30 47q-27 12 -45 47t-18 59q0 37 30.5 68t71.5 31q49 0 86 -40t37 -91q0 -47 -30.5 -92.5t-82.5 -75.5q154 -100 242 -274.5t88 -383.5q0 -330 -201.5 -550t-502.5 -220q-299 0 -502 220t-203 548zM362 743 q0 -348 109 -512.5t326 -164.5q434 0 434 673.5t-428 673.5q-221 0 -331 -163t-110 -507z" />
<glyph unicode="&#x1a1;" horiz-adv-x="1024" d="M70 475q0 215 129 362.5t317 147.5q111 0 213 -65q39 23 33 49q-27 12 -45.5 47t-18.5 59q0 37 31 68t72 31q49 0 86 -40t37 -92q0 -49 -35 -97t-92 -79q158 -154 157 -389q0 -211 -129 -359.5t-313 -148.5t-313 147.5t-129 358.5zM285 475q0 -203 58 -310.5t169 -107.5 t169 107.5t58 312.5q0 203 -57 311.5t-166 108.5q-231 0 -231 -422z" />
<glyph unicode="&#x1af;" horiz-adv-x="1574" d="M35 1382v97h670v-97h-39q-125 0 -155 -15t-30 -81v-745q0 -143 12.5 -200.5t53.5 -115.5q106 -145 327 -145q123 0 218.5 52t146.5 149q29 53 39 115.5t10 185.5v452q0 211 -45 276.5t-190 71.5v97h346v-49q20 8 39.5 25.5t15.5 35.5q-27 12 -45 47t-18 59q0 37 30.5 68 t71.5 31q49 0 86 -40t37 -91q0 -72 -64.5 -131.5t-152.5 -81.5v-783q0 -315 -146.5 -457.5t-433.5 -142.5q-543 0 -567 443v874q0 66 -29.5 81t-152.5 15h-35z" />
<glyph unicode="&#x1b0;" horiz-adv-x="1251" d="M43 844v88l358 22v-624q0 -143 41 -189.5t133 -46.5q131 0 200 100.5t69 294.5v252q0 66 -15.5 84.5t-72.5 18.5h-105v110h385v-49q20 8 40 25.5t16 36.5q-27 12 -45.5 47t-18.5 59q0 37 31 67.5t71 30.5q49 0 86 -39.5t37 -91.5q0 -72 -64.5 -131t-152.5 -82v-589 q0 -98 22.5 -124t106.5 -26h52v-88h-373v156q-68 -98 -143.5 -142.5t-176.5 -44.5q-315 0 -315 330v442q0 66 -15.5 84.5t-72.5 18.5h-78z" />
<glyph unicode="&#x1dd;" horiz-adv-x="1024" d="M72 494h663q0 188 -76.5 284t-207.5 96q-102 0 -173 -50t-135 -169l-71 39q125 291 417 291q207 0 335 -133t128 -348q0 -229 -131 -382t-327 -153q-188 0 -305 147t-117 378zM291 330q0 -123 56 -198t151 -75q98 0 166.5 95.5t68.5 253.5h-358q-49 0 -66.5 -15.5 t-17.5 -60.5z" />
<glyph unicode="&#x1e6;" horiz-adv-x="1593" d="M86 713q0 207 88 388t254 294.5t373 113.5q113 0 192.5 -30.5t180.5 -110.5l79 125h107v-575h-88q-127 496 -479 495q-213 0 -325 -179t-112 -521q0 -317 114 -482t329 -165q170 0 263 101t93 288q0 84 -28.5 103.5t-157.5 19.5h-39v96h651v-96h-31q-145 0 -172 -29 q-12 -14 -12 -127v-451h-86l-76 185q-100 -100 -198.5 -143.5t-227.5 -43.5q-295 0 -493.5 209t-198.5 535zM414 1886h90l295 -186l297 186h88l-307 -307h-156z" />
<glyph unicode="&#x1e7;" horiz-adv-x="1099" d="M47 -205q0 127 189 195q-137 47 -138 176q0 84 46 133t149 72q-80 37 -126 110.5t-46 163.5q0 154 110.5 247t292.5 93q137 0 254 -78q72 66 110 86.5t87 20.5q59 0 97 -33t38 -86q0 -41 -26.5 -69.5t-65.5 -28.5t-61.5 25.5t-33 52t-18.5 26.5q-23 0 -69 -49 q76 -90 75 -201q0 -211 -192 -297q-51 -23 -99.5 -30t-193.5 -9q-102 -2 -147.5 -23.5t-45.5 -68.5q0 -39 25 -53q37 -18 143 -18h209q186 0 260 -29q57 -23 90 -81t33 -134q0 -324 -514 -324q-207 0 -319.5 55.5t-112.5 155.5zM203 1419h73l246 -207l248 207h74l-256 -340 h-129zM217 -188q0 -70 70.5 -107t199.5 -37q172 0 267.5 48t95.5 137q0 49 -36 80.5t-97 37.5q-31 4 -213 4h-152q-74 -39 -104.5 -75.5t-30.5 -87.5zM307 643q0 -115 55.5 -182.5t151.5 -67.5q98 0 153.5 67.5t55.5 188.5q0 119 -52.5 183.5t-148.5 64.5 q-102 0 -158.5 -66.5t-56.5 -187.5z" />
<glyph unicode="&#x1ea;" horiz-adv-x="1593" d="M92 737q0 322 200 547t513 225q295 0 495.5 -222t200.5 -548q0 -260 -131 -458.5t-346 -272.5l-86 -33q-31 -12 -67.5 -39.5t-49.5 -60.5q-23 -57 -22 -123q0 -104 82 -104q59 0 101 20.5t63.5 41t29.5 20.5q20 0 21 -25q0 -72 -60.5 -130t-183.5 -58q-96 0 -165 62.5 t-69 166.5q0 106 136 225q-283 16 -472.5 234.5t-189.5 531.5zM362 743q0 -348 109 -512.5t326 -164.5q434 0 434 673.5t-428 673.5q-221 0 -331 -163t-110 -507z" />
<glyph unicode="&#x1eb;" horiz-adv-x="1024" d="M70 475q0 215 129 362.5t317 147.5q182 0 310 -148.5t128 -359.5q0 -145 -64.5 -266t-172.5 -186q-133 -76 -162 -150q-23 -57 -23 -123q0 -104 82 -104q59 0 101.5 20.5t64 41t29.5 20.5q20 0 20 -25q0 -72 -60 -130t-183 -58q-96 0 -165 62.5t-69 166.5q0 106 135 223 q-176 10 -296.5 156.5t-120.5 349.5zM285 475q0 -203 58 -310.5t169 -107.5t169 107.5t58 312.5q0 203 -57 311.5t-166 108.5q-231 0 -231 -422z" />
<glyph unicode="&#x1f4;" horiz-adv-x="1593" d="M86 713q0 207 88 388t254 294.5t373 113.5q113 0 192.5 -30.5t180.5 -110.5l79 125h107v-575h-88q-127 496 -479 495q-213 0 -325 -179t-112 -521q0 -317 114 -482t329 -165q170 0 263 101t93 288q0 84 -28.5 103.5t-157.5 19.5h-39v96h651v-96h-31q-145 0 -172 -29 q-12 -14 -12 -127v-451h-86l-76 185q-100 -100 -198.5 -143.5t-227.5 -43.5q-295 0 -493.5 209t-198.5 535zM588 1575l344 258q76 57 123 57q35 0 60.5 -18.5t25.5 -44.5q0 -41 -62 -72l-391 -180h-100z" />
<glyph unicode="&#x1f5;" horiz-adv-x="1099" d="M47 -205q0 127 189 195q-137 47 -138 176q0 84 46 133t149 72q-80 37 -126 110.5t-46 163.5q0 154 110.5 247t292.5 93q137 0 254 -78q72 66 110 86.5t87 20.5q59 0 97 -33t38 -86q0 -41 -26.5 -69.5t-65.5 -28.5t-61.5 25.5t-33 52t-18.5 26.5q-23 0 -69 -49 q76 -90 75 -201q0 -211 -192 -297q-51 -23 -99.5 -30t-193.5 -9q-102 -2 -147.5 -23.5t-45.5 -68.5q0 -39 25 -53q37 -18 143 -18h209q186 0 260 -29q57 -23 90 -81t33 -134q0 -324 -514 -324q-207 0 -319.5 55.5t-112.5 155.5zM217 -188q0 -70 70.5 -107t199.5 -37 q172 0 267.5 48t95.5 137q0 49 -36 80.5t-97 37.5q-31 4 -213 4h-152q-74 -39 -104.5 -75.5t-30.5 -87.5zM307 643q0 -115 55.5 -182.5t151.5 -67.5q98 0 153.5 67.5t55.5 188.5q0 119 -52.5 183.5t-148.5 64.5q-102 0 -158.5 -66.5t-56.5 -187.5zM369 1073l286 287 q63 63 103 63q29 0 50 -21.5t21 -49.5q0 -49 -51 -80l-325 -199h-84z" />
<glyph unicode="&#x1fa;" horiz-adv-x="1478" d="M-16 0v96h28q76 0 113 39t92 178l471 1194h86l522 -1280q37 -88 61.5 -109.5t100.5 -21.5h39v-96h-635v96h86q127 0 127 54q0 14 -16 55l-111 274h-542l-68 -180q-18 -49 -19 -86q0 -117 166 -117h41v-96h-542zM446 590h459l-231 581zM522 2009l344 258q76 57 123 57 q35 0 60.5 -18t25.5 -45q0 -41 -61 -72l-391 -180h-101zM528 1765q0 82 59.5 142.5t143.5 60.5t144.5 -59.5t60.5 -143.5q0 -86 -60.5 -145t-146.5 -59q-82 0 -141.5 60t-59.5 144zM602 1765.5q0 -53.5 38 -92.5t91 -39q55 0 93 38t38 93q0 53 -38 91t-91 38t-92 -37.5 t-39 -91z" />
<glyph unicode="&#x1fb;" horiz-adv-x="1138" d="M90 209q0 152 143.5 236.5t499.5 146.5v80q0 127 -55 176t-166 49q-74 0 -128 -23.5t-54 -56.5q0 -2 22.5 -45t22.5 -65q0 -45 -32 -75t-79 -30q-53 0 -86 35t-33 92q0 111 114 183.5t286 72.5q193 0 287 -69.5t94 -256.5v-411q0 -78 17.5 -110t60.5 -32q4 0 37.5 11.5 t50.5 11.5q20 0 20 -25q0 -45 -59.5 -81.5t-128.5 -36.5q-72 0 -114 33.5t-67 111.5q-137 -162 -356 -162q-135 0 -216 65.5t-81 174.5zM297 238q0 -70 46 -115t116 -45q66 0 130 34.5t103 92.5q27 41 34 76.5t7 128.5v94q-260 -43 -348 -99t-88 -167zM336 1485l344 258 q76 57 123 57q35 0 60.5 -18.5t25.5 -44.5q0 -41 -62 -72l-391 -180h-100zM342 1241q0 82 60.5 142.5t142.5 60.5q84 0 144.5 -59.5t60.5 -143.5q0 -86 -60.5 -145.5t-146.5 -59.5q-82 0 -141.5 60.5t-59.5 144.5zM416 1241q0 -53 38 -92t91 -39q55 0 93 38t38 93 q0 53 -39 91t-90 38q-53 0 -92 -38t-39 -91z" />
<glyph unicode="&#x1fc;" horiz-adv-x="2048" d="M0 0v96q53 10 93 47t89 127l506 910q27 49 27 92q0 63 -33 86.5t-135 23.5h-55v97h1419l28 -525h-88q-31 186 -81 274.5t-139 121t-265 32.5h-49q-84 0 -106.5 -18t-22.5 -84v-467h57q125 0 186.5 65.5t69.5 215.5h96v-672h-96q-4 160 -55 227.5t-209 67.5h-49v-522 q0 -61 31.5 -80t115.5 -19h72q236 0 330 95.5t147 355.5h88l-41 -547h-1196v96h39q125 0 154.5 15.5t29.5 81.5v358h-489l-145 -266q-29 -51 -29 -95q0 -49 31.5 -71.5t109.5 -22.5h41v-96h-477zM528 662h430v665q0 31 -4 39t-16 8q-16 0 -35 -37zM815 1575l344 258 q76 57 123 57q35 0 60.5 -18.5t25.5 -44.5q0 -41 -61 -72l-392 -180h-100z" />
<glyph unicode="&#x1fd;" horiz-adv-x="1630" d="M74 203q0 205 241 297q119 47 375 92v94q0 115 -45 163t-153 48q-72 0 -124.5 -22.5t-52.5 -55.5q0 -12 15 -28q31 -43 30 -84q0 -45 -31.5 -75t-78.5 -30q-55 0 -88 35t-33 92q0 109 112.5 182.5t276.5 73.5q225 0 316 -117q127 117 296 117q201 0 314 -160 q109 -147 108 -327v-37h-665q2 -166 49 -246q84 -135 238 -135q100 0 171.5 51t135.5 168l73 -39q-135 -291 -419 -291q-199 0 -320 109q-12 10 -72 72q-80 -96 -164.5 -138.5t-201.5 -42.5q-137 0 -220 64t-83 170zM281 246q0 -74 43 -122t110 -48q63 0 121.5 30.5 t93.5 81.5q27 41 34 77t7 130v109q-217 -37 -289 -76q-120 -67 -120 -182zM659 1073l287 287q63 63 103 63q29 0 50 -21.5t21 -49.5q0 -49 -51 -80l-326 -199h-84zM889 549h358q49 0 66.5 15.5t17.5 60.5q0 121 -56 195.5t-151 74.5q-145 0 -206 -182q-29 -78 -29 -164z" />
<glyph unicode="&#x1fe;" horiz-adv-x="1593" d="M61 -156l248 336q-102 106 -160.5 256t-58.5 301q0 309 205 540.5t506 231.5q215 0 397 -129l133 181h111l-176 -240q111 -111 173 -262.5t62 -308.5q0 -311 -200.5 -546t-507.5 -235q-229 0 -418 150l-203 -275h-111zM360 723q0 -252 62 -389l688 928q-113 152 -315 151 q-213 0 -324 -175t-111 -515zM469 246q115 -180 330 -180q432 0 432 696q0 266 -72 416zM588 1575l344 258q76 57 123 57q35 0 60.5 -18.5t25.5 -44.5q0 -41 -62 -72l-391 -180h-100z" />
<glyph unicode="&#x1ff;" horiz-adv-x="1024" d="M70 475q0 213 129 361.5t313 148.5q94 0 186 -47l103 199h102l-129 -250q84 -72 132 -183.5t48 -236.5q0 -219 -126 -358.5t-322 -139.5q-106 0 -182 39l-101 -194h-102l125 243q-176 154 -176 418zM285 469q0 -152 39 -260l323 629q-57 59 -133 59q-229 0 -229 -428z M356 1073l287 287q63 63 102 63q29 0 50.5 -21.5t21.5 -49.5q0 -49 -51 -80l-326 -199h-84zM379 117q51 -59 131 -60q229 0 229 439q0 143 -37 249z" />
<glyph unicode="&#x200;" horiz-adv-x="1478" d="M-16 0v96h28q76 0 113 39t92 178l471 1194h86l522 -1280q37 -88 61.5 -109.5t100.5 -21.5h39v-96h-635v96h86q127 0 127 54q0 14 -16 55l-111 274h-542l-68 -180q-18 -49 -19 -86q0 -117 166 -117h41v-96h-542zM401 1886q0 23 16.5 40.5t39.5 17.5q66 0 108 -121l72 -201 l-33 -18l-166 200q-37 45 -37 82zM446 590h459l-231 581zM643 1886q0 23 16.5 40.5t38.5 17.5q66 0 109 -121l72 -201l-33 -18l-166 200q-37 43 -37 82z" />
<glyph unicode="&#x201;" horiz-adv-x="1138" d="M90 209q0 152 143.5 236.5t499.5 146.5v80q0 127 -55 176t-166 49q-74 0 -128 -23.5t-54 -56.5q0 -2 22.5 -45t22.5 -65q0 -45 -32 -75t-79 -30q-53 0 -86 35t-33 92q0 111 114 183.5t286 72.5q193 0 287 -69.5t94 -256.5v-411q0 -78 17.5 -110t60.5 -32q4 0 37.5 11.5 t50.5 11.5q20 0 20 -25q0 -45 -59.5 -81.5t-128.5 -36.5q-72 0 -114 33.5t-67 111.5q-137 -162 -356 -162q-135 0 -216 65.5t-81 174.5zM215 1362q0 23 16.5 40t38.5 17q66 0 109 -121l72 -200l-33 -19l-166 201q-37 45 -37 82zM297 238q0 -70 46 -115t116 -45 q66 0 130 34.5t103 92.5q27 41 34 76.5t7 128.5v94q-260 -43 -348 -99t-88 -167zM457 1362q0 23 16 40t39 17q66 0 109 -121l71 -200l-33 -19l-165 201q-37 43 -37 82z" />
<glyph unicode="&#x204;" horiz-adv-x="1478" d="M59 0v96h37q125 0 155 15.5t30 81.5v1093q0 66 -30 81t-155 15h-37v97h1260v-525h-88q-23 139 -52.5 219t-86 129.5t-135 64.5t-212.5 15h-106q-84 0 -106.5 -18t-22.5 -84v-467h49q145 0 212 65.5t75 215.5h96v-672h-96q-4 160 -60.5 227.5t-234.5 67.5h-41v-522 q0 -61 31.5 -80t115.5 -19h136q233 0 329.5 95.5t145.5 355.5h90l-41 -547h-1258zM410 1886q0 23 16 40.5t39 17.5q66 0 108 -121l72 -201l-33 -18l-166 200q-36 45 -36 82zM651 1886q0 23 16.5 40.5t39.5 17.5q66 0 108 -121l72 -201l-33 -18l-166 200q-37 43 -37 82z" />
<glyph unicode="&#x205;" horiz-adv-x="1024" d="M72 451q0 229 131 381.5t327 152.5q188 0 305 -146.5t117 -377.5h-663q0 -188 76.5 -284.5t207.5 -96.5q102 0 173 50t135 169l71 -39q-125 -291 -417 -291q-207 0 -335 133.5t-128 348.5zM201 1362q0 23 16 40t39 17q66 0 109 -121l71 -200l-33 -19l-165 201 q-37 45 -37 82zM291 549h358q49 0 66.5 15.5t17.5 60.5q0 123 -56 197.5t-151 74.5q-98 0 -166.5 -95t-68.5 -253zM442 1362q0 23 16.5 40t39.5 17q66 0 108 -121l72 -200l-33 -19l-166 201q-37 43 -37 82z" />
<glyph unicode="&#x208;" horiz-adv-x="833" d="M78 0v96h41q125 0 154.5 15.5t29.5 81.5v1093q0 66 -29.5 81t-154.5 15h-41v97h678v-97h-41q-123 0 -153 -15t-30 -81v-1093q0 -66 30 -81.5t153 -15.5h41v-96h-678zM86 1886q0 23 16.5 40.5t38.5 17.5q66 0 109 -121l72 -201l-33 -18l-166 200q-37 45 -37 82zM328 1886 q0 23 16 40.5t39 17.5q66 0 109 -121l71 -201l-33 -18l-165 200q-37 43 -37 82z" />
<glyph unicode="&#x209;" horiz-adv-x="645" d="M-4 1362q0 23 16.5 40t38.5 17q66 0 109 -121l71 -200l-32 -19l-166 201q-37 45 -37 82zM37 844v88l385 22v-784q0 -63 23.5 -79.5t121.5 -16.5h25v-74h-531v74h25q96 0 119.5 16t23.5 80v571q0 66 -15 84.5t-73 18.5h-104zM238 1362q0 23 16 40t39 17q66 0 108 -121 l72 -200l-33 -19l-166 201q-36 43 -36 82z" />
<glyph unicode="&#x20c;" horiz-adv-x="1593" d="M92 737q0 322 200 547t513 225q295 0 495.5 -222t200.5 -548q0 -330 -201.5 -550t-502.5 -220q-299 0 -502 220t-203 548zM362 743q0 -348 109 -512.5t326 -164.5q434 0 434 673.5t-428 673.5q-221 0 -331 -163t-110 -507zM467 1886q0 23 16.5 40.5t38.5 17.5 q66 0 109 -121l71 -201l-32 -18l-166 200q-37 45 -37 82zM709 1886q0 23 16 40.5t39 17.5q66 0 108 -121l72 -201l-33 -18l-166 200q-36 43 -36 82z" />
<glyph unicode="&#x20d;" horiz-adv-x="1024" d="M70 475q0 215 129 362.5t317 147.5q182 0 310 -148.5t128 -359.5t-129 -359.5t-313 -148.5t-313 147.5t-129 358.5zM186 1362q0 23 16.5 40t39.5 17q66 0 108 -121l72 -200l-33 -19l-166 201q-37 45 -37 82zM285 475q0 -203 58 -310.5t169 -107.5t169 107.5t58 312.5 q0 203 -57 311.5t-166 108.5q-231 0 -231 -422zM428 1362q0 23 16.5 40t38.5 17q66 0 109 -121l72 -200l-33 -19l-166 201q-37 43 -37 82z" />
<glyph unicode="&#x210;" horiz-adv-x="1478" d="M53 0v96h37q125 0 154.5 15.5t29.5 81.5v1093q0 66 -29.5 81t-154.5 15h-37v97h709q258 0 399.5 -96.5t141.5 -270.5q0 -305 -437 -367q121 -31 185.5 -102.5t99.5 -212.5l33 -129q27 -109 46 -142.5t56 -33.5q41 0 61.5 48t26.5 155h86q-4 -184 -65.5 -271.5 t-188.5 -87.5q-121 0 -183 77t-79 249l-10 104q-18 176 -93 247t-218 71h-119v-524q0 -66 29.5 -81.5t154.5 -15.5h37v-96h-672zM410 1886q0 23 16 40.5t39 17.5q66 0 108 -121l72 -201l-33 -18l-166 200q-36 45 -36 82zM504 813h225q160 0 241 69.5t81 227.5 q0 139 -72 205.5t-223 66.5h-111q-98 0 -119.5 -10t-21.5 -57v-502zM651 1886q0 23 16.5 40.5t39.5 17.5q66 0 108 -121l72 -201l-33 -18l-166 200q-37 43 -37 82z" />
<glyph unicode="&#x211;" horiz-adv-x="909" d="M43 844v88l363 22v-254q49 135 129.5 210t177.5 75q82 0 130 -45t48 -119q0 -63 -35 -101t-90 -38q-49 0 -81 31.5t-32 81t37 92.5q-131 -16 -205 -189q-80 -182 -79 -426v-102q0 -61 27.5 -78.5t125.5 -17.5h39v-74h-547v74h29q96 0 115.5 15t19.5 81v571 q0 66 -15.5 84.5t-72.5 18.5h-84zM76 1362q0 23 16.5 40t38.5 17q66 0 109 -121l71 -200l-32 -19l-166 201q-37 45 -37 82zM317 1362q0 23 16.5 40t39.5 17q66 0 108 -121l72 -200l-33 -19l-166 201q-37 43 -37 82z" />
<glyph unicode="&#x214;" horiz-adv-x="1669" d="M35 1382v97h670v-97h-39q-125 0 -155 -15t-30 -81v-745q0 -231 88 -346t305 -115q225 0 319.5 132t94.5 370v452q0 211 -45 276.5t-190 71.5v97h583v-97q-147 -6 -192 -71.5t-45 -276.5v-465q0 -315 -146.5 -457.5t-433.5 -142.5q-264 0 -415.5 108.5t-151.5 334.5v874 q0 66 -29.5 81t-152.5 15h-35zM504 1886q0 23 16.5 40.5t38.5 17.5q66 0 109 -121l71 -201l-32 -18l-166 200q-37 45 -37 82zM745 1886q0 23 16.5 40.5t39.5 17.5q66 0 108 -121l72 -201l-33 -18l-166 200q-37 43 -37 82z" />
<glyph unicode="&#x215;" horiz-adv-x="1251" d="M43 844v88l358 22v-624q0 -84 5.5 -114t25.5 -58q41 -63 143 -64q158 0 226 144q43 94 43 251v252q0 66 -15.5 84.5t-72.5 18.5h-105v88l385 22v-716q0 -98 22.5 -124t106.5 -26h52v-88l-373 -14v170q-68 -98 -143.5 -142.5t-176.5 -44.5q-190 0 -276 131q-39 59 -39 199 v442q0 66 -15.5 84.5t-72.5 18.5h-78zM293 1362q0 23 16.5 40t38.5 17q66 0 109 -121l71 -200l-32 -19l-166 201q-37 45 -37 82zM535 1362q0 23 16 40t39 17q66 0 108 -121l72 -200l-33 -19l-166 201q-36 43 -36 82z" />
<glyph unicode="&#x218;" horiz-adv-x="1290" d="M104 567h89q43 -219 159 -350q139 -154 357 -154q154 0 247 82q92 82 92.5 205t-94.5 195q-31 25 -61.5 35t-147.5 41l-194 49q-225 57 -318.5 150t-93.5 261q0 193 124 310.5t325 117.5q225 0 373 -141l81 123h76l25 -533h-88q-41 158 -123 275q-125 178 -342 178 q-131 0 -211 -66.5t-80 -175.5q0 -182 268 -251l219 -56q223 -55 299 -129q123 -119 123 -313q0 -207 -134 -329t-359 -122q-133 0 -230.5 35t-199.5 119l-92 -139h-80zM502 -567q186 117 186 252q0 16 -12 16h-6q-8 -2 -25 -2q-61 0 -96 28.5t-35 79.5q0 47 35 79t86 32 q66 0 108.5 -49t42.5 -127q0 -119 -77 -223q-55 -72 -166 -137z" />
<glyph unicode="&#x219;" horiz-adv-x="948" d="M104 -14v387h82q37 -154 126 -235t218 -81q90 0 147.5 46.5t57.5 117.5q0 61 -48 97t-171 65l-108 25q-156 37 -218 92q-72 66 -71 188q0 133 82 215t217 82q145 0 250 -82l59 74h72v-344h-72q-43 123 -100 180q-84 82 -199 82q-84 0 -137 -40t-53 -101q0 -76 71 -109 q37 -20 150 -45l102 -22q94 -20 136 -37t79 -49q86 -72 86 -207q0 -143 -91 -229.5t-243 -86.5q-156 0 -280 101l-72 -84h-72zM330 -567q186 117 186 252q0 16 -12 16h-6q-8 -2 -25 -2q-61 0 -96 28.5t-35 79.5q0 47 35 79t86 32q66 0 108.5 -49t42.5 -127q0 -119 -77 -223 q-55 -72 -166 -137z" />
<glyph unicode="&#x21a;" horiz-adv-x="1366" d="M39 909l31 570h1226l31 -570h-88q-25 174 -68 281q-39 92 -110.5 142t-165.5 50q-96 0 -96 -73v-1116q0 -66 29.5 -81.5t152.5 -15.5h53v-96h-702v96h53q125 0 154.5 15.5t29.5 81.5v1116q0 74 -96 73q-209 0 -291 -227q-35 -102 -55 -246h-88zM539 -567q186 117 186 252 q0 16 -12 16h-6q-8 -2 -25 -2q-61 0 -96 28.5t-35 79.5q0 47 35 79t86 32q66 0 108.5 -49t42.5 -127q0 -119 -78 -223q-55 -72 -165 -137z" />
<glyph unicode="&#x21b;" horiz-adv-x="796" d="M37 866v80q246 18 276 414h84v-406h301v-88h-301v-559q0 -123 26 -168t95 -45q150 0 160 279h86q2 -20 2 -47q0 -154 -79 -255.5t-224 -101.5q-180 0 -234 133q-25 57 -24 242v522h-168zM319 -567q186 117 187 252q0 16 -12 16h-7q-8 -2 -24 -2q-61 0 -96 28.5t-35 79.5 q0 47 34.5 79t86.5 32q66 0 108.5 -49t42.5 -127q0 -119 -78 -223q-55 -72 -166 -137z" />
<glyph unicode="&#x258;" horiz-adv-x="1024" d="M72 260l71 39q63 -119 134 -169t174 -50q131 0 207.5 96t76.5 285h-663q0 231 116.5 377.5t305.5 146.5q197 0 327.5 -152.5t130.5 -381.5q0 -215 -128 -348.5t-335 -133.5q-292 0 -417 291zM291 625q0 -45 17.5 -60.5t66.5 -15.5h358q0 158 -68.5 253t-166.5 95 q-94 0 -150.5 -74.5t-56.5 -197.5z" />
<glyph unicode="&#x259;" horiz-adv-x="1024" d="M72 494h663q0 188 -76.5 284t-207.5 96q-102 0 -173 -50t-135 -169l-71 39q125 291 417 291q207 0 335 -133t128 -348q0 -229 -131 -382t-327 -153q-188 0 -305 147t-117 378zM291 330q0 -123 56 -198t151 -75q98 0 166.5 95.5t68.5 253.5h-358q-49 0 -66.5 -15.5 t-17.5 -60.5z" />
<glyph unicode="&#x2be;" horiz-adv-x="731" d="M82 1243q47 115 108.5 163t157.5 48q133 0 217 -96t84 -248q0 -162 -91 -264.5t-230 -102.5q-98 0 -164 52.5t-66 126.5q0 49 29 79.5t72 30.5t70.5 -26.5t27.5 -67.5q0 -37 -31 -72q0 -2 -2 -4l-2 -2q0 -25 60 -24q70 0 110.5 70.5t40.5 187.5q0 113 -43 178t-119 65 q-47 0 -80.5 -30.5t-64.5 -98.5q-8 -12 -21 -8l-53 21q-14 6 -10 22z" />
<glyph unicode="&#x2bf;" horiz-adv-x="731" d="M82 1087q0 162 91 264.5t230 102.5q98 0 164 -52t66 -126q0 -49 -29 -80t-72 -31t-70.5 27t-27.5 68q0 35 31 71l3 3q1 1 1 3q0 25 -59 25q-70 0 -111 -70.5t-41 -187.5q0 -113 43 -178.5t119 -65.5q47 0 81 31t64 98q8 12 21 8l53 -20q14 -6 10 -23 q-47 -115 -108.5 -163t-157.5 -48q-133 0 -217 96t-84 248z" />
<glyph unicode="&#x2c6;" d="M20 1079l256 340h130l256 -340h-74l-246 207l-248 -207h-74z" />
<glyph unicode="&#x2c7;" d="M20 1419h74l246 -207l248 207h74l-256 -340h-130z" />
<glyph unicode="&#x2d8;" d="M51 1384v27h74q8 -92 64.5 -143t152.5 -51q94 0 150.5 51t64.5 143h74v-29q0 -125 -83 -208.5t-208 -83.5t-207 83.5t-82 210.5z" />
<glyph unicode="&#x2d9;" d="M240 1249q0 41 30.5 72t71.5 31t71.5 -31t30.5 -72q0 -43 -30.5 -72.5t-73.5 -29.5q-41 0 -70.5 30.5t-29.5 71.5z" />
<glyph unicode="&#x2da;" d="M137 1251q0 84 60.5 143.5t142.5 59.5q84 0 144.5 -59.5t60.5 -143.5q0 -86 -60.5 -145t-146.5 -59q-82 0 -141.5 60t-59.5 144zM211 1251.5q0 -53.5 38 -92.5t91 -39q55 0 93 38t38 93q0 51 -39 90t-90 39q-53 0 -92 -37.5t-39 -91z" />
<glyph unicode="&#x2db;" d="M127 -254q0 72 65.5 151.5t147.5 131.5h117q-51 -27 -100.5 -100.5t-49.5 -176.5q0 -104 82 -104q59 0 101 20.5t63.5 41t30.5 20.5q20 0 20 -25q0 -72 -60.5 -130t-183.5 -58q-96 0 -164.5 62.5t-68.5 166.5z" />
<glyph unicode="&#x2dc;" d="M2 1141q20 96 74.5 151.5t130.5 55.5q55 0 176 -56q88 -39 121 -39q35 0 64.5 30t39.5 75h72q-10 -96 -71.5 -156.5t-149.5 -60.5q-61 0 -183 57q-61 29 -106 29q-74 0 -96 -86h-72z" />
<glyph unicode="&#x2dd;" d="M195 1098l71 200q43 121 109 121q23 0 39 -17.5t16 -39.5q0 -39 -37 -82l-166 -201zM436 1098l72 200q43 121 108 121q23 0 39.5 -17.5t16.5 -39.5q0 -37 -37 -82l-166 -201z" />
<glyph unicode="&#x300;" horiz-adv-x="0" d="M-874 1352q0 29 21.5 50t49.5 21q39 0 103 -63l286 -287h-84l-325 199q-51 31 -51 80z" />
<glyph unicode="&#x301;" horiz-adv-x="0" d="M-723 1073l287 287q63 63 102 63q29 0 50.5 -21.5t21.5 -49.5q0 -49 -51 -80l-326 -199h-84z" />
<glyph unicode="&#x302;" horiz-adv-x="0" d="M-889 1079l256 340h129l256 -340h-74l-245 207l-248 -207h-74z" />
<glyph unicode="&#x303;" horiz-adv-x="0" d="M-907 1141q20 96 74.5 151.5t130.5 55.5q55 0 176 -56q88 -39 120 -39q35 0 65 30t40 75h72q-10 -96 -71.5 -156.5t-150.5 -60.5q-61 0 -182 57q-61 29 -106 29q-74 0 -97 -86h-71z" />
<glyph unicode="&#x304;" horiz-adv-x="0" d="M-889 1194v111h641v-111h-641z" />
<glyph unicode="&#x306;" horiz-adv-x="0" d="M-858 1384v27h74q8 -92 64 -143t153 -51q94 0 150.5 51t64.5 143h73v-29q0 -125 -82.5 -208.5t-207.5 -83.5t-207 83.5t-82 210.5z" />
<glyph unicode="&#x307;" horiz-adv-x="0" d="M-670 1249q0 41 31 72t72 31t71.5 -31t30.5 -72q0 -43 -30.5 -72.5t-73.5 -29.5q-41 0 -71 30.5t-30 71.5z" />
<glyph unicode="&#x308;" horiz-adv-x="0" d="M-874 1249q0 41 30.5 72t71.5 31t71.5 -31t30.5 -72q0 -43 -30.5 -72.5t-73.5 -29.5q-41 0 -70.5 30.5t-29.5 71.5zM-467 1249q0 41 30.5 72t71.5 31t72 -31t31 -72q0 -43 -31 -72.5t-74 -29.5q-41 0 -70.5 30.5t-29.5 71.5z" />
<glyph unicode="&#x309;" horiz-adv-x="0" d="M-772 1309q0 61 59.5 100t153.5 39q88 0 140 -50t52 -108q0 -37 -24.5 -62.5t-102.5 -66.5q-43 -23 -54 -41t-11 -67h-68v63q0 25 17.5 46.5t89.5 78.5h-2q29 25 28.5 51.5t-26 50t-66.5 23.5q-49 0 -65 -12q39 -35 39 -63.5t-21.5 -48t-54.5 -19.5q-37 0 -60.5 24.5 t-23.5 61.5z" />
<glyph unicode="&#x30a;" horiz-adv-x="0" d="M-772 1251q0 84 60.5 143.5t142.5 59.5q84 0 144 -59.5t60 -143.5q0 -86 -60 -145t-146 -59q-82 0 -141.5 60t-59.5 144zM-698 1251.5q0 -53.5 37.5 -92.5t91.5 -39q55 0 93 38t38 93q0 51 -39 90t-90 39q-53 0 -92 -37.5t-39 -91z" />
<glyph unicode="&#x30b;" horiz-adv-x="0" d="M-715 1098l72 200q43 121 108 121q23 0 39.5 -17.5t16.5 -39.5q0 -39 -37 -82l-166 -201zM-473 1098l72 200q43 121 108 121q23 0 39 -17.5t16 -39.5q0 -37 -36 -82l-166 -201z" />
<glyph unicode="&#x30c;" horiz-adv-x="0" d="M-889 1419h74l246 -207l247 207h74l-256 -340h-129z" />
<glyph unicode="&#x30f;" horiz-adv-x="0" d="M-899 1362q0 23 16.5 40t38.5 17q66 0 109 -121l71 -200l-32 -19l-166 201q-37 45 -37 82zM-657 1362q0 23 16 40t39 17q66 0 108 -121l72 -200l-33 -19l-166 201q-36 43 -36 82z" />
<glyph unicode="&#x311;" horiz-adv-x="0" d="M-858 1090v28q0 125 83 209t208 84t206.5 -84t81.5 -211v-26h-73q-8 92 -64.5 143t-152.5 51q-94 0 -150.5 -51t-64.5 -143h-74z" />
<glyph unicode="&#x323;" horiz-adv-x="0" d="M-670 -295q0 41 31 71.5t72 30.5t71.5 -30.5t30.5 -71.5q0 -43 -30.5 -72.5t-73.5 -29.5q-41 0 -71 30.5t-30 71.5z" />
<glyph unicode="&#x326;" horiz-adv-x="0" d="M-713 -567q186 117 187 252q0 16 -13 16h-6q-8 -2 -24 -2q-61 0 -96 28.5t-35 79.5q0 47 34.5 79t85.5 32q66 0 109 -49t43 -127q0 -119 -78 -223q-55 -72 -166 -137z" />
<glyph unicode="&#x32e;" horiz-adv-x="0" d="M-915 -150h88q10 -84 77.5 -130t182 -46t181.5 46.5t77 129.5h90q0 -131 -99.5 -210.5t-251 -79.5t-248.5 79.5t-97 210.5z" />
<glyph unicode="&#x32f;" horiz-adv-x="0" d="M-915 -440q0 131 99 210.5t250.5 79.5t249 -79.5t97.5 -210.5h-88q-10 84 -78 130t-182.5 46t-181 -46t-76.5 -130h-90z" />
<glyph unicode="&#x330;" horiz-adv-x="0" d="M-907 -403q20 96 74.5 151t130.5 55q55 0 176 -55q88 -39 120 -39q35 0 65 30t40 75h72q-10 -96 -71.5 -156.5t-150.5 -60.5q-61 0 -182 57q-61 29 -106 29q-74 0 -97 -86h-71z" />
<glyph unicode="&#x331;" horiz-adv-x="0" d="M-889 -240h641v-110h-641v110z" />
<glyph unicode="&#x332;" horiz-adv-x="0" d="M-889 -240h641v-110h-641v110z" />
<glyph unicode="&#x391;" horiz-adv-x="1478" d="M-16 0v96h28q76 0 113 39t92 178l471 1194h86l522 -1280q37 -88 61.5 -109.5t100.5 -21.5h39v-96h-635v96h86q127 0 127 54q0 14 -16 55l-111 274h-542l-68 -180q-18 -49 -19 -86q0 -117 166 -117h41v-96h-542zM446 590h459l-231 581z" />
<glyph unicode="&#x392;" horiz-adv-x="1478" d="M61 0v96h37q125 0 155 15.5t30 81.5v1093q0 66 -30 81t-155 15h-37v97h736q236 0 366.5 -92.5t130.5 -268.5q0 -129 -84 -220t-247 -126q209 -37 309 -128t100 -243q0 -188 -150.5 -294.5t-416.5 -106.5h-744zM512 225q0 -84 20.5 -106.5t98.5 -22.5h86q219 0 311 67.5 t92 244.5q0 170 -95 239.5t-333 69.5h-180v-492zM512 813h182q197 0 280 63.5t83 215.5q0 150 -76 220t-252 70h-82q-80 0 -107.5 -21.5t-27.5 -80.5v-467z" />
<glyph unicode="&#x393;" horiz-adv-x="1366" d="M59 0v96h37q125 0 155 15.5t30 81.5v1093q0 66 -30 81t-155 15h-37v97h1248v-525h-90q-43 262 -136.5 345t-347.5 83h-94q-84 0 -106.5 -18t-22.5 -84v-1087q0 -66 29.5 -81.5t154.5 -15.5h68v-96h-703z" />
<glyph unicode="&#x394;" horiz-adv-x="1253" d="M12 0l658 1409l575 -1409h-1233zM158 104h823l-387 938z" />
<glyph unicode="&#x395;" horiz-adv-x="1478" d="M59 0v96h37q125 0 155 15.5t30 81.5v1093q0 66 -30 81t-155 15h-37v97h1260v-525h-88q-23 139 -52.5 219t-86 129.5t-135 64.5t-212.5 15h-106q-84 0 -106.5 -18t-22.5 -84v-467h49q145 0 212 65.5t75 215.5h96v-672h-96q-4 160 -60.5 227.5t-234.5 67.5h-41v-522 q0 -61 31.5 -80t115.5 -19h136q233 0 329.5 95.5t145.5 355.5h90l-41 -547h-1258z" />
<glyph unicode="&#x396;" horiz-adv-x="1251" d="M49 0v74l838 1308h-266q-207 0 -289 -82.5t-131 -338.5h-92l41 518h1015v-74l-841 -1309h340q215 0 294 107q84 102 123 366h97l-37 -569h-1092z" />
<glyph unicode="&#x397;" horiz-adv-x="1705" d="M59 0v96h37q125 0 155 15.5t30 81.5v1093q0 66 -30 81t-155 15h-37v97h674v-97h-39q-125 0 -154.5 -15t-29.5 -81v-465h686v465q0 66 -29.5 81t-154.5 15h-29v97h664v-97h-37q-125 0 -155 -15t-30 -81v-1093q0 -66 30 -81.5t155 -15.5h37v-96h-672v96h37 q125 0 154.5 15.5t29.5 81.5v518h-686v-518q0 -66 29.5 -81.5t154.5 -15.5h39v-96h-674z" />
<glyph unicode="&#x398;" horiz-adv-x="1593" d="M92 737q0 322 200 547t513 225q295 0 495.5 -222t200.5 -548q0 -330 -201.5 -550t-502.5 -220q-299 0 -502 220t-203 548zM362 743q0 -115 9.5 -206t38 -182t74.5 -152.5t126 -99t186.5 -37.5t185.5 37.5t126 98t74.5 151.5t38 182.5t10.5 203.5q0 141 -17.5 252 t-61.5 211.5t-132 155.5t-217 55q-133 0 -223.5 -53t-136.5 -152.5t-63.5 -209.5t-17.5 -255zM500 416v637h96v-41q0 -66 1 -95.5t15.5 -46t26.5 -17.5t53 -1h213q68 0 82 21.5t14 142.5v41h97v-637h-97v41q0 119 -14 140.5t-82 21.5h-213q-68 0 -82 -24t-14 -142v-41h-96z " />
<glyph unicode="&#x399;" horiz-adv-x="833" d="M78 0v96h41q125 0 154.5 15.5t29.5 81.5v1093q0 66 -29.5 81t-154.5 15h-41v97h678v-97h-41q-123 0 -153 -15t-30 -81v-1093q0 -66 30 -81.5t153 -15.5h41v-96h-678z" />
<glyph unicode="&#x39a;" horiz-adv-x="1593" d="M61 0v96h37q125 0 155 15.5t30 81.5v1093q0 66 -30 81t-155 15h-37v97h674v-97h-39q-125 0 -154.5 -15t-29.5 -81v-616l502 504q100 100 100 147q0 61 -133 61h-51v97h631v-97q-193 0 -347 -163l-305 -306l496 -714q45 -68 80 -85.5t121 -17.5h39v-96h-701v96h64 q139 0 139 47q0 25 -41 86l-356 523l-238 -240v-319q0 -66 29.5 -81.5t154.5 -15.5h39v-96h-674z" />
<glyph unicode="&#x39b;" horiz-adv-x="1478" d="M-16 0v96h28q76 0 113 39t92 178l471 1194h86l522 -1280q37 -88 61.5 -109.5t100.5 -21.5h39v-96h-635v96h86q127 0 127 54q0 14 -16 55l-385 966l-336 -872q-18 -49 -19 -86q0 -117 166 -117h41v-96h-542z" />
<glyph unicode="&#x39c;" horiz-adv-x="1933" d="M45 0v96q147 6 192.5 71.5t45.5 274.5v844q0 66 -30 81t-155 15h-39v97h529l393 -1092l375 1092h514v-97h-37q-125 0 -154.5 -15t-29.5 -81v-1093q0 -66 29.5 -81.5t154.5 -15.5h37v-96h-672v96h37q125 0 154.5 15.5t29.5 81.5v1155l-456 -1348h-82l-488 1348v-906 q0 -209 45 -274.5t191 -71.5v-96h-584z" />
<glyph unicode="&#x39d;" horiz-adv-x="1669" d="M39 1382v97h422l817 -1088v643q0 211 -45 276.5t-191 71.5v97h584v-97q-147 -6 -192 -71.5t-45 -276.5v-1063h-86l-914 1233v-760q0 -211 45 -276.5t191 -71.5v-96h-584v96q147 6 192.5 71.5t45.5 276.5v871q-27 39 -69 53t-120 14h-51z" />
<glyph unicode="&#x39e;" horiz-adv-x="1572" d="M2 451h53q29 -70 48.5 -103t63.5 -65.5t114.5 -43t187.5 -10.5h637q117 0 187.5 10.5t114.5 43t63.5 65.5t48.5 103h53l-111 -451h-1349zM2 1028l111 451h1349l111 -451h-53q-29 70 -48.5 102.5t-63.5 65.5t-114.5 43t-187.5 10h-637q-117 0 -187.5 -10t-114.5 -43 t-63.5 -65.5t-48.5 -102.5h-53zM332 416v637h96v-41q0 -66 1 -95.5t15.5 -46t26.5 -17.5t53 -1h520q68 0 82.5 21.5t14.5 142.5v41h96v-637h-96v41q0 119 -14.5 140.5t-82.5 21.5h-520q-68 0 -82 -24t-14 -142v-41h-96z" />
<glyph unicode="&#x39f;" horiz-adv-x="1593" d="M92 737q0 322 200 547t513 225q295 0 495.5 -222t200.5 -548q0 -330 -201.5 -550t-502.5 -220q-299 0 -502 220t-203 548zM362 743q0 -348 109 -512.5t326 -164.5q434 0 434 673.5t-428 673.5q-221 0 -331 -163t-110 -507z" />
<glyph unicode="&#x3a0;" horiz-adv-x="1705" d="M59 0v96h37q125 0 155 15.5t30 81.5v1093q0 66 -30 81t-155 15h-37v97h1588v-97h-37q-125 0 -155 -15t-30 -81v-1093q0 -66 30 -81.5t155 -15.5h37v-96h-672v96h37q125 0 154.5 15.5t29.5 81.5v1093q0 66 -29.5 81t-154.5 15h-318q-125 0 -154.5 -15t-29.5 -81v-1093 q0 -66 29.5 -81.5t154.5 -15.5h39v-96h-674z" />
<glyph unicode="&#x3a1;" horiz-adv-x="1366" d="M57 0v96h37q125 0 155 15.5t30 81.5v1093q0 66 -30 81t-155 15h-37v97h717q276 0 415.5 -105.5t139.5 -300.5q0 -121 -59.5 -216t-167.5 -146q-113 -53 -363 -54h-231v-464q0 -66 29.5 -81.5t154.5 -15.5h53v-96h-688zM508 754h248q322 0 321 311q0 162 -76.5 239.5 t-236.5 77.5h-131q-84 0 -104.5 -17t-20.5 -87v-524z" />
<glyph unicode="&#x3a3;" horiz-adv-x="1388" d="M29 0l495 653l-477 826h1215l20 -338h-53q-27 156 -91.5 205t-240.5 49h-537l385 -627l-411 -539h598q178 0 246.5 38t117.5 163h54l-111 -430h-1210z" />
<glyph unicode="&#x3a4;" horiz-adv-x="1366" d="M39 909l31 570h1226l31 -570h-88q-25 174 -68 281q-39 92 -110.5 142t-165.5 50q-96 0 -96 -73v-1116q0 -66 29.5 -81.5t152.5 -15.5h53v-96h-702v96h53q125 0 154.5 15.5t29.5 81.5v1116q0 74 -96 73q-209 0 -291 -227q-35 -102 -55 -246h-88z" />
<glyph unicode="&#x3a5;" horiz-adv-x="1441" d="M43 1110q0 152 62.5 260.5t179.5 108.5q96 0 169.5 -39t122 -112t81 -160t50 -202.5t23.5 -221t6 -232.5h8q0 111 3.5 198t13.5 191.5t27.5 183t50 156.5t77 127t109 80t145.5 31q113 0 170.5 -108.5t57.5 -260.5h-86q0 70 -40 123t-102 53q-66 0 -115.5 -25.5 t-83.5 -62.5t-56.5 -105.5t-34 -123t-17.5 -148.5t-7 -150.5t-1 -158.5v-319q0 -66 28.5 -81.5t153.5 -15.5h54v-96h-703v96h53q125 0 155 15.5t30 81.5v319q0 104 -4.5 185t-15.5 176.5t-34.5 164t-59.5 128t-94.5 90t-133.5 30.5q-66 0 -111 -52t-45 -124h-86z" />
<glyph unicode="&#x3a6;" horiz-adv-x="1454" d="M82 739q0 176 151.5 280.5t380.5 127.5v139q0 66 -29.5 81t-154.5 15h-41v97h678v-97h-41q-123 0 -152.5 -15t-29.5 -81v-139q145 -14 262 -61.5t192.5 -137.5t75.5 -208.5t-75.5 -209t-192.5 -137.5t-262 -61v-139q0 -66 29.5 -81.5t152.5 -15.5h41v-96h-678v96h41 q125 0 154.5 15.5t29.5 81.5v139q-229 23 -380.5 127t-151.5 280zM295 739q0 -121 91 -204.5t228 -110.5v631q-137 -27 -228 -111t-91 -205zM844 424q137 27 227 110.5t90 204.5t-90 205t-227 111v-631z" />
<glyph unicode="&#x3a7;" horiz-adv-x="1441" d="M-12 1382v97h633v-97h-78q-98 0 -99 -26q0 -18 23 -51l272 -394l222 322q29 41 28 70q0 43 -24.5 61t-96.5 18h-49v97h563v-97h-32q-82 0 -139.5 -38.5t-141.5 -153.5l-272 -371l430 -616q53 -76 82.5 -91.5t128.5 -15.5h28v-96h-671v96h57q94 0 115.5 6.5t21.5 30.5 q0 23 -26 64l-306 432l-237 -344q-33 -49 -33 -90q0 -45 36 -72t97 -27h51v-96h-581v96h28q76 -2 129.5 36t118.5 128l332 461l-403 584q-35 51 -66 64t-106 13h-35z" />
<glyph unicode="&#x3a8;" horiz-adv-x="1484" d="M82 1141v86q145 0 238.5 -122t93.5 -288q0 -127 58 -232.5t157 -148.5v850q0 66 -30 81t-155 15h-41v97h678v-97h-41q-123 0 -152.5 -15t-29.5 -81v-850q96 43 154.5 148.5t58.5 232.5q0 166 93 288t239 122v-86q-43 0 -68.5 -27t-36 -83t-12.5 -97t-2 -117 q0 -178 -122 -310t-304 -169v-145q0 -66 30 -81.5t152 -15.5h41v-96h-678v96h41q125 0 155 15.5t30 81.5v145q-184 35 -306 167t-122 312q0 76 -2 117t-12.5 97t-36 83t-68.5 27z" />
<glyph unicode="&#x3a9;" horiz-adv-x="1572" d="M2 430h53q45 -117 143.5 -159t323.5 -42q0 63 -45 126t-109 116l-130 109q-66 55 -111 126.5t-45 149.5q0 309 193.5 481t519.5 172q307 0 501.5 -169t194.5 -482q0 -78 -46 -150.5t-112 -127.5l-131 -110q-66 -54 -112 -115.5t-46 -125.5q236 0 332.5 41t143.5 160h53 l-111 -430h-547v229q0 74 47.5 150t104.5 133t105.5 149.5t48.5 196.5q0 283 -88.5 419t-339.5 136q-135 0 -223.5 -35t-135.5 -110.5t-64.5 -169.5t-17.5 -236q0 -104 48.5 -197.5t104.5 -150.5t103 -133t47 -152v-229h-542z" />
<glyph unicode="&#x3b1;" horiz-adv-x="1583" d="M82 471q0 217 164 365.5t393 148.5q143 0 260 -83t184 -220q92 229 181 317l116 -114q-166 -162 -250 -334q8 -31 13 -66q12 -82 18 -119.5t22.5 -109.5t33 -106.5t44 -64.5t60.5 -30q94 0 94 181h86q0 -109 -48 -188t-132 -79q-213 0 -320 285q-147 -285 -362 -285 q-227 0 -392 144.5t-165 357.5zM295 471q0 -168 97 -292t247 -124q117 0 191.5 87t136.5 237l-15 78q-63 442 -313 442q-150 0 -247 -127t-97 -301z" />
<glyph unicode="&#x3b2;" horiz-adv-x="1187" d="M16 -469q66 246 66 469v954q0 227 144.5 391t357.5 164q176 0 306 -106.5t130 -265.5q0 -115 -86 -202t-217 -126q170 -43 284.5 -147.5t114.5 -251.5q0 -190 -158.5 -315.5t-373.5 -125.5q-170 0 -310 84v-53q0 -254 -57 -469h-201zM274 156q135 -100 310 -101 q135 0 227 104.5t92 250.5q0 113 -79 195.5t-197.5 120.5t-255.5 38v86q178 0 307 74.5t129 212.5q0 117 -62.5 201.5t-160.5 84.5q-147 0 -228.5 -139t-81.5 -330v-798z" />
<glyph unicode="&#x3b3;" horiz-adv-x="1222" d="M82 524q0 190 69.5 325.5t206.5 135.5q100 0 171 -60.5t109 -174t55.5 -237.5t23.5 -290l31 41q229 301 229 690h164q0 -190 -86 -367t-238 -374l-96 -127v-213q0 -90 -2 -138t-13.5 -116t-40 -99.5t-73.5 -31.5q-121 0 -162 132t39 274q16 27 164 221 q-4 145 -16.5 253.5t-40 212t-83 158t-135.5 54.5q-88 0 -139 -80t-51 -189h-86zM500 -277.5q-6 -64.5 18.5 -106.5t73.5 -42q43 0 43 299v100q-86 -113 -92 -123q-37 -63 -43 -127.5z" />
<glyph unicode="&#x3b4;" horiz-adv-x="1054" d="M82 430q0 152 124 247t314 124q-205 205 -205 403q0 125 75 215t188 90q125 0 219 -71.5t102 -184.5l-164 -14q-6 76 -49 130t-108.5 54t-97 -64.5t-31.5 -154.5q0 -43 18 -85t60 -89t70 -74.5t83 -76.5q74 -66 108.5 -102t87 -98.5t75 -122.5t22.5 -126 q0 -190 -130 -325.5t-315 -135.5q-186 0 -316 135.5t-130 325.5zM295 430q0 -154 59.5 -264.5t173.5 -110.5q113 0 172.5 110.5t59.5 264.5q0 143 -156 291q-131 -16 -220 -95t-89 -196z" />
<glyph unicode="&#x3b5;" horiz-adv-x="1079" d="M82 309q0 152 160 217q-117 68 -117 195t125 193.5t299 66.5q211 0 377 -137l-56 -66q-143 117 -321 117q-94 0 -163 -48t-69 -126q0 -106 115 -150q111 12 291 13v-138q-195 0 -311 23q-137 -41 -138 -160q0 -113 100.5 -180.5t235.5 -67.5q94 0 179 45.5t139 122.5 l69 -47q-66 -96 -168 -151.5t-219 -55.5q-217 0 -372.5 86t-155.5 248z" />
<glyph unicode="&#x3b6;" horiz-adv-x="991" d="M82 371q0 297 90 542.5t264 354.5q-84 94 -63 211h168q-16 -90 24 -156q63 14 119 14q180 0 180 -88q0 -86 -180 -86q-94 0 -168 43q-72 -47 -118 -134t-67.5 -210t-28.5 -233.5t-7 -257.5q0 -139 110.5 -233.5t262.5 -94.5q119 0 200.5 -89t81.5 -212q0 -104 -71.5 -179 t-173.5 -75q-123 0 -226 66l47 73q82 -53 179 -53q68 0 113.5 49t45.5 119q0 88 -56 151.5t-140 63.5q-238 0 -412 112t-174 302z" />
<glyph unicode="&#x3b7;" horiz-adv-x="1241" d="M82 717q0 111 38 189.5t118 78.5q76 0 135 -45t92 -121q90 166 262 166q174 0 303 -100.5t129 -253.5q0 -106 -36 -316.5t-36 -314.5q0 -223 66 -469h-201q-57 215 -57 469q0 104 25.5 314t25.5 317q0 109 -61.5 188.5t-157.5 79.5t-159.5 -80t-63.5 -188v-631h-193v631 v76q0 27 -4 68.5t-11 64t-22.5 41t-35.5 18.5q-33 0 -49.5 -31.5t-18.5 -62.5t-2 -88h-86z" />
<glyph unicode="&#x3b8;" horiz-adv-x="1095" d="M82 733q0 150 26.5 284t81 246.5t146.5 179t213 66.5q158 0 266.5 -117.5t153.5 -286.5t45 -372q0 -199 -46 -366.5t-154.5 -282.5t-264.5 -115q-158 0 -266.5 115t-154.5 282.5t-46 366.5zM295 690q0 -78 1 -132t7 -126t16.5 -121t29 -101t45 -83t65.5 -51.5t90 -20.5 q57 0 101 24.5t71 75t44 103.5t24.5 134t9.5 143.5t2 154.5h-506zM295 776h506q0 78 -1 133.5t-7.5 128t-15.5 122.5t-28.5 103.5t-45 86t-65.5 53t-89 20.5q-51 0 -90 -20.5t-65.5 -53t-45 -86t-29 -103.5t-16.5 -122.5t-7 -128t-1 -133.5z" />
<glyph unicode="&#x3b9;" horiz-adv-x="684" d="M164 240v714h192v-714q0 -184 84 -185q27 0 43.5 15.5t22.5 46t8 56.5t2 67h86q0 -111 -41 -191t-121 -80q-115 0 -195.5 79t-80.5 192z" />
<glyph unicode="&#x3ba;" horiz-adv-x="1196" d="M82 0v954h192v-364q76 35 193 172q88 104 172 163.5t184 59.5q78 0 133.5 -56.5t53.5 -133.5l-86 2q2 41 -29 71.5t-72 30.5q-57 0 -114.5 -32.5t-91 -66.5t-85.5 -95q-80 -94 -145 -144q154 -12 259.5 -71.5t105.5 -172.5q0 -57 3 -94t13 -81t33.5 -65.5t62.5 -21.5 q70 0 117 54.5t47 130.5h86q0 -111 -72.5 -191t-177.5 -80q-131 0 -218 103.5t-87 244.5q0 86 -76.5 121t-208.5 41v-479h-192z" />
<glyph unicode="&#x3bb;" horiz-adv-x="1275" d="M82 0l493 961l-55 172q-20 66 -35.5 103.5t-46 75.5t-69.5 38q-41 0 -63.5 -39t-22.5 -94h-86q0 123 42 209.5t130 86.5q43 0 78.5 -29.5t65.5 -91t47.5 -108.5t41.5 -125l248 -788q18 -57 28.5 -86t32 -73t47 -63.5t56.5 -19.5q43 0 68.5 40t25.5 93h86q0 -123 -45 -210 t-135 -87q-45 0 -82 32t-69 98.5t-50 115.5t-45 135l-111 352l-358 -698h-217z" />
<glyph unicode="&#x3bc;" horiz-adv-x="1417" d="M164 -512q31 375 31 752v714h192v-714q0 -80 64.5 -132.5t152.5 -52.5q141 0 223 129q-6 25 -6 56v714h193v-714q0 -76 34.5 -130.5t94.5 -54.5q53 0 79.5 54.5t26.5 130.5h86q0 -109 -52 -190t-140 -81q-178 0 -275 125q-104 -125 -264 -125q-193 0 -307 84 q18 -285 90 -565h-223z" />
<glyph unicode="&#x3bd;" horiz-adv-x="1128" d="M82 721q0 264 137 264q141 0 227 -219l236 -623l76 45q102 59 152.5 170t50.5 244q0 127 -189 262l111 156q164 -117 164 -418q0 -156 -62.5 -287t-183.5 -202l-256 -148l-269 711q-14 41 -2.5 91t2 91t-56.5 41q-35 0 -43 -47t-8 -131h-86z" />
<glyph unicode="&#x3be;" horiz-adv-x="1103" d="M82 233q0 246 285 357q-215 80 -215 268q0 147 93 259t247 169q-72 84 -72 193h164q0 -86 47 -154q72 12 143 12q59 0 92 -2t78 -9t66.5 -26.5t21.5 -50t-21.5 -49t-66.5 -26t-77.5 -9.5t-92.5 -2q-100 0 -184 45q-102 -49 -163.5 -142t-61.5 -208q0 -160 208 -213 q145 23 287 23v-138q-170 0 -278 13q-131 -39 -209 -117t-78 -193q0 -88 53 -155.5t135 -77.5q74 -10 115 -15t111.5 -17.5t112.5 -25t93.5 -32t79 -43t48 -55t20.5 -70.5q0 -104 -43 -179t-123 -75q-96 0 -156 76l66 53q37 -43 90 -43q80 0 80 168q0 31 -35 57.5t-79 43 t-122.5 31.5t-131 22.5t-138.5 17.5q-162 20 -275.5 104t-113.5 215z" />
<glyph unicode="&#x3bf;" horiz-adv-x="1024" d="M70 475q0 215 129 362.5t317 147.5q182 0 310 -148.5t128 -359.5t-129 -359.5t-313 -148.5t-313 147.5t-129 358.5zM285 475q0 -203 58 -310.5t169 -107.5t169 107.5t58 312.5q0 203 -57 311.5t-166 108.5q-231 0 -231 -422z" />
<glyph unicode="&#x3c0;" horiz-adv-x="1445" d="M82 637q0 150 62.5 258.5t177.5 108.5q109 0 327.5 -33t331.5 -31q168 4 322 57l61 -182q-137 -49 -285 -61v-451q0 -102 42 -175t118 -73v-86q-143 0 -247.5 97.5t-104.5 236.5v449q-29 2 -344 41v-340q0 -209 -118 -362.5t-300 -153.5v163q139 0 235.5 104.5 t96.5 248.5v350q-90 8 -135 8q-66 0 -110 -51t-44 -123h-86z" />
<glyph unicode="&#x3c1;" horiz-adv-x="1208" d="M82 471q0 213 153.5 363.5t368.5 150.5t368.5 -150.5t153.5 -363.5q0 -209 -153.5 -355.5t-368.5 -146.5q-141 0 -270 60q12 -100 12 -199q0 -195 -55 -342h-205q68 182 68 342q0 109 -36 322t-36 319zM295 471q0 -115 29 -340q129 -76 280 -76q139 0 224 124t85 292 q0 172 -84 300t-225 128t-225 -128t-84 -300z" />
<glyph unicode="&#x3c2;" horiz-adv-x="1007" d="M82 565q0 186 160.5 303t378.5 117q219 0 305 -76l-107 -123q-131 113 -198 113q-141 0 -244 -97t-103 -237q0 -199 242 -340q121 -70 229 -143q150 -100 150 -209q0 -72 -51 -122t-123 -50q-135 0 -225 100l65 58q66 -72 160 -72q37 0 62.5 24.5t25.5 61.5 q0 29 -19.5 56.5t-38 43t-55.5 39.5q-74 49 -225 140l-112 67q-36 23 -99 70t-95 83t-57.5 88t-25.5 105z" />
<glyph unicode="&#x3c3;" horiz-adv-x="1103" d="M82 475q0 215 129 362.5t317 147.5q20 0 62 -4q145 16 375 127l57 -117q-123 -57 -274 -73q100 -68 159.5 -185t59.5 -256q0 -211 -129 -359.5t-313.5 -148.5t-313.5 147.5t-129 358.5zM297 475q0 -203 58.5 -310.5t169 -107.5t169 107.5t58.5 312.5q0 203 -57.5 311.5 t-166.5 108.5q-231 0 -231 -422z" />
<glyph unicode="&#x3c4;" horiz-adv-x="1210" d="M82 637q0 150 62.5 258.5t177.5 108.5q33 0 284 -66q227 -57 432 53l90 -170q-203 -109 -426 -92v-489q0 -184 82 -185q35 0 53.5 31t21.5 64.5t3 89.5h86q0 -111 -41 -191t-123 -80q-115 0 -194.5 79t-79.5 192v524l-188 47q-66 0 -110 -51t-44 -123h-86z" />
<glyph unicode="&#x3c5;" horiz-adv-x="1171" d="M82 717q0 111 38 189.5t118 78.5q111 0 188.5 -79t77.5 -189q0 -66 -10.5 -199t-10.5 -201q0 -106 53.5 -184t141.5 -78q150 0 238 136.5t88 320.5q0 166 -213 358l127 144q172 -152 172 -502q0 -219 -114 -381t-298 -162q-166 0 -287 99.5t-121 248.5q0 68 20.5 200 t20.5 200q0 57 -2 88t-19.5 62.5t-51.5 31.5q-33 0 -49.5 -31.5t-18.5 -62.5t-2 -88h-86z" />
<glyph unicode="&#x3c6;" horiz-adv-x="1413" d="M82 477q0 152 95 280t247 222l47 -74q-176 -109 -176 -428q0 -154 96 -271.5t244 -144.5q-25 358 -25 451q0 190 98.5 331.5t258.5 141.5q166 0 265 -151.5t99 -356.5q0 -193 -143.5 -328t-356.5 -169l3 -107q0 -225 -80 -385h-217q104 203 104 385l-2 98 q-233 20 -395 160.5t-162 345.5zM803 512q0 -39 22 -438q129 41 211 152.5t82 250.5q0 66 -1 100.5t-5 94t-13 91.5t-25.5 67.5t-43 52t-63.5 16.5q-55 0 -91 -31.5t-50.5 -97t-18.5 -119t-4 -139.5z" />
<glyph unicode="&#x3c7;" horiz-adv-x="1181" d="M82 682q0 127 44 217t136 90q33 0 64.5 -22.5t53 -51t49.5 -83t41 -86l38 -95.5l117 -303q129 160 198.5 303.5t69.5 302.5h192q0 -88 -22.5 -174t-62 -159.5t-91 -149.5t-107.5 -142l-114 -141l150 -383q61 -158 163 -157q45 0 70 42t25 101h86q0 -127 -44 -217 t-137 -90q-37 0 -70.5 19.5t-56 43t-47 69.5t-36.5 75l-35 84l-129 336q-123 -156 -189.5 -296.5t-66.5 -295.5h-193q0 72 15.5 142.5t43 133t64.5 126t80 119.5l89 116l93 114l-137 351q-23 61 -40 97t-51 71.5t-73 35.5q-45 0 -69.5 -42t-24.5 -101h-86z" />
<glyph unicode="&#x3c8;" horiz-adv-x="1325" d="M82 717q0 111 38 189.5t118 78.5q111 0 188.5 -79t77.5 -189q0 -66 -10.5 -199t-10.5 -201q0 -90 60.5 -159.5t150.5 -91.5v411q0 494 -53 1002h193q-53 -508 -54 -1002v-422q164 4 270.5 139.5t106.5 317.5q0 166 -213 358l127 144q172 -152 172 -502q0 -219 -132 -379 t-331 -164v-481h-86v485q-178 18 -301 108.5t-123 235.5q0 68 20.5 200t20.5 200q0 57 -2 88t-19.5 62.5t-51.5 31.5q-33 0 -49.5 -31.5t-18.5 -62.5t-2 -88h-86z" />
<glyph unicode="&#x3c9;" horiz-adv-x="1517" d="M82 483q0 236 258 502l61 -61q-127 -129 -127 -441q0 -428 222 -428q164 0 206 283q-25 125 -24 299h164q0 -90 1 -137t5 -128t16.5 -127t30.5 -95.5t51 -72t76 -22.5q221 0 221 428q0 311 -127 441l62 61q258 -266 258 -502q0 -209 -116 -361.5t-298 -152.5 q-188 0 -274 211q-82 -211 -252 -211q-182 0 -298 152.5t-116 361.5z" />
<glyph unicode="&#x3d1;" horiz-adv-x="1409" d="M82 717q0 111 44 189.5t126 78.5q106 0 179 -79t73 -189q0 -68 -25.5 -200t-25.5 -200q0 -111 82.5 -186.5t197.5 -75.5q63 0 112.5 25.5t79 78t48 109t28 141.5t11.5 149.5t2 158.5l-2 194q-102 0 -176 8.5t-156 29t-136.5 68.5t-80.5 120q-47 137 35 254.5t225 117.5 q184 0 304 -138t169 -361q70 16 102 28l29 -82q-63 -20 -117 -30q16 -90 17 -209q0 -195 -52.5 -361t-168 -276.5t-273.5 -110.5q-199 0 -346 94.5t-147 253.5q0 68 35.5 199t35.5 201q0 43 -1 65.5t-6 54t-18.5 47t-33.5 15.5q-84 0 -84 -182h-86zM545 1165 q37 -102 154.5 -134t306.5 -34q-16 199 -79 312.5t-204 113.5q-100 0 -156.5 -81t-21.5 -177z" />
<glyph unicode="&#x3d5;" horiz-adv-x="1048" d="M82 475.5q0 196.5 109.5 338.5t277.5 167l-27 498h164l-26 -498q164 -23 275.5 -166t111.5 -338q0 -197 -114 -341t-284 -165v-483h-90v483q-170 20 -283.5 164t-113.5 340.5zM297 475q0 -371 182 -414v416l-6 414q-176 -49 -176 -416zM569 61q182 43 183 416 q0 367 -177 414l-6 -414v-416z" />
<glyph unicode="&#x3d6;" horiz-adv-x="1517" d="M82 483q0 236 258 502l61 -61q-127 -129 -127 -441q0 -428 222 -428q164 0 206 283q-25 125 -24 299h164q0 -90 1 -137t5 -128t16.5 -127t30.5 -95.5t51 -72t76 -22.5q221 0 221 428q0 141 -22.5 266t-68.5 234t-130 171.5t-195 62.5q-260 0 -512 -43l-14 86 q262 43 526 43q184 0 325.5 -118t212.5 -303.5t71 -398.5q0 -209 -116 -361.5t-298 -152.5q-188 0 -274 211q-82 -211 -252 -211q-182 0 -298 152.5t-116 361.5z" />
<glyph unicode="&#x3f5;" horiz-adv-x="1054" d="M82 506q0 150 101.5 261.5t256 164.5t334.5 53h137v-86h-137q-188 0 -329.5 -106.5t-149.5 -270.5q55 -4 129 15.5t130 39t130 25.5t125 -22l-70 -148q-61 29 -136 29t-164 -12.5t-140 -10.5q18 -162 109.5 -272.5t230.5 -110.5q94 0 211 133l123 -108 q-98 -111 -334 -111q-229 0 -393 156t-164 381z" />
<glyph unicode="&#x400;" horiz-adv-x="1478" d="M59 0v96h37q125 0 155 15.5t30 81.5v1093q0 66 -30 81t-155 15h-37v97h1231l29 -525h-88q-45 272 -148 353q-51 43 -125.5 59t-212.5 16h-106q-84 0 -106.5 -18t-22.5 -84v-467h49q145 0 212 65.5t75 215.5h96v-672h-96q-6 168 -78 240q-31 33 -77 44t-140 11h-41v-522 q0 -53 16 -68q31 -31 131 -31h136q258 0 352 121q80 96 123 330h90l-41 -547h-1258zM256 1911q0 31 20.5 51t51.5 20q39 0 102 -63l287 -287h-84l-326 199q-51 35 -51 80z" />
<glyph unicode="&#x401;" horiz-adv-x="1478" d="M59 0v96h37q125 0 155 15.5t30 81.5v1093q0 66 -30 81t-155 15h-37v97h1231l29 -525h-88q-45 272 -148 353q-51 43 -125.5 59t-212.5 16h-106q-84 0 -106.5 -18t-22.5 -84v-467h49q145 0 212 65.5t75 215.5h96v-672h-96q-6 168 -78 240q-31 33 -77 44t-140 11h-41v-522 q0 -53 16 -68q31 -31 131 -31h136q258 0 352 121q80 96 123 330h90l-41 -547h-1258zM430 1745q0 41 31 71.5t71.5 30.5t71.5 -30.5t31 -71.5q0 -43 -31 -73t-74 -30q-41 0 -70.5 31t-29.5 72zM838 1745q0 41 30.5 71.5t71.5 30.5t71.5 -30.5t30.5 -71.5q0 -43 -30.5 -73 t-73.5 -30q-41 0 -70.5 31t-29.5 72z" />
<glyph unicode="&#x402;" horiz-adv-x="1755" d="M47 1024l25 455h1224l25 -455h-88q-18 137 -62 213q-35 61 -110.5 103t-165.5 42q-96 0 -96 -73v-504q86 66 117.5 87t92 42.5t132.5 21.5q209 0 343 -93t134 -224v-446q0 -121 -59.5 -216.5t-167.5 -146.5q-113 -53 -324 -53v104q322 0 322 312v421q0 68 -70 140.5 t-168 72.5q-109 0 -169 -29.5t-183 -127.5v-477q0 -66 29.5 -81.5t152.5 -15.5h33v-96h-662v96h33q125 0 154.5 15.5t29.5 81.5v1116q0 74 -96 73q-90 0 -166 -42t-110 -103q-43 -76 -62 -213h-88z" />
<glyph unicode="&#x403;" horiz-adv-x="1366" d="M59 0v96h37q125 0 155 15.5t30 81.5v1093q0 66 -30 81t-155 15h-37v97h1219l29 -525h-90q-43 262 -136.5 345t-347.5 83h-94q-84 0 -106.5 -18t-22.5 -84v-1087q0 -66 29.5 -81.5t154.5 -15.5h68v-96h-703zM627 1632l286 287q63 63 103 63q29 0 50 -21.5t21 -49.5 q0 -45 -51 -80l-325 -199h-84z" />
<glyph unicode="&#x404;" horiz-adv-x="1478" d="M92 725q0 309 193 539q207 246 501 245q111 0 172.5 -19.5t165.5 -94.5l82 121h78l31 -592h-90q-63 213 -117 305q-109 184 -324 184q-98 0 -186 -50t-135 -136q-88 -156 -101 -414h588v-96h-588q0 -330 110 -490.5t337 -160.5q254 0 381 213q53 88 82 243l96 -16 q-35 -258 -186.5 -397.5t-397.5 -139.5q-303 0 -497.5 213t-194.5 543z" />
<glyph unicode="&#x405;" horiz-adv-x="1290" d="M104 567h89q43 -219 159 -350q139 -154 357 -154q154 0 247 82q92 82 92.5 205t-94.5 195q-31 25 -61.5 35t-147.5 41l-194 49q-225 57 -318.5 150t-93.5 261q0 193 124 310.5t325 117.5q225 0 373 -141l81 123h76l25 -533h-88q-41 158 -123 275q-125 178 -342 178 q-131 0 -211 -66.5t-80 -175.5q0 -182 268 -251l219 -56q223 -55 299 -129q123 -119 123 -313q0 -207 -134 -329t-359 -122q-133 0 -230.5 35t-199.5 119l-92 -139h-80z" />
<glyph unicode="&#x406;" horiz-adv-x="833" d="M78 0v96h41q125 0 154.5 15.5t29.5 81.5v1093q0 66 -29.5 81t-154.5 15h-41v97h678v-97h-41q-123 0 -153 -15t-30 -81v-1093q0 -66 30 -81.5t153 -15.5h41v-96h-678z" />
<glyph unicode="&#x407;" horiz-adv-x="833" d="M78 0v96h41q125 0 154.5 15.5t29.5 81.5v1093q0 66 -29.5 81t-154.5 15h-41v97h678v-97h-41q-123 0 -153 -15t-30 -81v-1093q0 -66 30 -81.5t153 -15.5h41v-96h-678zM111 1745q0 41 30.5 71.5t71.5 30.5t71.5 -30.5t30.5 -71.5q0 -43 -30.5 -73t-73.5 -30q-41 0 -70.5 31 t-29.5 72zM518 1745q0 41 31 71.5t72 30.5t71.5 -30.5t30.5 -71.5q0 -43 -30.5 -73t-74.5 -30q-41 0 -70.5 31t-29.5 72z" />
<glyph unicode="&#x408;" horiz-adv-x="1138" d="M10 317q0 109 57.5 179.5t147.5 70.5q68 0 111 -41t43 -106q0 -63 -37 -105.5t-92 -42.5q-33 0 -76 11h-6q-25 0 -25 -33q0 -45 39 -94q70 -90 209 -90q182 0 242 178q27 80 26 323v719q0 66 -29.5 81t-152.5 15h-39v97h672v-97h-39q-125 0 -154.5 -15t-29.5 -81v-737 q0 -289 -76 -406q-109 -174 -383 -174q-188 0 -289 88q-119 98 -119 260z" />
<glyph unicode="&#x409;" horiz-adv-x="2344" d="M10 264q0 203 191 203q66 0 101.5 -39t35.5 -104q0 -51 -15.5 -77t-34 -31t-33.5 -20.5t-15 -48.5q0 -23 17 -42t46 -19q84 0 130 39t79 119q37 92 60.5 178t31.5 188.5t9 161.5t-1 197.5t-2 197.5q0 215 -184 215h-37v97h1290v-97h-53q-121 0 -144.5 -14t-23.5 -82v-465 h232q250 0 362 -53q109 -51 168 -146.5t59 -215.5q0 -238 -206 -343q-123 -63 -349 -63h-716v96h36q125 0 155 15.5t30 81.5v1036q0 135 -156 141l-137 -2q-102 2 -136 -77t-34 -283v-141q0 -46 -4 -147.5t-11.5 -158.5t-23.5 -147t-37.5 -143.5t-57.5 -118t-80 -99.5 t-106.5 -59.5t-138.5 -24.5q-297 0 -297 295zM1458 201q0 -70 20.5 -87.5t104.5 -17.5h131q160 0 237 78t77 240q0 311 -322 311h-248v-524z" />
<glyph unicode="&#x40a;" horiz-adv-x="2353" d="M59 0v96h37q125 0 155 15.5t30 81.5v1093q0 66 -30 81t-155 15h-37v97h674v-97h-39q-125 0 -154.5 -15t-29.5 -81v-465h686v465q0 66 -29.5 81t-154.5 15h-29v97h664v-97h-37q-125 0 -155 -15t-30 -81v-465h232q250 0 362 -53q109 -51 168.5 -146.5t59.5 -215.5 q0 -238 -207 -343q-123 -63 -348 -63h-717v96h37q125 0 154.5 15.5t29.5 81.5v518h-686v-518q0 -66 29.5 -81.5t154.5 -15.5h39v-96h-674zM1425 201q0 -70 20.5 -87.5t104.5 -17.5h131q160 0 237 78t77 240q0 311 -322 311h-248v-524z" />
<glyph unicode="&#x40b;" horiz-adv-x="1898" d="M47 1024l25 455h1224l25 -455h-88q-18 137 -62 213q-35 61 -110.5 103t-165.5 42q-96 0 -96 -73v-504q86 66 117.5 87t92 42.5t132.5 21.5q209 0 343 -93t134 -224v-446q0 -66 29.5 -81.5t154.5 -15.5h37v-96h-674v96h39q125 0 155 15.5t30 81.5v421q0 68 -70 140.5 t-168 72.5q-109 0 -169 -29.5t-183 -127.5v-477q0 -66 29.5 -81.5t152.5 -15.5h53v-96h-702v96h53q125 0 154.5 15.5t29.5 81.5v1116q0 74 -96 73q-90 0 -166 -42t-110 -103q-43 -76 -62 -213h-88z" />
<glyph unicode="&#x40c;" horiz-adv-x="1546" d="M61 0v96h37q125 0 155 15.5t30 81.5v1093q0 66 -30 81t-155 15h-37v97h674v-97h-39q-125 0 -154.5 -15t-29.5 -81v-489q254 0 356.5 84t102.5 303q0 324 258 323q109 0 173 -59t64 -152q0 -55 -36.5 -95t-96.5 -40q-51 0 -90 31t-39 78q0 49 24.5 72.5t24.5 31.5 q0 27 -41 27q-29 0 -75.5 -68.5t-46.5 -154.5q0 -201 -41 -298.5t-140 -134.5q152 -20 235 -140t83 -304q0 -63 8 -102t26.5 -53.5t31 -17.5t36.5 -3q41 0 61.5 48t26.5 155h86q-4 -184 -65.5 -271.5t-188.5 -87.5q-129 0 -203.5 79t-74.5 247q0 223 -98.5 305t-360.5 84 v-491q0 -66 29.5 -81.5t154.5 -15.5h39v-96h-674zM774 1638l287 287q66 63 102 64q31 0 52.5 -21.5t21.5 -50.5q0 -47 -53 -80l-324 -199h-86z" />
<glyph unicode="&#x40d;" horiz-adv-x="1705" d="M59 0v96h37q125 0 155 15.5t30 81.5v1093q0 66 -30 81t-155 15h-37v97h674v-97h-39q-127 0 -156.5 -14t-29.5 -82v-848l688 688v160q0 66 -29.5 81t-154.5 15h-29v97h664v-97h-37q-125 0 -155 -15t-30 -81v-1093q0 -66 30 -81.5t155 -15.5h37v-96h-672v96h37 q125 0 154.5 15.5t29.5 81.5v784l-688 -690v-94q0 -63 30.5 -80t155.5 -17h39v-96h-674zM434 1911q0 31 20.5 51t51.5 20q39 0 102 -63l287 -287h-84l-326 199q-51 35 -51 80z" />
<glyph unicode="&#x40e;" horiz-adv-x="1484" d="M-12 1382v97h633v-97h-78q-98 0 -99 -26q0 -10 23 -51l332 -654l282 582q29 61 29 70q0 80 -141 79h-29v97h563v-97h-33q-82 0 -159.5 -51t-120.5 -141l-496 -995q-23 -45 -36 -65.5t-49 -58.5t-91 -54.5t-133 -16.5q-256 0 -256 223q0 55 41 89t100 34q45 0 77 -25.5 t32 -66.5q0 -39 -13.5 -63.5t-27.5 -31.5t-27.5 -16.5t-13.5 -21.5q0 -25 88 -25q74 0 119 42t88 122l90 174l-487 871q-29 51 -61 64t-111 13h-35zM455 1927v27h73q10 -92 66.5 -143.5t151 -51.5t150.5 51.5t67 143.5h73v-29q0 -125 -84 -209t-207 -84q-125 0 -207.5 84 t-82.5 211z" />
<glyph unicode="&#x40f;" horiz-adv-x="1705" d="M59 0v96h37q125 0 155 15.5t30 81.5v1093q0 66 -30 81t-155 15h-37v97h672v-97h-37q-125 0 -154.5 -15t-29.5 -81v-1175h686v1175q0 66 -29.5 81t-154.5 15h-39v97h674v-97h-37q-125 0 -155 -15t-30 -81v-1093q0 -66 30 -81.5t155 -15.5h37v-96h-689v-319h-213v319h-686z " />
<glyph unicode="&#x410;" horiz-adv-x="1478" d="M-16 0v96h8q92 0 145 64q35 37 80 153l471 1194h86l522 -1280q35 -86 65 -108.5t107 -22.5h29v-96h-635v96h86q127 0 127 54q0 14 -16 55l-111 274h-542l-68 -180q-18 -49 -19 -86q0 -117 166 -117h41v-96h-542zM446 590h459l-231 581z" />
<glyph unicode="&#x411;" horiz-adv-x="1478" d="M61 0v96h37q125 0 155 15.5t30 81.5v1093q0 66 -30 81t-155 15h-37v97h1217l29 -525h-90q-43 264 -132.5 346t-336.5 82h-101q-80 0 -107.5 -21.5t-27.5 -80.5v-467h182q117 0 194 -3t95 -5l21 -2q199 -35 283.5 -137.5t84.5 -264.5q0 -188 -150.5 -294.5t-416.5 -106.5 h-744zM512 225q0 -84 20.5 -106.5t98.5 -22.5h86q186 0 278 47q125 61 125 265q0 201 -147 270q-90 39 -281 39h-180v-492z" />
<glyph unicode="&#x412;" horiz-adv-x="1478" d="M61 0v96h37q125 0 155 15.5t30 81.5v1093q0 66 -30 81t-155 15h-37v97h736q186 0 297 -49q88 -39 144 -126t56 -186q0 -168 -137 -268q-68 -51 -194 -78q209 -37 309 -128t100 -243q0 -188 -150.5 -294.5t-416.5 -106.5h-744zM512 225q0 -84 20.5 -106.5t98.5 -22.5h86 q186 0 278 47q125 61 125 265q0 201 -147 270q-90 39 -281 39h-180v-492zM512 813h182q197 0 280 63.5t83 215.5q0 178 -113 247q-66 43 -215 43h-82q-80 0 -107.5 -21.5t-27.5 -80.5v-467z" />
<glyph unicode="&#x413;" horiz-adv-x="1366" d="M59 0v96h37q125 0 155 15.5t30 81.5v1093q0 66 -30 81t-155 15h-37v97h1219l29 -525h-90q-43 262 -136.5 345t-347.5 83h-94q-84 0 -106.5 -18t-22.5 -84v-1087q0 -66 29.5 -81.5t154.5 -15.5h68v-96h-703z" />
<glyph unicode="&#x414;" horiz-adv-x="1855" d="M51 -389l19 487h299q117 84 161.5 304.5t44.5 713.5v60q0 207 -182 206h-37v97h1291v-97h-37q-121 0 -153 -24.5t-32 -102.5v-1062q0 -66 16.5 -80.5t88.5 -16.5q106 0 123.5 1t124.5 1l18 -487h-90q-14 90 -30.5 150.5t-43 105.5t-56.5 69.5t-83 40t-110.5 19.5 t-149.5 4h-619q-92 0 -149 -4t-110.5 -19.5t-83 -40t-56.5 -69.5t-43 -105.5t-31 -150.5h-90zM547 111h649v1089q0 80 -36 125t-148 45h-43q-127 0 -178.5 -40t-51.5 -146v-60q0 -461 -41.5 -694t-150.5 -319z" />
<glyph unicode="&#x415;" horiz-adv-x="1478" d="M59 0v96h37q125 0 155 15.5t30 81.5v1093q0 66 -30 81t-155 15h-37v97h1231l29 -525h-88q-45 272 -148 353q-51 43 -125.5 59t-212.5 16h-106q-84 0 -106.5 -18t-22.5 -84v-467h49q145 0 212 65.5t75 215.5h96v-672h-96q-6 168 -78 240q-31 33 -77 44t-140 11h-41v-522 q0 -53 16 -68q31 -31 131 -31h136q258 0 352 121q80 96 123 330h90l-41 -547h-1258z" />
<glyph unicode="&#x416;" horiz-adv-x="2121" d="M10 328h86q6 -106 26.5 -154.5t61.5 -48.5q25 0 37 3t30.5 17.5t27 53.5t8.5 102q0 184 83 304t234 140q-96 37 -138 139.5t-42 293.5q0 86 -48 154.5t-75 68.5q-18 0 -31.5 -8.5t-13.5 -16.5q0 -10 13.5 -18t26.5 -28.5t13 -59.5q0 -47 -39 -78t-90 -31q-57 0 -95 40 t-38 95q0 92 64.5 151.5t173.5 59.5q127 0 192.5 -74.5t65.5 -248.5q0 -229 73.5 -309t313.5 -78v489q0 66 -30 81t-155 15h-36v97h673v-97h-39q-125 0 -154.5 -15t-29.5 -81v-489q240 -2 313.5 77.5t73.5 309.5q0 324 258 323q109 0 173.5 -59t64.5 -152q0 -55 -37 -95 t-96 -40q-51 0 -90 31t-39 78q0 31 8 49t18.5 24.5t18.5 14.5t8 18q0 8 -13.5 16.5t-31.5 8.5q-29 0 -76 -67.5t-47 -155.5q0 -195 -41 -295.5t-139 -137.5q152 -20 234.5 -140t82.5 -304q0 -63 8.5 -102t26.5 -53.5t30.5 -17.5t37.5 -3q41 0 61.5 48t26.5 155h86 q-4 -184 -65.5 -271.5t-188.5 -87.5q-274 0 -275 326q0 121 -12 186.5t-53 115.5t-118 68.5t-208 18.5v-491q0 -66 30 -81.5t154 -15.5h39v-96h-673v96h36q125 0 155 15.5t30 81.5v491q-131 0 -208 -19.5t-118 -69.5t-53 -115.5t-12 -184.5q0 -326 -275 -326 q-127 0 -188.5 87.5t-65.5 271.5z" />
<glyph unicode="&#x417;" horiz-adv-x="1245" d="M10 463q0 61 37 98t107 37q66 0 104.5 -33t38.5 -94q0 -82 -66 -115q-23 -12 -29.5 -15t-15 -13.5t-8.5 -22.5q0 -57 121 -139t262 -82q139 0 238.5 94t99.5 232q0 139 -94 229t-195 92h-200v109h200q129 0 192.5 91t63.5 224q0 121 -95 186.5t-191 65.5q-106 0 -172 -40 t-132 -134q-82 -117 -122 -275h-88l24 533h76l82 -123q147 141 334 141q211 0 352 -104.5t141 -288.5q0 -100 -65.5 -204.5t-149.5 -125.5q152 0 215.5 -104t63.5 -262q0 -201 -169 -327t-403 -126q-225 0 -391 134.5t-166 361.5z" />
<glyph unicode="&#x418;" horiz-adv-x="1705" d="M59 0v96h37q125 0 155 15.5t30 81.5v1093q0 66 -30 81t-155 15h-37v97h674v-97h-39q-127 0 -156.5 -14t-29.5 -82v-848l688 688v160q0 66 -29.5 81t-154.5 15h-29v97h664v-97h-37q-125 0 -155 -15t-30 -81v-1093q0 -66 30 -81.5t155 -15.5h37v-96h-672v96h37 q125 0 154.5 15.5t29.5 81.5v784l-688 -690v-94q0 -63 30.5 -80t155.5 -17h39v-96h-674z" />
<glyph unicode="&#x419;" horiz-adv-x="1705" d="M59 0v96h37q125 0 155 15.5t30 81.5v1093q0 66 -30 81t-155 15h-37v97h674v-97h-39q-127 0 -156.5 -14t-29.5 -82v-848l688 688v160q0 66 -29.5 81t-154.5 15h-29v97h664v-97h-37q-125 0 -155 -15t-30 -81v-1093q0 -66 30 -81.5t155 -15.5h37v-96h-672v96h37 q125 0 154.5 15.5t29.5 81.5v784l-688 -690v-94q0 -63 30.5 -80t155.5 -17h39v-96h-674zM563 1845v27h74q8 -92 64.5 -143.5t152.5 -51.5q94 0 150.5 51.5t64.5 143.5h74v-29q0 -125 -83 -209t-208 -84t-207 84t-82 211z" />
<glyph unicode="&#x41a;" horiz-adv-x="1546" d="M61 0v96h37q125 0 155 15.5t30 81.5v1093q0 66 -30 81t-155 15h-37v97h674v-97h-39q-125 0 -154.5 -15t-29.5 -81v-489q254 0 356.5 84t102.5 303q0 324 258 323q109 0 173 -59t64 -152q0 -55 -36.5 -95t-96.5 -40q-51 0 -90 31t-39 78q0 49 24.5 72.5t24.5 31.5 q0 27 -41 27q-29 0 -75.5 -68.5t-46.5 -154.5q0 -201 -41 -298.5t-140 -134.5q152 -20 235 -140t83 -304q0 -63 8 -102t26.5 -53.5t31 -17.5t36.5 -3q41 0 61.5 48t26.5 155h86q-4 -184 -65.5 -271.5t-188.5 -87.5q-129 0 -203.5 79t-74.5 247q0 223 -98.5 305t-360.5 84 v-491q0 -66 29.5 -81.5t154.5 -15.5h39v-96h-674z" />
<glyph unicode="&#x41b;" horiz-adv-x="1738" d="M10 264q0 203 191 203q66 0 101.5 -39t35.5 -104q0 -51 -15.5 -77t-34 -31t-33.5 -20.5t-15 -48.5q0 -23 17 -42t46 -19q84 0 130 39t79 119q37 92 60.5 178t31.5 188.5t9 161.5t-1 197.5t-2 197.5q0 215 -184 215h-37v97h1290v-97h-37q-117 0 -150.5 -26.5t-33.5 -95.5 v-1067q0 -66 30 -81.5t154 -15.5h37v-96h-671v96h36q125 0 155 15.5t30 81.5v1036q0 135 -156 141l-137 -2q-102 2 -136 -77t-34 -283v-141q0 -46 -4 -147.5t-11.5 -158.5t-23.5 -147t-37.5 -143.5t-57.5 -118t-80 -99.5t-106.5 -59.5t-138.5 -24.5q-297 0 -297 295z" />
<glyph unicode="&#x41c;" horiz-adv-x="1943" d="M59 0v96q147 6 192.5 71.5t45.5 274.5v844q0 66 -29.5 81t-154.5 15h-39v97h528l393 -1092l375 1092h514v-97h-37q-125 0 -154.5 -15t-29.5 -81v-1093q0 -66 29.5 -81.5t154.5 -15.5h37v-96h-672v96h37q125 0 155 15.5t30 81.5v1155l-457 -1348h-82l-487 1348v-906 q0 -209 45 -274.5t190 -71.5v-96h-584z" />
<glyph unicode="&#x41d;" horiz-adv-x="1705" d="M59 0v96h37q125 0 155 15.5t30 81.5v1093q0 66 -30 81t-155 15h-37v97h674v-97h-39q-125 0 -154.5 -15t-29.5 -81v-465h686v465q0 66 -29.5 81t-154.5 15h-29v97h664v-97h-37q-125 0 -155 -15t-30 -81v-1093q0 -66 30 -81.5t155 -15.5h37v-96h-672v96h37 q125 0 154.5 15.5t29.5 81.5v518h-686v-518q0 -66 29.5 -81.5t154.5 -15.5h39v-96h-674z" />
<glyph unicode="&#x41e;" horiz-adv-x="1593" d="M92 737q0 174 65.5 333t184.5 267q186 172 463 172q295 0 495.5 -222t200.5 -548q0 -330 -201.5 -550t-502.5 -220q-299 0 -502 220t-203 548zM362 743q0 -190 23 -298.5t80 -202.5q113 -176 332 -176t331 176q57 92 80 201.5t23 296t-22.5 297t-80.5 200.5 q-115 176 -325 176q-225 0 -338 -176q-57 -92 -80 -201t-23 -293z" />
<glyph unicode="&#x41f;" horiz-adv-x="1705" d="M59 0v96h37q125 0 155 15.5t30 81.5v1093q0 66 -30 81t-155 15h-37v97h1588v-97h-37q-125 0 -155 -15t-30 -81v-1093q0 -66 30 -81.5t155 -15.5h37v-96h-672v96h37q125 0 154.5 15.5t29.5 81.5v1175h-686v-1175q0 -66 29.5 -81.5t154.5 -15.5h39v-96h-674z" />
<glyph unicode="&#x420;" horiz-adv-x="1366" d="M57 0v96h37q125 0 155 15.5t30 81.5v1093q0 66 -30 81t-155 15h-37v97h717q225 0 348 -64q207 -104 207 -342q0 -121 -59.5 -216t-167.5 -146q-113 -53 -363 -54h-231v-464q0 -66 29.5 -81.5t154.5 -15.5h53v-96h-688zM508 754h248q322 0 321 311q0 162 -76.5 239.5 t-236.5 77.5h-131q-84 0 -104.5 -17t-20.5 -87v-524z" />
<glyph unicode="&#x421;" horiz-adv-x="1478" d="M92 725q0 309 193 539q207 246 501 245q102 0 178 -28.5t185 -108.5l82 121h78l30 -592h-90q-63 213 -116 305q-59 98 -150.5 152.5t-198.5 54.5q-98 0 -186 -50t-135 -136q-100 -176 -101 -510q0 -330 110 -490.5t337 -160.5q254 0 381 213q53 88 82 243l96 -16 q-35 -258 -186.5 -397.5t-397.5 -139.5q-303 0 -497.5 213t-194.5 543z" />
<glyph unicode="&#x422;" horiz-adv-x="1366" d="M39 909l31 570h1226l31 -570h-88q-25 174 -68 281q-39 92 -110.5 142t-165.5 50q-96 0 -96 -73v-1116q0 -66 29.5 -81.5t152.5 -15.5h53v-96h-702v96h53q125 0 154.5 15.5t29.5 81.5v1116q0 74 -96 73q-209 0 -291 -227q-35 -102 -55 -246h-88z" />
<glyph unicode="&#x423;" horiz-adv-x="1484" d="M-12 1382v97h633v-97h-78q-98 0 -99 -26q0 -10 23 -51l332 -654l282 582q29 61 29 70q0 80 -141 79h-29v97h563v-97h-33q-82 0 -159.5 -51t-120.5 -141l-496 -995q-23 -45 -36 -65.5t-49 -58.5t-91 -54.5t-133 -16.5q-256 0 -256 223q0 55 41 89t100 34q45 0 77 -25.5 t32 -66.5q0 -39 -13.5 -63.5t-27.5 -31.5t-27.5 -16.5t-13.5 -21.5q0 -25 88 -25q74 0 119 42t88 122l90 174l-487 871q-29 51 -61 64t-111 13h-35z" />
<glyph unicode="&#x424;" horiz-adv-x="1753" d="M35 776q0 524 723 524v62q0 66 -30 81t-155 15h-41v96h678v-96h-41q-123 0 -152.5 -15.5t-29.5 -80.5v-62q371 0 551 -130t180 -402t-181 -404.5t-550 -130.5v-40q0 -66 30 -81.5t152 -15.5h41v-96h-678v96h41q125 0 155 15.5t30 81.5v43q-360 2 -541.5 131.5 t-181.5 408.5zM279 772q0 -109 18 -184.5t67.5 -141t146.5 -98.5t247 -33v908q-147 0 -244.5 -32t-148 -96.5t-68.5 -140.5t-18 -182zM987 313q154 0 254 32t149.5 97.5t67 140t17.5 185.5t-18.5 185.5t-68 139t-149.5 97.5t-252 33v-910z" />
<glyph unicode="&#x425;" horiz-adv-x="1441" d="M-12 1382v97h633v-97h-78q-98 0 -99 -26q0 -18 23 -51l272 -394l222 322q29 41 28 70q0 80 -141 79h-29v97h563v-97h-32q-82 0 -138.5 -38.5t-142.5 -153.5l-272 -371l430 -616q51 -76 83.5 -91.5t131.5 -15.5h24v-96h-671v96h57q96 2 116.5 7.5t20.5 29.5q0 23 -26 64 l-306 432l-237 -344q-33 -49 -33 -90q0 -45 36 -72t97 -27h51v-96h-581v96h8q154 0 268 164l332 461l-403 584q-35 51 -66 64t-106 13h-35z" />
<glyph unicode="&#x426;" horiz-adv-x="1748" d="M59 0v96h37q125 0 155 15.5t30 81.5v1093q0 66 -30 81t-155 15h-37v97h674v-97h-39q-125 0 -154.5 -15t-29.5 -81v-1175h686v1175q0 66 -29.5 81t-154.5 15h-37v97h672v-97h-37q-125 0 -155 -15t-30 -81v-1093q0 -61 26 -78t105 -17h107l18 -487h-90q-16 98 -27.5 151.5 t-33 104.5t-44 71.5t-69.5 38t-100 20.5t-146 3h-1112z" />
<glyph unicode="&#x427;" horiz-adv-x="1609" d="M59 1382v97h674v-97h-39q-125 0 -154.5 -15t-29.5 -81v-461q0 -70 66.5 -121t166.5 -51q115 0 179.5 26t177.5 116v491q0 66 -30 81t-155 15h-28v97h663v-97h-37q-125 0 -154.5 -15t-29.5 -81v-1093q0 -66 30 -81.5t154 -15.5h37v-96h-671v96h36q125 0 155 15.5t30 81.5 v466q-96 -78 -164 -106.5t-178 -28.5q-217 0 -347 75t-130 202v485q0 66 -30 81t-155 15h-37z" />
<glyph unicode="&#x428;" horiz-adv-x="2447" d="M59 0v96h37q125 0 155 15.5t30 81.5v1093q0 66 -30 81t-155 15h-37v97h674v-97h-39q-125 0 -154.5 -15t-29.5 -81v-1175h600v1175q0 66 -29.5 81t-154.5 15h-37v97h672v-97h-37q-125 0 -155 -15t-30 -81v-1175h598v1175q0 66 -29.5 81t-154.5 15h-37v97h672v-97h-37 q-125 0 -154.5 -15t-29.5 -81v-1093q0 -66 29.5 -81.5t154.5 -15.5h37v-96h-2329z" />
<glyph unicode="&#x429;" horiz-adv-x="2492" d="M59 0v96h37q125 0 155 15.5t30 81.5v1093q0 66 -30 81t-155 15h-37v97h674v-97h-39q-125 0 -154.5 -15t-29.5 -81v-1175h600v1175q0 66 -29.5 81t-154.5 15h-37v97h672v-97h-37q-125 0 -155 -15t-30 -81v-1175h598v1175q0 66 -29.5 81t-154.5 15h-37v97h672v-97h-37 q-125 0 -154.5 -15t-29.5 -81v-1093q0 -59 29.5 -77t97.5 -20h121l18 -485h-90q-10 63 -16.5 131t-6.5 100.5t-9 67.5t-19.5 48t-43 25.5t-74.5 14.5t-120 2h-1995z" />
<glyph unicode="&#x42a;" horiz-adv-x="1808" d="M39 954l29 525h1050v-97h-53q-125 0 -154.5 -15t-29.5 -81v-465h231q250 0 363 -53q109 -51 168 -146.5t59 -215.5q0 -238 -207 -343q-123 -63 -348 -63h-717v96h37q125 0 154.5 15.5t29.5 81.5v1093q0 66 -29.5 81t-154.5 15h-84q-145 0 -189 -75.5t-65 -352.5h-90z M881 201q0 -70 20.5 -87.5t104.5 -17.5h131q160 0 236.5 78t76.5 240q0 311 -322 311h-247v-524z" />
<glyph unicode="&#x42b;" horiz-adv-x="2240" d="M57 0v96h37q125 0 155 15.5t30 81.5v1093q0 66 -30 81t-155 15h-37v97h688v-97h-53q-125 0 -154.5 -15t-29.5 -81v-465h231q250 0 363 -53q109 -51 168 -146.5t59 -215.5q0 -238 -207 -343q-123 -63 -348 -63h-717zM508 201q0 -70 20.5 -87.5t104.5 -17.5h131 q160 0 236.5 78t76.5 240q0 311 -321 311h-248v-524zM1503 4v96h41q125 0 155 15.5t30 81.5v1093q0 66 -30 81t-155 15h-41v97h678v-97h-41q-123 0 -152.5 -15t-29.5 -81v-1093q0 -66 29.5 -81.5t152.5 -15.5h41v-96h-678z" />
<glyph unicode="&#x42c;" horiz-adv-x="1435" d="M57 0v96h37q125 0 155 15.5t30 81.5v1093q0 66 -30 81t-155 15h-37v97h688v-97h-53q-125 0 -154.5 -15t-29.5 -81v-465h231q250 0 363 -53q109 -51 168 -146.5t59 -215.5q0 -238 -207 -343q-123 -63 -348 -63h-717zM508 201q0 -70 20.5 -87.5t104.5 -17.5h131 q160 0 236.5 78t76.5 240q0 311 -321 311h-248v-524z" />
<glyph unicode="&#x42d;" horiz-adv-x="1368" d="M10 475q0 49 43 86t94 37q145 0 146 -123q0 -66 -32 -93.5t-63.5 -34.5t-31.5 -25q0 -90 124 -173t269 -83q227 0 337 160.5t110 490.5h-588v96h588q-8 252 -101 414q-47 86 -135 136t-186 50q-215 0 -324 -184q-53 -92 -117 -305h-90l31 592h78l82 -121q104 76 165.5 95 t172.5 19q295 0 501 -245q193 -229 193 -539q0 -330 -194.5 -543t-497.5 -213q-250 0 -412 154.5t-162 351.5z" />
<glyph unicode="&#x42e;" horiz-adv-x="2390" d="M59 0v96h37q125 0 155 15.5t30 81.5v1093q0 66 -30 81t-155 15h-37v97h674v-97h-39q-125 0 -154.5 -15t-29.5 -81v-465h383q29 317 246 516q188 172 463 172q295 0 495.5 -222t200.5 -548q0 -330 -202 -550t-503 -220q-293 0 -492.5 212t-209.5 530h-381v-518 q0 -66 29.5 -81.5t154.5 -15.5h39v-96h-674zM1159 743q0 -190 22.5 -298.5t80.5 -202.5q113 -176 331.5 -176t331.5 176q57 92 80 201.5t23 296t-23 297t-80 200.5q-115 176 -326 176q-225 0 -337 -176q-57 -92 -80 -201t-23 -293z" />
<glyph unicode="&#x42f;" horiz-adv-x="1490" d="M25 328h86q6 -106 26.5 -154.5t61.5 -48.5q35 0 56 40t46 136l33 129q37 143 100.5 214t183.5 101q-436 61 -436 367q0 174 141.5 270.5t399.5 96.5h709v-97h-37q-125 0 -155 -15t-30 -81v-1093q0 -66 30 -81.5t155 -15.5h37v-96h-672v96h37q125 0 154.5 15.5t29.5 81.5 v524h-119q-131 0 -207 -62q-47 -37 -70.5 -93t-33.5 -163l-10 -104q-31 -326 -262 -326q-127 0 -188.5 87.5t-65.5 271.5zM434 1110q0 -164 80 -227q82 -70 242 -70h225v451q0 61 -3 76.5t-20 27.5q-18 14 -118 14h-111q-152 0 -223.5 -66.5t-71.5 -205.5z" />
<glyph unicode="&#x430;" horiz-adv-x="1138" d="M90 209q0 193 262 291q125 49 381 92v80q0 129 -53 174q-55 51 -168 51q-74 0 -128 -23.5t-54 -56.5q0 -10 14 -26q31 -43 31 -84q0 -45 -32 -75t-79 -30q-53 0 -86 35t-33 92q0 111 114 183.5t286 72.5q195 0 299 -82q82 -68 82 -244v-411q0 -78 17.5 -110t60.5 -32 q18 0 57 15q18 8 31 8q20 0 20 -25q0 -45 -59.5 -81.5t-128.5 -36.5q-72 0 -114 33.5t-67 111.5q-137 -162 -356 -162q-135 0 -216 65.5t-81 174.5zM297 238q0 -70 46 -115t116 -45q66 0 130 34.5t103 92.5q27 41 34 76.5t7 128.5v94q-215 -35 -303 -76q-133 -63 -133 -190z " />
<glyph unicode="&#x431;" horiz-adv-x="1024" d="M70 475q0 451 98 647q33 68 74 113t77.5 68.5t95 36t100.5 14.5t120 2q41 0 75.5 -1t64.5 5t51.5 18.5t37 39t21.5 69.5h86q4 -55 -6.5 -101.5t-25.5 -80t-48 -59t-59.5 -42t-76.5 -29t-80 -17.5t-89.5 -8t-86.5 -3h-89q-90 0 -135.5 -79t-57.5 -241q47 82 133 120 t166 38q182 0 310 -148.5t128 -359.5t-129 -359.5t-313 -148.5t-313 147.5t-129 358.5zM285 475q0 -203 58 -310.5t169 -107.5t169 107.5t58 312.5q0 203 -57 311.5t-166 108.5q-231 0 -231 -422z" />
<glyph unicode="&#x432;" horiz-adv-x="1128" d="M47 0v74h37q78 0 101.5 18.5t23.5 63.5v577q2 20 1 41t-8 36t-37 25.5t-81 10.5h-37v108h541q127 0 212 -15t143 -65.5t58 -136.5q0 -199 -296 -239q197 -14 277.5 -67.5t80.5 -154.5q0 -276 -483 -276h-533zM406 180q0 -53 11 -68.5t54 -15.5h14q182 0 279.5 39 t97.5 146q0 53 -32.5 89t-97 51t-125 20t-146.5 5h-55v-266zM406 541h67q188 0 257 37.5t69 126.5q0 84 -85 120.5t-198 36.5h-47q-43 0 -53 -10t-10 -49v-262z" />
<glyph unicode="&#x433;" horiz-adv-x="937" d="M45 881v73h850l18 -348h-82q-14 139 -74.5 198.5t-185.5 59.5h-79q-41 0 -60.5 -19.5t-22.5 -38t-3 -54.5v-582q0 -61 27.5 -78.5t127.5 -17.5h8v-74h-518v74h8q98 0 126 17.5t28 78.5v614q0 61 -27.5 79t-126.5 18h-14z" />
<glyph unicode="&#x434;" horiz-adv-x="1232" d="M35 -258l18 348h119q35 0 54.5 20.5t37.5 57.5q68 137 68 483v103q0 27 -3 43t-16.5 38.5t-47.5 34t-85 11.5h-37v73h1045v-73h-37q-80 0 -106.5 -18.5t-26.5 -61.5v-615q0 -63 14.5 -79.5t81.5 -16.5h70l18 -348h-82q-14 139 -74.5 198.5t-185.5 59.5h-483 q-125 0 -185.5 -59.5t-74.5 -198.5h-82zM391 135q0 -29 31 -29h270q133 0 133 72v576q0 55 -12 72.5t-61 17.5h-174q-72 0 -90.5 -33t-18.5 -160q0 -346 -68 -483q-10 -25 -10 -33z" />
<glyph unicode="&#x435;" horiz-adv-x="1024" d="M72 451q0 229 131 381.5t327 152.5q186 0 305 -146.5t117 -377.5h-663q-2 -156 51 -246q80 -135 233 -135q102 0 173 50t135 169l71 -39q-125 -291 -417 -291q-207 0 -335 133.5t-128 348.5zM291 549h358q49 0 66.5 15.5t17.5 60.5q0 123 -56 197.5t-151 74.5 q-143 0 -207 -182q-28 -80 -28 -166z" />
<glyph unicode="&#x436;" horiz-adv-x="1769" d="M16 211h86q12 -131 88 -131q57 0 80 24.5t23 90.5q0 119 83 195.5t234 90.5q-180 43 -180 279q0 59 -40 101t-83 42q-47 0 -47 -20q0 -4 16.5 -18.5t16.5 -45.5q0 -74 -94 -74q-47 0 -76 27t-29 66q0 61 51.5 98t145.5 37q115 0 177 -60.5t62 -148.5q0 -145 47.5 -191.5 t210.5 -46.5v222q4 20 0 43.5t-11 44t-36.5 34t-78.5 13.5h-37v71h520v-71h-37q-49 0 -79 -13.5t-37 -34t-11 -44t0 -43.5v-222q164 0 211 46t47 192q0 88 62.5 148.5t177.5 60.5q94 0 145 -37t51 -98q0 -39 -28.5 -66t-75.5 -27q-94 0 -94 74q0 31 16 45.5t16 18.5 q0 20 -47 20q-43 0 -83 -42t-40 -101q0 -236 -180 -279q152 -14 235 -91t83 -195q0 -66 22.5 -90.5t79.5 -24.5q76 0 88 131h86q-8 -231 -254 -231q-260 0 -260 231q0 150 -43 187.5t-217 37.5v-231q-2 -14 0 -29.5t3 -31t9 -28t21.5 -22.5t38 -16t57.5 -6h37v-72h-520v72 h37q33 0 57 6t37.5 16t21.5 22.5t9 28t3.5 30.5t0.5 30v231q-174 0 -217.5 -38t-43.5 -187q0 -231 -260 -231q-246 0 -254 231z" />
<glyph unicode="&#x437;" horiz-adv-x="841" d="M20 238q0 66 33 99.5t80 33.5q43 0 76 -23.5t33 -68.5q0 -37 -22.5 -54.5t-46 -23.5t-23.5 -17q0 -16 22 -39l16 -22q18 -20 73.5 -43t131.5 -23q72 0 135.5 56.5t63.5 158.5q0 68 -53.5 121t-165.5 53h-86v99h82q209 0 209 176q0 70 -52.5 122t-136.5 52q-98 0 -168 -82 q-49 -57 -92 -180h-72v344h72l59 -74q59 47 103.5 64.5t118.5 17.5q139 0 224 -70.5t85 -201.5q0 -135 -88 -197q31 -4 55 -24q92 -76 92 -207q0 -143 -101.5 -229.5t-268.5 -86.5q-174 0 -281 79t-107 190z" />
<glyph unicode="&#x438;" horiz-adv-x="1263" d="M55 881v73h529v-73h-15q-98 0 -125.5 -17.5t-27.5 -79.5v-444l450 387v57q0 61 -27.5 79t-127.5 18h-15v73h533v-73h-15q-100 0 -127.5 -17.5t-27.5 -79.5v-614q0 -61 27.5 -78.5t125.5 -17.5h9v-74h-519v74h9q100 0 127.5 17.5t27.5 78.5v438l-450 -387v-51 q0 -61 27.5 -78.5t127.5 -17.5h9v-74h-519v74h9q98 0 125.5 17.5t27.5 78.5v614q0 61 -27.5 79t-125.5 18h-15z" />
<glyph unicode="&#x439;" horiz-adv-x="1263" d="M55 881v73h529v-73h-15q-98 0 -125.5 -17.5t-27.5 -79.5v-444l450 387v57q0 61 -27.5 79t-127.5 18h-15v73h533v-73h-15q-100 0 -127.5 -17.5t-27.5 -79.5v-614q0 -61 27.5 -78.5t125.5 -17.5h9v-74h-519v74h9q100 0 127.5 17.5t27.5 78.5v438l-450 -387v-51 q0 -61 27.5 -78.5t127.5 -17.5h9v-74h-519v74h9q98 0 125.5 17.5t27.5 78.5v614q0 61 -27.5 79t-125.5 18h-15zM350 1491v27h74q8 -92 64.5 -143.5t152.5 -51.5q94 0 150.5 51t64.5 144h74v-29q0 -125 -83 -209t-208 -84t-207 84t-82 211z" />
<glyph unicode="&#x43a;" horiz-adv-x="1210" d="M55 881v73h529v-73h-15q-98 0 -125.5 -17.5t-27.5 -79.5v-258q176 0 231 42t55 196q0 209 234 209q96 0 150.5 -37t54.5 -96q0 -41 -29 -68t-76 -27q-41 0 -70.5 19.5t-29.5 54.5q0 33 19.5 46.5t19.5 19.5q0 18 -45 18q-37 0 -80 -43t-43 -100q0 -129 -40 -197.5 t-140 -81.5q152 -14 234.5 -91t82.5 -195q0 -59 31 -87t72 -28q76 0 88 131h86q-8 -231 -254 -231q-264 0 -265 210q0 80 -7 120t-35.5 73t-85 43t-158.5 10v-266q0 -61 27.5 -78.5t127.5 -17.5h9v-74h-519v74h9q98 0 125.5 17.5t27.5 78.5v614q0 61 -27.5 79t-125.5 18h-15 z" />
<glyph unicode="&#x43b;" horiz-adv-x="1363" d="M104 172q0 51 33 85t90 34q55 0 83 -30t28 -73q0 -39 -27.5 -59t-27.5 -27q0 -14 8 -19t33 -5q80 0 131 80q35 55 52 148t19 159.5t2 185.5v103q2 20 -2 42.5t-12 41t-43 31t-94 12.5h-37v73h989v-73h-37q-80 0 -106.5 -18.5t-26.5 -61.5v-660q0 -68 125 -67h37v-74h-518 v74h31q133 0 133 71v609q0 37 -5.5 55t-18.5 26.5t-37.5 7.5t-63.5 1h-74q-66 0 -84 -15.5t-18 -72.5v-105q0 -164 -13.5 -277.5t-49.5 -207.5t-103.5 -139t-169.5 -45q-119 0 -172.5 45t-53.5 145z" />
<glyph unicode="&#x43c;" horiz-adv-x="1462" d="M55 881v73h637v-73h-28q-63 0 -87 -10.5t-24 -36.5q0 -23 10 -43l234 -543l188 475q18 55 19 86q0 72 -111 72h-29v73h563v-73h-14q-100 0 -128 -17.5t-28 -79.5v-614q0 -61 28 -78.5t126 -17.5h8v-74h-518v74h8q100 0 128 17.5t28 78.5v492l-281 -693h-71l-297 693v-492 q0 -61 27.5 -78.5t127.5 -17.5h9v-74h-519v74h9q98 0 125.5 17.5t27.5 78.5v614q0 61 -27.5 79t-125.5 18h-15z" />
<glyph unicode="&#x43d;" horiz-adv-x="1263" d="M55 881v73h529v-73h-15q-98 0 -125.5 -17.5t-27.5 -79.5v-241h450v241q0 61 -27.5 79t-127.5 18h-15v73h533v-73h-15q-100 0 -127.5 -17.5t-27.5 -79.5v-614q0 -61 27.5 -78.5t125.5 -17.5h9v-74h-519v74h9q100 0 127.5 17.5t27.5 78.5v268h-450v-268q0 -61 27.5 -78.5 t127.5 -17.5h9v-74h-519v74h9q98 0 125.5 17.5t27.5 78.5v614q0 61 -27.5 79t-125.5 18h-15z" />
<glyph unicode="&#x43e;" horiz-adv-x="1024" d="M70 475q0 215 129 362.5t317 147.5q182 0 310 -148.5t128 -359.5t-129 -359.5t-313 -148.5t-313 147.5t-129 358.5zM285 475q0 -203 58 -310.5t169 -107.5t169 107.5t58 312.5q0 203 -57 311.5t-166 108.5q-231 0 -231 -422z" />
</font>
</defs>
</svg>
