<?xml version="1.0" encoding="UTF-8" standalone="no"?>
<!-- Created with Inkscape (http://www.inkscape.org/) -->

<svg
   xmlns:dc="http://purl.org/dc/elements/1.1/"
   xmlns:cc="http://creativecommons.org/ns#"
   xmlns:rdf="http://www.w3.org/1999/02/22-rdf-syntax-ns#"
   xmlns:svg="http://www.w3.org/2000/svg"
   xmlns="http://www.w3.org/2000/svg"
   xmlns:sodipodi="http://sodipodi.sourceforge.net/DTD/sodipodi-0.dtd"
   xmlns:inkscape="http://www.inkscape.org/namespaces/inkscape"
   width="1062.9921"
   height="1062.9921"
   id="svg2"
   version="1.1"
   inkscape:version="0.48.3.1 r9886"
   sodipodi:docname="this-is-not-a-slideshow.fast.svg">
  <sodipodi:namedview
     id="base"
     pagecolor="#ffffff"
     bordercolor="#666666"
     borderopacity="1.0"
     inkscape:pageopacity="0.0"
     inkscape:pageshadow="2"
     inkscape:zoom="0.49497475"
     inkscape:cx="851.20268"
     inkscape:cy="342.32802"
     inkscape:document-units="px"
     inkscape:current-layer="layer1"
     showgrid="true"
     inkscape:window-width="1366"
     inkscape:window-height="746"
     inkscape:window-x="0"
     inkscape:window-y="0"
     inkscape:window-maximized="1"
     units="cm">
    <inkscape:grid
       snapvisiblegridlinesonly="true"
       enabled="true"
       visible="true"
       empspacing="5"
       type="xygrid"
       id="grid3763" />
  </sodipodi:namedview>
  <defs
     id="defs4">
    <inkscape:path-effect
       effect="sketch"
       id="path-effect3765"
       is_visible="true"
       nbiter_approxstrokes="5"
       strokelength="100"
       strokelength_rdm="0.3;1"
       strokeoverlap="0.3"
       strokeoverlap_rdm="0.3;1"
       ends_tolerance="0.1;1"
       parallel_offset="5;1"
       tremble_size="5;1"
       tremble_frequency="1"
       nbtangents="5"
       tgt_places_rdmness="1;1"
       tgtscale="10"
       tgtlength="100"
       tgtlength_rdm="0.3;1" />
    <inkscape:path-effect
       effect="envelope"
       id="path-effect3767"
       is_visible="true"
       yy="true"
       xx="true"
       bendpath1="m 167.14286,514.73163 157.07266,0"
       bendpath2="m 324.21552,514.73163 0,367.83084"
       bendpath3="m 167.14286,882.56247 157.07266,0"
       bendpath4="m 167.14286,514.73163 0,367.83084" />
    <inkscape:path-effect
       effect="gears"
       id="path-effect3769"
       is_visible="true"
       teeth="10"
       phi="5" />
    <inkscape:path-effect
       effect="knot"
       id="path-effect3771"
       is_visible="true"
       interruption_width="3"
       prop_to_stroke_width="true"
       add_stroke_width="true"
       add_other_stroke_width="true"
       switcher_size="15"
       crossing_points_vector="" />
    <inkscape:path-effect
       effect="construct_grid"
       id="path-effect3773"
       is_visible="true"
       nr_x="5"
       nr_y="5" />
    <inkscape:path-effect
       effect="spiro"
       id="path-effect3775"
       is_visible="true" />
    <inkscape:path-effect
       effect="vonkoch"
       id="path-effect3777"
       is_visible="true"
       ref_path="m 167.14286,698.64705 157.07266,0"
       generator="m 167.14286,882.56247 52.35755,0 m 52.35756,0 52.35755,0"
       similar_only="false"
       nbgenerations="1"
       drawall="true"
       maxComplexity="1000" />
    <inkscape:path-effect
       effect="bend_path"
       id="path-effect3779"
       is_visible="true"
       bendpath="m 167.14286,698.64705 157.07266,0"
       prop_scale="1"
       scale_y_rel="false"
       vertical="false" />
  </defs>
  <metadata
     id="metadata7">
    <rdf:RDF>
      <cc:Work
         rdf:about="">
        <dc:format>image/svg+xml</dc:format>
        <dc:type
           rdf:resource="http://purl.org/dc/dcmitype/StillImage" />
        <dc:title />
      </cc:Work>
    </rdf:RDF>
  </metadata>
  <g
     transform="translate(0,10.631225)"
     inkscape:label="Calque 1"
     inkscape:groupmode="layer"
     id="layer1">
    <g
       id="text2985"
       style="font-size:33.79266739px;font-style:normal;font-variant:normal;font-weight:normal;font-stretch:normal;line-height:125%;letter-spacing:0px;word-spacing:0px;fill:#000000;fill-opacity:1;stroke:none;font-family:Iwona;-inkscape-font-specification:Iwona">
      <path
         id="path10712"
         style="stroke:none"
         d="m 288.83945,527.42772 -4.07934,-6.77402 -18.93251,11.40122 -1.42951,-2.3738 18.93251,-11.40122 -4.07933,-6.77402 1.33164,-0.80192 9.58818,15.92184 -1.33164,0.80192 m -11.92442,23.03864 -1.35978,-2.25801 9.40836,-5.66574 c 0.69474,-0.41842 1.15355,-1.01029 1.37643,-1.77562 0.24212,-0.777 0.15981,-1.50322 -0.24694,-2.17868 -0.72059,-1.19656 -2.02397,-2.02899 -3.91014,-2.49728 l -10.21892,6.15387 -1.35978,-2.25801 20.26416,-12.20314 1.35977,2.25801 -9.14782,5.50884 c 2.37324,0.62205 4.01312,1.68575 4.91967,3.1911 0.62756,1.04214 0.77038,2.1527 0.42846,3.33167 -0.34198,1.17893 -1.04369,2.08801 -2.10512,2.72724 l -9.40835,5.66575" />
      <path
         id="path10714"
         style="stroke:none"
         d="m 284.34201,560.48574 c -1.44964,-0.44174 -2.48253,-1.17398 -3.09866,-2.19673 -0.47663,-0.7912 -0.45688,-1.63156 0.0593,-2.52111 0.51614,-0.88955 1.30488,-1.65401 2.36623,-2.2934 l 9.40744,-5.66728 1.36015,2.25779 -9.40744,5.66727 c -1.71746,1.03464 -2.32044,1.9765 -1.80893,2.82559 0.37201,0.61751 1.03545,1.08575 1.99033,1.40474 l -0.86838,0.52313 m 15.50696,-13.87864 c -0.0958,0.45222 -0.33667,0.79458 -0.7226,1.02707 -0.38596,0.23251 -0.81085,0.29122 -1.27467,0.17614 -0.43294,-0.10741 -0.76564,-0.35409 -0.99813,-0.74004 -0.23252,-0.38594 -0.30088,-0.80502 -0.20508,-1.25723 0.12669,-0.44454 0.38302,-0.78306 0.76898,-1.01557 0.38593,-0.2325 0.79536,-0.29504 1.22829,-0.18764 0.46382,0.11509 0.81199,0.3656 1.04451,0.75154 0.23249,0.38595 0.28538,0.8012 0.1587,1.24573" />
      <path
         id="path10716"
         style="stroke:none"
         d="m 294.07782,570.57674 c -1.17782,0.70799 -2.44502,0.7863 -3.80158,0.23493 -1.33727,-0.56299 -2.41214,-1.52028 -3.2246,-2.87187 -1.11424,-1.85362 -1.69538,-3.80426 -1.74342,-5.85192 l 1.21644,-0.73122 c 0.048,2.04767 0.62918,3.99831 1.74341,5.85192 0.46426,0.77234 1.06743,1.31661 1.80951,1.63282 0.75367,0.33551 1.45875,0.30595 2.11524,-0.0887 0.67579,-0.40624 1.05583,-1.04212 1.14013,-1.90763 0.0843,-0.86551 -0.0343,-1.8062 -0.35583,-2.82206 -1.08083,-3.5034 -0.78132,-5.75998 0.89853,-6.76976 1.13919,-0.68479 2.35036,-0.76885 3.63351,-0.25218 1.31404,0.52437 2.36569,1.44305 3.15495,2.75602 0.95173,1.58329 1.38778,3.29258 1.30817,5.12785 l -1.21643,0.73122 c 0.0796,-1.83528 -0.35644,-3.54456 -1.30817,-5.12785 -0.42946,-0.71442 -0.99976,-1.22587 -1.7109,-1.53438 -0.69956,-0.28919 -1.34862,-0.25389 -1.94717,0.10591 -1.04267,0.62676 -1.22502,2.05065 -0.54706,4.27166 1.15435,3.66946 0.76611,6.08453 -1.16473,7.2452" />
      <path
         id="path10718"
         style="stroke:none"
         d="m 302.54873,590.86023 c -1.44777,-0.44783 -2.47757,-1.18441 -3.08939,-2.20974 -0.47331,-0.79319 -0.45002,-1.63347 0.0699,-2.52084 0.51987,-0.88737 1.31182,-1.64851 2.37585,-2.28343 l 9.43118,-5.62769 1.35064,2.26349 -9.43117,5.62768 c -1.7218,1.02741 -2.32873,1.96673 -1.82079,2.81796 0.3694,0.61906 1.03087,1.09009 1.9844,1.41309 l -0.87057,0.51948 m 15.56516,-13.81334 c -0.0977,0.45181 -0.34001,0.79315 -0.72691,1.02403 -0.38694,0.23088 -0.81207,0.28781 -1.2754,0.17077 -0.43248,-0.10922 -0.76415,-0.3573 -0.99501,-0.74422 -0.2309,-0.38692 -0.29749,-0.80628 -0.19979,-1.25809 0.12856,-0.444 0.3863,-0.78144 0.77324,-1.01233 0.3869,-0.23087 0.79659,-0.29169 1.22907,-0.18247 0.46333,0.11704 0.81044,0.36901 1.04134,0.75592 0.23086,0.38693 0.28201,0.80239 0.15346,1.24639" />
      <path
         id="path10720"
         style="stroke:none"
         d="m 312.22858,601.00222 c -1.18178,0.70136 -2.4494,0.77256 -3.80285,0.21358 -1.33409,-0.5705 -2.40356,-1.53382 -3.20841,-2.88994 -1.10381,-1.85985 -1.67399,-3.81372 -1.71053,-5.86162 l 1.22052,-0.72438 c 0.0365,2.04791 0.60672,4.00178 1.71053,5.86162 0.45991,0.77493 1.06001,1.32258 1.8003,1.64296 0.75178,0.33973 1.45701,0.31414 2.11571,-0.0768 0.67806,-0.40243 1.06167,-1.03616 1.15083,-1.90118 0.0891,-0.86503 -0.0242,-1.80637 -0.33998,-2.82402 -1.06113,-3.50941 -0.74895,-5.76428 0.93654,-6.76461 1.14301,-0.67838 2.35464,-0.75563 3.63486,-0.23177 1.31108,0.53175 2.35755,1.45631 3.13943,2.7737 0.94282,1.58861 1.36927,3.30032 1.27935,5.13512 l -1.22052,0.72437 c 0.0899,-1.8348 -0.33653,-3.5465 -1.27935,-5.13512 -0.42544,-0.71681 -0.99286,-1.23146 -1.70226,-1.54396 -0.69792,-0.29312 -1.34716,-0.26146 -1.94773,0.095 -1.04617,0.62089 -1.23652,2.04373 -0.57104,4.26851 1.13372,3.67589 0.73192,6.08874 -1.2054,7.23855" />
      <path
         id="path10722"
         style="stroke:none"
         d="m 322.56735,627.15739 -1.32937,-2.27604 9.4835,-5.53905 c 0.7003,-0.40904 1.16701,-0.99471 1.40012,-1.757 0.25253,-0.77366 0.17997,-1.50092 -0.21769,-2.18179 -0.70447,-1.2061 -1.99657,-2.05594 -3.8763,-2.5495 l -10.30054,6.01626 -1.32937,-2.27604 13.131,-7.66945 1.32937,2.27604 -1.92588,1.12485 c 2.36469,0.65384 3.99016,1.73943 4.87643,3.25679 0.61353,1.05048 0.74144,2.16285 0.38373,3.33711 -0.35775,1.17426 -1.07159,2.07385 -2.1415,2.69877 l -9.4835,5.53905" />
      <path
         id="path10724"
         style="fill:#ff6600"
         d="m 342.18387,634.08683 c -0.60832,1.65102 -2.03466,3.12361 -4.27903,4.41778 -2.24439,1.29415 -4.23341,1.79093 -5.96706,1.49033 -1.72241,-0.28109 -3.11253,-1.33891 -4.17036,-3.17343 -1.06909,-1.85406 -1.29948,-3.60661 -0.69117,-5.25763 0.61955,-1.63152 2.05152,-3.09435 4.2959,-4.38851 2.24438,-1.29416 4.22777,-1.8007 5.95018,-1.51961 1.73365,0.30061 3.13502,1.37793 4.20413,3.23199 1.05781,1.83453 1.27695,3.56756 0.65741,5.19908 m -10.4358,3.48198 c 1.27966,-0.0358 2.83676,-0.58253 4.6713,-1.64036 1.83453,-1.05784 3.07802,-2.12594 3.73049,-3.2043 0.67196,-1.08962 0.72098,-2.1321 0.14707,-3.12743 -0.58521,-1.01485 -1.51763,-1.50441 -2.79728,-1.46867 -1.26016,0.0245 -2.8075,0.56564 -4.64203,1.62348 -1.83454,1.05783 -3.08779,2.13155 -3.75976,3.22118 -0.65246,1.07836 -0.6861,2.12496 -0.10091,3.13982 0.57393,0.99533 1.49097,1.48075 2.75112,1.45628" />
      <path
         id="path10726"
         style="stroke:none"
         d="m 338.13832,651.87858 c -1.42731,-0.45732 -2.40303,-1.14599 -2.92717,-2.06599 -0.44608,-0.78299 -0.39335,-1.5779 0.15817,-2.38474 0.5711,-0.81799 1.40473,-1.53924 2.50092,-2.16375 l 8.30942,-4.734 -1.47206,-2.58384 1.08639,-0.61894 c 0.59104,1.03746 1.52079,1.62268 2.78925,1.75564 1.26843,0.13298 2.51925,-0.15182 3.75247,-0.85439 l 0.78621,1.38001 -4.40429,2.50918 1.60588,2.81874 -1.2332,0.70258 -1.60588,-2.81875 -8.30942,4.734 c -0.52852,0.3011 -0.9438,0.55065 -1.24583,0.74866 -0.2909,0.21757 -0.53297,0.49809 -0.72621,0.84155 -0.19326,0.34344 -0.1951,0.68155 -0.006,1.01432 0.3234,0.56766 0.93064,0.97362 1.82172,1.21789 l -0.88086,0.50183" />
      <path
         id="path10728"
         style="stroke:none"
         d="m 350.24915,675.94593 -1.27833,-2.30509 1.32986,-0.7375 c -1.83749,-0.7585 -3.13317,-1.81745 -3.88705,-3.17685 -0.8413,-1.51704 -1.13452,-2.95159 -0.87967,-4.30368 0.25484,-1.35209 1.08167,-2.416 2.48049,-3.19174 1.43822,-0.79759 2.81027,-0.90159 4.11616,-0.31199 1.32558,0.57868 2.44726,1.69548 3.36505,3.35042 0.66646,1.2018 1.07243,2.56095 1.21791,4.07746 l 0.53194,-0.295 c 1.06388,-0.59001 1.84236,-1.3695 2.33544,-2.33847 0.49305,-0.96899 0.49921,-1.88691 0.0185,-2.75378 -0.79761,-1.43822 -2.00455,-2.66231 -3.62082,-3.67227 l 0.91613,-0.50806 c 2.07568,1.1416 3.59973,2.58912 4.57216,4.34257 0.68831,1.2412 0.72451,2.56068 0.1086,3.95845 -0.59624,1.38684 -1.61346,2.47905 -3.05167,3.27665 l -8.27469,4.58888 m 1.29273,-3.73092 3.93048,-2.17972 c -0.0581,-1.35889 -0.39301,-2.58998 -1.00485,-3.69327 -0.50261,-0.90628 -1.24941,-1.50968 -2.2404,-1.81021 -0.96039,-0.29175 -1.88387,-0.19179 -2.77044,0.29988 -0.96538,0.53537 -1.56986,1.257 -1.81342,2.1649 -0.24358,0.9079 -0.0867,1.86424 0.47047,2.86903 0.60092,1.08359 1.74364,1.86671 3.42816,2.34939" />
      <path
         id="path10730"
         style="stroke:none"
         d="m 366.88288,697.62136 c -1.21204,0.64767 -2.48158,0.66196 -3.8086,0.0429 -1.30717,-0.62974 -2.33237,-1.64004 -3.07562,-3.03089 -1.01931,-1.90746 -1.50131,-3.88493 -1.44599,-5.93241 l 1.25177,-0.66893 c -0.0553,2.04749 0.42668,4.02496 1.44599,5.93242 0.42471,0.79477 0.99965,1.36878 1.72483,1.72202 0.73579,0.3731 1.44146,0.37915 2.11703,0.0181 0.69542,-0.37163 1.10706,-0.98752 1.23491,-1.84767 0.12783,-0.86017 0.0568,-1.80564 -0.21302,-2.83643 -0.90272,-3.55345 -0.48976,-5.79206 1.23889,-6.71581 1.17228,-0.62645 2.38615,-0.6493 3.6416,-0.0686 1.28591,0.59 2.28988,1.56055 3.01191,2.91167 0.87064,1.62929 1.21992,3.35839 1.04783,5.18731 l -1.25177,0.66893 c 0.17209,-1.82893 -0.17719,-3.55803 -1.04783,-5.18732 -0.39288,-0.73517 -0.93665,-1.27474 -1.63132,-1.61873 -0.68408,-0.32411 -1.33409,-0.3216 -1.95003,0.008 -1.07296,0.57337 -1.32691,1.98624 -0.76185,4.23862 0.96777,3.72303 0.45819,6.11543 -1.52873,7.17723" />
      <path
         id="path10732"
         style="stroke:none"
         d="m 369.03806,708.49963 c -1.4207,-0.52745 -2.40806,-1.32002 -2.96207,-2.37771 -0.42857,-0.81822 -0.35871,-1.65591 0.20958,-2.51308 0.56829,-0.85716 1.40125,-1.57321 2.49886,-2.14812 l 17.21253,-9.01577 1.22301,2.33492 -17.21253,9.01576 c -1.77614,0.93032 -2.43424,1.83453 -1.9743,2.71262 0.33449,0.6386 0.96882,1.1456 1.90296,1.52099 l -0.89804,0.47039" />
      <path
         id="path10734"
         style="stroke:none"
         d="m 373.40819,716.98217 c -1.4168,-0.53785 -2.39831,-1.33764 -2.94455,-2.39937 -0.42257,-0.82134 -0.34656,-1.6585 0.228,-2.51147 0.57457,-0.85298 1.41275,-1.56289 2.51455,-2.12975 l 9.76593,-5.02438 1.20586,2.34383 -9.76594,5.02438 c -1.78291,0.91727 -2.44763,1.81662 -1.99414,2.69806 0.3298,0.64104 0.96039,1.15268 1.89176,1.53491 l -0.90147,0.46379 m 16.4018,-12.80872 c -0.12588,0.44479 -0.38914,0.77024 -0.78977,0.97637 -0.40067,0.20613 -0.82854,0.23625 -1.28361,0.0904 -0.42477,-0.13617 -0.7402,-0.40458 -0.94631,-0.80523 -0.20615,-0.40065 -0.24628,-0.82337 -0.12041,-1.26816 0.15619,-0.43504 0.43461,-0.75563 0.83529,-0.96177 0.40063,-0.20612 0.81333,-0.2411 1.2381,-0.10494 0.45506,0.1459 0.78567,0.41917 0.99182,0.81982 0.20611,0.40066 0.23107,0.81851 0.0749,1.25356" />
      <path
         id="path10736"
         style="stroke:none"
         d="m 379.36959,731.4796 -1.17828,-2.3578 1.36027,-0.67978 c -1.80326,-0.83662 -3.05233,-1.95017 -3.74721,-3.34066 -0.87616,-1.75324 -0.88085,-3.37532 -0.0141,-4.86624 0.88692,-1.50099 2.39844,-2.78524 4.53458,-3.85275 2.13612,-1.0675 4.08571,-1.44994 5.84879,-1.14732 1.79327,0.31271 3.14814,1.38598 4.0646,3.21983 0.6143,1.22928 0.9616,2.60459 1.04189,4.12594 l 8.07095,-4.03335 1.17828,2.3578 -21.15978,10.57433 m 1.45158,-3.67204 9.18939,-4.59228 c 2.7e-4,-1.36013 -0.28157,-2.60446 -0.84552,-3.73298 -0.57405,-1.14867 -1.57136,-1.70804 -2.99193,-1.67812 -1.40045,0.0199 -2.90675,0.43262 -4.51891,1.23828 -1.8137,0.90637 -3.12366,1.86322 -3.92986,2.87056 -0.78607,0.99726 -0.86187,2.13068 -0.22741,3.40027 0.55389,1.10836 1.66197,1.93978 3.32424,2.49427" />
      <path
         id="path10738"
         style="stroke:none"
         d="m 393.57196,744.22074 -4.35974,-9.11502 c -3.63789,1.74 -4.94163,3.68714 -3.91123,5.84142 0.73877,1.54457 1.83585,2.76793 3.29124,3.67008 l -1.28037,0.61241 c -1.53669,-0.86328 -2.67441,-2.0672 -3.41318,-3.61176 -0.85542,-1.78846 -0.89039,-3.53232 -0.10489,-5.23158 0.80582,-1.70898 2.28586,-3.07867 4.44015,-4.10907 2.15426,-1.03039 4.13934,-1.31808 5.95525,-0.86307 1.8362,0.44529 3.18201,1.56216 4.03745,3.35062 0.84569,1.76813 0.86563,3.50668 0.0598,5.21567 -0.78552,1.69926 -2.2554,3.06409 -4.40966,4.09449 l -0.30485,0.14581 m -0.003,-3.29509 c 1.32101,-0.63185 2.33319,-1.4656 3.03654,-2.50124 0.71305,-1.01533 0.82656,-2.03107 0.34054,-3.04724 -0.49577,-1.03649 -1.3675,-1.60596 -2.61518,-1.70842 -1.21767,-0.0919 -2.49717,0.183 -3.8385,0.82456 l 3.0766,6.43234" />
      <path
         id="path10740"
         style="stroke:none"
         d="m 397.05995,758.90686 c -1.25077,0.5693 -2.51864,0.50284 -3.80361,-0.19939 -1.26449,-0.71158 -2.22338,-1.78502 -2.87668,-3.22031 -0.89597,-1.96842 -1.25125,-3.97254 -1.06586,-6.01236 l 1.29177,-0.58797 c -0.18539,2.03982 0.1699,4.04393 1.06586,6.01235 0.37332,0.82017 0.9106,1.42957 1.61185,1.82821 0.71057,0.41913 1.41443,0.47004 2.11159,0.15273 0.71764,-0.32666 1.1676,-0.91514 1.34989,-1.76542 0.18227,-0.8503 0.17152,-1.79837 -0.0322,-2.84423 -0.67494,-3.60367 -0.12047,-5.81148 1.66341,-6.62345 1.20974,-0.55064 2.42261,-0.49627 3.63859,0.16312 1.2458,0.67057 2.18602,1.703 2.82068,3.09729 0.76528,1.68135 1.00391,3.42916 0.71587,5.24344 l -1.29177,0.58798 c 0.28804,-1.81428 0.0494,-3.56209 -0.71587,-5.24345 -0.34534,-0.75866 -0.8537,-1.33172 -1.52509,-1.71918 -0.66209,-0.36695 -1.31095,-0.40577 -1.94657,-0.11645 -1.10724,0.50398 -1.45051,1.89784 -1.02982,4.1816 0.72909,3.77703 0.0684,6.13219 -1.982,7.06549" />
      <path
         id="path10742"
         style="stroke:none"
         d="m 399.64676,775.83027 -1.03389,-2.4246 10.1025,-4.30785 c 0.74601,-0.31812 1.28239,-0.84073 1.60912,-1.56783 0.34743,-0.73595 0.36651,-1.46657 0.0572,-2.19187 -0.54789,-1.28484 -1.72339,-2.28979 -3.52652,-3.01486 l -10.97286,4.67899 -1.03388,-2.4246 21.75921,-9.27844 1.03388,2.4246 -9.82273,4.18855 c 2.2642,0.94481 3.74093,2.22542 4.4302,3.84182 0.47716,1.11904 0.46476,2.23867 -0.0372,3.3589 -0.50198,1.1202 -1.32285,1.92332 -2.4626,2.40934 l -10.10249,4.30785" />
      <path
         id="path10744"
         style="fill:#ff6600"
         d="m 418.0571,785.63478 c -0.85238,1.53928 -2.48611,2.77778 -4.90122,3.7155 -2.41512,0.9377 -4.45656,1.12615 -6.12431,0.56536 -1.65962,-0.53982 -2.87266,-1.79677 -3.63913,-3.77086 -0.77464,-1.9951 -0.73577,-3.7623 0.11659,-5.30158 0.86051,-1.5183 2.49832,-2.7463 4.91345,-3.68401 2.4151,-0.93771 4.45246,-1.13666 6.11208,-0.59685 1.66775,0.56081 2.88895,1.83876 3.6636,3.83386 0.76645,1.97409 0.71944,3.72028 -0.14106,5.23858 m -10.844,1.8541 c 1.2702,0.15931 2.89235,-0.14426 4.86645,-0.91073 1.97409,-0.76649 3.36558,-1.63301 4.17448,-2.59958 0.82988,-0.97473 1.0369,-1.99762 0.62106,-3.06867 -0.42402,-1.09205 -1.27113,-1.71774 -2.54133,-1.87707 -1.24922,-0.16748 -2.86087,0.13202 -4.83495,0.8985 -1.97411,0.76647 -3.3761,1.63707 -4.20599,2.61181 -0.80889,0.96656 -1.00133,1.99588 -0.57732,3.08794 0.41585,1.07104 1.24838,1.69031 2.4976,1.8578" />
      <path
         id="path10746"
         style=""
         d="m 428.20164,810.00869 -15.98691,0.0641 -0.66512,-2.02237 10.08462,-7.19417 -12.4284,0.0677 -0.66512,-2.02237 12.96745,-9.24505 0.7707,2.34338 -10.51335,7.51304 12.9627,-0.0656 0.57011,1.73346 -10.52391,7.48093 12.9627,-0.0656 0.46453,1.41245" />
    </g>
    <rect
       transform="matrix(0.503761,0.86384307,-0.86384307,0.503761,0,0)"
       style="fill:none;stroke:#008080;stroke-width:1;stroke-miterlimit:4;stroke-opacity:1;stroke-dasharray:3.99999997, 1.99999997, 1, 1.99999997;stroke-dashoffset:0"
       id="rect2993"
       width="80"
       height="65"
       x="573.93201"
       y="-6.8015165"
       rx="0"
       ry="0" />
    <rect
       transform="matrix(0.49851537,0.86688086,-0.86688086,0.49851537,0,0)"
       ry="0"
       rx="0"
       y="-3.0602958"
       x="646.70123"
       height="65"
       width="40"
       id="rect3765"
       style="fill:none;stroke:#008080;stroke-width:1;stroke-miterlimit:4;stroke-opacity:1;stroke-dasharray:4.00000006, 2.00000003, 1.00000003, 2.00000003;stroke-dashoffset:0" />
    <rect
       transform="matrix(0.50891928,0.86081425,-0.86081425,0.50891928,0,0)"
       style="fill:none;stroke:#008080;stroke-width:1;stroke-miterlimit:4;stroke-opacity:1;stroke-dasharray:3.99999992, 1.99999997, 0.99999998, 1.99999997;stroke-dashoffset:0"
       id="rect3767"
       width="60"
       height="65"
       x="680.45374"
       y="2.8453968"
       rx="0"
       ry="0" />
    <rect
       transform="matrix(0.47623607,0.87931747,-0.87931747,0.47623607,0,0)"
       ry="0"
       rx="0"
       y="-24.288458"
       x="739.17932"
       height="65"
       width="35"
       id="rect3769"
       style="fill:none;stroke:#008080;stroke-width:1;stroke-miterlimit:4;stroke-opacity:1;stroke-dasharray:3.99999994, 1.99999997, 1, 1.99999997;stroke-dashoffset:0" />
    <rect
       transform="matrix(0.43736046,0.89928629,-0.89928629,0.43736046,0,0)"
       style="fill:none;stroke:#008080;stroke-width:0.99999994;stroke-miterlimit:4;stroke-opacity:1;stroke-dasharray:4.00000011, 2.00000005, 1.00000002, 2.00000005;stroke-dashoffset:0"
       id="rect3771"
       width="166.10191"
       height="67.478905"
       x="766.0672"
       y="-58.164028"
       rx="0"
       ry="0" />
    <g
       id="text2989"
       style="font-size:45px;font-style:normal;font-variant:normal;font-weight:normal;font-stretch:normal;line-height:125%;letter-spacing:0px;word-spacing:0px;fill:#000000;fill-opacity:1;stroke:none;font-family:Iwona;-inkscape-font-specification:Iwona"
       inkscape:transform-center-y="-4.4554741"
       inkscape:transform-center-x="4.4962412"
       transform="matrix(0.82918963,-0.55896741,0.55896741,0.82918963,0,0)">
      <path
         id="path10705"
         style=""
         d="m 244.27032,843.14336 -10.53,0 0,29.43 -3.69,0 0,-29.43 -10.53,0 0,-2.07 24.75,0 0,2.07 m 18.09,29.43 -3.51,0 0,-14.625 c -4e-5,-1.07998 -0.36004,-2.00998 -1.08,-2.79 -0.72004,-0.80998 -1.60504,-1.21498 -2.655,-1.215 -1.86004,2e-5 -3.70504,0.91502 -5.535,2.745 l 0,15.885 -3.51,0 0,-31.5 3.51,0 0,14.22 c 2.33996,-2.27998 4.67996,-3.41998 7.02,-3.42 1.61996,2e-5 2.98495,0.60002 4.095,1.8 1.10995,1.20002 1.66495,2.62502 1.665,4.275 l 0,14.625" />
      <path
         id="path10707"
         style=""
         d="m 278.88305,870.99836 c -1.50001,1.35 -3.04501,2.025 -4.635,2.025 -1.23001,0 -2.17501,-0.6 -2.835,-1.8 -0.66,-1.19999 -0.99,-2.62499 -0.99,-4.275 l 0,-14.625 3.51,0 0,14.625 c -10e-6,2.67001 0.65999,4.00501 1.98,4.005 0.95999,10e-6 1.94999,-0.43499 2.97,-1.305 l 0,1.35 m -5.175,-27.225 c 0.44999,0.42003 0.67499,0.93003 0.675,1.53 -1e-5,0.60003 -0.22501,1.12503 -0.675,1.575 -0.42001,0.42003 -0.93001,0.63003 -1.53,0.63 -0.6,3e-5 -1.125,-0.20997 -1.575,-0.63 -0.42,-0.44997 -0.63,-0.97497 -0.63,-1.575 0,-0.59997 0.21,-1.10997 0.63,-1.53 0.45,-0.44997 0.975,-0.67497 1.575,-0.675 0.59999,3e-5 1.10999,0.22503 1.53,0.675" />
      <path
         id="path10709"
         style=""
         d="m 297.07219,866.81336 c -2e-5,1.83001 -0.78002,3.33001 -2.34,4.5 -1.56001,1.14 -3.39001,1.71 -5.49,1.71 -2.88001,0 -5.505,-0.675 -7.875,-2.025 l 0,-1.89 c 2.37,1.35001 4.99499,2.02501 7.875,2.025 1.19999,10e-6 2.23499,-0.31499 3.105,-0.945 0.89999,-0.62999 1.34999,-1.45499 1.35,-2.475 -10e-6,-1.04999 -0.46501,-1.91999 -1.395,-2.61 -0.93001,-0.68999 -2.08501,-1.19999 -3.465,-1.53 -4.74,-1.16999 -7.11,-3.05998 -7.11,-5.67 0,-1.76998 0.735,-3.20998 2.205,-4.32 1.49999,-1.13998 3.26999,-1.70998 5.31,-1.71 2.45999,2e-5 4.70999,0.67502 6.75,2.025 l 0,1.89 c -2.04001,-1.34998 -4.29001,-2.02498 -6.75,-2.025 -1.11001,2e-5 -2.08501,0.30002 -2.925,0.9 -0.81001,0.60002 -1.215,1.36502 -1.215,2.295 0,1.62002 1.49999,2.80502 4.5,3.555 4.97999,1.20002 7.46998,3.30001 7.47,6.3" />
    </g>
    <rect
       ry="0"
       rx="0"
       y="809.41803"
       x="175.06706"
       height="113.17416"
       width="194.01286"
       id="rect3773"
       style="fill:none;stroke:#008080;stroke-width:1;stroke-miterlimit:4;stroke-opacity:1;stroke-dasharray:3.99999978, 1.9999999, 0.99999996, 1.9999999;stroke-dashoffset:0"
       transform="matrix(0.82734714,-0.56169094,0.56169094,0.82734714,0,0)" />
    <rect
       ry="0"
       rx="0"
       y="12.360841"
       x="-6.1035153e-05"
       height="1020"
       width="1060.0001"
       id="rect3787"
       style="fill:none;stroke:#008080;stroke-width:1;stroke-miterlimit:4;stroke-opacity:1;stroke-dasharray:3.99999997, 1.99999998, 1, 1.99999998;stroke-dashoffset:0" />
    <rect
       transform="matrix(0.48292513,0.87566164,-0.87566164,0.48292513,0,0)"
       ry="0"
       rx="0"
       y="-26.204351"
       x="527.84229"
       height="155"
       width="460"
       id="rect4308"
       style="fill:none;stroke:#008080;stroke-width:1;stroke-miterlimit:4;stroke-opacity:1;stroke-dasharray:4.00000001, 2, 1, 2;stroke-dashoffset:0" />
    <g
       inkscape:label="Calque 1"
       id="layer1-8"
       transform="matrix(2.3185398,0,0,2.3185398,-683.9555,-1044.6717)">
      <path
         sodipodi:nodetypes="csssssssscc"
         style="fill:#ffcc00;fill-opacity:1;stroke:#ffcc00;stroke-width:0.99921262;stroke-linecap:round;stroke-linejoin:miter;stroke-miterlimit:4;stroke-opacity:1;stroke-dasharray:none;stroke-dashoffset:0"
         d="m 664.99729,654.7941 c -0.97165,-3.16732 -3.59682,-16.13813 -5.08854,-25.14219 -2.99137,-18.05589 -4.38349,-32.97732 -5.10094,-54.67451 -0.28238,-8.53959 -2.51004,-11.24649 -1.8298,-11.24649 2.82778,0 19.15374,7.91109 25.29911,11.99238 12.37658,8.21958 18.92606,18.74124 19.57856,31.45273 0.2441,4.75551 0.13785,5.72066 -1.02871,9.34391 -2.68567,8.34152 -7.54548,18.74304 -17.97061,29.1591 -3.61501,3.61186 -9.34922,9.59398 -10.78264,10.78265 -2.2368,1.85487 -2.83986,-0.89642 -3.07643,-1.66758 z"
         id="path3007"
         inkscape:connector-curvature="0" />
      <path
         style="fill:#ff6600;fill-opacity:1;stroke:#ff6600;stroke-width:2;stroke-linecap:round;stroke-linejoin:miter;stroke-miterlimit:4;stroke-opacity:1;stroke-dasharray:none;stroke-dashoffset:0"
         d="m 392.34969,654.33945 c -21.01871,-49.20118 -27.20832,-97.82124 -15.39989,-120.96768 6.89705,-13.51934 20.88367,-19.67638 38.80994,-17.08451 8.17657,1.18221 23.92626,4.34053 25.37483,5.7121 0.38519,0.36471 -3.38434,3.52038 -5.32117,6.57609 -4.77582,7.53471 -13.59934,25.79204 -17.81905,36.87057 -11.0807,29.09149 -18.25056,66.19899 -20.59074,101.76543 -0.20638,3.13669 -0.45967,-2.11765 -5.05392,-12.872 z"
         id="path3792"
         inkscape:connector-curvature="0"
         sodipodi:nodetypes="ssssssss" />
      <path
         style="fill:#ddafe9;fill-opacity:1;stroke:#ddafe9;stroke-width:1px;stroke-linecap:butt;stroke-linejoin:miter;stroke-opacity:1"
         d="m 659.6783,501.37697 c -2.32457,0.18254 -4.63554,0.7783 -6.73004,1.81127 -1.19619,0.62935 -2.55003,1.56007 -2.64453,3.03612 -0.0533,2.06356 1.38811,3.95547 3.28485,4.67629 2.24586,0.88314 4.80077,0.66421 7.04242,-0.11235 3.30401,-1.2278 5.79168,-4.03779 7.27879,-7.16473 0.17924,-0.50913 0.93604,-1.39354 -0.0862,-1.2817 -2.66099,-0.42607 -5.33029,-0.91746 -8.03145,-0.96818 l -0.11381,0.003 z"
         id="path3800"
         inkscape:connector-curvature="0" />
      <path
         style="fill:#00ccff;fill-opacity:1;stroke:#00ccff;stroke-opacity:1"
         d="m 578.80989,789.72063 c -23.32273,-8.15737 -33.49713,-20.50991 -31.22416,-32.62588 1.49377,-7.96247 12.51465,-20.8437 29.78472,-34.67555 9.8613,-7.89806 35.84172,-26.23573 40.58446,-29.12029 1.14694,-0.69758 0.1926,2.99527 -0.37919,10.86886 -2.19579,30.23646 -6.65443,51.981 -15.23634,71.45272 -3.72069,8.44198 -8.50455,18.89224 -9.62408,18.76319 -0.35877,-0.0413 -6.18317,-1.67097 -9.88755,-2.96662 z"
         id="path3794"
         inkscape:connector-curvature="0"
         sodipodi:nodetypes="csssssccc" />
      <path
         style="fill:#000000;stroke:#000000;stroke-width:2;stroke-linecap:butt;stroke-linejoin:round;stroke-miterlimit:4;stroke-opacity:1;stroke-dasharray:none"
         d="m 411.31698,699.86309 c -49.8102,-78.02369 -78.30419,-243.65316 58.48655,-165.26508 1.43718,0.61504 -2.0856,0.67762 -2.72898,0.30382 -135.87891,-78.94554 -100.53198,90.20404 -56.68196,158.17157 28.57143,44.28572 168.57142,262.85714 -94.28572,162.85714 -1.50165,-0.5424 -0.69994,-8.16718 0.90478,-7.547 239.71544,92.64396 144.11553,-70.49676 94.30533,-148.52045 z"
         id="path2985"
         inkscape:connector-curvature="0"
         sodipodi:nodetypes="zcsscsz" />
      <path
         style="fill:#000000;stroke:#000000;stroke-width:2;stroke-linecap:butt;stroke-linejoin:round;stroke-miterlimit:4;stroke-opacity:1;stroke-dasharray:none"
         d="m 699.18299,605.89916 c -3.85252,-54.40181 -114.73182,-53.82168 -156.29061,-54.25384 -1.32856,-0.022 -0.36044,1.50984 0.18681,1.50222 48.39981,-0.67368 152.45649,0.0865 156.59911,52.55961 4.28572,54.28589 -160.71429,118.79483 -152.14286,157.36626 8.57143,38.57142 111.42857,42.85714 151.42857,42.85714 3.57143,0.35714 4.41833,-4.40812 -0.55003,-4.74693 -58.31047,-3.97642 -206.02141,-8.74237 -128.51312,-71.45528 44.36713,-35.89799 132.98622,-71.52329 129.28213,-123.82918 z"
         id="path2989"
         inkscape:connector-curvature="0"
         sodipodi:nodetypes="scssscsss" />
      <path
         style="fill:#000000;stroke:#000000;stroke-width:2;stroke-linecap:butt;stroke-linejoin:round;stroke-miterlimit:4;stroke-opacity:1;stroke-dasharray:none"
         d="m 733.91622,734.95854 c -73.61365,8.33242 -88.58771,-155.09604 -76.90831,-207.20046 -19.51736,87.16418 20.40332,220.49231 77.34839,211.95055 4.16688,-0.75761 3.09545,-5.5077 -0.44008,-4.75009 z"
         id="path2991"
         inkscape:connector-curvature="0"
         sodipodi:nodetypes="cccc" />
      <path
         style="fill:#000000;stroke:#000000;stroke-width:2;stroke-linecap:butt;stroke-linejoin:round;stroke-miterlimit:4;stroke-opacity:1;stroke-dasharray:none"
         d="m 665.67537,508.00792 c 4.13445,-4.23376 5.65909,-16.14927 5.62971,-15.91986 -0.68185,5.32365 -2.02371,10.79795 -5.42022,15.06936 -2.26421,2.88157 -5.8962,3.59134 -7.48624,3.23957 -4.66074,-0.50154 -4.91608,-4.18437 -5.65193,-8.23608 -0.10462,-0.57606 -0.55251,-2.23088 -2.40042,-0.71228 -2.28916,2.55542 -2.32441,6.5932 -0.85636,8.03346 5.2342,5.13508 12.05102,2.75959 16.18546,-1.47417 z"
         id="path3763"
         inkscape:connector-curvature="0"
         sodipodi:nodetypes="zsccscsz" />
      <path
         inkscape:connector-curvature="0"
         id="path3846"
         style="fill:#000000;stroke:#000000;stroke-width:2;stroke-linecap:butt;stroke-linejoin:miter;stroke-miterlimit:4;stroke-opacity:1;stroke-dasharray:none"
         d="m 493.65967,486.07849 c 117.77719,-29.78972 182.70067,302.04509 48.13304,341.8111 -193.81862,57.27524 -172.17339,-310.43722 -48.13304,-341.8111 z m 13.68655,-7.29079 c -115.06127,1.20709 -170.54197,344.38926 -2.66791,357.14286 182.47821,13.8631 117.72918,-358.34995 2.66791,-357.14286 z" />
    </g>
    <path
       sodipodi:nodetypes="cc"
       transform="translate(0,-10.631225)"
       inkscape:connector-curvature="0"
       id="path3153"
       d="m 260,532.99207 c 60,100 160,260 160,330"
       style="fill:none;stroke:none;stroke-width:1px;stroke-linecap:butt;stroke-linejoin:miter;stroke-opacity:1" />
    <g
       id="text3183"
       style="font-size:45px;font-style:normal;font-variant:normal;font-weight:normal;font-stretch:normal;line-height:125%;letter-spacing:0px;word-spacing:0px;fill:#000000;fill-opacity:1;stroke:none;font-family:Iwona;-inkscape-font-specification:Iwona"
       inkscape:transform-center-y="2.2692019"
       inkscape:transform-center-x="1.425589"
       transform="matrix(-0.40176277,-0.91574378,0.91574378,-0.40176277,0,0)">
      <path
         id="path10700"
         style=""
         d="m -767.36465,573.85518 c -1.50001,1.35 -3.045,2.025 -4.635,2.025 -1.23,0 -2.175,-0.6 -2.835,-1.8 -0.66,-1.2 -0.99,-2.625 -0.99,-4.275 l 0,-14.625 3.51,0 0,14.625 c 0,2.67 0.66,4.005 1.98,4.005 0.95999,0 1.94999,-0.435 2.97,-1.305 l 0,1.35 m -5.175,-27.225 c 0.45,0.42002 0.675,0.93002 0.675,1.53 0,0.60002 -0.225,1.12502 -0.675,1.575 -0.42,0.42002 -0.93,0.63002 -1.53,0.63 -0.6,2e-5 -1.125,-0.20998 -1.575,-0.63 -0.42,-0.44998 -0.63,-0.97498 -0.63,-1.575 0,-0.59998 0.21,-1.10998 0.63,-1.53 0.45,-0.44997 0.975,-0.67497 1.575,-0.675 0.6,3e-5 1.11,0.22503 1.53,0.675" />
      <path
         id="path10702"
         style=""
         d="m -749.17551,569.67018 c -10e-6,1.83 -0.78001,3.33 -2.34,4.5 -1.56001,1.14 -3.39001,1.71 -5.49,1.71 -2.88,0 -5.505,-0.675 -7.875,-2.025 l 0,-1.89 c 2.37,1.35 4.995,2.025 7.875,2.025 1.19999,0 2.23499,-0.315 3.105,-0.945 0.89999,-0.63 1.34999,-1.455 1.35,-2.475 -10e-6,-1.05 -0.46501,-1.92 -1.395,-2.61 -0.93001,-0.69 -2.08501,-1.2 -3.465,-1.53 -4.74,-1.16999 -7.11,-3.05999 -7.11,-5.67 0,-1.76999 0.735,-3.20999 2.205,-4.32 1.5,-1.13998 3.27,-1.70998 5.31,-1.71 2.45999,2e-5 4.70999,0.67502 6.75,2.025 l 0,1.89 c -2.04001,-1.34999 -4.29001,-2.02499 -6.75,-2.025 -1.11,10e-6 -2.085,0.30001 -2.925,0.9 -0.81,0.60001 -1.215,1.36501 -1.215,2.295 0,1.62001 1.5,2.80501 4.5,3.555 4.97999,1.20001 7.46999,3.3 7.47,6.3" />
    </g>
    <rect
       transform="matrix(-0.38507619,-0.92288479,0.92288479,-0.38507619,0,0)"
       style="fill:none;stroke:#008080;stroke-width:0.99999994;stroke-miterlimit:4;stroke-opacity:1;stroke-dasharray:3.99999977, 1.99999989, 0.99999997, 1.99999989;stroke-dashoffset:0"
       id="rect4875"
       width="188.108"
       height="109.72966"
       x="-844.39709"
       y="527.99518"
       rx="0"
       ry="0" />
  </g>
</svg>
