<?xml version="1.0" encoding="UTF-8" standalone="no"?>
<!-- Created with Inkscape (http://www.inkscape.org/) -->

<svg
   xmlns:ns1="http://sozi.baierouge.fr"
   xmlns:dc="http://purl.org/dc/elements/1.1/"
   xmlns:cc="http://creativecommons.org/ns#"
   xmlns:rdf="http://www.w3.org/1999/02/22-rdf-syntax-ns#"
   xmlns:svg="http://www.w3.org/2000/svg"
   xmlns="http://www.w3.org/2000/svg"
   xmlns:sodipodi="http://sodipodi.sourceforge.net/DTD/sodipodi-0.dtd"
   xmlns:inkscape="http://www.inkscape.org/namespaces/inkscape"
   width="210mm"
   height="297mm"
   id="svg2"
   version="1.1"
   inkscape:version="0.48.2 r9819"
   sodipodi:docname="layers.svg">
  <sodipodi:namedview
     id="base"
     pagecolor="#ffffff"
     bordercolor="#666666"
     borderopacity="1.0"
     inkscape:pageopacity="0.0"
     inkscape:pageshadow="2"
     inkscape:zoom="3.959798"
     inkscape:cx="410.61107"
     inkscape:cy="826.07974"
     inkscape:document-units="px"
     inkscape:current-layer="layer1"
     showgrid="true"
     inkscape:window-width="1280"
     inkscape:window-height="971"
     inkscape:window-x="0"
     inkscape:window-y="26"
     inkscape:window-maximized="1">
    <inkscape:grid
       type="xygrid"
       id="grid2985"
       empspacing="5"
       visible="true"
       enabled="true"
       snapvisiblegridlinesonly="true"
       units="mm"
       spacingx="1mm"
       spacingy="1mm" />
  </sodipodi:namedview>
  <defs
     id="defs4" />
  <metadata
     id="metadata7">
    <rdf:RDF>
      <cc:Work
         rdf:about="">
        <dc:format>image/svg+xml</dc:format>
        <dc:type
           rdf:resource="http://purl.org/dc/dcmitype/StillImage" />
        <dc:title />
      </cc:Work>
    </rdf:RDF>
  </metadata>
  <g
     inkscape:groupmode="layer"
     id="layer2"
     inkscape:label="Colors"
     style="display:inline">
    <path
       sodipodi:type="arc"
       style="fill:#ff0000;fill-opacity:1;fill-rule:nonzero;stroke:none;display:inline"
       id="path3023"
       sodipodi:cx="301.18109"
       sodipodi:cy="166.53542"
       sodipodi:rx="17.716536"
       sodipodi:ry="17.716536"
       d="m 318.89763,166.53542 a 17.716536,17.716536 0 1 1 -35.43307,0 17.716536,17.716536 0 1 1 35.43307,0 z"
       transform="matrix(0.8660254,-0.5,0.5,0.8660254,-42.917081,194.1619)" />
    <path
       d="m 318.89763,166.53542 a 17.716536,17.716536 0 1 1 -35.43307,0 17.716536,17.716536 0 1 1 35.43307,0 z"
       sodipodi:ry="17.716536"
       sodipodi:rx="17.716536"
       sodipodi:cy="166.53542"
       sodipodi:cx="301.18109"
       id="path3025"
       style="fill:#ff00ff;fill-opacity:1;fill-rule:nonzero;stroke:none;display:inline"
       sodipodi:type="arc"
       transform="matrix(0.8660254,0.5,-0.5,0.8660254,159.05141,-107.01919)" />
    <path
       transform="matrix(0,1,-1,0,517.32282,-81.496074)"
       sodipodi:type="arc"
       style="fill:#0000ff;fill-opacity:1;fill-rule:nonzero;stroke:none;display:inline"
       id="path3027"
       sodipodi:cx="301.18109"
       sodipodi:cy="166.53542"
       sodipodi:rx="17.716536"
       sodipodi:ry="17.716536"
       d="m 318.89763,166.53542 a 17.716536,17.716536 0 1 1 -35.43307,0 17.716536,17.716536 0 1 1 35.43307,0 z" />
    <path
       d="m 318.89763,166.53542 a 17.716536,17.716536 0 1 1 -35.43307,0 17.716536,17.716536 0 1 1 35.43307,0 z"
       sodipodi:ry="17.716536"
       sodipodi:rx="17.716536"
       sodipodi:cy="166.53542"
       sodipodi:cx="301.18109"
       id="path3029"
       style="fill:#00ffff;fill-opacity:1;fill-rule:nonzero;stroke:none;display:inline"
       sodipodi:type="arc"
       transform="matrix(-0.8660254,0.5,-0.5,-0.8660254,680.71236,245.20814)" />
    <path
       transform="matrix(-0.8660254,-0.5,0.5,-0.8660254,478.74387,546.38923)"
       sodipodi:type="arc"
       style="fill:#00ff00;fill-opacity:1;fill-rule:nonzero;stroke:none;display:inline"
       id="path3031"
       sodipodi:cx="301.18109"
       sodipodi:cy="166.53542"
       sodipodi:rx="17.716536"
       sodipodi:ry="17.716536"
       d="m 318.89763,166.53542 a 17.716536,17.716536 0 1 1 -35.43307,0 17.716536,17.716536 0 1 1 35.43307,0 z" />
    <path
       d="m 318.89763,166.53542 a 17.716536,17.716536 0 1 1 -35.43307,0 17.716536,17.716536 0 1 1 35.43307,0 z"
       sodipodi:ry="17.716536"
       sodipodi:rx="17.716536"
       sodipodi:cy="166.53542"
       sodipodi:cx="301.18109"
       id="path3033"
       style="fill:#ffff00;fill-opacity:1;fill-rule:nonzero;stroke:none;display:inline"
       sodipodi:type="arc"
       transform="matrix(0,-1,1,0,120.47246,520.86611)" />
  </g>
  <g
     inkscape:label="Names"
     inkscape:groupmode="layer"
     id="layer1"
     style="display:inline">
    <g
       style="font-size:24px;font-style:normal;font-variant:normal;font-weight:normal;font-stretch:normal;text-align:center;line-height:125%;letter-spacing:0px;word-spacing:0px;writing-mode:lr-tb;text-anchor:middle;fill:#000000;fill-opacity:1;stroke:none;font-family:Iwona;-inkscape-font-specification:Iwona"
       id="text2997"
       transform="translate(0,-0.5979692)">
      <path
         d="m 438.35377,148.81888 -5.112,-7.608 c 2.61599,-0.504 4.416,-1.944 4.416,-4.632 0,-3.384 -2.90401,-4.8 -6.672,-4.8 -1.344,0 -2.68801,0.072 -4.008,0.24 l -1.92,0 0,16.8 1.968,0 0,-7.8 c 1.29599,0.24 2.64,0.384 3.96,0.384 l 5.016,7.416 2.352,0 m -3.048,-12.24 c 0,2.184 -2.04001,3.72 -4.32,3.72 -1.32,0 -2.66401,-0.144 -3.96,-0.384 l 0,-6.792 c 1.31999,-0.168 2.64,-0.24 3.96,-0.24 2.27999,0 4.32,1.536 4.32,3.696"
         id="path3117"
         inkscape:connector-curvature="0" />
      <path
         d="m 449.20889,143.65888 0,-0.24 c 0,-3.384 -1.848,-5.64 -4.632,-5.64 -2.808,0 -4.656,2.256 -4.656,5.64 0,3.38399 1.848,5.64 4.656,5.64 1.2,0 2.376,-0.384 3.36,-1.08 l 0,-1.008 c -1.128,0.72 -2.04,0.984 -3.36,0.984 -2.04,0 -2.544,-1.944 -2.544,-4.296 l 7.176,0 m -2.112,-1.008 -5.064,0 c 0,-1.92 0.816,-3.864 2.544,-3.864 1.704,0 2.52,1.944 2.52,3.864"
         id="path3119"
         inkscape:connector-curvature="0" />
      <path
         d="m 461.02139,148.81888 0,-16.8 -1.872,0 0,6.408 c -0.936,-0.408 -1.944,-0.648 -2.952,-0.648 -3,0 -4.464,2.4 -4.464,5.64 0,3.19199 1.2,5.64 4.104,5.64 1.224,0 2.352,-0.552 3.312,-1.32 l 0,1.08 1.872,0 m -1.872,-2.088 c -0.72,0.72 -1.608,1.32 -2.64,1.32 -2.184,0 -2.664,-2.112 -2.664,-4.632 0,-2.256 0.696,-4.632 2.664,-4.632 0.912,0 1.824,0.24 2.64,0.648 l 0,7.296"
         id="path3121"
         inkscape:connector-curvature="0" />
    </g>
    <g
       style="font-size:24px;font-style:normal;font-variant:normal;font-weight:normal;font-stretch:normal;text-align:center;line-height:125%;letter-spacing:0px;word-spacing:0px;writing-mode:lr-tb;text-anchor:middle;fill:#000000;fill-opacity:1;stroke:none;font-family:Iwona;-inkscape-font-specification:Iwona"
       id="text3003"
       transform="translate(0,34.826402)">
      <path
         d="m 427.50445,248.03148 0,-7.056 -1.968,0 0,4.632 c -1.248,1.008 -2.784,1.56 -4.392,1.56 -3.81599,0 -5.4,-3.28801 -5.4,-7.536 0,-4.248 1.58401,-7.536 5.4,-7.536 2.256,0 4.39201,0.888 5.976,2.496 l 0,-1.104 c -1.58399,-1.608 -3.72,-2.496 -5.976,-2.496 -4.94399,0 -7.752,3.504 -7.752,8.64 0,5.13599 2.80801,8.64 7.752,8.64 1.608,0 3.144,-0.552 4.392,-1.56 l 0,1.32 1.968,0"
         id="path3106"
         inkscape:connector-curvature="0" />
      <path
         d="m 437.33283,238.71948 0,-1.488 c -0.264,-0.096 -0.552,-0.168 -0.816,-0.168 -1.344,0 -2.424,0.936 -3.288,1.968 l 0,-1.8 -1.872,0 0,10.8 1.872,0 0,-7.992 c 0.72,-0.84 1.632,-1.56 2.736,-1.56 0.456,0 0.936,0.096 1.368,0.24"
         id="path3108"
         inkscape:connector-curvature="0" />
      <path
         d="m 448.43545,242.87148 0,-0.24 c 0,-3.384 -1.848,-5.64 -4.632,-5.64 -2.80799,0 -4.656,2.256 -4.656,5.64 0,3.384 1.84801,5.64 4.656,5.64 1.2,0 2.376,-0.384 3.36,-1.08 l 0,-1.008 c -1.128,0.72 -2.04,0.984 -3.36,0.984 -2.03999,0 -2.544,-1.944 -2.544,-4.296 l 7.176,0 m -2.112,-1.008 -5.064,0 c 0,-1.92 0.81601,-3.864 2.544,-3.864 1.704,0 2.52,1.944 2.52,3.864"
         id="path3110"
         inkscape:connector-curvature="0" />
      <path
         d="m 460.24795,242.87148 0,-0.24 c 0,-3.384 -1.848,-5.64 -4.632,-5.64 -2.80799,0 -4.656,2.256 -4.656,5.64 0,3.384 1.84801,5.64 4.656,5.64 1.2,0 2.376,-0.384 3.36,-1.08 l 0,-1.008 c -1.128,0.72 -2.04,0.984 -3.36,0.984 -2.03999,0 -2.544,-1.944 -2.544,-4.296 l 7.176,0 m -2.112,-1.008 -5.064,0 c 0,-1.92 0.81601,-3.864 2.544,-3.864 1.704,0 2.52,1.944 2.52,3.864"
         id="path3112"
         inkscape:connector-curvature="0" />
      <path
         d="m 472.06045,248.03148 0,-7.8 c 0,-1.752 -1.344,-3.24 -3.072,-3.24 -1.43999,0 -2.712,0.816 -3.744,1.824 l 0,-1.584 -1.872,0 0,10.8 1.872,0 0,-8.472 c 0.816,-0.816 1.824,-1.464 2.952,-1.464 1.128,0 1.992,0.984 1.992,2.136 l 0,7.8 1.872,0"
         id="path3114"
         inkscape:connector-curvature="0" />
    </g>
    <g
       style="font-size:24px;font-style:normal;font-variant:normal;font-weight:normal;font-stretch:normal;text-align:center;line-height:125%;letter-spacing:0px;word-spacing:0px;writing-mode:lr-tb;text-anchor:middle;fill:#000000;fill-opacity:1;stroke:none;font-family:Iwona;-inkscape-font-specification:Iwona"
       id="text3007"
       transform="translate(0,20.583312)">
      <path
         d="m 434.12433,193.86517 c 0,-2.64 -1.728,-4.032 -4.248,-4.56 1.848,-0.552 3.072,-1.752 3.072,-3.792 0,-2.928 -2.52,-4.128 -5.76,-4.128 -1.248,0 -2.496,0.072 -3.744,0.24 l -1.92,0 0,16.8 1.92,0 3.744,0.24 c 3.88799,0 6.936,-1.32 6.936,-4.8 m -3.144,-8.352 c 0,2.424 -2.712,3.672 -5.424,3.672 l -2.064,0 0,-6.456 c 1.224,-0.168 2.472,-0.24 3.696,-0.24 1.968,0 3.792,1.2 3.792,3.024 m 0.792,8.352 c 0,2.208 -2.184,3.696 -4.584,3.696 -1.224,0 -2.472,-0.072 -3.696,-0.24 l 0,-7.296 3.096,0 c 2.64,0 5.184,1.416 5.184,3.84"
         id="path3097"
         inkscape:connector-curvature="0" />
      <path
         d="m 442.00945,197.58517 0,-0.72 c -0.456,0.384 -0.984,0.696 -1.584,0.696 -0.888,0 -1.056,-1.104 -1.056,-2.136 l 0,-13.8 -1.872,0 0,13.8 c 0,1.608 0.62401,3.24 2.04,3.24 0.912,0 1.776,-0.456 2.472,-1.08"
         id="path3099"
         inkscape:connector-curvature="0" />
      <path
         d="m 452.95608,198.42517 0,-10.8 -1.872,0 0,8.472 c -0.816,0.816 -1.824,1.464 -2.952,1.464 -1.128,0 -1.992,-0.984 -1.992,-2.136 l 0,-7.8 -1.872,0 0,7.8 c 0,1.752 1.344,3.24 3.072,3.24 1.44,0 2.712,-0.816 3.744,-1.824 l 0,1.584 1.872,0"
         id="path3101"
         inkscape:connector-curvature="0" />
      <path
         d="m 465.49795,193.26517 0,-0.24 c 0,-3.384 -1.848,-5.64 -4.632,-5.64 -2.80799,0 -4.656,2.256 -4.656,5.64 0,3.384 1.84801,5.64 4.656,5.64 1.2,0 2.376,-0.384 3.36,-1.08 l 0,-1.008 c -1.128,0.72 -2.04,0.984 -3.36,0.984 -2.03999,0 -2.544,-1.944 -2.544,-4.296 l 7.176,0 m -2.112,-1.008 -5.064,0 c 0,-1.92 0.81601,-3.864 2.544,-3.864 1.704,0 2.52,1.944 2.52,3.864"
         id="path3103"
         inkscape:connector-curvature="0" />
    </g>
    <g
       style="font-size:24px;font-style:normal;font-variant:normal;font-weight:normal;font-stretch:normal;text-align:center;line-height:125%;letter-spacing:0px;word-spacing:0px;writing-mode:lr-tb;text-anchor:middle;fill:#000000;fill-opacity:1;stroke:none;font-family:Iwona;-inkscape-font-specification:Iwona"
       id="text3011"
       transform="translate(0,41.827929)">
      <path
         d="m 423.94495,256.03463 -1.296,0 -5.112,8.496 -4.56,-8.496 -2.232,0 5.616,10.08 0,6.72 1.968,0 0,-7.464 5.616,-9.336"
         id="path3084"
         inkscape:connector-curvature="0" />
      <path
         d="m 432.49795,267.67463 0,-0.24 c 0,-3.384 -1.848,-5.64 -4.632,-5.64 -2.80799,0 -4.656,2.256 -4.656,5.64 0,3.38399 1.84801,5.64 4.656,5.64 1.2,0 2.376,-0.38401 3.36,-1.08 l 0,-1.008 c -1.128,0.71999 -2.04,0.984 -3.36,0.984 -2.03999,0 -2.544,-1.94401 -2.544,-4.296 l 7.176,0 m -2.112,-1.008 -5.064,0 c 0,-1.92 0.81601,-3.864 2.544,-3.864 1.704,0 2.52,1.944 2.52,3.864"
         id="path3086"
         inkscape:connector-curvature="0" />
      <path
         d="m 440.13445,271.99463 0,-0.72 c -0.456,0.38399 -0.984,0.696 -1.584,0.696 -0.888,0 -1.056,-1.10401 -1.056,-2.136 l 0,-13.8 -1.872,0 0,13.8 c 0,1.60799 0.62401,3.24 2.04,3.24 0.912,0 1.776,-0.45601 2.472,-1.08"
         id="path3088"
         inkscape:connector-curvature="0" />
      <path
         d="m 447.02508,271.99463 0,-0.72 c -0.456,0.38399 -0.984,0.696 -1.584,0.696 -0.888,0 -1.056,-1.10401 -1.056,-2.136 l 0,-13.8 -1.872,0 0,13.8 c 0,1.60799 0.624,3.24 2.04,3.24 0.912,0 1.776,-0.45601 2.472,-1.08"
         id="path3090"
         inkscape:connector-curvature="0" />
      <path
         d="m 458.0917,267.43463 c 0,-3.672 -1.632,-5.64 -4.632,-5.64 -3.02399,0 -4.656,1.968 -4.656,5.64 0,3.67199 1.63201,5.64 4.656,5.64 3,0 4.632,-1.96801 4.632,-5.64 m -2.112,0 c 0,2.99999 -0.888,4.632 -2.52,4.632 -1.65599,0 -2.544,-1.63201 -2.544,-4.632 0,-3 0.88801,-4.632 2.544,-4.632 1.632,0 2.52,1.632 2.52,4.632"
         id="path3092"
         inkscape:connector-curvature="0" />
      <path
         d="m 475.08595,262.03463 -1.056,0 -2.832,8.76 -2.712,-8.76 -1.296,0 -2.832,8.76 -2.736,-8.76 -1.752,0 3.36,10.8 1.512,0 2.712,-8.4 2.616,8.4 1.512,0 3.504,-10.8"
         id="path3094"
         inkscape:connector-curvature="0" />
    </g>
    <g
       style="font-size:24px;font-style:normal;font-variant:normal;font-weight:normal;font-stretch:normal;text-align:center;line-height:125%;letter-spacing:0px;word-spacing:0px;writing-mode:lr-tb;text-anchor:middle;fill:#000000;fill-opacity:1;stroke:none;font-family:Iwona;-inkscape-font-specification:Iwona"
       id="text3015"
       transform="translate(0,6.1700839)">
      <path
         d="m 417.69558,173.62202 -0.96,-16.8 -1.584,0 -6.744,14.184 -6.768,-14.184 -1.584,0 -0.96,16.8 1.104,0 0.768,-13.608 6.504,13.608 0.888,0 6.576,-13.776 0.792,13.776 1.968,0"
         id="path3069"
         inkscape:connector-curvature="0" />
      <path
         d="m 429.49233,173.62202 0,-6.72 c 0,-2.25599 -1.392,-4.32 -3.48,-4.32 -1.536,0 -2.976,0.52801 -4.272,1.344 l 0,0.744 c 1.08,-0.59999 2.28,-0.984 3.528,-0.984 1.488,0 2.352,1.58401 2.352,3.216 l 0,0.432 c -0.936,-0.408 -1.944,-0.648 -2.952,-0.648 -2.568,0 -4.464,1.17601 -4.464,3.6 0,2.304 1.68,3.576 4.104,3.576 1.224,0 2.352,-0.552 3.312,-1.32 l 0,1.08 1.872,0 m -1.872,-2.088 c -0.72,0.72 -1.608,1.32 -2.64,1.32 -1.608,0 -2.664,-0.984 -2.664,-2.568 0,-1.46399 1.2,-2.592 2.664,-2.592 0.912,0 1.824,0.24 2.64,0.648 l 0,3.192"
         id="path3071"
         inkscape:connector-curvature="0" />
      <path
         d="m 442.01358,175.06202 0,-12.24 -1.872,0 0,0.408 c -0.936,-0.408 -1.944,-0.648 -2.952,-0.648 -3,0 -4.464,2.40001 -4.464,5.64 0,3.192 1.2,5.64 4.104,5.64 1.224,0 2.352,-0.552 3.312,-1.32 l 0,2.52 c 0,1.656 -0.912,3.216 -2.4,3.216 -1.224,0 -2.448,-0.24 -3.6,-0.648 l 0,0.744 c 1.344,0.624 2.832,1.008 4.32,1.008 2.112,0 3.552,-2.064 3.552,-4.32 m -1.872,-3.528 c -0.72,0.72 -1.608,1.32 -2.64,1.32 -2.184,0 -2.664,-2.112 -2.664,-4.632 0,-2.25599 0.696,-4.632 2.664,-4.632 0.912,0 1.824,0.24 2.64,0.648 l 0,7.296"
         id="path3073"
         inkscape:connector-curvature="0" />
      <path
         d="m 454.5292,168.46202 0,-0.24 c 0,-3.38399 -1.848,-5.64 -4.632,-5.64 -2.80799,0 -4.656,2.25601 -4.656,5.64 0,3.384 1.84801,5.64 4.656,5.64 1.2,0 2.376,-0.384 3.36,-1.08 l 0,-1.008 c -1.128,0.72 -2.04,0.984 -3.36,0.984 -2.03999,0 -2.544,-1.944 -2.544,-4.296 l 7.176,0 m -2.112,-1.008 -5.064,0 c 0,-1.91999 0.81601,-3.864 2.544,-3.864 1.704,0 2.52,1.94401 2.52,3.864"
         id="path3075"
         inkscape:connector-curvature="0" />
      <path
         d="m 466.3417,173.62202 0,-7.8 c 0,-1.75199 -1.344,-3.24 -3.072,-3.24 -1.43999,0 -2.712,0.81601 -3.744,1.824 l 0,-1.584 -1.872,0 0,10.8 1.872,0 0,-8.472 c 0.816,-0.81599 1.824,-1.464 2.952,-1.464 1.128,0 1.992,0.98401 1.992,2.136 l 0,7.8 1.872,0"
         id="path3077"
         inkscape:connector-curvature="0" />
      <path
         d="m 475.16358,172.78202 0,-0.72 c -0.384,0.384 -0.84,0.696 -1.392,0.696 -0.864,0 -0.912,-1.128 -0.912,-2.136 l 0,-6.792 2.304,0 0,-1.008 -2.304,0 0,-3.6 -1.128,0 c 0,1.92 -1.104,3.72 -2.856,3.72 l 0,0.888 2.112,0 0,6.792 c 0,1.584 0.504,3.24 1.872,3.24 0.888,0 1.656,-0.48 2.304,-1.08"
         id="path3079"
         inkscape:connector-curvature="0" />
      <path
         d="m 486.25795,173.62202 0,-6.72 c 0,-2.25599 -1.392,-4.32 -3.48,-4.32 -1.53599,0 -2.976,0.52801 -4.272,1.344 l 0,0.744 c 1.08,-0.59999 2.28,-0.984 3.528,-0.984 1.488,0 2.352,1.58401 2.352,3.216 l 0,0.432 c -0.936,-0.408 -1.944,-0.648 -2.952,-0.648 -2.56799,0 -4.464,1.17601 -4.464,3.6 0,2.304 1.68001,3.576 4.104,3.576 1.224,0 2.352,-0.552 3.312,-1.32 l 0,1.08 1.872,0 m -1.872,-2.088 c -0.72,0.72 -1.608,1.32 -2.64,1.32 -1.60799,0 -2.664,-0.984 -2.664,-2.568 0,-1.46399 1.20001,-2.592 2.664,-2.592 0.912,0 1.824,0.24 2.64,0.648 l 0,3.192"
         id="path3081"
         inkscape:connector-curvature="0" />
    </g>
    <g
       style="font-size:24px;font-style:normal;font-variant:normal;font-weight:normal;font-stretch:normal;text-align:center;line-height:125%;letter-spacing:0px;word-spacing:0px;writing-mode:lr-tb;text-anchor:middle;fill:#000000;fill-opacity:1;stroke:none;font-family:Iwona;-inkscape-font-specification:Iwona"
       id="text3019"
       transform="translate(0,24.944841)">
      <path
         d="m 431.51433,210.46032 0,-1.296 c -1.296,-1.872 -3.432,-2.976 -5.688,-2.976 -4.872,0 -7.512,3.552 -7.512,8.64 0,5.08799 2.64,8.64 7.512,8.64 1.872,0 3.72,-0.552 5.304,-1.584 l 0,-1.104 c -1.584,1.032 -3.432,1.584 -5.304,1.584 -3.768,0 -5.16,-3.33601 -5.16,-7.536 0,-4.2 1.392,-7.536 5.16,-7.536 2.304,0 4.464,1.2 5.688,3.168"
         id="path3060"
         inkscape:connector-curvature="0" />
      <path
         d="m 442.31545,224.66832 0,-12.24 -1.872,0 0,8.472 c -0.816,0.816 -1.824,1.464 -2.952,1.464 -1.128,0 -1.992,-0.984 -1.992,-2.136 l 0,-7.8 -1.872,0 0,7.8 c 0,1.752 1.34401,3.24 3.072,3.24 1.44,0 2.712,-0.816 3.744,-1.824 l 0,3.024 c 0,1.608 -0.72,3.216 -2.16,3.216 -1.128,0 -2.208,-0.24 -3.24,-0.648 l 0,0.744 c 1.224,0.624 2.59201,1.008 3.984,1.008 2.04,0 3.288,-2.112 3.288,-4.32"
         id="path3062"
         inkscape:connector-curvature="0" />
      <path
         d="m 454.61733,223.22832 0,-6.72 c 0,-2.256 -1.392,-4.32 -3.48,-4.32 -1.536,0 -2.976,0.528 -4.272,1.344 l 0,0.744 c 1.08,-0.6 2.28,-0.984 3.528,-0.984 1.488,0 2.352,1.584 2.352,3.216 l 0,0.432 c -0.936,-0.408 -1.944,-0.648 -2.952,-0.648 -2.568,0 -4.464,1.176 -4.464,3.6 0,2.30399 1.68,3.576 4.104,3.576 1.224,0 2.352,-0.552 3.312,-1.32 l 0,1.08 1.872,0 m -1.872,-2.088 c -0.72,0.72 -1.608,1.32 -2.64,1.32 -1.608,0 -2.664,-0.984 -2.664,-2.568 0,-1.464 1.2,-2.592 2.664,-2.592 0.912,0 1.824,0.24 2.64,0.648 l 0,3.192"
         id="path3064"
         inkscape:connector-curvature="0" />
      <path
         d="m 467.13858,223.22832 0,-7.8 c 0,-1.752 -1.344,-3.24 -3.072,-3.24 -1.44,0 -2.712,0.816 -3.744,1.824 l 0,-1.584 -1.872,0 0,10.8 1.872,0 0,-8.472 c 0.816,-0.816 1.824,-1.464 2.952,-1.464 1.128,0 1.992,0.984 1.992,2.136 l 0,7.8 1.872,0"
         id="path3066"
         inkscape:connector-curvature="0" />
    </g>
  </g>
  <ns1:frame
     ns1:sequence="2"
     ns1:transition-duration-ms="1000"
     ns1:title="Magenta"
     ns1:timeout-ms="1500"
     ns1:timeout-enable="true"
     id="frame1">
    <ns1:layer
       ns1:refid="text3015"
       ns1:hide="false"
       ns1:clip="false"
       ns1:transition-zoom-percent="0"
       ns1:transition-profile="linear"
       ns1:group="layer1" />
    <ns1:layer
       ns1:refid="path3025"
       ns1:hide="false"
       ns1:clip="false"
       ns1:transition-zoom-percent="0"
       ns1:transition-profile="linear"
       ns1:group="layer2" />
  </ns1:frame>
  <ns1:frame
     ns1:timeout-enable="true"
     ns1:timeout-ms="1500"
     ns1:title="Red"
     ns1:transition-duration-ms="1000"
     ns1:sequence="1"
     id="frame2">
    <ns1:layer
       ns1:refid="text2997"
       ns1:hide="false"
       ns1:clip="false"
       ns1:transition-zoom-percent="0"
       ns1:transition-profile="linear"
       ns1:group="layer1" />
    <ns1:layer
       ns1:transition-profile="linear"
       ns1:transition-zoom-percent="0"
       ns1:clip="false"
       ns1:hide="false"
       ns1:refid="path3023"
       ns1:group="layer2" />
  </ns1:frame>
  <ns1:frame
     ns1:sequence="3"
     ns1:transition-duration-ms="1000"
     ns1:title="Blue"
     ns1:timeout-ms="1500"
     ns1:timeout-enable="true"
     id="frame3">
    <ns1:layer
       ns1:hide="false"
       ns1:clip="false"
       ns1:transition-profile="linear"
       ns1:transition-zoom-percent="0"
       ns1:refid="text3007"
       ns1:group="layer1" />
    <ns1:layer
       ns1:refid="path3027"
       ns1:hide="false"
       ns1:clip="false"
       ns1:transition-zoom-percent="0"
       ns1:transition-profile="linear"
       ns1:group="layer2" />
  </ns1:frame>
  <ns1:frame
     ns1:timeout-enable="true"
     ns1:timeout-ms="1500"
     ns1:title="Cyan"
     ns1:transition-duration-ms="1000"
     ns1:sequence="4"
     id="frame4">
    <ns1:layer
       ns1:clip="false"
       ns1:hide="false"
       ns1:transition-zoom-percent="0"
       ns1:transition-profile="linear"
       ns1:refid="text3019"
       ns1:group="layer1" />
    <ns1:layer
       ns1:transition-profile="linear"
       ns1:transition-zoom-percent="0"
       ns1:clip="false"
       ns1:hide="false"
       ns1:refid="path3029"
       ns1:group="layer2" />
  </ns1:frame>
  <ns1:frame
     ns1:sequence="5"
     ns1:transition-duration-ms="1000"
     ns1:title="Green"
     ns1:timeout-ms="1500"
     ns1:timeout-enable="true"
     id="frame5">
    <ns1:layer
       ns1:transition-profile="linear"
       ns1:transition-zoom-percent="0"
       ns1:hide="false"
       ns1:clip="false"
       ns1:refid="text3003"
       ns1:group="layer1" />
    <ns1:layer
       ns1:refid="path3031"
       ns1:hide="false"
       ns1:clip="false"
       ns1:transition-zoom-percent="0"
       ns1:transition-profile="linear"
       ns1:group="layer2" />
  </ns1:frame>
  <ns1:frame
     ns1:timeout-enable="true"
     ns1:timeout-ms="1500"
     ns1:title="Yellow"
     ns1:transition-duration-ms="1000"
     ns1:sequence="6"
     id="frame6">
    <ns1:layer
       ns1:refid="text3011"
       ns1:clip="false"
       ns1:hide="false"
       ns1:transition-profile="linear"
       ns1:transition-zoom-percent="0"
       ns1:group="layer1" />
    <ns1:layer
       ns1:transition-profile="linear"
       ns1:transition-zoom-percent="0"
       ns1:clip="false"
       ns1:hide="false"
       ns1:refid="path3033"
       ns1:group="layer2" />
  </ns1:frame>
  <script
     ns1:version="11.12-03174120"
     id="sozi-script">var sozi=sozi||{};(function(){var a=sozi.events=sozi.events||{},b={};a.listen=function(d,e){var c=b[d];if(!c){c=b[d]=[]}c.push(e)};a.fire=function(g){var d=b[g],c,f,e=Array.prototype.slice.call(arguments,1);if(d){c=d.length;for(f=0;f&lt;c;f+=1){d[f].apply(null,e)}}}}());var sozi=sozi||{};(function(){var w=sozi.framelist=sozi.framelist||{},k=this,r=k.document,q,m,c,j=0,d=5,i,u,b,y,z,v,f=300,g=&quot;decelerate&quot;,a=&quot;http://www.w3.org/2000/svg&quot;;function h(A){return function(B){sozi.player.previewFrame(A);B.stopPropagation()}}function l(A){A.stopPropagation()}function p(B){var A=B.relatedTarget;while(A!==m&amp;&amp;A!==q){A=A.parentNode}if(A===q){w.hide();sozi.player.restart();B.stopPropagation()}}function t(B){var A=c.getCTM().f;if(A&lt;=-k.innerHeight/2){A+=k.innerHeight/2}else{if(A&lt;0){A=0}}c.setAttribute(&quot;transform&quot;,&quot;translate(0,&quot;+A+&quot;)&quot;);B.stopPropagation()}function e(B){var A=c.getCTM().f;if(A+j&gt;=k.innerHeight*3/2){A-=k.innerHeight/2}else{if(A+j&gt;k.innerHeight+2*d){A=k.innerHeight-j-4*d}}c.setAttribute(&quot;transform&quot;,&quot;translate(0,&quot;+A+&quot;)&quot;);B.stopPropagation()}function s(A){var C=sozi.animation.profiles[g](A),B=1-C;z=y*C+b*B;m.setAttribute(&quot;transform&quot;,&quot;translate(&quot;+z+&quot;,0)&quot;)}function x(){}function o(){var G=r.createElementNS(a,&quot;rect&quot;),A=r.createElementNS(a,&quot;path&quot;),E=r.createElementNS(a,&quot;path&quot;),H=0,F,C=sozi.document.frames.length,B=sozi.location.getFrameIndex(),D,I;q=r.documentElement;m=r.createElementNS(a,&quot;g&quot;);m.setAttribute(&quot;id&quot;,&quot;sozi-toc&quot;);q.appendChild(m);c=r.createElementNS(a,&quot;g&quot;);m.appendChild(c);G.setAttribute(&quot;id&quot;,&quot;sozi-toc-background&quot;);G.setAttribute(&quot;x&quot;,d);G.setAttribute(&quot;y&quot;,d);G.setAttribute(&quot;rx&quot;,d);G.setAttribute(&quot;ry&quot;,d);G.addEventListener(&quot;click&quot;,l,false);G.addEventListener(&quot;mousedown&quot;,l,false);G.addEventListener(&quot;mouseout&quot;,p,false);c.appendChild(G);for(D=0;D&lt;C;D+=1){I=r.createElementNS(a,&quot;text&quot;);I.appendChild(r.createTextNode(sozi.document.frames[D].title));c.appendChild(I);if(D===B){I.setAttribute(&quot;class&quot;,&quot;sozi-toc-current&quot;)}F=I.getBBox().width;j+=I.getBBox().height;if(F&gt;H){H=F}I.setAttribute(&quot;x&quot;,2*d);I.setAttribute(&quot;y&quot;,j+d);I.addEventListener(&quot;click&quot;,h(D),false);I.addEventListener(&quot;mousedown&quot;,l,false)}A.setAttribute(&quot;class&quot;,&quot;sozi-toc-arrow&quot;);A.setAttribute(&quot;d&quot;,&quot;M&quot;+(H+3*d)+&quot;,&quot;+(5*d)+&quot; l&quot;+(4*d)+&quot;,0 l-&quot;+(2*d)+&quot;,-&quot;+(3*d)+&quot; z&quot;);A.addEventListener(&quot;click&quot;,t,false);A.addEventListener(&quot;mousedown&quot;,l,false);m.appendChild(A);E.setAttribute(&quot;class&quot;,&quot;sozi-toc-arrow&quot;);E.setAttribute(&quot;d&quot;,&quot;M&quot;+(H+3*d)+&quot;,&quot;+(7*d)+&quot; l&quot;+(4*d)+&quot;,0 l-&quot;+(2*d)+&quot;,&quot;+(3*d)+&quot; z&quot;);E.addEventListener(&quot;click&quot;,e,false);E.addEventListener(&quot;mousedown&quot;,l,false);m.appendChild(E);G.setAttribute(&quot;width&quot;,H+7*d);G.setAttribute(&quot;height&quot;,j+2*d);i=-H-9*d;u=0;z=y=i;m.setAttribute(&quot;transform&quot;,&quot;translate(&quot;+i+&quot;,0)&quot;);v=new sozi.animation.Animator(s,x)}function n(A){var D=r.getElementsByClassName(&quot;sozi-toc-current&quot;),C=c.getElementsByTagName(&quot;text&quot;),B;for(B=0;B&lt;D.length;B+=1){D[B].removeAttribute(&quot;class&quot;)}C[A].setAttribute(&quot;class&quot;,&quot;sozi-toc-current&quot;)}w.show=function(){b=z;y=u;v.start(f)};w.hide=function(){b=z;y=i;v.start(f)};w.isVisible=function(){return y===u};sozi.events.listen(&quot;displayready&quot;,o);sozi.events.listen(&quot;cleanup&quot;,w.hide);sozi.events.listen(&quot;framechange&quot;,n)}());var sozi=sozi||{};(function(){var t=sozi.player=sozi.player||{},u=sozi.display=sozi.display||{},j=this,o=j.document,p=0,v=1,s=1.05,x=5,c=false,l=false,g=0,e=0;function a(A,z,B){t.stop();u.zoom(A&gt;0?s:1/s,z,B)}function w(y){t.stop();u.rotate(y&gt;0?x:-x)}function r(){if(sozi.framelist.isVisible()){sozi.framelist.hide();t.restart()}else{t.stop();sozi.framelist.show()}}function i(y){if(y.button===p){c=true;l=false;g=y.clientX;e=y.clientY}else{if(y.button===v){r()}}y.stopPropagation()}function m(y){if(c){t.stop();l=true;sozi.events.fire(&quot;cleanup&quot;);u.drag(y.clientX-g,y.clientY-e);g=y.clientX;e=y.clientY}y.stopPropagation()}function f(y){if(y.button===p){c=false}y.stopPropagation()}function q(y){t.moveToPrevious();y.stopPropagation();y.preventDefault()}function h(y){if(!l&amp;&amp;y.button!==v){t.moveToNext()}y.stopPropagation()}function k(y){var z=0;if(!y){y=j.event}if(y.wheelDelta){z=y.wheelDelta;if(j.opera){z=-z}}else{if(y.detail){z=-y.detail}}if(z!==0){if(y.shiftKey){w(z)}else{a(z,y.clientX,y.clientY)}}y.stopPropagation();y.preventDefault()}function n(y){switch(y.charCode){case 43:a(1,j.innerWidth/2,j.innerHeight/2);break;case 45:a(-1,j.innerWidth/2,j.innerHeight/2);break;case 61:t.moveToCurrent();break;case 70:case 102:t.showAll();break;case 84:case 116:r();break;case 82:w(-1);break;case 114:w(1);break}y.stopPropagation()}function d(y){switch(y.keyCode){case 36:t.moveToFirst();break;case 35:t.moveToLast();break;case 38:t.jumpToPrevious();break;case 33:case 37:t.moveToPrevious();break;case 40:t.jumpToNext();break;case 34:case 39:case 13:case 32:t.moveToNext();break}y.stopPropagation()}function b(){var y=o.documentElement;y.addEventListener(&quot;click&quot;,h,false);y.addEventListener(&quot;mousedown&quot;,i,false);y.addEventListener(&quot;mouseup&quot;,f,false);y.addEventListener(&quot;mousemove&quot;,m,false);y.addEventListener(&quot;keypress&quot;,n,false);y.addEventListener(&quot;keydown&quot;,d,false);y.addEventListener(&quot;contextmenu&quot;,q,false);y.addEventListener(&quot;DOMMouseScroll&quot;,k,false);j.onmousewheel=k}j.addEventListener(&quot;load&quot;,b,false)}());var sozi=sozi||{};(function(){var e=sozi.animation=sozi.animation||{},h=this,j=40,d=[],b,i=h.mozRequestAnimationFrame||h.webkitRequestAnimationFrame||h.msRequestAnimationFrame||h.oRequestAnimationFrame;function f(l){var k;if(d.length&gt;0){if(i){i(f)}for(k=0;k&lt;d.length;k+=1){d[k].step(l)}}else{if(!i){h.clearInterval(b)}}}function c(){if(i){i(f)}else{b=h.setInterval(function(){f(Date.now())},j)}}function a(k){d.push(k);if(d.length===1){c()}}function g(k){d.splice(d.indexOf(k),1)}e.Animator=function(k,l){this.onStep=k;this.onDone=l;this.durationMs=0;this.data={};this.initialTime=0;this.started=false};e.Animator.prototype.start=function(k,l){this.durationMs=k;this.data=l;this.initialTime=Date.now();this.onStep(0,this.data);if(!this.started){this.started=true;a(this)}};e.Animator.prototype.stop=function(){if(this.started){g(this);this.started=false}};e.Animator.prototype.step=function(l){var k=l-this.initialTime;if(k&gt;=this.durationMs){this.stop();this.onStep(1,this.data);this.onDone()}else{this.onStep(k/this.durationMs,this.data)}};e.profiles={linear:function(k){return k},accelerate:function(k){return Math.pow(k,3)},&quot;strong-accelerate&quot;:function(k){return Math.pow(k,5)},decelerate:function(k){return 1-Math.pow(1-k,3)},&quot;strong-decelerate&quot;:function(k){return 1-Math.pow(1-k,5)},&quot;accelerate-decelerate&quot;:function(k){var l=k&lt;=0.5?k:1-k,m=Math.pow(2*l,3)/2;return k&lt;=0.5?m:1-m},&quot;strong-accelerate-decelerate&quot;:function(k){var l=k&lt;=0.5?k:1-k,m=Math.pow(2*l,5)/2;return k&lt;=0.5?m:1-m},&quot;decelerate-accelerate&quot;:function(k){var l=k&lt;=0.5?k:1-k,m=(1-Math.pow(1-2*l,2))/2;return k&lt;=0.5?m:1-m},&quot;strong-decelerate-accelerate&quot;:function(k){var l=k&lt;=0.5?k:1-k,m=(1-Math.pow(1-2*l,3))/2;return k&lt;=0.5?m:1-m}}}());var sozi=sozi||{};(function(){var q=sozi.player=sozi.player||{},n=sozi.display=sozi.display||{},g=this,p,j,o=500,c=-10,l=&quot;linear&quot;,h=0,i=0,b=false,a=false;function m(w,y){var x,v,t,u,s,z;for(t in y){if(y.hasOwnProperty(t)){u=n.layers[t].geometry;x=y[t].profile(w);v=1-x;for(s in y[t].initialState){if(y[t].initialState.hasOwnProperty(s)){if(typeof y[t].initialState[s]===&quot;number&quot;&amp;&amp;typeof y[t].finalState[s]===&quot;number&quot;){u[s]=y[t].finalState[s]*x+y[t].initialState[s]*v}}}if(y[t].zoomWidth&amp;&amp;y[t].zoomWidth.k!==0){z=w-y[t].zoomWidth.ts;u.width=y[t].zoomWidth.k*z*z+y[t].zoomWidth.ss}if(y[t].zoomHeight&amp;&amp;y[t].zoomHeight.k!==0){z=w-y[t].zoomHeight.ts;u.height=y[t].zoomHeight.k*z*z+y[t].zoomHeight.ss}u.clip=y[t].finalState.clip}}n.update()}function f(){var s;if(sozi.document.frames[i].timeoutEnable){a=true;s=(i+1)%sozi.document.frames.length;j=g.setTimeout(function(){q.moveToFrame(s)},sozi.document.frames[i].timeoutMs)}}function r(){h=i;if(b){f()}}q.startFromIndex=function(s){b=true;a=false;h=s;i=s;n.showFrame(sozi.document.frames[s]);f()};q.restart=function(){q.startFromIndex(i)};q.stop=function(){p.stop();if(a){g.clearTimeout(j);a=false}b=false;h=i};function e(s,C,A){var D={ss:((s&lt;0)?Math.max(C,A):Math.min(C,A))*(100-s)/100,ts:0.5,k:0},y,x,w,t,B,z;if(s!==0){y=C-A;x=C-D.ss;w=A-D.ss;if(y!==0){t=Math.sqrt(x*w);B=(x-t)/y;z=(x+t)/y;D.ts=(B&gt;0&amp;&amp;B&lt;=1)?B:z}D.k=x/D.ts/D.ts}return D}q.jumpToFrame=function(s){q.stop();sozi.events.fire(&quot;cleanup&quot;);h=s;i=s;n.showFrame(sozi.document.frames[s]);sozi.events.fire(&quot;framechange&quot;,s)};function d(s,x,z,u){var v,t,y,w={};for(t in s.layers){if(s.layers.hasOwnProperty(t)){w[t]={initialState:{},finalState:{}};w[t].profile=u||x.layers[t].transitionProfile;for(v in s.layers[t].geometry){if(s.layers[t].geometry.hasOwnProperty(v)){w[t].initialState[v]=s.layers[t].geometry[v];if(x.layers.hasOwnProperty(t)){w[t].finalState[v]=x.layers[t].geometry[v]}else{w[t].finalState[v]=s.layers[t].geometry[v]}}}w[t].initialState.rotate=(w[t].initialState.rotate-180)%360+180;w[t].finalState.rotate=(w[t].finalState.rotate-180)%360+180;if(w[t].finalState.rotate-w[t].initialState.rotate&gt;180){w[t].finalState.rotate-=360}else{if(w[t].finalState.rotate-w[t].initialState.rotate&lt;-180){w[t].initialState.rotate-=360}}y=z||x.layers[t].transitionZoomPercent;if(y&amp;&amp;x.layers.hasOwnProperty(t)){w[t].zoomWidth=e(y,s.layers[t].geometry.width,x.layers[t].geometry.width);w[t].zoomHeight=e(y,s.layers[t].geometry.height,x.layers[t].geometry.height)}}}return w}q.previewFrame=function(s){i=s;p.start(o,d(n,sozi.document.frames[s],c,sozi.animation.profiles[l]));sozi.events.fire(&quot;framechange&quot;,s)};q.moveToFrame=function(t){var s,v,u;if(a){g.clearTimeout(j);a=false}if(t===(i+1)%sozi.document.frames.length){s=sozi.document.frames[t].transitionDurationMs;v=undefined;u=undefined}else{s=o;v=c;u=sozi.animation.profiles[l]}sozi.events.fire(&quot;cleanup&quot;);b=true;i=t;p.start(s,d(n,sozi.document.frames[t],v,u));sozi.events.fire(&quot;framechange&quot;,t)};q.moveToFirst=function(){q.moveToFrame(0)};q.jumpToPrevious=function(){var s=i;if(!p.started||h&lt;=i){s-=1}if(s&gt;=0){q.jumpToFrame(s)}};q.moveToPrevious=function(){var s=i,t;for(s-=1;s&gt;=0;s-=1){t=sozi.document.frames[s];if(!t.timeoutEnable||t.timeoutMs!==0){q.moveToFrame(s);break}}};q.jumpToNext=function(){var s=i;if(!p.started||h&gt;=i){s+=1}if(s&lt;sozi.document.frames.length){q.jumpToFrame(s)}};q.moveToNext=function(){if(i&lt;sozi.document.frames.length-1||sozi.document.frames[i].timeoutEnable){q.moveToFrame((i+1)%sozi.document.frames.length)}};q.moveToLast=function(){q.moveToFrame(sozi.document.frames.length-1)};q.moveToCurrent=function(){q.moveToFrame(i)};q.showAll=function(){q.stop();sozi.events.fire(&quot;cleanup&quot;);p.start(o,d(n,n.getDocumentGeometry(),c,sozi.animation.profiles[l]))};function k(){q.startFromIndex(sozi.location.getFrameIndex())}p=new sozi.animation.Animator(m,r);sozi.events.listen(&quot;displayready&quot;,k)}());var sozi=sozi||{};(function(){var c=sozi.display=sozi.display||{},g=this,h=g.document,i,j,a,f=&quot;http://www.w3.org/2000/svg&quot;;c.layers={};function e(){var k,m,n;i=h.documentElement;j=i.getBBox();i.setAttribute(&quot;width&quot;,g.innerWidth);i.setAttribute(&quot;height&quot;,g.innerHeight);for(k=0;k&lt;sozi.document.layers.length;k+=1){groupId=sozi.document.layers[k];c.layers[groupId]={geometry:{cx:0,cy:0,width:1,height:1,rotate:0,clip:true},clipRect:h.createElementNS(f,&quot;rect&quot;),group:h.getElementById(groupId)};n=h.createElementNS(f,&quot;clipPath&quot;);n.setAttribute(&quot;id&quot;,&quot;sozi-clip-path-&quot;+groupId);n.appendChild(c.layers[groupId].clipRect);i.appendChild(n);m=h.createElementNS(f,&quot;g&quot;);m.setAttribute(&quot;clip-path&quot;,&quot;url(#sozi-clip-path-&quot;+groupId+&quot;)&quot;);i.insertBefore(m,c.layers[groupId].group);m.appendChild(c.layers[groupId].group)}sozi.events.fire(&quot;displayready&quot;)}function b(){i.setAttribute(&quot;width&quot;,g.innerWidth);i.setAttribute(&quot;height&quot;,g.innerHeight);c.update()}function d(l){var m=c.layers[l].geometry,k={};k.scale=Math.min(g.innerWidth/m.width,g.innerHeight/m.height);k.width=m.width*k.scale;k.height=m.height*k.scale;k.x=(g.innerWidth-k.width)/2;k.y=(g.innerHeight-k.height)/2;return k}c.getElementGeometry=function(k){var r,o,s,m,p,n,q=k.getCTM(),l=Math.sqrt(q.a*q.a+q.b*q.b);if(k.nodeName===&quot;rect&quot;){r=k.x.baseVal.value;o=k.y.baseVal.value;s=k.width.baseVal.value;m=k.height.baseVal.value}else{p=k.getBBox();r=p.x;o=p.y;s=p.width;m=p.height}n=h.documentElement.createSVGPoint();n.x=r+s/2;n.y=o+m/2;n=n.matrixTransform(q);return{cx:n.x,cy:n.y,width:s*l,height:m*l,rotate:Math.atan2(q.b,q.a)*180/Math.PI}};c.getDocumentGeometry=function(){var m,k={layers:{}},n={geometry:{cx:j.x+j.width/2,cy:j.y+j.height/2,width:j.width,height:j.height,rotate:0,clip:false}};for(m in c.layers){if(c.layers.hasOwnProperty(m)){k.layers[m]=n}}return k};c.update=function(){var m,k,n,o,q,p;for(m in c.layers){if(c.layers.hasOwnProperty(m)){n=c.layers[m].geometry;k=d(m);q=-n.cx+n.width/2+k.x/k.scale;p=-n.cy+n.height/2+k.y/k.scale;c.layers[m].group.setAttribute(&quot;transform&quot;,&quot;scale(&quot;+k.scale+&quot;)translate(&quot;+q+&quot;,&quot;+p+&quot;)rotate(&quot;+(-n.rotate)+&quot;,&quot;+n.cx+&quot;,&quot;+n.cy+&quot;)&quot;);o=c.layers[m].clipRect;o.setAttribute(&quot;x&quot;,n.clip?k.x:0);o.setAttribute(&quot;y&quot;,n.clip?k.y:0);o.setAttribute(&quot;width&quot;,n.clip?k.width:g.innerWidth);o.setAttribute(&quot;height&quot;,n.clip?k.height:g.innerHeight)}}};c.showFrame=function(p){var n,o,m,k;for(n in p.layers){if(p.layers.hasOwnProperty(n)){m=p.layers[n].geometry;o=c.layers[n].geometry;for(k in m){if(m.hasOwnProperty(k)){o[k]=m[k]}}}}c.update()};c.drag=function(o,k){var n,p,m,q;for(n in c.layers){if(c.layers.hasOwnProperty(n)){p=c.layers[n].geometry;m=d(n);q=p.rotate*Math.PI/180;p.cx-=(o*Math.cos(q)-k*Math.sin(q))/m.scale;p.cy-=(o*Math.sin(q)+k*Math.cos(q))/m.scale;p.clip=false}}c.update()};c.zoom=function(p,m,q){var o,n=(1-p)*(m-g.innerWidth/2),k=(1-p)*(q-g.innerHeight/2);for(o in c.layers){if(c.layers.hasOwnProperty(o)){c.layers[o].geometry.width/=p;c.layers[o].geometry.height/=p}}c.drag(n,k)};c.rotate=function(m){var k;for(k in c.layers){if(c.layers.hasOwnProperty(k)){c.layers[k].geometry.rotate+=m;c.layers[k].geometry.rotate%=360}}c.update()};sozi.events.listen(&quot;documentready&quot;,e);g.addEventListener(&quot;resize&quot;,b,false)}());var sozi=sozi||{};(function(){var c=sozi.document=sozi.document||{},e=this,g=e.document,b=&quot;http://sozi.baierouge.fr&quot;,d={title:&quot;Untitled&quot;,sequence:&quot;0&quot;,hide:&quot;true&quot;,clip:&quot;true&quot;,&quot;timeout-enable&quot;:&quot;false&quot;,&quot;timeout-ms&quot;:&quot;5000&quot;,&quot;transition-duration-ms&quot;:&quot;1000&quot;,&quot;transition-zoom-percent&quot;:&quot;0&quot;,&quot;transition-profile&quot;:&quot;linear&quot;};c.frames=[];c.layers=[];function i(k,j){var l=k.getAttributeNS(b,j);return l===&quot;&quot;?d[j]:l}function h(n,l,k){var j,m=g.getElementById(k.getAttributeNS(b,&quot;refid&quot;));if(m){j={group:l,geometry:sozi.display.getElementGeometry(m),hide:i(k,&quot;hide&quot;)===&quot;true&quot;,transitionZoomPercent:parseInt(i(k,&quot;transition-zoom-percent&quot;),10),transitionProfile:sozi.animation.profiles[i(k,&quot;transition-profile&quot;)||&quot;linear&quot;]};j.geometry.clip=i(k,&quot;clip&quot;)===&quot;true&quot;;if(j.hide){m.setAttribute(&quot;visibility&quot;,&quot;hidden&quot;)}n.layers[j.group]=j}}function a(){var x=g.getElementsByTagNameNS(b,&quot;frame&quot;),k=x.length,t,p,u,j,w=g.documentElement,s,o,m,r,v,q=&quot;http://www.w3.org/2000/svg&quot;;t=g.getElementsByTagNameNS(b,&quot;layer&quot;);if(t.length===0){j=g.createElementNS(q,&quot;g&quot;);j.setAttribute(&quot;id&quot;,&quot;sozi-wrapper&quot;);while(true){m=w.firstChild;if(!m){break}w.removeChild(m);j.appendChild(m)}w.appendChild(j);c.layers.push(&quot;sozi-wrapper&quot;)}else{for(o=0;o&lt;t.length;o+=1){p=t[o].getAttributeNS(b,&quot;group&quot;);if(p&amp;&amp;c.layers.indexOf(p)===-1&amp;&amp;g.getElementById(p)){c.layers.push(p)}}if(c.layers.length===0){alert(&quot;Invalid layer information&quot;)}}for(s=0;s&lt;k;s+=1){r={id:x[s].getAttribute(&quot;id&quot;),title:i(x[s],&quot;title&quot;),sequence:parseInt(i(x[s],&quot;sequence&quot;),10),timeoutEnable:i(x[s],&quot;timeout-enable&quot;)===&quot;true&quot;,timeoutMs:parseInt(i(x[s],&quot;timeout-ms&quot;),10),transitionDurationMs:parseInt(i(x[s],&quot;transition-duration-ms&quot;),10),layers:{}};t=x[s].getElementsByTagNameNS(b,&quot;layer&quot;);if(t.length===0){for(o=0;o&lt;c.layers.length;o+=1){h(r,c.layers[o],x[s])}}else{for(o=0;o&lt;t.length;o+=1){p=t[o].getAttributeNS(b,&quot;group&quot;);if(p&amp;&amp;c.layers.indexOf(p)!==-1){h(r,p,t[o])}}}for(o in r.layers){if(r.layers.hasOwnProperty(o)){c.frames.push(r);break}}}c.frames.sort(function(n,l){return n.sequence-l.sequence})}function f(){g.documentElement.removeAttribute(&quot;viewBox&quot;);a();sozi.events.fire(&quot;documentready&quot;)}e.addEventListener(&quot;load&quot;,f,false)}());var sozi=sozi||{};(function(){var a=sozi.location=sozi.location||{},e=this,c=false;a.getFrameIndex=function(){var g=e.location.hash?parseInt(e.location.hash.slice(1),10)-1:0;if(isNaN(g)||g&lt;0){return 0}else{if(g&gt;=sozi.document.frames.length){return sozi.document.frames.length-1}else{return g}}};function f(){var g=a.getFrameIndex();if(!c){sozi.player.moveToFrame(g)}c=false}function d(g){c=true;e.location.hash=&quot;#&quot;+(g+1)}function b(){sozi.events.listen(&quot;framechange&quot;,d)}e.addEventListener(&quot;hashchange&quot;,f,false);e.addEventListener(&quot;load&quot;,b,false)}());</script>
  <style
     ns1:version="11.12-03174120"
     id="sozi-style">#sozi-toc text{fill:#eff;font-family:Verdana,sans-serif;font-size:12pt}#sozi-toc text:hover{fill:#0cf;cursor:pointer}#sozi-toc text.sozi-toc-current{fill:#fa4}#sozi-toc-background{stroke:#222;stroke-opacity:.1;stroke-width:10;fill:#222;fill-opacity:.9}.sozi-toc-arrow{fill:#eff;fill-opacity:.75;stroke:none}.sozi-toc-arrow:hover{fill:#0cf}</style>
  <script
     ns1:version="11.12-03174120"
     id="sozi-extras-addvideo-script">this.addEventListener(&quot;load&quot;,function(){var h=&quot;http://www.w3.org/2000/svg&quot;,l=&quot;http://sozi.baierouge.fr&quot;,s=&quot;http://www.w3.org/1999/xhtml&quot;,m=this,o=m.document,q=[],r,e,d,c,p,a,g,f,b;function n(i){i.stopPropagation()}function t(i,j,k){sozi.events.listen(&quot;framechange&quot;,function(u){var v=sozi.document.frames[u].id;if(v===j){i.play()}else{if(v===k){i.pause()}}})}q.push(o.getElementsByTagNameNS(l,&quot;video&quot;));q.push(o.getElementsByTagNameNS(l,&quot;audio&quot;));r=[];for(c=0;c&lt;q.length;c+=1){for(e=0;e&lt;q[c].length;e+=1){p=q[c][e].parentNode;b=o.createElementNS(s,&quot;source&quot;);b.setAttribute(&quot;type&quot;,q[c][e].getAttributeNS(l,&quot;type&quot;));b.setAttribute(&quot;src&quot;,q[c][e].getAttributeNS(l,&quot;src&quot;));for(d=0;d&lt;r.length;d+=1){if(r[d].rect===p){break}}if(d===r.length){p.setAttribute(&quot;visibility&quot;,&quot;hidden&quot;);f=o.createElementNS(s,q[c][e].tagName);f.setAttribute(&quot;controls&quot;,&quot;controls&quot;);if(q[c][e].tagName===&quot;video&quot;){f.setAttribute(&quot;width&quot;,p.getAttribute(&quot;width&quot;));f.setAttribute(&quot;height&quot;,p.getAttribute(&quot;height&quot;))}f.addEventListener(&quot;click&quot;,n,false);f.addEventListener(&quot;contextmenu&quot;,n,false);g=o.createElementNS(s,&quot;html&quot;);g.appendChild(f);a=o.createElementNS(h,&quot;foreignObject&quot;);a.setAttribute(&quot;x&quot;,p.getAttribute(&quot;x&quot;));a.setAttribute(&quot;y&quot;,p.getAttribute(&quot;y&quot;));a.setAttribute(&quot;width&quot;,p.getAttribute(&quot;width&quot;));a.setAttribute(&quot;height&quot;,p.getAttribute(&quot;height&quot;));a.appendChild(g);p.parentNode.insertBefore(a,p.nextSibling);if(q[c][e].hasAttributeNS(l,&quot;start-frame&quot;)){t(f,q[c][e].getAttributeNS(l,&quot;start-frame&quot;),q[c][e].getAttributeNS(l,&quot;stop-frame&quot;))}r.push({rect:q[c][e].parentNode,htmlMedia:f})}}r[d].htmlMedia.appendChild(b)}},false);</script>
</svg>
