<?xml version="1.0" encoding="UTF-8" standalone="no"?>
<!-- Created with Inkscape (http://www.inkscape.org/) -->

<svg
   xmlns:ns1="http://sozi.baierouge.fr"
   xmlns:dc="http://purl.org/dc/elements/1.1/"
   xmlns:cc="http://creativecommons.org/ns#"
   xmlns:rdf="http://www.w3.org/1999/02/22-rdf-syntax-ns#"
   xmlns:svg="http://www.w3.org/2000/svg"
   xmlns="http://www.w3.org/2000/svg"
   xmlns:sodipodi="http://sodipodi.sourceforge.net/DTD/sodipodi-0.dtd"
   xmlns:inkscape="http://www.inkscape.org/namespaces/inkscape"
   width="210mm"
   height="297mm"
   id="svg2"
   version="1.1"
   inkscape:version="0.48.3.1 r9886"
   sodipodi:docname="layers.svg">
  <sodipodi:namedview
     id="base"
     pagecolor="#ffffff"
     bordercolor="#666666"
     borderopacity="1.0"
     inkscape:pageopacity="0.0"
     inkscape:pageshadow="2"
     inkscape:zoom="3.959798"
     inkscape:cx="411.62123"
     inkscape:cy="826.07974"
     inkscape:document-units="px"
     inkscape:current-layer="layer1"
     showgrid="true"
     inkscape:window-width="1280"
     inkscape:window-height="964"
     inkscape:window-x="0"
     inkscape:window-y="26"
     inkscape:window-maximized="1">
    <inkscape:grid
       type="xygrid"
       id="grid2985"
       empspacing="5"
       visible="true"
       enabled="true"
       snapvisiblegridlinesonly="true"
       units="mm"
       spacingx="1mm"
       spacingy="1mm" />
  </sodipodi:namedview>
  <defs
     id="defs4" />
  <metadata
     id="metadata7">
    <rdf:RDF>
      <cc:Work
         rdf:about="">
        <dc:format>image/svg+xml</dc:format>
        <dc:type
           rdf:resource="http://purl.org/dc/dcmitype/StillImage" />
        <dc:title />
      </cc:Work>
    </rdf:RDF>
  </metadata>
  <g
     inkscape:groupmode="layer"
     id="layer2"
     inkscape:label="Colors"
     style="display:inline">
    <path
       sodipodi:type="arc"
       style="fill:#ff0000;fill-opacity:1;fill-rule:nonzero;stroke:none;display:inline"
       id="path3023"
       sodipodi:cx="301.18109"
       sodipodi:cy="166.53542"
       sodipodi:rx="17.716536"
       sodipodi:ry="17.716536"
       d="m 318.89763,166.53542 a 17.716536,17.716536 0 1 1 -35.43307,0 17.716536,17.716536 0 1 1 35.43307,0 z"
       transform="matrix(0.8660254,-0.5,0.5,0.8660254,-42.917081,194.1619)" />
    <path
       d="m 318.89763,166.53542 a 17.716536,17.716536 0 1 1 -35.43307,0 17.716536,17.716536 0 1 1 35.43307,0 z"
       sodipodi:ry="17.716536"
       sodipodi:rx="17.716536"
       sodipodi:cy="166.53542"
       sodipodi:cx="301.18109"
       id="path3025"
       style="fill:#ff00ff;fill-opacity:1;fill-rule:nonzero;stroke:none;display:inline"
       sodipodi:type="arc"
       transform="matrix(0.8660254,0.5,-0.5,0.8660254,159.05141,-107.01919)" />
    <path
       transform="matrix(0,1,-1,0,517.32282,-81.496074)"
       sodipodi:type="arc"
       style="fill:#0000ff;fill-opacity:1;fill-rule:nonzero;stroke:none;display:inline"
       id="path3027"
       sodipodi:cx="301.18109"
       sodipodi:cy="166.53542"
       sodipodi:rx="17.716536"
       sodipodi:ry="17.716536"
       d="m 318.89763,166.53542 a 17.716536,17.716536 0 1 1 -35.43307,0 17.716536,17.716536 0 1 1 35.43307,0 z" />
    <path
       d="m 318.89763,166.53542 a 17.716536,17.716536 0 1 1 -35.43307,0 17.716536,17.716536 0 1 1 35.43307,0 z"
       sodipodi:ry="17.716536"
       sodipodi:rx="17.716536"
       sodipodi:cy="166.53542"
       sodipodi:cx="301.18109"
       id="path3029"
       style="fill:#00ffff;fill-opacity:1;fill-rule:nonzero;stroke:none;display:inline"
       sodipodi:type="arc"
       transform="matrix(-0.8660254,0.5,-0.5,-0.8660254,680.71236,245.20814)" />
    <path
       transform="matrix(-0.8660254,-0.5,0.5,-0.8660254,478.74387,546.38923)"
       sodipodi:type="arc"
       style="fill:#00ff00;fill-opacity:1;fill-rule:nonzero;stroke:none;display:inline"
       id="path3031"
       sodipodi:cx="301.18109"
       sodipodi:cy="166.53542"
       sodipodi:rx="17.716536"
       sodipodi:ry="17.716536"
       d="m 318.89763,166.53542 a 17.716536,17.716536 0 1 1 -35.43307,0 17.716536,17.716536 0 1 1 35.43307,0 z" />
    <path
       d="m 318.89763,166.53542 a 17.716536,17.716536 0 1 1 -35.43307,0 17.716536,17.716536 0 1 1 35.43307,0 z"
       sodipodi:ry="17.716536"
       sodipodi:rx="17.716536"
       sodipodi:cy="166.53542"
       sodipodi:cx="301.18109"
       id="path3033"
       style="fill:#ffff00;fill-opacity:1;fill-rule:nonzero;stroke:none;display:inline"
       sodipodi:type="arc"
       transform="matrix(0,-1,1,0,120.47246,520.86611)" />
  </g>
  <g
     inkscape:label="Names"
     inkscape:groupmode="layer"
     id="layer1"
     style="display:inline">
    <g
       style="font-size:24px;font-style:normal;font-variant:normal;font-weight:normal;font-stretch:normal;text-align:center;line-height:125%;letter-spacing:0px;word-spacing:0px;writing-mode:lr-tb;text-anchor:middle;fill:#000000;fill-opacity:1;stroke:none;font-family:Iwona;-inkscape-font-specification:Iwona"
       id="text2997"
       transform="translate(0,-0.5979692)">
      <path
         d="m 438.35377,148.81888 -5.112,-7.608 c 2.61599,-0.504 4.416,-1.944 4.416,-4.632 0,-3.384 -2.90401,-4.8 -6.672,-4.8 -1.344,0 -2.68801,0.072 -4.008,0.24 l -1.92,0 0,16.8 1.968,0 0,-7.8 c 1.29599,0.24 2.64,0.384 3.96,0.384 l 5.016,7.416 2.352,0 m -3.048,-12.24 c 0,2.184 -2.04001,3.72 -4.32,3.72 -1.32,0 -2.66401,-0.144 -3.96,-0.384 l 0,-6.792 c 1.31999,-0.168 2.64,-0.24 3.96,-0.24 2.27999,0 4.32,1.536 4.32,3.696"
         id="path3117"
         inkscape:connector-curvature="0" />
      <path
         d="m 449.20889,143.65888 0,-0.24 c 0,-3.384 -1.848,-5.64 -4.632,-5.64 -2.808,0 -4.656,2.256 -4.656,5.64 0,3.38399 1.848,5.64 4.656,5.64 1.2,0 2.376,-0.384 3.36,-1.08 l 0,-1.008 c -1.128,0.72 -2.04,0.984 -3.36,0.984 -2.04,0 -2.544,-1.944 -2.544,-4.296 l 7.176,0 m -2.112,-1.008 -5.064,0 c 0,-1.92 0.816,-3.864 2.544,-3.864 1.704,0 2.52,1.944 2.52,3.864"
         id="path3119"
         inkscape:connector-curvature="0" />
      <path
         d="m 461.02139,148.81888 0,-16.8 -1.872,0 0,6.408 c -0.936,-0.408 -1.944,-0.648 -2.952,-0.648 -3,0 -4.464,2.4 -4.464,5.64 0,3.19199 1.2,5.64 4.104,5.64 1.224,0 2.352,-0.552 3.312,-1.32 l 0,1.08 1.872,0 m -1.872,-2.088 c -0.72,0.72 -1.608,1.32 -2.64,1.32 -2.184,0 -2.664,-2.112 -2.664,-4.632 0,-2.256 0.696,-4.632 2.664,-4.632 0.912,0 1.824,0.24 2.64,0.648 l 0,7.296"
         id="path3121"
         inkscape:connector-curvature="0" />
    </g>
    <g
       style="font-size:24px;font-style:normal;font-variant:normal;font-weight:normal;font-stretch:normal;text-align:center;line-height:125%;letter-spacing:0px;word-spacing:0px;writing-mode:lr-tb;text-anchor:middle;fill:#000000;fill-opacity:1;stroke:none;font-family:Iwona;-inkscape-font-specification:Iwona"
       id="text3003"
       transform="translate(0,34.826402)">
      <path
         d="m 427.50445,248.03148 0,-7.056 -1.968,0 0,4.632 c -1.248,1.008 -2.784,1.56 -4.392,1.56 -3.81599,0 -5.4,-3.28801 -5.4,-7.536 0,-4.248 1.58401,-7.536 5.4,-7.536 2.256,0 4.39201,0.888 5.976,2.496 l 0,-1.104 c -1.58399,-1.608 -3.72,-2.496 -5.976,-2.496 -4.94399,0 -7.752,3.504 -7.752,8.64 0,5.13599 2.80801,8.64 7.752,8.64 1.608,0 3.144,-0.552 4.392,-1.56 l 0,1.32 1.968,0"
         id="path3106"
         inkscape:connector-curvature="0" />
      <path
         d="m 437.33283,238.71948 0,-1.488 c -0.264,-0.096 -0.552,-0.168 -0.816,-0.168 -1.344,0 -2.424,0.936 -3.288,1.968 l 0,-1.8 -1.872,0 0,10.8 1.872,0 0,-7.992 c 0.72,-0.84 1.632,-1.56 2.736,-1.56 0.456,0 0.936,0.096 1.368,0.24"
         id="path3108"
         inkscape:connector-curvature="0" />
      <path
         d="m 448.43545,242.87148 0,-0.24 c 0,-3.384 -1.848,-5.64 -4.632,-5.64 -2.80799,0 -4.656,2.256 -4.656,5.64 0,3.384 1.84801,5.64 4.656,5.64 1.2,0 2.376,-0.384 3.36,-1.08 l 0,-1.008 c -1.128,0.72 -2.04,0.984 -3.36,0.984 -2.03999,0 -2.544,-1.944 -2.544,-4.296 l 7.176,0 m -2.112,-1.008 -5.064,0 c 0,-1.92 0.81601,-3.864 2.544,-3.864 1.704,0 2.52,1.944 2.52,3.864"
         id="path3110"
         inkscape:connector-curvature="0" />
      <path
         d="m 460.24795,242.87148 0,-0.24 c 0,-3.384 -1.848,-5.64 -4.632,-5.64 -2.80799,0 -4.656,2.256 -4.656,5.64 0,3.384 1.84801,5.64 4.656,5.64 1.2,0 2.376,-0.384 3.36,-1.08 l 0,-1.008 c -1.128,0.72 -2.04,0.984 -3.36,0.984 -2.03999,0 -2.544,-1.944 -2.544,-4.296 l 7.176,0 m -2.112,-1.008 -5.064,0 c 0,-1.92 0.81601,-3.864 2.544,-3.864 1.704,0 2.52,1.944 2.52,3.864"
         id="path3112"
         inkscape:connector-curvature="0" />
      <path
         d="m 472.06045,248.03148 0,-7.8 c 0,-1.752 -1.344,-3.24 -3.072,-3.24 -1.43999,0 -2.712,0.816 -3.744,1.824 l 0,-1.584 -1.872,0 0,10.8 1.872,0 0,-8.472 c 0.816,-0.816 1.824,-1.464 2.952,-1.464 1.128,0 1.992,0.984 1.992,2.136 l 0,7.8 1.872,0"
         id="path3114"
         inkscape:connector-curvature="0" />
    </g>
    <g
       style="font-size:24px;font-style:normal;font-variant:normal;font-weight:normal;font-stretch:normal;text-align:center;line-height:125%;letter-spacing:0px;word-spacing:0px;writing-mode:lr-tb;text-anchor:middle;fill:#000000;fill-opacity:1;stroke:none;font-family:Iwona;-inkscape-font-specification:Iwona"
       id="text3007"
       transform="translate(0,20.583312)">
      <path
         d="m 434.12433,193.86517 c 0,-2.64 -1.728,-4.032 -4.248,-4.56 1.848,-0.552 3.072,-1.752 3.072,-3.792 0,-2.928 -2.52,-4.128 -5.76,-4.128 -1.248,0 -2.496,0.072 -3.744,0.24 l -1.92,0 0,16.8 1.92,0 3.744,0.24 c 3.88799,0 6.936,-1.32 6.936,-4.8 m -3.144,-8.352 c 0,2.424 -2.712,3.672 -5.424,3.672 l -2.064,0 0,-6.456 c 1.224,-0.168 2.472,-0.24 3.696,-0.24 1.968,0 3.792,1.2 3.792,3.024 m 0.792,8.352 c 0,2.208 -2.184,3.696 -4.584,3.696 -1.224,0 -2.472,-0.072 -3.696,-0.24 l 0,-7.296 3.096,0 c 2.64,0 5.184,1.416 5.184,3.84"
         id="path3097"
         inkscape:connector-curvature="0" />
      <path
         d="m 442.00945,197.58517 0,-0.72 c -0.456,0.384 -0.984,0.696 -1.584,0.696 -0.888,0 -1.056,-1.104 -1.056,-2.136 l 0,-13.8 -1.872,0 0,13.8 c 0,1.608 0.62401,3.24 2.04,3.24 0.912,0 1.776,-0.456 2.472,-1.08"
         id="path3099"
         inkscape:connector-curvature="0" />
      <path
         d="m 452.95608,198.42517 0,-10.8 -1.872,0 0,8.472 c -0.816,0.816 -1.824,1.464 -2.952,1.464 -1.128,0 -1.992,-0.984 -1.992,-2.136 l 0,-7.8 -1.872,0 0,7.8 c 0,1.752 1.344,3.24 3.072,3.24 1.44,0 2.712,-0.816 3.744,-1.824 l 0,1.584 1.872,0"
         id="path3101"
         inkscape:connector-curvature="0" />
      <path
         d="m 465.49795,193.26517 0,-0.24 c 0,-3.384 -1.848,-5.64 -4.632,-5.64 -2.80799,0 -4.656,2.256 -4.656,5.64 0,3.384 1.84801,5.64 4.656,5.64 1.2,0 2.376,-0.384 3.36,-1.08 l 0,-1.008 c -1.128,0.72 -2.04,0.984 -3.36,0.984 -2.03999,0 -2.544,-1.944 -2.544,-4.296 l 7.176,0 m -2.112,-1.008 -5.064,0 c 0,-1.92 0.81601,-3.864 2.544,-3.864 1.704,0 2.52,1.944 2.52,3.864"
         id="path3103"
         inkscape:connector-curvature="0" />
    </g>
    <g
       style="font-size:24px;font-style:normal;font-variant:normal;font-weight:normal;font-stretch:normal;text-align:center;line-height:125%;letter-spacing:0px;word-spacing:0px;writing-mode:lr-tb;text-anchor:middle;fill:#000000;fill-opacity:1;stroke:none;font-family:Iwona;-inkscape-font-specification:Iwona"
       id="text3011"
       transform="translate(0,41.827929)">
      <path
         d="m 423.94495,256.03463 -1.296,0 -5.112,8.496 -4.56,-8.496 -2.232,0 5.616,10.08 0,6.72 1.968,0 0,-7.464 5.616,-9.336"
         id="path3084"
         inkscape:connector-curvature="0" />
      <path
         d="m 432.49795,267.67463 0,-0.24 c 0,-3.384 -1.848,-5.64 -4.632,-5.64 -2.80799,0 -4.656,2.256 -4.656,5.64 0,3.38399 1.84801,5.64 4.656,5.64 1.2,0 2.376,-0.38401 3.36,-1.08 l 0,-1.008 c -1.128,0.71999 -2.04,0.984 -3.36,0.984 -2.03999,0 -2.544,-1.94401 -2.544,-4.296 l 7.176,0 m -2.112,-1.008 -5.064,0 c 0,-1.92 0.81601,-3.864 2.544,-3.864 1.704,0 2.52,1.944 2.52,3.864"
         id="path3086"
         inkscape:connector-curvature="0" />
      <path
         d="m 440.13445,271.99463 0,-0.72 c -0.456,0.38399 -0.984,0.696 -1.584,0.696 -0.888,0 -1.056,-1.10401 -1.056,-2.136 l 0,-13.8 -1.872,0 0,13.8 c 0,1.60799 0.62401,3.24 2.04,3.24 0.912,0 1.776,-0.45601 2.472,-1.08"
         id="path3088"
         inkscape:connector-curvature="0" />
      <path
         d="m 447.02508,271.99463 0,-0.72 c -0.456,0.38399 -0.984,0.696 -1.584,0.696 -0.888,0 -1.056,-1.10401 -1.056,-2.136 l 0,-13.8 -1.872,0 0,13.8 c 0,1.60799 0.624,3.24 2.04,3.24 0.912,0 1.776,-0.45601 2.472,-1.08"
         id="path3090"
         inkscape:connector-curvature="0" />
      <path
         d="m 458.0917,267.43463 c 0,-3.672 -1.632,-5.64 -4.632,-5.64 -3.02399,0 -4.656,1.968 -4.656,5.64 0,3.67199 1.63201,5.64 4.656,5.64 3,0 4.632,-1.96801 4.632,-5.64 m -2.112,0 c 0,2.99999 -0.888,4.632 -2.52,4.632 -1.65599,0 -2.544,-1.63201 -2.544,-4.632 0,-3 0.88801,-4.632 2.544,-4.632 1.632,0 2.52,1.632 2.52,4.632"
         id="path3092"
         inkscape:connector-curvature="0" />
      <path
         d="m 475.08595,262.03463 -1.056,0 -2.832,8.76 -2.712,-8.76 -1.296,0 -2.832,8.76 -2.736,-8.76 -1.752,0 3.36,10.8 1.512,0 2.712,-8.4 2.616,8.4 1.512,0 3.504,-10.8"
         id="path3094"
         inkscape:connector-curvature="0" />
    </g>
    <g
       style="font-size:24px;font-style:normal;font-variant:normal;font-weight:normal;font-stretch:normal;text-align:center;line-height:125%;letter-spacing:0px;word-spacing:0px;writing-mode:lr-tb;text-anchor:middle;fill:#000000;fill-opacity:1;stroke:none;font-family:Iwona;-inkscape-font-specification:Iwona"
       id="text3015"
       transform="translate(0,6.1700839)">
      <path
         d="m 417.69558,173.62202 -0.96,-16.8 -1.584,0 -6.744,14.184 -6.768,-14.184 -1.584,0 -0.96,16.8 1.104,0 0.768,-13.608 6.504,13.608 0.888,0 6.576,-13.776 0.792,13.776 1.968,0"
         id="path3069"
         inkscape:connector-curvature="0" />
      <path
         d="m 429.49233,173.62202 0,-6.72 c 0,-2.25599 -1.392,-4.32 -3.48,-4.32 -1.536,0 -2.976,0.52801 -4.272,1.344 l 0,0.744 c 1.08,-0.59999 2.28,-0.984 3.528,-0.984 1.488,0 2.352,1.58401 2.352,3.216 l 0,0.432 c -0.936,-0.408 -1.944,-0.648 -2.952,-0.648 -2.568,0 -4.464,1.17601 -4.464,3.6 0,2.304 1.68,3.576 4.104,3.576 1.224,0 2.352,-0.552 3.312,-1.32 l 0,1.08 1.872,0 m -1.872,-2.088 c -0.72,0.72 -1.608,1.32 -2.64,1.32 -1.608,0 -2.664,-0.984 -2.664,-2.568 0,-1.46399 1.2,-2.592 2.664,-2.592 0.912,0 1.824,0.24 2.64,0.648 l 0,3.192"
         id="path3071"
         inkscape:connector-curvature="0" />
      <path
         d="m 442.01358,175.06202 0,-12.24 -1.872,0 0,0.408 c -0.936,-0.408 -1.944,-0.648 -2.952,-0.648 -3,0 -4.464,2.40001 -4.464,5.64 0,3.192 1.2,5.64 4.104,5.64 1.224,0 2.352,-0.552 3.312,-1.32 l 0,2.52 c 0,1.656 -0.912,3.216 -2.4,3.216 -1.224,0 -2.448,-0.24 -3.6,-0.648 l 0,0.744 c 1.344,0.624 2.832,1.008 4.32,1.008 2.112,0 3.552,-2.064 3.552,-4.32 m -1.872,-3.528 c -0.72,0.72 -1.608,1.32 -2.64,1.32 -2.184,0 -2.664,-2.112 -2.664,-4.632 0,-2.25599 0.696,-4.632 2.664,-4.632 0.912,0 1.824,0.24 2.64,0.648 l 0,7.296"
         id="path3073"
         inkscape:connector-curvature="0" />
      <path
         d="m 454.5292,168.46202 0,-0.24 c 0,-3.38399 -1.848,-5.64 -4.632,-5.64 -2.80799,0 -4.656,2.25601 -4.656,5.64 0,3.384 1.84801,5.64 4.656,5.64 1.2,0 2.376,-0.384 3.36,-1.08 l 0,-1.008 c -1.128,0.72 -2.04,0.984 -3.36,0.984 -2.03999,0 -2.544,-1.944 -2.544,-4.296 l 7.176,0 m -2.112,-1.008 -5.064,0 c 0,-1.91999 0.81601,-3.864 2.544,-3.864 1.704,0 2.52,1.94401 2.52,3.864"
         id="path3075"
         inkscape:connector-curvature="0" />
      <path
         d="m 466.3417,173.62202 0,-7.8 c 0,-1.75199 -1.344,-3.24 -3.072,-3.24 -1.43999,0 -2.712,0.81601 -3.744,1.824 l 0,-1.584 -1.872,0 0,10.8 1.872,0 0,-8.472 c 0.816,-0.81599 1.824,-1.464 2.952,-1.464 1.128,0 1.992,0.98401 1.992,2.136 l 0,7.8 1.872,0"
         id="path3077"
         inkscape:connector-curvature="0" />
      <path
         d="m 475.16358,172.78202 0,-0.72 c -0.384,0.384 -0.84,0.696 -1.392,0.696 -0.864,0 -0.912,-1.128 -0.912,-2.136 l 0,-6.792 2.304,0 0,-1.008 -2.304,0 0,-3.6 -1.128,0 c 0,1.92 -1.104,3.72 -2.856,3.72 l 0,0.888 2.112,0 0,6.792 c 0,1.584 0.504,3.24 1.872,3.24 0.888,0 1.656,-0.48 2.304,-1.08"
         id="path3079"
         inkscape:connector-curvature="0" />
      <path
         d="m 486.25795,173.62202 0,-6.72 c 0,-2.25599 -1.392,-4.32 -3.48,-4.32 -1.53599,0 -2.976,0.52801 -4.272,1.344 l 0,0.744 c 1.08,-0.59999 2.28,-0.984 3.528,-0.984 1.488,0 2.352,1.58401 2.352,3.216 l 0,0.432 c -0.936,-0.408 -1.944,-0.648 -2.952,-0.648 -2.56799,0 -4.464,1.17601 -4.464,3.6 0,2.304 1.68001,3.576 4.104,3.576 1.224,0 2.352,-0.552 3.312,-1.32 l 0,1.08 1.872,0 m -1.872,-2.088 c -0.72,0.72 -1.608,1.32 -2.64,1.32 -1.60799,0 -2.664,-0.984 -2.664,-2.568 0,-1.46399 1.20001,-2.592 2.664,-2.592 0.912,0 1.824,0.24 2.64,0.648 l 0,3.192"
         id="path3081"
         inkscape:connector-curvature="0" />
    </g>
    <g
       style="font-size:24px;font-style:normal;font-variant:normal;font-weight:normal;font-stretch:normal;text-align:center;line-height:125%;letter-spacing:0px;word-spacing:0px;writing-mode:lr-tb;text-anchor:middle;fill:#000000;fill-opacity:1;stroke:none;font-family:Iwona;-inkscape-font-specification:Iwona"
       id="text3019"
       transform="translate(0,24.944841)">
      <path
         d="m 431.51433,210.46032 0,-1.296 c -1.296,-1.872 -3.432,-2.976 -5.688,-2.976 -4.872,0 -7.512,3.552 -7.512,8.64 0,5.08799 2.64,8.64 7.512,8.64 1.872,0 3.72,-0.552 5.304,-1.584 l 0,-1.104 c -1.584,1.032 -3.432,1.584 -5.304,1.584 -3.768,0 -5.16,-3.33601 -5.16,-7.536 0,-4.2 1.392,-7.536 5.16,-7.536 2.304,0 4.464,1.2 5.688,3.168"
         id="path3060"
         inkscape:connector-curvature="0" />
      <path
         d="m 442.31545,224.66832 0,-12.24 -1.872,0 0,8.472 c -0.816,0.816 -1.824,1.464 -2.952,1.464 -1.128,0 -1.992,-0.984 -1.992,-2.136 l 0,-7.8 -1.872,0 0,7.8 c 0,1.752 1.34401,3.24 3.072,3.24 1.44,0 2.712,-0.816 3.744,-1.824 l 0,3.024 c 0,1.608 -0.72,3.216 -2.16,3.216 -1.128,0 -2.208,-0.24 -3.24,-0.648 l 0,0.744 c 1.224,0.624 2.59201,1.008 3.984,1.008 2.04,0 3.288,-2.112 3.288,-4.32"
         id="path3062"
         inkscape:connector-curvature="0" />
      <path
         d="m 454.61733,223.22832 0,-6.72 c 0,-2.256 -1.392,-4.32 -3.48,-4.32 -1.536,0 -2.976,0.528 -4.272,1.344 l 0,0.744 c 1.08,-0.6 2.28,-0.984 3.528,-0.984 1.488,0 2.352,1.584 2.352,3.216 l 0,0.432 c -0.936,-0.408 -1.944,-0.648 -2.952,-0.648 -2.568,0 -4.464,1.176 -4.464,3.6 0,2.30399 1.68,3.576 4.104,3.576 1.224,0 2.352,-0.552 3.312,-1.32 l 0,1.08 1.872,0 m -1.872,-2.088 c -0.72,0.72 -1.608,1.32 -2.64,1.32 -1.608,0 -2.664,-0.984 -2.664,-2.568 0,-1.464 1.2,-2.592 2.664,-2.592 0.912,0 1.824,0.24 2.64,0.648 l 0,3.192"
         id="path3064"
         inkscape:connector-curvature="0" />
      <path
         d="m 467.13858,223.22832 0,-7.8 c 0,-1.752 -1.344,-3.24 -3.072,-3.24 -1.44,0 -2.712,0.816 -3.744,1.824 l 0,-1.584 -1.872,0 0,10.8 1.872,0 0,-8.472 c 0.816,-0.816 1.824,-1.464 2.952,-1.464 1.128,0 1.992,0.984 1.992,2.136 l 0,7.8 1.872,0"
         id="path3066"
         inkscape:connector-curvature="0" />
    </g>
  </g>
  <ns1:frame
     ns1:sequence="2"
     ns1:transition-duration-ms="1000"
     ns1:title="Magenta"
     ns1:timeout-ms="1500"
     ns1:timeout-enable="true"
     id="frame1">
    <ns1:layer
       ns1:refid="text3015"
       ns1:hide="false"
       ns1:clip="false"
       ns1:transition-zoom-percent="0"
       ns1:transition-profile="linear"
       ns1:group="layer1" />
    <ns1:layer
       ns1:refid="path3025"
       ns1:hide="false"
       ns1:clip="false"
       ns1:transition-zoom-percent="0"
       ns1:transition-profile="linear"
       ns1:group="layer2" />
  </ns1:frame>
  <ns1:frame
     ns1:timeout-enable="true"
     ns1:timeout-ms="1500"
     ns1:title="Red"
     ns1:transition-duration-ms="1000"
     ns1:sequence="1"
     id="frame2">
    <ns1:layer
       ns1:refid="text2997"
       ns1:hide="false"
       ns1:clip="false"
       ns1:transition-zoom-percent="0"
       ns1:transition-profile="linear"
       ns1:group="layer1" />
    <ns1:layer
       ns1:transition-profile="linear"
       ns1:transition-zoom-percent="0"
       ns1:clip="false"
       ns1:hide="false"
       ns1:refid="path3023"
       ns1:group="layer2" />
  </ns1:frame>
  <ns1:frame
     ns1:sequence="3"
     ns1:transition-duration-ms="1000"
     ns1:title="Blue"
     ns1:timeout-ms="1500"
     ns1:timeout-enable="true"
     id="frame3">
    <ns1:layer
       ns1:hide="false"
       ns1:clip="false"
       ns1:transition-profile="linear"
       ns1:transition-zoom-percent="0"
       ns1:refid="text3007"
       ns1:group="layer1" />
    <ns1:layer
       ns1:refid="path3027"
       ns1:hide="false"
       ns1:clip="false"
       ns1:transition-zoom-percent="0"
       ns1:transition-profile="linear"
       ns1:group="layer2" />
  </ns1:frame>
  <ns1:frame
     ns1:timeout-enable="true"
     ns1:timeout-ms="1500"
     ns1:title="Cyan"
     ns1:transition-duration-ms="1000"
     ns1:sequence="4"
     id="frame4">
    <ns1:layer
       ns1:clip="false"
       ns1:hide="false"
       ns1:transition-zoom-percent="0"
       ns1:transition-profile="linear"
       ns1:refid="text3019"
       ns1:group="layer1" />
    <ns1:layer
       ns1:transition-profile="linear"
       ns1:transition-zoom-percent="0"
       ns1:clip="false"
       ns1:hide="false"
       ns1:refid="path3029"
       ns1:group="layer2" />
  </ns1:frame>
  <ns1:frame
     ns1:sequence="5"
     ns1:transition-duration-ms="1000"
     ns1:title="Green"
     ns1:timeout-ms="1500"
     ns1:timeout-enable="true"
     id="frame5">
    <ns1:layer
       ns1:transition-profile="linear"
       ns1:transition-zoom-percent="0"
       ns1:hide="false"
       ns1:clip="false"
       ns1:refid="text3003"
       ns1:group="layer1" />
    <ns1:layer
       ns1:refid="path3031"
       ns1:hide="false"
       ns1:clip="false"
       ns1:transition-zoom-percent="0"
       ns1:transition-profile="linear"
       ns1:group="layer2" />
  </ns1:frame>
  <ns1:frame
     ns1:timeout-enable="true"
     ns1:timeout-ms="1500"
     ns1:title="Yellow"
     ns1:transition-duration-ms="1000"
     ns1:sequence="6"
     id="frame6">
    <ns1:layer
       ns1:refid="text3011"
       ns1:clip="false"
       ns1:hide="false"
       ns1:transition-profile="linear"
       ns1:transition-zoom-percent="0"
       ns1:group="layer1" />
    <ns1:layer
       ns1:transition-profile="linear"
       ns1:transition-zoom-percent="0"
       ns1:clip="false"
       ns1:hide="false"
       ns1:refid="path3033"
       ns1:group="layer2" />
  </ns1:frame>
  <script
     id="sozi-extras-addvideo-script"
     ns1:version="12.03-18171759">/*
 * Sozi - A presentation tool using the SVG standard
 *
 * Copyright (C) 2010-2012 Guillaume Savaton
 *
 * This program is dual licensed under the terms of the MIT license
 * or the GNU General Public License (GPL) version 3.
 * A copy of both licenses is provided in the doc/ folder of the
 * official release of Sozi.
 * 
 * See http://sozi.baierouge.fr/wiki/en:license for details.
 */

this.addEventListener(&quot;load&quot;, function () {
	var	svgNs = &quot;http://www.w3.org/2000/svg&quot;,
	    soziNs = &quot;http://sozi.baierouge.fr&quot;,
		xhtmlNs = &quot;http://www.w3.org/1999/xhtml&quot;,
		window = this,
		document = window.document,
		mediaSources = [],
		mediaList, i, j, k, rect, foreignObject,
		html, htmlMedia, htmlSource;
	
    function clickHandler(evt) {
        evt.stopPropagation();
    }
    
    function registerFrameChangeHandler(htmlMedia, startFrame, stopFrame) {
        sozi.events.listen(&quot;framechange&quot;, function(index) {
            var frameId = sozi.document.frames[index].id;
		    if (frameId === startFrame) {
		        htmlMedia.play();
			}
            else if (frameId === stopFrame) {
                htmlMedia.pause();
            }
		});
    }
    
	mediaSources.push(document.getElementsByTagNameNS(soziNs, &quot;video&quot;));
	mediaSources.push(document.getElementsByTagNameNS(soziNs, &quot;audio&quot;));

	mediaList = [];
	for (k = 0; k &lt; mediaSources.length; k += 1) {
	    for (i = 0; i &lt; mediaSources[k].length; i += 1) {
		    rect = mediaSources[k][i].parentNode;
	
		    // Create HTML media source element
		    htmlSource = document.createElementNS(xhtmlNs, &quot;source&quot;);
		    htmlSource.setAttribute(&quot;type&quot;, mediaSources[k][i].getAttributeNS(soziNs, &quot;type&quot;));
		    htmlSource.setAttribute(&quot;src&quot;, mediaSources[k][i].getAttributeNS(soziNs, &quot;src&quot;));

		    for (j = 0; j &lt; mediaList.length; j += 1) {
			    if (mediaList[j].rect === rect) {
				    break;
			    }
		    }
	
		    if (j === mediaList.length) {
		        rect.setAttribute(&quot;visibility&quot;, &quot;hidden&quot;);
		        
			    // Create HTML media element
			    htmlMedia = document.createElementNS(xhtmlNs, mediaSources[k][i].tagName);
			    // htmlMedia.setAttribute(&quot;poster&quot;, &quot;__dummy__.png&quot;);
			    htmlMedia.setAttribute(&quot;controls&quot;, &quot;controls&quot;);
			    if (mediaSources[k][i].tagName === &quot;video&quot;) {
			        htmlMedia.setAttribute(&quot;width&quot;, rect.getAttribute(&quot;width&quot;));
			        htmlMedia.setAttribute(&quot;height&quot;, rect.getAttribute(&quot;height&quot;));
			    }
		        htmlMedia.addEventListener(&quot;click&quot;, clickHandler, false);
		        htmlMedia.addEventListener(&quot;contextmenu&quot;, clickHandler, false);
		        
			    // Create HTML root element
			    html = document.createElementNS(xhtmlNs, &quot;html&quot;);
			    html.appendChild(htmlMedia);
		
			    // Create SVG foreign object
			    foreignObject = document.createElementNS(svgNs, &quot;foreignObject&quot;);
			    foreignObject.setAttribute(&quot;x&quot;, rect.getAttribute(&quot;x&quot;));
			    foreignObject.setAttribute(&quot;y&quot;, rect.getAttribute(&quot;y&quot;));
			    foreignObject.setAttribute(&quot;width&quot;, rect.getAttribute(&quot;width&quot;));
			    foreignObject.setAttribute(&quot;height&quot;, rect.getAttribute(&quot;height&quot;));
			    foreignObject.appendChild(html);
				
			    rect.parentNode.insertBefore(foreignObject, rect.nextSibling);
			
			    if (mediaSources[k][i].hasAttributeNS(soziNs, &quot;start-frame&quot;)) {
			        registerFrameChangeHandler(htmlMedia,
			            mediaSources[k][i].getAttributeNS(soziNs, &quot;start-frame&quot;),
			            mediaSources[k][i].getAttributeNS(soziNs, &quot;stop-frame&quot;)
			         );
			    }
			
			    mediaList.push({
				    rect: mediaSources[k][i].parentNode,
				    htmlMedia: htmlMedia
			    });
		    }
	    }
	    
		// Append HTML source element to current HTML media element
		mediaList[j].htmlMedia.appendChild(htmlSource);
	}				
}, false);

</script>
  <script
     ns1:version="12.04-15174810"
     id="sozi-script">function module(c,a){var b=this;c.split(&quot;.&quot;).forEach(function(d){if(typeof b[d]===&quot;undefined&quot;){b[d]={}}b=b[d]});a(b)}module(&quot;sozi.events&quot;,function(b){var a={};b.listen=function(c,d){if(!a.hasOwnProperty(c)){a[c]=[]}a[c].push(d)};b.fire=function(d){var c=Array.prototype.slice.call(arguments,1);if(a.hasOwnProperty(d)){a[d].forEach(function(e){e.apply(null,c)})}}});module(&quot;sozi.framenumber&quot;,function(d){var f=this,g=f.document,i,j,b,c,e=&quot;http://www.w3.org/2000/svg&quot;;function h(){var m=j.getBBox(),n=Math.max(m.width,m.height)*0.75,l=n*1.25;b.setAttribute(&quot;r&quot;,n);i.setAttribute(&quot;transform&quot;,&quot;translate(&quot;+l+&quot;,&quot;+l+&quot;)&quot;)}function a(){i=g.createElementNS(e,&quot;g&quot;);j=g.createElementNS(e,&quot;text&quot;);b=g.createElementNS(e,&quot;circle&quot;);i.setAttribute(&quot;id&quot;,&quot;sozi-framenumber&quot;);b.setAttribute(&quot;cx&quot;,0);b.setAttribute(&quot;cy&quot;,0);i.appendChild(b);c=g.createTextNode(sozi.location.getFrameIndex()+1);j.setAttribute(&quot;text-anchor&quot;,&quot;middle&quot;);j.setAttribute(&quot;dominant-baseline&quot;,&quot;central&quot;);j.setAttribute(&quot;x&quot;,0);j.setAttribute(&quot;y&quot;,0);j.appendChild(c);i.appendChild(j);g.documentElement.appendChild(i);h()}function k(l){c.nodeValue=l+1}sozi.events.listen(&quot;displayready&quot;,a);sozi.events.listen(&quot;framechange&quot;,k)});module(&quot;sozi.framelist&quot;,function(v){var k=this,q=k.document,m,c,j=0,d=5,i,t,b,x,y,u,f=300,g=&quot;decelerate&quot;,a=&quot;http://www.w3.org/2000/svg&quot;;function p(B){var z=B.relatedTarget,A=q.documentElement;while(z!==m&amp;&amp;z!==A){z=z.parentNode}if(z===A){v.hide();sozi.player.restart();B.stopPropagation()}}function s(A){var z=c.getCTM().f;if(z&lt;=-k.innerHeight/2){z+=k.innerHeight/2}else{if(z&lt;0){z=0}}c.setAttribute(&quot;transform&quot;,&quot;translate(0,&quot;+z+&quot;)&quot;);A.stopPropagation()}function e(A){var z=c.getCTM().f;if(z+j&gt;=k.innerHeight*3/2){z-=k.innerHeight/2}else{if(z+j&gt;k.innerHeight+2*d){z=k.innerHeight-j-4*d}}c.setAttribute(&quot;transform&quot;,&quot;translate(0,&quot;+z+&quot;)&quot;);A.stopPropagation()}function r(z){var B=sozi.animation.profiles[g](z),A=1-B;y=x*B+b*A;m.setAttribute(&quot;transform&quot;,&quot;translate(&quot;+y+&quot;,0)&quot;)}function w(){}function h(z){return function(A){sozi.player.previewFrame(z);A.stopPropagation()}}function l(z){z.stopPropagation()}function o(){var B=q.createElementNS(a,&quot;rect&quot;),A=q.createElementNS(a,&quot;path&quot;),C=q.createElementNS(a,&quot;path&quot;),D=0,E,z=sozi.location.getFrameIndex();m=q.createElementNS(a,&quot;g&quot;);m.setAttribute(&quot;id&quot;,&quot;sozi-toc&quot;);q.documentElement.appendChild(m);c=q.createElementNS(a,&quot;g&quot;);m.appendChild(c);B.setAttribute(&quot;id&quot;,&quot;sozi-toc-background&quot;);B.setAttribute(&quot;x&quot;,d);B.setAttribute(&quot;y&quot;,d);B.setAttribute(&quot;rx&quot;,d);B.setAttribute(&quot;ry&quot;,d);B.addEventListener(&quot;click&quot;,l,false);B.addEventListener(&quot;mousedown&quot;,l,false);B.addEventListener(&quot;mouseout&quot;,p,false);c.appendChild(B);sozi.document.frames.forEach(function(G,H){var F=q.createElementNS(a,&quot;text&quot;);F.appendChild(q.createTextNode(G.title));c.appendChild(F);if(H===z){F.setAttribute(&quot;class&quot;,&quot;sozi-toc-current&quot;)}E=F.getBBox().width;j+=F.getBBox().height;if(E&gt;D){D=E}F.setAttribute(&quot;x&quot;,2*d);F.setAttribute(&quot;y&quot;,j+d);F.addEventListener(&quot;click&quot;,h(H),false);F.addEventListener(&quot;mousedown&quot;,l,false)});A.setAttribute(&quot;class&quot;,&quot;sozi-toc-arrow&quot;);A.setAttribute(&quot;d&quot;,&quot;M&quot;+(D+3*d)+&quot;,&quot;+(5*d)+&quot; l&quot;+(4*d)+&quot;,0 l-&quot;+(2*d)+&quot;,-&quot;+(3*d)+&quot; z&quot;);A.addEventListener(&quot;click&quot;,s,false);A.addEventListener(&quot;mousedown&quot;,l,false);m.appendChild(A);C.setAttribute(&quot;class&quot;,&quot;sozi-toc-arrow&quot;);C.setAttribute(&quot;d&quot;,&quot;M&quot;+(D+3*d)+&quot;,&quot;+(7*d)+&quot; l&quot;+(4*d)+&quot;,0 l-&quot;+(2*d)+&quot;,&quot;+(3*d)+&quot; z&quot;);C.addEventListener(&quot;click&quot;,e,false);C.addEventListener(&quot;mousedown&quot;,l,false);m.appendChild(C);B.setAttribute(&quot;width&quot;,D+7*d);B.setAttribute(&quot;height&quot;,j+2*d);i=-D-9*d;t=0;y=x=i;m.setAttribute(&quot;transform&quot;,&quot;translate(&quot;+i+&quot;,0)&quot;);u=new sozi.animation.Animator(r,w)}function n(z){var B=Array.prototype.slice.call(q.getElementsByClassName(&quot;sozi-toc-current&quot;)),A=c.getElementsByTagName(&quot;text&quot;);B.forEach(function(C){C.removeAttribute(&quot;class&quot;)});A[z].setAttribute(&quot;class&quot;,&quot;sozi-toc-current&quot;)}v.show=function(){b=y;x=t;u.start(f)};v.hide=function(){b=y;x=i;u.start(f)};v.isVisible=function(){return x===t};sozi.events.listen(&quot;displayready&quot;,o);sozi.events.listen(&quot;cleanup&quot;,v.hide);sozi.events.listen(&quot;framechange&quot;,n)});module(&quot;sozi.animation&quot;,function(d){var g=this,i=40,j=[],b,h=g.mozRequestAnimationFrame||g.webkitRequestAnimationFrame||g.msRequestAnimationFrame||g.oRequestAnimationFrame;function e(l){var k;if(j.length&gt;0){if(h){h(e)}j.forEach(function(m){m.step(l)})}else{if(!h){g.clearInterval(b)}}}function c(){if(h){h(e)}else{b=g.setInterval(function(){e(Date.now())},i)}}function a(k){j.push(k);if(j.length===1){c()}}function f(k){j.splice(j.indexOf(k),1)}d.Animator=function(k,l){this.onStep=k;this.onDone=l;this.durationMs=0;this.data={};this.initialTime=0;this.started=false};d.Animator.prototype.start=function(k,l){this.durationMs=k;this.data=l;this.initialTime=Date.now();this.onStep(0,this.data);if(!this.started){this.started=true;a(this)}};d.Animator.prototype.stop=function(){if(this.started){f(this);this.started=false}};d.Animator.prototype.step=function(l){var k=l-this.initialTime;if(k&gt;=this.durationMs){this.stop();this.onStep(1,this.data);this.onDone()}else{this.onStep(k/this.durationMs,this.data)}};d.profiles={linear:function(k){return k},accelerate:function(k){return Math.pow(k,3)},&quot;strong-accelerate&quot;:function(k){return Math.pow(k,5)},decelerate:function(k){return 1-Math.pow(1-k,3)},&quot;strong-decelerate&quot;:function(k){return 1-Math.pow(1-k,5)},&quot;accelerate-decelerate&quot;:function(k){var l=k&lt;=0.5?k:1-k,m=Math.pow(2*l,3)/2;return k&lt;=0.5?m:1-m},&quot;strong-accelerate-decelerate&quot;:function(k){var l=k&lt;=0.5?k:1-k,m=Math.pow(2*l,5)/2;return k&lt;=0.5?m:1-m},&quot;decelerate-accelerate&quot;:function(k){var l=k&lt;=0.5?k:1-k,m=(1-Math.pow(1-2*l,2))/2;return k&lt;=0.5?m:1-m},&quot;strong-decelerate-accelerate&quot;:function(k){var l=k&lt;=0.5?k:1-k,m=(1-Math.pow(1-2*l,3))/2;return k&lt;=0.5?m:1-m}}});module(&quot;sozi.display&quot;,function(c){var f=this,a=f.document,g,b=&quot;http://www.w3.org/2000/svg&quot;;c.layers={};function e(){var j,k,l,i=a.documentElement;g=i.getBBox();i.setAttribute(&quot;width&quot;,f.innerWidth);i.setAttribute(&quot;height&quot;,f.innerHeight);sozi.document.idLayerList.forEach(function(m){c.layers[m]={geometry:{cx:0,cy:0,width:1,height:1,rotate:0,clip:true},svgClipRect:a.createElementNS(b,&quot;rect&quot;),svgLayer:a.getElementById(m)};k=a.createElementNS(b,&quot;clipPath&quot;);k.setAttribute(&quot;id&quot;,&quot;sozi-clip-path-&quot;+m);k.appendChild(c.layers[m].svgClipRect);i.appendChild(k);j=a.createElementNS(b,&quot;g&quot;);j.setAttribute(&quot;clip-path&quot;,&quot;url(#sozi-clip-path-&quot;+m+&quot;)&quot;);i.insertBefore(j,c.layers[m].svgLayer);j.appendChild(c.layers[m].svgLayer)});sozi.events.fire(&quot;displayready&quot;)}function d(){var i=a.documentElement;i.setAttribute(&quot;width&quot;,f.innerWidth);i.setAttribute(&quot;height&quot;,f.innerHeight);c.update()}function h(k){var j=c.layers[k].geometry,i={};i.scale=Math.min(f.innerWidth/j.width,f.innerHeight/j.height);i.width=j.width*i.scale;i.height=j.height*i.scale;i.x=(f.innerWidth-i.width)/2;i.y=(f.innerHeight-i.height)/2;return i}c.getElementGeometry=function(m){var p,l,q,j,n,k,o=m.getCTM(),i=Math.sqrt(o.a*o.a+o.b*o.b);if(m.nodeName===&quot;rect&quot;){p=m.x.baseVal.value;l=m.y.baseVal.value;q=m.width.baseVal.value;j=m.height.baseVal.value}else{n=m.getBBox();p=n.x;l=n.y;q=n.width;j=n.height}k=a.documentElement.createSVGPoint();k.x=p+q/2;k.y=l+j/2;k=k.matrixTransform(o);return{cx:k.x,cy:k.y,width:q*i,height:j*i,rotate:Math.atan2(o.b,o.a)*180/Math.PI}};c.getDocumentGeometry=function(){var k,i={layers:{}},j={geometry:{cx:g.x+g.width/2,cy:g.y+g.height/2,width:g.width,height:g.height,rotate:0,clip:false}};for(k in c.layers){if(c.layers.hasOwnProperty(k)){i.layers[k]=j}}return i};c.update=function(){var n,i,j,k,m,l;for(n in c.layers){if(c.layers.hasOwnProperty(n)){j=c.layers[n].geometry;i=h(n);k=c.layers[n].svgClipRect;k.setAttribute(&quot;x&quot;,j.clip?i.x:0);k.setAttribute(&quot;y&quot;,j.clip?i.y:0);k.setAttribute(&quot;width&quot;,j.clip?i.width:f.innerWidth);k.setAttribute(&quot;height&quot;,j.clip?i.height:f.innerHeight);m=-j.cx+j.width/2+i.x/i.scale;l=-j.cy+j.height/2+i.y/i.scale;c.layers[n].svgLayer.setAttribute(&quot;transform&quot;,&quot;scale(&quot;+i.scale+&quot;)translate(&quot;+m+&quot;,&quot;+l+&quot;)rotate(&quot;+(-j.rotate)+&quot;,&quot;+j.cx+&quot;,&quot;+j.cy+&quot;)&quot;)}}};c.showFrame=function(l){var m,k,j,i;for(m in l.layers){if(l.layers.hasOwnProperty(m)){j=l.layers[m].geometry;k=c.layers[m].geometry;for(i in j){if(j.hasOwnProperty(i)){k[i]=j[i]}}}}c.update()};c.drag=function(k,i){var n,l,j,m;for(n in c.layers){if(c.layers.hasOwnProperty(n)){l=c.layers[n].geometry;j=h(n);m=l.rotate*Math.PI/180;l.cx-=(k*Math.cos(m)-i*Math.sin(m))/j.scale;l.cy-=(k*Math.sin(m)+i*Math.cos(m))/j.scale;l.clip=false}}c.update()};c.zoom=function(l,j,n){var m,k=(1-l)*(j-f.innerWidth/2),i=(1-l)*(n-f.innerHeight/2);for(m in c.layers){if(c.layers.hasOwnProperty(m)){c.layers[m].geometry.width/=l;c.layers[m].geometry.height/=l}}c.drag(k,i)};c.rotate=function(i){var j;for(j in c.layers){if(c.layers.hasOwnProperty(j)){c.layers[j].geometry.rotate+=i;c.layers[j].geometry.rotate%=360}}c.update()};sozi.events.listen(&quot;documentready&quot;,e);f.addEventListener(&quot;resize&quot;,d,false)});module(&quot;sozi.player&quot;,function(q){var n=sozi.display,g=this,p,j,o=500,c=-10,l=&quot;linear&quot;,h=0,i=0,b=false,a=false;function m(v,x){var w,u,z,t,s,y;for(z in x){if(x.hasOwnProperty(z)){t=n.layers[z].geometry;w=x[z].profile(v);u=1-w;for(s in x[z].initialState){if(x[z].initialState.hasOwnProperty(s)){if(typeof x[z].initialState[s]===&quot;number&quot;&amp;&amp;typeof x[z].finalState[s]===&quot;number&quot;){t[s]=x[z].finalState[s]*w+x[z].initialState[s]*u}}}if(x[z].zoomWidth&amp;&amp;x[z].zoomWidth.k!==0){y=v-x[z].zoomWidth.ts;t.width=x[z].zoomWidth.k*y*y+x[z].zoomWidth.ss}if(x[z].zoomHeight&amp;&amp;x[z].zoomHeight.k!==0){y=v-x[z].zoomHeight.ts;t.height=x[z].zoomHeight.k*y*y+x[z].zoomHeight.ss}t.clip=x[z].finalState.clip}}n.update()}function f(){var s;if(sozi.document.frames[i].timeoutEnable){a=true;s=(i+1)%sozi.document.frames.length;j=g.setTimeout(function(){q.moveToFrame(s)},sozi.document.frames[i].timeoutMs)}}function r(){h=i;if(b){f()}}q.startFromIndex=function(s){b=true;a=false;h=s;i=s;n.showFrame(sozi.document.frames[s]);f()};q.restart=function(){q.startFromIndex(i)};q.stop=function(){p.stop();if(a){g.clearTimeout(j);a=false}b=false;h=i};function e(s,C,A){var D={ss:((s&lt;0)?Math.max(C,A):Math.min(C,A))*(100-s)/100,ts:0.5,k:0},y,x,w,t,B,z;if(s!==0){y=C-A;x=C-D.ss;w=A-D.ss;if(y!==0){t=Math.sqrt(x*w);B=(x-t)/y;z=(x+t)/y;D.ts=(B&gt;0&amp;&amp;B&lt;=1)?B:z}D.k=x/D.ts/D.ts}return D}q.jumpToFrame=function(s){q.stop();sozi.events.fire(&quot;cleanup&quot;);h=s;i=s;n.showFrame(sozi.document.frames[s]);sozi.events.fire(&quot;framechange&quot;,s)};function d(s,w,z,t){var u,y,x,v={};for(y in s.layers){if(s.layers.hasOwnProperty(y)){v[y]={initialState:{},finalState:{}};v[y].profile=t||w.layers[y].transitionProfile;for(u in s.layers[y].geometry){if(s.layers[y].geometry.hasOwnProperty(u)){v[y].initialState[u]=s.layers[y].geometry[u];if(w.layers.hasOwnProperty(y)){v[y].finalState[u]=w.layers[y].geometry[u]}else{v[y].finalState[u]=s.layers[y].geometry[u]}}}v[y].initialState.rotate=(v[y].initialState.rotate-180)%360+180;v[y].finalState.rotate=(v[y].finalState.rotate-180)%360+180;if(v[y].finalState.rotate-v[y].initialState.rotate&gt;180){v[y].finalState.rotate-=360}else{if(v[y].finalState.rotate-v[y].initialState.rotate&lt;-180){v[y].initialState.rotate-=360}}x=z||w.layers[y].transitionZoomPercent;if(x&amp;&amp;w.layers.hasOwnProperty(y)){v[y].zoomWidth=e(x,s.layers[y].geometry.width,w.layers[y].geometry.width);v[y].zoomHeight=e(x,s.layers[y].geometry.height,w.layers[y].geometry.height)}}}return v}q.previewFrame=function(s){i=s;p.start(o,d(n,sozi.document.frames[s],c,sozi.animation.profiles[l]));sozi.events.fire(&quot;framechange&quot;,s)};q.moveToFrame=function(t){var s,v,u;if(a){g.clearTimeout(j);a=false}if(t===(i+1)%sozi.document.frames.length){s=sozi.document.frames[t].transitionDurationMs;v=undefined;u=undefined}else{s=o;v=c;u=sozi.animation.profiles[l]}sozi.events.fire(&quot;cleanup&quot;);b=true;i=t;p.start(s,d(n,sozi.document.frames[t],v,u));sozi.events.fire(&quot;framechange&quot;,t)};q.moveToFirst=function(){q.moveToFrame(0)};q.jumpToPrevious=function(){var s=i;if(!p.started||h&lt;=i){s-=1}if(s&gt;=0){q.jumpToFrame(s)}};q.moveToPrevious=function(){var s,t;for(s=i-1;s&gt;=0;s-=1){t=sozi.document.frames[s];if(!t.timeoutEnable||t.timeoutMs!==0){q.moveToFrame(s);break}}};q.jumpToNext=function(){var s=i;if(!p.started||h&gt;=i){s+=1}if(s&lt;sozi.document.frames.length){q.jumpToFrame(s)}};q.moveToNext=function(){if(i&lt;sozi.document.frames.length-1||sozi.document.frames[i].timeoutEnable){q.moveToFrame((i+1)%sozi.document.frames.length)}};q.moveToLast=function(){q.moveToFrame(sozi.document.frames.length-1)};q.moveToCurrent=function(){q.moveToFrame(i)};q.showAll=function(){q.stop();sozi.events.fire(&quot;cleanup&quot;);p.start(o,d(n,n.getDocumentGeometry(),c,sozi.animation.profiles[l]))};function k(){q.startFromIndex(sozi.location.getFrameIndex());g.setTimeout(n.update,1)}p=new sozi.animation.Animator(m,r);sozi.events.listen(&quot;displayready&quot;,k)});module(&quot;sozi.actions&quot;,function(y){var t=sozi.player,u=sozi.display,j=this,o=j.document,p=0,v=1,s=1.05,x=5,c=false,l=false,g=0,e=0;function a(A,z,B){t.stop();u.zoom(A&gt;0?s:1/s,z,B)}function w(z){t.stop();u.rotate(z&gt;0?x:-x)}function r(){if(sozi.framelist.isVisible()){sozi.framelist.hide();t.restart()}else{t.stop();sozi.framelist.show()}}function i(z){if(z.button===p){c=true;l=false;g=z.clientX;e=z.clientY}else{if(z.button===v){r()}}z.stopPropagation();z.preventDefault()}function m(z){if(c){t.stop();l=true;sozi.events.fire(&quot;cleanup&quot;);u.drag(z.clientX-g,z.clientY-e);g=z.clientX;e=z.clientY}z.stopPropagation()}function f(z){if(z.button===p){c=false}z.stopPropagation();z.preventDefault()}function q(z){t.moveToPrevious();z.stopPropagation();z.preventDefault()}function h(z){if(!l&amp;&amp;z.button!==v){t.moveToNext()}z.stopPropagation();z.preventDefault()}function k(z){var A=0;if(!z){z=j.event}if(z.wheelDelta){A=z.wheelDelta}else{if(z.detail){A=-z.detail}}if(A!==0){if(z.shiftKey){w(A)}else{a(A,z.clientX,z.clientY)}}z.stopPropagation();z.preventDefault()}function n(z){if(z.altKey||z.ctrlKey||z.metaKey){return}switch(z.charCode||z.keyCode){case 43:a(1,j.innerWidth/2,j.innerHeight/2);break;case 45:a(-1,j.innerWidth/2,j.innerHeight/2);break;case 61:t.moveToCurrent();break;case 70:case 102:t.showAll();break;case 84:case 116:r();break;case 82:w(-1);break;case 114:w(1);break}z.stopPropagation();z.preventDefault()}function d(z){if(z.altKey||z.ctrlKey||z.metaKey){return}switch(z.keyCode){case 36:t.moveToFirst();break;case 35:t.moveToLast();break;case 38:t.jumpToPrevious();break;case 33:case 37:t.moveToPrevious();break;case 40:t.jumpToNext();break;case 34:case 39:case 13:case 32:t.moveToNext();break}z.stopPropagation()}function b(){var z=o.documentElement;z.addEventListener(&quot;click&quot;,h,false);z.addEventListener(&quot;mousedown&quot;,i,false);z.addEventListener(&quot;mouseup&quot;,f,false);z.addEventListener(&quot;mousemove&quot;,m,false);z.addEventListener(&quot;keypress&quot;,n,false);z.addEventListener(&quot;keydown&quot;,d,false);z.addEventListener(&quot;contextmenu&quot;,q,false);z.addEventListener(&quot;DOMMouseScroll&quot;,k,false);j.onmousewheel=k}j.addEventListener(&quot;load&quot;,b,false)});module(&quot;sozi.document&quot;,function(c){var e=this,g=e.document,b=&quot;http://sozi.baierouge.fr&quot;,d={title:&quot;Untitled&quot;,sequence:&quot;0&quot;,hide:&quot;true&quot;,clip:&quot;true&quot;,&quot;timeout-enable&quot;:&quot;false&quot;,&quot;timeout-ms&quot;:&quot;5000&quot;,&quot;transition-duration-ms&quot;:&quot;1000&quot;,&quot;transition-zoom-percent&quot;:&quot;0&quot;,&quot;transition-profile&quot;:&quot;linear&quot;};c.frames=[];c.idLayerList=[];function i(k,j){var l=k.getAttributeNS(b,j);return l===&quot;&quot;?d[j]:l}function h(n,o,j){var k=n.layers[o]=n.layers[o]||{idLayer:o,geometry:{clip:d.clip}},l=k.geometry.clip,m;if(typeof k.hide===&quot;undefined&quot;||j.hasAttributeNS(b,&quot;hide&quot;)){k.hide=i(j,&quot;hide&quot;)===&quot;true&quot;}if(typeof k.transitionZoomPercent===&quot;undefined&quot;||j.hasAttributeNS(b,&quot;transition-zoom-percent&quot;)){k.transitionZoomPercent=parseInt(i(j,&quot;transition-zoom-percent&quot;),10)}if(typeof k.transitionProfile===&quot;undefined&quot;||j.hasAttributeNS(b,&quot;transition-profile&quot;)){k.transitionProfile=sozi.animation.profiles[i(j,&quot;transition-profile&quot;)||&quot;linear&quot;]}if(j.hasAttributeNS(b,&quot;refid&quot;)){m=g.getElementById(j.getAttributeNS(b,&quot;refid&quot;));if(m){if(k.hide){m.style.visibility=&quot;hidden&quot;}k.geometry=sozi.display.getElementGeometry(m);k.geometry.clip=l}}if(j.hasAttributeNS(b,&quot;clip&quot;)){k.geometry.clip=i(j,&quot;clip&quot;)===&quot;true&quot;}}function a(){var j,m,n,o,k=g.documentElement,l=&quot;http://www.w3.org/2000/svg&quot;;m=Array.prototype.slice.call(g.getElementsByTagNameNS(b,&quot;layer&quot;));m.forEach(function(p){var q=p.getAttributeNS(b,&quot;group&quot;);if(q&amp;&amp;c.idLayerList.indexOf(q)===-1&amp;&amp;g.getElementById(q)){c.idLayerList.push(q)}});j=Array.prototype.slice.call(g.getElementsByTagNameNS(b,&quot;frame&quot;));if(j.some(function(p){return p.hasAttributeNS(b,&quot;refid&quot;)})){n=g.createElementNS(l,&quot;g&quot;);o=Array.prototype.slice.call(k.childNodes);o.forEach(function(q,p){if(!q.getAttribute){k.removeChild(q)}else{if(c.idLayerList.indexOf(q.getAttribute(&quot;id&quot;))===-1){k.removeChild(q);n.appendChild(q)}else{if(n.firstChild){n.setAttribute(&quot;id&quot;,&quot;sozi-wrapper-&quot;+p);c.idLayerList.push(&quot;sozi-wrapper-&quot;+p);k.insertBefore(n,q);n=g.createElementNS(l,&quot;g&quot;)}}}});if(n.firstChild){n.setAttribute(&quot;id&quot;,&quot;sozi-wrapper-&quot;+o.length);c.idLayerList.push(&quot;sozi-wrapper-&quot;+o.length);k.appendChild(n)}}j.forEach(function(q,p){var s,r={id:q.getAttribute(&quot;id&quot;),title:i(q,&quot;title&quot;),sequence:parseInt(i(q,&quot;sequence&quot;),10),timeoutEnable:i(q,&quot;timeout-enable&quot;)===&quot;true&quot;,timeoutMs:parseInt(i(q,&quot;timeout-ms&quot;),10),transitionDurationMs:parseInt(i(q,&quot;transition-duration-ms&quot;),10),layers:{}};c.idLayerList.forEach(function(w){var t,u,v;if(p===0||w.search(&quot;sozi-wrapper-[0-9]+&quot;)!==-1){h(r,w,q)}else{u=r.layers[w]={};v=c.frames[c.frames.length-1].layers[w];for(t in v){u[t]=v[t]}}});m=Array.prototype.slice.call(q.getElementsByTagNameNS(b,&quot;layer&quot;));m.forEach(function(t){var u=t.getAttributeNS(b,&quot;group&quot;);if(u&amp;&amp;c.idLayerList.indexOf(u)!==-1){h(r,u,t)}});for(s in r.layers){if(r.layers.hasOwnProperty(s)){c.frames.push(r);break}}});c.frames.sort(function(q,p){return q.sequence-p.sequence})}function f(){g.documentElement.removeAttribute(&quot;viewBox&quot;);a();sozi.events.fire(&quot;documentready&quot;)}e.addEventListener(&quot;load&quot;,f,false)});module(&quot;sozi.location&quot;,function(a){var e=this,c=false;a.getFrameIndex=function(){var g=e.location.hash?parseInt(e.location.hash.slice(1),10)-1:0;if(isNaN(g)||g&lt;0){return 0}else{if(g&gt;=sozi.document.frames.length){return sozi.document.frames.length-1}else{return g}}};function f(){var g=a.getFrameIndex();if(!c){sozi.player.moveToFrame(g)}c=false}function d(g){c=true;e.location.hash=&quot;#&quot;+(g+1)}function b(){sozi.events.listen(&quot;framechange&quot;,d)}e.addEventListener(&quot;hashchange&quot;,f,false);e.addEventListener(&quot;load&quot;,b,false)});</script>
  <style
     ns1:version="12.04-15174810"
     id="sozi-style">#sozi-toc text{fill:#eff;font-family:Verdana,sans-serif;font-size:12pt}#sozi-toc text:hover{fill:#0cf;cursor:pointer}#sozi-toc text.sozi-toc-current{fill:#fa4}#sozi-toc-background{stroke:#222;stroke-opacity:.1;stroke-width:10;fill:#222;fill-opacity:.9}.sozi-toc-arrow{fill:#eff;fill-opacity:.75;stroke:none}.sozi-toc-arrow:hover{fill:#0cf}#sozi-framenumber circle{stroke:#222;stroke-opacity:.1;stroke-width:4;fill:#222;fill-opacity:.9}#sozi-framenumber text{fill:#eff;font-family:Verdana,sans-serif;font-size:12pt}</style>
</svg>
