<?xml version="1.0" encoding="UTF-8" standalone="no"?>
<!-- Created with Inkscape (http://www.inkscape.org/) -->

<svg
   xmlns:ns1="http://sozi.baierouge.fr"
   xmlns:dc="http://purl.org/dc/elements/1.1/"
   xmlns:cc="http://creativecommons.org/ns#"
   xmlns:rdf="http://www.w3.org/1999/02/22-rdf-syntax-ns#"
   xmlns:svg="http://www.w3.org/2000/svg"
   xmlns="http://www.w3.org/2000/svg"
   xmlns:xlink="http://www.w3.org/1999/xlink"
   xmlns:sodipodi="http://sodipodi.sourceforge.net/DTD/sodipodi-0.dtd"
   xmlns:inkscape="http://www.inkscape.org/namespaces/inkscape"
   width="210mm"
   height="297mm"
   id="svg2"
   version="1.1"
   inkscape:version="0.48.3.1 r9886"
   sodipodi:docname="links-demo.svg">
  <sodipodi:namedview
     id="base"
     pagecolor="#ffffff"
     bordercolor="#666666"
     borderopacity="1.0"
     inkscape:pageopacity="0.0"
     inkscape:pageshadow="2"
     inkscape:zoom="1.4"
     inkscape:cx="392.43171"
     inkscape:cy="819.29943"
     inkscape:document-units="px"
     inkscape:current-layer="layer1"
     showgrid="false"
     inkscape:window-width="1366"
     inkscape:window-height="722"
     inkscape:window-x="0"
     inkscape:window-y="24"
     inkscape:window-maximized="1" />
  <defs
     id="defs4" />
  <metadata
     id="metadata7">
    <rdf:RDF>
      <cc:Work
         rdf:about="">
        <dc:format>image/svg+xml</dc:format>
        <dc:type
           rdf:resource="http://purl.org/dc/dcmitype/StillImage" />
        <dc:title />
      </cc:Work>
    </rdf:RDF>
  </metadata>
  <g
     id="layer1"
     inkscape:groupmode="layer"
     inkscape:label="Calque 1">
    <g
       style="font-size:24px;font-style:normal;font-variant:normal;font-weight:normal;font-stretch:normal;text-align:start;line-height:125%;letter-spacing:0px;word-spacing:0px;text-anchor:start;fill:#ff0000;fill-opacity:1;stroke:none;font-family:Purisa;-inkscape-font-specification:Purisa"
       id="text5916">
      <path
         d="m 157.08228,151.00559 c 0,-0.27198 0.36,-0.81598 1.08,-1.632 0.72,-0.81598 1.176,-1.22398 1.368,-1.224 0.62399,2e-5 1.95999,0.12802 4.008,0.384 2.04799,0.25602 3.26399,0.44802 3.648,0.576 1.07199,0.30402 1.60799,1.03202 1.608,2.184 -10e-6,0.54402 -0.13601,1.10402 -0.408,1.68 -0.25601,0.56002 -0.54401,1.03202 -0.864,1.416 -0.32001,0.36801 -0.61601,0.71201 -0.888,1.032 -0.25601,0.32001 -0.38401,0.52001 -0.384,0.6 -1e-5,0.11201 -0.46401,0.47201 -1.392,1.08 -0.91201,0.59201 -1.72001,1.07201 -2.424,1.44 -0.57601,0.32001 -0.86401,0.52001 -0.864,0.6 -1e-5,0.032 0.29599,0.15201 0.888,0.36 0.60799,0.19201 1.33599,0.45601 2.184,0.792 0.84799,0.33601 1.50399,0.66401 1.968,0.984 0.73599,0.51201 1.18399,0.76801 1.344,0.768 0.22399,0.016 0.58399,0.28801 1.08,0.816 0.51199,0.51201 0.76799,0.88001 0.768,1.104 -1e-5,0.40001 -0.14401,0.60001 -0.432,0.6 -0.25601,1e-5 -0.68801,-0.15999 -1.296,-0.48 -0.59201,-0.31999 -1.36801,-0.73599 -2.328,-1.248 -0.94401,-0.52799 -1.84001,-0.95199 -2.688,-1.272 l -1.872,-0.744 0.096,2.808 c 0.016,0.43201 0.024,0.93601 0.024,1.512 -10e-6,0.032 -10e-6,0.08 0,0.144 -10e-6,0.304 -0.008,0.52 -0.024,0.648 -0.016,0.144 -0.072,0.272 -0.168,0.384 -0.096,0.128 -0.24801,0.192 -0.456,0.192 -0.60801,0 -0.912,-0.976 -0.912,-2.928 0,-2.04799 -0.328,-3.22399 -0.984,-3.528 -0.48,-0.20799 -0.72,-0.49599 -0.72,-0.864 0,-0.33599 0.232,-0.61599 0.696,-0.84 l 0.792,-0.36 -0.192,-2.736 c -0.096,-1.45598 -0.2,-2.46398 -0.312,-3.024 -0.096,-0.57598 -0.232,-0.86398 -0.408,-0.864 -0.048,2e-5 -0.144,0.056 -0.288,0.168 -0.144,0.11202 -0.32,0.16802 -0.528,0.168 -0.192,2e-5 -0.36,-0.064 -0.504,-0.192 -0.144,-0.12798 -0.216,-0.29598 -0.216,-0.504 m 10.296,0.12 c -1e-5,-0.064 -0.016,-0.11198 -0.048,-0.144 -0.032,-0.032 -0.18401,-0.096 -0.456,-0.192 -0.25601,-0.096 -0.68001,-0.22398 -1.272,-0.384 -1.08801,-0.30398 -2.19201,-0.45598 -3.312,-0.456 l -1.728,0 0.168,1.296 c 0.048,0.32002 0.11999,1.00002 0.216,2.04 0.096,1.02402 0.18399,1.93601 0.264,2.736 0.08,0.78401 0.13599,1.17601 0.168,1.176 0.22399,1e-5 0.81599,-0.26399 1.776,-0.792 0.95999,-0.52799 1.63199,-0.96799 2.016,-1.32 0.41599,-0.36799 0.88799,-1.03198 1.416,-1.992 0.52799,-0.95998 0.79199,-1.61598 0.792,-1.968"
         style=""
         id="path6612" />
      <path
         d="m 184.62753,160.77359 c 0.08,10e-6 0.11999,0.064 0.12,0.192 -1e-5,0.28801 -0.21601,0.75201 -0.648,1.392 -0.41601,0.64001 -0.86401,1.16801 -1.344,1.584 -1.68001,1.488 -3.36001,2.232 -5.04,2.232 -0.64001,0 -1.28001,-0.144 -1.92,-0.432 -0.62401,-0.304 -1.208,-0.728 -1.752,-1.272 -0.544,-0.54399 -0.984,-1.27199 -1.32,-2.184 -0.336,-0.91199 -0.504,-1.92799 -0.504,-3.048 0,-0.68799 0.08,-1.27199 0.24,-1.752 0.32,-0.97599 1,-2.00799 2.04,-3.096 1.05599,-1.08798 2.04799,-1.63198 2.976,-1.632 0.25599,2e-5 0.63999,0.024 1.152,0.072 0.76799,0.064 1.30399,0.14402 1.608,0.24 0.31999,0.096 0.67999,0.29602 1.08,0.6 0.51199,0.38402 0.95199,0.88002 1.32,1.488 0.38399,0.59201 0.57599,1.08801 0.576,1.488 -1e-5,0.51201 -0.20001,0.90401 -0.6,1.176 -0.40001,0.25601 -1.17601,0.51201 -2.328,0.768 -1.48801,0.33601 -2.96001,0.54401 -4.416,0.624 l -2.232,0.12 0,0.96 c 0,1.18401 0.552,2.30401 1.656,3.36 0.83199,0.80001 1.69599,1.2 2.592,1.2 0.68799,0 1.41599,-0.20799 2.184,-0.624 0.78399,-0.43199 1.44799,-0.90399 1.992,-1.416 0.54399,-0.51199 1.06399,-0.97599 1.56,-1.392 0.49599,-0.43199 0.83199,-0.64799 1.008,-0.648 m -3.864,-5.856 c -0.49601,-0.44798 -0.87201,-0.72798 -1.128,-0.84 -0.24001,-0.12798 -0.56001,-0.19198 -0.96,-0.192 -0.80001,2e-5 -1.40001,0.08 -1.8,0.24 -0.38401,0.14402 -0.77601,0.44802 -1.176,0.912 -1.216,1.39201 -1.824,2.32001 -1.824,2.784 0,0.20801 0.192,0.31201 0.576,0.312 1.45599,1e-5 3.51999,-0.30399 6.192,-0.912 0.79999,-0.19199 1.19999,-0.52799 1.2,-1.008 -10e-6,-0.22399 -0.36001,-0.65599 -1.08,-1.296"
         style=""
         id="path6614" />
      <path
         d="m 201.19203,166.17359 c -2e-5,0.352 -0.072,0.624 -0.216,0.816 -0.12802,0.208 -0.24802,0.328 -0.36,0.36 -0.096,0.048 -0.18402,0.072 -0.264,0.072 -0.20802,0 -0.38401,-0.072 -0.528,-0.216 -0.14401,-0.128 -0.25601,-0.368 -0.336,-0.72 -0.08,-0.336 -0.13601,-0.592 -0.168,-0.768 -0.016,-0.176 -0.048,-0.504 -0.096,-0.984 -0.11201,-1.61599 -0.24001,-2.42399 -0.384,-2.424 -0.17601,1e-5 -0.45601,0.23201 -0.84,0.696 -1.79201,2.112 -3.68001,3.168 -5.664,3.168 -0.59201,0 -1.18401,-0.112 -1.776,-0.336 -2.048,-0.768 -3.072,-2.33599 -3.072,-4.704 0,-1.02399 0.168,-1.99999 0.504,-2.928 0.352,-0.94399 0.792,-1.73599 1.32,-2.376 0.544,-0.63999 1.08799,-1.17598 1.632,-1.608 0.54399,-0.43198 1.06399,-0.73598 1.56,-0.912 0.62399,-0.23998 1.05599,-0.35998 1.296,-0.36 0.41599,2e-5 1.11199,0.27202 2.088,0.816 0.99199,0.54402 1.67999,1.07201 2.064,1.584 0.43199,0.57601 0.75999,0.86401 0.984,0.864 0.016,1e-5 0.024,1e-5 0.024,0 -1e-5,-0.016 0.008,-0.024 0.024,-0.024 0.17599,-0.11199 0.26399,-2.19998 0.264,-6.264 -1e-5,-4.01598 0.096,-6.29597 0.288,-6.84 0.20799,-0.49597 0.51998,-0.74397 0.936,-0.744 l 0.648,0 -0.192,9.864 c -0.048,2.44802 -0.072,4.63201 -0.072,6.552 -2e-5,2.60801 0.056,4.47201 0.168,5.592 0.11198,1.12 0.16798,1.728 0.168,1.824 m -5.616,-10.632 c -0.94401,-0.62399 -1.60001,-0.93598 -1.968,-0.936 -0.32001,2e-5 -1.04001,0.54401 -2.16,1.632 -1.12001,1.08801 -1.784,1.88801 -1.992,2.4 -0.16,0.38401 -0.24,1.08001 -0.24,2.088 0,1.23201 0.104,2.03201 0.312,2.4 0.16,0.28801 0.54399,0.60001 1.152,0.936 0.62399,0.33601 1.23999,0.50401 1.848,0.504 1.08799,1e-5 2.46399,-0.79999 4.128,-2.4 1.31199,-1.26399 1.96799,-2.08799 1.968,-2.472 -1e-5,-0.52799 -0.33601,-1.23199 -1.008,-2.112 -0.65601,-0.87999 -1.33601,-1.55999 -2.04,-2.04"
         style=""
         id="path6616" />
    </g>
    <g
       style="font-size:24px;font-style:normal;font-variant:normal;font-weight:normal;font-stretch:normal;text-align:start;line-height:125%;letter-spacing:0px;word-spacing:0px;text-anchor:start;fill:#008000;fill-opacity:1;stroke:none;font-family:Purisa;-inkscape-font-specification:Purisa"
       id="text5920">
      <path
         d="m 498.35774,156.96328 c -0.51201,1e-5 -1.01601,-0.096 -1.512,-0.288 -0.49601,-0.19199 -0.74401,-0.50399 -0.744,-0.936 -1e-5,-0.27199 0.11999,-0.47999 0.36,-0.624 0.23999,-0.14399 0.51199,-0.26399 0.816,-0.36 0.30399,-0.096 0.49599,-0.21599 0.576,-0.36 0.08,-0.12798 0.35999,-0.19198 0.84,-0.192 0.62399,2e-5 1.35999,0.096 2.208,0.288 0.84798,0.19201 1.40798,0.40001 1.68,0.624 0.46398,0.38401 0.81598,1.35201 1.056,2.904 0.25598,1.55201 0.38398,3.33601 0.384,5.352 -2e-5,1.056 -0.14402,1.68 -0.432,1.872 -0.12802,0.112 -0.27202,0.168 -0.432,0.168 -0.16002,0 -0.32802,-0.08 -0.504,-0.24 -0.32002,-0.304 -0.48002,-1.34399 -0.48,-3.12 l 0,-2.736 -0.768,1.272 c -0.91202,1.50401 -1.94401,2.68001 -3.096,3.528 -1.15201,0.832 -2.26401,1.248 -3.336,1.248 -0.62401,0 -1.20801,-0.152 -1.752,-0.456 -0.41601,-0.224 -0.72801,-0.488 -0.936,-0.792 -0.19201,-0.31999 -0.39201,-0.87199 -0.6,-1.656 -0.24001,-0.83199 -0.36001,-1.59199 -0.36,-2.28 -10e-6,-0.47999 0.048,-1.11199 0.144,-1.896 0.15999,-1.27999 0.38399,-2.28799 0.672,-3.024 0.30399,-0.73599 0.88799,-1.74398 1.752,-3.024 0.60799,-0.89598 1.27199,-1.66398 1.992,-2.304 0.71999,-0.63998 1.33599,-1.07998 1.848,-1.32 0.52799,-0.23998 0.99999,-0.46398 1.416,-0.672 0.43199,-0.22398 0.69599,-0.41598 0.792,-0.576 0.15999,-0.27198 0.56798,-0.40798 1.224,-0.408 0.70398,2e-5 1.27998,0.15202 1.728,0.456 0.46398,0.28802 0.69598,0.58402 0.696,0.888 -2e-5,0.19202 -0.096,0.48002 -0.288,0.864 -0.19202,0.36802 -0.39202,0.55202 -0.6,0.552 -0.17602,2e-5 -0.32002,-0.18398 -0.432,-0.552 -0.11202,-0.38398 -0.28802,-0.57598 -0.528,-0.576 -0.24002,2e-5 -0.54402,0.048 -0.912,0.144 -0.36802,0.096 -0.84001,0.29602 -1.416,0.6 -0.56001,0.30402 -1.12801,0.68002 -1.704,1.128 -0.56001,0.44802 -1.16801,1.08002 -1.824,1.896 -0.65601,0.80002 -1.24801,1.71202 -1.776,2.736 -0.48001,0.92801 -0.77601,1.62401 -0.888,2.088 -0.11201,0.46401 -0.16801,1.24001 -0.168,2.328 -1e-5,1.56801 0.13599,2.64001 0.408,3.216 0.27199,0.56001 0.78399,0.84001 1.536,0.84 1.59999,1e-5 2.91999,-0.68799 3.96,-2.064 0.51199,-0.68799 0.95199,-1.43199 1.32,-2.232 0.36798,-0.79999 0.55198,-1.40799 0.552,-1.824 -2e-5,-0.25599 -0.10402,-0.47999 -0.312,-0.672 -0.19201,-0.20799 -0.39201,-0.31199 -0.6,-0.312 -0.12801,1e-5 -0.30401,0.088 -0.528,0.264 -0.20801,0.16001 -0.55201,0.24001 -1.032,0.24"
         style=""
         id="path6601" />
      <path
         d="m 516.00299,153.55528 c 0.27199,2e-5 0.51199,0.088 0.72,0.264 0.20799,0.16002 0.31199,0.29602 0.312,0.408 -10e-6,0.19201 -0.30401,0.40801 -0.912,0.648 -0.99201,0.40001 -2.00801,1.36801 -3.048,2.904 -1.02401,1.52001 -1.64801,2.99201 -1.872,4.416 -0.25601,1.61601 -0.46401,2.672 -0.624,3.168 -0.16001,0.512 -0.36801,0.768 -0.624,0.768 -0.22401,0 -0.40001,-0.08 -0.528,-0.24 -0.11201,-0.16 -0.19201,-0.336 -0.24,-0.528 -0.032,-0.192 -0.072,-0.544 -0.12,-1.056 -0.016,-0.096 -0.024,-0.16799 -0.024,-0.216 -0.38401,-4.03199 -0.57601,-7.21599 -0.576,-9.552 -1e-5,-0.83198 0.032,-1.34398 0.096,-1.536 0.17599,-0.51198 0.39999,-0.76798 0.672,-0.768 0.25599,2e-5 0.38399,0.21602 0.384,0.648 -10e-6,0.72002 0.11199,1.88001 0.336,3.48 0.22399,1.60001 0.39199,2.40001 0.504,2.4 0.14399,1e-5 0.43999,-0.43999 0.888,-1.32 0.55999,-1.03999 1.30399,-1.94399 2.232,-2.712 0.94399,-0.78398 1.75199,-1.17598 2.424,-1.176"
         style=""
         id="path6603" />
      <path
         d="m 532.30836,160.05928 c 0.08,1e-5 0.11999,0.064 0.12,0.192 -10e-6,0.28801 -0.21601,0.75201 -0.648,1.392 -0.41601,0.64001 -0.86401,1.16801 -1.344,1.584 -1.68001,1.488 -3.36001,2.232 -5.04,2.232 -0.64,0 -1.28,-0.144 -1.92,-0.432 -0.624,-0.304 -1.208,-0.728 -1.752,-1.272 -0.544,-0.54399 -0.984,-1.27199 -1.32,-2.184 -0.336,-0.91199 -0.504,-1.92799 -0.504,-3.048 0,-0.68799 0.08,-1.27199 0.24,-1.752 0.32,-0.97599 1,-2.00799 2.04,-3.096 1.056,-1.08798 2.048,-1.63198 2.976,-1.632 0.25599,2e-5 0.63999,0.024 1.152,0.072 0.76799,0.064 1.30399,0.14402 1.608,0.24 0.31999,0.096 0.67999,0.29602 1.08,0.6 0.51199,0.38402 0.95199,0.88002 1.32,1.488 0.38399,0.59201 0.57599,1.08801 0.576,1.488 -1e-5,0.51201 -0.20001,0.90401 -0.6,1.176 -0.40001,0.25601 -1.17601,0.51201 -2.328,0.768 -1.48801,0.33601 -2.96001,0.54401 -4.416,0.624 l -2.232,0.12 0,0.96 c 0,1.18401 0.552,2.30401 1.656,3.36 0.832,0.80001 1.696,1.20001 2.592,1.2 0.68799,10e-6 1.41599,-0.20799 2.184,-0.624 0.78399,-0.43199 1.44799,-0.90399 1.992,-1.416 0.54399,-0.51199 1.06399,-0.97599 1.56,-1.392 0.49599,-0.43199 0.83199,-0.64799 1.008,-0.648 m -3.864,-5.856 c -0.49601,-0.44798 -0.87201,-0.72798 -1.128,-0.84 -0.24001,-0.12798 -0.56001,-0.19198 -0.96,-0.192 -0.80001,2e-5 -1.40001,0.08 -1.8,0.24 -0.384,0.14402 -0.776,0.44802 -1.176,0.912 -1.216,1.39201 -1.824,2.32001 -1.824,2.784 0,0.20801 0.192,0.31201 0.576,0.312 1.456,1e-5 3.51999,-0.30399 6.192,-0.912 0.79999,-0.19199 1.19999,-0.52799 1.2,-1.008 -10e-6,-0.22399 -0.36001,-0.65599 -1.08,-1.296"
         style=""
         id="path6605" />
      <path
         d="m 547.12086,160.05928 c 0.08,1e-5 0.11999,0.064 0.12,0.192 -10e-6,0.28801 -0.21601,0.75201 -0.648,1.392 -0.41601,0.64001 -0.86401,1.16801 -1.344,1.584 -1.68001,1.488 -3.36001,2.232 -5.04,2.232 -0.64,0 -1.28,-0.144 -1.92,-0.432 -0.624,-0.304 -1.208,-0.728 -1.752,-1.272 -0.544,-0.54399 -0.984,-1.27199 -1.32,-2.184 -0.336,-0.91199 -0.504,-1.92799 -0.504,-3.048 0,-0.68799 0.08,-1.27199 0.24,-1.752 0.32,-0.97599 1,-2.00799 2.04,-3.096 1.056,-1.08798 2.048,-1.63198 2.976,-1.632 0.25599,2e-5 0.63999,0.024 1.152,0.072 0.76799,0.064 1.30399,0.14402 1.608,0.24 0.31999,0.096 0.67999,0.29602 1.08,0.6 0.51199,0.38402 0.95199,0.88002 1.32,1.488 0.38399,0.59201 0.57599,1.08801 0.576,1.488 -1e-5,0.51201 -0.20001,0.90401 -0.6,1.176 -0.40001,0.25601 -1.17601,0.51201 -2.328,0.768 -1.48801,0.33601 -2.96001,0.54401 -4.416,0.624 l -2.232,0.12 0,0.96 c 0,1.18401 0.552,2.30401 1.656,3.36 0.832,0.80001 1.696,1.20001 2.592,1.2 0.68799,10e-6 1.41599,-0.20799 2.184,-0.624 0.78399,-0.43199 1.44799,-0.90399 1.992,-1.416 0.54399,-0.51199 1.06399,-0.97599 1.56,-1.392 0.49599,-0.43199 0.83199,-0.64799 1.008,-0.648 m -3.864,-5.856 c -0.49601,-0.44798 -0.87201,-0.72798 -1.128,-0.84 -0.24001,-0.12798 -0.56001,-0.19198 -0.96,-0.192 -0.80001,2e-5 -1.40001,0.08 -1.8,0.24 -0.384,0.14402 -0.776,0.44802 -1.176,0.912 -1.216,1.39201 -1.824,2.32001 -1.824,2.784 0,0.20801 0.192,0.31201 0.576,0.312 1.456,1e-5 3.51999,-0.30399 6.192,-0.912 0.79999,-0.19199 1.19999,-0.52799 1.2,-1.008 -10e-6,-0.22399 -0.36001,-0.65599 -1.08,-1.296"
         style=""
         id="path6607" />
      <path
         d="m 551.32536,152.23528 c 0,-0.54398 0.16,-0.81598 0.48,-0.816 0.208,2e-5 0.36,0.24002 0.456,0.72 0.096,0.46402 0.272,1.85602 0.528,4.176 0.32,2.59201 0.488,3.90401 0.504,3.936 0.016,0.016 0.08,-0.13599 0.192,-0.456 0.128,-0.33599 0.296,-0.83199 0.504,-1.488 0.32,-1.05599 0.59199,-1.81599 0.816,-2.28 0.22399,-0.47999 0.62399,-1.13599 1.2,-1.968 1.16799,-1.61598 2.07199,-2.42398 2.712,-2.424 0.41599,2e-5 0.80799,0.28002 1.176,0.84 0.49599,0.73602 0.79999,1.46402 0.912,2.184 0.11199,0.72001 0.19199,2.42401 0.24,5.112 0.032,1.72801 0.048,2.75201 0.048,3.072 -10e-6,0.80001 -0.032,1.38401 -0.096,1.752 -0.048,0.352 -0.12801,0.568 -0.24,0.648 -0.096,0.096 -0.27201,0.152 -0.528,0.168 -0.14401,0 -0.24001,-0.064 -0.288,-0.192 -0.048,-0.112 -0.072,-0.384 -0.072,-0.816 -10e-6,-0.23999 0.016,-0.75199 0.048,-1.536 0.032,-0.79999 0.048,-1.47199 0.048,-2.016 -1e-5,-1.35999 -0.056,-2.68799 -0.168,-3.984 -0.096,-1.31199 -0.21601,-2.15199 -0.36,-2.52 -0.08,-0.20798 -0.20801,-0.42398 -0.384,-0.648 -0.17601,-0.22398 -0.34401,-0.33598 -0.504,-0.336 -0.33601,2e-5 -0.87201,0.57602 -1.608,1.728 -0.73601,1.13601 -1.36801,2.33601 -1.896,3.6 -0.49601,1.15201 -0.832,2.04001 -1.008,2.664 -0.16,0.60801 -0.296,1.44001 -0.408,2.496 -0.176,1.632 -0.304,2.448 -0.384,2.448 -0.128,0 -0.312,-0.136 -0.552,-0.408 -0.176,-0.176 -0.296,-0.552 -0.36,-1.128 -0.064,-0.59199 -0.152,-1.75199 -0.264,-3.48 -0.112,-1.74399 -0.264,-3.50399 -0.456,-5.28 -0.192,-1.83998 -0.288,-3.09598 -0.288,-3.768"
         style=""
         id="path6609" />
    </g>
    <g
       style="font-size:24px;font-style:normal;font-variant:normal;font-weight:normal;font-stretch:normal;text-align:start;line-height:125%;letter-spacing:0px;word-spacing:0px;text-anchor:start;fill:#0000ff;fill-opacity:1;stroke:none;font-family:Purisa;-inkscape-font-specification:Purisa"
       id="text5924">
      <path
         d="m 168.58629,413.21471 c -0.208,0 -0.504,0.072 -0.888,0.216 -0.384,0.128 -0.664,0.192 -0.84,0.192 -0.208,0 -0.384,-0.072 -0.528,-0.216 -0.128,-0.16 -0.24,-0.392 -0.336,-0.696 -0.08,-0.32 -0.144,-0.68 -0.192,-1.08 -0.048,-0.4 -0.096,-0.896 -0.144,-1.488 -0.032,-0.592 -0.072,-1.18399 -0.12,-1.776 -0.032,-0.59199 -0.088,-1.29599 -0.168,-2.112 -0.064,-0.83199 -0.144,-1.62399 -0.24,-2.376 -0.176,-1.58399 -0.312,-2.97599 -0.408,-4.176 l -0.168,-2.16 -0.936,0 c -0.8,2e-5 -1.2,-0.17598 -1.2,-0.528 0,-0.51198 1.232,-1.08798 3.696,-1.728 0.992,-0.25598 2.448,-0.38398 4.368,-0.384 0.73599,2e-5 1.22399,0.04 1.464,0.12 0.25599,0.064 0.51199,0.23202 0.768,0.504 0.39999,0.46402 0.59999,0.84002 0.6,1.128 -1e-5,0.73602 -0.20801,1.52002 -0.624,2.352 -0.40001,0.83201 -0.80801,1.53601 -1.224,2.112 -0.40001,0.57601 -0.60001,0.92001 -0.6,1.032 -1e-5,0.096 0.11199,0.14401 0.336,0.144 0.31999,10e-6 0.79999,0.20001 1.44,0.6 0.65599,0.38401 1.07999,0.73601 1.272,1.056 0.38399,0.62401 0.57599,1.54401 0.576,2.76 -10e-6,1.90401 -0.53601,3.512 -1.608,4.824 -1.05601,1.312 -2.05601,1.968 -3,1.968 -0.16,0 -0.368,-0.048 -0.624,-0.144 -0.256,-0.096 -0.48,-0.144 -0.672,-0.144 m 3.096,-16.584 c -0.24001,-0.25598 -0.82401,-0.38398 -1.752,-0.384 -0.576,2e-5 -1.104,0.04 -1.584,0.12 -1.184,0.20802 -1.848,0.36002 -1.992,0.456 -0.16,0.11202 -0.24,0.39202 -0.24,0.84 l 0,0.48 c 0,0.97602 0.096,2.12001 0.288,3.432 0.112,0.86401 0.216,1.42401 0.312,1.68 0.096,0.24001 0.256,0.36001 0.48,0.36 0.352,10e-6 1.04,-0.59999 2.064,-1.8 1.03999,-1.19999 1.75999,-2.23199 2.16,-3.096 0.39999,-0.89598 0.59999,-1.40798 0.6,-1.536 -1e-5,-0.11198 -0.11201,-0.29598 -0.336,-0.552 m 1.536,10.416 c -1e-5,-2.09599 -0.77601,-3.14399 -2.328,-3.144 -0.40001,10e-6 -0.808,0.064 -1.224,0.192 -0.4,0.11201 -0.856,0.28801 -1.368,0.528 -0.496,0.22401 -0.84,0.36801 -1.032,0.432 -0.16,0.064 -0.272,0.16001 -0.336,0.288 -0.048,0.12801 -0.072,0.40801 -0.072,0.84 0,0.43201 0.024,1.12801 0.072,2.088 0.032,0.57601 0.056,1.032 0.072,1.368 0.032,0.32 0.064,0.64 0.096,0.96 0.048,0.32 0.112,0.552 0.192,0.696 0.08,0.144 0.16,0.288 0.24,0.432 0.096,0.128 0.232,0.216 0.408,0.264 0.176,0.048 0.352,0.088 0.528,0.12 0.192,0.016 0.448,0.032 0.768,0.048 0.08,0 0.184,0.008 0.312,0.024 0.128,0 0.216,0 0.264,0 0.39999,0 0.70399,-0.072 0.912,-0.216 0.20799,-0.144 0.56799,-0.52 1.08,-1.128 0.54399,-0.608 0.91199,-1.144 1.104,-1.608 0.20799,-0.47999 0.31199,-1.20799 0.312,-2.184"
         style=""
         id="path6577" />
      <path
         d="m 178.88942,397.99871 c -0.096,-1.02398 -0.144,-2.15198 -0.144,-3.384 0,-1.23198 0.032,-2.16798 0.096,-2.808 0.064,-0.65598 0.144,-1.07198 0.24,-1.248 0.096,-0.17598 0.232,-0.26398 0.408,-0.264 0.16,2e-5 0.288,0.072 0.384,0.216 0.096,0.16002 0.384,3.86402 0.864,11.112 0.49599,7.24801 0.74399,11.016 0.744,11.304 -1e-5,0.208 -0.048,0.352 -0.144,0.432 -0.096,0.064 -0.25601,0.096 -0.48,0.096 -0.384,0 -0.632,-0.272 -0.744,-0.816 -0.112,-0.56 -0.272,-2.296 -0.48,-5.208 -0.256,-3.51999 -0.504,-6.66399 -0.744,-9.432"
         style=""
         id="path6579" />
      <path
         d="m 185.41329,405.34271 c 0,-2.99199 0.224,-4.48799 0.672,-4.488 0.08,10e-6 0.16,0.016 0.24,0.048 0.096,0.032 0.208,0.15201 0.336,0.36 0.128,0.19201 0.192,0.46401 0.192,0.816 0,0.16001 -0.016,0.43201 -0.048,0.816 -0.032,0.36801 -0.048,0.78401 -0.048,1.248 0,1.29601 0.072,2.87201 0.216,4.728 0.144,1.856 0.296,3.072 0.456,3.648 0.16,0.624 0.432,0.936 0.816,0.936 0.368,0 0.928,-0.328 1.68,-0.984 0.928,-0.816 1.816,-2.088 2.664,-3.816 0.86399,-1.72799 1.46399,-3.45599 1.8,-5.184 0.31999,-1.69599 0.58399,-2.59999 0.792,-2.712 0.15999,-0.11199 0.32799,-0.16799 0.504,-0.168 0.38399,10e-6 0.57599,0.22401 0.576,0.672 -1e-5,0.22401 -0.12001,1.16001 -0.36,2.808 -0.22401,1.64801 -0.33601,2.83201 -0.336,3.552 -1e-5,1.00801 0.19999,2.264 0.6,3.768 0.41599,1.488 0.62399,2.336 0.624,2.544 -1e-5,0.16 -0.064,0.288 -0.192,0.384 -0.12801,0.096 -0.24001,0.152 -0.336,0.168 -0.08,0.032 -0.14401,0.048 -0.192,0.048 -0.28801,0 -0.57601,-0.408 -0.864,-1.224 -0.27201,-0.816 -0.52001,-1.632 -0.744,-2.448 -0.20801,-0.816 -0.39201,-1.224 -0.552,-1.224 -0.032,0 -0.064,0.008 -0.096,0.024 -0.032,0.016 -0.072,0.048 -0.12,0.096 -0.032,0.032 -0.064,0.072 -0.096,0.12 -0.032,0.048 -0.08,0.112 -0.144,0.192 -0.048,0.08 -0.096,0.152 -0.144,0.216 -0.032,0.064 -0.088,0.16 -0.168,0.288 -0.08,0.128 -0.144,0.232 -0.192,0.312 -0.704,1.104 -1.488,2.024 -2.352,2.76 -0.848,0.736 -1.568,1.104 -2.16,1.104 -0.672,0 -1.176,-0.152 -1.512,-0.456 -0.336,-0.288 -0.608,-0.816 -0.816,-1.584 -0.192,-0.768 -0.368,-1.984 -0.528,-3.648 -0.112,-1.05599 -0.168,-2.29599 -0.168,-3.72"
         style=""
         id="path6581" />
      <path
         d="m 211.75254,408.63071 c 0.08,10e-6 0.11999,0.064 0.12,0.192 -10e-6,0.28801 -0.21601,0.752 -0.648,1.392 -0.41601,0.64 -0.86401,1.168 -1.344,1.584 -1.68001,1.488 -3.36,2.232 -5.04,2.232 -0.64,0 -1.28,-0.144 -1.92,-0.432 -0.624,-0.304 -1.208,-0.728 -1.752,-1.272 -0.544,-0.544 -0.984,-1.272 -1.32,-2.184 -0.336,-0.91199 -0.504,-1.92799 -0.504,-3.048 0,-0.68799 0.08,-1.27199 0.24,-1.752 0.32,-0.97599 1,-2.00799 2.04,-3.096 1.056,-1.08799 2.048,-1.63199 2.976,-1.632 0.256,10e-6 0.64,0.024 1.152,0.072 0.768,0.064 1.304,0.14401 1.608,0.24 0.31999,0.096 0.67999,0.29601 1.08,0.6 0.51199,0.38401 0.95199,0.88001 1.32,1.488 0.38399,0.59201 0.57599,1.08801 0.576,1.488 -1e-5,0.51201 -0.20001,0.90401 -0.6,1.176 -0.40001,0.25601 -1.17601,0.51201 -2.328,0.768 -1.488,0.33601 -2.96,0.54401 -4.416,0.624 l -2.232,0.12 0,0.96 c 0,1.184 0.552,2.304 1.656,3.36 0.832,0.8 1.696,1.2 2.592,1.2 0.688,0 1.416,-0.208 2.184,-0.624 0.78399,-0.432 1.44799,-0.904 1.992,-1.416 0.54399,-0.512 1.06399,-0.976 1.56,-1.392 0.49599,-0.43199 0.83199,-0.64799 1.008,-0.648 m -3.864,-5.856 c -0.496,-0.44799 -0.872,-0.72799 -1.128,-0.84 -0.24,-0.12799 -0.56,-0.19199 -0.96,-0.192 -0.8,1e-5 -1.4,0.08 -1.8,0.24 -0.384,0.14401 -0.776,0.44801 -1.176,0.912 -1.216,1.39201 -1.824,2.32001 -1.824,2.784 0,0.20801 0.192,0.31201 0.576,0.312 1.456,1e-5 3.52,-0.30399 6.192,-0.912 0.79999,-0.19199 1.19999,-0.52799 1.2,-1.008 -1e-5,-0.22399 -0.36001,-0.65599 -1.08,-1.296"
         style=""
         id="path6583" />
    </g>
    <g
       style="font-size:24px;font-style:normal;font-variant:normal;font-weight:normal;font-stretch:normal;text-align:start;line-height:125%;letter-spacing:0px;word-spacing:0px;text-anchor:start;fill:#ff00ff;fill-opacity:1;stroke:none;font-family:Purisa;-inkscape-font-specification:Purisa"
       id="text5928">
      <path
         d="m 484.11656,416.20907 c -0.208,-10e-6 -0.376,-0.14401 -0.504,-0.432 -0.112,-0.28801 -0.208,-0.912 -0.288,-1.872 -0.08,-0.96 -0.136,-2.248 -0.168,-3.864 -0.016,-1.632 -0.024,-3.88 -0.024,-6.744 0,-4.91199 0.096,-7.48799 0.288,-7.728 0.224,-0.30398 0.52,-0.45598 0.888,-0.456 0.208,2e-5 0.408,0.20802 0.6,0.624 0.20799,0.41601 0.47199,1.17601 0.792,2.28 0.47999,1.74401 1.03199,3.32001 1.656,4.728 0.63999,1.39201 1.09599,2.08801 1.368,2.088 0.27199,10e-6 0.84799,-0.74399 1.728,-2.232 0.87999,-1.50399 1.88799,-3.46399 3.024,-5.88 0.20799,-0.44799 0.47999,-0.80799 0.816,-1.08 0.33599,-0.27198 0.66398,-0.40798 0.984,-0.408 0.22398,2e-5 0.39998,0.064 0.528,0.192 0.35198,0.32001 0.58398,1.04001 0.696,2.16 0.11198,1.10401 0.18398,3.44001 0.216,7.008 0.016,2.16 0.064,3.92 0.144,5.28 0.08,1.36 0.15998,2.224 0.24,2.592 0.096,0.352 0.17598,0.648 0.24,0.888 0.064,0.24 0.096,0.472 0.096,0.696 -2e-5,0.496 -0.22402,0.744 -0.672,0.744 -0.25602,0 -0.50402,-0.08 -0.744,-0.24 -0.24002,-0.16 -0.40802,-0.368 -0.504,-0.624 -0.096,-0.256 -0.19202,-1.672 -0.288,-4.248 -0.096,-2.576 -0.19202,-5.07199 -0.288,-7.488 -0.096,-2.41599 -0.20001,-3.62399 -0.312,-3.624 -0.14401,10e-6 -0.45601,0.53601 -0.936,1.608 -0.57601,1.31201 -1.32001,2.76001 -2.232,4.344 -0.33601,0.59201 -0.84801,1.128 -1.536,1.608 -0.67201,0.464 -1.26401,0.696 -1.776,0.696 -0.12801,0 -0.36001,-0.2 -0.696,-0.6 -0.33601,-0.416 -0.67201,-0.91199 -1.008,-1.488 l -1.224,-2.088 0,6.192 c -0.016,3.04 -0.096,5.024 -0.24,5.952 -0.12801,0.94399 -0.416,1.41599 -0.864,1.416"
         style=""
         id="path6586" />
      <path
         d="m 507.55406,402.55307 c -0.73601,1e-5 -1.52001,0.15201 -2.352,0.456 -0.81601,0.30401 -1.54401,0.61601 -2.184,0.936 -0.64001,0.30401 -1.104,0.45601 -1.392,0.456 -0.192,10e-6 -0.288,-0.08 -0.288,-0.24 0,-0.22399 0.048,-0.41599 0.144,-0.576 0.096,-0.15999 0.272,-0.31199 0.528,-0.456 0.25599,-0.14399 0.49599,-0.26399 0.72,-0.36 0.23999,-0.096 0.61599,-0.23199 1.128,-0.408 0.51199,-0.19199 0.95199,-0.36799 1.32,-0.528 0.86399,-0.33599 1.59199,-0.50399 2.184,-0.504 1.05599,10e-6 1.87999,0.57601 2.472,1.728 0.28799,0.56001 0.45599,1.08001 0.504,1.56 0.048,0.46401 0.088,1.784 0.12,3.96 0.016,1.216 0.04,2.24 0.072,3.072 0.032,0.816 0.064,1.336 0.096,1.56 l 0.048,0.312 c -10e-6,0.224 -0.10401,0.464 -0.312,0.72 -0.19201,0.256 -0.33601,0.384 -0.432,0.384 -0.32001,0 -0.56801,-0.504 -0.744,-1.512 -0.17601,-1.024 -0.27201,-1.536 -0.288,-1.536 -0.048,0 -0.12001,0.088 -0.216,0.264 -0.32001,0.528 -0.96801,1.112 -1.944,1.752 -0.96001,0.624 -1.76801,0.936 -2.424,0.936 -0.40001,0 -0.87201,-0.072 -1.416,-0.216 -0.52801,-0.16 -0.912,-0.328 -1.152,-0.504 -0.176,-0.144 -0.328,-0.432 -0.456,-0.864 -0.112,-0.432 -0.168,-0.872 -0.168,-1.32 0,-0.672 0.176,-1.248 0.528,-1.728 0.368,-0.496 1.01599,-1 1.944,-1.512 1.00799,-0.592 1.98399,-0.888 2.928,-0.888 0.38399,0 0.70399,0.064 0.96,0.192 0.25599,0.128 0.44799,0.264 0.576,0.408 0.12799,0.128 0.23199,0.192 0.312,0.192 0.064,0 0.21599,0.088 0.456,0.264 0.23999,0.16 0.36799,0.24 0.384,0.24 0.064,0 0.096,-0.176 0.096,-0.528 -10e-6,-2.144 -0.15201,-3.63199 -0.456,-4.464 -0.28801,-0.83199 -0.72001,-1.24799 -1.296,-1.248 m 1.08,7.44 c -10e-6,-0.064 -0.024,-0.136 -0.072,-0.216 -0.032,-0.096 -0.11201,-0.2 -0.24,-0.312 -0.11201,-0.128 -0.26401,-0.24 -0.456,-0.336 -0.17601,-0.112 -0.42401,-0.2 -0.744,-0.264 -0.32001,-0.08 -0.68001,-0.12 -1.08,-0.12 -0.68801,0 -1.29601,0.12 -1.824,0.36 -0.51201,0.24 -0.89601,0.544 -1.152,0.912 -0.25601,0.368 -0.44801,0.712 -0.576,1.032 -0.11201,0.304 -0.16801,0.576 -0.168,0.816 -1e-5,0.4 0.032,0.672 0.096,0.816 0.08,0.144 0.26399,0.296 0.552,0.456 0.35199,0.176 0.67199,0.264 0.96,0.264 0.54399,0 1.21599,-0.192 2.016,-0.576 0.81599,-0.4 1.22399,-0.688 1.224,-0.864 -10e-6,-0.128 0.23999,-0.432 0.72,-0.912 0.49599,-0.496 0.74399,-0.848 0.744,-1.056"
         style=""
         id="path6588" />
      <path
         d="m 524.51343,419.04107 c 0.14399,-10e-6 0.27199,-0.016 0.384,-0.048 0.12799,-0.016 0.23199,-0.048 0.312,-0.096 0.08,-0.048 0.15199,-0.096 0.216,-0.144 0.064,-0.048 0.11199,-0.11201 0.144,-0.192 0.032,-0.064 0.056,-0.12801 0.072,-0.192 0.032,-0.048 0.048,-0.11201 0.048,-0.192 -10e-6,-0.064 -10e-6,-0.12001 0,-0.168 -10e-6,-0.032 -10e-6,-0.072 0,-0.12 l 0,-0.072 c -10e-6,-1.53601 -0.10401,-2.992 -0.312,-4.368 l -0.336,-2.088 c -0.11201,-1.632 -0.22401,-2.448 -0.336,-2.448 -0.064,0 -0.18401,0.144 -0.36,0.432 -0.40001,0.592 -1.04801,1.256 -1.944,1.992 -0.89601,0.736 -1.64001,1.216 -2.232,1.44 -0.688,0.272 -1.448,0.408 -2.28,0.408 -0.512,0 -0.92,-0.064 -1.224,-0.192 -0.288,-0.128 -0.672,-0.4 -1.152,-0.816 -0.464,-0.416 -0.792,-0.784 -0.984,-1.104 -0.192,-0.32 -0.344,-0.776 -0.456,-1.368 -0.112,-0.592 -0.168,-1.096 -0.168,-1.512 0,-0.304 0.024,-0.528 0.072,-0.672 0.112,-0.432 0.408,-1.104 0.888,-2.016 0.48,-0.91199 0.92,-1.62399 1.32,-2.136 0.336,-0.44799 0.96,-0.96799 1.872,-1.56 0.928,-0.60799 1.744,-1.02399 2.448,-1.248 0.75199,-0.23999 1.59199,-0.35999 2.52,-0.36 1.18399,10e-6 2.16799,0.20801 2.952,0.624 0.78399,0.40001 1.17599,1.02401 1.176,1.872 -10e-6,0.48001 -0.12001,1.07201 -0.36,1.776 -0.22401,0.70401 -0.33601,1.32 -0.336,1.848 -1e-5,0.576 0.18399,3.224 0.552,7.944 l 0.36,4.968 -0.84,0.672 c -0.44801,0.36799 -0.90401,0.55199 -1.368,0.552 -0.84801,-10e-6 -1.88001,-0.21601 -3.096,-0.648 -1.21601,-0.41601 -2.264,-0.90401 -3.144,-1.464 -0.88,-0.54401 -1.32,-0.99201 -1.32,-1.344 0,-0.41601 0.216,-0.92801 0.648,-1.536 0.448,-0.608 0.824,-0.912 1.128,-0.912 0.352,0 0.528,0.12 0.528,0.36 0,0.144 -0.072,0.36 -0.216,0.648 -0.144,0.28799 -0.216,0.56799 -0.216,0.84 0,0.44799 0.296,0.83999 0.888,1.176 0.59199,0.33599 1.09599,0.50399 1.512,0.504 0.23999,-1e-5 0.63199,0.15999 1.176,0.48 0.55999,0.31999 1.04799,0.47999 1.464,0.48 m -9.12,-10.896 c 0,0.928 0.24,1.776 0.72,2.544 0.48,0.768 1.08,1.152 1.8,1.152 0.976,0 2.024,-0.44 3.144,-1.32 1.13599,-0.896 2.05599,-2.008 2.76,-3.336 0.38399,-0.752 0.71199,-1.608 0.984,-2.568 0.28799,-0.97599 0.43199,-1.74399 0.432,-2.304 -10e-6,-0.31999 -0.056,-0.51199 -0.168,-0.576 -0.36801,-0.19199 -0.95201,-0.28799 -1.752,-0.288 -0.73601,10e-6 -1.36801,0.08 -1.896,0.24 -1.392,0.40001 -2.744,1.33601 -4.056,2.808 -1.312,1.472 -1.968,2.688 -1.968,3.648"
         style=""
         id="path6590" />
      <path
         d="m 542.73243,409.34507 c 0.08,0 0.11999,0.064 0.12,0.192 -10e-6,0.288 -0.21601,0.752 -0.648,1.392 -0.41601,0.64 -0.86401,1.168 -1.344,1.584 -1.68001,1.488 -3.36001,2.232 -5.04,2.232 -0.64,0 -1.28,-0.144 -1.92,-0.432 -0.624,-0.304 -1.208,-0.728 -1.752,-1.272 -0.544,-0.544 -0.984,-1.272 -1.32,-2.184 -0.336,-0.912 -0.504,-1.928 -0.504,-3.048 0,-0.688 0.08,-1.272 0.24,-1.752 0.32,-0.97599 1,-2.00799 2.04,-3.096 1.056,-1.08799 2.048,-1.63199 2.976,-1.632 0.256,10e-6 0.64,0.024 1.152,0.072 0.76799,0.064 1.30399,0.14401 1.608,0.24 0.31999,0.096 0.67999,0.29601 1.08,0.6 0.51199,0.38401 0.95199,0.88001 1.32,1.488 0.38399,0.59201 0.57599,1.08801 0.576,1.488 -10e-6,0.512 -0.20001,0.904 -0.6,1.176 -0.40001,0.256 -1.17601,0.512 -2.328,0.768 -1.488,0.336 -2.96,0.544 -4.416,0.624 l -2.232,0.12 0,0.96 c 0,1.184 0.552,2.304 1.656,3.36 0.832,0.8 1.696,1.2 2.592,1.2 0.688,0 1.416,-0.208 2.184,-0.624 0.78399,-0.432 1.44799,-0.904 1.992,-1.416 0.54399,-0.512 1.06399,-0.976 1.56,-1.392 0.49599,-0.432 0.83199,-0.648 1.008,-0.648 m -3.864,-5.856 c -0.49601,-0.44799 -0.87201,-0.72799 -1.128,-0.84 -0.24001,-0.12799 -0.56,-0.19199 -0.96,-0.192 -0.8,1e-5 -1.4,0.08 -1.8,0.24 -0.384,0.14401 -0.776,0.44801 -1.176,0.912 -1.216,1.39201 -1.824,2.32 -1.824,2.784 0,0.208 0.192,0.312 0.576,0.312 1.456,0 3.52,-0.304 6.192,-0.912 0.79999,-0.192 1.19999,-0.52799 1.2,-1.008 -10e-6,-0.22399 -0.36001,-0.65599 -1.08,-1.296"
         style=""
         id="path6592" />
      <path
         d="m 546.93693,401.52107 c 0,-0.54399 0.16,-0.81599 0.48,-0.816 0.208,1e-5 0.36,0.24001 0.456,0.72 0.096,0.46401 0.272,1.85601 0.528,4.176 0.32,2.592 0.488,3.904 0.504,3.936 0.016,0.016 0.08,-0.136 0.192,-0.456 0.128,-0.336 0.296,-0.832 0.504,-1.488 0.32,-1.056 0.592,-1.816 0.816,-2.28 0.224,-0.47999 0.624,-1.13599 1.2,-1.968 1.16799,-1.61599 2.07199,-2.42399 2.712,-2.424 0.41599,1e-5 0.80799,0.28001 1.176,0.84 0.49599,0.73601 0.79999,1.46401 0.912,2.184 0.11199,0.72001 0.19199,2.424 0.24,5.112 0.032,1.728 0.048,2.752 0.048,3.072 -10e-6,0.8 -0.032,1.384 -0.096,1.752 -0.048,0.352 -0.12801,0.568 -0.24,0.648 -0.096,0.096 -0.27201,0.152 -0.528,0.168 -0.14401,0 -0.24001,-0.064 -0.288,-0.192 -0.048,-0.112 -0.072,-0.384 -0.072,-0.816 -10e-6,-0.24 0.016,-0.752 0.048,-1.536 0.032,-0.8 0.048,-1.472 0.048,-2.016 -10e-6,-1.36 -0.056,-2.688 -0.168,-3.984 -0.096,-1.31199 -0.21601,-2.15199 -0.36,-2.52 -0.08,-0.20799 -0.20801,-0.42399 -0.384,-0.648 -0.17601,-0.22399 -0.34401,-0.33599 -0.504,-0.336 -0.33601,1e-5 -0.87201,0.57601 -1.608,1.728 -0.736,1.136 -1.368,2.336 -1.896,3.6 -0.496,1.152 -0.832,2.04 -1.008,2.664 -0.16,0.608 -0.296,1.44 -0.408,2.496 -0.176,1.632 -0.304,2.44799 -0.384,2.448 -0.128,-10e-6 -0.312,-0.13601 -0.552,-0.408 -0.176,-0.176 -0.296,-0.552 -0.36,-1.128 -0.064,-0.592 -0.152,-1.752 -0.264,-3.48 -0.112,-1.744 -0.264,-3.504 -0.456,-5.28 -0.192,-1.83999 -0.288,-3.09599 -0.288,-3.768"
         style=""
         id="path6594" />
      <path
         d="m 564.38831,397.82507 c -1e-5,-0.59199 -0.056,-1.34399 -0.168,-2.256 -0.11201,-0.91198 -0.16801,-1.67198 -0.168,-2.28 -1e-5,-0.30398 0.008,-0.50398 0.024,-0.6 0.048,-0.25598 0.13599,-0.45598 0.264,-0.6 0.14399,-0.15998 0.28799,-0.23998 0.432,-0.24 0.19199,2e-5 0.32799,0.088 0.408,0.264 0.048,0.11202 0.11999,0.70402 0.216,1.776 0.096,1.07202 0.18399,2.12001 0.264,3.144 0.08,1.02401 0.13599,1.55201 0.168,1.584 0.016,0.016 0.04,0.024 0.072,0.024 0.12799,10e-6 0.49599,-0.064 1.104,-0.192 0.62399,-0.14399 1.13599,-0.21599 1.536,-0.216 0.79999,10e-6 1.19999,0.17601 1.2,0.528 -10e-6,0.35201 -0.88001,0.74401 -2.64,1.176 l -1.2,0.288 0.144,4.056 c 0.08,2.384 0.23199,4.616 0.456,6.696 0.22399,2.064 0.33599,3.232 0.336,3.504 -10e-6,0.496 -0.18401,0.744 -0.552,0.744 -0.28801,0 -0.52801,-0.256 -0.72,-0.768 -0.17601,-0.512 -0.26401,-1.176 -0.264,-1.992 -10e-6,-0.592 -0.024,-1.192 -0.072,-1.8 -0.048,-0.624 -0.13601,-1.584 -0.264,-2.88 -0.11201,-1.312 -0.22401,-2.65599 -0.336,-4.032 -0.048,-0.73599 -0.088,-1.30399 -0.12,-1.704 -0.016,-0.39999 -0.04,-0.69599 -0.072,-0.888 -0.032,-0.19199 -0.056,-0.30399 -0.072,-0.336 -0.016,-0.048 -0.048,-0.072 -0.096,-0.072 -0.25601,1e-5 -0.87201,0.088 -1.848,0.264 -0.976,0.17601 -1.584,0.26401 -1.824,0.264 -0.464,10e-6 -0.696,-0.19199 -0.696,-0.576 0,-0.27199 0.288,-0.50399 0.864,-0.696 0.592,-0.19199 1.256,-0.35999 1.992,-0.504 0.73599,-0.15999 1.19199,-0.29599 1.368,-0.408 0.17599,-0.12799 0.26399,-0.55199 0.264,-1.272"
         style=""
         id="path6596" />
      <path
         d="m 579.92906,402.55307 c -0.73601,1e-5 -1.52001,0.15201 -2.352,0.456 -0.81601,0.30401 -1.54401,0.61601 -2.184,0.936 -0.64001,0.30401 -1.104,0.45601 -1.392,0.456 -0.192,10e-6 -0.288,-0.08 -0.288,-0.24 0,-0.22399 0.048,-0.41599 0.144,-0.576 0.096,-0.15999 0.272,-0.31199 0.528,-0.456 0.25599,-0.14399 0.49599,-0.26399 0.72,-0.36 0.23999,-0.096 0.61599,-0.23199 1.128,-0.408 0.51199,-0.19199 0.95199,-0.36799 1.32,-0.528 0.86399,-0.33599 1.59199,-0.50399 2.184,-0.504 1.05599,10e-6 1.87999,0.57601 2.472,1.728 0.28799,0.56001 0.45599,1.08001 0.504,1.56 0.048,0.46401 0.088,1.784 0.12,3.96 0.016,1.216 0.04,2.24 0.072,3.072 0.032,0.816 0.064,1.336 0.096,1.56 l 0.048,0.312 c -1e-5,0.224 -0.10401,0.464 -0.312,0.72 -0.19201,0.256 -0.33601,0.384 -0.432,0.384 -0.32001,0 -0.56801,-0.504 -0.744,-1.512 -0.17601,-1.024 -0.27201,-1.536 -0.288,-1.536 -0.048,0 -0.12001,0.088 -0.216,0.264 -0.32001,0.528 -0.96801,1.112 -1.944,1.752 -0.96001,0.624 -1.76801,0.936 -2.424,0.936 -0.40001,0 -0.87201,-0.072 -1.416,-0.216 -0.52801,-0.16 -0.912,-0.328 -1.152,-0.504 -0.176,-0.144 -0.328,-0.432 -0.456,-0.864 -0.112,-0.432 -0.168,-0.872 -0.168,-1.32 0,-0.672 0.176,-1.248 0.528,-1.728 0.368,-0.496 1.01599,-1 1.944,-1.512 1.00799,-0.592 1.98399,-0.888 2.928,-0.888 0.38399,0 0.70399,0.064 0.96,0.192 0.25599,0.128 0.44799,0.264 0.576,0.408 0.12799,0.128 0.23199,0.192 0.312,0.192 0.064,0 0.21599,0.088 0.456,0.264 0.23999,0.16 0.36799,0.24 0.384,0.24 0.064,0 0.096,-0.176 0.096,-0.528 -10e-6,-2.144 -0.15201,-3.63199 -0.456,-4.464 -0.28801,-0.83199 -0.72001,-1.24799 -1.296,-1.248 m 1.08,7.44 c -10e-6,-0.064 -0.024,-0.136 -0.072,-0.216 -0.032,-0.096 -0.11201,-0.2 -0.24,-0.312 -0.11201,-0.128 -0.26401,-0.24 -0.456,-0.336 -0.17601,-0.112 -0.42401,-0.2 -0.744,-0.264 -0.32001,-0.08 -0.68001,-0.12 -1.08,-0.12 -0.68801,0 -1.29601,0.12 -1.824,0.36 -0.51201,0.24 -0.89601,0.544 -1.152,0.912 -0.25601,0.368 -0.44801,0.712 -0.576,1.032 -0.11201,0.304 -0.16801,0.576 -0.168,0.816 -10e-6,0.4 0.032,0.672 0.096,0.816 0.08,0.144 0.26399,0.296 0.552,0.456 0.35199,0.176 0.67199,0.264 0.96,0.264 0.54399,0 1.21599,-0.192 2.016,-0.576 0.81599,-0.4 1.22399,-0.688 1.224,-0.864 -1e-5,-0.128 0.23999,-0.432 0.72,-0.912 0.49599,-0.496 0.74399,-0.848 0.744,-1.056"
         style=""
         id="path6598" />
    </g>
    <g
       id="g5998">
      <a
         xlink:href="#frame2413"
         id="a6018">
        <rect
           style="fill:#008000;fill-opacity:1;stroke:none"
           id="rect5932"
           width="41.42857"
           height="41.42857"
           x="358.99854"
           y="233.79076" />
      </a>
      <a
         id="a6073"
         xlink:href="#frame2412">
        <rect
           y="233.79076"
           x="302.56998"
           height="41.42857"
           width="41.42857"
           id="rect5934"
           style="fill:#ff0000;fill-opacity:1;stroke:none" />
      </a>
      <a
         id="a6187"
         xlink:href="#frame2414">
        <rect
           style="fill:#ff00ff;fill-opacity:1;stroke:none"
           id="rect5936"
           width="41.42857"
           height="41.42857"
           x="358.99854"
           y="290.21933" />
      </a>
      <a
         xlink:href="#frame2416"
         id="a6131">
        <rect
           y="290.21933"
           x="302.56998"
           height="41.42857"
           width="41.42857"
           id="rect5938"
           style="fill:#0000ff;fill-opacity:1;stroke:none" />
      </a>
    </g>
    <rect
       y="55.933609"
       x="52.857143"
       height="300"
       width="377.85715"
       id="rect5940"
       style="fill:none;fill-opacity:1;stroke:#666666" />
    <rect
       style="fill:none;stroke:#666666"
       id="rect5942"
       width="377.85715"
       height="300"
       x="276.10086"
       y="67.045288" />
    <rect
       y="220.58847"
       x="286.20239"
       height="300"
       width="377.85715"
       id="rect5944"
       style="fill:none;stroke:#666666" />
    <rect
       style="fill:none;stroke:#666666"
       id="rect5946"
       width="377.85715"
       height="300"
       x="32.654102"
       y="210.48694" />
    <rect
       y="182.19505"
       x="224.84317"
       height="201.04854"
       width="253.31075"
       id="rect5948"
       style="fill:none;stroke:#666666;stroke-width:1" />
  </g>
  <script
     id="sozi-script"
     ns1:version="13.05-21071236">function namespace(a,b,c){&quot;use strict&quot;;var d=a;return b.split(&quot;.&quot;).forEach(function(a){typeof d[a]==&quot;undefined&quot;&amp;&amp;(d[a]={}),d=d[a]}),c&amp;&amp;c(d,a),d}namespace(this,&quot;sozi.events&quot;,function(a){&quot;use strict&quot;;var b={};a.listen=function(a,c){b.hasOwnProperty(a)||(b[a]=[]),b[a].push(c)},a.fire=function(a){var c=Array.prototype.slice.call(arguments,1);b.hasOwnProperty(a)&amp;&amp;b[a].forEach(function(a){a.apply(null,c)})}}),namespace(this,&quot;sozi.proto&quot;,function(a){&quot;use strict&quot;,a.Object={installConstructors:function(){function a(){}a.prototype=this,this.instance=function(){var b=new a;return b.construct.apply(b,arguments),b},this.subtype=function(b){var c=new a;return c.augment(b),c.installConstructors(),c}},construct:function(){},augment:function(a){for(var b in a)a.hasOwnProperty(b)&amp;&amp;(this[b]=a[b]);return this},bind:function(a){var b=this;return function(){return a.apply(b,arguments)}}},a.Object.installConstructors()}),namespace(this,&quot;sozi.actions&quot;,function(a,b){function n(a,b,e){c.stop(),d.viewPorts.player.zoom(a&gt;0?h:1/h,b,e)}function o(a){c.stop(),d.viewPorts.player.rotate(a&gt;0?i:-i)}function p(){sozi.framelist.isVisible()?(sozi.framelist.hide(),c.restart()):(c.stop(),sozi.framelist.show())}function q(a){return d.viewPorts.player.contains(a.clientX,a.clientY)}function r(a){if(!q(a))return;a.button===f?(e.documentElement.addEventListener(&quot;mousemove&quot;,s,!1),k=!1,l=a.clientX,m=a.clientY):a.button===g&amp;&amp;p(),a.stopPropagation(),a.preventDefault()}function s(a){if(!q(a))return;c.stop(),!k&amp;&amp;(Math.abs(a.clientX-l)&gt;j||Math.abs(a.clientY-m)&gt;j)&amp;&amp;(k=!0),k&amp;&amp;(sozi.events.fire(&quot;sozi.player.cleanup&quot;),d.viewPorts.player.drag(a.clientX-l,a.clientY-m),l=a.clientX,m=a.clientY),a.stopPropagation()}function t(a){if(!q(a))return;a.button===f&amp;&amp;e.documentElement.removeEventListener(&quot;mousemove&quot;,s,!1),a.stopPropagation(),a.preventDefault()}function u(a){if(!q(a))return;c.moveToPrevious(),a.stopPropagation(),a.preventDefault()}function v(a){if(!q(a))return;!k&amp;&amp;a.button!==g&amp;&amp;c.moveToNext(),a.stopPropagation(),a.preventDefault()}function w(a){if(!q(a))return;a||(a=b.event);var c=0;a.wheelDelta?c=a.wheelDelta:a.detail&amp;&amp;(c=-a.detail),c!==0&amp;&amp;(a.shiftKey?o(c):n(c,a.clientX,a.clientY)),a.stopPropagation(),a.preventDefault()}function x(a){if(a.altKey||a.ctrlKey||a.metaKey)return;switch(a.charCode||a.which){case 43:n(1,b.innerWidth/2,b.innerHeight/2);break;case 45:n(-1,b.innerWidth/2,b.innerHeight/2);break;case 61:c.moveToCurrent();break;case 70:case 102:c.showAll();break;case 84:case 116:p();break;case 82:o(-1);break;case 114:o(1);break;default:return}a.stopPropagation(),a.preventDefault()}function y(a){if(a.altKey||a.ctrlKey||a.metaKey)return;switch(a.keyCode){case 36:c.moveToFirst();break;case 35:c.moveToLast();break;case 38:c.jumpToPrevious();break;case 33:case 37:c.moveToPrevious();break;case 40:c.jumpToNext();break;case 34:case 39:case 13:case 32:c.moveToNext();break;default:return}a.stopPropagation()}function z(a){a.stopPropagation()}function A(){var a=e.getElementsByTagName(&quot;a&quot;);for(var c=0;c&lt;a.length;c+=1)a[c].addEventListener(&quot;click&quot;,z,!1),a[c].addEventListener(&quot;contextmenu&quot;,z,!1);var d=e.documentElement;d.addEventListener(&quot;click&quot;,v,!1),d.addEventListener(&quot;mousedown&quot;,r,!1),d.addEventListener(&quot;mouseup&quot;,t,!1),d.addEventListener(&quot;contextmenu&quot;,u,!1),d.addEventListener(&quot;DOMMouseScroll&quot;,w,!1),b.onmousewheel=w,d.addEventListener(&quot;keypress&quot;,x,!1),d.addEventListener(&quot;keydown&quot;,y,!1)}&quot;use strict&quot;;var c=namespace(b,&quot;sozi.player&quot;),d=namespace(b,&quot;sozi.display&quot;),e=b.document,f=0,g=1,h=1.05,i=5,j=5,k=!1,l=0,m=0;sozi.events.listen(&quot;sozi.display.ready&quot;,A)}),namespace(this,&quot;sozi.animation&quot;,function(a,b){function h(){g.length&gt;0?(c&amp;&amp;c(h),g.forEach(function(a){a.step(d())})):c||b.clearInterval(f)}function i(){c?c(h):f=b.setInterval(function(){h(d())},e)}function j(a){g.push(a),g.length===1&amp;&amp;i()}function k(a){g.splice(g.indexOf(a),1)}&quot;use strict&quot;;var c=b.mozRequestAnimationFrame||b.webkitRequestAnimationFrame||b.msRequestAnimationFrame||b.oRequestAnimationFrame,d=function(){return b.performance&amp;&amp;b.performance.now?b.performance.now():Date.now()};a.setAnimationFrameHandlers=function(a,b){c=a,d=b};var e=40,f,g=[];a.Animator=sozi.proto.Object.subtype({construct:function(){this.durationMs=0,this.data=null,this.initialTime=0,this.started=!1},start:function(a,b){this.durationMs=a,this.data=b,this.initialTime=d(),this.onStep(0),this.started||(this.started=!0,j(this))},stop:function(){this.started&amp;&amp;(k(this),this.started=!1)},step:function(a){var b=a-this.initialTime;b&gt;=this.durationMs?(this.stop(),this.onStep(1),this.onDone()):this.onStep(b/this.durationMs)},onStep:function(a){},onDone:function(){}}),a.profiles={linear:function(a){return a},accelerate:function(a){return Math.pow(a,3)},&quot;strong-accelerate&quot;:function(a){return Math.pow(a,5)},decelerate:function(a){return 1-Math.pow(1-a,3)},&quot;strong-decelerate&quot;:function(a){return 1-Math.pow(1-a,5)},&quot;accelerate-decelerate&quot;:function(a){var b=a&lt;=.5?a:1-a,c=Math.pow(2*b,3)/2;return a&lt;=.5?c:1-c},&quot;strong-accelerate-decelerate&quot;:function(a){var b=a&lt;=.5?a:1-a,c=Math.pow(2*b,5)/2;return a&lt;=.5?c:1-c},&quot;decelerate-accelerate&quot;:function(a){var b=a&lt;=.5?a:1-a,c=(1-Math.pow(1-2*b,2))/2;return a&lt;=.5?c:1-c},&quot;strong-decelerate-accelerate&quot;:function(a){var b=a&lt;=.5?a:1-a,c=(1-Math.pow(1-2*b,3))/2;return a&lt;=.5?c:1-c},&quot;immediate-beginning&quot;:function(a){return 1},&quot;immediate-end&quot;:function(a){return a===1?1:0},&quot;immediate-middle&quot;:function(a){return a&gt;=.5?1:0}}}),namespace(this,&quot;sozi.display&quot;,function(a,b){function j(){var a=e.documentElement;f=a.getBBox(),g=b.innerWidth,h=b.innerHeight,a.setAttribute(&quot;width&quot;,g),a.setAttribute(&quot;height&quot;,h),sozi.events.fire(&quot;sozi.display.ready&quot;)}function k(){var c=e.documentElement;c.setAttribute(&quot;width&quot;,b.innerWidth),c.setAttribute(&quot;height&quot;,b.innerHeight);for(var d in a.viewPorts)a.viewPorts[d].onWindowResize(b.innerWidth/g,b.innerHeight/h);g=b.innerWidth,h=b.innerHeight}&quot;use strict&quot;;var c=&quot;http://www.w3.org/2000/svg&quot;,d=&quot;http://www.w3.org/1999/xlink&quot;,e=b.document,f,g,h;a.viewPorts={};var i;a.CameraState=sozi.proto.Object.subtype({construct:function(){this.cx=this.cy=0,this.width=this.height=1,this.angle=0,this.clipped=!0,this.transitionZoomPercent=0,this.transitionProfile=sozi.animation.profiles.linear,this.transitionPath=null},setCenter:function(a,b){return this.cx=a,this.cy=b,this},setSize:function(a,b){return this.width=a,this.height=b,this},setClipped:function(a){return this.clipped=a,this},setAngle:function(a){return this.angle=(a+180)%360-180,this},setRawAngle:function(a){return this.angle=a,this},setTransitionZoomPercent:function(a){return this.transitionZoomPercent=a,this},setTransitionProfile:function(a){return this.transitionProfile=a,this},setTransitionPath:function(a){return this.transitionPath=a,this},setAtElement:function(a){var b,c,d,f;if(a.nodeName===&quot;rect&quot;)b=a.x.baseVal.value,c=a.y.baseVal.value,d=a.width.baseVal.value,f=a.height.baseVal.value;else{var g=a.getBBox();b=g.x,c=g.y,d=g.width,f=g.height}var h=e.documentElement.createSVGPoint();h.x=b+d/2,h.y=c+f/2;var i=a.getCTM();h=h.matrixTransform(i);var j=Math.sqrt(i.a*i.a+i.b*i.b);return this.setCenter(h.x,h.y).setSize(d*j,f*j).setAngle(Math.atan2(i.b,i.a)*180/Math.PI)},setAtState:function(a){return this.setCenter(a.cx,a.cy).setSize(a.width,a.height).setAngle(a.angle).setClipped(a.clipped).setTransitionZoomPercent(a.transitionZoomPercent).setTransitionProfile(a.transitionProfile).setTransitionPath(a.transitionPath)},interpolatableAttributes:[&quot;width&quot;,&quot;height&quot;,&quot;angle&quot;],interpolate:function(a,b,c,d,e){var f=1-c;for(var g=0;g&lt;this.interpolatableAttributes.length;g+=1){var h=this.interpolatableAttributes[g];this[h]=b[h]*c+a[h]*f}var i=e?a.transitionPath:b.transitionPath;if(d&amp;&amp;i){var j=i.getTotalLength();if(e)var k=i.getPointAtLength(j),l=i.getPointAtLength(0),m=i.getPointAtLength(j*f);else var k=i.getPointAtLength(0),l=i.getPointAtLength(j),m=i.getPointAtLength(j*c);this.cx=m.x+(b.cx-l.x)*c+(a.cx-k.x)*f,this.cy=m.y+(b.cy-l.y)*c+(a.cy-k.y)*f}else this.cx=b.cx*c+a.cx*f,this.cy=b.cy*c+a.cy*f}}),a.Camera=a.CameraState.subtype({construct:function(b,f){a.CameraState.construct.call(this),this.viewPort=b,this.svgClipRect=e.createElementNS(c,&quot;rect&quot;);var g=e.createElementNS(c,&quot;clipPath&quot;);g.setAttribute(&quot;id&quot;,&quot;sozi-clip-path-&quot;+b.id+&quot;-&quot;+f),g.appendChild(this.svgClipRect),b.svgGroup.appendChild(g);var h=e.createElementNS(c,&quot;g&quot;);h.setAttribute(&quot;clip-path&quot;,&quot;url(#sozi-clip-path-&quot;+b.id+&quot;-&quot;+f+&quot;)&quot;),b.svgGroup.appendChild(h),b.isPrimary?(this.svgLayer=e.createElementNS(c,&quot;g&quot;),this.svgLayer.appendChild(e.getElementById(f))):(this.svgLayer=e.createElementNS(c,&quot;use&quot;),this.svgLayer.setAttributeNS(d,&quot;href&quot;,&quot;#&quot;+f)),h.appendChild(this.svgLayer)},setAtState:function(b){return a.CameraState.setAtState.call(this,b).update()},getScale:function(){return Math.min(this.viewPort.width/this.width,this.viewPort.height/this.height)},rotate:function(a){return this.setAngle(this.angle+a).update()},zoom:function(a,b,c){return this.setSize(this.width/a,this.height/a).drag((1-a)*(b-this.viewPort.width/2),(1-a)*(c-this.viewPort.height/2))},drag:function(a,b){var c=this.getScale(),d=this.angle*Math.PI/180,e=Math.sin(d),f=Math.cos(d);return this.setCenter(this.cx-(a*f-b*e)/c,this.cy-(a*e+b*f)/c).setClipped(!1).update()},update:function(){var a=this.getScale(),b=this.width*a,c=this.height*a,d=(this.viewPort.width-b)/2,e=(this.viewPort.height-c)/2;this.svgClipRect.setAttribute(&quot;x&quot;,this.clipped?d:0),this.svgClipRect.setAttribute(&quot;y&quot;,this.clipped?e:0),this.svgClipRect.setAttribute(&quot;width&quot;,this.clipped?b:this.viewPort.width),this.svgClipRect.setAttribute(&quot;height&quot;,this.clipped?c:this.viewPort.height);var f=-this.cx+this.width/2+d/a,g=-this.cy+this.height/2+e/a;return this.svgLayer.setAttribute(&quot;transform&quot;,&quot;scale(&quot;+a+&quot;)&quot;+&quot;translate(&quot;+f+&quot;,&quot;+g+&quot;)&quot;+&quot;rotate(&quot;+ -this.angle+&quot;,&quot;+this.cx+&quot;,&quot;+this.cy+&quot;)&quot;),this}}),a.ViewPort=sozi.proto.Object.subtype({construct:function(d,f,g){this.id=d,a.viewPorts[d]=this,this.isPrimary=!!g;if(this.isPrimary){if(i)throw&quot;Failed to create a primary viewport. A primary viewport already exists.&quot;;i=this}this.svgGroup=e.createElementNS(c,&quot;g&quot;),this.svgGroup.setAttribute(&quot;class&quot;,&quot;sozi-viewport&quot;),this.svgGroup.setAttribute(&quot;id&quot;,&quot;sozi-viewport-&quot;+d),e.documentElement.appendChild(this.svgGroup),this.setLocation(0,0).setSize(b.innerWidth,b.innerHeight),this.cameras={},f.forEach(function(b){this.cameras[b]=a.Camera.instance(this,b)},this)},setSize:function(a,b){return this.width=a,this.height=b,this},setLocation:function(a,b){return this.x=a,this.y=b,this},contains:function(a,b){return a&gt;=this.x&amp;&amp;a&lt;this.x+this.width&amp;&amp;b&gt;=this.y&amp;&amp;b&lt;this.y+this.height},getDocumentState:function(){var b=a.CameraState.instance().setCenter(f.x+f.width/2,f.y+f.height/2).setSize(f.width,f.height).setClipped(!1),c={};for(var d in this.cameras)c[d]=b;return c},update:function(){this.svgGroup.setAttribute(&quot;transform&quot;,&quot;translate(&quot;+this.x+&quot;,&quot;+this.y+&quot;)&quot;);for(var a in this.cameras)this.cameras[a].update();return this},showFrame:function(a){for(var b in a.states)this.cameras[b].setAtState(a.states[b]);return this},drag:function(a,b){for(var c in this.cameras)this.cameras[c].drag(a,b);return this},zoom:function(a,b,c){for(var d in this.cameras)this.cameras[d].zoom(a,b,c);return this},rotate:function(a){for(var b in this.cameras)this.cameras[b].rotate(a);return this},onWindowResize:function(a,b){this.setLocation(this.x*a,this.y*b).setSize(this.width*a,this.height*b).update()}}),sozi.events.listen(&quot;sozi.document.ready&quot;,j),b.addEventListener(&quot;resize&quot;,k,!1)}),namespace(this,&quot;sozi.document&quot;,function(a,b){function g(a,b){return a.getAttributeNS(d,b)||e[b]}function h(a,b,e){var f=a.states[b]=a.states[b]||sozi.display.CameraState.instance();(typeof f.transitionZoomPercent==&quot;undefined&quot;||e.hasAttributeNS(d,&quot;transition-zoom-percent&quot;))&amp;&amp;f.setTransitionZoomPercent(parseInt(g(e,&quot;transition-zoom-percent&quot;),10)),(typeof f.transitionProfile==&quot;undefined&quot;||e.hasAttributeNS(d,&quot;transition-profile&quot;))&amp;&amp;f.setTransitionProfile(sozi.animation.profiles[g(e,&quot;transition-profile&quot;)]);if(typeof f.transitionPath==&quot;undefined&quot;||e.hasAttributeNS(d,&quot;transition-path&quot;)){var h=c.getElementById(e.getAttributeNS(d,&quot;transition-path&quot;));h&amp;&amp;h.nodeName===&quot;path&quot;&amp;&amp;(f.setTransitionPath(h),g(e,&quot;transition-path-hide&quot;)===&quot;true&quot;&amp;&amp;(h.style.visibility=&quot;hidden&quot;))}if(e.hasAttributeNS(d,&quot;refid&quot;)){var i=c.getElementById(e.getAttributeNS(d,&quot;refid&quot;));i&amp;&amp;(f.setAtElement(i),g(e,&quot;hide&quot;)===&quot;true&quot;&amp;&amp;(i.style.visibility=&quot;hidden&quot;))}e.hasAttributeNS(d,&quot;clip&quot;)&amp;&amp;f.setClipped(g(e,&quot;clip&quot;)===&quot;true&quot;)}function i(){var b=[],e=c.getElementsByTagNameNS(d,&quot;layer&quot;);for(var i=0;i&lt;e.length;i+=1){var j=e[i].getAttributeNS(d,&quot;group&quot;);j&amp;&amp;b.indexOf(j)===-1&amp;&amp;b.push(j)}var k=c.documentElement,l=&quot;http://www.w3.org/2000/svg&quot;,m=c.createElementNS(l,&quot;g&quot;),n=Array.prototype.slice.call(k.childNodes);n.forEach(function(d,e){d.getAttribute?b.indexOf(d.getAttribute(&quot;id&quot;))!==-1?(m.firstChild&amp;&amp;(m.setAttribute(&quot;id&quot;,&quot;sozi-wrapper-&quot;+e),a.idLayerList.push(&quot;sozi-wrapper-&quot;+e),k.insertBefore(m,d),m=c.createElementNS(l,&quot;g&quot;)),a.idLayerList.push(d.getAttribute(&quot;id&quot;))):f.indexOf(d.localName.toLowerCase())!==-1&amp;&amp;(k.removeChild(d),m.appendChild(d)):k.removeChild(d)}),m.firstChild&amp;&amp;(m.setAttribute(&quot;id&quot;,&quot;sozi-wrapper-&quot;+n.length),a.idLayerList.push(&quot;sozi-wrapper-&quot;+n.length),k.appendChild(m));var o=Array.prototype.slice.call(c.getElementsByTagNameNS(d,&quot;frame&quot;));o.sort(function(a,b){var c=parseInt(g(a,&quot;sequence&quot;),10),d=parseInt(g(b,&quot;sequence&quot;),10);return c-d}),o.forEach(function(b,c){var e={id:b.getAttribute(&quot;id&quot;),title:g(b,&quot;title&quot;),sequence:parseInt(g(b,&quot;sequence&quot;),10),timeoutEnable:g(b,&quot;timeout-enable&quot;)===&quot;true&quot;,timeoutMs:parseInt(g(b,&quot;timeout-ms&quot;),10),transitionDurationMs:parseInt(g(b,&quot;transition-duration-ms&quot;),10),states:{}};a.idLayerList.forEach(function(d){if(c===0||d.search(&quot;sozi-wrapper-[0-9]+&quot;)!==-1)h(e,d,b);else{var f=e.states[d]=sozi.display.CameraState.instance(),g=a.frames[a.frames.length-1].states[d];f.setAtState(g)}});var f=Array.prototype.slice.call(b.getElementsByTagNameNS(d,&quot;layer&quot;));f.forEach(function(b){var c=b.getAttributeNS(d,&quot;group&quot;);c&amp;&amp;a.idLayerList.indexOf(c)!==-1&amp;&amp;h(e,c,b)});for(var i in e.states)if(e.states.hasOwnProperty(i)){a.frames.push(e);break}})}function j(){c.documentElement.removeAttribute(&quot;viewBox&quot;),i(),sozi.events.fire(&quot;sozi.document.ready&quot;)}&quot;use strict&quot;;var c=b.document,d=&quot;http://sozi.baierouge.fr&quot;,e={title:&quot;Untitled&quot;,sequence:&quot;0&quot;,hide:&quot;true&quot;,clip:&quot;true&quot;,&quot;timeout-enable&quot;:&quot;false&quot;,&quot;timeout-ms&quot;:&quot;5000&quot;,&quot;transition-duration-ms&quot;:&quot;1000&quot;,&quot;transition-zoom-percent&quot;:&quot;0&quot;,&quot;transition-profile&quot;:&quot;linear&quot;,&quot;transition-path-hide&quot;:&quot;true&quot;},f=[&quot;g&quot;,&quot;image&quot;,&quot;path&quot;,&quot;rect&quot;,&quot;circle&quot;,&quot;ellipse&quot;,&quot;line&quot;,&quot;polyline&quot;,&quot;polygon&quot;,&quot;text&quot;,&quot;clippath&quot;];a.frames=[],a.idLayerList=[],a.getFrameIndexForId=function(b){for(var c=0;c&lt;a.frames.length;c+=1)if(a.frames[c].id===b)return c;return-1},b.addEventListener(&quot;load&quot;,j,!1)}),namespace(this,&quot;sozi.framelist&quot;,function(a,b){function q(b){var d=b.relatedTarget,f=c.documentElement;while(d&amp;&amp;d!==e&amp;&amp;d!==f)d=d.parentNode;d!==e&amp;&amp;(a.hide(),sozi.player.restart(),b.stopPropagation())}function r(a){var c=f.getCTM().f;c&lt;=-b.innerHeight/2?c+=b.innerHeight/2:c&lt;0&amp;&amp;(c=0),f.setAttribute(&quot;transform&quot;,&quot;translate(0,&quot;+c+&quot;)&quot;),a.stopPropagation()}function s(a){var c=f.getCTM().f;c+g&gt;=b.innerHeight*3/2?c-=b.innerHeight/2:c+g&gt;b.innerHeight+2*d&amp;&amp;(c=b.innerHeight-g-4*d),f.setAttribute(&quot;transform&quot;,&quot;translate(0,&quot;+c+&quot;)&quot;),a.stopPropagation()}function t(a){return function(b){sozi.player.previewFrame(a),b.stopPropagation()}}function u(a){a.stopPropagation()}function v(){e=c.createElementNS(p,&quot;g&quot;),e.setAttribute(&quot;id&quot;,&quot;sozi-toc&quot;),c.documentElement.appendChild(e),f=c.createElementNS(p,&quot;g&quot;),e.appendChild(f);var a=c.createElementNS(p,&quot;rect&quot;);a.setAttribute(&quot;id&quot;,&quot;sozi-toc-background&quot;),a.setAttribute(&quot;x&quot;,d),a.setAttribute(&quot;y&quot;,d),a.setAttribute(&quot;rx&quot;,d),a.setAttribute(&quot;ry&quot;,d),a.addEventListener(&quot;click&quot;,u,!1),a.addEventListener(&quot;mousedown&quot;,u,!1),a.addEventListener(&quot;mouseout&quot;,q,!1),f.appendChild(a);var b=0;sozi.document.frames.forEach(function(a,e){var h=c.createElementNS(p,&quot;text&quot;);h.appendChild(c.createTextNode(a.title)),f.appendChild(h),e===sozi.player.currentFrameIndex&amp;&amp;h.setAttribute(&quot;class&quot;,&quot;sozi-toc-current&quot;);var i=h.getBBox().width;g+=h.getBBox().height,i&gt;b&amp;&amp;(b=i),h.setAttribute(&quot;x&quot;,2*d),h.setAttribute(&quot;y&quot;,g+d),h.addEventListener(&quot;click&quot;,t(e),!1),h.addEventListener(&quot;mousedown&quot;,u,!1)});var n=c.createElementNS(p,&quot;path&quot;);n.setAttribute(&quot;class&quot;,&quot;sozi-toc-arrow&quot;),n.setAttribute(&quot;d&quot;,&quot;M&quot;+(b+3*d)+&quot;,&quot;+5*d+&quot; l&quot;+4*d+&quot;,0&quot;+&quot; l-&quot;+2*d+&quot;,-&quot;+3*d+&quot; z&quot;),n.addEventListener(&quot;click&quot;,r,!1),n.addEventListener(&quot;mousedown&quot;,u,!1),e.appendChild(n);var v=c.createElementNS(p,&quot;path&quot;);v.setAttribute(&quot;class&quot;,&quot;sozi-toc-arrow&quot;),v.setAttribute(&quot;d&quot;,&quot;M&quot;+(b+3*d)+&quot;,&quot;+7*d+&quot; l&quot;+4*d+&quot;,0&quot;+&quot; l-&quot;+2*d+&quot;,&quot;+3*d+&quot; z&quot;),v.addEventListener(&quot;click&quot;,s,!1),v.addEventListener(&quot;mousedown&quot;,u,!1),e.appendChild(v),a.setAttribute(&quot;width&quot;,b+7*d),a.setAttribute(&quot;height&quot;,g+2*d),h=-b-9*d,i=0,l=k=h,e.setAttribute(&quot;transform&quot;,&quot;translate(&quot;+h+&quot;,0)&quot;),m=sozi.animation.Animator.instance().augment({onStep:function(a){var b=sozi.animation.profiles[o](a),c=1-b;l=k*b+j*c,e.setAttribute(&quot;transform&quot;,&quot;translate(&quot;+l+&quot;,0)&quot;)}})}function w(a){var b=Array.prototype.slice.call(c.getElementsByClassName(&quot;sozi-toc-current&quot;));b.forEach(function(a){a.removeAttribute(&quot;class&quot;)});var d=f.getElementsByTagName(&quot;text&quot;);d[a].setAttribute(&quot;class&quot;,&quot;sozi-toc-current&quot;)}&quot;use strict&quot;;var c=b.document,d=5,e,f,g=0,h,i,j,k,l,m,n=300,o=&quot;decelerate&quot;,p=&quot;http://www.w3.org/2000/svg&quot;;a.show=function(){c.documentElement.appendChild(e),j=l,k=i,m.start(n)},a.hide=function(){j=l,k=h,m.start(n)},a.isVisible=function(){return k===i},sozi.events.listen(&quot;sozi.player.ready&quot;,v),sozi.events.listen(&quot;sozi.player.cleanup&quot;,a.hide),sozi.events.listen(&quot;sozi.player.framechange&quot;,w)}),namespace(this,&quot;sozi.framenumber&quot;,function(a,b){function i(){var a=e.getBBox(),b=Math.max(a.width,a.height)*.75,c=b*1.25;g.setAttribute(&quot;r&quot;,b),d.setAttribute(&quot;transform&quot;,&quot;translate(&quot;+c+&quot;,&quot;+c+&quot;)&quot;)}function j(){d=c.createElementNS(h,&quot;g&quot;),e=c.createElementNS(h,&quot;text&quot;),g=c.createElementNS(h,&quot;circle&quot;),d.setAttribute(&quot;id&quot;,&quot;sozi-framenumber&quot;),g.setAttribute(&quot;cx&quot;,0),g.setAttribute(&quot;cy&quot;,0),d.appendChild(g),f=c.createTextNode(sozi.player.currentFrameIndex+1),e.setAttribute(&quot;text-anchor&quot;,&quot;middle&quot;),e.setAttribute(&quot;dominant-baseline&quot;,&quot;central&quot;),e.setAttribute(&quot;x&quot;,0),e.setAttribute(&quot;y&quot;,0),e.appendChild(f),d.appendChild(e),c.documentElement.appendChild(d),i()}function k(a){f.nodeValue=a+1}&quot;use strict&quot;;var c=b.document,d,e,f,g,h=&quot;http://www.w3.org/2000/svg&quot;;sozi.events.listen(&quot;sozi.player.ready&quot;,j),sozi.events.listen(&quot;sozi.player.framechange&quot;,k)}),namespace(this,&quot;sozi.links&quot;,function(a,b){function e(a){return function(b){sozi.player.moveToFrame(a),b.preventDefault(),b.stopPropagation()}}function f(){var a=b.document.getElementsByTagNameNS(c,&quot;a&quot;);for(var f=0;f&lt;a.length;f+=1){var g=a[f].getAttributeNS(d,&quot;href&quot;);g&amp;&amp;g[0]===&quot;#&quot;&amp;&amp;a[f].addEventListener(&quot;click&quot;,e(sozi.location.getFrameIndexForHash(g)),!1)}}&quot;use strict&quot;;var c=&quot;http://www.w3.org/2000/svg&quot;,d=&quot;http://www.w3.org/1999/xlink&quot;;sozi.events.listen(&quot;sozi.document.ready&quot;,f)}),namespace(this,&quot;sozi.location&quot;,function(a,b){function d(){var b=a.getFrameIndex();c||sozi.player.moveToFrame(b),c=!1}function e(a){c=!0,b.location.hash=&quot;#&quot;+sozi.document.frames[a].id}&quot;use strict&quot;;var c=!1;a.getFrameIndex=function(){return a.getFrameIndexForHash(b.location.hash)},a.getFrameIndexForHash=function(a){var b=a?a.slice(1):&quot;1&quot;,c;return/^[0-9]+$/.test(b)?c=parseInt(b,10)-1:c=sozi.document.getFrameIndexForId(b),c&lt;0?0:c&gt;=sozi.document.frames.length?sozi.document.frames.length-1:c},sozi.events.listen(&quot;sozi.player.framechange&quot;,e),b.addEventListener(&quot;hashchange&quot;,d,!1)}),namespace(this,&quot;sozi.player&quot;,function(a,b){function l(){if(sozi.document.frames[a.currentFrameIndex].timeoutEnable){k=!0;var c=(a.currentFrameIndex+1)%sozi.document.frames.length;e=b.setTimeout(function(){a.moveToFrame(c)},sozi.document.frames[a.currentFrameIndex].timeoutMs)}}function m(a,b,c){var d={ss:(a&lt;0?Math.max(b,c):Math.min(b,c))*(100-a)/100,ts:.5,k:0};if(a!==0){var e=b-c,f=b-d.ss,g=c-d.ss;if(e!==0){var h=Math.sqrt(f*g),i=(f-h)/e,j=(f+h)/e;d.ts=i&gt;0&amp;&amp;i&lt;=1?i:j}d.k=f/d.ts/d.ts}return d}function n(){c=sozi.display.ViewPort.instance(&quot;player&quot;,sozi.document.idLayerList,!0),a.startFromIndex(sozi.location.getFrameIndex()),b.setTimeout(c.bind(c.update),1),sozi.events.fire(&quot;sozi.player.ready&quot;)}&quot;use strict&quot;;var c,d,e,f=500,g=-10,h=&quot;linear&quot;,i=0;a.currentFrameIndex=0;var j=!1,k=!1;a.startFromIndex=function(b){j=!0,k=!1,i=b,a.currentFrameIndex=b,c.showFrame(sozi.document.frames[b]),l()},a.restart=function(){a.startFromIndex(a.currentFrameIndex)},a.stop=function(){d.stop(),k&amp;&amp;(b.clearTimeout(e),k=!1),j=!1,i=a.currentFrameIndex},a.jumpToFrame=function(b){a.stop(),sozi.events.fire(&quot;sozi.player.cleanup&quot;),i=b,a.currentFrameIndex=b,c.showFrame(sozi.document.frames[b]),sozi.events.fire(&quot;sozi.player.framechange&quot;,b)},a.getAnimationData=function(a,b,c,d,e,f){var g={};for(var h in a){g[h]={initialState:sozi.display.CameraState.instance(),finalState:sozi.display.CameraState.instance(),useTransitionPath:e,reverseTransitionPath:f},g[h].profile=d||b[h].transitionProfile,g[h].initialState.setAtState(a[h]),b.hasOwnProperty(h)?g[h].finalState.setAtState(b[h]):g[h].finalState.setAtState(a[h]),g[h].finalState.angle-g[h].initialState.angle&gt;180?g[h].finalState.setRawAngle(g[h].finalState.angle-360):g[h].finalState.angle-g[h].initialState.angle&lt;-180&amp;&amp;g[h].initialState.setRawAngle(g[h].initialState.angle-360);var i=c||b[h].transitionZoomPercent;i&amp;&amp;b.hasOwnProperty(h)&amp;&amp;(g[h].zoomWidth=m(i,a[h].width,b[h].width),g[h].zoomHeight=m(i,a[h].height,b[h].height))}return g},a.previewFrame=function(b){a.currentFrameIndex=b,d.start(f,a.getAnimationData(c.cameras,sozi.document.frames[b].states,g,sozi.animation.profiles[h]),!1,!1),sozi.events.fire(&quot;sozi.player.framechange&quot;,b)},a.moveToFrame=function(i){k&amp;&amp;(b.clearTimeout(e),k=!1);var l,m,n,o,p;i===(a.currentFrameIndex-1)%sozi.document.frames.length?(l=sozi.document.frames[a.currentFrameIndex].transitionDurationMs,m=undefined,n=undefined,o=!0,p=!0):i===(a.currentFrameIndex+1)%sozi.document.frames.length?(l=sozi.document.frames[i].transitionDurationMs,m=undefined,n=undefined,o=!0,p=!1):(l=f,m=g,n=sozi.animation.profiles[h],o=!1,p=!1),sozi.events.fire(&quot;sozi.player.cleanup&quot;),j=!0,a.currentFrameIndex=i,d.start(l,a.getAnimationData(c.cameras,sozi.document.frames[i].states,m,n,o,p)),sozi.events.fire(&quot;sozi.player.framechange&quot;,i)},a.moveToFirst=function(){a.moveToFrame(0)},a.jumpToPrevious=function(){var b=a.currentFrameIndex;if(!d.started||i&lt;=a.currentFrameIndex)b-=1;b&gt;=0&amp;&amp;a.jumpToFrame(b)},a.moveToPrevious=function(){for(var b=a.currentFrameIndex-1;b&gt;=0;b-=1){var c=sozi.document.frames[b];if(!c.timeoutEnable||c.timeoutMs!==0){a.moveToFrame(b);break}}},a.jumpToNext=function(){var b=a.currentFrameIndex;if(!d.started||i&gt;=a.currentFrameIndex)b+=1;b&lt;sozi.document.frames.length&amp;&amp;a.jumpToFrame(b)},a.moveToNext=function(){(a.currentFrameIndex&lt;sozi.document.frames.length-1||sozi.document.frames[a.currentFrameIndex].timeoutEnable)&amp;&amp;a.moveToFrame((a.currentFrameIndex+1)%sozi.document.frames.length)},a.moveToLast=function(){a.moveToFrame(sozi.document.frames.length-1)},a.moveToCurrent=function(){a.moveToFrame(a.currentFrameIndex)},a.showAll=function(){a.stop(),sozi.events.fire(&quot;sozi.player.cleanup&quot;),d.start(f,a.getAnimationData(c.cameras,c.getDocumentState(),g,sozi.animation.profiles[h],!1,!1))},a.onAnimationStep=function(a,b){for(var d in b){var e=c.cameras[d];e.interpolate(b[d].initialState,b[d].finalState,b[d].profile(a),b[d].useTransitionPath,b[d].reverseTransitionPath);var f;b[d].zoomWidth&amp;&amp;b[d].zoomWidth.k!==0&amp;&amp;(f=a-b[d].zoomWidth.ts,e.width=b[d].zoomWidth.k*f*f+b[d].zoomWidth.ss),b[d].zoomHeight&amp;&amp;b[d].zoomHeight.k!==0&amp;&amp;(f=a-b[d].zoomHeight.ts,e.height=b[d].zoomHeight.k*f*f+b[d].zoomHeight.ss),e.setClipped(b[d].finalState.clipped)}c.update()},d=sozi.animation.Animator.instance().augment({onStep:function(b){a.onAnimationStep(b,this.data)},onDone:function(){for(var b in this.data)c.cameras[b].setAtState(this.data[b].finalState);c.update(),i=a.currentFrameIndex,j&amp;&amp;l()}}),sozi.events.listen(&quot;sozi.display.ready&quot;,n)});</script>
  <style
     id="sozi-style"
     ns1:version="13.05-21071236">#sozi-toc text{fill:#eff;font-family:Verdana,sans-serif;font-size:12pt}#sozi-toc text:hover{fill:#0cf;cursor:pointer}#sozi-toc text.sozi-toc-current{fill:#fa4}#sozi-toc-background{stroke:#222;stroke-opacity:.1;stroke-width:10;fill:#222;fill-opacity:.9}.sozi-toc-arrow{fill:#eff;fill-opacity:.75;stroke:none}.sozi-toc-arrow:hover{fill:#0cf}#sozi-framenumber circle{stroke:#222;stroke-opacity:.1;stroke-width:4;fill:#222;fill-opacity:.9}#sozi-framenumber text{fill:#eff;font-family:Verdana,sans-serif;font-size:12pt}</style>
  <ns1:frame
     id="frame2410"
     ns1:transition-path-hide="true"
     ns1:transition-profile="linear"
     ns1:transition-zoom-percent="0.0"
     ns1:transition-duration-ms="500"
     ns1:timeout-ms="5000.0"
     ns1:timeout-enable="false"
     ns1:clip="true"
     ns1:hide="true"
     ns1:sequence="1"
     ns1:title="Home"
     ns1:refid="rect5948" />
  <ns1:frame
     id="frame2412"
     ns1:transition-path-hide="true"
     ns1:transition-profile="linear"
     ns1:transition-zoom-percent="0.0"
     ns1:transition-duration-ms="500"
     ns1:timeout-ms="5000.0"
     ns1:timeout-enable="false"
     ns1:clip="true"
     ns1:hide="true"
     ns1:sequence="2"
     ns1:title="Red"
     ns1:refid="rect5940" />
  <ns1:frame
     id="frame2413"
     ns1:transition-path-hide="true"
     ns1:transition-profile="linear"
     ns1:transition-zoom-percent="0.0"
     ns1:transition-duration-ms="500"
     ns1:timeout-ms="5000.0"
     ns1:timeout-enable="false"
     ns1:clip="true"
     ns1:hide="true"
     ns1:sequence="3"
     ns1:title="Green"
     ns1:refid="rect5942" />
  <ns1:frame
     id="frame2414"
     ns1:transition-path-hide="true"
     ns1:transition-profile="linear"
     ns1:transition-zoom-percent="0.0"
     ns1:transition-duration-ms="500"
     ns1:timeout-ms="5000.0"
     ns1:timeout-enable="false"
     ns1:clip="true"
     ns1:hide="true"
     ns1:sequence="4"
     ns1:title="Magenta"
     ns1:refid="rect5944" />
  <ns1:frame
     id="frame2416"
     ns1:transition-path-hide="true"
     ns1:transition-profile="linear"
     ns1:transition-zoom-percent="0.0"
     ns1:transition-duration-ms="500"
     ns1:timeout-ms="5000.0"
     ns1:timeout-enable="false"
     ns1:clip="true"
     ns1:hide="true"
     ns1:sequence="5"
     ns1:title="Blue"
     ns1:refid="rect5946" />
  <script
     id="sozi-extras-media-script"
     ns1:version="13.05-21071236">this.addEventListener(&quot;load&quot;,function(){function p(a){a.stopPropagation()}function q(a,b,c){sozi.events.listen(&quot;sozi.player.framechange&quot;,function(d){var e=sozi.document.frames[d].id;e===b?a.play():e===c&amp;&amp;a.pause()})}var a=&quot;http://www.w3.org/2000/svg&quot;,b=&quot;http://sozi.baierouge.fr&quot;,c=&quot;http://www.w3.org/1999/xhtml&quot;,d=this,e=d.document,f=[],g,h,i,j,k,l,m,n,o;f.push(e.getElementsByTagNameNS(b,&quot;video&quot;)),f.push(e.getElementsByTagNameNS(b,&quot;audio&quot;)),g=[];for(j=0;j&lt;f.length;j+=1)for(h=0;h&lt;f[j].length;h+=1){k=f[j][h].parentNode,o=e.createElementNS(c,&quot;source&quot;),o.setAttribute(&quot;type&quot;,f[j][h].getAttributeNS(b,&quot;type&quot;)),o.setAttribute(&quot;src&quot;,f[j][h].getAttributeNS(b,&quot;src&quot;));for(i=0;i&lt;g.length;i+=1)if(g[i].rect===k)break;i===g.length&amp;&amp;(k.setAttribute(&quot;visibility&quot;,&quot;hidden&quot;),n=e.createElementNS(c,f[j][h].localName),n.setAttribute(&quot;controls&quot;,&quot;controls&quot;),f[j][h].localName===&quot;video&quot;&amp;&amp;(n.setAttribute(&quot;width&quot;,k.getAttribute(&quot;width&quot;)),n.setAttribute(&quot;height&quot;,k.getAttribute(&quot;height&quot;))),n.addEventListener(&quot;click&quot;,p,!1),n.addEventListener(&quot;contextmenu&quot;,p,!1),m=e.createElementNS(c,&quot;html&quot;),m.appendChild(n),l=e.createElementNS(a,&quot;foreignObject&quot;),l.setAttribute(&quot;x&quot;,k.getAttribute(&quot;x&quot;)),l.setAttribute(&quot;y&quot;,k.getAttribute(&quot;y&quot;)),l.setAttribute(&quot;width&quot;,k.getAttribute(&quot;width&quot;)),l.setAttribute(&quot;height&quot;,k.getAttribute(&quot;height&quot;)),l.appendChild(m),k.parentNode.insertBefore(l,k.nextSibling),f[j][h].hasAttributeNS(b,&quot;start-frame&quot;)&amp;&amp;q(n,f[j][h].getAttributeNS(b,&quot;start-frame&quot;),f[j][h].getAttributeNS(b,&quot;stop-frame&quot;)),g.push({rect:f[j][h].parentNode,htmlMedia:n})),g[i].htmlMedia.appendChild(o)}},!1);</script>
</svg>
