<?xml version="1.0" encoding="UTF-8" standalone="no"?>
<!-- Created with Inkscape (http://www.inkscape.org/) -->

<svg
   xmlns:ns1="http://sozi.baierouge.fr"
   xmlns:dc="http://purl.org/dc/elements/1.1/"
   xmlns:cc="http://creativecommons.org/ns#"
   xmlns:rdf="http://www.w3.org/1999/02/22-rdf-syntax-ns#"
   xmlns:svg="http://www.w3.org/2000/svg"
   xmlns="http://www.w3.org/2000/svg"
   xmlns:sodipodi="http://sodipodi.sourceforge.net/DTD/sodipodi-0.dtd"
   xmlns:inkscape="http://www.inkscape.org/namespaces/inkscape"
   width="1062.9921"
   height="1062.9921"
   id="svg2"
   version="1.1"
   inkscape:version="0.48.0 r9654"
   sodipodi:docname="this-is-not-a-slideshow.fast.svg">
  <sodipodi:namedview
     id="base"
     pagecolor="#ffffff"
     bordercolor="#666666"
     borderopacity="1.0"
     inkscape:pageopacity="0.0"
     inkscape:pageshadow="2"
     inkscape:zoom="1.4"
     inkscape:cx="871.5899"
     inkscape:cy="589.79045"
     inkscape:document-units="px"
     inkscape:current-layer="layer1"
     showgrid="true"
     inkscape:window-width="1274"
     inkscape:window-height="951"
     inkscape:window-x="0"
     inkscape:window-y="24"
     inkscape:window-maximized="1"
     units="cm">
    <inkscape:grid
       snapvisiblegridlinesonly="true"
       enabled="true"
       visible="true"
       empspacing="5"
       type="xygrid"
       id="grid3763" />
  </sodipodi:namedview>
  <defs
     id="defs4">
    <inkscape:path-effect
       effect="sketch"
       id="path-effect3765"
       is_visible="true"
       nbiter_approxstrokes="5"
       strokelength="100"
       strokelength_rdm="0.3;1"
       strokeoverlap="0.3"
       strokeoverlap_rdm="0.3;1"
       ends_tolerance="0.1;1"
       parallel_offset="5;1"
       tremble_size="5;1"
       tremble_frequency="1"
       nbtangents="5"
       tgt_places_rdmness="1;1"
       tgtscale="10"
       tgtlength="100"
       tgtlength_rdm="0.3;1" />
    <inkscape:path-effect
       effect="envelope"
       id="path-effect3767"
       is_visible="true"
       yy="true"
       xx="true"
       bendpath1="m 167.14286,514.73163 157.07266,0"
       bendpath2="m 324.21552,514.73163 0,367.83084"
       bendpath3="m 167.14286,882.56247 157.07266,0"
       bendpath4="m 167.14286,514.73163 0,367.83084" />
    <inkscape:path-effect
       effect="gears"
       id="path-effect3769"
       is_visible="true"
       teeth="10"
       phi="5" />
    <inkscape:path-effect
       effect="knot"
       id="path-effect3771"
       is_visible="true"
       interruption_width="3"
       prop_to_stroke_width="true"
       add_stroke_width="true"
       add_other_stroke_width="true"
       switcher_size="15"
       crossing_points_vector="" />
    <inkscape:path-effect
       effect="construct_grid"
       id="path-effect3773"
       is_visible="true"
       nr_x="5"
       nr_y="5" />
    <inkscape:path-effect
       effect="spiro"
       id="path-effect3775"
       is_visible="true" />
    <inkscape:path-effect
       effect="vonkoch"
       id="path-effect3777"
       is_visible="true"
       ref_path="m 167.14286,698.64705 157.07266,0"
       generator="m 167.14286,882.56247 52.35755,0 m 52.35756,0 52.35755,0"
       similar_only="false"
       nbgenerations="1"
       drawall="true"
       maxComplexity="1000" />
    <inkscape:path-effect
       effect="bend_path"
       id="path-effect3779"
       is_visible="true"
       bendpath="m 167.14286,698.64705 157.07266,0"
       prop_scale="1"
       scale_y_rel="false"
       vertical="false" />
  </defs>
  <metadata
     id="metadata7">
    <rdf:RDF>
      <cc:Work
         rdf:about="">
        <dc:format>image/svg+xml</dc:format>
        <dc:type
           rdf:resource="http://purl.org/dc/dcmitype/StillImage" />
        <dc:title />
      </cc:Work>
    </rdf:RDF>
  </metadata>
  <g
     transform="translate(0,10.631225)"
     inkscape:label="Calque 1"
     inkscape:groupmode="layer"
     id="layer1">
    <g
       id="text2985"
       style="font-size:33.79266739px;font-style:normal;font-variant:normal;font-weight:normal;font-stretch:normal;line-height:125%;letter-spacing:0px;word-spacing:0px;fill:#000000;fill-opacity:1;stroke:none;font-family:Iwona;-inkscape-font-specification:Iwona">
      <path
         id="path5103"
         style="stroke:none"
         d="m 288.83945,527.42772 1.33164,-0.80192 -9.58818,-15.92184 -1.33164,0.80192 4.07933,6.77402 -18.93251,11.40122 1.42951,2.3738 18.93251,-11.40122 4.07934,6.77402 m -11.92442,23.03864 9.40835,-5.66575 c 2.11326,-1.27261 2.93184,-3.9746 1.67666,-6.05891 -1.04598,-1.73692 -2.9542,-2.67849 -4.91967,-3.1911 l 9.14782,-5.50884 -1.35977,-2.25801 -20.26416,12.20314 1.35978,2.25801 10.21892,-6.15387 c 1.57698,0.39153 3.09079,1.13669 3.91014,2.49728 0.81936,1.3606 0.26005,3.11751 -1.12949,3.9543 l -9.40836,5.66574 1.35978,2.25801" />
      <path
         id="path5105"
         style="stroke:none"
         d="m 284.34201,560.48574 0.86838,-0.52313 c -0.79445,-0.27097 -1.55438,-0.68109 -1.99033,-1.40474 -0.64519,-1.071 0.56426,-2.07576 1.80893,-2.82559 l 9.40744,-5.66727 -1.36015,-2.25779 -9.40744,5.66728 c -1.93937,1.16833 -3.45432,3.1067 -2.42549,4.81451 0.66264,1.09994 1.84037,1.81068 3.09866,2.19673 m 14.78436,-12.85157 c 0.78154,-0.47082 1.03472,-1.49126 0.5639,-2.2728 -0.47082,-0.78154 -1.49126,-1.03472 -2.2728,-0.5639 -0.78154,0.47082 -1.03472,1.49126 -0.5639,2.2728 0.47082,0.78154 1.49126,1.03472 2.2728,0.5639" />
      <path
         id="path5107"
         style="stroke:none"
         d="m 294.07782,570.57674 c 2.28806,-1.37538 2.01309,-4.52206 1.16473,-7.2452 -0.48812,-1.59913 -0.81418,-3.45339 0.54706,-4.27166 1.2454,-0.74862 2.82239,0.0383 3.65807,1.42847 0.92273,1.53502 1.38205,3.3486 1.30817,5.12785 l 1.21643,-0.73122 c 0.0739,-1.77924 -0.38544,-3.59283 -1.30817,-5.12785 -1.51466,-2.51976 -4.44248,-3.91405 -6.78846,-2.50384 -2.11428,1.27092 -1.6888,4.20884 -0.89853,6.76976 0.54621,1.76135 0.6928,3.84178 -0.7843,4.72969 -1.36124,0.81826 -3.03684,-0.0671 -3.92475,-1.54416 -1.07941,-1.79568 -1.68957,-3.7946 -1.74341,-5.85192 l -1.21644,0.73122 c 0.0539,2.05732 0.66401,4.05623 1.74342,5.85192 1.56689,2.60664 4.59332,4.09937 7.02618,2.63694" />
      <path
         id="path5109"
         style="stroke:none"
         d="m 302.54873,590.86023 0.87057,-0.51948 c -0.7933,-0.27431 -1.5515,-0.68762 -1.9844,-1.41309 -0.64069,-1.0737 0.57297,-2.07337 1.82079,-2.81796 l 9.43117,-5.62768 -1.35064,-2.26349 -9.43118,5.62769 c -1.94427,1.16017 -3.46734,3.09215 -2.4457,4.80427 0.658,1.10272 1.83274,1.8184 3.08939,2.20974 m 14.83825,-12.78931 c 0.78352,-0.46753 1.04098,-1.4869 0.57345,-2.27042 -0.46753,-0.78351 -1.4869,-1.04098 -2.27041,-0.57345 -0.78351,0.46754 -1.04098,1.48691 -0.57345,2.27042 0.46753,0.78351 1.4869,1.04098 2.27041,0.57345" />
      <path
         id="path5111"
         style="stroke:none"
         d="m 312.22858,601.00222 c 2.29574,-1.36252 2.03845,-4.51069 1.2054,-7.23855 -0.47913,-1.60184 -0.79478,-3.45791 0.57104,-4.26851 1.24958,-0.74162 2.82213,0.0541 3.64999,1.44898 0.91409,1.54018 1.36322,3.35632 1.27935,5.13512 l 1.22052,-0.72437 c 0.0839,-1.77881 -0.36526,-3.59494 -1.27935,-5.13512 -1.50049,-2.52822 -4.42043,-3.93894 -6.77429,-2.54193 -2.12138,1.25903 -1.71242,4.19929 -0.93654,6.76461 0.53631,1.76439 0.67121,3.84561 -0.81085,4.7252 -1.36582,0.81061 -3.03642,-0.0841 -3.91601,-1.56617 -1.06931,-1.80172 -1.66824,-3.80403 -1.71053,-5.86162 l -1.22052,0.72438 c 0.0423,2.05759 0.64121,4.0599 1.71053,5.86162 1.55223,2.6154 4.57022,4.1251 7.01126,2.67636" />
      <path
         id="path5113"
         style="stroke:none"
         d="m 322.56735,627.15739 9.4835,-5.53905 c 2.13014,-1.24415 2.98488,-3.93492 1.75777,-6.03588 -1.0226,-1.75079 -2.91801,-2.71787 -4.87643,-3.25679 l 1.92588,-1.12485 -1.32937,-2.27604 -13.131,7.66945 1.32937,2.27604 10.30054,-6.01626 c 1.57159,0.41265 3.07527,1.17804 3.8763,2.5495 0.80103,1.37146 0.21821,3.12072 -1.18243,3.93879 l -9.4835,5.53905 1.32937,2.27604" />
      <path
         id="path5115"
         style="fill:#ff6600"
         d="m 337.90484,638.50461 c 4.479,-2.58269 5.73166,-5.95755 3.62162,-9.61686 -2.12692,-3.68859 -5.67531,-4.29507 -10.15431,-1.71238 -4.479,2.58268 -5.73165,5.95755 -3.60473,9.64614 2.11004,3.65931 5.65842,4.26579 10.13742,1.6831 m -1.48547,-2.57616 c -3.65931,2.11004 -6.27455,2.17475 -7.42242,0.18408 -1.16474,-2.01994 0.20136,-4.25096 3.86067,-6.361 3.65932,-2.11005 6.27456,-2.17475 7.43931,-0.15481 1.14786,1.99067 -0.21824,4.22169 -3.87756,6.33173" />
      <path
         id="path5117"
         style="stroke:none"
         d="m 338.13832,651.87858 0.88086,-0.50183 c -0.73744,-0.20215 -1.43698,-0.54256 -1.82172,-1.21789 -0.6022,-1.05702 0.74435,-1.90196 1.97755,-2.60453 l 8.30942,-4.734 1.60588,2.81875 1.2332,-0.70258 -1.60588,-2.81874 4.40429,-2.50918 -0.78621,-1.38001 c -2.34895,1.33823 -5.32058,1.24217 -6.54172,-0.90125 l -1.08639,0.61894 1.47206,2.58384 -8.30942,4.734 c -1.93789,1.10404 -3.61258,2.87487 -2.65909,4.54849 0.61894,1.08639 1.74147,1.69142 2.92717,2.06599" />
      <path
         id="path5119"
         style="stroke:none"
         d="m 350.24915,675.94593 8.27469,-4.58888 c 2.77794,-1.54055 4.3689,-4.66404 2.94307,-7.2351 -1.04889,-1.89136 -2.68238,-3.30396 -4.57216,-4.34257 l -0.91613,0.50806 c 1.47631,0.92013 2.7686,2.13554 3.62082,3.67227 1.01611,1.83225 -0.34436,3.97781 -2.35393,5.09225 l -0.53194,0.295 c -0.13677,-1.43116 -0.52958,-2.83625 -1.21791,-4.07746 -1.75361,-3.16211 -4.49641,-4.6937 -7.48121,-3.03843 -2.83703,1.57333 -3.25609,4.51062 -1.60082,7.49542 0.83583,1.50717 2.28582,2.5192 3.88705,3.17685 l -1.32986,0.7375 1.27833,2.30509 m 1.29273,-3.73092 c -1.37824,-0.39491 -2.72344,-1.07863 -3.42816,-2.34939 -1.09805,-1.98001 -0.60751,-3.95227 1.34295,-5.03393 1.8027,-0.99972 4.01112,-0.29237 5.01084,1.51033 0.62277,1.12299 0.95003,2.40988 1.00485,3.69327 l -3.93048,2.17972" />
      <path
         id="path5121"
         style="stroke:none"
         d="m 366.88288,697.62136 c 2.35452,-1.25822 2.23864,-4.41476 1.52873,-7.17723 -0.40683,-1.62171 -0.63894,-3.49006 0.76185,-4.23862 1.28157,-0.68485 2.81687,0.18059 3.58135,1.61118 0.84412,1.57962 1.21137,3.41406 1.04783,5.18732 l 1.25177,-0.66893 c 0.16354,-1.77325 -0.20371,-3.6077 -1.04783,-5.18731 -1.38562,-2.59295 -4.23938,-4.13317 -6.65351,-2.8431 -2.1757,1.16265 -1.89897,4.11829 -1.23889,6.71581 0.45666,1.78667 0.49812,3.87184 -1.02189,4.6841 -1.40079,0.74856 -3.02959,-0.22016 -3.84186,-1.74017 -0.98745,-1.84785 -1.496,-3.875 -1.44599,-5.93242 l -1.25177,0.66893 c -0.05,2.05741 0.45853,4.08456 1.44599,5.93241 1.43341,2.68237 4.38068,4.32587 6.88422,2.98803" />
      <path
         id="path5123"
         style="stroke:none"
         d="m 369.03806,708.49963 0.89804,-0.47039 c -0.77686,-0.31789 -1.51097,-0.77262 -1.90296,-1.52099 -0.58014,-1.10759 0.6871,-2.03839 1.9743,-2.71262 l 17.21253,-9.01576 -1.22301,-2.33492 -17.21253,9.01577 c -2.00563,1.05053 -3.63353,2.89505 -2.70844,4.6612 0.59583,1.13753 1.72906,1.91727 2.96207,2.37771" />
      <path
         id="path5125"
         style="stroke:none"
         d="m 373.40819,716.98217 0.90147,-0.46379 c -0.77452,-0.32358 -1.50527,-0.78368 -1.89176,-1.53491 -0.572,-1.11181 0.70203,-2.0333 1.99414,-2.69806 l 9.76594,-5.02438 -1.20586,-2.34383 -9.76593,5.02438 c -2.01328,1.0358 -3.65467,2.86833 -2.74255,4.64122 0.58746,1.14186 1.71494,1.9299 2.94455,2.39937 m 15.61203,-11.83235 c 0.81132,-0.41741 1.13229,-1.41861 0.71488,-2.22993 -0.41741,-0.81132 -1.4186,-1.13229 -2.22992,-0.71488 -0.81133,0.41741 -1.13229,1.4186 -0.71488,2.22993 0.41741,0.81132 1.4186,1.13229 2.22992,0.71488" />
      <path
         id="path5127"
         style="stroke:none"
         d="m 379.36959,731.4796 21.15978,-10.57433 -1.17828,-2.3578 -8.07095,4.03335 c -0.0753,-1.43571 -0.40743,-2.85636 -1.04189,-4.12594 -1.88828,-3.77853 -5.83258,-4.11184 -9.91339,-2.07251 -4.02036,2.00913 -6.34833,5.06138 -4.52049,8.71899 0.77042,1.54164 2.17566,2.61493 3.74721,3.34066 l -1.36027,0.67978 1.17828,2.3578 m 1.45158,-3.67204 c -1.36003,-0.45366 -2.67467,-1.19445 -3.32424,-2.49427 -1.37466,-2.75077 0.98331,-4.68468 4.15727,-6.27083 2.84145,-1.41998 6.27213,-2.03887 7.51084,0.43984 0.57403,1.14868 0.84579,2.44841 0.84552,3.73298 l -9.18939,4.59228" />
      <path
         id="path5129"
         style="stroke:none"
         d="m 393.57196,744.22074 0.30485,-0.14581 c 4.29838,-2.05593 6.04124,-5.7739 4.34983,-9.31016 -1.70598,-3.56675 -5.69432,-4.54347 -9.9927,-2.48755 -4.29839,2.05593 -6.04124,5.7739 -4.33526,9.34065 0.72905,1.52425 1.93129,2.78472 3.41318,3.61176 l 1.28037,-0.61241 c -1.59986,-0.99536 -2.48928,-1.9934 -3.29124,-3.67008 -1.23939,-2.59122 0.9237,-4.41248 3.91123,-5.84142 l 4.35974,9.11502 m -0.003,-3.29509 -3.0766,-6.43234 c 2.4388,-1.16648 5.40385,-1.31106 6.45368,0.88386 1.03526,2.16444 -0.93828,4.382 -3.37708,5.54848" />
      <path
         id="path5131"
         style="stroke:none"
         d="m 397.05995,758.90686 c 2.42976,-1.10595 2.51483,-4.26347 1.982,-7.06549 -0.30289,-1.6443 -0.41573,-3.52363 1.02982,-4.1816 1.32253,-0.60198 2.79969,0.35933 3.47166,1.83563 0.74197,1.6301 0.99183,3.48418 0.71587,5.24345 l 1.29177,-0.58798 c 0.27597,-1.75926 0.0261,-3.61335 -0.71587,-5.24344 -1.21795,-2.67581 -3.968,-4.39436 -6.45927,-3.26041 -2.24522,1.02196 -2.15699,3.98922 -1.66341,6.62345 0.34214,1.81208 0.25092,3.89568 -1.31765,4.60965 -1.44556,0.65797 -3.00947,-0.41236 -3.72344,-1.98094 -0.86796,-1.9069 -1.24658,-3.96228 -1.06586,-6.01235 l -1.29177,0.58797 c -0.18072,2.05008 0.1979,4.10546 1.06586,6.01236 1.25995,2.76808 4.09675,4.59565 6.68029,3.4197" />
      <path
         id="path5133"
         style="stroke:none"
         d="m 399.64676,775.83027 10.10249,-4.30785 c 2.26917,-0.96761 3.45414,-3.53015 2.49979,-5.76824 -0.79529,-1.86507 -2.55468,-3.06189 -4.4302,-3.84182 l 9.82273,-4.18855 -1.03388,-2.4246 -21.75921,9.27844 1.03388,2.4246 10.97286,-4.67899 c 1.50754,0.60621 2.90354,1.55388 3.52652,3.01486 0.62298,1.46097 -0.17432,3.12347 -1.66637,3.7597 l -10.1025,4.30785 1.03389,2.4246" />
      <path
         id="path5135"
         style="fill:#ff6600"
         d="m 413.15588,789.35028 c 4.81973,-1.87134 6.57115,-5.0164 5.04228,-8.95408 -1.54111,-3.96919 -4.95595,-5.10835 -9.77568,-3.23701 -4.81973,1.87135 -6.57115,5.0164 -5.03004,8.98559 1.52887,3.93769 4.94372,5.07685 9.76344,3.2055 m -1.07633,-2.77213 c -3.93768,1.52888 -6.53234,1.19503 -7.36405,-0.94707 -0.84394,-2.17361 0.84562,-4.17088 4.78331,-5.69975 3.93768,-1.52888 6.53234,-1.19503 7.37628,0.97857 0.83171,2.1421 -0.85785,4.13937 -4.79554,5.66825" />
      <path
         id="path5137"
         style=""
         d="m 428.20164,810.00869 -0.46453,-1.41245 -12.9627,0.0656 10.52391,-7.48093 -0.57011,-1.73346 -12.9627,0.0656 10.51335,-7.51304 -0.7707,-2.34338 -12.96745,9.24505 0.66512,2.02237 12.4284,-0.0677 -10.08462,7.19417 0.66512,2.02237 15.98691,-0.0641" />
    </g>
    <rect
       transform="matrix(0.503761,0.86384307,-0.86384307,0.503761,0,0)"
       style="fill:none;stroke:#008080;stroke-width:1;stroke-miterlimit:4;stroke-opacity:1;stroke-dasharray:3.99999997, 1.99999997, 1, 1.99999997;stroke-dashoffset:0"
       id="rect2993"
       width="80"
       height="65"
       x="573.93201"
       y="-6.8015165"
       rx="0"
       ry="0" />
    <rect
       transform="matrix(0.49851537,0.86688086,-0.86688086,0.49851537,0,0)"
       ry="0"
       rx="0"
       y="-3.0602958"
       x="646.70123"
       height="65"
       width="40"
       id="rect3765"
       style="fill:none;stroke:#008080;stroke-width:1;stroke-miterlimit:4;stroke-opacity:1;stroke-dasharray:4.00000006, 2.00000003, 1.00000003, 2.00000003;stroke-dashoffset:0" />
    <rect
       transform="matrix(0.50891928,0.86081425,-0.86081425,0.50891928,0,0)"
       style="fill:none;stroke:#008080;stroke-width:1;stroke-miterlimit:4;stroke-opacity:1;stroke-dasharray:3.99999992, 1.99999997, 0.99999998, 1.99999997;stroke-dashoffset:0"
       id="rect3767"
       width="60"
       height="65"
       x="680.45374"
       y="2.8453968"
       rx="0"
       ry="0" />
    <rect
       transform="matrix(0.47623607,0.87931747,-0.87931747,0.47623607,0,0)"
       ry="0"
       rx="0"
       y="-24.288458"
       x="739.17932"
       height="65"
       width="35"
       id="rect3769"
       style="fill:none;stroke:#008080;stroke-width:1;stroke-miterlimit:4;stroke-opacity:1;stroke-dasharray:3.99999994, 1.99999997, 1, 1.99999997;stroke-dashoffset:0" />
    <rect
       transform="matrix(0.43736046,0.89928629,-0.89928629,0.43736046,0,0)"
       style="fill:none;stroke:#008080;stroke-width:0.99999994;stroke-miterlimit:4;stroke-opacity:1;stroke-dasharray:4.00000011, 2.00000005, 1.00000002, 2.00000005;stroke-dashoffset:0"
       id="rect3771"
       width="166.10191"
       height="67.478905"
       x="766.0672"
       y="-58.164028"
       rx="0"
       ry="0" />
    <g
       id="text2989"
       style="font-size:45px;font-style:normal;font-variant:normal;font-weight:normal;font-stretch:normal;line-height:125%;letter-spacing:0px;word-spacing:0px;fill:#000000;fill-opacity:1;stroke:none;font-family:Iwona;-inkscape-font-specification:Iwona"
       inkscape:transform-center-y="-4.4554741"
       inkscape:transform-center-x="4.4962412"
       transform="matrix(0.82918963,-0.55896741,0.55896741,0.82918963,0,0)">
      <path
         id="path5096"
         style=""
         d="m 244.27032,843.14336 0,-2.07 -24.75,0 0,2.07 10.53,0 0,29.43 3.69,0 0,-29.43 10.53,0 m 18.09,29.43 0,-14.625 c 0,-3.28499 -2.52001,-6.075 -5.76,-6.075 -2.7,0 -5.08501,1.53001 -7.02,3.42 l 0,-14.22 -3.51,0 0,31.5 3.51,0 0,-15.885 c 1.52999,-1.52999 3.42,-2.745 5.535,-2.745 2.11499,0 3.735,1.84501 3.735,4.005 l 0,14.625 3.51,0" />
      <path
         id="path5098"
         style=""
         d="m 278.88305,870.99836 0,-1.35 c -0.855,0.72 -1.845,1.305 -2.97,1.305 -1.665,0 -1.98,-2.07 -1.98,-4.005 l 0,-14.625 -3.51,0 0,14.625 c 0,3.015 1.17,6.075 3.825,6.075 1.71,0 3.33,-0.855 4.635,-2.025 m -4.5,-25.695 c 0,-1.21499 -0.99,-2.205 -2.205,-2.205 -1.215,0 -2.205,0.99001 -2.205,2.205 0,1.215 0.99,2.205 2.205,2.205 1.215,0 2.205,-0.99 2.205,-2.205" />
      <path
         id="path5100"
         style=""
         d="m 297.07219,866.81336 c 0,-3.55499 -3.78,-5.4 -7.47,-6.3 -2.16,-0.54 -4.5,-1.44 -4.5,-3.555 0,-1.93499 1.98,-3.195 4.14,-3.195 2.385,0 4.77,0.72001 6.75,2.025 l 0,-1.89 c -1.98,-1.30499 -4.365,-2.025 -6.75,-2.025 -3.915,0 -7.515,2.38501 -7.515,6.03 0,3.285 3.645,4.81501 7.11,5.67 2.385,0.585 4.86,1.84501 4.86,4.14 0,2.115 -2.16,3.42 -4.455,3.42 -2.79,0 -5.49,-0.675 -7.875,-2.025 l 0,1.89 c 2.385,1.35 5.085,2.025 7.875,2.025 4.05,0 7.83,-2.43 7.83,-6.21" />
    </g>
    <rect
       ry="0"
       rx="0"
       y="809.41803"
       x="175.06706"
       height="113.17416"
       width="194.01286"
       id="rect3773"
       style="fill:none;stroke:#008080;stroke-width:1;stroke-miterlimit:4;stroke-opacity:1;stroke-dasharray:3.99999978, 1.9999999, 0.99999996, 1.9999999;stroke-dashoffset:0"
       transform="matrix(0.82734714,-0.56169094,0.56169094,0.82734714,0,0)" />
    <rect
       ry="0"
       rx="0"
       y="12.360841"
       x="-6.1035153e-05"
       height="1020"
       width="1060.0001"
       id="rect3787"
       style="fill:none;stroke:#008080;stroke-width:1;stroke-miterlimit:4;stroke-opacity:1;stroke-dasharray:3.99999997, 1.99999998, 1, 1.99999998;stroke-dashoffset:0" />
    <rect
       transform="matrix(0.48292513,0.87566164,-0.87566164,0.48292513,0,0)"
       ry="0"
       rx="0"
       y="-26.204351"
       x="527.84229"
       height="155"
       width="460"
       id="rect4308"
       style="fill:none;stroke:#008080;stroke-width:1;stroke-miterlimit:4;stroke-opacity:1;stroke-dasharray:4.00000001, 2, 1, 2;stroke-dashoffset:0" />
    <g
       inkscape:label="Calque 1"
       id="layer1-8"
       transform="matrix(2.3185398,0,0,2.3185398,-683.9555,-1044.6717)">
      <path
         sodipodi:nodetypes="csssssssscc"
         style="fill:#ffcc00;fill-opacity:1;stroke:#ffcc00;stroke-width:0.99921262;stroke-linecap:round;stroke-linejoin:miter;stroke-miterlimit:4;stroke-opacity:1;stroke-dasharray:none;stroke-dashoffset:0"
         d="m 664.99729,654.7941 c -0.97165,-3.16732 -3.59682,-16.13813 -5.08854,-25.14219 -2.99137,-18.05589 -4.38349,-32.97732 -5.10094,-54.67451 -0.28238,-8.53959 -1.21612,-10.81519 -0.53588,-10.81519 2.82778,0 17.85982,7.47979 24.00519,11.56108 12.37658,8.21958 18.92606,18.74124 19.57856,31.45273 0.2441,4.75551 0.13785,5.72066 -1.02871,9.34391 -2.68567,8.34152 -7.54548,18.74304 -17.97061,29.1591 -3.61501,3.61186 -9.34922,9.59398 -10.78264,10.78265 -2.2368,1.85487 -2.83986,-0.89642 -3.07643,-1.66758 z"
         id="path3007"
         inkscape:connector-curvature="0" />
      <path
         style="fill:#ff6600;fill-opacity:1;stroke:#ff6600;stroke-width:2;stroke-linecap:round;stroke-linejoin:miter;stroke-miterlimit:4;stroke-opacity:1;stroke-dasharray:none;stroke-dashoffset:0"
         d="m 392.34969,654.33945 c -21.01871,-49.20118 -27.20832,-97.82124 -15.39989,-120.96768 6.89705,-13.51934 20.88367,-19.67638 38.80994,-17.08451 8.17657,1.18221 23.92626,4.34053 25.37483,5.7121 0.38519,0.36471 -3.38434,3.52038 -5.32117,6.57609 -4.77582,7.53471 -13.59934,25.79204 -17.81905,36.87057 -11.0807,29.09149 -18.25056,66.19899 -20.59074,101.76543 -0.20638,3.13669 -0.45967,-2.11765 -5.05392,-12.872 z"
         id="path3792"
         inkscape:connector-curvature="0"
         sodipodi:nodetypes="ssssssss" />
      <path
         style="fill:#ddafe9;fill-opacity:1;stroke:#ddafe9;stroke-width:1px;stroke-linecap:butt;stroke-linejoin:miter;stroke-opacity:1"
         d="m 659.6783,501.37697 c -2.32457,0.18254 -4.63554,0.7783 -6.73004,1.81127 -1.19619,0.62935 -2.55003,1.56007 -2.64453,3.03612 -0.0533,2.06356 1.38811,3.95547 3.28485,4.67629 2.24586,0.88314 4.80077,0.66421 7.04242,-0.11235 3.30401,-1.2278 5.79168,-4.03779 7.27879,-7.16473 0.17924,-0.50913 0.93604,-1.39354 -0.0862,-1.2817 -2.66099,-0.42607 -5.33029,-0.91746 -8.03145,-0.96818 l -0.11381,0.003 z"
         id="path3800"
         inkscape:connector-curvature="0" />
      <path
         style="fill:#00ccff;fill-opacity:1;stroke:#00ccff;stroke-opacity:1"
         d="m 578.80989,789.72063 c -23.32273,-8.15737 -33.49713,-20.50991 -31.22416,-32.62588 1.49377,-7.96247 12.51465,-20.8437 29.78472,-34.67555 9.8613,-7.89806 35.84172,-26.23573 40.58446,-29.12029 1.14694,-0.69758 0.1926,2.99527 -0.37919,10.86886 -2.19579,30.23646 -6.65443,51.981 -15.23634,71.45272 -3.72069,8.44198 -8.50455,18.89224 -9.62408,18.76319 -0.35877,-0.0413 -6.18317,-1.67097 -9.88755,-2.96662 z"
         id="path3794"
         inkscape:connector-curvature="0"
         sodipodi:nodetypes="csssssccc" />
      <path
         style="fill:#000000;stroke:#000000;stroke-width:2;stroke-linecap:butt;stroke-linejoin:round;stroke-miterlimit:4;stroke-opacity:1;stroke-dasharray:none"
         d="m 411.31698,699.86309 c -49.8102,-78.02369 -78.30419,-243.65316 58.48655,-165.26508 1.43718,0.61504 -2.0856,0.67762 -2.72898,0.30382 -135.87891,-78.94554 -100.53198,90.20404 -56.68196,158.17157 28.57143,44.28572 168.57142,262.85714 -94.28572,162.85714 -1.50165,-0.5424 -0.69994,-8.16718 0.90478,-7.547 239.71544,92.64396 144.11553,-70.49676 94.30533,-148.52045 z"
         id="path2985"
         inkscape:connector-curvature="0"
         sodipodi:nodetypes="zcsscsz" />
      <path
         style="fill:#000000;stroke:#000000;stroke-width:2;stroke-linecap:butt;stroke-linejoin:round;stroke-miterlimit:4;stroke-opacity:1;stroke-dasharray:none"
         d="m 699.18299,605.89916 c -3.85252,-54.40181 -114.73182,-53.82168 -156.29061,-54.25384 -1.32856,-0.022 -0.36044,1.50984 0.18681,1.50222 48.39981,-0.67368 152.45649,0.0865 156.59911,52.55961 4.28572,54.28589 -160.71429,118.79483 -152.14286,157.36626 8.57143,38.57142 111.42857,42.85714 151.42857,42.85714 3.57143,0.35714 4.41833,-4.40812 -0.55003,-4.74693 -58.31047,-3.97642 -206.02141,-8.74237 -128.51312,-71.45528 44.36713,-35.89799 132.98622,-71.52329 129.28213,-123.82918 z"
         id="path2989"
         inkscape:connector-curvature="0"
         sodipodi:nodetypes="scssscsss" />
      <path
         style="fill:#000000;stroke:#000000;stroke-width:2;stroke-linecap:butt;stroke-linejoin:round;stroke-miterlimit:4;stroke-opacity:1;stroke-dasharray:none"
         d="m 733.91622,734.95854 c -73.61365,8.33242 -88.58771,-155.09604 -76.90831,-207.20046 -19.51736,87.16418 20.40332,220.49231 77.34839,211.95055 4.16688,-0.75761 3.09545,-5.5077 -0.44008,-4.75009 z"
         id="path2991"
         inkscape:connector-curvature="0"
         sodipodi:nodetypes="cccc" />
      <path
         style="fill:#000000;stroke:#000000;stroke-width:2;stroke-linecap:butt;stroke-linejoin:round;stroke-miterlimit:4;stroke-opacity:1;stroke-dasharray:none"
         d="m 665.67537,508.00792 c 4.13445,-4.23376 5.65909,-16.14927 5.62971,-15.91986 -0.68185,5.32365 -2.02371,10.79795 -5.42022,15.06936 -2.26421,2.88157 -5.8962,3.59134 -7.48624,3.23957 -4.66074,-0.50154 -4.91608,-4.18437 -5.65193,-8.23608 -0.10462,-0.57606 -0.55251,-2.23088 -2.40042,-0.71228 -2.28916,2.55542 -2.32441,6.5932 -0.85636,8.03346 5.2342,5.13508 12.05102,2.75959 16.18546,-1.47417 z"
         id="path3763"
         inkscape:connector-curvature="0"
         sodipodi:nodetypes="zsccscsz" />
      <path
         inkscape:connector-curvature="0"
         id="path3846"
         style="fill:#000000;stroke:#000000;stroke-width:2;stroke-linecap:butt;stroke-linejoin:miter;stroke-miterlimit:4;stroke-opacity:1;stroke-dasharray:none"
         d="m 493.65967,486.07849 c 117.77719,-29.78972 182.70067,302.04509 48.13304,341.8111 -193.81862,57.27524 -172.17339,-310.43722 -48.13304,-341.8111 z m 13.68655,-7.29079 c -115.06127,1.20709 -170.54197,344.38926 -2.66791,357.14286 182.47821,13.8631 117.72918,-358.34995 2.66791,-357.14286 z" />
    </g>
    <path
       sodipodi:nodetypes="cc"
       transform="translate(0,-10.631225)"
       inkscape:connector-curvature="0"
       id="path3153"
       d="m 260,532.99207 c 60,100 160,260 160,330"
       style="fill:none;stroke:none;stroke-width:1px;stroke-linecap:butt;stroke-linejoin:miter;stroke-opacity:1" />
    <g
       id="text3183"
       style="font-size:45px;font-style:normal;font-variant:normal;font-weight:normal;font-stretch:normal;line-height:125%;letter-spacing:0px;word-spacing:0px;fill:#000000;fill-opacity:1;stroke:none;font-family:Iwona;-inkscape-font-specification:Iwona"
       inkscape:transform-center-y="2.2692019"
       inkscape:transform-center-x="1.425589"
       transform="matrix(-0.40176277,-0.91574378,0.91574378,-0.40176277,0,0)">
      <path
         id="path5091"
         style=""
         d="m -767.36465,573.85518 0,-1.35 c -0.855,0.72 -1.845,1.305 -2.97,1.305 -1.66499,0 -1.98,-2.07001 -1.98,-4.005 l 0,-14.625 -3.51,0 0,14.625 c 0,3.01499 1.17001,6.075 3.825,6.075 1.71,0 3.33001,-0.85501 4.635,-2.025 m -4.5,-25.695 c 0,-1.215 -0.99,-2.205 -2.205,-2.205 -1.21499,0 -2.205,0.99 -2.205,2.205 0,1.21499 0.99001,2.205 2.205,2.205 1.215,0 2.205,-0.99001 2.205,-2.205" />
      <path
         id="path5093"
         style=""
         d="m -749.17551,569.67018 c 0,-3.555 -3.78,-5.40001 -7.47,-6.3 -2.15999,-0.54 -4.5,-1.44001 -4.5,-3.555 0,-1.935 1.98001,-3.195 4.14,-3.195 2.385,0 4.77001,0.72 6.75,2.025 l 0,-1.89 c -1.97999,-1.305 -4.365,-2.025 -6.75,-2.025 -3.91499,0 -7.515,2.385 -7.515,6.03 0,3.28499 3.64501,4.815 7.11,5.67 2.385,0.585 4.86,1.845 4.86,4.14 0,2.11499 -2.16,3.42 -4.455,3.42 -2.78999,0 -5.49,-0.67501 -7.875,-2.025 l 0,1.89 c 2.385,1.34999 5.08501,2.025 7.875,2.025 4.05,0 7.83,-2.43001 7.83,-6.21" />
    </g>
    <rect
       transform="matrix(-0.38507619,-0.92288479,0.92288479,-0.38507619,0,0)"
       style="fill:none;stroke:#008080;stroke-width:0.99999994;stroke-miterlimit:4;stroke-opacity:1;stroke-dasharray:3.99999977, 1.99999989, 0.99999997, 1.99999989;stroke-dashoffset:0"
       id="rect4875"
       width="188.108"
       height="109.72966"
       x="-844.39709"
       y="527.99518"
       rx="0"
       ry="0" />
  </g>
  <script
     ns1:version="11.01"
     id="sozi-script">Function.prototype.bind=function(c){var a=Array.prototype.slice.call(arguments,1),b=this;return function(){b.apply(c,a.concat(Array.prototype.slice.call(arguments)))}};var sozi=sozi||{};sozi.Display=function(a){this.controller=a;this.cx=0;this.cy=0;this.width=1;this.height=1;this.rotate=0;this.clip=true};sozi.Display.prototype.svgNs=&quot;http://www.w3.org/2000/svg&quot;;sozi.Display.prototype.onLoad=function(){var b,a=document.createElementNS(this.svgNs,&quot;clipPath&quot;);this.svgRoot=document.documentElement;this.svgRoot.removeAttribute(&quot;viewBox&quot;);this.initialBBox=this.svgRoot.getBBox();this.wrapper=document.createElementNS(this.svgNs,&quot;g&quot;);this.wrapper.setAttribute(&quot;id&quot;,&quot;sozi-wrapper&quot;);while(true){b=this.svgRoot.firstChild;if(!b){break}this.svgRoot.removeChild(b);this.wrapper.appendChild(b)}this.svgRoot.appendChild(this.wrapper);this.clipRect=document.createElementNS(this.svgNs,&quot;rect&quot;);this.clipRect.setAttribute(&quot;id&quot;,&quot;sozi-clip-rect&quot;);a.setAttribute(&quot;id&quot;,&quot;sozi-clip-path&quot;);a.appendChild(this.clipRect);this.svgRoot.appendChild(a);this.svgRoot.setAttribute(&quot;clip-path&quot;,&quot;url(#sozi-clip-path)&quot;);this.svgRoot.setAttribute(&quot;width&quot;,window.innerWidth);this.svgRoot.setAttribute(&quot;height&quot;,window.innerHeight)};sozi.Display.prototype.resize=function(){this.svgRoot.setAttribute(&quot;width&quot;,window.innerWidth);this.svgRoot.setAttribute(&quot;height&quot;,window.innerHeight);this.update()};sozi.Display.prototype.getFrameGeometry=function(){var a={};a.scale=Math.min(window.innerWidth/this.width,window.innerHeight/this.height);a.width=this.width*a.scale;a.height=this.height*a.scale;a.x=(window.innerWidth-a.width)/2;a.y=(window.innerHeight-a.height)/2;return a};sozi.Display.prototype.getElementGeometry=function(d){var j,g,a,k,h,f,i=d.getCTM(),e=Math.sqrt(i.a*i.a+i.b*i.b);if(d.nodeName===&quot;rect&quot;){j=d.x.baseVal.value;g=d.y.baseVal.value;a=d.width.baseVal.value;k=d.height.baseVal.value}else{h=d.getBBox();j=h.x;g=h.y;a=h.width;k=h.height}f=document.documentElement.createSVGPoint();f.x=j+a/2;f.y=g+k/2;f=f.matrixTransform(i);return{cx:f.x,cy:f.y,width:a*e,height:k*e,rotate:Math.atan2(i.b,i.a)*180/Math.PI}};sozi.Display.prototype.getDocumentGeometry=function(){return{cx:this.initialBBox.x+this.initialBBox.width/2,cy:this.initialBBox.y+this.initialBBox.height/2,width:this.initialBBox.width,height:this.initialBBox.height,rotate:0,clip:false}};sozi.Display.prototype.getCurrentGeometry=function(){return{cx:this.cx,cy:this.cy,width:this.width,height:this.height,rotate:this.rotate,clip:this.clip}};sozi.Display.prototype.drag=function(b,a){var c=this.getFrameGeometry(),d=this.rotate*Math.PI/180;this.cx-=(b*Math.cos(d)-a*Math.sin(d))/c.scale;this.cy-=(b*Math.sin(d)+a*Math.cos(d))/c.scale;this.clip=false;if(this.tableOfContentsIsVisible()){this.hideTableOfContents()}this.update()};sozi.Display.prototype.update=function(){var a=this.getFrameGeometry(),c=-this.cx+this.width/2+a.x/a.scale,b=-this.cy+this.height/2+a.y/a.scale;this.wrapper.setAttribute(&quot;transform&quot;,&quot;scale(&quot;+a.scale+&quot;)translate(&quot;+c+&quot;,&quot;+b+&quot;)rotate(&quot;+(-this.rotate)+&quot;,&quot;+this.cx+&quot;,&quot;+this.cy+&quot;)&quot;);this.clipRect.setAttribute(&quot;x&quot;,this.clip?a.x:0);this.clipRect.setAttribute(&quot;y&quot;,this.clip?a.y:0);this.clipRect.setAttribute(&quot;width&quot;,this.clip?a.width:window.innerWidth);this.clipRect.setAttribute(&quot;height&quot;,this.clip?a.height:window.innerHeight)};sozi.Display.prototype.showFrame=function(b){var a;for(a in b.geometry){if(b.geometry.hasOwnProperty(a)){this[a]=b.geometry[a]}}this.update()};sozi.Display.prototype.applyZoomFactor=function(a){this.width/=a;this.height/=a};sozi.Display.prototype.installTableOfContents=function(){var c=Math.floor(window.innerHeight/Math.max((this.controller.frames.length+1),40)),b=document.createElementNS(this.svgNs,&quot;rect&quot;),d=0,a,g,f,e;this.tocGroup=document.createElementNS(this.svgNs,&quot;g&quot;);this.tocGroup.setAttribute(&quot;visibility&quot;,&quot;hidden&quot;);this.tocGroup.appendChild(b);this.svgRoot.appendChild(this.tocGroup);b.setAttribute(&quot;fill&quot;,&quot;#eee&quot;);b.setAttribute(&quot;stroke&quot;,&quot;#888&quot;);b.setAttribute(&quot;x&quot;,&quot;0&quot;);b.setAttribute(&quot;y&quot;,&quot;0&quot;);b.setAttribute(&quot;height&quot;,(this.controller.frames.length+1)*c);for(a=0;a&lt;this.controller.frames.length;a++){g=this.controller.frames[a];f=document.createElementNS(this.svgNs,&quot;text&quot;);f.appendChild(document.createTextNode(g.title));f.setAttribute(&quot;x&quot;,c/2);f.setAttribute(&quot;y&quot;,c*(a+1.3));f.setAttribute(&quot;fill&quot;,&quot;black&quot;);f.setAttribute(&quot;style&quot;,&quot;font-size: &quot;+(c*0.9)+&quot;px;font-family: Verdana, sans-serif&quot;);f.addEventListener(&quot;click&quot;,function(i,h){this.hideTableOfContents();this.controller.moveToFrame(i);h.stopPropagation()}.bind(this,a),false);f.addEventListener(&quot;mouseover&quot;,function(){this.setAttribute(&quot;fill&quot;,&quot;#08c&quot;)},false);f.addEventListener(&quot;mouseout&quot;,function(){this.setAttribute(&quot;fill&quot;,&quot;black&quot;)},false);this.tocGroup.appendChild(f);e=f.getBBox().width;if(e&gt;d){d=e}}b.setAttribute(&quot;width&quot;,d+c)};sozi.Display.prototype.showTableOfContents=function(){this.clipRect.setAttribute(&quot;x&quot;,0);this.clipRect.setAttribute(&quot;y&quot;,0);this.clipRect.setAttribute(&quot;width&quot;,window.innerWidth);this.clipRect.setAttribute(&quot;height&quot;,window.innerHeight);this.tocGroup.setAttribute(&quot;visibility&quot;,&quot;visible&quot;)};sozi.Display.prototype.hideTableOfContents=function(){var a=this.getFrameGeometry();this.tocGroup.setAttribute(&quot;visibility&quot;,&quot;hidden&quot;);this.clipRect.setAttribute(&quot;x&quot;,a.x);this.clipRect.setAttribute(&quot;y&quot;,a.y);this.clipRect.setAttribute(&quot;width&quot;,a.width);this.clipRect.setAttribute(&quot;height&quot;,a.height)};sozi.Display.prototype.tableOfContentsIsVisible=function(){return this.tocGroup.getAttribute(&quot;visibility&quot;)===&quot;visible&quot;};var sozi=sozi||{};sozi.Animator=function(b,a,c){this.timeStepMs=b||40;this.onStep=a;this.onDone=c;this.durationMs=0;this.data={};this.initialTime=0;this.started=false;this.timer=0};sozi.Animator.prototype.start=function(a,b){this.durationMs=a;this.data=b;this.initialTime=Date.now();this.onStep(0,this.data);if(!this.started){this.started=true;this.timer=window.setInterval(this.step.bind(this),this.timeStepMs)}};sozi.Animator.prototype.stop=function(){if(this.started){window.clearInterval(this.timer);this.started=false}};sozi.Animator.prototype.step=function(){var a=Date.now()-this.initialTime;if(a&gt;=this.durationMs){this.stop();this.onStep(1,this.data);this.onDone()}else{this.onStep(a/this.durationMs,this.data)}};var sozi=sozi||{};sozi.Player=function(){this.display=new sozi.Display(this,false);this.animator=new sozi.Animator(40,this.onAnimationStep.bind(this),this.onAnimationDone.bind(this));this.frames=[];this.playing=false;this.waiting=false};sozi.Player.prototype.profiles={linear:function(a){return a},accelerate:function(a){return Math.pow(a,3)},&quot;strong-accelerate&quot;:function(a){return Math.pow(a,5)},decelerate:function(a){return 1-Math.pow(1-a,3)},&quot;strong-decelerate&quot;:function(a){return 1-Math.pow(1-a,5)},&quot;accelerate-decelerate&quot;:function(a){var b=a&lt;=0.5?a:1-a,c=Math.pow(2*b,3)/2;return a&lt;=0.5?c:1-c},&quot;strong-accelerate-decelerate&quot;:function(a){var b=a&lt;=0.5?a:1-a,c=Math.pow(2*b,5)/2;return a&lt;=0.5?c:1-c},&quot;decelerate-accelerate&quot;:function(a){var b=a&lt;=0.5?a:1-a,c=(1-Math.pow(1-2*b,2))/2;return a&lt;=0.5?c:1-c},&quot;strong-decelerate-accelerate&quot;:function(a){var b=a&lt;=0.5?a:1-a,c=(1-Math.pow(1-2*b,3))/2;return a&lt;=0.5?c:1-c}};sozi.Player.prototype.soziNs=&quot;http://sozi.baierouge.fr&quot;;sozi.Player.prototype.dragButton=1;sozi.Player.prototype.defaultDurationMs=500;sozi.Player.prototype.defaultZoomPercent=-10;sozi.Player.prototype.defaultProfile=sozi.Player.prototype.profiles.linear;sozi.Player.prototype.scaleFactor=1.05;sozi.Player.prototype.defaults={title:&quot;Untitled&quot;,sequence:&quot;0&quot;,hide:&quot;true&quot;,clip:&quot;true&quot;,&quot;timeout-enable&quot;:&quot;false&quot;,&quot;timeout-ms&quot;:&quot;5000&quot;,&quot;transition-duration-ms&quot;:&quot;1000&quot;,&quot;transition-zoom-percent&quot;:&quot;0&quot;,&quot;transition-profile&quot;:&quot;linear&quot;};sozi.Player.prototype.onLoad=function(){var a=this.onWheel.bind(this);this.display.onLoad();this.readFrames();this.display.installTableOfContents();this.startFromIndex(this.getFrameIndexFromURL());this.display.svgRoot.addEventListener(&quot;click&quot;,this.onClick.bind(this),false);this.display.svgRoot.addEventListener(&quot;mousedown&quot;,this.onMouseDown.bind(this),false);this.display.svgRoot.addEventListener(&quot;mouseup&quot;,this.onMouseUp.bind(this),false);this.display.svgRoot.addEventListener(&quot;mousemove&quot;,this.onMouseMove.bind(this),false);this.display.svgRoot.addEventListener(&quot;keypress&quot;,this.onKeyPress.bind(this),false);this.display.svgRoot.addEventListener(&quot;keydown&quot;,this.onKeyDown.bind(this),false);window.addEventListener(&quot;hashchange&quot;,this.onHashChange.bind(this),false);window.addEventListener(&quot;resize&quot;,this.display.resize.bind(this.display),false);this.display.svgRoot.addEventListener(&quot;DOMMouseScroll&quot;,a,false);window.onmousewheel=a;this.dragButtonIsDown=false};sozi.Player.prototype.onMouseDown=function(a){if(a.button===0){this.dragButtonIsDown=true;this.dragged=false;this.dragClientX=a.clientX;this.dragClientY=a.clientY}else{if(a.button===1){if(this.display.tableOfContentsIsVisible()){this.display.hideTableOfContents()}else{this.stop();this.display.showTableOfContents()}}}a.stopPropagation()};sozi.Player.prototype.onMouseMove=function(a){if(this.dragButtonIsDown){this.stop();this.dragged=true;this.display.drag(a.clientX-this.dragClientX,a.clientY-this.dragClientY);this.dragClientX=a.clientX;this.dragClientY=a.clientY}a.stopPropagation()};sozi.Player.prototype.onMouseUp=function(a){if(a.button===0){this.dragButtonIsDown=false}a.stopPropagation()};sozi.Player.prototype.onClick=function(a){if(!this.dragged){this.moveToNext()}a.stopPropagation()};sozi.Player.prototype.onWheel=function(a){var b=0;if(!a){a=window.event}if(a.wheelDelta){b=a.wheelDelta;if(window.opera){b=-b}}else{if(a.detail){b=-a.detail}}if(b!==0){this.zoom(b)}a.stopPropagation();a.preventDefault()};sozi.Player.prototype.onKeyPress=function(a){switch(a.charCode){case 43:this.zoom(1);break;case 45:this.zoom(-1);break;case 61:this.moveToCurrent();break;case 70:case 102:this.showAll();break}a.stopPropagation()};sozi.Player.prototype.onKeyDown=function(a){switch(a.keyCode){case 36:this.moveToFirst();break;case 35:this.moveToLast();break;case 33:case 37:case 38:this.moveToPrevious();break;case 34:case 39:case 40:case 13:this.moveToNext();break;case 32:this.moveToNext();break}a.stopPropagation()};sozi.Player.prototype.onHashChange=function(){var a=this.getFrameIndexFromURL();if(a!==this.currentFrameIndex){this.moveToFrame(a)}};sozi.Player.prototype.onAnimationStep=function(c,f){var e=1-c,d=f.profile(c),b=1-d,a,g;for(a in f.initialState){if(f.initialState.hasOwnProperty(a)){if(typeof f.initialState[a]===&quot;number&quot;&amp;&amp;typeof f.finalState[a]===&quot;number&quot;){this.display[a]=f.finalState[a]*d+f.initialState[a]*b}}}if(f.zoomWidth&amp;&amp;f.zoomWidth.k!==0){g=c-f.zoomWidth.ts;this.display.width=f.zoomWidth.k*g*g+f.zoomWidth.ss}if(f.zoomHeight&amp;&amp;f.zoomHeight.k!==0){g=c-f.zoomHeight.ts;this.display.height=f.zoomHeight.k*g*g+f.zoomHeight.ss}this.display.clip=f.finalState.clip;this.display.update()};sozi.Player.prototype.onAnimationDone=function(){if(this.playing){this.waitTimeout()}};sozi.Player.prototype.getFrameIndexFromURL=function(){var a=window.location.hash?parseInt(window.location.hash.slice(1),10)-1:0;if(isNaN(a)||a&lt;0){return 0}else{if(a&gt;=this.frames.length){return this.frames.length-1}else{return a}}};sozi.Player.prototype.readAttribute=function(b,a){var c=b.getAttributeNS(this.soziNs,a);return c===&quot;&quot;?this.defaults[a]:c};sozi.Player.prototype.readFrames=function(){var a=document.getElementsByTagNameNS(this.soziNs,&quot;frame&quot;),c,b,d;for(b=0;b&lt;a.length;b++){c=document.getElementById(a[b].getAttributeNS(this.soziNs,&quot;refid&quot;));if(c){d={geometry:this.display.getElementGeometry(c),title:this.readAttribute(a[b],&quot;title&quot;),sequence:parseInt(this.readAttribute(a[b],&quot;sequence&quot;),10),hide:this.readAttribute(a[b],&quot;hide&quot;)===&quot;true&quot;,timeoutEnable:this.readAttribute(a[b],&quot;timeout-enable&quot;)===&quot;true&quot;,timeoutMs:parseInt(this.readAttribute(a[b],&quot;timeout-ms&quot;),10),transitionDurationMs:parseInt(this.readAttribute(a[b],&quot;transition-duration-ms&quot;),10),transitionZoomPercent:parseInt(this.readAttribute(a[b],&quot;transition-zoom-percent&quot;),10),transitionProfile:this.profiles[this.readAttribute(a[b],&quot;transition-profile&quot;)||&quot;linear&quot;]};if(d.hide){c.setAttribute(&quot;visibility&quot;,&quot;hidden&quot;)}d.geometry.clip=this.readAttribute(a[b],&quot;clip&quot;)===&quot;true&quot;;this.frames.push(d)}}this.frames.sort(function(f,e){return f.sequence-e.sequence})};sozi.Player.prototype.startFromIndex=function(a){this.playing=true;this.waiting=false;this.currentFrameIndex=a;this.display.showFrame(this.frames[this.currentFrameIndex]);this.waitTimeout()};sozi.Player.prototype.stop=function(){this.animator.stop();if(this.waiting){window.clearTimeout(this.nextFrameTimeout);this.waiting=false}this.playing=false};sozi.Player.prototype.waitTimeout=function(){var a;if(this.frames[this.currentFrameIndex].timeoutEnable){this.waiting=true;a=(this.currentFrameIndex+1)%this.frames.length;this.nextFrameTimeout=window.setTimeout(this.moveToFrame.bind(this,a),this.frames[this.currentFrameIndex].timeoutMs)}};sozi.Player.prototype.getZoomData=function(e,m,k){var n={ss:((e&lt;0)?Math.max(m,k):Math.min(m,k))*(100-e)/100,ts:0.5,k:0},i,h,g,f,l,j;if(e!==0){i=m-k;h=m-n.ss;g=k-n.ss;if(i!==0){f=Math.sqrt(h*g);l=(h-f)/i;j=(h+f)/i;n.ts=(l&gt;0&amp;&amp;l&lt;=1)?l:j}n.k=h/n.ts/n.ts}return n};sozi.Player.prototype.moveToFrame=function(c){var b=this.defaultDurationMs,f=this.defaultZoomPercent,d=this.defaultProfile,a,e;if(this.waiting){window.clearTimeout(this.nextFrameTimeout);this.waiting=false}if(c===(this.currentFrameIndex+1)%this.frames.length){b=this.frames[c].transitionDurationMs;f=this.frames[c].transitionZoomPercent;d=this.frames[c].transitionProfile}if(this.display.tableOfContentsIsVisible()){this.display.hideTableOfContents()}if(f!==0){a=this.getZoomData(f,this.display.width,this.frames[c].geometry.width);e=this.getZoomData(f,this.display.height,this.frames[c].geometry.height)}this.playing=true;this.currentFrameIndex=c;this.animator.start(b,{initialState:this.display.getCurrentGeometry(),finalState:this.frames[this.currentFrameIndex].geometry,profile:d,zoomWidth:a,zoomHeight:e});window.location.hash=&quot;#&quot;+(c+1)};sozi.Player.prototype.moveToFirst=function(){this.moveToFrame(0)};sozi.Player.prototype.moveToPrevious=function(){var a=this.currentFrameIndex,b;for(a--;a&gt;=0;a--){b=this.frames[a];if(!b.timeoutEnable||b.timeoutMs!==0){this.moveToFrame(a);break}}};sozi.Player.prototype.moveToNext=function(){if(this.currentFrameIndex&lt;this.frames.length-1||this.frames[this.currentFrameIndex].timeoutEnable){this.moveToFrame((this.currentFrameIndex+1)%this.frames.length)}};sozi.Player.prototype.moveToLast=function(){this.moveToFrame(this.frames.length-1)};sozi.Player.prototype.moveToCurrent=function(){this.moveToFrame(this.currentFrameIndex)};sozi.Player.prototype.showAll=function(){this.stop();if(this.display.tableOfContentsIsVisible()){this.display.hideTableOfContents()}this.animator.start(this.defaultDurationMs,{initialState:this.display.getCurrentGeometry(),finalState:this.display.getDocumentGeometry(),profile:this.defaultProfile})};sozi.Player.prototype.zoom=function(a){this.stop();if(this.display.tableOfContentsIsVisible()){this.display.hideTableOfContents()}this.display.applyZoomFactor(a&gt;0?this.scaleFactor:1/this.scaleFactor);this.display.clip=false;this.display.update()};window.addEventListener(&quot;load&quot;,sozi.Player.prototype.onLoad.bind(new sozi.Player()),false);</script>
  <ns1:frame
     ns1:transition-profile="accelerate-decelerate"
     ns1:transition-duration-ms="1000"
     ns1:timeout-ms="1500"
     ns1:timeout-enable="true"
     ns1:hide="true"
     ns1:sequence="1"
     ns1:title="This"
     ns1:refid="rect2993" />
  <ns1:frame
     ns1:transition-profile="linear"
     ns1:transition-duration-ms="0"
     ns1:timeout-ms="1500"
     ns1:timeout-enable="true"
     ns1:hide="true"
     ns1:sequence="2"
     ns1:title="is"
     ns1:refid="rect3765" />
  <ns1:frame
     ns1:transition-profile="linear"
     ns1:transition-duration-ms="0"
     ns1:timeout-ms="1500"
     ns1:timeout-enable="true"
     ns1:hide="true"
     ns1:sequence="3"
     ns1:title="not"
     ns1:refid="rect3767" />
  <ns1:frame
     ns1:transition-profile="linear"
     ns1:transition-duration-ms="0"
     ns1:timeout-ms="1500"
     ns1:timeout-enable="true"
     ns1:hide="true"
     ns1:sequence="4"
     ns1:title="a"
     ns1:refid="rect3769" />
  <ns1:frame
     ns1:transition-profile="linear"
     ns1:transition-duration-ms="0"
     ns1:timeout-ms="2000"
     ns1:timeout-enable="true"
     ns1:hide="true"
     ns1:sequence="5"
     ns1:title="slideshow"
     ns1:refid="rect3771" />
  <ns1:frame
     ns1:transition-profile="accelerate-decelerate"
     ns1:transition-duration-ms="1000"
     ns1:timeout-ms="1500"
     ns1:timeout-enable="true"
     ns1:hide="true"
     ns1:sequence="7"
     ns1:title="This"
     ns1:refid="rect3773" />
  <ns1:frame
     ns1:transition-profile="accelerate-decelerate"
     ns1:transition-duration-ms="1000"
     ns1:timeout-ms="5000"
     ns1:timeout-enable="true"
     ns1:hide="true"
     ns1:sequence="9"
     ns1:title="Sozi"
     ns1:refid="rect3787" />
  <ns1:frame
     ns1:transition-profile="accelerate-decelerate"
     ns1:transition-duration-ms="1000"
     ns1:timeout-ms="1000"
     ns1:timeout-enable="true"
     ns1:hide="true"
     ns1:sequence="6"
     ns1:title="This is not a slideshow"
     ns1:refid="rect4308" />
  <ns1:frame
     ns1:transition-profile="accelerate-decelerate"
     ns1:transition-duration-ms="1000"
     ns1:timeout-ms="1500"
     ns1:timeout-enable="true"
     ns1:hide="true"
     ns1:sequence="8"
     ns1:title="is"
     ns1:refid="rect4875" />
</svg>
