<?xml version="1.0" encoding="UTF-8" standalone="no"?>
<!-- Created with Inkscape (http://www.inkscape.org/) -->

<svg
   xmlns:dc="http://purl.org/dc/elements/1.1/"
   xmlns:cc="http://creativecommons.org/ns#"
   xmlns:rdf="http://www.w3.org/1999/02/22-rdf-syntax-ns#"
   xmlns:svg="http://www.w3.org/2000/svg"
   xmlns="http://www.w3.org/2000/svg"
   xmlns:xlink="http://www.w3.org/1999/xlink"
   xmlns:sodipodi="http://sodipodi.sourceforge.net/DTD/sodipodi-0.dtd"
   xmlns:inkscape="http://www.inkscape.org/namespaces/inkscape"
   width="1062.9921"
   height="1062.9921"
   id="svg2"
   version="1.1"
   inkscape:version="0.91 r"
   sodipodi:docname="transition-path.svg">
  <title
     id="title3377">Sozi: transition path</title>
  <sodipodi:namedview
     id="base"
     pagecolor="#ffffff"
     bordercolor="#666666"
     borderopacity="1.0"
     inkscape:pageopacity="0.0"
     inkscape:pageshadow="2"
     inkscape:zoom="0.7"
     inkscape:cx="480.73761"
     inkscape:cy="805.61303"
     inkscape:document-units="px"
     inkscape:current-layer="svg2"
     showgrid="false"
     inkscape:window-width="1360"
     inkscape:window-height="713"
     inkscape:window-x="0"
     inkscape:window-y="30"
     inkscape:window-maximized="1"
     units="mm"
     showguides="true"
     inkscape:guide-bbox="true">
    <inkscape:grid
       snapvisiblegridlinesonly="true"
       enabled="true"
       visible="true"
       empspacing="5"
       type="xygrid"
       id="grid2997" />
  </sodipodi:namedview>
  <defs
     id="defs4">
    <linearGradient
       id="linearGradient4333">
      <stop
         id="stop4335"
         offset="0"
         style="stop-color:#008000;stop-opacity:1;" />
      <stop
         id="stop4337"
         offset="1"
         style="stop-color:#004800;stop-opacity:1;" />
    </linearGradient>
    <linearGradient
       id="linearGradient4269">
      <stop
         id="stop4271"
         offset="0"
         style="stop-color:#3f2311;stop-opacity:1;" />
      <stop
         style="stop-color:#5e361a;stop-opacity:1;"
         offset="0.5"
         id="stop4277" />
      <stop
         id="stop4273"
         offset="1"
         style="stop-color:#3f2411;stop-opacity:1;" />
    </linearGradient>
    <linearGradient
       id="linearGradient3769">
      <stop
         style="stop-color:#69a5ff;stop-opacity:1;"
         offset="0"
         id="stop3771" />
      <stop
         style="stop-color:#001432;stop-opacity:1;"
         offset="1"
         id="stop3773" />
    </linearGradient>
    <filter
       color-interpolation-filters="sRGB"
       inkscape:collect="always"
       id="filter3787"
       x="-0.13191488"
       width="1.2638298"
       y="-0.13191488"
       height="1.2638298">
      <feGaussianBlur
         inkscape:collect="always"
         stdDeviation="1.6489362"
         id="feGaussianBlur3789" />
    </filter>
    <linearGradient
       inkscape:collect="always"
       xlink:href="#linearGradient3769"
       id="linearGradient4057"
       gradientUnits="userSpaceOnUse"
       x1="373.01944"
       y1="328.45618"
       x2="544.43646"
       y2="382.02667" />
    <filter
       color-interpolation-filters="sRGB"
       id="filter4261"
       inkscape:collect="always">
      <feGaussianBlur
         id="feGaussianBlur4263"
         stdDeviation="0.46057773"
         inkscape:collect="always" />
    </filter>
    <linearGradient
       gradientTransform="translate(115.71429,-534.72965)"
       gradientUnits="userSpaceOnUse"
       y2="749.9184"
       x2="445.01538"
       y1="749.9184"
       x1="418"
       id="linearGradient4275"
       xlink:href="#linearGradient4269"
       inkscape:collect="always" />
    <filter
       color-interpolation-filters="sRGB"
       height="1.4502336"
       y="-0.2251168"
       width="1.0608914"
       x="-0.030445689"
       id="filter4283"
       inkscape:collect="always">
      <feGaussianBlur
         id="feGaussianBlur4285"
         stdDeviation="1.0269308"
         inkscape:collect="always" />
    </filter>
    <filter
       color-interpolation-filters="sRGB"
       height="1.2125103"
       y="-0.10625522"
       width="1.2130221"
       x="-0.10651104"
       id="filter4311"
       inkscape:collect="always">
      <feGaussianBlur
         id="feGaussianBlur4313"
         stdDeviation="0.93102136"
         inkscape:collect="always" />
    </filter>
    <radialGradient
       gradientUnits="userSpaceOnUse"
       gradientTransform="matrix(1.0730919e-6,1.0822173,-1.5632029,1.5681795e-6,1654.3675,-293.40302)"
       r="41.581299"
       fy="709.2193"
       fx="421.38898"
       cy="709.2193"
       cx="421.38898"
       id="radialGradient4341"
       xlink:href="#linearGradient4333"
       inkscape:collect="always" />
    <filter
       id="filter7544"
       inkscape:collect="always">
      <feGaussianBlur
         id="feGaussianBlur7546"
         stdDeviation="0.53035713"
         inkscape:collect="always" />
    </filter>
  </defs>
  <metadata
     id="metadata7">
    <rdf:RDF>
      <cc:Work
         rdf:about="">
        <dc:format>image/svg+xml</dc:format>
        <dc:type
           rdf:resource="http://purl.org/dc/dcmitype/StillImage" />
        <dc:title>Sozi: transition path</dc:title>
        <dc:date>2015-05-11</dc:date>
        <dc:creator>
          <cc:Agent>
            <dc:title>Guillaume Savaton</dc:title>
          </cc:Agent>
        </dc:creator>
        <cc:license
           rdf:resource="http://creativecommons.org/licenses/by-sa/3.0/" />
      </cc:Work>
      <cc:License
         rdf:about="http://creativecommons.org/licenses/by-sa/3.0/">
        <cc:permits
           rdf:resource="http://creativecommons.org/ns#Reproduction" />
        <cc:permits
           rdf:resource="http://creativecommons.org/ns#Distribution" />
        <cc:requires
           rdf:resource="http://creativecommons.org/ns#Notice" />
        <cc:requires
           rdf:resource="http://creativecommons.org/ns#Attribution" />
        <cc:permits
           rdf:resource="http://creativecommons.org/ns#DerivativeWorks" />
        <cc:requires
           rdf:resource="http://creativecommons.org/ns#ShareAlike" />
      </cc:License>
    </rdf:RDF>
  </metadata>
  <g
     style="display:inline"
     transform="translate(0,10.629915)"
     inkscape:label="Main"
     id="layer3"
     inkscape:groupmode="layer">
    <path
       sodipodi:type="arc"
       style="display:inline;fill:url(#linearGradient4057);fill-opacity:1;fill-rule:nonzero;stroke:none"
       id="path2999"
       sodipodi:cx="450"
       sodipodi:cy="352.36218"
       sodipodi:rx="130"
       sodipodi:ry="130"
       d="m 580,352.36218 a 130,130 0 0 1 -130,130 130,130 0 0 1 -130,-130 130,130 0 0 1 130,-130 130,130 0 0 1 130,130 z"
       transform="matrix(-2.1607043,2.7603215,-2.7603215,-2.1607043,2491.3785,-12.003524)" />
    <path
       sodipodi:type="arc"
       style="fill:#ffff37;fill-opacity:0.99610895;fill-rule:nonzero;stroke:none;display:inline;filter:url(#filter3787)"
       id="path3777"
       sodipodi:cx="235"
       sodipodi:cy="307.36218"
       sodipodi:rx="15"
       sodipodi:ry="15"
       d="m 250,307.36218 a 15,15 0 0 1 -15,15 15,15 0 0 1 -15,-15 15,15 0 0 1 15,-15 15,15 0 0 1 15,15 z"
       transform="matrix(2.1437741e-4,-0.99999998,0.99999998,2.1437741e-4,503.44137,415.43914)" />
    <path
       style="fill:#f9f9f9;fill-opacity:0.99610895;fill-rule:nonzero;stroke:none;display:inline;filter:url(#filter3787)"
       d="m 467.96875,271.92468 c -2.60503,2.69822 -4.21875,6.39075 -4.21875,10.4375 0,8.28427 6.71573,15 15,15 8.28427,0 15,-6.71573 15,-15 0,-0.6577 -0.0429,-1.30215 -0.125,-1.9375 -0.89161,6.73236 -6.64899,11.9375 -13.625,11.9375 -7.59391,0 -13.75,-6.15609 -13.75,-13.75 0,-2.42323 0.61837,-4.7104 1.71875,-6.6875 z"
       id="path3886"
       inkscape:connector-curvature="0"
       transform="matrix(0.81490412,0.57959578,-0.57959578,0.81490412,67.979815,-295.96146)" />
    <path
       inkscape:transform-center-y="-0.056323061"
       inkscape:transform-center-x="0.19967991"
       d="m 235,397.36218 -5.41301,-7.51462 -7.55247,5.36008 5.47412,-7.47023 -7.43158,-5.52647 8.79621,2.89777 2.9595,-8.77562 -0.0378,9.26114 9.26065,0.10284 -8.81955,2.82593 z"
       inkscape:randomized="0"
       inkscape:rounded="0"
       inkscape:flatsided="false"
       sodipodi:arg2="1.7354672"
       sodipodi:arg1="1.1071487"
       sodipodi:r2="2.5194552"
       sodipodi:r1="11.18034"
       sodipodi:cy="387.36218"
       sodipodi:cx="230"
       sodipodi:sides="5"
       id="path4287"
       style="fill:#ffffff;fill-opacity:1;fill-rule:nonzero;stroke:none;display:inline;filter:url(#filter4311)"
       sodipodi:type="star"
       transform="matrix(0.21804012,-0.09482083,0.09482083,0.21804012,187.79283,237.89482)" />
    <path
       transform="matrix(0.22938431,0.06257255,-0.06257255,0.22938431,258.28873,185.09804)"
       sodipodi:type="star"
       style="fill:#ffffff;fill-opacity:1;fill-rule:nonzero;stroke:none;display:inline;filter:url(#filter4311)"
       id="path4315"
       sodipodi:sides="5"
       sodipodi:cx="230"
       sodipodi:cy="387.36218"
       sodipodi:r1="11.18034"
       sodipodi:r2="2.5194552"
       sodipodi:arg1="1.1071487"
       sodipodi:arg2="1.7354672"
       inkscape:flatsided="false"
       inkscape:rounded="0"
       inkscape:randomized="0"
       d="m 235,397.36218 -5.41301,-7.51462 -7.55247,5.36008 5.47412,-7.47023 -7.43158,-5.52647 8.79621,2.89777 2.9595,-8.77562 -0.0378,9.26114 9.26065,0.10284 -8.81955,2.82593 z"
       inkscape:transform-center-x="-0.16105693"
       inkscape:transform-center-y="0.095743664" />
    <path
       inkscape:transform-center-y="0.20884381"
       inkscape:transform-center-x="-0.046873532"
       d="m 235,397.36218 -5.41301,-7.51462 -7.55247,5.36008 5.47412,-7.47023 -7.43158,-5.52647 8.79621,2.89777 2.9595,-8.77562 -0.0378,9.26114 9.26065,0.10284 -8.81955,2.82593 z"
       inkscape:randomized="0"
       inkscape:rounded="0"
       inkscape:flatsided="false"
       sodipodi:arg2="1.7354672"
       sodipodi:arg1="1.1071487"
       sodipodi:r2="2.5194552"
       sodipodi:r1="11.18034"
       sodipodi:cy="387.36218"
       sodipodi:cx="230"
       sodipodi:sides="5"
       id="path4317"
       style="fill:#ffffff;fill-opacity:1;fill-rule:nonzero;stroke:none;display:inline;filter:url(#filter4311)"
       sodipodi:type="star"
       transform="matrix(-0.02193682,0.23675148,-0.23675148,-0.02193682,403.56292,247.38917)" />
    <path
       transform="matrix(0.21809405,-0.09469674,0.09469674,0.21809405,182.75144,181.44784)"
       sodipodi:type="star"
       style="fill:#ffffff;fill-opacity:0.75875483;fill-rule:nonzero;stroke:none;display:inline;filter:url(#filter4311)"
       id="path4319"
       sodipodi:sides="5"
       sodipodi:cx="230"
       sodipodi:cy="387.36218"
       sodipodi:r1="11.18034"
       sodipodi:r2="2.5194552"
       sodipodi:arg1="1.1071487"
       sodipodi:arg2="1.7354672"
       inkscape:flatsided="false"
       inkscape:rounded="0"
       inkscape:randomized="0"
       d="m 235,397.36218 -5.41301,-7.51462 -7.55247,5.36008 5.47412,-7.47023 -7.43158,-5.52647 8.79621,2.89777 2.9595,-8.77562 -0.0378,9.26114 9.26065,0.10284 -8.81955,2.82593 z"
       inkscape:transform-center-x="0.19922032"
       inkscape:transform-center-y="-0.05678827" />
    <path
       inkscape:transform-center-y="0.24152449"
       inkscape:transform-center-x="-0.012921211"
       d="m 235,397.36218 -5.41301,-7.51462 -7.55247,5.36008 5.47412,-7.47023 -7.43158,-5.52647 8.79621,2.89777 2.9595,-8.77562 -0.0378,9.26114 9.26065,0.10284 -8.81955,2.82593 z"
       inkscape:randomized="0"
       inkscape:rounded="0"
       inkscape:flatsided="false"
       sodipodi:arg2="1.7354672"
       sodipodi:arg1="1.1071487"
       sodipodi:r2="2.5194552"
       sodipodi:r1="11.18034"
       sodipodi:cy="387.36218"
       sodipodi:cx="230"
       sodipodi:sides="5"
       id="path4321"
       style="fill:#ffffff;fill-opacity:0.77431904;fill-rule:nonzero;stroke:none;display:inline;filter:url(#filter4311)"
       sodipodi:type="star"
       transform="matrix(0.21431093,0.10297238,-0.10297238,0.21431093,288.09966,151.76037)" />
    <path
       transform="matrix(0.03492444,-0.23518667,0.23518667,0.03492444,222.56896,323.2127)"
       sodipodi:type="star"
       style="fill:#ffffff;fill-opacity:1;fill-rule:nonzero;stroke:none;display:inline;filter:url(#filter4311)"
       id="path4323"
       sodipodi:sides="5"
       sodipodi:cx="230"
       sodipodi:cy="387.36218"
       sodipodi:r1="11.18034"
       sodipodi:r2="2.5194552"
       sodipodi:arg1="1.1071487"
       sodipodi:arg2="1.7354672"
       inkscape:flatsided="false"
       inkscape:rounded="0"
       inkscape:randomized="0"
       d="m 235,397.36218 -5.41301,-7.51462 -7.55247,5.36008 5.47412,-7.47023 -7.43158,-5.52647 8.79621,2.89777 2.9595,-8.77562 -0.0378,9.26114 9.26065,0.10284 -8.81955,2.82593 z"
       inkscape:transform-center-x="0.0016998462"
       inkscape:transform-center-y="-0.25222733" />
    <path
       inkscape:transform-center-y="-0.0059216965"
       inkscape:transform-center-x="0.24821726"
       d="m 235,397.36218 -5.41301,-7.51462 -7.55247,5.36008 5.47412,-7.47023 -7.43158,-5.52647 8.79621,2.89777 2.9595,-8.77562 -0.0378,9.26114 9.26065,0.10284 -8.81955,2.82593 z"
       inkscape:randomized="0"
       inkscape:rounded="0"
       inkscape:flatsided="false"
       sodipodi:arg2="1.7354672"
       sodipodi:arg1="1.1071487"
       sodipodi:r2="2.5194552"
       sodipodi:r1="11.18034"
       sodipodi:cy="387.36218"
       sodipodi:cx="230"
       sodipodi:sides="5"
       id="path4325"
       style="fill:#ffffff;fill-opacity:1;fill-rule:nonzero;stroke:none;display:inline;filter:url(#filter4311)"
       sodipodi:type="star"
       transform="matrix(0.16819019,0.16806114,-0.16806114,0.16819019,363.22566,194.53995)" />
    <path
       transform="matrix(0.23776561,0,0,0.23776561,222.81748,176.35857)"
       sodipodi:type="star"
       style="fill:#ffffff;fill-opacity:1;fill-rule:nonzero;stroke:none;display:inline;filter:url(#filter4311)"
       id="path4327"
       sodipodi:sides="5"
       sodipodi:cx="230"
       sodipodi:cy="387.36218"
       sodipodi:r1="11.18034"
       sodipodi:r2="2.5194552"
       sodipodi:arg1="1.1071487"
       sodipodi:arg2="1.7354672"
       inkscape:flatsided="false"
       inkscape:rounded="0"
       inkscape:randomized="0"
       d="m 235,397.36218 -5.41301,-7.51462 -7.55247,5.36008 5.47412,-7.47023 -7.43158,-5.52647 8.79621,2.89777 2.9595,-8.77562 -0.0378,9.26114 9.26065,0.10284 -8.81955,2.82593 z"
       inkscape:transform-center-x="-0.13465706"
       inkscape:transform-center-y="-0.1223386" />
    <path
       inkscape:transform-center-y="-0.05678827"
       inkscape:transform-center-x="0.19922032"
       d="m 235,397.36218 -5.41301,-7.51462 -7.55247,5.36008 5.47412,-7.47023 -7.43158,-5.52647 8.79621,2.89777 2.9595,-8.77562 -0.0378,9.26114 9.26065,0.10284 -8.81955,2.82593 z"
       inkscape:randomized="0"
       inkscape:rounded="0"
       inkscape:flatsided="false"
       sodipodi:arg2="1.7354672"
       sodipodi:arg1="1.1071487"
       sodipodi:r2="2.5194552"
       sodipodi:r1="11.18034"
       sodipodi:cy="387.36218"
       sodipodi:cx="230"
       sodipodi:sides="5"
       id="path4329"
       style="fill:#ffffff;fill-opacity:0.55252913;fill-rule:nonzero;stroke:none;display:inline;filter:url(#filter4311)"
       sodipodi:type="star"
       transform="matrix(0.21809405,-0.09469674,0.09469674,0.21809405,185.16804,115.77859)" />
    <path
       transform="matrix(0.21431093,0.10297238,-0.10297238,0.21431093,307.26502,131.41863)"
       sodipodi:type="star"
       style="fill:#ffffff;fill-opacity:0.44357976;fill-rule:nonzero;stroke:none;display:inline;filter:url(#filter4311)"
       id="path4331"
       sodipodi:sides="5"
       sodipodi:cx="230"
       sodipodi:cy="387.36218"
       sodipodi:r1="11.18034"
       sodipodi:r2="2.5194552"
       sodipodi:arg1="1.1071487"
       sodipodi:arg2="1.7354672"
       inkscape:flatsided="false"
       inkscape:rounded="0"
       inkscape:randomized="0"
       d="m 235,397.36218 -5.41301,-7.51462 -7.55247,5.36008 5.47412,-7.47023 -7.43158,-5.52647 8.79621,2.89777 2.9595,-8.77562 -0.0378,9.26114 9.26065,0.10284 -8.81955,2.82593 z"
       inkscape:transform-center-x="-0.012921211"
       inkscape:transform-center-y="0.24152449" />
    <path
       transform="matrix(2.2675013,0,0,2.2675013,-445.60316,-369.68091)"
       d="M 543.57143,369.77777 A 106.07143,106.07143 0 0 1 437.5,475.8492 106.07143,106.07143 0 0 1 331.42857,369.77777 106.07143,106.07143 0 0 1 437.5,263.70634 106.07143,106.07143 0 0 1 543.57143,369.77777 Z"
       sodipodi:ry="106.07143"
       sodipodi:rx="106.07143"
       sodipodi:cy="369.77777"
       sodipodi:cx="437.5"
       id="path21119"
       style="fill:#008000;fill-opacity:1;stroke:none;display:inline;filter:url(#filter7544)"
       sodipodi:type="arc" />
    <rect
       transform="matrix(0.46427477,-0.88569122,0.88569122,0.46427477,0,0)"
       inkscape:label="#rect4059"
       style="fill:none;stroke:#ff0000;stroke-width:1.33195019;stroke-linecap:round;stroke-linejoin:round;stroke-miterlimit:4;stroke-opacity:1;stroke-dasharray:none;stroke-dashoffset:0;display:inline"
       id="rect-night"
       width="319.66806"
       height="239.75104"
       x="-321.14838"
       y="279.64841" />
    <rect
       transform="matrix(0.52167876,0.853142,-0.853142,0.52167876,0,0)"
       y="-641.97443"
       x="523.87573"
       height="239.75104"
       width="319.66806"
       id="rect-day"
       style="fill:none;stroke:#ff0000;stroke-width:1.33195019;stroke-linecap:round;stroke-linejoin:round;stroke-miterlimit:4;stroke-opacity:1;stroke-dasharray:none;stroke-dashoffset:0;display:inline"
       inkscape:label="#rect4059" />
    <path
       style="fill:url(#radialGradient4341);fill-opacity:1;stroke:none;display:inline;filter:url(#filter4261)"
       d="m 519.46429,173.81253 c 0,0 -10.44867,-6.80659 -15,6.18 -2.57765,7.35499 7.5,12.36 7.5,12.36 0,0 16.33668,5.5148 26.25,6.18 0,6.18 31.5,4.944 37.5,-2.472 15.75,-4.944 7.5,-16.068 3.75,-16.068 0,0 3.79009,-13.07541 -15,-18.54 -12.75,-3.708 -18.75,6.18 -18.75,6.18 0,0 -18.75,-6.18 -26.25,6.18 z"
       id="path4199"
       inkscape:connector-curvature="0"
       sodipodi:nodetypes="csccccscc" />
    <path
       transform="matrix(1.2484861,0,0,-1.6996741,8.8955356,1571.3174)"
       sodipodi:nodetypes="csccccscc"
       inkscape:connector-curvature="0"
       id="path4203"
       d="m 405,777.97818 c 0,0 -10.44867,-1.77985 -15,1.616 -2.57765,1.92325 7.5,3.232 7.5,3.232 0,0 16.33668,1.44206 26.25,1.616 0,1.616 31.5,1.2928 37.5,-0.6464 15.75,-1.2928 7.5,-4.2016 3.75,-4.2016 0,0 3.79009,-3.41907 -15,-4.848 -12.75,-0.9696 -18.75,1.616 -18.75,1.616 0,0 -18.75,-1.616 -26.25,1.616 z"
       style="fill:#000000;fill-opacity:0.50194576;stroke:none;display:inline;filter:url(#filter4283)" />
    <path
       sodipodi:nodetypes="sscccccscssss"
       inkscape:connector-curvature="0"
       id="path4201"
       d="m 542.71429,233.63253 c 0.43769,-5.25225 0,-5.98078 0,-32 0,-6 -4,-15 -9,-19 0,0 1,1 3,0 0,0 6,10 9,10 3,0 4,-5 4,-5 0,0 0,1 3,0 -1,2 -4,3 -4,10 0,27 2,35 2,35 1,5 10.44721,9.10557 10,10 -1,2 -7.7889,-3.60555 -15,0 0,0 -9,6 -10,5 -1,-1 6,-1.99999 7,-14 z"
       style="fill:url(#linearGradient4275);fill-opacity:1;stroke:none;display:inline" />
    <path
       inkscape:label="#path7548"
       sodipodi:nodetypes="cc"
       transform="translate(0,-10.629915)"
       inkscape:connector-curvature="0"
       id="path-night-to-day"
       d="m 282.14285,336.56349 c 108.57144,-204.28571 405.71429,-203.57142 525,-4.28571"
       style="fill:none;stroke:#ff0000;stroke-width:1px;stroke-linecap:butt;stroke-linejoin:miter;stroke-opacity:1" />
  </g>
</svg>
