<?xml version="1.0" encoding="UTF-8" standalone="no"?>
<!-- Created with Inkscape (http://www.inkscape.org/) -->

<svg
   xmlns:dc="http://purl.org/dc/elements/1.1/"
   xmlns:cc="http://creativecommons.org/ns#"
   xmlns:rdf="http://www.w3.org/1999/02/22-rdf-syntax-ns#"
   xmlns:svg="http://www.w3.org/2000/svg"
   xmlns="http://www.w3.org/2000/svg"
   xmlns:xlink="http://www.w3.org/1999/xlink"
   xmlns:sodipodi="http://sodipodi.sourceforge.net/DTD/sodipodi-0.dtd"
   xmlns:inkscape="http://www.inkscape.org/namespaces/inkscape"
   width="1062.9921"
   height="1062.9921"
   id="svg2"
   version="1.1"
   inkscape:version="0.91 r"
   sodipodi:docname="using-layers.svg">
  <sodipodi:namedview
     id="base"
     pagecolor="#ffffff"
     bordercolor="#666666"
     borderopacity="1.0"
     inkscape:pageopacity="0.0"
     inkscape:pageshadow="2"
     inkscape:zoom="0.7"
     inkscape:cx="497.67681"
     inkscape:cy="318.33664"
     inkscape:document-units="px"
     inkscape:current-layer="layer6"
     showgrid="false"
     inkscape:window-width="1360"
     inkscape:window-height="713"
     inkscape:window-x="0"
     inkscape:window-y="30"
     inkscape:window-maximized="1"
     units="mm">
    <inkscape:grid
       id="grid2997"
       type="xygrid"
       empspacing="5"
       visible="true"
       enabled="true"
       snapvisiblegridlinesonly="true" />
  </sodipodi:namedview>
  <defs
     id="defs4">
    <linearGradient
       id="linearGradient4333">
      <stop
         style="stop-color:#008000;stop-opacity:1;"
         offset="0"
         id="stop4335" />
      <stop
         style="stop-color:#004800;stop-opacity:1;"
         offset="1"
         id="stop4337" />
    </linearGradient>
    <linearGradient
       id="linearGradient4269">
      <stop
         style="stop-color:#3f2311;stop-opacity:1;"
         offset="0"
         id="stop4271" />
      <stop
         id="stop4277"
         offset="0.5"
         style="stop-color:#5e361a;stop-opacity:1;" />
      <stop
         style="stop-color:#3f2411;stop-opacity:1;"
         offset="1"
         id="stop4273" />
    </linearGradient>
    <linearGradient
       id="linearGradient3769">
      <stop
         id="stop3771"
         offset="0"
         style="stop-color:#69a5ff;stop-opacity:1;" />
      <stop
         id="stop3773"
         offset="1"
         style="stop-color:#001432;stop-opacity:1;" />
    </linearGradient>
    <filter
       height="1.2638298"
       y="-0.13191488"
       width="1.2638298"
       x="-0.13191488"
       id="filter3787"
       inkscape:collect="always"
       color-interpolation-filters="sRGB">
      <feGaussianBlur
         id="feGaussianBlur3789"
         stdDeviation="1.6489362"
         inkscape:collect="always" />
    </filter>
    <linearGradient
       y2="382.02667"
       x2="544.43646"
       y1="328.45618"
       x1="373.01944"
       gradientUnits="userSpaceOnUse"
       id="linearGradient4057"
       xlink:href="#linearGradient3769"
       inkscape:collect="always" />
    <filter
       inkscape:collect="always"
       id="filter4261"
       color-interpolation-filters="sRGB">
      <feGaussianBlur
         inkscape:collect="always"
         stdDeviation="0.46057773"
         id="feGaussianBlur4263" />
    </filter>
    <filter
       inkscape:collect="always"
       id="filter4265"
       color-interpolation-filters="sRGB">
      <feGaussianBlur
         inkscape:collect="always"
         stdDeviation="0.89095451"
         id="feGaussianBlur4267" />
    </filter>
    <linearGradient
       inkscape:collect="always"
       xlink:href="#linearGradient4269"
       id="linearGradient4275"
       x1="418"
       y1="749.9184"
       x2="445.01538"
       y2="749.9184"
       gradientUnits="userSpaceOnUse" />
    <filter
       inkscape:collect="always"
       id="filter4283"
       x="-0.030445689"
       width="1.0608914"
       y="-0.2251168"
       height="1.4502336"
       color-interpolation-filters="sRGB">
      <feGaussianBlur
         inkscape:collect="always"
         stdDeviation="1.0269308"
         id="feGaussianBlur4285" />
    </filter>
    <filter
       inkscape:collect="always"
       id="filter4311"
       x="-0.10651104"
       width="1.2130221"
       y="-0.10625522"
       height="1.2125103"
       color-interpolation-filters="sRGB">
      <feGaussianBlur
         inkscape:collect="always"
         stdDeviation="0.93102136"
         id="feGaussianBlur4313" />
    </filter>
    <radialGradient
       inkscape:collect="always"
       xlink:href="#linearGradient4333"
       id="radialGradient4341"
       cx="421.38898"
       cy="709.2193"
       fx="421.38898"
       fy="709.2193"
       r="41.581299"
       gradientTransform="matrix(1.0730919e-6,1.0822173,-1.5632029,1.5681795e-6,1538.6532,241.32663)"
       gradientUnits="userSpaceOnUse" />
  </defs>
  <metadata
     id="metadata7">
    <rdf:RDF>
      <cc:Work
         rdf:about="">
        <dc:format>image/svg+xml</dc:format>
        <dc:type
           rdf:resource="http://purl.org/dc/dcmitype/StillImage" />
        <dc:title />
      </cc:Work>
    </rdf:RDF>
  </metadata>
  <g
     inkscape:label="Sky"
     id="layer2"
     inkscape:groupmode="layer"
     transform="translate(0,10.629915)"
     style="display:inline">
    <circle
       transform="matrix(-1.2090695,1.5445985,-1.5445985,-1.2090695,1478.3394,43.323169)"
       id="path2999"
       style="fill:url(#linearGradient4057);fill-opacity:1;fill-rule:nonzero;stroke:none"
       cx="450"
       cy="352.36218"
       r="130" />
    <circle
       transform="matrix(2.1437741e-4,-0.99999998,0.99999998,2.1437741e-4,0.58422918,408.29629)"
       id="path3777"
       style="fill:#ffff37;fill-opacity:0.99610895;fill-rule:nonzero;stroke:none;filter:url(#filter3787)"
       cx="235"
       cy="307.36218"
       r="15" />
    <rect
       transform="matrix(0.86619852,-0.49970004,0.49970004,0.86619852,0,0)"
       y="285.45068"
       x="61.730034"
       height="180"
       width="240"
       id="rect-sky-noon"
       style="fill:none;stroke:#ffaaaa"
       inkscape:label="#rect3791" />
    <rect
       transform="matrix(0.50073141,-0.86560271,0.86560271,0.50073141,0,0)"
       style="fill:none;stroke:#ffaaaa;stroke-width:1"
       id="rect-sky-evening"
       width="240"
       height="180"
       x="-195.09631"
       y="313.99463"
       inkscape:label="#rect3793" />
    <rect
       style="fill:none;stroke:#ffaaaa"
       id="rect-sky-morning"
       width="240"
       height="180"
       x="270.00003"
       y="132.36218"
       inkscape:label="#rect3795" />
    <path
       transform="matrix(0.81490412,0.57959578,-0.57959578,0.81490412,15.744142,-176.52346)"
       inkscape:connector-curvature="0"
       id="path3886"
       d="m 467.96875,271.92468 c -2.60503,2.69822 -4.21875,6.39075 -4.21875,10.4375 0,8.28427 6.71573,15 15,15 8.28427,0 15,-6.71573 15,-15 0,-0.6577 -0.0429,-1.30215 -0.125,-1.9375 -0.89161,6.73236 -6.64899,11.9375 -13.625,11.9375 -7.59391,0 -13.75,-6.15609 -13.75,-13.75 0,-2.42323 0.61837,-4.7104 1.71875,-6.6875 z"
       style="fill:#f9f9f9;fill-opacity:0.99610895;fill-rule:nonzero;stroke:none;filter:url(#filter3787)" />
    <rect
       transform="matrix(2.1438241e-4,-0.99999998,0.99999998,2.1438241e-4,0,0)"
       inkscape:label="#rect3791"
       style="fill:none;stroke:#ffaaaa;stroke-width:1"
       id="rect-sky-night"
       width="240"
       height="180"
       x="-432.27856"
       y="210.06699" />
    <path
       transform="matrix(0.21804012,-0.09482083,0.09482083,0.21804012,135.55716,357.33282)"
       sodipodi:type="star"
       style="fill:#ffffff;fill-opacity:1;fill-rule:nonzero;stroke:none;filter:url(#filter4311)"
       id="path4287"
       sodipodi:sides="5"
       sodipodi:cx="230"
       sodipodi:cy="387.36218"
       sodipodi:r1="11.18034"
       sodipodi:r2="2.5194552"
       sodipodi:arg1="1.1071487"
       sodipodi:arg2="1.7354672"
       inkscape:flatsided="false"
       inkscape:rounded="0"
       inkscape:randomized="0"
       d="m 235,397.36218 -5.41301,-7.51462 -7.55247,5.36008 5.47412,-7.47023 -7.43158,-5.52647 8.79621,2.89777 2.9595,-8.77562 -0.0378,9.26114 9.26065,0.10284 -8.81955,2.82593 z"
       inkscape:transform-center-x="0.19967991"
       inkscape:transform-center-y="-0.056323061" />
    <path
       inkscape:transform-center-y="0.095743664"
       inkscape:transform-center-x="-0.16105693"
       d="m 235,397.36218 -5.41301,-7.51462 -7.55247,5.36008 5.47412,-7.47023 -7.43158,-5.52647 8.79621,2.89777 2.9595,-8.77562 -0.0378,9.26114 9.26065,0.10284 -8.81955,2.82593 z"
       inkscape:randomized="0"
       inkscape:rounded="0"
       inkscape:flatsided="false"
       sodipodi:arg2="1.7354672"
       sodipodi:arg1="1.1071487"
       sodipodi:r2="2.5194552"
       sodipodi:r1="11.18034"
       sodipodi:cy="387.36218"
       sodipodi:cx="230"
       sodipodi:sides="5"
       id="path4315"
       style="fill:#ffffff;fill-opacity:1;fill-rule:nonzero;stroke:none;filter:url(#filter4311)"
       sodipodi:type="star"
       transform="matrix(0.22938431,0.06257255,-0.06257255,0.22938431,206.05306,304.53604)" />
    <path
       transform="matrix(-0.02193682,0.23675148,-0.23675148,-0.02193682,351.32725,366.82718)"
       sodipodi:type="star"
       style="fill:#ffffff;fill-opacity:1;fill-rule:nonzero;stroke:none;filter:url(#filter4311)"
       id="path4317"
       sodipodi:sides="5"
       sodipodi:cx="230"
       sodipodi:cy="387.36218"
       sodipodi:r1="11.18034"
       sodipodi:r2="2.5194552"
       sodipodi:arg1="1.1071487"
       sodipodi:arg2="1.7354672"
       inkscape:flatsided="false"
       inkscape:rounded="0"
       inkscape:randomized="0"
       d="m 235,397.36218 -5.41301,-7.51462 -7.55247,5.36008 5.47412,-7.47023 -7.43158,-5.52647 8.79621,2.89777 2.9595,-8.77562 -0.0378,9.26114 9.26065,0.10284 -8.81955,2.82593 z"
       inkscape:transform-center-x="-0.046873532"
       inkscape:transform-center-y="0.20884381" />
    <path
       inkscape:transform-center-y="-0.05678827"
       inkscape:transform-center-x="0.19922032"
       d="m 235,397.36218 -5.41301,-7.51462 -7.55247,5.36008 5.47412,-7.47023 -7.43158,-5.52647 8.79621,2.89777 2.9595,-8.77562 -0.0378,9.26114 9.26065,0.10284 -8.81955,2.82593 z"
       inkscape:randomized="0"
       inkscape:rounded="0"
       inkscape:flatsided="false"
       sodipodi:arg2="1.7354672"
       sodipodi:arg1="1.1071487"
       sodipodi:r2="2.5194552"
       sodipodi:r1="11.18034"
       sodipodi:cy="387.36218"
       sodipodi:cx="230"
       sodipodi:sides="5"
       id="path4319"
       style="fill:#ffffff;fill-opacity:0.75875483;fill-rule:nonzero;stroke:none;filter:url(#filter4311)"
       sodipodi:type="star"
       transform="matrix(0.21809405,-0.09469674,0.09469674,0.21809405,130.51577,300.88584)" />
    <path
       transform="matrix(0.21431093,0.10297238,-0.10297238,0.21431093,235.86399,271.19838)"
       sodipodi:type="star"
       style="fill:#ffffff;fill-opacity:0.77431904;fill-rule:nonzero;stroke:none;filter:url(#filter4311)"
       id="path4321"
       sodipodi:sides="5"
       sodipodi:cx="230"
       sodipodi:cy="387.36218"
       sodipodi:r1="11.18034"
       sodipodi:r2="2.5194552"
       sodipodi:arg1="1.1071487"
       sodipodi:arg2="1.7354672"
       inkscape:flatsided="false"
       inkscape:rounded="0"
       inkscape:randomized="0"
       d="m 235,397.36218 -5.41301,-7.51462 -7.55247,5.36008 5.47412,-7.47023 -7.43158,-5.52647 8.79621,2.89777 2.9595,-8.77562 -0.0378,9.26114 9.26065,0.10284 -8.81955,2.82593 z"
       inkscape:transform-center-x="-0.012921211"
       inkscape:transform-center-y="0.24152449" />
    <path
       inkscape:transform-center-y="-0.25222733"
       inkscape:transform-center-x="0.0016998462"
       d="m 235,397.36218 -5.41301,-7.51462 -7.55247,5.36008 5.47412,-7.47023 -7.43158,-5.52647 8.79621,2.89777 2.9595,-8.77562 -0.0378,9.26114 9.26065,0.10284 -8.81955,2.82593 z"
       inkscape:randomized="0"
       inkscape:rounded="0"
       inkscape:flatsided="false"
       sodipodi:arg2="1.7354672"
       sodipodi:arg1="1.1071487"
       sodipodi:r2="2.5194552"
       sodipodi:r1="11.18034"
       sodipodi:cy="387.36218"
       sodipodi:cx="230"
       sodipodi:sides="5"
       id="path4323"
       style="fill:#ffffff;fill-opacity:1;fill-rule:nonzero;stroke:none;filter:url(#filter4311)"
       sodipodi:type="star"
       transform="matrix(0.03492444,-0.23518667,0.23518667,0.03492444,170.33329,442.6507)" />
    <path
       transform="matrix(0.16819019,0.16806114,-0.16806114,0.16819019,310.98999,313.97795)"
       sodipodi:type="star"
       style="fill:#ffffff;fill-opacity:1;fill-rule:nonzero;stroke:none;filter:url(#filter4311)"
       id="path4325"
       sodipodi:sides="5"
       sodipodi:cx="230"
       sodipodi:cy="387.36218"
       sodipodi:r1="11.18034"
       sodipodi:r2="2.5194552"
       sodipodi:arg1="1.1071487"
       sodipodi:arg2="1.7354672"
       inkscape:flatsided="false"
       inkscape:rounded="0"
       inkscape:randomized="0"
       d="m 235,397.36218 -5.41301,-7.51462 -7.55247,5.36008 5.47412,-7.47023 -7.43158,-5.52647 8.79621,2.89777 2.9595,-8.77562 -0.0378,9.26114 9.26065,0.10284 -8.81955,2.82593 z"
       inkscape:transform-center-x="0.24821726"
       inkscape:transform-center-y="-0.0059216965" />
    <path
       inkscape:transform-center-y="-0.1223386"
       inkscape:transform-center-x="-0.13465706"
       d="m 235,397.36218 -5.41301,-7.51462 -7.55247,5.36008 5.47412,-7.47023 -7.43158,-5.52647 8.79621,2.89777 2.9595,-8.77562 -0.0378,9.26114 9.26065,0.10284 -8.81955,2.82593 z"
       inkscape:randomized="0"
       inkscape:rounded="0"
       inkscape:flatsided="false"
       sodipodi:arg2="1.7354672"
       sodipodi:arg1="1.1071487"
       sodipodi:r2="2.5194552"
       sodipodi:r1="11.18034"
       sodipodi:cy="387.36218"
       sodipodi:cx="230"
       sodipodi:sides="5"
       id="path4327"
       style="fill:#ffffff;fill-opacity:1;fill-rule:nonzero;stroke:none;filter:url(#filter4311)"
       sodipodi:type="star"
       transform="matrix(0.23776561,0,0,0.23776561,170.58181,295.79657)" />
    <path
       transform="matrix(0.21809405,-0.09469674,0.09469674,0.21809405,132.93237,235.2166)"
       sodipodi:type="star"
       style="fill:#ffffff;fill-opacity:0.55252913;fill-rule:nonzero;stroke:none;filter:url(#filter4311)"
       id="path4329"
       sodipodi:sides="5"
       sodipodi:cx="230"
       sodipodi:cy="387.36218"
       sodipodi:r1="11.18034"
       sodipodi:r2="2.5194552"
       sodipodi:arg1="1.1071487"
       sodipodi:arg2="1.7354672"
       inkscape:flatsided="false"
       inkscape:rounded="0"
       inkscape:randomized="0"
       d="m 235,397.36218 -5.41301,-7.51462 -7.55247,5.36008 5.47412,-7.47023 -7.43158,-5.52647 8.79621,2.89777 2.9595,-8.77562 -0.0378,9.26114 9.26065,0.10284 -8.81955,2.82593 z"
       inkscape:transform-center-x="0.19922032"
       inkscape:transform-center-y="-0.05678827" />
    <path
       inkscape:transform-center-y="0.24152449"
       inkscape:transform-center-x="-0.012921211"
       d="m 235,397.36218 -5.41301,-7.51462 -7.55247,5.36008 5.47412,-7.47023 -7.43158,-5.52647 8.79621,2.89777 2.9595,-8.77562 -0.0378,9.26114 9.26065,0.10284 -8.81955,2.82593 z"
       inkscape:randomized="0"
       inkscape:rounded="0"
       inkscape:flatsided="false"
       sodipodi:arg2="1.7354672"
       sodipodi:arg1="1.1071487"
       sodipodi:r2="2.5194552"
       sodipodi:r1="11.18034"
       sodipodi:cy="387.36218"
       sodipodi:cx="230"
       sodipodi:sides="5"
       id="path4331"
       style="fill:#ffffff;fill-opacity:0.44357976;fill-rule:nonzero;stroke:none;filter:url(#filter4311)"
       sodipodi:type="star"
       transform="matrix(0.21431093,0.10297238,-0.10297238,0.21431093,255.02935,250.85664)" />
  </g>
  <g
     inkscape:label="Landscape"
     inkscape:groupmode="layer"
     id="layer1"
     transform="translate(0,10.629915)"
     style="display:inline">
    <rect
       y="612.36212"
       x="260"
       height="180"
       width="240"
       id="rect-landscape"
       style="fill:none;stroke:#ff0000;stroke-width:1;stroke-linecap:round;stroke-linejoin:round;stroke-miterlimit:4;stroke-dasharray:none;stroke-dashoffset:0;stroke-opacity:1"
       inkscape:label="#rect4059" />
    <path
       style="fill:#008000;stroke:none;filter:url(#filter4265)"
       d="m 260,777.36218 0,15 240,0 0,-15 c -65,-10 -180,-10 -240,0 z"
       id="path4105"
       inkscape:connector-curvature="0"
       sodipodi:nodetypes="ccccc"
       transform="matrix(1.0416667,0,0,1.3333335,-15.833352,-259.12086)" />
    <path
       sodipodi:nodetypes="csccccscc"
       inkscape:connector-curvature="0"
       id="path4199"
       d="m 403.75,708.54218 c 0,0 -10.44867,-6.80659 -15,6.18 -2.57765,7.35499 7.5,12.36 7.5,12.36 0,0 16.33668,5.5148 26.25,6.18 0,6.18 31.5,4.944 37.5,-2.472 15.75,-4.944 7.5,-16.068 3.75,-16.068 0,0 3.79009,-13.07541 -15,-18.54 -12.75,-3.708 -18.75,6.18 -18.75,6.18 0,0 -18.75,-6.18 -26.25,6.18 z"
       style="fill:url(#radialGradient4341);fill-opacity:1;stroke:none;filter:url(#filter4261)" />
    <path
       style="fill:#000000;fill-opacity:0.50194576;stroke:none;filter:url(#filter4283)"
       d="m 405,777.97818 c 0,0 -10.44867,-1.77985 -15,1.616 -2.57765,1.92325 7.5,3.232 7.5,3.232 0,0 16.33668,1.44206 26.25,1.616 0,1.616 31.5,1.2928 37.5,-0.6464 15.75,-1.2928 7.5,-4.2016 3.75,-4.2016 0,0 3.79009,-3.41907 -15,-4.848 -12.75,-0.9696 -18.75,1.616 -18.75,1.616 0,0 -18.75,-1.616 -26.25,1.616 z"
       id="path4203"
       inkscape:connector-curvature="0"
       sodipodi:nodetypes="csccccscc"
       transform="matrix(1.2484861,0,0,-1.6996741,-106.81875,2106.0471)" />
    <path
       style="fill:url(#linearGradient4275);fill-opacity:1;stroke:none"
       d="m 427,768.36218 c 0.43769,-5.25225 0,-5.98078 0,-32 0,-6 -4,-15 -9,-19 0,0 1,1 3,0 0,0 6,10 9,10 3,0 4,-5 4,-5 0,0 0,1 3,0 -1,2 -4,3 -4,10 0,27 2,35 2,35 1,5 10.44721,9.10557 10,10 -1,2 -7.7889,-3.60555 -15,0 0,0 -9,6 -10,5 -1,-1 6,-1.99999 7,-14 z"
       id="path4201"
       inkscape:connector-curvature="0"
       sodipodi:nodetypes="sscccccscssss" />
  </g>
  <g
     inkscape:groupmode="layer"
     id="layer3"
     inkscape:label="Text (Night)"
     transform="translate(0,10.629915)"
     style="display:inline">
    <g
       style="font-style:normal;font-variant:normal;font-weight:normal;font-stretch:normal;font-size:24.00000572px;line-height:125%;font-family:'Liberation Sans';-inkscape-font-specification:'Liberation Sans';text-align:start;letter-spacing:0px;word-spacing:0px;writing-mode:lr-tb;text-anchor:start;fill:#b3b3b3;fill-opacity:1;stroke:none"
       id="text4376">
      <path
         d="m 200.67972,890.3623 -8.83594,-14.0625 q 0.0234,0.57422 0.0586,1.13672 0.0234,0.48047 0.0352,1.01953 0.0234,0.52735 0.0234,0.9375 l 0,10.96875 -1.99219,0 0,-16.51172 2.60156,0 8.92969,14.15626 q -0.0352,-0.57422 -0.0703,-1.14844 -0.0234,-0.49219 -0.0469,-1.06641 -0.0234,-0.58594 -0.0234,-1.11328 l 0,-10.82813 2.01562,0 0,16.51172 -2.69531,0 z"
         style=""
         id="path3454" />
      <path
         d="m 206.94925,874.9873 0,-2.01562 2.10938,0 0,2.01562 -2.10938,0 z m 0,15.375 0,-12.67969 2.10938,0 0,12.67969 -2.10938,0 z"
         style=""
         id="path3456" />
      <path
         d="m 217.10941,895.34277 q -1.08984,0 -1.93359,-0.22265 -0.84375,-0.22266 -1.44141,-0.64453 -0.59765,-0.41016 -0.97265,-0.98438 -0.375,-0.57422 -0.53907,-1.27734 l 2.1211,-0.30469 q 0.21093,0.87891 0.92578,1.34766 0.72656,0.48047 1.89844,0.48047 0.71484,0 1.30078,-0.19922 0.58594,-0.19922 0.99609,-0.64453 0.41016,-0.4336 0.63281,-1.13672 0.22266,-0.70313 0.22266,-1.71094 l 0,-2.03906 -0.0234,0 q -0.23437,0.48046 -0.58593,0.92578 -0.33985,0.43359 -0.84375,0.77343 -0.49219,0.33985 -1.14844,0.55079 -0.65625,0.19921 -1.5,0.19921 -1.20703,0 -2.07422,-0.39843 -0.85547,-0.41016 -1.40625,-1.21875 -0.53906,-0.8086 -0.79688,-2.00391 -0.24609,-1.20703 -0.24609,-2.78906 0,-1.52344 0.24609,-2.74219 0.25782,-1.21875 0.82032,-2.0625 0.57421,-0.85547 1.47656,-1.30078 0.91406,-0.45703 2.21484,-0.45703 1.34766,0 2.33203,0.62109 0.9961,0.60937 1.53516,1.74609 l 0.0234,0 q 0,-0.29297 0.0117,-0.65625 0.0234,-0.36328 0.0351,-0.67968 0.0234,-0.32813 0.0469,-0.5625 0.0234,-0.23438 0.0469,-0.26954 l 2.00391,0 q -0.0117,0.10547 -0.0234,0.36329 -0.0117,0.24609 -0.0234,0.59765 -0.0117,0.35156 -0.0234,0.78516 0,0.42187 0,0.8789 l 0,9.69141 q 0,2.66016 -1.3125,3.9961 -1.30078,1.34765 -3.9961,1.34765 z m 3.21094,-11.32031 q 0,-1.32422 -0.29297,-2.26172 -0.28125,-0.94922 -0.75,-1.54688 -0.46875,-0.59765 -1.07812,-0.8789 -0.59766,-0.28125 -1.23047,-0.28125 -0.8086,0 -1.39453,0.28125 -0.57422,0.28125 -0.96094,0.89062 -0.375,0.59766 -0.5625,1.54688 -0.17578,0.9375 -0.17578,2.25 0,1.37109 0.17578,2.30859 0.1875,0.92579 0.5625,1.5 0.375,0.57422 0.94922,0.82032 0.57422,0.24609 1.37109,0.24609 0.63281,0 1.23047,-0.26953 0.60938,-0.26953 1.08984,-0.85547 0.48047,-0.58594 0.77344,-1.51172 0.29297,-0.92578 0.29297,-2.23828 z"
         style=""
         id="path3458" />
      <path
         d="m 227.76176,879.85058 q 0.35156,-0.64453 0.76172,-1.08984 0.41015,-0.45703 0.90234,-0.75 0.49219,-0.29297 1.07813,-0.42188 0.58593,-0.14062 1.3125,-0.14062 1.21875,0 1.99218,0.32812 0.78516,0.32813 1.23047,0.92579 0.45703,0.58593 0.6211,1.40625 0.17578,0.82031 0.17578,1.80468 l 0,8.44922 -2.1211,0 0,-8.03906 q 0,-0.80859 -0.10546,-1.41797 -0.0937,-0.60937 -0.375,-1.00781 -0.28125,-0.41016 -0.79688,-0.60938 -0.51562,-0.21093 -1.33594,-0.21093 -0.75,0 -1.35937,0.26953 -0.59766,0.26953 -1.03125,0.76172 -0.42188,0.49218 -0.65625,1.19531 -0.23438,0.70312 -0.23438,1.58203 l 0,7.47656 -2.10937,0 0,-17.39062 2.10937,0 0,4.52343 q 0,0.38672 -0.0117,0.77344 -0.0117,0.38672 -0.0351,0.71485 -0.0117,0.32812 -0.0234,0.5625 -0.0117,0.22265 -0.0234,0.30468 l 0.0352,0 z"
         style=""
         id="path3460" />
      <path
         d="m 243.89848,890.26855 q -0.48047,0.12891 -0.98437,0.19922 -0.49219,0.082 -1.14844,0.082 -2.53125,0 -2.53125,-2.87109 l 0,-8.46094 -1.46485,0 0,-1.53516 1.54688,0 0.62109,-2.83593 1.40625,0 0,2.83593 2.34375,0 0,1.53516 -2.34375,0 0,8.00391 q 0,0.91406 0.29297,1.28906 0.30469,0.36328 1.04297,0.36328 0.30469,0 0.58594,-0.0469 0.29297,-0.0469 0.63281,-0.11719 l 0,1.55859 z"
         style=""
         id="path3462" />
    </g>
    <rect
       y="842.36218"
       x="20"
       height="180.00003"
       width="240.00005"
       id="rect-text-night"
       style="fill:none;stroke:#ff0000;stroke-width:1"
       inkscape:label="#rect4386" />
  </g>
  <g
     inkscape:groupmode="layer"
     id="layer4"
     inkscape:label="Text (Evening)"
     style="display:inline">
    <g
       transform="translate(0,10.629915)"
       style="font-style:normal;font-variant:normal;font-weight:normal;font-stretch:normal;font-size:19.20000267px;line-height:125%;font-family:'Liberation Sans';-inkscape-font-specification:'Liberation Sans';text-align:center;letter-spacing:0px;word-spacing:0px;writing-mode:lr-tb;text-anchor:middle;display:inline;fill:#b3b3b3;fill-opacity:1;stroke:none"
       id="text4360">
      <path
         d="m 351.85,890.3623 0,-13.20937 10.02187,0 0,1.4625 -8.23125,0 0,4.2375 7.66875,0 0,1.44375 -7.66875,0 0,4.60312 8.61563,0 0,1.4625 -10.40625,0 z"
         style=""
         id="path3439" />
      <path
         d="m 368.84687,890.3623 -1.99687,0 -3.68438,-10.14375 1.8,0 2.23125,6.6 q 0.0656,0.20625 0.15,0.50625 0.0937,0.29063 0.1875,0.60938 0.0937,0.31875 0.16875,0.61875 0.0844,0.29062 0.14063,0.4875 0.0562,-0.19688 0.14062,-0.4875 0.0937,-0.3 0.1875,-0.60938 0.0937,-0.30937 0.1875,-0.6 0.10313,-0.3 0.17813,-0.50625 l 2.30625,-6.61875 1.79062,0 -3.7875,10.14375 z"
         style=""
         id="path3441" />
      <path
         d="m 375.2875,885.64668 q 0,0.79687 0.15937,1.47187 0.16875,0.66563 0.50625,1.15313 0.34688,0.47812 0.88125,0.75 0.53438,0.2625 1.28438,0.2625 1.09687,0 1.75312,-0.44063 0.66563,-0.44062 0.9,-1.11562 l 1.48125,0.42187 q -0.15937,0.42188 -0.45,0.85313 -0.28125,0.42187 -0.75937,0.76875 -0.47813,0.3375 -1.2,0.5625 -0.7125,0.21562 -1.725,0.21562 -2.25,0 -3.43125,-1.34062 -1.17188,-1.34063 -1.17188,-3.98438 0,-1.425 0.35625,-2.40937 0.35625,-0.99375 0.975,-1.6125 0.61875,-0.61875 1.44375,-0.89063 0.825,-0.28125 1.7625,-0.28125 1.275,0 2.12813,0.4125 0.8625,0.4125 1.37812,1.14375 0.525,0.72188 0.74063,1.70625 0.225,0.98438 0.225,2.12813 l 0,0.225 -7.2375,0 z m 5.49375,-1.29375 q -0.14063,-1.60313 -0.81563,-2.33438 -0.675,-0.74062 -1.94062,-0.74062 -0.42188,0 -0.89063,0.14062 -0.45937,0.13125 -0.85312,0.47813 -0.39375,0.34687 -0.66563,0.94687 -0.27187,0.59063 -0.30937,1.50938 l 5.475,0 z"
         style=""
         id="path3443" />
      <path
         d="m 391.12187,890.3623 0,-6.43125 q 0,-0.74062 -0.1125,-1.2375 -0.10312,-0.49687 -0.34687,-0.79687 -0.24375,-0.30938 -0.64688,-0.43125 -0.39375,-0.13125 -0.98437,-0.13125 -0.6,0 -1.0875,0.21562 -0.47813,0.20625 -0.825,0.60938 -0.3375,0.39375 -0.525,0.98437 -0.1875,0.58125 -0.1875,1.34063 l 0,5.87812 -1.6875,0 0,-7.97812 q 0,-0.31875 -0.009,-0.66563 0,-0.35625 -0.009,-0.66562 -0.009,-0.31875 -0.0188,-0.54375 -0.009,-0.225 -0.0187,-0.29063 l 1.59375,0 q 0.009,0.0469 0.0187,0.25313 0.009,0.20625 0.0188,0.47812 0.0188,0.2625 0.0281,0.54375 0.009,0.27188 0.009,0.45938 l 0.0281,0 q 0.24375,-0.44063 0.53438,-0.79688 0.29062,-0.35625 0.675,-0.6 0.38437,-0.25312 0.88125,-0.38437 0.49687,-0.14063 1.15312,-0.14063 0.84375,0 1.45313,0.20625 0.60937,0.20625 1.00312,0.6375 0.39375,0.43125 0.57188,1.11563 0.1875,0.675 0.1875,1.6125 l 0,6.75937 -1.69688,0 z"
         style=""
         id="path3445" />
      <path
         d="m 395.35938,878.0623 0,-1.6125 1.6875,0 0,1.6125 -1.6875,0 z m 0,12.3 0,-10.14375 1.6875,0 0,10.14375 -1.6875,0 z"
         style=""
         id="path3447" />
      <path
         d="m 406.08438,890.3623 0,-6.43125 q 0,-0.74062 -0.1125,-1.2375 -0.10313,-0.49687 -0.34688,-0.79687 -0.24375,-0.30938 -0.64687,-0.43125 -0.39375,-0.13125 -0.98438,-0.13125 -0.6,0 -1.0875,0.21562 -0.47812,0.20625 -0.825,0.60938 -0.3375,0.39375 -0.525,0.98437 -0.1875,0.58125 -0.1875,1.34063 l 0,5.87812 -1.6875,0 0,-7.97812 q 0,-0.31875 -0.009,-0.66563 0,-0.35625 -0.009,-0.66562 -0.009,-0.31875 -0.0188,-0.54375 -0.009,-0.225 -0.0188,-0.29063 l 1.59375,0 q 0.009,0.0469 0.0188,0.25313 0.009,0.20625 0.0188,0.47812 0.0187,0.2625 0.0281,0.54375 0.009,0.27188 0.009,0.45938 l 0.0281,0 q 0.24375,-0.44063 0.53437,-0.79688 0.29063,-0.35625 0.675,-0.6 0.38438,-0.25312 0.88125,-0.38437 0.49688,-0.14063 1.15313,-0.14063 0.84375,0 1.45312,0.20625 0.60938,0.20625 1.00313,0.6375 0.39375,0.43125 0.57187,1.11563 0.1875,0.675 0.1875,1.6125 l 0,6.75937 -1.69687,0 z"
         style=""
         id="path3449" />
      <path
         d="m 414.175,894.34668 q -0.87187,0 -1.54687,-0.17812 -0.675,-0.17813 -1.15313,-0.51563 -0.47812,-0.32812 -0.77812,-0.7875 -0.3,-0.45938 -0.43125,-1.02188 l 1.69687,-0.24375 q 0.16875,0.70313 0.74063,1.07813 0.58125,0.38438 1.51875,0.38438 0.57187,0 1.04062,-0.15938 0.46875,-0.15937 0.79688,-0.51563 0.32812,-0.34687 0.50625,-0.90937 0.17812,-0.5625 0.17812,-1.36875 l 0,-1.63125 -0.0187,0 q -0.1875,0.38437 -0.46875,0.74062 -0.27187,0.34688 -0.675,0.61875 -0.39375,0.27188 -0.91875,0.44063 -0.525,0.15937 -1.2,0.15937 -0.96562,0 -1.65937,-0.31875 -0.68438,-0.32812 -1.125,-0.975 -0.43125,-0.64687 -0.6375,-1.60312 -0.19688,-0.96563 -0.19688,-2.23125 0,-1.21875 0.19688,-2.19375 0.20625,-0.975 0.65625,-1.65 0.45937,-0.68438 1.18125,-1.04063 0.73125,-0.36562 1.77187,-0.36562 1.07813,0 1.86563,0.49687 0.79687,0.4875 1.22812,1.39688 l 0.0188,0 q 0,-0.23438 0.009,-0.525 0.0188,-0.29063 0.0281,-0.54375 0.0188,-0.2625 0.0375,-0.45 0.0188,-0.1875 0.0375,-0.21563 l 1.60313,0 q -0.009,0.0844 -0.0188,0.29063 -0.009,0.19687 -0.0188,0.47812 -0.009,0.28125 -0.0188,0.62813 0,0.3375 0,0.70312 l 0,7.75313 q 0,2.12812 -1.05,3.19688 -1.04063,1.07812 -3.19688,1.07812 z m 2.56875,-9.05625 q 0,-1.05938 -0.23437,-1.80938 -0.225,-0.75937 -0.6,-1.2375 -0.375,-0.47812 -0.8625,-0.70312 -0.47813,-0.225 -0.98438,-0.225 -0.64687,0 -1.11562,0.225 -0.45938,0.225 -0.76875,0.7125 -0.3,0.47812 -0.45,1.2375 -0.14063,0.75 -0.14063,1.8 0,1.09687 0.14063,1.84687 0.15,0.74063 0.45,1.2 0.3,0.45938 0.75937,0.65625 0.45938,0.19688 1.09688,0.19688 0.50625,0 0.98437,-0.21563 0.4875,-0.21562 0.87188,-0.68437 0.38437,-0.46875 0.61875,-1.20938 0.23437,-0.74062 0.23437,-1.79062 z"
         style=""
         id="path3451" />
    </g>
    <rect
       transform="translate(0,10.629915)"
       style="display:inline;fill:none;stroke:#ff0000;stroke-width:0.99999988"
       id="rect-text-evening"
       width="240.00005"
       height="180.00003"
       x="265.00003"
       y="842.36218"
       inkscape:label="#rect4384" />
  </g>
  <g
     inkscape:groupmode="layer"
     id="layer5"
     inkscape:label="Text (Noon)"
     style="display:inline">
    <g
       transform="translate(0,10.629915)"
       style="font-style:normal;font-variant:normal;font-weight:normal;font-stretch:normal;font-size:19.20000267px;line-height:125%;font-family:'Liberation Sans';-inkscape-font-specification:'Liberation Sans';text-align:center;letter-spacing:0px;word-spacing:0px;writing-mode:lr-tb;text-anchor:middle;display:inline;fill:#8094b4;fill-opacity:1;stroke:none"
       id="text4350">
      <path
         d="m 545.17506,890.3623 -7.06875,-11.25 q 0.0187,0.45938 0.0469,0.90938 0.0187,0.38437 0.0281,0.81562 0.0187,0.42188 0.0187,0.75 l 0,8.775 -1.59375,0 0,-13.20937 2.08125,0 7.14375,11.325 q -0.0281,-0.45938 -0.0562,-0.91875 -0.0188,-0.39375 -0.0375,-0.85313 -0.0188,-0.46875 -0.0188,-0.89062 l 0,-8.6625 1.6125,0 0,13.20937 -2.15625,0 z"
         style=""
         id="path3430" />
      <path
         d="m 558.77819,885.28105 q 0,2.6625 -1.17188,3.96563 -1.17187,1.30312 -3.40312,1.30312 -1.05938,0 -1.89375,-0.31875 -0.83438,-0.31875 -1.41563,-0.975 -0.57188,-0.65625 -0.88125,-1.64062 -0.3,-0.99375 -0.3,-2.33438 0,-5.25 4.54688,-5.25 1.18125,0 2.03437,0.32813 0.8625,0.32812 1.40625,0.98437 0.55313,0.65625 0.81563,1.64063 0.2625,0.98437 0.2625,2.29687 z m -1.77188,0 q 0,-1.18125 -0.1875,-1.95 -0.17812,-0.76875 -0.53437,-1.22812 -0.34688,-0.45938 -0.85313,-0.6375 -0.50625,-0.1875 -1.14375,-0.1875 -0.64687,0 -1.17187,0.19687 -0.51563,0.1875 -0.88125,0.65625 -0.36563,0.45938 -0.5625,1.22813 -0.1875,0.76875 -0.1875,1.92187 0,1.18125 0.20625,1.95938 0.20625,0.76875 0.5625,1.22812 0.36562,0.45938 0.85312,0.64688 0.49688,0.1875 1.07813,0.1875 0.64687,0 1.17187,-0.17813 0.525,-0.1875 0.89063,-0.64687 0.36562,-0.45938 0.5625,-1.2375 0.19687,-0.77813 0.19687,-1.95938 z"
         style=""
         id="path3432" />
      <path
         d="m 569.46569,885.28105 q 0,2.6625 -1.17188,3.96563 -1.17187,1.30312 -3.40312,1.30312 -1.05938,0 -1.89375,-0.31875 -0.83438,-0.31875 -1.41563,-0.975 -0.57187,-0.65625 -0.88125,-1.64062 -0.3,-0.99375 -0.3,-2.33438 0,-5.25 4.54688,-5.25 1.18125,0 2.03437,0.32813 0.8625,0.32812 1.40625,0.98437 0.55313,0.65625 0.81563,1.64063 0.2625,0.98437 0.2625,2.29687 z m -1.77188,0 q 0,-1.18125 -0.1875,-1.95 -0.17812,-0.76875 -0.53437,-1.22812 -0.34688,-0.45938 -0.85313,-0.6375 -0.50625,-0.1875 -1.14375,-0.1875 -0.64687,0 -1.17187,0.19687 -0.51563,0.1875 -0.88125,0.65625 -0.36563,0.45938 -0.5625,1.22813 -0.1875,0.76875 -0.1875,1.92187 0,1.18125 0.20625,1.95938 0.20625,0.76875 0.5625,1.22812 0.36562,0.45938 0.85312,0.64688 0.49688,0.1875 1.07813,0.1875 0.64687,0 1.17187,-0.17813 0.525,-0.1875 0.89063,-0.64687 0.36562,-0.45938 0.5625,-1.2375 0.19687,-0.77813 0.19687,-1.95938 z"
         style=""
         id="path3434" />
      <path
         d="m 578.01569,890.3623 0,-6.43125 q 0,-0.74062 -0.1125,-1.2375 -0.10312,-0.49687 -0.34687,-0.79687 -0.24375,-0.30938 -0.64688,-0.43125 -0.39375,-0.13125 -0.98437,-0.13125 -0.6,0 -1.0875,0.21562 -0.47813,0.20625 -0.825,0.60938 -0.3375,0.39375 -0.525,0.98437 -0.1875,0.58125 -0.1875,1.34063 l 0,5.87812 -1.6875,0 0,-7.97812 q 0,-0.31875 -0.009,-0.66563 0,-0.35625 -0.009,-0.66562 -0.009,-0.31875 -0.0188,-0.54375 -0.009,-0.225 -0.0187,-0.29063 l 1.59375,0 q 0.009,0.0469 0.0187,0.25313 0.009,0.20625 0.0188,0.47812 0.0187,0.2625 0.0281,0.54375 0.009,0.27188 0.009,0.45938 l 0.0281,0 q 0.24375,-0.44063 0.53438,-0.79688 0.29062,-0.35625 0.675,-0.6 0.38437,-0.25312 0.88125,-0.38437 0.49687,-0.14063 1.15312,-0.14063 0.84375,0 1.45313,0.20625 0.60937,0.20625 1.00312,0.6375 0.39375,0.43125 0.57188,1.11563 0.1875,0.675 0.1875,1.6125 l 0,6.75937 -1.69688,0 z"
         style=""
         id="path3436" />
    </g>
    <rect
       transform="translate(0,10.629915)"
       y="842.36218"
       x="510.00003"
       height="180.00003"
       width="240.00005"
       id="rect-text-noon"
       style="display:inline;fill:none;stroke:#ff0000;stroke-width:0.99999988"
       inkscape:label="#rect4382" />
  </g>
  <g
     inkscape:groupmode="layer"
     id="layer6"
     inkscape:label="Text (Morning)"
     style="display:inline">
    <g
       transform="translate(0,10.629915)"
       style="font-style:normal;font-variant:normal;font-weight:normal;font-stretch:normal;font-size:24.00000572px;line-height:125%;font-family:'Liberation Sans';-inkscape-font-specification:'Liberation Sans';text-align:end;letter-spacing:0px;word-spacing:0px;writing-mode:lr-tb;text-anchor:end;display:inline;fill:#343551;fill-opacity:1;stroke:none"
       id="text4344">
      <path
         d="m 897.24217,890.3623 0,-11.01562 q 0,-0.59766 0.0117,-1.21875 0.0117,-0.6211 0.0352,-1.13672 0.0234,-0.59766 0.0586,-1.16016 -0.16406,0.59766 -0.33984,1.1836 -0.15235,0.5039 -0.33985,1.07812 -0.17578,0.5625 -0.35156,1.01953 l -4.26563,11.25 -1.57031,0 -4.32422,-11.25 q -0.0703,-0.17578 -0.15234,-0.41015 -0.0703,-0.23438 -0.16407,-0.49219 -0.082,-0.26953 -0.17578,-0.53906 -0.082,-0.28125 -0.16406,-0.55079 -0.19922,-0.62109 -0.38672,-1.28906 0.0117,0.65625 0.0352,1.30078 0.0234,0.55078 0.0352,1.16016 0.0117,0.59766 0.0117,1.05469 l 0,11.01562 -1.99219,0 0,-16.51172 2.94141,0 4.39453,11.44922 q 0.082,0.23438 0.19922,0.60938 0.11719,0.36328 0.22266,0.75 0.10547,0.38672 0.1875,0.73828 0.0937,0.33984 0.12891,0.52734 0.0352,-0.1875 0.1289,-0.53906 0.0937,-0.35156 0.21094,-0.73828 0.12891,-0.38672 0.24609,-0.75 0.11719,-0.36328 0.21094,-0.59766 l 4.3125,-11.44922 2.8711,0 0,16.51172 -2.01563,0 z"
         style=""
         id="path3415" />
      <path
         d="m 913.58983,884.01074 q 0,3.32813 -1.46484,4.95703 -1.46485,1.62891 -4.25391,1.62891 -1.32422,0 -2.36719,-0.39844 -1.04297,-0.39844 -1.76953,-1.21875 -0.71484,-0.82031 -1.10156,-2.05078 -0.375,-1.24219 -0.375,-2.91797 0,-6.5625 5.68359,-6.5625 1.47657,0 2.54297,0.41016 1.07813,0.41015 1.75782,1.23046 0.6914,0.82032 1.01953,2.05079 0.32812,1.23047 0.32812,2.87109 z m -2.21484,0 q 0,-1.47656 -0.23438,-2.4375 -0.22265,-0.96094 -0.66797,-1.53516 -0.43359,-0.57422 -1.0664,-0.79687 -0.63282,-0.23438 -1.42969,-0.23438 -0.80859,0 -1.46484,0.2461 -0.64454,0.23437 -1.10157,0.82031 -0.45703,0.57422 -0.70312,1.53516 -0.23438,0.96093 -0.23438,2.40234 0,1.47656 0.25781,2.44922 0.25782,0.96094 0.70313,1.53516 0.45703,0.57422 1.06641,0.80859 0.62109,0.23438 1.34765,0.23438 0.8086,0 1.46485,-0.22266 0.65625,-0.23438 1.11328,-0.80859 0.45703,-0.57422 0.70312,-1.54688 0.2461,-0.97266 0.2461,-2.44922 z"
         style=""
         id="path3417" />
      <path
         d="m 916.27342,890.3623 0,-9.72656 q 0,-0.39844 -0.0117,-0.80859 0,-0.42188 -0.0117,-0.8086 -0.0117,-0.38672 -0.0234,-0.72656 -0.0117,-0.33984 -0.0234,-0.60938 l 1.99219,0 q 0.0117,0.26954 0.0234,0.6211 0.0234,0.33984 0.0351,0.70312 0.0234,0.36328 0.0234,0.70313 0.0117,0.32812 0.0117,0.5625 l 0.0469,0 q 0.22265,-0.72656 0.46875,-1.25391 0.25781,-0.53906 0.59765,-0.8789 0.33985,-0.35157 0.8086,-0.51563 0.46875,-0.17578 1.13671,-0.17578 0.25782,0 0.49219,0.0469 0.23438,0.0352 0.36328,0.0703 l 0,1.93359 q -0.21093,-0.0586 -0.49218,-0.082 -0.28125,-0.0352 -0.63282,-0.0352 -0.72656,0 -1.24218,0.32813 -0.50391,0.32812 -0.83204,0.91406 -0.3164,0.57422 -0.46875,1.38281 -0.15234,0.79688 -0.15234,1.7461 l 0,6.60937 -2.10938,0 z"
         style=""
         id="path3419" />
      <path
         d="m 932.29296,890.3623 0,-8.03906 q 0,-0.92578 -0.14062,-1.54688 -0.12891,-0.62109 -0.4336,-0.99609 -0.30468,-0.38672 -0.80859,-0.53906 -0.49219,-0.16406 -1.23047,-0.16406 -0.75,0 -1.35938,0.26953 -0.59765,0.25781 -1.03125,0.76172 -0.42187,0.49218 -0.65625,1.23047 -0.23437,0.72656 -0.23437,1.67578 l 0,7.34765 -2.10938,0 0,-9.97265 q 0,-0.39844 -0.0117,-0.83204 0,-0.44531 -0.0117,-0.83203 -0.0117,-0.39843 -0.0234,-0.67968 -0.0117,-0.28125 -0.0234,-0.36329 l 1.99219,0 q 0.0117,0.0586 0.0234,0.31641 0.0117,0.25781 0.0234,0.59766 0.0234,0.32812 0.0352,0.67968 0.0117,0.33985 0.0117,0.57422 l 0.0352,0 q 0.30468,-0.55078 0.66796,-0.99609 0.36329,-0.44531 0.84375,-0.75 0.48047,-0.31641 1.10157,-0.48047 0.62109,-0.17578 1.4414,-0.17578 1.05469,0 1.81641,0.25781 0.76172,0.25781 1.25391,0.79688 0.49218,0.53906 0.71484,1.39453 0.23438,0.84375 0.23438,2.01562 l 0,8.44922 -2.1211,0 z"
         style=""
         id="path3421" />
      <path
         d="m 937.58984,874.9873 0,-2.01562 2.10937,0 0,2.01562 -2.10937,0 z m 0,15.375 0,-12.67969 2.10937,0 0,12.67969 -2.10937,0 z"
         style=""
         id="path3423" />
      <path
         d="m 950.99609,890.3623 0,-8.03906 q 0,-0.92578 -0.14062,-1.54688 -0.12891,-0.62109 -0.4336,-0.99609 -0.30469,-0.38672 -0.80859,-0.53906 -0.49219,-0.16406 -1.23047,-0.16406 -0.75,0 -1.35938,0.26953 -0.59765,0.25781 -1.03125,0.76172 -0.42187,0.49218 -0.65625,1.23047 -0.23437,0.72656 -0.23437,1.67578 l 0,7.34765 -2.10938,0 0,-9.97265 q 0,-0.39844 -0.0117,-0.83204 0,-0.44531 -0.0117,-0.83203 -0.0117,-0.39843 -0.0234,-0.67968 -0.0117,-0.28125 -0.0234,-0.36329 l 1.99219,0 q 0.0117,0.0586 0.0234,0.31641 0.0117,0.25781 0.0234,0.59766 0.0234,0.32812 0.0352,0.67968 0.0117,0.33985 0.0117,0.57422 l 0.0352,0 q 0.30469,-0.55078 0.66797,-0.99609 0.36328,-0.44531 0.84375,-0.75 0.48047,-0.31641 1.10157,-0.48047 0.62109,-0.17578 1.4414,-0.17578 1.05469,0 1.81641,0.25781 0.76172,0.25781 1.25391,0.79688 0.49218,0.53906 0.71484,1.39453 0.23437,0.84375 0.23437,2.01562 l 0,8.44922 -2.12109,0 z"
         style=""
         id="path3425" />
      <path
         d="m 961.10937,895.34277 q -1.08984,0 -1.93359,-0.22265 -0.84375,-0.22266 -1.44141,-0.64453 -0.59766,-0.41016 -0.97266,-0.98438 -0.375,-0.57422 -0.53906,-1.27734 l 2.1211,-0.30469 q 0.21093,0.87891 0.92578,1.34766 0.72656,0.48047 1.89843,0.48047 0.71485,0 1.30079,-0.19922 0.58593,-0.19922 0.99609,-0.64453 0.41016,-0.4336 0.63281,-1.13672 0.22266,-0.70313 0.22266,-1.71094 l 0,-2.03906 -0.0234,0 q -0.23437,0.48046 -0.58594,0.92578 -0.33984,0.43359 -0.84375,0.77343 -0.49218,0.33985 -1.14843,0.55079 -0.65625,0.19921 -1.5,0.19921 -1.20704,0 -2.07422,-0.39843 -0.85547,-0.41016 -1.40625,-1.21875 -0.53907,-0.8086 -0.79688,-2.00391 -0.24609,-1.20703 -0.24609,-2.78906 0,-1.52344 0.24609,-2.74219 0.25781,-1.21875 0.82031,-2.0625 0.57422,-0.85547 1.47657,-1.30078 0.91406,-0.45703 2.21484,-0.45703 1.34766,0 2.33203,0.62109 0.9961,0.60937 1.53516,1.74609 l 0.0234,0 q 0,-0.29297 0.0117,-0.65625 0.0234,-0.36328 0.0352,-0.67968 0.0234,-0.32813 0.0469,-0.5625 0.0234,-0.23438 0.0469,-0.26954 l 2.00391,0 q -0.0117,0.10547 -0.0234,0.36329 -0.0117,0.24609 -0.0234,0.59765 -0.0117,0.35156 -0.0234,0.78516 0,0.42187 0,0.8789 l 0,9.69141 q 0,2.66016 -1.3125,3.9961 -1.30079,1.34765 -3.9961,1.34765 z m 3.21094,-11.32031 q 0,-1.32422 -0.29297,-2.26172 -0.28125,-0.94922 -0.75,-1.54688 -0.46875,-0.59765 -1.07812,-0.8789 -0.59766,-0.28125 -1.23047,-0.28125 -0.8086,0 -1.39454,0.28125 -0.57421,0.28125 -0.96093,0.89062 -0.375,0.59766 -0.5625,1.54688 -0.17578,0.9375 -0.17578,2.25 0,1.37109 0.17578,2.30859 0.1875,0.92579 0.5625,1.5 0.375,0.57422 0.94922,0.82032 0.57421,0.24609 1.37109,0.24609 0.63281,0 1.23047,-0.26953 0.60937,-0.26953 1.08984,-0.85547 0.48047,-0.58594 0.77344,-1.51172 0.29297,-0.92578 0.29297,-2.23828 z"
         style=""
         id="path3427" />
    </g>
    <rect
       transform="translate(0,10.629915)"
       style="display:inline;fill:none;stroke:#ff0000;stroke-width:0.99999988"
       id="rect-text-morning"
       width="240.00005"
       height="180.00003"
       x="755"
       y="842.36218"
       inkscape:label="#rect4380" />
  </g>
</svg>
