<?xml version="1.0" standalone="no"?>
<!DOCTYPE svg PUBLIC "-//W3C//DTD SVG 1.1//EN" "http://www.w3.org/Graphics/SVG/1.1/DTD/svg11.dtd" >
<svg xmlns="http://www.w3.org/2000/svg">
<metadata>
This is a custom SVG webfont generated by Font Squirrel.
Copyright   : Copyright URW copyright 1999 by URW Design  Development Cyrillic glyphs added by Valek Filippov copyright 20012002 Vietnamese characters were added by Han The Thanh copyright 2006 2008 for TeX Gyre extensions by B Jackowski and JM Nowacki on behalf of TeX users groups This work is released under the GUST Font License   see httptugorgfontslicensesGUSTFONTLICENSEtxt for details
</metadata>
<defs>
<font id="webfontpI2rVmAw" horiz-adv-x="1251" >
<font-face units-per-em="2048" ascent="1634" descent="-414" />
<missing-glyph horiz-adv-x="587" />
<glyph unicode="IJ" horiz-adv-x="2375" d="M90 0v111h31q143 0 168 30q10 12 12 34t2 120v889q0 98 -2 119.5t-12 33.5q-25 31 -168 31h-31v111h797v-111h-31q-145 0 -170 -31q-10 -12 -12 -32.5t-2 -120.5v-889q0 -100 2 -120.5t12 -33.5q25 -31 170 -30h31v-111h-797zM985 373q0 131 71.5 217t182.5 86 q92 0 151.5 -59.5t59.5 -149.5q0 -84 -53.5 -138.5t-134.5 -54.5q-12 0 -39 5.5t-35 5.5q-39 0 -39 -39q0 -59 72.5 -105.5t169.5 -46.5q80 0 148.5 33t107.5 88q55 80 55 287v682q0 100 -2 120.5t-12 32.5q-25 31 -168 31h-31v111h797v-111h-31q-145 0 -170 -31 q-10 -12 -12 -32.5t-2 -120.5v-611q0 -604 -590 -604q-229 0 -362.5 108t-133.5 296z" />
<glyph unicode="ij" horiz-adv-x="1429" d="M90 0v104h29q92 0 111.5 15.5t19.5 81.5v456q0 137 -18.5 165t-112.5 28h-29v104l481 15v-770q0 -63 18.5 -79t108.5 -16h33v-104h-641zM266 1290.5q0 59.5 43 101.5t102.5 42t101.5 -43t42 -101q0 -61 -43 -103t-102.5 -42t-101.5 43t-42 102.5zM623 -209q0 66 45 110 t114 44q57 0 95 -39t38 -99q0 -63 -59 -102q16 -23 53 -22q109 0 109 202v789q0 123 -20.5 149.5t-110.5 26.5h-66v104l518 15v-746q0 -293 -71 -430q-47 -94 -144.5 -150.5t-214.5 -56.5q-125 0 -205.5 57.5t-80.5 147.5zM1022 1290.5q0 59.5 43 101.5t102 42 q57 0 100.5 -43t43.5 -101q0 -61 -43 -103t-102.5 -42t-101.5 43t-42 102.5z" />
<glyph unicode="fk" horiz-adv-x="2072" d="M29 846v123h178v26q0 227 123 366.5t323 139.5l604 8v-1005l254 221q51 45 52 82q0 57 -123 57h-25v105h602v-105h-47q-109 0 -221 -96l-158 -131l322 -401q68 -88 97.5 -110t82.5 -22v-104h-627v104h27q74 0 74 41q0 31 -27 64l-188 227l-95 -84v-151q0 -61 26 -79 t114 -18v-104h-625v104h29q96 0 115.5 15.5t19.5 79.5v985v22q-41 -96 -150 -96q-66 0 -109.5 41t-43.5 100q0 31 30.5 78t30.5 49q0 16 -32 17q-31 0 -63 -23.5t-46 -58.5q-25 -53 -25 -228v-116h256v-123h-256v-647q0 -61 28 -79t126 -18h37v-102h-676v102h29 q96 0 115.5 15.5t19.5 81.5v647h-178z" />
<glyph unicode="&#xfb00;" horiz-adv-x="1503" d="M29 846v123h178v26q0 227 123 366.5t323 139.5q127 0 212 -63.5t85 -159.5q0 -72 -47 -120t-117 -48q-66 0 -109.5 41t-43.5 100q0 31 30.5 78t30.5 49q0 16 -32 17q-31 0 -63 -23.5t-46 -58.5q-25 -53 -25 -228v-116h420v26q0 227 123 366.5t324 139.5q127 0 212 -63.5 t85 -159.5q0 -72 -47.5 -120t-116.5 -48q-66 0 -110 41t-44 100q0 31 31 78t31 49q0 16 -33 17q-31 0 -62.5 -23.5t-46.5 -58.5q-25 -53 -24 -228v-116h256v-123h-256v-647q0 -61 27.5 -79t125.5 -18h37v-102h-676v102h29q96 0 115.5 15.5t19.5 81.5v647h-420v-647 q0 -61 28 -79t126 -18h37v-102h-676v102h29q96 0 115.5 15.5t19.5 81.5v647h-178z" />
<glyph unicode="&#xfb01;" horiz-adv-x="1402" d="M31 846v123h170v26q0 254 154.5 380t441.5 126q190 0 290.5 -55t100.5 -162q0 -76 -49 -122t-127 -46q-72 0 -118 41t-46 107q0 20 13 58t13 42q0 41 -75 41q-139 0 -208 -85t-69 -278v-73h357q96 0 333 14v-780q0 -66 18.5 -82.5t102.5 -16.5h33v-104h-629v104h29 q88 0 106.5 16.5t18.5 80.5v452q0 135 -18.5 164t-108.5 29h-242v-643q0 -66 18.5 -82.5t102.5 -16.5h27v-104h-627v104h29q92 0 110.5 15.5t18.5 81.5v645h-170z" />
<glyph unicode="&#xfb02;" horiz-adv-x="1402" d="M31 846v123h170v26q0 246 152.5 376t406.5 130q129 0 239 -33l213 41v-1306q0 -66 18.5 -82.5t102.5 -16.5h31v-104h-627v104h29q88 0 106.5 16.5t18.5 80.5v645h-369v-643q0 -66 18.5 -82.5t102.5 -16.5h27v-104h-627v104h29q92 0 110.5 15.5t18.5 81.5v645h-170z M522 969h369v184q-37 10 -60.5 42t-23.5 71q0 18 10 43.5t21.5 44t11.5 20.5q0 31 -72 31q-256 0 -256 -363v-73z" />
<glyph unicode="&#xfb03;" horiz-adv-x="2109" d="M29 846v123h178v26q0 227 123 366.5t323 139.5q127 0 212 -63.5t85 -159.5q0 -72 -47 -120t-117 -48q-66 0 -109.5 41t-43.5 100q0 31 30.5 78t30.5 49q0 16 -32 17q-31 0 -63 -23.5t-46 -58.5q-25 -53 -25 -228v-116h414v26q0 254 154.5 380t441.5 126q190 0 290.5 -55 t100.5 -162q0 -76 -49 -122t-127 -46q-72 0 -118 41t-46 107q0 20 13.5 58t13.5 42q0 41 -76 41q-139 0 -207.5 -85t-68.5 -278v-73h356q96 0 334 14v-780q0 -66 18.5 -82.5t102.5 -16.5h32v-104h-628v104h28q88 0 106.5 16.5t18.5 80.5v452q0 135 -18.5 164t-108.5 29h-241 v-643q0 -66 18 -82.5t102 -16.5h27v-104h-627v104h29q92 0 110.5 15.5t18.5 81.5v645h-414v-647q0 -61 28 -79t126 -18h37v-102h-676v102h29q96 0 115.5 15.5t19.5 81.5v647h-178z" />
<glyph unicode="&#xfb04;" horiz-adv-x="2109" d="M29 846v123h178v26q0 227 123 366.5t323 139.5q127 0 212 -63.5t85 -159.5q0 -72 -47 -120t-117 -48q-66 0 -109.5 41t-43.5 100q0 31 30.5 78t30.5 49q0 16 -32 17q-31 0 -63 -23.5t-46 -58.5q-25 -53 -25 -228v-116h414v26q0 246 152.5 376t406.5 130q129 0 240 -33 l213 41v-1306q0 -66 18.5 -82.5t102.5 -16.5h30v-104h-626v104h28q88 0 106.5 16.5t18.5 80.5v645h-368v-643q0 -66 18 -82.5t102 -16.5h27v-104h-627v104h29q92 0 110.5 15.5t18.5 81.5v645h-414v-647q0 -61 28 -79t126 -18h37v-102h-676v102h29q96 0 115.5 15.5t19.5 81.5 v647h-178zM1264 969h368v184q-37 10 -60.5 42t-23.5 71q0 18 10.5 43.5t21.5 44t11 20.5q0 31 -71 31q-256 0 -256 -363v-73z" />
<glyph unicode=" "  horiz-adv-x="587" />
<glyph unicode="&#x09;" horiz-adv-x="587" />
<glyph unicode="&#xa0;" horiz-adv-x="587" />
<glyph unicode="!" horiz-adv-x="606" d="M117 162q0 78 56 134t134 56q80 0 136.5 -56t56.5 -134q0 -80 -56.5 -136.5t-138.5 -56.5q-76 0 -132 57.5t-56 135.5zM117 1305q0 96 51 150t141 54t140.5 -54t50.5 -150q0 -59 -10.5 -106.5t-59.5 -217.5q-55 -190 -68 -514h-108q-10 223 -28.5 338t-80.5 317 q-28 97 -28 183z" />
<glyph unicode="&#x22;" horiz-adv-x="681" d="M-25 1368q0 59 40 100t99.5 41t99.5 -41t40 -102q0 -29 -6 -66l-86 -448h-94l-86 448q-7 37 -7 68zM430 1368q0 59 40 100t99.5 41t99.5 -41t40 -102q0 -29 -7 -66l-86 -448h-94l-86 448q-6 37 -6 68z" />
<glyph unicode="#" horiz-adv-x="1175" d="M84 451v170h217l33 221h-197v170h219l62 422h184l-61 -422h176l59 422h185l-60 -422h191v-170h-215l-31 -221h192v-170h-217l-65 -451h-185l66 451h-176l-66 -451h-184l65 451h-192zM485 621h174l33 221h-174z" />
<glyph unicode="$" horiz-adv-x="1175" d="M51 313q0 84 49.5 138.5t126.5 54.5q72 0 119 -43t47 -107q0 -94 -71 -151q-14 -14 -15 -23q0 -33 68.5 -62.5t159.5 -35.5v487l-70 23q-199 63 -287 153.5t-86 235.5q0 182 117 302t326 147v208h118v-206q207 -14 328 -93t121 -200q0 -80 -50.5 -132.5t-127.5 -52.5 q-66 0 -111 42t-45 104q0 27 23.5 79t23.5 62q0 63 -162 80v-436l54 -17q221 -70 319 -172t98 -266q0 -193 -122.5 -311.5t-348.5 -145.5v-256h-118v252q-231 20 -357.5 110.5t-126.5 231.5zM338 1124q0 -141 170 -192l27 -8v397q-197 -35 -197 -197zM653 90 q98 10 156.5 67.5t58.5 147.5q0 164 -194 223l-21 7v-445z" />
<glyph unicode="%" horiz-adv-x="1705" d="M35 907q0 188 152.5 365.5t328.5 177.5q117 0 193 -98q80 -39 188 -39q115 0 194.5 39t147.5 127h94l-848 -1479h-104l715 1253q-111 -37 -209 -36q-68 0 -135 18q6 -43 6 -61q0 -193 -139.5 -361t-311.5 -168q-119 0 -195.5 73.5t-76.5 188.5zM248 852q0 -49 28.5 -80 t75.5 -31q117 0 220.5 143.5t103.5 305.5q0 37 -12 80q-72 25 -119 78q-57 -20 -88 -52t-86 -131q-123 -215 -123 -313zM954 287q0 197 148.5 372t329.5 175q109 0 179 -72t70 -182q0 -115 -57 -241t-163.5 -218t-229.5 -92q-121 0 -199 72.5t-78 185.5zM1165 233 q0 -45 31 -76.5t74 -31.5q119 0 224 143.5t105 302.5q0 66 -33.5 111t-82.5 45q-82 0 -170 -143q-148 -240 -148 -351z" />
<glyph unicode="&#x26;" horiz-adv-x="1744" d="M80 367q0 154 101.5 263t312.5 204q-80 166 -80 294q0 166 124 273.5t318 107.5q168 0 270.5 -80.5t102.5 -211.5q0 -121 -84 -203t-275 -160q78 -133 164 -263t123 -169q98 119 98 203q0 51 -43 74.5t-139 25.5v111h559v-111q-109 -2 -160 -39t-112 -154 q-59 -113 -129 -206q102 -135 209 -136q104 0 141 172l102 -22q-18 -180 -124.5 -275.5t-251.5 -95.5q-188 0 -324 135q-193 -137 -432 -137q-217 0 -344 115t-127 285zM428 528q0 -164 108.5 -277.5t229.5 -113.5q72 0 135 45q-225 274 -358 549q-115 -72 -115 -203z M700 1249q0 -104 113 -299q190 86 191 256q0 84 -45.5 140.5t-114.5 56.5q-61 0 -102.5 -44t-41.5 -110z" />
<glyph unicode="'" horiz-adv-x="493" d="M106 1368q0 59 40 100t99.5 41t99.5 -41t40 -102q0 -29 -6 -66l-86 -448h-94l-86 448q-7 37 -7 68z" />
<glyph unicode="(" horiz-adv-x="796" d="M147 635q0 272 142.5 505.5t402.5 368.5v-102q-156 -111 -222.5 -297t-66.5 -477t67 -477.5t222 -294.5v-103q-258 133 -401.5 368t-143.5 509z" />
<glyph unicode=")" horiz-adv-x="796" d="M102 -139q156 111 222.5 297t66.5 477t-66.5 477t-222.5 295v102q256 -135 400.5 -368.5t144.5 -507.5q0 -272 -143.5 -505.5t-401.5 -369.5v103z" />
<glyph unicode="*" horiz-adv-x="1024" d="M115 881q0 70 67 100q33 12 113 16q74 6 135 41l33 21l-33 18q-47 27 -76.5 34t-107.5 11q-59 4 -95 36t-36 79q0 39 28.5 66.5t69.5 27.5q45 0 82 -33q16 -16 57 -77q45 -61 105 -97l32 -20v39q0 49 -8 77.5t-45 104.5q-20 39 -20 76q0 45 28.5 76.5t69.5 31.5 t70.5 -32.5t29.5 -77.5q0 -33 -41 -119q-33 -63 -32 -137v-39l32 20q47 29 68 50.5t64 85.5q47 72 114 71q41 0 68.5 -27.5t27.5 -66.5q0 -66 -67 -100q-23 -10 -113 -19q-68 -2 -135 -41l-33 -18l33 -19q47 -27 77 -34t105 -11q59 -4 96 -36.5t37 -79.5q0 -39 -26.5 -65 t-65.5 -26q-41 0 -67.5 20.5t-77.5 90.5q-41 57 -105 94l-32 21v-39q0 -49 8 -79t43 -103q20 -39 20 -74q0 -47 -28.5 -79t-69.5 -32t-69.5 32t-28.5 77q0 33 41 121q33 63 32 137v39l-32 -21q-43 -27 -65.5 -49t-65.5 -86q-47 -72 -115 -72q-39 0 -67.5 28t-28.5 67z" />
<glyph unicode="+" horiz-adv-x="1241" d="M90 410v204h428v428h205v-428h428v-204h-428v-428h-205v428h-428z" />
<glyph unicode="," horiz-adv-x="569" d="M80 154q0 84 57.5 142t138.5 58q92 0 149.5 -68.5t57.5 -179.5q0 -279 -346 -487l-55 84q203 141 203 264q0 12 -9 13h-8q-4 -2 -16 -3q-74 0 -123 50.5t-49 126.5z" />
<glyph unicode="-" horiz-adv-x="681" d="M86 369v266h510v-266h-510z" />
<glyph unicode="." horiz-adv-x="569" d="M92 162q0 80 56.5 136t136.5 56t136 -56t56 -136t-56 -136.5t-138 -56.5q-78 0 -134.5 57.5t-56.5 135.5z" />
<glyph unicode="/" horiz-adv-x="569" d="M-47 -31l514 1540h151l-514 -1540h-151z" />
<glyph unicode="0" horiz-adv-x="1175" d="M55 710.5q0 319.5 151.5 529.5t381.5 210q236 0 383 -217t147 -533q0 -311 -152.5 -520t-377.5 -209q-229 0 -381 210t-152 529.5zM408 711q0 -375 35.5 -504t142.5 -129q109 0 142.5 131t33.5 498q0 258 -15.5 391t-52.5 189t-108 56q-111 0 -144.5 -131.5t-33.5 -500.5 z" />
<glyph unicode="1" horiz-adv-x="1175" d="M170 1194v115q340 6 518 141h72v-1155q0 -98 2 -119.5t12 -34.5q23 -31 166 -30h66v-111h-818v111h66q145 0 170 30q10 12 12 34t2 120v727q0 127 -23.5 149.5t-158.5 22.5h-86z" />
<glyph unicode="2" horiz-adv-x="1175" d="M39 -8v96q78 111 159 207t253 276q162 172 222 284t60 239q0 115 -59.5 177t-165.5 62q-78 0 -145.5 -43t-67.5 -92q0 -25 33 -39q72 -35 102.5 -77t30.5 -107q0 -80 -47 -127t-127 -47q-92 0 -147.5 64.5t-55.5 170.5q0 174 142.5 294t351.5 120q217 0 360 -110.5 t143 -274.5q0 -154 -110 -297q-43 -55 -117 -110.5t-291 -196.5q-115 -76 -205 -154h396q98 2 118.5 4t34.5 13q25 14 47 118l23 103h110l-47 -553q-82 8 -125 8h-770q-34 0 -106 -8z" />
<glyph unicode="3" horiz-adv-x="1175" d="M49 319q0 86 51.5 140.5t132.5 54.5q76 0 127.5 -49t51.5 -121q0 -43 -14.5 -70.5t-61.5 -72.5q-20 -18 -21 -37q0 -33 55.5 -59.5t121.5 -26.5q113 0 175 85t62 238q0 291 -190 291q-2 0 -19.5 -3t-48.5 -6t-68 -3q-33 0 -53 21.5t-20 56.5q0 68 73 67q8 0 73 -11 t83 -11q72 0 115 77.5t43 209.5q0 121 -54.5 187t-150.5 66q-57 0 -106.5 -24.5t-49.5 -52.5q0 -10 15 -25q82 -76 82 -154q0 -72 -46.5 -116.5t-119.5 -44.5q-80 0 -133.5 53t-53.5 133q0 143 133.5 240.5t331.5 97.5q217 0 350.5 -99.5t133.5 -263.5q0 -252 -330 -333 q188 -25 277 -112t89 -247q0 -205 -149.5 -314.5t-390.5 -109.5q-221 0 -358.5 96t-137.5 252z" />
<glyph unicode="4" horiz-adv-x="1175" d="M39 371v151l745 928h142l-13 -311v-631h205v-137h-205v-76q0 -98 2.5 -119.5t12.5 -36.5q25 -29 127 -28h43v-111h-699v111h43q113 0 136 28q10 14 12 36t2 120v76h-553zM188 508h404v512z" />
<glyph unicode="5" horiz-adv-x="1175" d="M63 309q0 94 53.5 151.5t143.5 57.5q78 0 126 -46t48 -122q0 -51 -25.5 -85t-84.5 -62q-25 -14 -25 -29q0 -33 55.5 -59.5t124.5 -26.5q123 0 187.5 97.5t64.5 283.5q0 334 -231 334q-133 0 -228 -78q4 -25 4 -33q0 -33 -24.5 -57.5t-58.5 -24.5q-33 0 -54.5 21.5 t-21.5 54.5q0 39 53 92l47 672q166 -35 399 -35q252 0 371 29q18 6 33 6q16 0 16 -23q0 -133 -132 -231t-324 -98q-113 0 -258 30l-31 -264q172 78 295 78q221 0 365.5 -131t144.5 -332q0 -225 -157 -366.5t-409 -141.5q-213 0 -340 92t-127 246z" />
<glyph unicode="6" horiz-adv-x="1175" d="M59 627q0 358 177.5 590.5t463.5 232.5q176 0 280.5 -78t104.5 -209q0 -84 -51 -134t-139 -50q-80 0 -130 44t-50 114q0 35 28.5 93t28.5 66q0 47 -88 47q-121 0 -195.5 -159.5t-74.5 -444.5q63 74 131.5 104.5t167.5 30.5q182 0 296.5 -116.5t114.5 -300.5 q0 -211 -147.5 -348.5t-372.5 -137.5q-248 0 -396.5 175.5t-148.5 480.5zM426 397q0 -158 45 -243.5t129 -85.5q168 0 168 366q0 281 -162 287q-98 0 -139 -80t-41 -244z" />
<glyph unicode="7" horiz-adv-x="1175" d="M92 838l70 612q258 -29 489 -29q287 0 467 29v-86q-227 -483 -285.5 -682t-58.5 -483q0 -111 -53 -169.5t-150 -58.5q-86 0 -137 55.5t-51 145.5q0 121 109 332q18 37 260 411l139 207l-270 -6q-39 0 -140.5 4t-130.5 4q-55 0 -74.5 -33.5t-50.5 -172.5l-20 -93z" />
<glyph unicode="8" horiz-adv-x="1175" d="M55 334q0 125 66.5 195.5t216.5 117.5q-238 127 -238 367q0 199 142.5 317.5t380.5 118.5q199 0 321.5 -88t122.5 -229q0 -197 -242 -291q293 -117 293 -402q0 -211 -152.5 -340t-400.5 -129q-233 0 -371.5 98.5t-138.5 264.5zM322 340q0 -123 70.5 -192.5t195.5 -69.5 q121 0 198.5 67.5t77.5 171.5q0 31 -5 54.5t-16.5 44t-28.5 36t-40.5 30t-56.5 26.5l-73 25.5t-88 27.5l-107 31q-72 -59 -99.5 -113.5t-27.5 -138.5zM367 1147q0 -113 78.5 -165t265.5 -97l14 12q86 76 86 213q0 109 -60.5 171t-162.5 62q-94 0 -157.5 -56t-63.5 -140z" />
<glyph unicode="9" horiz-adv-x="1175" d="M51 958q0 213 144.5 352.5t367.5 139.5q240 0 396.5 -179t156.5 -480q0 -358 -169 -589t-474 -231q-174 0 -277.5 72t-103.5 190q0 88 55.5 146.5t139.5 58.5q76 0 124 -46t48 -120q0 -51 -41 -116q-12 -18 -12 -37q0 -41 69 -41q143 0 212 146.5t69 449.5 q-121 -135 -299 -135q-174 0 -290 118.5t-116 300.5zM406 1006q0 -313 172 -314q78 0 124 80t46 215q0 156 -42 256t-126 100q-174 1 -174 -337z" />
<glyph unicode=":" horiz-adv-x="569" d="M117 162q0 78 56 134t134 56q80 0 136.5 -56t56.5 -134q0 -80 -56.5 -136.5t-138.5 -56.5q-76 0 -132 57.5t-56 135.5zM117 794.5q0 77.5 56 134t134 56.5q80 0 136.5 -56.5t56.5 -133.5q0 -80 -56.5 -136.5t-138.5 -56.5q-76 0 -132 57.5t-56 135z" />
<glyph unicode=";" horiz-adv-x="569" d="M96 154q0 86 56.5 144t140.5 58q92 0 149.5 -68.5t57.5 -178.5q0 -279 -346 -488l-56 82q203 143 203 264q0 12 -8 13h-8q-4 -2 -17 -3q-74 0 -123 50.5t-49 126.5zM106 794.5q0 77.5 56.5 134t134.5 56.5q80 0 136 -56.5t56 -133.5q0 -80 -56 -136.5t-138 -56.5 q-76 0 -132.5 57.5t-56.5 135z" />
<glyph unicode="&#x3c;" horiz-adv-x="1241" d="M133 422v180l928 481v-229l-658 -342l658 -342v-229z" />
<glyph unicode="=" horiz-adv-x="1241" d="M90 225v205h1061v-205h-1061zM90 594v205h1061v-205h-1061z" />
<glyph unicode="&#x3e;" horiz-adv-x="1241" d="M133 -59v229l658 342l-658 342v229l928 -481v-180z" />
<glyph unicode="?" horiz-adv-x="1024" d="M47 1190q0 141 129 230t332 89q215 0 341 -98t126 -266q0 -158 -113 -254l-190 -148q-94 -74 -121 -121t-31 -155h-110q-6 49 -7 86q0 70 23 126t106 208q82 147 82 280q0 109 -50 167.5t-142 58.5q-47 0 -78 -14.5t-31 -37.5q0 -4 26 -29.5t52.5 -66.5t26.5 -82 q0 -72 -49.5 -118t-126.5 -46q-84 0 -139.5 54.5t-55.5 136.5zM276 162q0 80 56.5 136t136.5 56t136.5 -56t56.5 -136t-56.5 -136.5t-138.5 -56.5q-78 0 -134.5 57.5t-56.5 135.5z" />
<glyph unicode="@" horiz-adv-x="1529" d="M49 741q0 319 218 543.5t530 224.5q285 0 483.5 -185t198.5 -452q0 -223 -150.5 -396t-345.5 -173q-72 0 -115 32t-43 83q0 4 4 33q-82 -154 -231 -154q-115 0 -192.5 88t-77.5 217q0 205 135 388.5t325 183.5q68 0 110 -24t81 -81l25 70h213l-189 -590q-14 -43 -14 -76 q0 -45 49 -45q111 0 198 135t87 295q0 229 -156 377.5t-397 148.5q-264 0 -439.5 -181t-175.5 -453q0 -279 177.5 -467.5t439.5 -188.5q164 0 299 76t223 219h141q-78 -193 -271.5 -306.5t-395.5 -113.5q-311 0 -527.5 225t-216.5 547zM539 524q0 -121 94 -121 q100 0 172 170q41 98 82 230.5t41 171.5q0 37 -29 64.5t-68 27.5q-104 0 -198 -193.5t-94 -349.5z" />
<glyph unicode="A" horiz-adv-x="1554" d="M-37 0v111q90 10 155.5 78.5t135.5 234.5l465 1085h155l527 -1269q33 -78 68.5 -101.5t123.5 -27.5v-111h-719v111l35 2q76 4 97.5 12t21.5 37q2 16 -24 84l-78 200h-510l-33 -77q-35 -84 -33 -117q0 -70 47 -102.5t158 -38.5v-111h-592zM469 584h405l-198 489z" />
<glyph unicode="B" horiz-adv-x="1593" d="M35 0v111h31q143 0 167 30q10 12 12.5 34t2.5 120v889q0 100 -2 120.5t-13 34.5q-27 29 -167 29h-31v111h790q182 0 274.5 -17.5t178.5 -64.5q76 -43 119 -118t43 -163q0 -139 -98.5 -222t-305.5 -116q227 -31 349 -132t122 -259q0 -102 -59 -192.5t-158 -133.5 q-137 -61 -426 -61h-829zM616 242q0 -92 19.5 -111.5t105.5 -19.5h62q156 0 234.5 77.5t78.5 221.5q0 150 -82 221t-276 71h-142v-460zM616 815h101q188 0 270 76t82 217q0 127 -70.5 193.5t-205.5 66.5h-62q-59 0 -87 -21.5t-28 -97.5v-434z" />
<glyph unicode="C" horiz-adv-x="1593" d="M82 721q0 344 218 566t556 222q109 0 191.5 -23.5t183.5 -84.5l110 100h89l20 -586l-109 -12q-70 256 -184.5 378t-284.5 122q-188 0 -285.5 -164t-97.5 -481q0 -338 100.5 -500t309.5 -162q176 0 295 117t160 330l127 -31q-59 -274 -218 -408.5t-432 -134.5 q-350 0 -555 226q-194 215 -194 526z" />
<glyph unicode="D" horiz-adv-x="1705" d="M39 0v111h31q143 0 168 30q10 12 12 34t2 120v889q0 98 -2 119.5t-12 33.5q-25 31 -168 31h-31v111h729q217 0 344 -24.5t219 -86.5q293 -193 293 -612q0 -211 -72.5 -373t-210.5 -258q-180 -125 -548 -125h-754zM621 244q0 -82 23.5 -107.5t98.5 -25.5h43 q227 0 329 154.5t102 494.5q0 608 -422 608h-52q-74 0 -98 -24.5t-24 -98.5v-1001z" />
<glyph unicode="E" horiz-adv-x="1554" d="M33 0v111h30q143 0 168 30q10 12 12.5 34t2.5 120v889q0 98 -2 119.5t-13 33.5q-25 31 -168 31h-30v111h1374l12 -533h-106q-49 172 -119 271q-111 152 -346 151h-57q-123 0 -156 -45q-20 -31 -21 -131v-371h76q92 0 158.5 77t83.5 214h110v-694h-110q-16 137 -83 214 t-159 77h-76v-455q0 -84 33 -115q18 -18 47 -23t105 -5h61q186 0 301 105.5t178 334.5h109l-25 -551h-1390z" />
<glyph unicode="F" horiz-adv-x="1478" d="M45 0v111h31q143 0 168 30q10 12 12 34t2 120v889q0 98 -2 119.5t-12 33.5q-25 31 -168 31h-31v111h1356l12 -533h-106q-49 174 -119 271q-111 152 -346 151h-39q-123 0 -156 -45q-20 -31 -20 -131v-371h75q94 0 160 76t82 215h111v-694h-111q-16 137 -82.5 214 t-159.5 77h-75v-414q0 -98 2 -119.5t12 -34.5q25 -31 170 -30h53v-111h-819z" />
<glyph unicode="G" horiz-adv-x="1705" d="M80 717q0 330 203 545q229 248 587 247q111 0 197 -24.5t195 -85.5l120 102h91l18 -588h-109q-51 233 -178 361.5t-309 128.5q-90 0 -167 -41t-122 -113q-117 -188 -117 -520q0 -297 84 -477q39 -84 112 -130t167 -46q139 0 221 91t82 255q0 115 -22.5 135.5t-147.5 20.5 h-39v110h727v-110q-145 -2 -168 -29q-10 -12 -12 -34.5t-2 -121.5v-422h-109l-100 201q-76 -78 -143 -119q-150 -84 -344 -84q-317 0 -516 208t-199 540z" />
<glyph unicode="H" horiz-adv-x="1781" d="M41 0v111h31q143 0 168 30q10 12 12 34t2 120v887q0 100 -2 121.5t-12 33.5q-25 31 -168 31h-31v111h797v-111h-31q-145 0 -170 -31q-10 -12 -12 -33.5t-2 -121.5v-365h534v365q0 100 -2 121.5t-12 33.5q-25 31 -168 31h-31v111h797v-111h-31q-145 0 -170 -31 q-10 -12 -12 -33.5t-2 -121.5v-887q0 -100 2 -120.5t12 -33.5q25 -31 170 -30h31v-111h-797v111h31q143 0 168 30q10 12 12 34t2 120v399h-534v-399q0 -100 2 -120.5t12 -33.5q25 -31 170 -30h31v-111h-797z" />
<glyph unicode="I" horiz-adv-x="909" d="M57 0v111h31q143 0 168 30q10 12 12 34t2 120v889q0 98 -2 119.5t-12 33.5q-25 31 -168 31h-31v111h797v-111h-31q-145 0 -170 -31q-10 -12 -12 -32.5t-2 -120.5v-889q0 -100 2 -120.5t12 -33.5q25 -31 170 -30h31v-111h-797z" />
<glyph unicode="J" horiz-adv-x="1327" d="M8 373q0 131 72 217t182 86q92 0 151.5 -59.5t59.5 -149.5q0 -84 -53 -138.5t-135 -54.5q-12 0 -39 5.5t-35 5.5q-39 0 -39 -39q0 -59 72.5 -105.5t169.5 -46.5q80 0 148.5 33t107.5 88q55 80 55 287v682q0 100 -2 120.5t-12 32.5q-25 31 -168 31h-31v111h797v-111h-31 q-145 0 -170 -31q-10 -12 -12 -32.5t-2 -120.5v-611q0 -604 -590 -604q-229 0 -362.5 108t-133.5 296z" />
<glyph unicode="K" horiz-adv-x="1669" d="M31 0v111h30q143 0 168 30q10 12 12.5 34t2.5 120v889q0 98 -2 119.5t-13 33.5q-25 31 -168 31h-30v111h796v-111h-30q-145 0 -170 -31q-10 -12 -12.5 -33.5t-2.5 -119.5v-479l453 479q63 68 68 112q0 72 -154 72h-49v111h690v-111q-102 -6 -192.5 -58.5t-223.5 -183.5 l-170 -178l426 -680q68 -111 98.5 -132t116.5 -25v-111h-745v111h26q139 0 140 47q0 23 -25 65l-287 469l-172 -180v-217q0 -98 2 -119.5t13 -34.5q25 -31 170 -30h30v-111h-796z" />
<glyph unicode="L" horiz-adv-x="1478" d="M39 0v111h31q143 0 168 30q10 12 12 34t2 122v887q0 98 -2 119.5t-12 33.5q-25 31 -168 31h-31v111h811v-111h-45q-145 0 -170 -31q-10 -12 -12 -33.5t-2 -119.5v-930q0 -84 32 -115q18 -18 47 -23t105 -5h43q217 0 346 153q78 94 133 287h109l-25 -551h-1372z" />
<glyph unicode="M" horiz-adv-x="2009" d="M18 0v111q119 2 168 55q33 35 43.5 89t10.5 189v740q0 98 -2 119.5t-13 33.5q-25 31 -170 31h-22v111h659l318 -881l299 881h667v-111h-22q-145 0 -170 -31q-10 -12 -12.5 -33.5t-2.5 -119.5v-889q0 -98 2.5 -119.5t12.5 -34.5q25 -31 170 -30h22v-111h-782v111h23 q145 0 169 30q10 12 12.5 34t2.5 120v1022l-453 -1317h-106l-465 1296v-852q0 -137 10 -190t43 -88q49 -51 172 -55v-111h-584z" />
<glyph unicode="N" horiz-adv-x="1705" d="M33 2v111q57 2 85.5 7t60.5 22.5t45.5 53t21.5 95t8 153.5v807q-78 111 -217 115v113h516l790 -926v481q0 135 -10 189.5t-43 89.5q-49 53 -168 55v111h584v-111q-123 -4 -172 -55q-33 -35 -43 -88.5t-10 -190.5v-1048h-138l-952 1132v-674q0 -135 10.5 -188t42.5 -88 q47 -49 172 -55v-111h-583z" />
<glyph unicode="O" horiz-adv-x="1705" d="M80 717q0 332 217 562t557 230q336 0 554 -229t218 -561q0 -322 -214 -536t-568 -214q-334 0 -549 211t-215 537zM489 756q0 -309 90.5 -494.5t276.5 -185.5q176 0 268.5 165t92.5 476q0 317 -91.5 501.5t-269.5 184.5q-367 0 -367 -647z" />
<glyph unicode="P" horiz-adv-x="1554" d="M49 0v111h31q141 0 168 28q10 14 12 35t2 121v887q0 100 -2 120.5t-12 34.5q-27 29 -168 29h-31v113h813q328 0 485.5 -99.5t157.5 -312.5q0 -432 -645 -432h-229v-340q0 -100 2 -120.5t12 -35.5q27 -29 170 -28h45v-111h-811zM631 748h119q199 0 279.5 72.5t80.5 248.5 q0 154 -69.5 225.5t-215.5 71.5h-82q-70 0 -91 -23.5t-21 -99.5v-495z" />
<glyph unicode="Q" horiz-adv-x="1705" d="M78 743q0 326 222 546t552 220q319 0 542.5 -223t223.5 -543q0 -199 -92 -371.5t-256 -281.5q43 -162 83 -223.5t91 -61.5q47 0 69.5 36t30.5 122h111q0 -150 -98.5 -249t-253.5 -99q-152 0 -244 82t-92 190v93q-61 -10 -129 -11q-317 0 -538.5 225t-221.5 549zM487 776 q0 -258 43 -389q80 207 295 207q240 0 332 -236q51 135 51 400q0 289 -88 467t-272 178q-361 0 -361 -627zM612 270q0 -88 63.5 -141t166.5 -53q63 0 129 33q6 68 6 96q0 131 -47 201.5t-137 70.5q-80 0 -130.5 -58.5t-50.5 -148.5z" />
<glyph unicode="R" horiz-adv-x="1669" d="M41 2v111h31q141 0 168 28q10 14 12 35t2 121v887q0 100 -2 120.5t-12 34.5q-27 29 -168 29h-31v111h874q287 0 404 -74q166 -109 166 -297q0 -154 -98.5 -241t-311.5 -128q133 -43 196.5 -118.5t90.5 -217.5l14 -77q18 -127 33.5 -156t58.5 -29q90 0 95 195h110 q0 -166 -92 -266.5t-256 -100.5q-133 0 -218 62.5t-110 181.5q-14 76 -28 256q-12 152 -61.5 197t-170.5 45h-114v-414q0 -100 2 -120.5t12 -35.5q27 -29 170 -28h53v-111h-819zM623 823h112q205 0 282 59.5t77 215.5q0 139 -66.5 204.5t-210.5 65.5h-49q-98 0 -121.5 -21.5 t-23.5 -109.5v-414z" />
<glyph unicode="S" horiz-adv-x="1366" d="M104 565h105q84 -231 228.5 -360t318.5 -129q133 0 214 65.5t81 173.5q0 115 -90 164q-57 31 -222 62l-127 24q-242 45 -374 172t-132 316q0 205 146.5 330.5t384.5 125.5q205 0 369 -110l106 94h92l27 -530h-109q-182 440 -504 440q-121 0 -198.5 -60.5t-77.5 -154.5 q0 -127 139 -176q51 -18 209 -49l98 -23q266 -59 387 -174t121 -309q0 -215 -150.5 -351.5t-389.5 -136.5q-238 0 -420 137l-127 -120h-92z" />
<glyph unicode="T" horiz-adv-x="1478" d="M31 924l30 555h1356l31 -555h-109q-41 223 -120 327q-94 121 -222 121q-45 0 -59 -15.5t-14 -68.5v-993q0 -98 2 -119.5t12 -34.5q25 -31 170 -30h45v-111h-827v111h45q145 0 170 30q10 12 12 34t2 120v993q0 53 -14.5 68.5t-59.5 15.5q-141 0 -237 -145 q-70 -100 -105 -303h-108z" />
<glyph unicode="U" horiz-adv-x="1705" d="M31 1368v111h796v-111h-30q-145 0 -170 -31q-10 -12 -12.5 -33.5t-2.5 -119.5v-656q0 -233 80 -319t250 -86q258 0 348 194q35 76 35 306v411q0 137 -10 190.5t-43 88.5q-49 53 -168 55v111h584v-111q-123 -4 -172 -55q-33 -35 -43.5 -89.5t-10.5 -189.5v-411 q0 -180 -15 -268.5t-58 -157.5q-76 -119 -200 -173.5t-321 -54.5q-442 0 -571 236q-53 98 -53 330v649q0 98 -2 119.5t-13 33.5q-25 31 -168 31h-30z" />
<glyph unicode="V" horiz-adv-x="1554" d="M-37 1368v111h742v-111h-43q-127 0 -127 -51q0 -18 18 -68l326 -827l290 729q18 47 19 78q0 139 -199 139v111h604v-111q-182 -18 -282 -260l-469 -1139h-180l-498 1258q-35 88 -73 114.5t-128 26.5z" />
<glyph unicode="W" horiz-adv-x="2009" d="M12 1368v111h635v-111q-72 -4 -96.5 -14.5t-24.5 -36.5q0 -23 17 -70l237 -733l164 514l-74 232q-20 66 -45.5 85t-85.5 23v111h607v-111q-74 -4 -97.5 -15.5t-23.5 -39.5q0 -18 12 -56l219 -729l178 584q27 88 27 125q0 63 -43 96t-141 35v111h516v-111 q-92 -18 -134 -70.5t-87 -203.5l-357 -1125h-149l-256 834l-271 -834h-153l-418 1280q-25 74 -55.5 96.5t-100.5 22.5z" />
<glyph unicode="X" horiz-adv-x="1478" d="M-25 0v111q90 4 148.5 39.5t146.5 144.5l301 371l-419 598q-43 61 -76 80.5t-101 23.5v111h734v-111q-90 -4 -115 -12t-25 -37q0 -25 21 -53l215 -310l143 177q70 84 70 131q0 104 -197 104v111h631v-111q-82 -8 -143.5 -43t-126.5 -115l-299 -364l362 -529 q94 -137 136 -169.5t124 -36.5v-111h-737v111q76 2 105.5 12t29.5 37q0 29 -26 69l-224 320l-180 -230q-41 -51 -41 -102q0 -53 52.5 -77.5t168.5 -28.5v-111h-678z" />
<glyph unicode="Y" horiz-adv-x="1478" d="M-25 1368v111h738v-111h-33q-115 0 -115 -45q0 -25 25 -63l270 -449l205 365q25 41 29 94q0 45 -41 71.5t-109 26.5h-43v111h604v-111q-166 -12 -274 -190l-307 -527v-356q0 -98 2 -119.5t12 -34.5q25 -31 170 -30h45v-111h-827v111h45q145 0 170 30q10 12 12 34t2 120 v330l-418 669q-27 45 -60.5 59.5t-101.5 14.5z" />
<glyph unicode="Z" horiz-adv-x="1366" d="M49 0v119l821 1247h-151q-164 0 -250 -36t-154 -130q-63 -86 -110 -237h-105l25 516h1173v-115l-821 -1251h182q186 0 267 41q98 49 167.5 156.5t96.5 254.5h108l-32 -565h-1217z" />
<glyph unicode="[" horiz-adv-x="796" d="M172 -221v1700h522v-103h-270v-1495h270v-102h-522z" />
<glyph unicode="\" horiz-adv-x="1241" d="M102 1509h152l883 -1509h-152z" />
<glyph unicode="]" horiz-adv-x="796" d="M63 -119h271v1495h-271v103h523v-1700h-523v102z" />
<glyph unicode="^" horiz-adv-x="1241" d="M106 651l429 828h174l426 -828h-244l-268 512l-273 -512h-244z" />
<glyph unicode="_" horiz-adv-x="1024" d="M0 -119h1024v-184h-1024v184z" />
<glyph unicode="`" horiz-adv-x="681" d="M4 1380q0 43 34 73t83 30q45 0 74.5 -19.5t83.5 -85.5l231 -282h-131l-301 178q-74 43 -74 106z" />
<glyph unicode="a" d="M74 209q0 145 122.5 219t471.5 150q25 2 67 14v106q0 106 -38 150.5t-130 44.5q-61 0 -106 -19.5t-45 -46.5l22 -45q25 -43 25 -67q0 -57 -48 -95t-120 -38t-119 44t-47 109q0 121 128 192.5t339 71.5q233 0 347 -78.5t114 -269.5v-360q0 -90 11 -119t44 -29 q10 0 39 14.5t41 14.5q31 0 31 -33q0 -66 -69 -118t-157 -52q-162 0 -217 146q-82 -80 -170 -113t-221 -33q-150 0 -232.5 63.5t-82.5 176.5zM416 252q0 -66 35.5 -104.5t95.5 -38.5q86 0 137 69.5t51 188.5v114l-108 -24q-211 -47 -211 -205z" />
<glyph unicode="b" horiz-adv-x="1327" d="M0 1374v105l492 30v-663q121 154 317 153q195 0 319.5 -139t124.5 -358q0 -238 -145 -385.5t-379 -147.5q-217 0 -354 166l-133 -164h-101q29 158 29 451v762q0 137 -18.5 163.5t-112.5 26.5h-39zM489 434q0 -174 53.5 -266t153.5 -92q203 0 203 401q0 369 -192 369 q-218 0 -218 -412z" />
<glyph unicode="c" horiz-adv-x="1138" d="M63 469q0 231 165 380.5t421 149.5q186 0 297 -75.5t111 -202.5q0 -78 -50.5 -126t-134.5 -48q-74 0 -120.5 42t-46.5 107q0 47 43 101q23 27 22 39q0 25 -31.5 41t-76.5 16q-115 0 -179.5 -102.5t-64.5 -284.5q0 -190 68.5 -293.5t193.5 -103.5q104 0 173 61t120 192 l106 -34q-113 -358 -465 -359q-248 0 -399.5 137.5t-151.5 362.5z" />
<glyph unicode="d" horiz-adv-x="1366" d="M76 469q0 223 135 376.5t332 153.5q186 0 299 -137v322q0 137 -18.5 163.5t-112.5 26.5h-66v105l518 30v-1259q0 -80 25 -103q16 -14 96 -14h55v-110l-479 -23v147q-121 -178 -336 -178q-201 0 -324.5 138.5t-123.5 361.5zM430 473q0 -174 53.5 -269t149.5 -95 q94 0 153.5 104t59.5 272q0 170 -57.5 272.5t-151.5 102.5q-98 0 -152.5 -102.5t-54.5 -284.5z" />
<glyph unicode="e" horiz-adv-x="1175" d="M66 475q0 223 156.5 373.5t393.5 150.5q223 0 356.5 -135t133.5 -364v-33h-686q0 -186 75.5 -272t202.5 -86q100 0 173 54t135 173l100 -41q-133 -326 -488 -326q-252 0 -402 141.5t-150 364.5zM422 580h307q31 0 43 14t12 51q0 248 -161 248q-92 0 -146.5 -84 t-54.5 -229z" />
<glyph unicode="f" horiz-adv-x="796" d="M29 846v123h178v26q0 227 123 366.5t323 139.5q127 0 212 -63.5t85 -159.5q0 -72 -47 -120t-117 -48q-66 0 -109.5 41t-43.5 100q0 31 30.5 78t30.5 49q0 16 -32 17q-31 0 -63 -23.5t-46 -58.5q-25 -53 -25 -228v-116h256v-123h-256v-647q0 -61 28 -79t126 -18h37v-102 h-676v102h29q96 0 115.5 15.5t19.5 81.5v647h-178z" />
<glyph unicode="g" d="M61 -213q0 72 57.5 119t160.5 63q-186 51 -187 191q0 158 238 200q-225 78 -226 289q0 152 136.5 251t347.5 99q156 0 274 -59q129 162 262 162q68 0 110 -37t42 -96q0 -55 -37 -93t-90 -38q-41 0 -76 28.5t-35 63.5v8q0 10 -10 10q-35 0 -76 -57q68 -55 95.5 -107.5 t27.5 -124.5q0 -158 -122 -245.5t-355 -87.5h-37q-88 0 -121.5 -14.5t-33.5 -53.5q0 -37 25.5 -48t107.5 -11h141q258 0 366.5 -58.5t108.5 -214.5q0 -164 -153.5 -252t-440.5 -88q-500 0 -500 201zM328 -188q0 -57 64.5 -88t182.5 -31q313 0 314 125q0 35 -9.5 52 t-58.5 29.5t-149 12.5h-269q-75 -32 -75 -100zM436 668q0 -244 156 -244q72 0 111.5 61.5t39.5 169.5q0 238 -149 238q-158 0 -158 -225z" />
<glyph unicode="h" horiz-adv-x="1402" d="M33 1374v105l491 30v-698q123 188 348 188q166 0 252 -98q78 -84 78 -264v-436q0 -66 19.5 -81.5t113.5 -15.5h29v-104h-625v104q90 0 116 17.5t26 77.5v409q0 201 -146 201q-57 0 -106 -33t-74 -88q-31 -68 -31 -194v-293q0 -63 24.5 -80t115.5 -17v-104h-625v104h29 q96 0 115.5 15.5t19.5 79.5v977q-2 145 -19.5 171.5t-111.5 26.5h-39z" />
<glyph unicode="i" horiz-adv-x="757" d="M57 0v104h29q92 0 111.5 15.5t19.5 81.5v456q0 137 -18.5 165t-112.5 28h-29v104l482 15v-770q0 -63 18 -79t109 -16h32v-104h-641zM233 1290.5q0 59.5 43 101.5t102.5 42t101.5 -43t42 -101q0 -61 -43 -103t-102.5 -42t-101.5 43t-42 102.5z" />
<glyph unicode="j" horiz-adv-x="720" d="M-168 -209q0 66 45 110t115 44q57 0 95 -39t38 -99q0 -63 -59 -102q16 -23 53 -22q109 0 108 202v789q0 123 -20.5 149.5t-110.5 26.5h-65v104l518 15v-746q0 -293 -72 -430q-47 -94 -144 -150.5t-214 -56.5q-125 0 -206 57.5t-81 147.5zM231 1290.5q0 59.5 43 101.5 t103 42q57 0 100 -43t43 -101q0 -61 -43 -103t-102.5 -42t-101.5 43t-42 102.5z" />
<glyph unicode="k" horiz-adv-x="1366" d="M25 1374v105l491 30v-1005l254 221q51 45 51 82q0 57 -123 57h-24v105h602v-105h-47q-109 0 -221 -96l-158 -131l321 -401q68 -88 97.5 -110t83.5 -22v-104h-627v104h27q74 0 73 41q0 31 -26 64l-189 227l-94 -84v-151q0 -61 25.5 -79t113.5 -18v-104h-624v104h28 q96 0 116 15.5t20 79.5v985q0 137 -18.5 163.5t-113.5 26.5h-38z" />
<glyph unicode="l" horiz-adv-x="720" d="M33 1374v105l491 30v-1310q0 -63 31 -80q25 -14 94 -15h29v-104h-639v104h29q96 0 115.5 15.5t19.5 79.5v985q0 137 -18.5 163.5t-112.5 26.5h-39z" />
<glyph unicode="m" horiz-adv-x="1972" d="M41 0v104h31q94 0 113.5 15.5t19.5 81.5v456q0 137 -18.5 165t-112.5 28h-33v104l467 15v-162q123 193 328 192q102 0 179 -49t109 -135q72 98 148 141t174 43q137 0 229 -85t92 -212v-503q0 -63 19.5 -79t114.5 -16h28v-104h-602v104q78 2 98.5 18.5t20.5 76.5v428 q0 182 -113 182q-86 0 -136 -65.5t-50 -174.5v-370q0 -59 20.5 -76t98.5 -19v-104h-557v104q76 2 96 18.5t20 78.5v417q0 100 -26.5 145.5t-85.5 45.5q-84 0 -135.5 -65.5t-51.5 -174.5v-370q0 -59 20.5 -76t98.5 -19v-104h-604z" />
<glyph unicode="n" horiz-adv-x="1402" d="M41 0v104h29q94 0 113.5 15.5t19.5 81.5v450q0 143 -18.5 171t-112.5 28h-31v104l469 15v-181q76 115 160 163t204 48q168 0 254 -98q78 -84 78 -264v-436q0 -66 19.5 -81.5t113.5 -15.5h29v-104h-625v104q90 0 116 17.5t26 77.5v409q0 201 -150 201q-55 0 -104 -33 t-74 -88q-33 -66 -33 -194v-295q0 -59 25.5 -77t116.5 -18v-104h-625z" />
<glyph unicode="o" d="M63 483q0 221 162 368.5t406 147.5q233 0 394 -150.5t161 -369.5t-161 -364.5t-402.5 -145.5t-400.5 145.5t-159 368.5zM418 483q0 -408 207 -407q98 0 152 105.5t54 299.5q0 412 -204 412q-209 0 -209 -410z" />
<glyph unicode="p" horiz-adv-x="1366" d="M37 -311h29q94 0 113.5 15t19.5 81v866q-2 145 -19.5 172t-111.5 27h-31v104l483 15v-131q70 88 142.5 124.5t177.5 36.5q197 0 325.5 -139t128.5 -350q0 -229 -138 -385t-345 -156q-170 0 -291 133v-317q0 -63 24.5 -79.5t123.5 -16.5h30v-103h-661v103zM518 469 q0 -174 56.5 -267t158.5 -93q96 0 151.5 97t55.5 269q0 371 -190 371q-113 0 -172.5 -97.5t-59.5 -279.5z" />
<glyph unicode="q" horiz-adv-x="1327" d="M70 475q0 225 148.5 374.5t373.5 149.5q223 0 356 -165l131 163h101q-31 -244 -31 -440v-772q0 -66 19.5 -81t113.5 -15h29v-103h-662v103h29q98 0 123.5 17.5t25.5 78.5v334q-129 -150 -315 -150q-90 0 -177 38t-140 102q-57 63 -91 163.5t-34 202.5zM424 483 q0 -375 199 -374q98 0 154.5 109.5t56.5 299.5q0 158 -35 244q-25 59 -71 95t-97 36q-207 0 -207 -410z" />
<glyph unicode="r" horiz-adv-x="1062" d="M37 0v104h29q94 0 113.5 15.5t19.5 81.5v450q0 143 -18.5 171t-112.5 28h-31v104l457 15v-248q109 279 340 278q98 0 161.5 -58t63.5 -148q0 -76 -50.5 -126.5t-125.5 -50.5q-66 0 -110 43t-44 109q0 47 35 96q-96 -29 -156 -133q-86 -152 -86 -395v-135q0 -63 28 -80 t126 -17h45v-104h-684z" />
<glyph unicode="s" horiz-adv-x="1024" d="M78 358h92q143 -283 373 -282q82 0 129 32.5t47 88.5q0 88 -144 118l-149 33q-172 37 -254 117q-86 82 -86 203q0 145 111.5 238t283.5 93q141 0 254 -65l76 45h88l8 -324h-96q-76 125 -152.5 181.5t-175.5 56.5q-76 0 -124 -34t-48 -85q0 -39 25.5 -59.5t101.5 -40.5 l185 -45q111 -27 156.5 -47.5t86.5 -55.5q88 -78 88 -209q0 -154 -114.5 -251t-296.5 -97q-168 0 -289 72l-80 -37h-86z" />
<glyph unicode="t" horiz-adv-x="872" d="M47 846v106q289 33 338 422h129v-405h266v-123h-266v-527q0 -104 15.5 -140t60.5 -36q129 0 129 238h108q2 -20 2 -47q0 -156 -90 -260.5t-256 -104.5q-180 0 -247 113q-27 43 -35 96t-8 178v490h-146z" />
<glyph unicode="u" horiz-adv-x="1402" d="M27 850v104l485 15v-590q0 -117 34 -168t111 -51q57 0 107.5 31.5t75.5 84.5q35 68 34 211v164q0 143 -18 171t-113 28h-32v104l485 15v-748q0 -55 20.5 -71.5t92.5 -16.5h57v-110l-477 -23v168q-88 -109 -171 -154t-192 -45q-217 0 -303 176q-20 43 -26.5 87t-6.5 159 v260q-2 145 -19 172t-112 27h-32z" />
<glyph unicode="v" d="M25 866v103h577v-103q-106 0 -106 -47q0 -20 16 -53l219 -479l150 377q37 90 37 122q0 43 -37 61.5t-121 18.5v103h465v-103h-19q-59 0 -95 -36.5t-81 -143.5l-315 -715h-174l-377 787q-33 68 -57.5 86t-81.5 22z" />
<glyph unicode="w" horiz-adv-x="1820" d="M39 864v105h565v-105q-61 -2 -80.5 -11t-19.5 -38q0 -10 14 -47l178 -453l148 349l-51 122q-20 47 -44 62.5t-81 15.5v105h571v-105h-25q-57 0 -78.5 -11t-21.5 -36q0 -18 12 -45l189 -457l143 349q29 70 29 106q0 94 -131 94h-25v105h463v-105q-70 -4 -108.5 -40 t-83.5 -134l-322 -719h-154l-219 539l-233 -539h-156l-334 779q-29 66 -57.5 89t-87.5 25z" />
<glyph unicode="x" d="M27 0v104q86 2 182 95l248 235l-293 350q-39 47 -64.5 61.5t-72.5 18.5v105h606v-105h-23q-68 0 -67 -33q0 -18 22 -43l117 -141l104 101q43 41 43 69q0 47 -81 47h-48v105h504v-105q-119 0 -233 -106l-213 -201l282 -336q61 -76 94 -95.5t91 -21.5v-104h-643v104h24 q72 0 72 48q0 20 -23 45l-120 145l-123 -121q-29 -29 -29 -59q0 -57 96 -58h27v-104h-479z" />
<glyph unicode="y" d="M20 -233q0 76 51.5 127t127.5 51q68 0 110.5 -39t42.5 -101q0 -18 -9 -41.5t-9 -33.5q0 -12 18 -13h2q85 0 172 162l47 88l-419 815q-27 51 -48.5 65.5t-76.5 16.5v105h581v-105h-37q-72 0 -71 -43q0 -23 16 -55l217 -442l170 374q18 45 19 84q0 82 -129 82h-31v105h461 v-105q-63 -4 -103.5 -40t-83.5 -128l-358 -772q-84 -182 -180.5 -264t-225.5 -82q-115 0 -184.5 52.5t-69.5 136.5z" />
<glyph unicode="z" horiz-adv-x="1099" d="M72 0v90l557 776h-105q-106 0 -148 -11t-77 -46q-39 -41 -90 -209h-105l25 369h885v-99l-553 -768h127q104 0 144 14.5t81 63.5q61 76 100 209h101l-21 -389h-921z" />
<glyph unicode="{" horiz-adv-x="796" d="M172 584v90l56 14q15 4 39 16.5t31 28t16.5 45t11.5 68.5t2 100v225q0 178 62.5 243t205.5 65h106v-95q-68 -6 -95 -37.5t-27 -105.5v-356q0 -119 -44 -172.5t-165 -83.5q121 -31 165 -84t44 -172v-242q0 -133 2 -158.5t16 -48.5q27 -43 104 -51v-94h-106 q-143 0 -205.5 64.5t-62.5 242.5v225q0 102 -4.5 134t-20.5 61q-18 31 -45 46.5t-86 31.5z" />
<glyph unicode="|" horiz-adv-x="1241" d="M518 -221v1700h205v-1700h-205z" />
<glyph unicode="}" horiz-adv-x="796" d="M63 -127q80 8 107 51q14 23 17 48.5t3 158.5v242q0 119 44.5 172t164.5 84q-121 31 -165 84t-44 172v356q0 72 -28.5 104.5t-98.5 38.5v95h111q143 0 205.5 -64.5t62.5 -243.5v-225q0 -90 5.5 -139t28 -77t43 -35t75.5 -21v-90q-72 -18 -97.5 -35t-40 -68t-14.5 -170 v-225q0 -178 -62.5 -242.5t-205.5 -64.5h-111v94z" />
<glyph unicode="~" horiz-adv-x="1241" d="M104 455q123 231 295 231q49 0 185 -47l108 -39q109 -41 135 -39q35 0 65 22.5t73 84.5l172 -109q-127 -231 -295 -231q-57 0 -185 47l-108 39q-117 41 -135 39q-35 0 -65 -22.5t-73 -84.5z" />
<glyph unicode="&#xa1;" horiz-adv-x="606" d="M106 -336q0 59 10.5 106.5t59.5 217.5q55 190 68 514h108q10 -223 28.5 -338t80.5 -318q29 -96 28 -182q0 -96 -51 -150.5t-141 -54.5t-140.5 54.5t-50.5 150.5zM106 807q0 80 56.5 136t138.5 56q76 0 132 -57t56 -135t-56 -134.5t-134 -56.5q-80 0 -136.5 56.5 t-56.5 134.5z" />
<glyph unicode="&#xa2;" horiz-adv-x="1175" d="M74 469q0 227 166 378.5t415 151.5q102 0 195 -28l104 190h115l-127 -231q129 -80 129 -207q0 -78 -50 -129t-128 -51q-82 0 -131 53l-232 -426q59 -59 164 -59q217 0 293 245l107 -32q-63 -182 -181 -267.5t-309 -85.5q-98 0 -168 23l-117 -213h-118l137 252 q-127 70 -195.5 183.5t-68.5 252.5zM428 494q0 -113 41 -222l270 496l23 29q25 29 24 43q0 23 -31.5 38t-76.5 15q-115 0 -182.5 -107.5t-67.5 -291.5z" />
<glyph unicode="&#xa3;" horiz-adv-x="1175" d="M39 158q0 84 62.5 141t156.5 57q63 0 143 -26q2 20 2 47q0 55 -23.5 138t-55.5 136h-254v123h209q-49 145 -50 250q0 184 135.5 305t342.5 121q176 0 290.5 -92t114.5 -236q0 -88 -55.5 -145t-138.5 -57q-70 0 -116 45t-46 112q0 84 82 127q49 27 49 49q0 37 -46 63.5 t-110 26.5q-84 0 -136 -51t-52 -133q0 -106 80 -385h317v-123h-299q8 -63 8 -92q0 -123 -76 -274q115 -41 230 -41q96 0 153.5 39t87.5 127l105 -29q-37 -199 -130 -304.5t-233 -105.5q-158 0 -313 131q-90 -131 -233 -131q-90 0 -145.5 52.5t-55.5 134.5zM141 162 q0 -37 26 -60.5t64 -23.5q94 0 142 110q-70 61 -135 62q-43 0 -70 -24.5t-27 -63.5z" />
<glyph unicode="&#xa4;" horiz-adv-x="1175" d="M68 1077l159 160l88 -88q121 78 273 78q137 0 270 -78l88 88l160 -160l-88 -86q78 -127 78 -274q0 -141 -78 -271l88 -88l-160 -159l-88 88q-131 -78 -270 -78q-143 0 -273 78l-88 -86l-157 157l86 88q-78 125 -78 271q0 156 78 272zM324 718.5q0 -106.5 76.5 -184 t183.5 -77.5q113 0 189.5 75.5t76.5 186.5q0 106 -77 183t-185.5 77t-186 -77t-77.5 -183.5z" />
<glyph unicode="&#xa5;" horiz-adv-x="1175" d="M6 1368v111h553v-111h-12q-53 0 -53 -39q0 -18 22 -69l191 -449l147 365q20 53 20 96t-23.5 69.5t-62.5 26.5h-40v111h421v-111q-115 -12 -186 -190l-178 -443h190v-123h-225v-135h225v-123h-225v-59q0 -137 10 -154q16 -31 119 -30h31v-111h-686v111h30q100 0 117 30 q10 16 10 154v59h-227v123h227v135h-227v123h180l-237 559q-20 43 -43 58.5t-68 15.5z" />
<glyph unicode="&#xa6;" horiz-adv-x="1241" d="M518 -221v680h205v-680h-205zM518 799v680h205v-680h-205z" />
<glyph unicode="&#xa7;" horiz-adv-x="1024" d="M129 686q0 111 64.5 183.5t168.5 80.5q-88 80 -116.5 132.5t-28.5 131.5q0 133 83 214t222 81q121 0 195 -57t74 -154q0 -51 -33 -83.5t-84 -32.5q-49 0 -82 29.5t-33 72.5q0 20 26.5 60t26.5 51q0 20 -27.5 34.5t-66.5 14.5q-59 0 -103 -36t-44 -87q0 -70 114 -164 l217 -178q195 -162 195 -338q0 -106 -62.5 -182t-152.5 -76h-12q84 -76 114.5 -135.5t30.5 -141.5q0 -129 -88 -206.5t-233 -77.5q-125 0 -208 58.5t-83 146.5q0 59 35.5 97t91.5 38q47 0 78.5 -32t31.5 -77q0 -25 -29.5 -63.5t-29.5 -44.5q0 -25 30.5 -41.5t75.5 -16.5 q72 0 118 35t46 92q0 59 -55 115q-12 12 -111 96l-231 201q-125 106 -125 260zM283 762q0 -35 17 -63.5t67 -71.5l110 -99q74 -68 152 -67q47 0 80.5 31.5t33.5 76.5q0 59 -88 136l-104 90q-86 76 -152 75q-49 0 -82.5 -31.5t-33.5 -76.5z" />
<glyph unicode="&#xa8;" horiz-adv-x="681" d="M-23 1292.5q0 59.5 43 101.5t103 42q57 0 100 -42t43 -102q0 -61 -43 -103t-102.5 -42t-101.5 43t-42 102.5zM418 1292.5q0 59.5 43 101.5t102.5 42t101.5 -42t42 -102q0 -61 -43 -103t-102.5 -42t-101.5 43t-42 102.5z" />
<glyph unicode="&#xa9;" horiz-adv-x="1529" d="M43 694q0 299 212 512t511 213t512 -213t213 -512t-213 -511t-512 -212t-511 212t-212 511zM141 694q0 -260 182.5 -442t442.5 -182t443.5 182t183.5 442t-183.5 443.5t-443.5 183.5t-442.5 -183.5t-182.5 -443.5zM385 686q0 170 121 277.5t305 107.5q102 0 193 -49 l55 45h61l10 -293l-77 -8q-66 231 -234 231q-176 0 -176 -292q0 -154 45 -228t146 -74q88 0 147 54.5t78 152.5l90 -18q-61 -272 -352 -273q-195 0 -308 113q-104 104 -104 254z" />
<glyph unicode="&#xaa;" horiz-adv-x="751" d="M2 1034q0 104 141 162q74 29 287 68v63q0 63 -24.5 90t-81.5 27q-39 0 -69 -11.5t-30 -27.5q0 -2 14.5 -28.5t14.5 -39.5q0 -33 -32 -56.5t-77 -23.5q-47 0 -77.5 27t-30.5 66q0 72 83 115.5t220 43.5q152 0 226.5 -47t74.5 -162v-217q0 -53 7 -69.5t30 -16.5 q6 0 25.5 7.5t25.5 7.5q18 0 19 -19q0 -41 -44.5 -71.5t-101.5 -30.5q-102 0 -141 82q-111 -82 -254 -82q-96 0 -150.5 37.5t-54.5 105.5zM18 600v123h668v-123h-668zM227 1061q0 -39 22.5 -62.5t61.5 -23.5q53 0 86 42t33 111v70l-70 -14q-133 -29 -133 -123z" />
<glyph unicode="&#xab;" horiz-adv-x="1024" d="M100 516v29l314 272q39 41 59 41q8 0 16.5 -8t8.5 -16q0 -16 -39 -84l-131 -220l131 -219q39 -66 39 -82q0 -8 -9.5 -16t-17.5 -8q-16 0 -57 41zM508 516v29l313 272q39 41 60 41q8 0 16 -8t8 -16q0 -16 -39 -84l-131 -220l131 -219q39 -66 39 -82q0 -8 -9 -16t-17 -8 q-16 0 -58 41z" />
<glyph unicode="&#xac;" horiz-adv-x="1241" d="M90 594v205h1061v-471h-205v266h-856z" />
<glyph unicode="&#xad;" horiz-adv-x="681" d="M86 369v266h510v-266h-510z" />
<glyph unicode="&#xae;" horiz-adv-x="1529" d="M43 694q0 299 212 512t511 213t512 -213t213 -512t-213 -511t-512 -212t-511 212t-212 511zM141 694q0 -260 182.5 -442t442.5 -182t443.5 182t183.5 442t-183.5 443.5t-443.5 183.5t-442.5 -183.5t-182.5 -443.5zM328 340v78h20q61 0 67.5 6t6.5 68v419q0 61 -6 68 q-6 8 -68 8h-20v76h460q158 0 226 -39q92 -53 92 -147q0 -137 -186 -179q100 -41 122 -153l9 -37q8 -57 11 -67.5t13 -10.5q43 0 43 86h86q2 -86 -53 -138t-150 -52q-164 0 -194 125q-8 57 -14 122q-4 63 -24.5 83t-74.5 20h-37v-184q0 -61 6.5 -67.5t67.5 -6.5h35v-78h-438 zM657 754h37q94 0 129 25.5t35 90.5q0 117 -121 117h-26q-37 0 -45.5 -9t-8.5 -42v-182z" />
<glyph unicode="&#xaf;" horiz-adv-x="681" d="M-10 1208v164h704v-164h-704z" />
<glyph unicode="&#xb0;" horiz-adv-x="819" d="M102 1094q0 131 91.5 221t222.5 90q127 0 214 -90t87 -223q0 -131 -89 -222.5t-218 -91.5t-218.5 91.5t-89.5 224.5zM217 1092q0 -82 57.5 -139.5t135.5 -57.5q80 0 135 57.5t55 139.5t-54 139t-132 57q-82 0 -139.5 -57t-57.5 -139z" />
<glyph unicode="&#xb1;" horiz-adv-x="1241" d="M90 0v205h1061v-205h-1061zM90 614v205h428v428h205v-428h428v-205h-428v-225h-205v225h-428z" />
<glyph unicode="&#xb2;" horiz-adv-x="704" d="M10 575v66q86 115 258 287q102 100 139 163.5t37 135.5q0 137 -137 137q-45 0 -87 -23.5t-42 -50.5q0 -10 17 -16q94 -35 94 -115q0 -47 -33 -76.5t-84 -29.5q-59 0 -96 40t-37 105q0 106 92 179t225 73q137 0 230.5 -67.5t93.5 -168.5q0 -104 -66.5 -173.5 t-263.5 -188.5q-61 -39 -112 -78l301 2q27 2 36 13.5t19 60.5l14 65h84l-33 -340q-82 4 -84 5h-491z" />
<glyph unicode="&#xb3;" horiz-adv-x="704" d="M16 774q0 55 35 89t88 34q51 0 85 -30.5t34 -75.5q0 -47 -53 -91q-10 -10 -10 -18q0 -14 35.5 -28.5t72.5 -14.5q72 0 111 48t39 138q0 164 -117 164q-8 0 -47 -4l-41 -4q-25 0 -40 15.5t-15 37.5q0 47 53 47q6 0 47 -8t55 -8q90 0 90 164q0 70 -31.5 107.5t-89.5 37.5 q-31 0 -60.5 -12t-29.5 -27q0 4 13.5 -12t28 -43t14.5 -49q0 -47 -31 -76t-80 -29q-51 0 -87 34t-36 83q0 88 86 147.5t215 59.5q139 0 226.5 -60.5t87.5 -160.5q0 -72 -43 -115t-138 -80q117 -25 161 -78t44 -135q0 -119 -94 -188.5t-256 -69.5q-143 0 -232.5 58.5 t-89.5 152.5z" />
<glyph unicode="&#xb4;" horiz-adv-x="681" d="M172 1096l231 282q53 66 83 85.5t75 19.5q49 0 83 -30t34 -73q0 -63 -74 -106l-301 -178h-131z" />
<glyph unicode="&#xb5;" horiz-adv-x="1402" d="M27 850v104l485 15v-590q0 -117 34 -168t111 -51q57 0 107.5 31.5t75.5 84.5q35 68 34 211v164q0 143 -18 171t-113 28h-32v104l485 15v-701q0 -98 15.5 -116.5t97.5 -18.5h57v-110l-477 -23v168q-164 -199 -344 -199q-150 0 -232 113q0 -78 5.5 -102.5t31.5 -88.5 q59 -137 60 -186q0 -70 -42 -112t-112 -42t-113 41t-43 107q0 49 54 186q37 92 36 156v610q-2 145 -19 172t-112 27h-32z" />
<glyph unicode="&#xb6;" horiz-adv-x="1529" d="M72 1067q0 201 119.5 306.5t357.5 105.5h911v-113h-41q-53 0 -76.5 -4t-40 -25.5t-16.5 -66.5v-1276q0 -100 2 -118.5t12 -31.5q25 -29 119 -28h41v-111h-1143v111h50q117 0 141 28q8 12 10 31t2 119v672l-18 -2q-193 0 -311.5 111.5t-118.5 291.5zM831 -182h144v1548 h-144v-1548z" />
<glyph unicode="&#xb7;" horiz-adv-x="569" d="M92 512q0 80 56.5 136.5t136.5 56.5t136 -56.5t56 -136.5t-56 -136.5t-136 -56.5t-136.5 56.5t-56.5 136.5z" />
<glyph unicode="&#xb8;" horiz-adv-x="681" d="M35 -416l37 92q76 -35 129 -34q47 0 73.5 21.5t26.5 57.5q0 33 -22.5 51.5t-61.5 18.5q-25 0 -47 -12l-39 20l96 211h92l-59 -135q53 10 84 10q72 0 121 -44t49 -111q0 -82 -80 -133.5t-205 -51.5q-102 0 -194 39z" />
<glyph unicode="&#xb9;" horiz-adv-x="704" d="M80 582v80h63q88 0 101 14q8 8 8 88v428q0 70 -14.5 82t-94.5 12h-61v82q221 2 328 82h53v-686q0 -80 8 -88q12 -14 102 -14h50v-80h-543z" />
<glyph unicode="&#xba;" horiz-adv-x="751" d="M2 1198q0 133 105.5 222t263.5 89q150 0 255 -91t105 -222t-104.5 -218t-259.5 -87q-158 0 -261.5 87t-103.5 220zM33 600v123h667v-123h-667zM227 1200q0 -244 138 -244q68 0 104.5 62.5t36.5 177.5q0 248 -137 248q-142 0 -142 -244z" />
<glyph unicode="&#xbb;" horiz-adv-x="1024" d="M115 229q0 20 39 82l131 219l-131 220q-39 61 -39 84q0 8 9 16t17 8q16 0 58 -41l315 -272v-29l-315 -270q-41 -41 -60 -41q-8 0 -16 8t-8 16zM524 229q0 20 39 82l131 219l-131 220q-39 61 -39 84q0 8 9.5 16t17.5 8q16 0 57 -41l316 -272v-29l-316 -270 q-41 -41 -59 -41q-8 0 -16.5 8t-8.5 16z" />
<glyph unicode="&#xbc;" horiz-adv-x="1763" d="M80 582v80h63q88 0 101 14q8 8 8 88v428q0 70 -13.5 81t-95.5 13h-61v82q221 2 328 82h53v-686q0 -80 8 -88q12 -14 102 -14h50v-80h-543zM365 0l860 1479h161l-858 -1479h-163zM989 219v100l469 549h98l-8 -190v-363h135v-96h-135v-39q0 -78 8 -86q12 -14 91 -14h22v-80 h-452v80h20q80 0 92 14q8 8 8 86v39h-348zM1106 315h231v275z" />
<glyph unicode="&#xbd;" horiz-adv-x="1763" d="M80 582v80h63q88 0 101 14q8 8 8 88v428q0 70 -13.5 81t-95.5 13h-61v82q221 2 328 82h53v-686q0 -80 8 -88q12 -14 102 -14h50v-80h-543zM354 0l860 1479h162l-860 -1479h-162zM1022 -4v65q78 104 258 287q102 100 139 163.5t37 137.5q0 66 -36 100.5t-101 34.5 q-45 0 -87 -23.5t-42 -49.5q0 -10 16 -17q94 -35 94 -114q0 -47 -32.5 -77t-83.5 -30q-59 0 -96 40t-37 105q0 106 92 179t225 73q137 0 230.5 -67.5t93.5 -167.5q0 -143 -164 -258q-57 -39 -166 -105q-55 -33 -113 -77h236l65 2q27 2 34 12t22 61l14 66h84l-33 -340 q-82 4 -84 4h-491z" />
<glyph unicode="&#xbe;" horiz-adv-x="1763" d="M16 774q0 55 35 89t88 34q51 0 85 -30.5t34 -75.5q0 -47 -53 -91q-10 -10 -10 -18q0 -14 35.5 -28.5t72.5 -14.5q72 0 111 48t39 138q0 164 -117 164q-8 0 -47 -4l-41 -4q-25 0 -40 15.5t-15 37.5q0 47 53 47q14 0 55 -8q27 -8 47 -8q90 0 90 164q0 70 -31.5 107.5 t-89.5 37.5q-31 0 -60.5 -12t-29.5 -27l27 -32q29 -33 29 -72q0 -47 -31 -76t-80 -29q-51 0 -87 34t-36 83q0 88 86 147.5t215 59.5q139 0 226.5 -60.5t87.5 -160.5q0 -123 -140 -178l-41 -17q109 -23 150 -65q55 -61 55 -148q0 -119 -94 -188.5t-256 -69.5 q-143 0 -232.5 58.5t-89.5 152.5zM414 0l858 1479h164l-861 -1479h-161zM989 219v100l469 549h98l-8 -190v-363h135v-96h-135v-39q0 -78 8 -86q12 -14 91 -14h22v-80h-452v80h20q80 0 92 14q8 8 8 86v39h-348zM1106 315h231v275z" />
<glyph unicode="&#xbf;" horiz-adv-x="1024" d="M49 -176q0 158 113 254l190 147q94 74 121 121t31 156h110q6 -49 7 -86q0 -70 -23 -126.5t-106 -207.5q-82 -147 -82 -281q0 -109 50 -167t142 -58q47 0 78 14.5t31 36.5q0 4 -26 30t-52.5 66.5t-26.5 81.5q0 72 49.5 118t126.5 46q84 0 139.5 -54t55.5 -136 q0 -141 -129 -230.5t-332 -89.5q-215 0 -341 98.5t-126 266.5zM362 807q0 80 56.5 136t138.5 56q78 0 134.5 -57t56.5 -135q0 -80 -56.5 -136.5t-136.5 -56.5t-136.5 56.5t-56.5 136.5z" />
<glyph unicode="&#xc0;" horiz-adv-x="1554" d="M-37 0v111q90 10 155.5 78.5t135.5 234.5l465 1085h155l527 -1269q33 -78 68.5 -101.5t123.5 -27.5v-111h-719v111l35 2q76 4 97.5 12t21.5 37q2 16 -24 84l-78 200h-510l-33 -77q-35 -84 -33 -117q0 -70 47 -102.5t158 -38.5v-111h-592zM426 1841q0 39 41 65.5t98 26.5 q55 0 89 -17.5t100 -76.5l278 -256h-158l-360 162q-88 39 -88 96zM469 584h405l-198 489z" />
<glyph unicode="&#xc1;" horiz-adv-x="1554" d="M-37 0v111q90 10 155.5 78.5t135.5 234.5l465 1085h155l527 -1269q33 -78 68.5 -101.5t123.5 -27.5v-111h-719v111l35 2q76 4 97.5 12t21.5 37q2 16 -24 84l-78 200h-510l-33 -77q-35 -84 -33 -117q0 -70 47 -102.5t158 -38.5v-111h-592zM469 584h405l-198 489zM561 1583 l279 256q66 59 99.5 76.5t88.5 17.5q57 0 98 -26.5t41 -65.5q0 -57 -88 -96l-360 -162h-158z" />
<glyph unicode="&#xc2;" horiz-adv-x="1554" d="M-37 0v111q90 10 155.5 78.5t135.5 234.5l465 1085h155l527 -1269q33 -78 68.5 -101.5t123.5 -27.5v-111h-719v111l35 2q76 4 97.5 12t21.5 37q2 16 -24 84l-78 200h-510l-33 -77q-35 -84 -33 -117q0 -70 47 -102.5t158 -38.5v-111h-592zM365 1595l297 328h268l297 -328 h-164l-266 170l-269 -170h-163zM469 584h405l-198 489z" />
<glyph unicode="&#xc3;" horiz-adv-x="1554" d="M-37 0v111q90 10 155.5 78.5t135.5 234.5l465 1085h155l527 -1269q33 -78 68.5 -101.5t123.5 -27.5v-111h-719v111l35 2q76 4 97.5 12t21.5 37q2 16 -24 84l-78 200h-510l-33 -77q-35 -84 -33 -117q0 -70 47 -102.5t158 -38.5v-111h-592zM410 1626q18 121 86.5 199 t156.5 78q70 0 197 -62q104 -49 145 -49q33 0 52.5 21.5t42.5 80.5h100q-14 -119 -89 -197.5t-169 -78.5q-53 0 -91 12t-116 56q-80 43 -123 43q-61 0 -90 -103h-102zM469 584h405l-198 489z" />
<glyph unicode="&#xc4;" horiz-adv-x="1554" d="M-37 0v111q90 10 155.5 78.5t135.5 234.5l465 1085h155l527 -1269q33 -78 68.5 -101.5t123.5 -27.5v-111h-719v111l35 2q76 4 97.5 12t21.5 37q2 16 -24 84l-78 200h-510l-33 -77q-35 -84 -33 -117q0 -70 47 -102.5t158 -38.5v-111h-592zM434 1761.5q0 59.5 43 101.5 t102.5 42t101.5 -43t42 -101q0 -61 -43 -103t-102.5 -42t-101.5 43t-42 102.5zM469 584h405l-198 489zM874 1761.5q0 59.5 43.5 101.5t102.5 42q57 0 100 -43t43 -101q0 -61 -43 -103t-102.5 -42t-101.5 43t-42 102.5z" />
<glyph unicode="&#xc5;" horiz-adv-x="1554" d="M-37 0v111q90 10 155.5 78.5t135.5 234.5l465 1085h155l527 -1269q33 -78 68.5 -101.5t123.5 -27.5v-111h-719v111l35 2q76 4 97.5 12t21.5 37q2 16 -24 84l-78 200h-510l-33 -77q-35 -84 -33 -117q0 -70 47 -102.5t158 -38.5v-111h-592zM469 584h405l-198 489zM578 1792 q0 90 65.5 154.5t155.5 64.5t154.5 -64.5t64.5 -154.5q0 -92 -64.5 -156.5t-158.5 -64.5q-88 0 -152.5 65.5t-64.5 155.5zM690 1790q0 -45 32 -79t75 -34q45 0 76.5 34t31.5 81q0 45 -31.5 79t-74.5 34q-45 0 -77 -34t-32 -81z" />
<glyph unicode="&#xc6;" horiz-adv-x="2009" d="M-59 0v111q63 12 106 58t103 165l403 801q37 78 37 122q0 53 -43 82t-117 29h-61v111h1568l13 -533h-107q-49 176 -119 271q-49 68 -136 109.5t-181 41.5h-43q-92 0 -125 -45q-20 -31 -20 -131v-371h71q86 0 150.5 77t81.5 214h110v-694h-110q-16 139 -81 216t-151 77 h-71v-457q0 -88 30.5 -115.5t124.5 -27.5h35q193 0 322 153q80 98 133 287h108l-22 -551h-1309v111h64q106 0 131 30q10 12 12 33t2 121v246h-440l-101 -199q-45 -86 -45 -141q0 -41 39 -65.5t96 -24.5h58v-111h-516zM465 653h385v672q0 43 -21 43q-10 0 -16 -8t-20 -39z " />
<glyph unicode="&#xc7;" horiz-adv-x="1593" d="M82 721q0 344 221 566t553 222q109 0 191.5 -23.5t183.5 -84.5l110 100h109v-586l-109 -12q-70 256 -184.5 378t-284.5 122q-188 0 -285.5 -163t-97.5 -480q0 -338 100.5 -500t309.5 -162q176 0 296 117t159 328l127 -31q-104 -524 -617 -543l-45 -98q53 10 84 10 q72 0 121 -44t49 -111q0 -82 -80 -133.5t-205 -51.5q-102 0 -194 39l35 92q78 -35 131 -34q47 0 73.5 21.5t26.5 57.5q0 33 -22.5 51.5t-61.5 18.5q-25 0 -49 -12l-37 20l84 176q-332 23 -512 236t-180 514z" />
<glyph unicode="&#xc8;" horiz-adv-x="1554" d="M33 0v111h30q143 0 168 30q10 12 12.5 34t2.5 120v889q0 98 -2 119.5t-13 33.5q-25 31 -168 31h-30v111h1374l12 -533h-106q-49 172 -119 271q-111 152 -346 151h-57q-123 0 -156 -45q-20 -31 -21 -131v-371h76q92 0 158.5 77t83.5 214h110v-694h-110q-16 137 -83 214 t-159 77h-76v-455q0 -84 33 -115q18 -18 47 -23t105 -5h61q186 0 301 105.5t178 334.5h109l-25 -551h-1390zM406 1841q0 39 40.5 65.5t98.5 26.5q55 0 89 -17.5t99 -76.5l279 -256h-158l-360 162q-88 39 -88 96z" />
<glyph unicode="&#xc9;" horiz-adv-x="1554" d="M33 0v111h30q143 0 168 30q10 12 12.5 34t2.5 120v889q0 98 -2 119.5t-13 33.5q-25 31 -168 31h-30v111h1374l12 -533h-106q-49 172 -119 271q-111 152 -346 151h-57q-123 0 -156 -45q-20 -31 -21 -131v-371h76q92 0 158.5 77t83.5 214h110v-694h-110q-16 137 -83 214 t-159 77h-76v-455q0 -84 33 -115q18 -18 47 -23t105 -5h61q186 0 301 105.5t178 334.5h109l-25 -551h-1390zM543 1583l278 256q66 59 99.5 76.5t89.5 17.5q57 0 98 -26.5t41 -65.5q0 -57 -88 -96l-361 -162h-157z" />
<glyph unicode="&#xca;" horiz-adv-x="1554" d="M33 0v111h30q143 0 168 30q10 12 12.5 34t2.5 120v889q0 98 -2 119.5t-13 33.5q-25 31 -168 31h-30v111h1374l12 -533h-106q-49 172 -119 271q-111 152 -346 151h-57q-123 0 -156 -45q-20 -31 -21 -131v-371h76q92 0 158.5 77t83.5 214h110v-694h-110q-16 137 -83 214 t-159 77h-76v-455q0 -84 33 -115q18 -18 47 -23t105 -5h61q186 0 301 105.5t178 334.5h109l-25 -551h-1390zM346 1595l297 328h268l297 -328h-164l-266 170l-268 -170h-164z" />
<glyph unicode="&#xcb;" horiz-adv-x="1554" d="M33 0v111h30q143 0 168 30q10 12 12.5 34t2.5 120v889q0 98 -2 119.5t-13 33.5q-25 31 -168 31h-30v111h1374l12 -533h-106q-49 172 -119 271q-111 152 -346 151h-57q-123 0 -156 -45q-20 -31 -21 -131v-371h76q92 0 158.5 77t83.5 214h110v-694h-110q-16 137 -83 214 t-159 77h-76v-455q0 -84 33 -115q18 -18 47 -23t105 -5h61q186 0 301 105.5t178 334.5h109l-25 -551h-1390zM414 1761.5q0 59.5 43 101.5t102 42t101 -43t42 -101q0 -61 -43 -103t-102 -42t-101 43t-42 102.5zM854 1761.5q0 59.5 43 101.5t102 42q57 0 100.5 -43t43.5 -101 q0 -61 -43 -103t-102.5 -42t-101.5 43t-42 102.5z" />
<glyph unicode="&#xcc;" horiz-adv-x="909" d="M57 0v111h31q143 0 168 30q10 12 12 34t2 120v889q0 98 -2 119.5t-12 33.5q-25 31 -168 31h-31v111h797v-111h-31q-145 0 -170 -31q-10 -12 -12 -32.5t-2 -120.5v-889q0 -100 2 -120.5t12 -33.5q25 -31 170 -30h31v-111h-797zM84 1841q0 39 41 65.5t98 26.5 q55 0 89 -17.5t100 -76.5l278 -256h-158l-360 162q-88 39 -88 96z" />
<glyph unicode="&#xcd;" horiz-adv-x="909" d="M57 0v111h31q143 0 168 30q10 12 12 34t2 120v889q0 98 -2 119.5t-12 33.5q-25 31 -168 31h-31v111h797v-111h-31q-145 0 -170 -31q-10 -12 -12 -32.5t-2 -120.5v-889q0 -100 2 -120.5t12 -33.5q25 -31 170 -30h31v-111h-797zM219 1583l279 256q66 59 99.5 76.5 t88.5 17.5q57 0 98 -26.5t41 -65.5q0 -57 -88 -96l-360 -162h-158z" />
<glyph unicode="&#xce;" horiz-adv-x="909" d="M23 1595l296 328h269l297 -328h-164l-266 170l-269 -170h-163zM57 0v111h31q143 0 168 30q10 12 12 34t2 120v889q0 98 -2 119.5t-12 33.5q-25 31 -168 31h-31v111h797v-111h-31q-145 0 -170 -31q-10 -12 -12 -32.5t-2 -120.5v-889q0 -100 2 -120.5t12 -33.5 q25 -31 170 -30h31v-111h-797z" />
<glyph unicode="&#xcf;" horiz-adv-x="909" d="M57 0v111h31q143 0 168 30q10 12 12 34t2 120v889q0 98 -2 119.5t-12 33.5q-25 31 -168 31h-31v111h797v-111h-31q-145 0 -170 -31q-10 -12 -12 -32.5t-2 -120.5v-889q0 -100 2 -120.5t12 -33.5q25 -31 170 -30h31v-111h-797zM92 1761.5q0 59.5 43 101.5t103 42 q57 0 100 -43t43 -101q0 -61 -43 -103t-102.5 -42t-101.5 43t-42 102.5zM532 1761.5q0 59.5 43 101.5t102.5 42t101.5 -43t42 -101q0 -61 -43 -103t-102.5 -42t-101.5 43t-42 102.5z" />
<glyph unicode="&#xd0;" horiz-adv-x="1705" d="M39 0v111h31q143 0 168 30q10 12 12 34t2 120v399h-213v123h213v367q0 98 -2 119.5t-12 33.5q-25 31 -168 31h-31v111h690q254 0 379 -22.5t223 -88.5q293 -190 293 -612q0 -211 -72.5 -373t-210.5 -258q-180 -125 -548 -125h-754zM621 244q0 -82 23.5 -107.5t98.5 -25.5 h45q227 0 328 153.5t101 491.5q0 315 -103.5 463.5t-316.5 148.5h-54q-70 0 -96 -22.5t-26 -100.5v-428h294v-123h-294v-450z" />
<glyph unicode="&#xd1;" horiz-adv-x="1705" d="M33 2v111q57 2 85.5 7t60.5 22.5t45.5 53t21.5 95t8 153.5v807q-78 111 -217 115v113h516l790 -926v481q0 135 -10 189.5t-43 89.5q-49 53 -168 55v111h584v-111q-123 -4 -172 -55q-33 -35 -43 -88.5t-10 -190.5v-1048h-138l-952 1132v-674q0 -135 10.5 -188t42.5 -88 q47 -49 172 -55v-111h-583zM465 1626q18 121 87 199t157 78q70 0 196 -62q104 -49 146 -49q33 0 52 21.5t42 80.5h100q-14 -119 -89 -197.5t-169 -78.5q-53 0 -91 12t-116 56q-80 43 -123 43q-61 0 -90 -103h-102z" />
<glyph unicode="&#xd2;" horiz-adv-x="1705" d="M80 717q0 332 217 562t557 230q336 0 554 -229t218 -561q0 -322 -214 -536t-568 -214q-334 0 -549 211t-215 537zM481 1841q0 39 41 65.5t99 26.5q55 0 88.5 -17.5t99.5 -76.5l278 -256h-157l-361 162q-88 39 -88 96zM489 756q0 -309 90.5 -494.5t276.5 -185.5 q176 0 268.5 165t92.5 476q0 317 -91.5 501.5t-269.5 184.5q-367 0 -367 -647z" />
<glyph unicode="&#xd3;" horiz-adv-x="1705" d="M80 717q0 332 217 562t557 230q336 0 554 -229t218 -561q0 -322 -214 -536t-568 -214q-334 0 -549 211t-215 537zM489 756q0 -309 90.5 -494.5t276.5 -185.5q176 0 268.5 165t92.5 476q0 317 -91.5 501.5t-269.5 184.5q-367 0 -367 -647zM618 1583l279 256 q66 59 99.5 76.5t88.5 17.5q57 0 98.5 -26.5t41.5 -65.5q0 -57 -88 -96l-361 -162h-158z" />
<glyph unicode="&#xd4;" horiz-adv-x="1705" d="M80 717q0 332 217 562t557 230q336 0 554 -229t218 -561q0 -322 -214 -536t-568 -214q-334 0 -549 211t-215 537zM422 1595l297 328h268l297 -328h-164l-266 170l-268 -170h-164zM489 756q0 -309 90.5 -494.5t276.5 -185.5q176 0 268.5 165t92.5 476q0 317 -91.5 501.5 t-269.5 184.5q-367 0 -367 -647z" />
<glyph unicode="&#xd5;" horiz-adv-x="1705" d="M80 717q0 332 217 562t557 230q336 0 554 -229t218 -561q0 -322 -214 -536t-568 -214q-334 0 -549 211t-215 537zM465 1626q18 121 87 199t157 78q70 0 196 -62q104 -49 146 -49q33 0 52 21.5t42 80.5h100q-14 -119 -89 -197.5t-169 -78.5q-53 0 -91 12t-116 56 q-80 43 -123 43q-61 0 -90 -103h-102zM489 756q0 -309 90.5 -494.5t276.5 -185.5q176 0 268.5 165t92.5 476q0 317 -91.5 501.5t-269.5 184.5q-367 0 -367 -647z" />
<glyph unicode="&#xd6;" horiz-adv-x="1705" d="M80 717q0 332 217 562t557 230q336 0 554 -229t218 -561q0 -322 -214 -536t-568 -214q-334 0 -549 211t-215 537zM489 756q0 -309 90.5 -494.5t276.5 -185.5q176 0 268.5 165t92.5 476q0 317 -91.5 501.5t-269.5 184.5q-367 0 -367 -647zM489 1761.5q0 59.5 43 101.5 t103 42q57 0 100 -43t43 -101q0 -61 -43 -103t-102.5 -42t-101.5 43t-42 102.5zM930 1761.5q0 59.5 43 101.5t102.5 42t101.5 -43t42 -101q0 -61 -43 -103t-102.5 -42t-101.5 43t-42 102.5z" />
<glyph unicode="&#xd7;" horiz-adv-x="1241" d="M174 209l301 303l-301 303l143 143l304 -301l303 301l143 -143l-301 -303l301 -303l-143 -143l-303 301l-304 -301z" />
<glyph unicode="&#xd8;" horiz-adv-x="1705" d="M80 743q0 328 224 548t558 220q217 0 393 -102l109 152h133l-154 -215q131 -106 206 -267t75 -331q0 -319 -222 -549t-556 -230q-233 0 -410 111l-117 -162h-133l162 227q-268 238 -268 598zM489 762q0 -211 39 -367l596 832q-90 178 -270 178t-272.5 -163t-92.5 -480z M571 270q45 -102 114 -148t175 -46q102 0 174 52t110 151.5t54 216t16 268.5q0 199 -40 344z" />
<glyph unicode="&#xd9;" horiz-adv-x="1705" d="M31 1368v111h796v-111h-30q-145 0 -170 -31q-10 -12 -12.5 -33.5t-2.5 -119.5v-656q0 -233 80 -319t250 -86q258 0 348 194q35 76 35 306v411q0 137 -10 190.5t-43 88.5q-49 53 -168 55v111h584v-111q-123 -4 -172 -55q-33 -35 -43.5 -89.5t-10.5 -189.5v-411 q0 -180 -15 -268.5t-58 -157.5q-76 -119 -200 -173.5t-321 -54.5q-442 0 -571 236q-53 98 -53 330v649q0 98 -2 119.5t-13 33.5q-25 31 -168 31h-30zM481 1841q0 39 41 65.5t99 26.5q55 0 88.5 -17.5t99.5 -76.5l278 -256h-157l-361 162q-88 39 -88 96z" />
<glyph unicode="&#xda;" horiz-adv-x="1705" d="M31 1368v111h796v-111h-30q-145 0 -170 -31q-10 -12 -12.5 -33.5t-2.5 -119.5v-656q0 -233 80 -319t250 -86q258 0 348 194q35 76 35 306v411q0 137 -10 190.5t-43 88.5q-49 53 -168 55v111h584v-111q-123 -4 -172 -55q-33 -35 -43.5 -89.5t-10.5 -189.5v-411 q0 -180 -15 -268.5t-58 -157.5q-76 -119 -200 -173.5t-321 -54.5q-442 0 -571 236q-53 98 -53 330v649q0 98 -2 119.5t-13 33.5q-25 31 -168 31h-30zM618 1583l279 256q66 59 99.5 76.5t88.5 17.5q57 0 98.5 -26.5t41.5 -65.5q0 -57 -88 -96l-361 -162h-158z" />
<glyph unicode="&#xdb;" horiz-adv-x="1705" d="M31 1368v111h796v-111h-30q-145 0 -170 -31q-10 -12 -12.5 -33.5t-2.5 -119.5v-656q0 -233 80 -319t250 -86q258 0 348 194q35 76 35 306v411q0 137 -10 190.5t-43 88.5q-49 53 -168 55v111h584v-111q-123 -4 -172 -55q-33 -35 -43.5 -89.5t-10.5 -189.5v-411 q0 -180 -15 -268.5t-58 -157.5q-76 -119 -200 -173.5t-321 -54.5q-442 0 -571 236q-53 98 -53 330v649q0 98 -2 119.5t-13 33.5q-25 31 -168 31h-30zM422 1595l297 328h268l297 -328h-164l-266 170l-268 -170h-164z" />
<glyph unicode="&#xdc;" horiz-adv-x="1705" d="M31 1368v111h796v-111h-30q-145 0 -170 -31q-10 -12 -12.5 -33.5t-2.5 -119.5v-656q0 -233 80 -319t250 -86q258 0 348 194q35 76 35 306v411q0 137 -10 190.5t-43 88.5q-49 53 -168 55v111h584v-111q-123 -4 -172 -55q-33 -35 -43.5 -89.5t-10.5 -189.5v-411 q0 -180 -15 -268.5t-58 -157.5q-76 -119 -200 -173.5t-321 -54.5q-442 0 -571 236q-53 98 -53 330v649q0 98 -2 119.5t-13 33.5q-25 31 -168 31h-30zM489 1761.5q0 59.5 43 101.5t103 42q57 0 100 -43t43 -101q0 -61 -43 -103t-102.5 -42t-101.5 43t-42 102.5zM930 1761.5 q0 59.5 43 101.5t102.5 42t101.5 -43t42 -101q0 -61 -43 -103t-102.5 -42t-101.5 43t-42 102.5z" />
<glyph unicode="&#xdd;" horiz-adv-x="1478" d="M-25 1368v111h738v-111h-33q-115 0 -115 -45q0 -25 25 -63l270 -449l205 365q25 41 29 94q0 45 -41 71.5t-109 26.5h-43v111h604v-111q-166 -12 -274 -190l-307 -527v-356q0 -98 2 -119.5t12 -34.5q25 -31 170 -30h45v-111h-827v111h45q145 0 170 30q10 12 12 34t2 120 v330l-418 669q-27 45 -60.5 59.5t-101.5 14.5zM504 1583l278 256q66 59 99.5 76.5t89.5 17.5q57 0 98 -26.5t41 -65.5q0 -57 -88 -96l-360 -162h-158z" />
<glyph unicode="&#xde;" horiz-adv-x="1554" d="M49 0v111h31q143 0 168 30q10 12 12 34t2 120v889q0 98 -2 119.5t-12 35.5q-27 29 -168 29h-31v111h797v-111h-31q-143 0 -170 -29q-14 -18 -14 -155h231q328 0 485.5 -99.5t157.5 -312.5q0 -432 -645 -432h-229v-45q0 -98 2 -119.5t12 -34.5q25 -31 170 -30h31v-111 h-797zM631 453h121q199 0 279.5 72.5t80.5 250.5q0 156 -67.5 225.5t-219.5 69.5h-82q-68 0 -90 -24.5t-22 -98.5v-495z" />
<glyph unicode="&#xdf;" d="M12 0v104h8q98 0 126 16.5t28 80.5v817q0 258 110.5 374.5t356.5 116.5q219 0 339 -88t120 -245q0 -113 -65.5 -194t-184.5 -118q154 -35 241 -147.5t87 -276.5q0 -203 -122 -337t-304 -134q-74 0 -152 31v129q63 -53 125 -53q123 0 123 370q0 362 -148 357l-53 -2 q-33 6 -43 15t-10 30q0 18 14.5 36.5t28.5 18.5l55 -6q66 12 87.5 67.5t21.5 184.5q0 133 -39 195.5t-121 62.5q-84 0 -114.5 -62.5t-30.5 -234.5v-1108h-484z" />
<glyph unicode="&#xe0;" d="M74 209q0 145 122.5 219t471.5 150q25 2 67 14v106q0 106 -38 150.5t-130 44.5q-61 0 -106 -19.5t-45 -46.5l22 -45q25 -43 25 -67q0 -57 -48 -95t-120 -38t-119 44t-47 109q0 121 128 192.5t339 71.5q233 0 347 -78.5t114 -269.5v-360q0 -90 11 -119t44 -29 q10 0 39 14.5t41 14.5q31 0 31 -33q0 -66 -69 -118t-157 -52q-162 0 -217 146q-82 -80 -170 -113t-221 -33q-150 0 -232.5 63.5t-82.5 176.5zM289 1380q0 43 33.5 73t83.5 30q45 0 74.5 -19.5t82.5 -85.5l232 -282h-131l-302 178q-73 43 -73 106zM416 252q0 -66 35.5 -104.5 t95.5 -38.5q86 0 137 69.5t51 188.5v114l-108 -24q-211 -47 -211 -205z" />
<glyph unicode="&#xe1;" d="M74 209q0 145 122.5 219t471.5 150q25 2 67 14v106q0 106 -38 150.5t-130 44.5q-61 0 -106 -19.5t-45 -46.5l22 -45q25 -43 25 -67q0 -57 -48 -95t-120 -38t-119 44t-47 109q0 121 128 192.5t339 71.5q233 0 347 -78.5t114 -269.5v-360q0 -90 11 -119t44 -29 q10 0 39 14.5t41 14.5q31 0 31 -33q0 -66 -69 -118t-157 -52q-162 0 -217 146q-82 -80 -170 -113t-221 -33q-150 0 -232.5 63.5t-82.5 176.5zM416 252q0 -66 35.5 -104.5t95.5 -38.5q86 0 137 69.5t51 188.5v114l-108 -24q-211 -47 -211 -205zM457 1096l231 282 q53 66 83 85.5t75 19.5q49 0 83 -30t34 -73q0 -63 -74 -106l-301 -178h-131z" />
<glyph unicode="&#xe2;" d="M74 209q0 145 122.5 219t471.5 150q25 2 67 14v106q0 106 -38 150.5t-130 44.5q-61 0 -106 -19.5t-45 -46.5l22 -45q25 -43 25 -67q0 -57 -48 -95t-120 -38t-119 44t-47 109q0 121 128 192.5t339 71.5q233 0 347 -78.5t114 -269.5v-360q0 -90 11 -119t44 -29 q10 0 39 14.5t41 14.5q31 0 31 -33q0 -66 -69 -118t-157 -52q-162 0 -217 146q-82 -80 -170 -113t-221 -33q-150 0 -232.5 63.5t-82.5 176.5zM266 1108l248 365h223l248 -365h-137l-221 190l-224 -190h-137zM416 252q0 -66 35.5 -104.5t95.5 -38.5q86 0 137 69.5t51 188.5 v114l-108 -24q-211 -47 -211 -205z" />
<glyph unicode="&#xe3;" d="M74 209q0 145 122.5 219t471.5 150q25 2 67 14v106q0 106 -38 150.5t-130 44.5q-61 0 -106 -19.5t-45 -46.5l22 -45q25 -43 25 -67q0 -57 -48 -95t-120 -38t-119 44t-47 109q0 121 128 192.5t339 71.5q233 0 347 -78.5t114 -269.5v-360q0 -90 11 -119t44 -29 q10 0 39 14.5t41 14.5q31 0 31 -33q0 -66 -69 -118t-157 -52q-162 0 -217 146q-82 -80 -170 -113t-221 -33q-150 0 -232.5 63.5t-82.5 176.5zM238 1157q18 121 86.5 199t156.5 78q70 0 197 -62q104 -49 145 -49q33 0 52.5 21.5t42.5 80.5h100q-14 -119 -89 -197.5 t-169 -78.5q-53 0 -91 12.5t-116 55.5q-80 43 -123 43q-61 0 -90 -103h-102zM416 252q0 -66 35.5 -104.5t95.5 -38.5q86 0 137 69.5t51 188.5v114l-108 -24q-211 -47 -211 -205z" />
<glyph unicode="&#xe4;" d="M74 209q0 145 122.5 219t471.5 150q25 2 67 14v106q0 106 -38 150.5t-130 44.5q-61 0 -106 -19.5t-45 -46.5l22 -45q25 -43 25 -67q0 -57 -48 -95t-120 -38t-119 44t-47 109q0 121 128 192.5t339 71.5q233 0 347 -78.5t114 -269.5v-360q0 -90 11 -119t44 -29 q10 0 39 14.5t41 14.5q31 0 31 -33q0 -66 -69 -118t-157 -52q-162 0 -217 146q-82 -80 -170 -113t-221 -33q-150 0 -232.5 63.5t-82.5 176.5zM262 1292.5q0 59.5 43 101.5t102.5 42t101.5 -42t42 -102q0 -61 -43 -103t-102.5 -42t-101.5 43t-42 102.5zM416 252 q0 -66 35.5 -104.5t95.5 -38.5q86 0 137 69.5t51 188.5v114l-108 -24q-211 -47 -211 -205zM702 1292.5q0 59.5 43 101.5t103 42q57 0 100 -42t43 -102q0 -61 -43 -103t-102.5 -42t-101.5 43t-42 102.5z" />
<glyph unicode="&#xe5;" d="M74 209q0 145 122.5 219t471.5 150q25 2 67 14v106q0 106 -38 150.5t-130 44.5q-61 0 -106 -19.5t-45 -46.5l22 -45q25 -43 25 -67q0 -57 -48 -95t-120 -38t-119 44t-47 109q0 121 128 192.5t339 71.5q233 0 347 -78.5t114 -269.5v-360q0 -90 11 -119t44 -29 q10 0 39 14.5t41 14.5q31 0 31 -33q0 -66 -69 -118t-157 -52q-162 0 -217 146q-82 -80 -170 -113t-221 -33q-150 0 -232.5 63.5t-82.5 176.5zM406 1292q0 90 65.5 154.5t155.5 64.5t154.5 -64.5t64.5 -154.5q0 -92 -64.5 -156.5t-158.5 -64.5q-88 0 -152.5 65.5t-64.5 155.5 zM416 252q0 -66 35.5 -104.5t95.5 -38.5q86 0 137 69.5t51 188.5v114l-108 -24q-211 -47 -211 -205zM518 1290q0 -45 32 -78.5t75 -33.5q45 0 76.5 33.5t31.5 80.5q0 45 -31.5 79t-74.5 34q-45 0 -77 -34t-32 -81z" />
<glyph unicode="&#xe6;" horiz-adv-x="1781" d="M59 211q0 88 53.5 152.5t168.5 115.5q74 33 132 48.5t242 52.5q31 6 68 14v106q0 104 -38 148.5t-130 44.5q-61 0 -106.5 -19.5t-45.5 -46.5l23 -43q25 -43 25 -69q0 -55 -48.5 -93t-119.5 -38q-70 0 -118 43t-48 108q0 119 127 191.5t331 72.5q223 0 347 -104 q139 104 319 104q213 0 343 -138t130 -365l-2 -29h-686q10 -358 279 -358q100 0 173.5 54t133.5 173l100 -41q-131 -326 -479 -326q-260 0 -412 187q-178 -186 -442 -187q-152 0 -236 63.5t-84 178.5zM401 252q0 -66 36 -104.5t98 -38.5q86 0 137 69.5t51 188.5v116 l-109 -26q-113 -27 -163 -75t-50 -130zM1028 580h307q33 0 45.5 14t12.5 51q0 121 -42 184.5t-120 63.5q-94 0 -147.5 -84t-55.5 -229z" />
<glyph unicode="&#xe7;" horiz-adv-x="1138" d="M63 469q0 231 165 380.5t421 149.5q186 0 297 -75.5t111 -202.5q0 -78 -50.5 -126t-134.5 -48q-74 0 -120.5 42t-46.5 107q0 47 43 101q23 27 22 39q0 25 -31.5 41t-76.5 16q-115 0 -179.5 -101.5t-64.5 -283.5q0 -188 68.5 -291.5t195.5 -103.5q102 0 172 61.5 t119 187.5l106 -34q-55 -176 -173 -267.5t-281 -91.5l-45 -94q53 10 84 10q74 0 122 -44t48 -111q0 -82 -80 -133.5t-205 -51.5q-102 0 -195 39l37 92q76 -35 129 -34q47 0 74 21.5t27 57.5q0 33 -23 51.5t-61 18.5q-25 0 -48 -12l-38 20l84 174q-219 27 -345.5 159 t-126.5 337z" />
<glyph unicode="&#xe8;" horiz-adv-x="1175" d="M66 475q0 223 156.5 373.5t393.5 150.5q223 0 356.5 -135t133.5 -364v-33h-686q0 -186 75.5 -272t202.5 -86q100 0 173 54t135 173l100 -41q-133 -326 -488 -326q-252 0 -402 141.5t-150 364.5zM252 1380q0 43 33.5 73t83.5 30q45 0 74.5 -19.5t82.5 -85.5l232 -282h-131 l-301 178q-74 43 -74 106zM422 580h307q31 0 43 14t12 51q0 248 -161 248q-92 0 -146.5 -84t-54.5 -229z" />
<glyph unicode="&#xe9;" horiz-adv-x="1175" d="M66 475q0 223 156.5 373.5t393.5 150.5q223 0 356.5 -135t133.5 -364v-33h-686q0 -186 75.5 -272t202.5 -86q100 0 173 54t135 173l100 -41q-133 -326 -488 -326q-252 0 -402 141.5t-150 364.5zM418 1096l231 282q53 66 83 85.5t75 19.5q49 0 83 -30t34 -73 q0 -63 -74 -106l-301 -178h-131zM422 580h307q31 0 43 14t12 51q0 248 -161 248q-92 0 -146.5 -84t-54.5 -229z" />
<glyph unicode="&#xea;" horiz-adv-x="1175" d="M66 475q0 223 156.5 373.5t393.5 150.5q223 0 356.5 -135t133.5 -364v-33h-686q0 -186 75.5 -272t202.5 -86q100 0 173 54t135 173l100 -41q-133 -326 -488 -326q-252 0 -402 141.5t-150 364.5zM227 1108l248 365h223l248 -365h-137l-221 190l-223 -190h-138zM422 580 h307q31 0 43 14t12 51q0 248 -161 248q-92 0 -146.5 -84t-54.5 -229z" />
<glyph unicode="&#xeb;" horiz-adv-x="1175" d="M66 475q0 223 156.5 373.5t393.5 150.5q223 0 356.5 -135t133.5 -364v-33h-686q0 -186 75.5 -272t202.5 -86q100 0 173 54t135 173l100 -41q-133 -326 -488 -326q-252 0 -402 141.5t-150 364.5zM223 1292.5q0 59.5 43 101.5t103 42q57 0 100 -42t43 -102q0 -61 -43 -103 t-102.5 -42t-101.5 43t-42 102.5zM422 580h307q31 0 43 14t12 51q0 248 -161 248q-92 0 -146.5 -84t-54.5 -229zM664 1292.5q0 59.5 43 101.5t102 42t101 -42t42 -102q0 -61 -43 -103t-102 -42t-101 43t-42 102.5z" />
<glyph unicode="&#xec;" horiz-adv-x="757" d="M41 1380q0 43 34 73t83 30q45 0 74.5 -19.5t82.5 -85.5l232 -282h-131l-301 178q-74 43 -74 106zM57 0v104h29q92 0 111.5 15.5t19.5 81.5v456q0 137 -18.5 165t-112.5 28h-29v104l482 15v-770q0 -63 18 -79t109 -16h32v-104h-641z" />
<glyph unicode="&#xed;" horiz-adv-x="757" d="M57 0v104h29q92 0 111.5 15.5t19.5 81.5v456q0 137 -18.5 165t-112.5 28h-29v104l482 15v-770q0 -63 18 -79t109 -16h32v-104h-641zM209 1096l231 282q53 66 83 85.5t75 19.5q49 0 83 -30t34 -73q0 -63 -74 -106l-301 -178h-131z" />
<glyph unicode="&#xee;" horiz-adv-x="757" d="M18 1108l248 365h223l248 -365h-137l-221 190l-223 -190h-138zM57 0v104h29q92 0 111.5 15.5t19.5 81.5v456q0 137 -18.5 165t-112.5 28h-29v104l482 15v-770q0 -63 18 -79t109 -16h32v-104h-641z" />
<glyph unicode="&#xef;" horiz-adv-x="757" d="M14 1292.5q0 59.5 43 101.5t103 42q57 0 100 -42t43 -102q0 -61 -43 -103t-102.5 -42t-101.5 43t-42 102.5zM57 0v104h29q92 0 111.5 15.5t19.5 81.5v456q0 137 -18.5 165t-112.5 28h-29v104l482 15v-770q0 -63 18 -79t109 -16h32v-104h-641zM455 1292.5q0 59.5 43 101.5 t102 42t101 -42t42 -102q0 -61 -43 -103t-102 -42t-101 43t-42 102.5z" />
<glyph unicode="&#xf0;" d="M63 483q0 217 160 366.5t393 149.5q47 0 93 -12q-113 207 -248 324l-238 -148l-55 88l209 133q-63 63 -209 140l65 80q117 -43 234 -109l20 -12q20 -12 27 -15l256 156l57 -92l-221 -133q580 -440 580 -895q0 -238 -157 -386.5t-406 -148.5q-244 0 -402 145.5t-158 368.5 zM418 483q0 -408 207 -407q98 0 152 105.5t54 299.5q0 412 -204 412q-209 0 -209 -410z" />
<glyph unicode="&#xf1;" horiz-adv-x="1402" d="M41 0v104h29q94 0 113.5 15.5t19.5 81.5v450q0 143 -18.5 171t-112.5 28h-31v104l469 15v-181q76 115 160 163t204 48q168 0 254 -98q78 -84 78 -264v-436q0 -66 19.5 -81.5t113.5 -15.5h29v-104h-625v104q90 0 116 17.5t26 77.5v409q0 201 -150 201q-55 0 -104 -33 t-74 -88q-33 -66 -33 -194v-295q0 -59 25.5 -77t116.5 -18v-104h-625zM313 1157q18 121 87 199t157 78q70 0 197 -62q104 -49 145 -49q33 0 52.5 21.5t41.5 80.5h101q-14 -119 -89 -197.5t-169 -78.5q-53 0 -91 12.5t-116 55.5q-80 43 -123 43q-61 0 -90 -103h-103z" />
<glyph unicode="&#xf2;" d="M63 483q0 221 162 368.5t406 147.5q233 0 394 -150.5t161 -369.5t-161 -364.5t-402.5 -145.5t-400.5 145.5t-159 368.5zM289 1380q0 43 33.5 73t83.5 30q45 0 74.5 -19.5t82.5 -85.5l232 -282h-131l-302 178q-73 43 -73 106zM418 483q0 -408 207 -407q98 0 152 105.5 t54 299.5q0 412 -204 412q-209 0 -209 -410z" />
<glyph unicode="&#xf3;" d="M63 483q0 221 162 368.5t406 147.5q233 0 394 -150.5t161 -369.5t-161 -364.5t-402.5 -145.5t-400.5 145.5t-159 368.5zM418 483q0 -408 207 -407q98 0 152 105.5t54 299.5q0 412 -204 412q-209 0 -209 -410zM457 1096l231 282q53 66 83 85.5t75 19.5q49 0 83 -30t34 -73 q0 -63 -74 -106l-301 -178h-131z" />
<glyph unicode="&#xf4;" d="M63 483q0 221 162 368.5t406 147.5q233 0 394 -150.5t161 -369.5t-161 -364.5t-402.5 -145.5t-400.5 145.5t-159 368.5zM266 1108l248 365h223l248 -365h-137l-221 190l-224 -190h-137zM418 483q0 -408 207 -407q98 0 152 105.5t54 299.5q0 412 -204 412 q-209 0 -209 -410z" />
<glyph unicode="&#xf5;" d="M63 483q0 221 162 368.5t406 147.5q233 0 394 -150.5t161 -369.5t-161 -364.5t-402.5 -145.5t-400.5 145.5t-159 368.5zM238 1157q18 121 86.5 199t156.5 78q70 0 197 -62q104 -49 145 -49q33 0 52.5 21.5t42.5 80.5h100q-14 -119 -89 -197.5t-169 -78.5q-53 0 -91 12.5 t-116 55.5q-80 43 -123 43q-61 0 -90 -103h-102zM418 483q0 -408 207 -407q98 0 152 105.5t54 299.5q0 412 -204 412q-209 0 -209 -410z" />
<glyph unicode="&#xf6;" d="M63 483q0 221 162 368.5t406 147.5q233 0 394 -150.5t161 -369.5t-161 -364.5t-402.5 -145.5t-400.5 145.5t-159 368.5zM262 1292.5q0 59.5 43 101.5t102.5 42t101.5 -42t42 -102q0 -61 -43 -103t-102.5 -42t-101.5 43t-42 102.5zM418 483q0 -408 207 -407 q98 0 152 105.5t54 299.5q0 412 -204 412q-209 0 -209 -410zM702 1292.5q0 59.5 43 101.5t103 42q57 0 100 -42t43 -102q0 -61 -43 -103t-102.5 -42t-101.5 43t-42 102.5z" />
<glyph unicode="&#xf7;" horiz-adv-x="1241" d="M90 410v204h1061v-204h-1061zM428 143q0 78 56.5 135.5t136 57.5t136 -57.5t56.5 -135.5q0 -80 -56.5 -136t-136 -56t-136 56t-56.5 136zM428 883q0 78 56.5 135t136 57t136 -57t56.5 -135q0 -80 -56.5 -136.5t-136 -56.5t-136 56.5t-56.5 136.5z" />
<glyph unicode="&#xf8;" d="M63 483q0 217 161 366.5t394 149.5q119 0 224 -38l110 192h119l-137 -238q252 -162 252 -436q0 -219 -160 -364.5t-401 -145.5q-115 0 -219 37l-111 -190h-119l135 233q-115 63 -181.5 180t-66.5 254zM418 481q0 -125 20 -215l324 559q-55 68 -137 68q-207 0 -207 -412z M487 145q55 -70 136 -69q100 0 154 105.5t54 299.5q0 129 -20 221z" />
<glyph unicode="&#xf9;" horiz-adv-x="1402" d="M27 850v104l485 15v-590q0 -117 34 -168t111 -51q57 0 107.5 31.5t75.5 84.5q35 68 34 211v164q0 143 -18 171t-113 28h-32v104l485 15v-748q0 -55 20.5 -71.5t92.5 -16.5h57v-110l-477 -23v168q-88 -109 -171 -154t-192 -45q-217 0 -303 176q-20 43 -26.5 87t-6.5 159 v260q-2 145 -19 172t-112 27h-32zM365 1380q0 43 33.5 73t82.5 30q45 0 75 -19.5t83 -85.5l231 -282h-131l-301 178q-73 43 -73 106z" />
<glyph unicode="&#xfa;" horiz-adv-x="1402" d="M27 850v104l485 15v-590q0 -117 34 -168t111 -51q57 0 107.5 31.5t75.5 84.5q35 68 34 211v164q0 143 -18 171t-113 28h-32v104l485 15v-748q0 -55 20.5 -71.5t92.5 -16.5h57v-110l-477 -23v168q-88 -109 -171 -154t-192 -45q-217 0 -303 176q-20 43 -26.5 87t-6.5 159 v260q-2 145 -19 172t-112 27h-32zM532 1096l232 282q53 66 83 85.5t75 19.5q49 0 82.5 -30t33.5 -73q0 -63 -73 -106l-301 -178h-132z" />
<glyph unicode="&#xfb;" horiz-adv-x="1402" d="M27 850v104l485 15v-590q0 -117 34 -168t111 -51q57 0 107.5 31.5t75.5 84.5q35 68 34 211v164q0 143 -18 171t-113 28h-32v104l485 15v-748q0 -55 20.5 -71.5t92.5 -16.5h57v-110l-477 -23v168q-88 -109 -171 -154t-192 -45q-217 0 -303 176q-20 43 -26.5 87t-6.5 159 v260q-2 145 -19 172t-112 27h-32zM342 1108l248 365h223l248 -365h-137l-222 190l-223 -190h-137z" />
<glyph unicode="&#xfc;" horiz-adv-x="1402" d="M27 850v104l485 15v-590q0 -117 34 -168t111 -51q57 0 107.5 31.5t75.5 84.5q35 68 34 211v164q0 143 -18 171t-113 28h-32v104l485 15v-748q0 -55 20.5 -71.5t92.5 -16.5h57v-110l-477 -23v168q-88 -109 -171 -154t-192 -45q-217 0 -303 176q-20 43 -26.5 87t-6.5 159 v260q-2 145 -19 172t-112 27h-32zM338 1292.5q0 59.5 43 101.5t102 42q57 0 100.5 -42t43.5 -102q0 -61 -43 -103t-102.5 -42t-101.5 43t-42 102.5zM778 1292.5q0 59.5 43 101.5t102.5 42t101.5 -42t42 -102q0 -61 -43 -103t-102.5 -42t-101.5 43t-42 102.5z" />
<glyph unicode="&#xfd;" d="M20 -233q0 76 51.5 127t127.5 51q68 0 110.5 -39t42.5 -101q0 -18 -9 -41.5t-9 -33.5q0 -12 18 -13q86 -2 174 162l47 88l-419 815q-27 51 -48.5 65.5t-76.5 16.5v105h581v-105h-37q-72 0 -71 -43q0 -23 16 -55l217 -442l170 374q18 45 19 84q0 82 -129 82h-31v105h461 v-105q-63 -4 -103.5 -40t-83.5 -128l-358 -772q-84 -182 -180.5 -264t-225.5 -82q-115 0 -184.5 52.5t-69.5 136.5zM518 1096l232 282q53 66 82.5 85.5t74.5 19.5q49 0 83 -30t34 -73q0 -63 -74 -106l-301 -178h-131z" />
<glyph unicode="&#xfe;" horiz-adv-x="1366" d="M37 -311h29q94 0 113.5 15t19.5 81v1391q0 145 -17.5 172.5t-113.5 27.5h-31v103l483 28v-669q70 88 142.5 124.5t177.5 36.5q197 0 325.5 -139t128.5 -350q0 -229 -138 -385t-345 -156q-172 0 -291 133v-317q0 -61 27.5 -78.5t128.5 -17.5h22v-103h-661v103zM518 469 q0 -172 56.5 -266t158.5 -94q100 0 153.5 97t53.5 279q0 360 -190 361q-113 0 -172.5 -97.5t-59.5 -279.5z" />
<glyph unicode="&#xff;" d="M20 -233q0 76 51.5 127t127.5 51q68 0 110.5 -39t42.5 -101q0 -18 -9 -41.5t-9 -33.5q0 -12 18 -13q86 -2 174 162l47 88l-419 815q-27 51 -48.5 65.5t-76.5 16.5v105h581v-105h-37q-72 0 -71 -43q0 -23 16 -55l217 -442l170 374q18 45 19 84q0 82 -129 82h-31v105h461 v-105q-63 -4 -103.5 -40t-83.5 -128l-358 -772q-84 -182 -180.5 -264t-225.5 -82q-115 0 -184.5 52.5t-69.5 136.5zM324 1292.5q0 59.5 43 101.5t102 42t101 -42t42 -102q0 -61 -43 -103t-102 -42t-101 43t-42 102.5zM764 1292.5q0 59.5 43 101.5t102 42q57 0 100.5 -42 t43.5 -102q0 -61 -43 -103t-102.5 -42t-101.5 43t-42 102.5z" />
<glyph unicode="&#x100;" horiz-adv-x="1554" d="M-37 0v111q90 10 155.5 78.5t135.5 234.5l465 1085h155l527 -1269q33 -78 68.5 -101.5t123.5 -27.5v-111h-719v111l35 2q76 4 97.5 12t21.5 37q2 16 -24 84l-78 200h-510l-33 -77q-35 -84 -33 -117q0 -70 47 -102.5t158 -38.5v-111h-592zM446 1677v164h705v-164h-705z M469 584h405l-198 489z" />
<glyph unicode="&#x101;" d="M74 209q0 145 122.5 219t471.5 150q25 2 67 14v106q0 106 -38 150.5t-130 44.5q-61 0 -106 -19.5t-45 -46.5l22 -45q25 -43 25 -67q0 -57 -48 -95t-120 -38t-119 44t-47 109q0 121 128 192.5t339 71.5q233 0 347 -78.5t114 -269.5v-360q0 -90 11 -119t44 -29 q10 0 39 14.5t41 14.5q31 0 31 -33q0 -66 -69 -118t-157 -52q-162 0 -217 146q-82 -80 -170 -113t-221 -33q-150 0 -232.5 63.5t-82.5 176.5zM274 1208v164h705v-164h-705zM416 252q0 -66 35.5 -104.5t95.5 -38.5q86 0 137 69.5t51 188.5v114l-108 -24q-211 -47 -211 -205z " />
<glyph unicode="&#x102;" horiz-adv-x="1554" d="M-37 0v111q90 10 155.5 78.5t135.5 234.5l465 1085h155l527 -1269q33 -78 68.5 -101.5t123.5 -27.5v-111h-719v111l35 2q76 4 97.5 12t21.5 37q2 16 -24 84l-78 200h-510l-33 -77q-35 -84 -33 -117q0 -70 47 -102.5t158 -38.5v-111h-592zM410 1915h131q25 -152 258 -152 q229 0 254 152h131q0 -145 -102.5 -227t-287 -82t-284.5 81t-100 228zM469 584h405l-198 489z" />
<glyph unicode="&#x103;" d="M74 209q0 145 122.5 219t471.5 150q25 2 67 14v106q0 106 -38 150.5t-130 44.5q-61 0 -106 -19.5t-45 -46.5l22 -45q25 -43 25 -67q0 -57 -48 -95t-120 -38t-119 44t-47 109q0 121 128 192.5t339 71.5q233 0 347 -78.5t114 -269.5v-360q0 -90 11 -119t44 -29 q10 0 39 14.5t41 14.5q31 0 31 -33q0 -66 -69 -118t-157 -52q-162 0 -217 146q-82 -80 -170 -113t-221 -33q-150 0 -232.5 63.5t-82.5 176.5zM303 1462h109q20 -168 215 -168q193 0 213 168h108q0 -162 -85 -252t-238.5 -90t-237.5 89t-84 253zM416 252q0 -66 35.5 -104.5 t95.5 -38.5q86 0 137 69.5t51 188.5v114l-108 -24q-211 -47 -211 -205z" />
<glyph unicode="&#x104;" horiz-adv-x="1554" d="M-37 0v111q90 10 155.5 78.5t135.5 234.5l465 1085h155l527 -1269q33 -78 68.5 -101.5t123.5 -27.5v-111h-75q-84 0 -142.5 -67.5t-58.5 -159.5q0 -45 28.5 -70t73.5 -25q41 0 89 25t55 25q31 0 30 -33q0 -70 -73.5 -130.5t-170 -60.5t-167 50.5t-70.5 140.5 q0 88 39 157.5t115 147.5h-392v111l35 2q76 4 97.5 12t21.5 37q2 16 -24 84l-78 200h-510l-33 -77q-35 -84 -33 -117q0 -70 47 -102.5t158 -38.5v-111h-592zM469 584h405l-198 489z" />
<glyph unicode="&#x105;" d="M74 209q0 145 122.5 219t471.5 150q25 2 67 14v106q0 106 -38 150.5t-130 44.5q-61 0 -106 -19.5t-45 -46.5l22 -45q25 -43 25 -67q0 -57 -48 -95t-120 -38t-119 44t-47 109q0 121 128 192.5t339 71.5q233 0 347 -78.5t114 -269.5v-360q0 -90 11 -119t44 -29 q10 0 39 14.5t41 14.5q31 0 31 -33q0 -49 -40 -92t-102 -63q-63 -20 -99 -80t-36 -131q0 -45 29 -70t74 -25q41 0 89 25t54 25q31 0 31 -33q0 -70 -74 -130.5t-170 -60.5t-167 50.5t-71 140.5q0 145 148 297q-78 39 -109 123q-82 -80 -170 -113t-221 -33q-150 0 -232.5 63.5 t-82.5 176.5zM416 252q0 -66 35.5 -104.5t95.5 -38.5q86 0 137 69.5t51 188.5v114l-108 -24q-211 -47 -211 -205z" />
<glyph unicode="&#x106;" horiz-adv-x="1593" d="M82 721q0 344 218 566t556 222q109 0 191.5 -23.5t183.5 -84.5l110 100h89l20 -586l-109 -12q-70 256 -184.5 378t-284.5 122q-188 0 -285.5 -164t-97.5 -481q0 -338 100.5 -500t309.5 -162q176 0 295 117t160 330l127 -31q-59 -274 -218 -408.5t-432 -134.5 q-350 0 -555 226q-194 215 -194 526zM561 1583l279 256q66 59 99.5 76.5t88.5 17.5q57 0 98 -26.5t41 -65.5q0 -57 -88 -96l-360 -162h-158z" />
<glyph unicode="&#x107;" horiz-adv-x="1138" d="M63 469q0 231 165 380.5t421 149.5q186 0 297 -75.5t111 -202.5q0 -78 -50.5 -126t-134.5 -48q-74 0 -120.5 42t-46.5 107q0 47 43 101q23 27 22 39q0 25 -31.5 41t-76.5 16q-115 0 -179.5 -102.5t-64.5 -284.5q0 -190 68.5 -293.5t193.5 -103.5q104 0 173 61t120 192 l106 -34q-113 -358 -465 -359q-248 0 -399.5 137.5t-151.5 362.5zM399 1096l232 282q53 66 82.5 85.5t74.5 19.5q49 0 83 -30t34 -73q0 -63 -74 -106l-301 -178h-131z" />
<glyph unicode="&#x108;" horiz-adv-x="1593" d="M82 721q0 344 218 566t556 222q109 0 191.5 -23.5t183.5 -84.5l110 100h89l20 -586l-109 -12q-70 256 -184.5 378t-284.5 122q-188 0 -285.5 -164t-97.5 -481q0 -338 100.5 -500t309.5 -162q176 0 295 117t160 330l127 -31q-59 -274 -218 -408.5t-432 -134.5 q-350 0 -555 226q-194 215 -194 526zM365 1595l297 328h268l297 -328h-164l-266 170l-269 -170h-163z" />
<glyph unicode="&#x109;" horiz-adv-x="1138" d="M63 469q0 231 165 380.5t421 149.5q186 0 297 -75.5t111 -202.5q0 -78 -50.5 -126t-134.5 -48q-74 0 -120.5 42t-46.5 107q0 47 43 101q23 27 22 39q0 25 -31.5 41t-76.5 16q-115 0 -179.5 -102.5t-64.5 -284.5q0 -190 68.5 -293.5t193.5 -103.5q104 0 173 61t120 192 l106 -34q-113 -358 -465 -359q-248 0 -399.5 137.5t-151.5 362.5zM209 1108l248 365h223l248 -365h-137l-222 190l-223 -190h-137z" />
<glyph unicode="&#x10a;" horiz-adv-x="1593" d="M82 721q0 344 218 566t556 222q109 0 191.5 -23.5t183.5 -84.5l110 100h89l20 -586l-109 -12q-70 256 -184.5 378t-284.5 122q-188 0 -285.5 -164t-97.5 -481q0 -338 100.5 -500t309.5 -162q176 0 295 117t160 330l127 -31q-59 -274 -218 -408.5t-432 -134.5 q-350 0 -555 226q-194 215 -194 526zM653 1761.5q0 59.5 43 101.5t103 42q57 0 100 -43t43 -101q0 -61 -43 -103t-102.5 -42t-101.5 43t-42 102.5z" />
<glyph unicode="&#x10b;" horiz-adv-x="1138" d="M63 469q0 231 165 380.5t421 149.5q186 0 297 -75.5t111 -202.5q0 -78 -50.5 -126t-134.5 -48q-74 0 -120.5 42t-46.5 107q0 47 43 101q23 27 22 39q0 25 -31.5 41t-76.5 16q-115 0 -179.5 -102.5t-64.5 -284.5q0 -190 68.5 -293.5t193.5 -103.5q104 0 173 61t120 192 l106 -34q-113 -358 -465 -359q-248 0 -399.5 137.5t-151.5 362.5zM424 1290.5q0 59.5 43 101.5t102 42q57 0 100.5 -43t43.5 -101q0 -61 -43 -103t-102.5 -42t-101.5 43t-42 102.5z" />
<glyph unicode="&#x10c;" horiz-adv-x="1593" d="M82 721q0 344 218 566t556 222q109 0 191.5 -23.5t183.5 -84.5l110 100h89l20 -586l-109 -12q-70 256 -184.5 378t-284.5 122q-188 0 -285.5 -164t-97.5 -481q0 -338 100.5 -500t309.5 -162q176 0 295 117t160 330l127 -31q-59 -274 -218 -408.5t-432 -134.5 q-350 0 -555 226q-194 215 -194 526zM367 1923h163l267 -170l268 170h164l-297 -328h-268z" />
<glyph unicode="&#x10d;" horiz-adv-x="1138" d="M63 469q0 231 165 380.5t421 149.5q186 0 297 -75.5t111 -202.5q0 -78 -50.5 -126t-134.5 -48q-74 0 -120.5 42t-46.5 107q0 47 43 101q23 27 22 39q0 25 -31.5 41t-76.5 16q-115 0 -179.5 -102.5t-64.5 -284.5q0 -190 68.5 -293.5t193.5 -103.5q104 0 173 61t120 192 l106 -34q-113 -358 -465 -359q-248 0 -399.5 137.5t-151.5 362.5zM211 1473h137l221 -191l224 191h137l-248 -365h-223z" />
<glyph unicode="&#x10e;" horiz-adv-x="1705" d="M39 0v111h31q143 0 168 30q10 12 12 34t2 120v889q0 98 -2 119.5t-12 33.5q-25 31 -168 31h-31v111h729q217 0 344 -24.5t219 -86.5q293 -193 293 -612q0 -211 -72.5 -373t-210.5 -258q-180 -125 -548 -125h-754zM422 1923h164l266 -170l268 170h164l-297 -328h-268z M621 244q0 -82 23.5 -107.5t98.5 -25.5h43q227 0 329 154.5t102 494.5q0 608 -422 608h-52q-74 0 -98 -24.5t-24 -98.5v-1001z" />
<glyph unicode="&#x10f;" horiz-adv-x="1366" d="M76 469q0 223 135 376.5t332 153.5q186 0 299 -137v322q0 137 -18.5 163.5t-112.5 26.5h-66v105l518 30v-1259q0 -80 25 -103q16 -14 96 -14h55v-110l-479 -23v147q-121 -178 -336 -178q-201 0 -324.5 138.5t-123.5 361.5zM430 473q0 -174 53.5 -269t149.5 -95 q94 0 153.5 104t59.5 272q0 170 -57.5 272.5t-151.5 102.5q-98 0 -152.5 -102.5t-54.5 -284.5zM1253 1327q0 76 51.5 129t125.5 53q82 0 134 -61.5t52 -159.5q0 -248 -311 -438l-50 74q84 59 133.5 122.5t49.5 114.5q0 10 -8 10h-7q-6 -2 -16 -2q-63 0 -108.5 46t-45.5 112z " />
<glyph unicode="&#x110;" horiz-adv-x="1705" d="M39 0v111h31q143 0 168 30q10 12 12 34t2 120v399h-213v123h213v367q0 98 -2 119.5t-12 33.5q-25 31 -168 31h-31v111h690q254 0 379 -22.5t223 -88.5q293 -190 293 -612q0 -211 -72.5 -373t-210.5 -258q-180 -125 -548 -125h-754zM621 244q0 -82 23.5 -107.5t98.5 -25.5 h45q227 0 328 153.5t101 491.5q0 315 -103.5 463.5t-316.5 148.5h-54q-70 0 -96 -22.5t-26 -100.5v-428h294v-123h-294v-450z" />
<glyph unicode="&#x111;" horiz-adv-x="1366" d="M76 469q0 223 135 376.5t332 153.5q186 0 299 -137v236h-289v123h289q-2 106 -21.5 129.5t-109.5 23.5h-66v105l518 30v-288h156v-123h-156v-848q0 -80 25 -103q16 -14 96 -14h55v-110l-479 -23v147q-121 -178 -336 -178q-201 0 -324.5 138.5t-123.5 361.5zM430 473 q0 -174 53.5 -269t149.5 -95q94 0 153.5 104t59.5 272q0 170 -57.5 272.5t-151.5 102.5q-98 0 -152.5 -102.5t-54.5 -284.5z" />
<glyph unicode="&#x112;" horiz-adv-x="1554" d="M33 0v111h30q143 0 168 30q10 12 12.5 34t2.5 120v889q0 98 -2 119.5t-13 33.5q-25 31 -168 31h-30v111h1374l12 -533h-106q-49 172 -119 271q-111 152 -346 151h-57q-123 0 -156 -45q-20 -31 -21 -131v-371h76q92 0 158.5 77t83.5 214h110v-694h-110q-16 137 -83 214 t-159 77h-76v-455q0 -84 33 -115q18 -18 47 -23t105 -5h61q186 0 301 105.5t178 334.5h109l-25 -551h-1390zM426 1677v164h704v-164h-704z" />
<glyph unicode="&#x113;" horiz-adv-x="1175" d="M66 475q0 223 156.5 373.5t393.5 150.5q223 0 356.5 -135t133.5 -364v-33h-686q0 -186 75.5 -272t202.5 -86q100 0 173 54t135 173l100 -41q-133 -326 -488 -326q-252 0 -402 141.5t-150 364.5zM236 1208v164h704v-164h-704zM422 580h307q31 0 43 14t12 51 q0 248 -161 248q-92 0 -146.5 -84t-54.5 -229z" />
<glyph unicode="&#x114;" horiz-adv-x="1554" d="M33 0v111h30q143 0 168 30q10 12 12.5 34t2.5 120v889q0 98 -2 119.5t-13 33.5q-25 31 -168 31h-30v111h1374l12 -533h-106q-49 172 -119 271q-111 152 -346 151h-57q-123 0 -156 -45q-20 -31 -21 -131v-371h76q92 0 158.5 77t83.5 214h110v-694h-110q-16 137 -83 214 t-159 77h-76v-455q0 -84 33 -115q18 -18 47 -23t105 -5h61q186 0 301 105.5t178 334.5h109l-25 -551h-1390zM391 1915h131q25 -152 258 -152q229 0 254 152h131q0 -145 -102 -227t-286.5 -82t-285 81t-100.5 228z" />
<glyph unicode="&#x115;" horiz-adv-x="1175" d="M66 475q0 223 156.5 373.5t393.5 150.5q223 0 356.5 -135t133.5 -364v-33h-686q0 -186 75.5 -272t202.5 -86q100 0 173 54t135 173l100 -41q-133 -326 -488 -326q-252 0 -402 141.5t-150 364.5zM264 1462h109q20 -168 215 -168q193 0 213 168h108q0 -162 -85 -252 t-238.5 -90t-237.5 89t-84 253zM422 580h307q31 0 43 14t12 51q0 248 -161 248q-92 0 -146.5 -84t-54.5 -229z" />
<glyph unicode="&#x116;" horiz-adv-x="1554" d="M33 0v111h30q143 0 168 30q10 12 12.5 34t2.5 120v889q0 98 -2 119.5t-13 33.5q-25 31 -168 31h-30v111h1374l12 -533h-106q-49 172 -119 271q-111 152 -346 151h-57q-123 0 -156 -45q-20 -31 -21 -131v-371h76q92 0 158.5 77t83.5 214h110v-694h-110q-16 137 -83 214 t-159 77h-76v-455q0 -84 33 -115q18 -18 47 -23t105 -5h61q186 0 301 105.5t178 334.5h109l-25 -551h-1390zM633 1761.5q0 59.5 43 101.5t102 42q57 0 100.5 -43t43.5 -101q0 -61 -43 -103t-102.5 -42t-101.5 43t-42 102.5z" />
<glyph unicode="&#x117;" horiz-adv-x="1175" d="M66 475q0 223 156.5 373.5t393.5 150.5q223 0 356.5 -135t133.5 -364v-33h-686q0 -186 75.5 -272t202.5 -86q100 0 173 54t135 173l100 -41q-133 -326 -488 -326q-252 0 -402 141.5t-150 364.5zM422 580h307q31 0 43 14t12 51q0 248 -161 248q-92 0 -146.5 -84 t-54.5 -229zM442 1290.5q0 59.5 43 101.5t102.5 42t101.5 -43t42 -101q0 -61 -43 -103t-102.5 -42t-101.5 43t-42 102.5z" />
<glyph unicode="&#x118;" horiz-adv-x="1554" d="M33 0v111h30q143 0 168 30q10 12 12.5 34t2.5 120v889q0 98 -2 119.5t-13 33.5q-25 31 -168 31h-30v111h1374l12 -533h-106q-49 172 -119 271q-111 152 -346 151h-57q-123 0 -156 -45q-20 -31 -21 -131v-371h76q92 0 158.5 77t83.5 214h110v-694h-110q-16 137 -83 214 t-159 77h-76v-455q0 -84 33 -115q18 -18 47 -23t105 -5h61q186 0 301 105.5t178 334.5h109l-25 -551h-84q-82 0 -137 -67.5t-55 -159.5q0 -45 28.5 -70t73.5 -25q41 0 89 25t55 25q31 0 30 -33q0 -70 -73.5 -130.5t-170 -60.5t-167 50.5t-70.5 140.5q0 88 39 157.5 t115 147.5h-1063z" />
<glyph unicode="&#x119;" horiz-adv-x="1175" d="M66 475q0 223 156.5 373.5t393.5 150.5q223 0 356.5 -135t133.5 -364v-33h-686q0 -186 75.5 -272t202.5 -86q100 0 173 54t135 173l100 -41q-94 -229 -293 -297q-68 -23 -104.5 -85.5t-36.5 -139.5q0 -45 28.5 -70t73.5 -25q41 0 89 25t55 25q31 0 30 -33 q0 -70 -73.5 -130.5t-170 -60.5t-167 50.5t-70.5 140.5q0 139 125 274q-240 8 -383 148.5t-143 357.5zM422 580h307q31 0 43 14t12 51q0 248 -161 248q-92 0 -146.5 -84t-54.5 -229z" />
<glyph unicode="&#x11a;" horiz-adv-x="1554" d="M33 0v111h30q143 0 168 30q10 12 12.5 34t2.5 120v889q0 98 -2 119.5t-13 33.5q-25 31 -168 31h-30v111h1374l12 -533h-106q-49 172 -119 271q-111 152 -346 151h-57q-123 0 -156 -45q-20 -31 -21 -131v-371h76q92 0 158.5 77t83.5 214h110v-694h-110q-16 137 -83 214 t-159 77h-76v-455q0 -84 33 -115q18 -18 47 -23t105 -5h61q186 0 301 105.5t178 334.5h109l-25 -551h-1390zM346 1923h164l266 -170l268 170h164l-297 -328h-268z" />
<glyph unicode="&#x11b;" horiz-adv-x="1175" d="M66 475q0 223 156.5 373.5t393.5 150.5q223 0 356.5 -135t133.5 -364v-33h-686q0 -186 75.5 -272t202.5 -86q100 0 173 54t135 173l100 -41q-133 -326 -488 -326q-252 0 -402 141.5t-150 364.5zM229 1473h138l221 -191l223 191h137l-248 -365h-223zM422 580h307 q31 0 43 14t12 51q0 248 -161 248q-92 0 -146.5 -84t-54.5 -229z" />
<glyph unicode="&#x11c;" horiz-adv-x="1705" d="M80 717q0 330 203 545q229 248 587 247q111 0 197 -24.5t195 -85.5l120 102h91l18 -588h-109q-51 233 -178 361.5t-309 128.5q-90 0 -167 -41t-122 -113q-117 -188 -117 -520q0 -297 84 -477q39 -84 112 -130t167 -46q139 0 221 91t82 255q0 115 -22.5 135.5t-147.5 20.5 h-39v110h727v-110q-145 -2 -168 -29q-10 -12 -12 -34.5t-2 -121.5v-422h-109l-100 201q-76 -78 -143 -119q-150 -84 -344 -84q-317 0 -516 208t-199 540zM422 1595l297 328h268l297 -328h-164l-266 170l-268 -170h-164z" />
<glyph unicode="&#x11d;" d="M61 -213q0 72 57.5 119t160.5 63q-186 51 -187 191q0 158 238 200q-225 78 -226 289q0 152 136.5 251t347.5 99q156 0 274 -59q129 162 262 162q68 0 110 -37t42 -96q0 -55 -37 -93t-90 -38q-41 0 -76 28.5t-35 63.5v8q0 10 -10 10q-35 0 -76 -57q68 -55 95.5 -107.5 t27.5 -124.5q0 -158 -122 -245.5t-355 -87.5h-37q-88 0 -121.5 -14.5t-33.5 -53.5q0 -37 25.5 -48t107.5 -11h141q258 0 366.5 -58.5t108.5 -214.5q0 -164 -153.5 -252t-440.5 -88q-500 0 -500 201zM266 1108l248 365h223l248 -365h-137l-221 190l-224 -190h-137zM328 -188 q0 -57 64.5 -88t182.5 -31q313 0 314 125q0 35 -9.5 52t-58.5 29.5t-149 12.5h-269q-75 -32 -75 -100zM436 668q0 -244 156 -244q72 0 111.5 61.5t39.5 169.5q0 238 -149 238q-158 0 -158 -225z" />
<glyph unicode="&#x11e;" horiz-adv-x="1705" d="M80 717q0 330 203 545q229 248 587 247q111 0 197 -24.5t195 -85.5l120 102h91l18 -588h-109q-51 233 -178 361.5t-309 128.5q-90 0 -167 -41t-122 -113q-117 -188 -117 -520q0 -297 84 -477q39 -84 112 -130t167 -46q139 0 221 91t82 255q0 115 -22.5 135.5t-147.5 20.5 h-39v110h727v-110q-145 -2 -168 -29q-10 -12 -12 -34.5t-2 -121.5v-422h-109l-100 201q-76 -78 -143 -119q-150 -84 -344 -84q-317 0 -516 208t-199 540zM467 1915h131q25 -152 258 -152q229 0 254 152h131q0 -145 -102.5 -227t-286.5 -82t-284.5 81t-100.5 228z" />
<glyph unicode="&#x11f;" d="M61 -213q0 72 57.5 119t160.5 63q-186 51 -187 191q0 158 238 200q-225 78 -226 289q0 152 136.5 251t347.5 99q156 0 274 -59q129 162 262 162q68 0 110 -37t42 -96q0 -55 -37 -93t-90 -38q-41 0 -76 28.5t-35 63.5v8q0 10 -10 10q-35 0 -76 -57q68 -55 95.5 -107.5 t27.5 -124.5q0 -158 -122 -245.5t-355 -87.5h-37q-88 0 -121.5 -14.5t-33.5 -53.5q0 -37 25.5 -48t107.5 -11h141q258 0 366.5 -58.5t108.5 -214.5q0 -164 -153.5 -252t-440.5 -88q-500 0 -500 201zM303 1462h109q20 -168 215 -168q193 0 213 168h108q0 -162 -85 -252 t-238.5 -90t-237.5 89t-84 253zM328 -188q0 -57 64.5 -88t182.5 -31q313 0 314 125q0 35 -9.5 52t-58.5 29.5t-149 12.5h-269q-75 -32 -75 -100zM436 668q0 -244 156 -244q72 0 111.5 61.5t39.5 169.5q0 238 -149 238q-158 0 -158 -225z" />
<glyph unicode="&#x120;" horiz-adv-x="1705" d="M80 717q0 330 203 545q229 248 587 247q111 0 197 -24.5t195 -85.5l120 102h91l18 -588h-109q-51 233 -178 361.5t-309 128.5q-90 0 -167 -41t-122 -113q-117 -188 -117 -520q0 -297 84 -477q39 -84 112 -130t167 -46q139 0 221 91t82 255q0 115 -22.5 135.5t-147.5 20.5 h-39v110h727v-110q-145 -2 -168 -29q-10 -12 -12 -34.5t-2 -121.5v-422h-109l-100 201q-76 -78 -143 -119q-150 -84 -344 -84q-317 0 -516 208t-199 540zM709 1761.5q0 59.5 43 101.5t102 42t101 -43t42 -101q0 -61 -43 -103t-102 -42t-101 43t-42 102.5z" />
<glyph unicode="&#x121;" d="M61 -213q0 72 57.5 119t160.5 63q-186 51 -187 191q0 158 238 200q-225 78 -226 289q0 152 136.5 251t347.5 99q156 0 274 -59q129 162 262 162q68 0 110 -37t42 -96q0 -55 -37 -93t-90 -38q-41 0 -76 28.5t-35 63.5v8q0 10 -10 10q-35 0 -76 -57q68 -55 95.5 -107.5 t27.5 -124.5q0 -158 -122 -245.5t-355 -87.5h-37q-88 0 -121.5 -14.5t-33.5 -53.5q0 -37 25.5 -48t107.5 -11h141q258 0 366.5 -58.5t108.5 -214.5q0 -164 -153.5 -252t-440.5 -88q-500 0 -500 201zM328 -188q0 -57 64.5 -88t182.5 -31q313 0 314 125q0 35 -9.5 52 t-58.5 29.5t-149 12.5h-269q-75 -32 -75 -100zM436 668q0 -244 156 -244q72 0 111.5 61.5t39.5 169.5q0 238 -149 238q-158 0 -158 -225zM481 1290.5q0 59.5 43 101.5t103 42q57 0 100 -43t43 -101q0 -61 -43 -103t-102.5 -42t-101.5 43t-42 102.5z" />
<glyph unicode="&#x122;" horiz-adv-x="1705" d="M80 717q0 330 203 545q229 248 587 247q111 0 197 -24.5t195 -85.5l120 102h91l18 -588h-109q-51 233 -178 361.5t-309 128.5q-90 0 -167 -41t-122 -113q-117 -188 -117 -520q0 -297 84 -477q39 -84 112 -130t167 -46q139 0 221 91t82 255q0 115 -22.5 135.5t-147.5 20.5 h-39v110h727v-110q-145 -2 -168 -29q-10 -12 -12 -34.5t-2 -121.5v-422h-109l-100 201q-76 -78 -143 -119q-150 -84 -344 -84q-317 0 -516 208t-199 540zM672 -285q0 76 51 129.5t125 53.5q82 0 134 -61.5t52 -160.5q0 -248 -311 -438l-49 74q84 59 133 122.5t49 114.5 q0 10 -8 11h-6q-6 -2 -17 -2q-63 0 -108 45.5t-45 111.5z" />
<glyph unicode="&#x123;" d="M61 -213q0 72 57.5 119t160.5 63q-186 51 -187 191q0 158 238 200q-225 78 -226 289q0 152 136.5 251t347.5 99q156 0 274 -59q129 162 262 162q68 0 110 -37t42 -96q0 -55 -37 -93t-90 -38q-41 0 -76 28.5t-35 63.5v8q0 10 -10 10q-35 0 -76 -57q68 -55 95.5 -107.5 t27.5 -124.5q0 -158 -122 -245.5t-355 -87.5h-37q-88 0 -121.5 -14.5t-33.5 -53.5q0 -37 25.5 -48t107.5 -11h141q258 0 366.5 -58.5t108.5 -214.5q0 -164 -153.5 -252t-440.5 -88q-500 0 -500 201zM328 -188q0 -57 64.5 -88t182.5 -31q313 0 314 125q0 35 -9.5 52 t-58.5 29.5t-149 12.5h-269q-75 -32 -75 -100zM436 668q0 -244 156 -244q72 0 111.5 61.5t39.5 169.5q0 238 -149 238q-158 0 -158 -225zM446 1227q0 248 312 438l49 -74q-84 -59 -133 -122.5t-49 -114.5q0 -10 8 -11h6q6 2 16 3q63 0 108.5 -46.5t45.5 -111.5 q0 -76 -51 -129t-125 -53q-82 0 -134.5 61.5t-52.5 159.5z" />
<glyph unicode="&#x124;" horiz-adv-x="1781" d="M41 0v111h31q143 0 168 30q10 12 12 34t2 120v887q0 100 -2 121.5t-12 33.5q-25 31 -168 31h-31v111h797v-111h-31q-145 0 -170 -31q-10 -12 -12 -33.5t-2 -121.5v-365h534v365q0 100 -2 121.5t-12 33.5q-25 31 -168 31h-31v111h797v-111h-31q-145 0 -170 -31 q-10 -12 -12 -33.5t-2 -121.5v-887q0 -100 2 -120.5t12 -33.5q25 -31 170 -30h31v-111h-797v111h31q143 0 168 30q10 12 12 34t2 120v399h-534v-399q0 -100 2 -120.5t12 -33.5q25 -31 170 -30h31v-111h-797zM459 1595l297 328h268l297 -328h-164l-266 170l-268 -170h-164z " />
<glyph unicode="&#x125;" horiz-adv-x="1402" d="M33 1374v105l491 30v-698q123 188 348 188q166 0 252 -98q78 -84 78 -264v-436q0 -66 19.5 -81.5t113.5 -15.5h29v-104h-625v104q90 0 116 17.5t26 77.5v409q0 201 -146 201q-57 0 -106 -33t-74 -88q-31 -68 -31 -194v-293q0 -63 24.5 -80t115.5 -17v-104h-625v104h29 q96 0 115.5 15.5t19.5 79.5v977q-2 145 -19.5 171.5t-111.5 26.5h-39zM270 1626l297 328h269l297 -328h-164l-267 170l-268 -170h-164z" />
<glyph unicode="&#x126;" horiz-adv-x="1781" d="M41 0v111h31q143 0 168 30q10 12 12 34t2 120v762h-213v106h213v19q0 100 -2 121.5t-12 33.5q-25 31 -168 31h-31v111h797v-111h-31q-145 0 -170 -31q-10 -12 -12 -33.5t-2 -121.5v-19h534v19q0 100 -2 121.5t-12 33.5q-25 31 -168 31h-31v111h797v-111h-31 q-145 0 -170 -31q-10 -12 -12 -33.5t-2 -121.5v-19h215v-106h-215v-762q0 -100 2 -120.5t12 -33.5q25 -31 170 -30h31v-111h-797v111h31q143 0 168 30q10 12 12 34t2 120v399h-534v-399q0 -100 2 -120.5t12 -33.5q25 -31 170 -30h31v-111h-797zM623 817h534v240h-534v-240z " />
<glyph unicode="&#x127;" horiz-adv-x="1511" d="M90 924v90l170 65v97q-2 145 -19.5 171.5t-111.5 26.5h-39v105l492 30v-307l178 68v-92l-178 -68v-299q123 188 348 188q166 0 252 -98q78 -84 78 -264v-436q0 -66 19 -81.5t114 -15.5h28v-104h-624v104q90 0 115.5 17.5t25.5 77.5v409q0 201 -145 201q-57 0 -106.5 -33 t-74.5 -88q-31 -68 -30 -194v-293q0 -63 24.5 -80t114.5 -17v-104h-625v104h29q96 0 115.5 15.5t19.5 79.5v788z" />
<glyph unicode="&#x128;" horiz-adv-x="909" d="M57 0v111h31q143 0 168 30q10 12 12 34t2 120v889q0 98 -2 119.5t-12 33.5q-25 31 -168 31h-31v111h797v-111h-31q-145 0 -170 -31q-10 -12 -12 -32.5t-2 -120.5v-889q0 -100 2 -120.5t12 -33.5q25 -31 170 -30h31v-111h-797zM68 1626q18 121 86.5 199t156.5 78 q70 0 197 -62q104 -49 145 -49q33 0 52.5 21.5t42.5 80.5h100q-14 -119 -89 -197.5t-169 -78.5q-53 0 -91 12t-116 56q-80 43 -123 43q-61 0 -90 -103h-102z" />
<glyph unicode="&#x129;" horiz-adv-x="757" d="M-10 1157q18 121 86.5 199t156.5 78q70 0 197 -62q104 -49 145 -49q33 0 52.5 21.5t42.5 80.5h100q-14 -119 -89 -197.5t-169 -78.5q-53 0 -91 12.5t-116 55.5q-80 43 -123 43q-61 0 -90 -103h-102zM57 0v104h29q92 0 111.5 15.5t19.5 81.5v456q0 137 -18.5 165 t-112.5 28h-29v104l482 15v-770q0 -63 18 -79t109 -16h32v-104h-641z" />
<glyph unicode="&#x12a;" horiz-adv-x="909" d="M57 0v111h31q143 0 168 30q10 12 12 34t2 120v889q0 98 -2 119.5t-12 33.5q-25 31 -168 31h-31v111h797v-111h-31q-145 0 -170 -31q-10 -12 -12 -32.5t-2 -120.5v-889q0 -100 2 -120.5t12 -33.5q25 -31 170 -30h31v-111h-797zM104 1677v164h705v-164h-705z" />
<glyph unicode="&#x12b;" horiz-adv-x="757" d="M27 1208v164h704v-164h-704zM57 0v104h29q92 0 111.5 15.5t19.5 81.5v456q0 137 -18.5 165t-112.5 28h-29v104l482 15v-770q0 -63 18 -79t109 -16h32v-104h-641z" />
<glyph unicode="&#x12c;" horiz-adv-x="909" d="M57 0v111h31q143 0 168 30q10 12 12 34t2 120v889q0 98 -2 119.5t-12 33.5q-25 31 -168 31h-31v111h797v-111h-31q-145 0 -170 -31q-10 -12 -12 -32.5t-2 -120.5v-889q0 -100 2 -120.5t12 -33.5q25 -31 170 -30h31v-111h-797zM68 1915h131q25 -152 258 -152 q229 0 254 152h131q0 -145 -102.5 -227t-287 -82t-284.5 81t-100 228z" />
<glyph unicode="&#x12d;" horiz-adv-x="757" d="M55 1462h109q20 -168 215 -168q193 0 213 168h108q0 -162 -85 -252t-238.5 -90t-237.5 89t-84 253zM57 0v104h29q92 0 111.5 15.5t19.5 81.5v456q0 137 -18.5 165t-112.5 28h-29v104l482 15v-770q0 -63 18 -79t109 -16h32v-104h-641z" />
<glyph unicode="&#x12e;" horiz-adv-x="909" d="M57 0v111h31q143 0 168 30q10 12 12 34t2 120v889q0 98 -2 119.5t-12 33.5q-25 31 -168 31h-31v111h797v-111h-31q-145 0 -170 -31q-10 -12 -12 -32.5t-2 -120.5v-889q0 -100 2 -120.5t12 -33.5q25 -31 170 -30h31v-111h-49q-180 0 -236 -111q-33 -74 -32 -116 q0 -45 28.5 -70t73.5 -25q41 0 89 25t54 25q31 0 31 -33q0 -70 -73.5 -130.5t-170 -60.5t-167 50.5t-70.5 140.5q0 88 39 157.5t114 147.5h-428z" />
<glyph unicode="&#x12f;" horiz-adv-x="757" d="M57 0v104h29q92 0 111.5 15.5t19.5 81.5v456q0 137 -18.5 165t-112.5 28h-29v104l482 15v-770q0 -63 18 -79t109 -16h32v-104h-67q-88 0 -148.5 -66.5t-60.5 -160.5q0 -45 28.5 -70t73.5 -25q41 0 89.5 25t54.5 25q31 0 30 -33q0 -70 -73.5 -130.5t-170 -60.5t-167 50.5 t-70.5 140.5q0 88 39 157.5t115 147.5h-314zM231 1290.5q0 59.5 43 101.5t103 42q57 0 100 -43t43 -101q0 -61 -43 -103t-102.5 -42t-101.5 43t-42 102.5z" />
<glyph unicode="&#x130;" horiz-adv-x="909" d="M57 0v111h31q143 0 168 30q10 12 12 34t2 120v889q0 98 -2 119.5t-12 33.5q-25 31 -168 31h-31v111h797v-111h-31q-145 0 -170 -31q-10 -12 -12 -32.5t-2 -120.5v-889q0 -100 2 -120.5t12 -33.5q25 -31 170 -30h31v-111h-797zM311 1761.5q0 59.5 43 101.5t102.5 42 t101.5 -43t42 -101q0 -61 -43 -103t-102.5 -42t-101.5 43t-42 102.5z" />
<glyph unicode="&#x131;" horiz-adv-x="757" d="M57 0v104h29q92 0 111.5 15.5t19.5 81.5v456q0 137 -18.5 165t-112.5 28h-29v104l482 15v-770q0 -63 18 -79t109 -16h32v-104h-641z" />
<glyph unicode="&#x134;" horiz-adv-x="1327" d="M8 373q0 131 72 217t182 86q92 0 151.5 -59.5t59.5 -149.5q0 -84 -53 -138.5t-135 -54.5q-12 0 -39 5.5t-35 5.5q-39 0 -39 -39q0 -59 72.5 -105.5t169.5 -46.5q80 0 148.5 33t107.5 88q55 80 55 287v682q0 100 -2 120.5t-12 32.5q-25 31 -168 31h-31v111h797v-111h-31 q-145 0 -170 -31q-10 -12 -12 -32.5t-2 -120.5v-611q0 -604 -590 -604q-229 0 -362.5 108t-133.5 296zM477 1595l297 328h268l297 -328h-163l-267 170l-268 -170h-164z" />
<glyph unicode="&#x135;" horiz-adv-x="720" d="M-168 -209q0 66 45 110t115 44q57 0 95 -39t38 -99q0 -63 -59 -102q16 -23 53 -22q109 0 108 202v789q0 123 -20.5 149.5t-110.5 26.5h-65v104l518 15v-746q0 -293 -72 -430q-47 -94 -144 -150.5t-214 -56.5q-125 0 -206 57.5t-81 147.5zM16 1108l248 365h223l248 -365 h-137l-221 190l-223 -190h-138z" />
<glyph unicode="&#x136;" horiz-adv-x="1669" d="M31 0v111h30q143 0 168 30q10 12 12.5 34t2.5 120v889q0 98 -2 119.5t-13 33.5q-25 31 -168 31h-30v111h796v-111h-30q-145 0 -170 -31q-10 -12 -12.5 -33.5t-2.5 -119.5v-479l453 479q63 68 68 112q0 72 -154 72h-49v111h690v-111q-102 -6 -192.5 -58.5t-223.5 -183.5 l-170 -178l426 -680q68 -111 98.5 -132t116.5 -25v-111h-745v111h26q139 0 140 47q0 23 -25 65l-287 469l-172 -180v-217q0 -98 2 -119.5t13 -34.5q25 -31 170 -30h30v-111h-796zM698 -285q0 76 51.5 129.5t124.5 53.5q82 0 134.5 -61.5t52.5 -160.5q0 -248 -311 -438 l-50 74q84 59 133.5 122.5t49.5 114.5q0 10 -9 11h-6q-6 -2 -16 -2q-63 0 -108.5 45.5t-45.5 111.5z" />
<glyph unicode="&#x137;" horiz-adv-x="1366" d="M25 1374v105l491 30v-1005l254 221q51 45 51 82q0 57 -123 57h-24v105h602v-105h-47q-109 0 -221 -96l-158 -131l321 -401q68 -88 97.5 -110t83.5 -22v-104h-627v104h27q74 0 73 41q0 31 -26 64l-189 227l-94 -84v-151q0 -61 25.5 -79t113.5 -18v-104h-624v104h28 q96 0 116 15.5t20 79.5v985q0 137 -18.5 163.5t-113.5 26.5h-38zM502 -285q0 76 51 129.5t125 53.5q82 0 134 -61.5t52 -160.5q0 -248 -311 -438l-49 74q84 59 133 122.5t49 114.5q0 10 -8 11h-6q-6 -2 -17 -2q-63 0 -108 45.5t-45 111.5z" />
<glyph unicode="&#x139;" horiz-adv-x="1478" d="M39 0v111h31q143 0 168 30q10 12 12 34t2 122v887q0 98 -2 119.5t-12 33.5q-25 31 -168 31h-31v111h811v-111h-45q-145 0 -170 -31q-10 -12 -12 -33.5t-2 -119.5v-930q0 -84 32 -115q18 -18 47 -23t105 -5h43q217 0 346 153q78 94 133 287h109l-25 -551h-1372zM209 1583 l278 256q66 59 100 76.5t89 17.5q57 0 98 -26.5t41 -65.5q0 -57 -88 -96l-360 -162h-158z" />
<glyph unicode="&#x13a;" horiz-adv-x="720" d="M33 1374v105l491 30v-1310q0 -63 31 -80q25 -14 94 -15h29v-104h-639v104h29q96 0 115.5 15.5t19.5 79.5v985q0 137 -18.5 163.5t-112.5 26.5h-39zM125 1614l278 256q66 59 100 76.5t89 17.5q57 0 98 -26.5t41 -65.5q0 -57 -88 -96l-360 -162h-158z" />
<glyph unicode="&#x13b;" horiz-adv-x="1478" d="M39 0v111h31q143 0 168 30q10 12 12 34t2 122v887q0 98 -2 119.5t-12 33.5q-25 31 -168 31h-31v111h811v-111h-45q-145 0 -170 -31q-10 -12 -12 -33.5t-2 -119.5v-930q0 -84 32 -115q18 -18 47 -23t105 -5h43q217 0 346 153q78 94 133 287h109l-25 -551h-1372zM559 -285 q0 76 51.5 129.5t124.5 53.5q82 0 134.5 -61.5t52.5 -160.5q0 -248 -312 -438l-49 74q84 59 133 122.5t49 114.5q0 10 -8 11h-6q-6 -2 -16 -2q-63 0 -108.5 45.5t-45.5 111.5z" />
<glyph unicode="&#x13c;" horiz-adv-x="720" d="M33 1374v105l491 30v-1310q0 -63 31 -80q25 -14 94 -15h29v-104h-639v104h29q96 0 115.5 15.5t19.5 79.5v985q0 137 -18.5 163.5t-112.5 26.5h-39zM180 -285q0 76 51.5 129.5t124.5 53.5q82 0 134.5 -61.5t52.5 -160.5q0 -248 -312 -438l-49 74q84 59 133.5 122.5 t49.5 114.5q0 10 -9 11h-6q-6 -2 -16 -2q-63 0 -108.5 45.5t-45.5 111.5z" />
<glyph unicode="&#x13d;" horiz-adv-x="1478" d="M39 0v111h31q143 0 168 30q10 12 12 34t2 122v887q0 98 -2 119.5t-12 33.5q-25 31 -168 31h-31v111h811v-111h-45q-145 0 -170 -31q-10 -12 -12 -33.5t-2 -119.5v-930q0 -84 32 -115q18 -18 47 -23t105 -5h43q217 0 346 153q78 94 133 287h109l-25 -551h-1372zM940 1296 q0 76 51 129.5t125 53.5q82 0 134.5 -61.5t52.5 -160.5q0 -248 -312 -438l-49 74q84 59 133 122.5t49 114.5q0 10 -8 11h-6q-6 -2 -16 -2q-63 0 -108.5 45.5t-45.5 111.5z" />
<glyph unicode="&#x13e;" horiz-adv-x="720" d="M33 1374v105l491 30v-1310q0 -63 31 -80q25 -14 94 -15h29v-104h-639v104h29q96 0 115.5 15.5t19.5 79.5v985q0 137 -18.5 163.5t-112.5 26.5h-39zM614 1327q0 76 51.5 129t125.5 53q82 0 134 -61.5t52 -159.5q0 -248 -311 -438l-50 74q84 59 133.5 122.5t49.5 114.5 q0 10 -8 10h-7q-6 -2 -16 -2q-63 0 -108.5 46t-45.5 112z" />
<glyph unicode="&#x13f;" horiz-adv-x="1478" d="M39 0v111h31q143 0 168 30q10 12 12 34t2 122v887q0 98 -2 119.5t-12 33.5q-25 31 -168 31h-31v111h811v-111h-45q-145 0 -170 -31q-10 -12 -12 -33.5t-2 -119.5v-930q0 -84 32 -115q18 -18 47 -23t105 -5h43q217 0 346 153q78 94 133 287h109l-25 -551h-1372z M1032 786.5q0 59.5 43 101.5t102.5 42t101.5 -43t42 -101q0 -61 -43 -103t-102.5 -42t-101.5 43t-42 102.5z" />
<glyph unicode="&#x140;" horiz-adv-x="821" d="M33 1374v105l491 30v-1310q0 -63 31 -80q25 -14 94 -15h29v-104h-639v104h29q96 0 115.5 15.5t19.5 79.5v985q0 137 -18.5 163.5t-112.5 26.5h-39zM631 786.5q0 59.5 43 101.5t102.5 42t101.5 -43t42 -101q0 -61 -43 -103t-102.5 -42t-101.5 43t-42 102.5z" />
<glyph unicode="&#x141;" horiz-adv-x="1478" d="M39 0v111h31q143 0 168 30q10 12 12 34t2 122v213l-213 -145v145l213 143v531q0 98 -2 119.5t-12 33.5q-25 31 -168 31h-31v111h811v-111h-45q-145 0 -170 -31q-10 -12 -12 -33.5t-2 -119.5v-334l356 244v-144l-356 -243v-453q0 -49 3 -67.5t19 -41t54 -28.5t108 -6h43 q184 0 294.5 99t184.5 341h84v-551h-1372z" />
<glyph unicode="&#x142;" horiz-adv-x="720" d="M33 1374v105l491 30v-546l150 151v-156l-150 -151v-608q0 -59 23.5 -77t95.5 -18h35v-104h-639v104h29q96 0 115.5 15.5t19.5 79.5v385l-150 -152v156l150 151v445q0 137 -18.5 163.5t-112.5 26.5h-39z" />
<glyph unicode="&#x143;" horiz-adv-x="1705" d="M33 2v111q57 2 85.5 7t60.5 22.5t45.5 53t21.5 95t8 153.5v807q-78 111 -217 115v113h516l790 -926v481q0 135 -10 189.5t-43 89.5q-49 53 -168 55v111h584v-111q-123 -4 -172 -55q-33 -35 -43 -88.5t-10 -190.5v-1048h-138l-952 1132v-674q0 -135 10.5 -188t42.5 -88 q47 -49 172 -55v-111h-583zM618 1583l279 256q66 59 99.5 76.5t88.5 17.5q57 0 98.5 -26.5t41.5 -65.5q0 -57 -88 -96l-361 -162h-158z" />
<glyph unicode="&#x144;" horiz-adv-x="1402" d="M41 0v104h29q94 0 113.5 15.5t19.5 81.5v450q0 143 -18.5 171t-112.5 28h-31v104l469 15v-181q76 115 160 163t204 48q168 0 254 -98q78 -84 78 -264v-436q0 -66 19.5 -81.5t113.5 -15.5h29v-104h-625v104q90 0 116 17.5t26 77.5v409q0 201 -150 201q-55 0 -104 -33 t-74 -88q-33 -66 -33 -194v-295q0 -59 25.5 -77t116.5 -18v-104h-625zM532 1096l232 282q53 66 83 85.5t75 19.5q49 0 82.5 -30t33.5 -73q0 -63 -73 -106l-301 -178h-132z" />
<glyph unicode="&#x145;" horiz-adv-x="1705" d="M33 2v111q57 2 85.5 7t60.5 22.5t45.5 53t21.5 95t8 153.5v807q-78 111 -217 115v113h516l790 -926v481q0 135 -10 189.5t-43 89.5q-49 53 -168 55v111h584v-111q-123 -4 -172 -55q-33 -35 -43 -88.5t-10 -190.5v-1048h-138l-952 1132v-674q0 -135 10.5 -188t42.5 -88 q47 -49 172 -55v-111h-583zM672 -285q0 76 51 129.5t125 53.5q82 0 134 -61.5t52 -160.5q0 -248 -311 -438l-49 74q84 59 133 122.5t49 114.5q0 10 -8 11h-6q-6 -2 -17 -2q-63 0 -108 45.5t-45 111.5z" />
<glyph unicode="&#x146;" horiz-adv-x="1402" d="M41 0v104h29q94 0 113.5 15.5t19.5 81.5v450q0 143 -18.5 171t-112.5 28h-31v104l469 15v-181q76 115 160 163t204 48q168 0 254 -98q78 -84 78 -264v-436q0 -66 19.5 -81.5t113.5 -15.5h29v-104h-625v104q90 0 116 17.5t26 77.5v409q0 201 -150 201q-55 0 -104 -33 t-74 -88q-33 -66 -33 -194v-295q0 -59 25.5 -77t116.5 -18v-104h-625zM520 -285q0 76 51.5 129.5t124.5 53.5q82 0 134.5 -61.5t52.5 -160.5q0 -248 -312 -438l-49 74q84 59 133.5 122.5t49.5 114.5q0 10 -9 11h-6q-6 -2 -16 -2q-63 0 -108.5 45.5t-45.5 111.5z" />
<glyph unicode="&#x147;" horiz-adv-x="1705" d="M33 2v111q57 2 85.5 7t60.5 22.5t45.5 53t21.5 95t8 153.5v807q-78 111 -217 115v113h516l790 -926v481q0 135 -10 189.5t-43 89.5q-49 53 -168 55v111h584v-111q-123 -4 -172 -55q-33 -35 -43 -88.5t-10 -190.5v-1048h-138l-952 1132v-674q0 -135 10.5 -188t42.5 -88 q47 -49 172 -55v-111h-583zM422 1923h164l266 -170l268 170h164l-297 -328h-268z" />
<glyph unicode="&#x148;" horiz-adv-x="1402" d="M41 0v104h29q94 0 113.5 15.5t19.5 81.5v450q0 143 -18.5 171t-112.5 28h-31v104l469 15v-181q76 115 160 163t204 48q168 0 254 -98q78 -84 78 -264v-436q0 -66 19.5 -81.5t113.5 -15.5h29v-104h-625v104q90 0 116 17.5t26 77.5v409q0 201 -150 201q-55 0 -104 -33 t-74 -88q-33 -66 -33 -194v-295q0 -59 25.5 -77t116.5 -18v-104h-625zM344 1473h137l221 -191l224 191h137l-248 -365h-223z" />
<glyph unicode="&#x14a;" horiz-adv-x="1705" d="M33 2v111q57 2 85.5 7t60.5 22.5t45.5 53t21.5 95t8 153.5v807q-78 111 -217 115v113h516l790 -926v481q0 135 -10 189.5t-43 89.5q-49 53 -168 55v111h584v-111q-123 -4 -172 -55q-33 -35 -43 -88.5t-10 -190.5v-1048q0 -203 -121 -350.5t-303 -147.5q-125 0 -206 57.5 t-81 147.5q0 66 45 109.5t115 43.5q57 0 95 -38.5t38 -98.5q0 -63 -59 -102q16 -23 53 -23q131 0 205.5 122t74.5 288l-946 1124v-674q0 -135 10.5 -188t42.5 -88q47 -49 172 -55v-111h-583z" />
<glyph unicode="&#x14b;" horiz-adv-x="1402" d="M41 0v104h29q94 0 113.5 15.5t19.5 81.5v450q0 143 -18.5 171t-112.5 28h-31v104l469 15v-181q76 115 160 163t204 48q168 0 254 -98q78 -84 78 -264v-436q0 -186 -47 -343t-153.5 -263.5t-255.5 -106.5q-125 0 -206 57.5t-81 147.5q0 66 45 109.5t115 43.5 q57 0 95 -38.5t38 -98.5q0 -63 -60 -102q16 -23 54 -23q33 0 57 24.5t37.5 78t23 101.5t12.5 134t4 135t1 142v409q0 201 -150 201q-55 0 -104 -33t-74 -88q-33 -66 -33 -194v-295q0 -59 25.5 -77t116.5 -18v-104h-625z" />
<glyph unicode="&#x14c;" horiz-adv-x="1705" d="M80 717q0 332 217 562t557 230q336 0 554 -229t218 -561q0 -322 -214 -536t-568 -214q-334 0 -549 211t-215 537zM489 756q0 -309 90.5 -494.5t276.5 -185.5q176 0 268.5 165t92.5 476q0 317 -91.5 501.5t-269.5 184.5q-367 0 -367 -647zM502 1677v164h704v-164h-704z " />
<glyph unicode="&#x14d;" d="M63 483q0 221 162 368.5t406 147.5q233 0 394 -150.5t161 -369.5t-161 -364.5t-402.5 -145.5t-400.5 145.5t-159 368.5zM274 1208v164h705v-164h-705zM418 483q0 -408 207 -407q98 0 152 105.5t54 299.5q0 412 -204 412q-209 0 -209 -410z" />
<glyph unicode="&#x14e;" horiz-adv-x="1705" d="M80 717q0 332 217 562t557 230q336 0 554 -229t218 -561q0 -322 -214 -536t-568 -214q-334 0 -549 211t-215 537zM467 1915h131q25 -152 258 -152q229 0 254 152h131q0 -145 -102.5 -227t-286.5 -82t-284.5 81t-100.5 228zM489 756q0 -309 90.5 -494.5t276.5 -185.5 q176 0 268.5 165t92.5 476q0 317 -91.5 501.5t-269.5 184.5q-367 0 -367 -647z" />
<glyph unicode="&#x14f;" d="M63 483q0 221 162 368.5t406 147.5q233 0 394 -150.5t161 -369.5t-161 -364.5t-402.5 -145.5t-400.5 145.5t-159 368.5zM303 1462h109q20 -168 215 -168q193 0 213 168h108q0 -162 -85 -252t-238.5 -90t-237.5 89t-84 253zM418 483q0 -408 207 -407q98 0 152 105.5 t54 299.5q0 412 -204 412q-209 0 -209 -410z" />
<glyph unicode="&#x150;" horiz-adv-x="1705" d="M80 717q0 332 217 562t557 230q336 0 554 -229t218 -561q0 -322 -214 -536t-568 -214q-334 0 -549 211t-215 537zM489 756q0 -309 90.5 -494.5t276.5 -185.5q176 0 268.5 165t92.5 476q0 317 -91.5 501.5t-269.5 184.5q-367 0 -367 -647zM651 1638l39 199q14 74 35 109 q31 47 86 47q43 0 72.5 -30t29.5 -71q0 -61 -53 -118l-158 -166zM977 1638l39 199q14 74 35 109q31 47 86 47q43 0 72.5 -30t29.5 -71q0 -61 -53 -118l-158 -166z" />
<glyph unicode="&#x151;" d="M63 483q0 221 162 368.5t406 147.5q233 0 394 -150.5t161 -369.5t-161 -364.5t-402.5 -145.5t-400.5 145.5t-159 368.5zM418 483q0 -408 207 -407q98 0 152 105.5t54 299.5q0 412 -204 412q-209 0 -209 -410zM424 1128l39 199q14 74 35 109q31 47 86 47q43 0 72.5 -30 t29.5 -71q0 -61 -53 -118l-158 -166zM750 1128l38 199q14 74 35 109q31 47 86 47q43 0 73 -30t30 -71q0 -61 -54 -118l-157 -166z" />
<glyph unicode="&#x152;" horiz-adv-x="2048" d="M10 733q0 143 54.5 285.5t150.5 245.5q203 215 528 215h1244l10 -533h-107q-45 172 -116 271q-51 70 -136.5 110.5t-175.5 40.5h-12q-88 0 -119 -47q-20 -29 -20 -129v-371h78q72 0 134 78t79 213h110v-694h-110q-16 135 -79 213t-134 78h-78v-453q0 -88 29.5 -116.5 t117.5 -28.5h15q180 0 307 153q84 100 133 287h108l-22 -551h-1249q-338 0 -535 207q-96 102 -150.5 241.5t-54.5 284.5zM420 756q0 -307 55 -453q33 -88 106.5 -140t163.5 -52q106 0 154 67q43 63 43 213v723q0 133 -48 193.5t-155 60.5q-166 0 -242.5 -146.5t-76.5 -465.5 z" />
<glyph unicode="&#x153;" horiz-adv-x="1857" d="M72 485q0 213 162.5 363.5t381.5 150.5q176 0 349 -129q156 129 344 129q215 0 346 -138t131 -363v-31h-660q6 -182 78 -270t191 -88q174 0 291 227l100 -41q-135 -326 -469 -326q-209 0 -359 121q-154 -121 -342 -121q-231 0 -387.5 148.5t-156.5 367.5zM426 483 q0 -408 190 -407q193 0 193 407q0 410 -188 410q-195 0 -195 -410zM1128 580h281q33 0 44 14t11 53q0 119 -39 182.5t-110 63.5q-86 0 -136.5 -80.5t-50.5 -232.5z" />
<glyph unicode="&#x154;" horiz-adv-x="1669" d="M41 2v111h31q141 0 168 28q10 14 12 35t2 121v887q0 100 -2 120.5t-12 34.5q-27 29 -168 29h-31v111h874q287 0 404 -74q166 -109 166 -297q0 -154 -98.5 -241t-311.5 -128q133 -43 196.5 -118.5t90.5 -217.5l14 -77q18 -127 33.5 -156t58.5 -29q90 0 95 195h110 q0 -166 -92 -266.5t-256 -100.5q-133 0 -218 62.5t-110 181.5q-14 76 -28 256q-12 152 -61.5 197t-170.5 45h-114v-414q0 -100 2 -120.5t12 -35.5q27 -29 170 -28h53v-111h-819zM600 1583l279 256q66 59 99.5 76.5t88.5 17.5q57 0 98 -26.5t41 -65.5q0 -57 -88 -96 l-360 -162h-158zM623 823h112q205 0 282 59.5t77 215.5q0 139 -66.5 204.5t-210.5 65.5h-49q-98 0 -121.5 -21.5t-23.5 -109.5v-414z" />
<glyph unicode="&#x155;" horiz-adv-x="1062" d="M37 0v104h29q94 0 113.5 15.5t19.5 81.5v450q0 143 -18.5 171t-112.5 28h-31v104l457 15v-248q109 279 340 278q98 0 161.5 -58t63.5 -148q0 -76 -50.5 -126.5t-125.5 -50.5q-66 0 -110 43t-44 109q0 47 35 96q-96 -29 -156 -133q-86 -152 -86 -395v-135q0 -63 28 -80 t126 -17h45v-104h-684zM324 1096l231 282q53 66 83 85.5t75 19.5q49 0 82.5 -30t33.5 -73q0 -63 -73 -106l-301 -178h-131z" />
<glyph unicode="&#x156;" horiz-adv-x="1669" d="M41 2v111h31q141 0 168 28q10 14 12 35t2 121v887q0 100 -2 120.5t-12 34.5q-27 29 -168 29h-31v111h874q287 0 404 -74q166 -109 166 -297q0 -154 -98.5 -241t-311.5 -128q133 -43 196.5 -118.5t90.5 -217.5l14 -77q18 -127 33.5 -156t58.5 -29q90 0 95 195h110 q0 -166 -92 -266.5t-256 -100.5q-133 0 -218 62.5t-110 181.5q-14 76 -28 256q-12 152 -61.5 197t-170.5 45h-114v-414q0 -100 2 -120.5t12 -35.5q27 -29 170 -28h53v-111h-819zM623 823h112q205 0 282 59.5t77 215.5q0 139 -66.5 204.5t-210.5 65.5h-49q-98 0 -121.5 -21.5 t-23.5 -109.5v-414zM653 -285q0 76 51.5 129.5t124.5 53.5q82 0 134.5 -61.5t52.5 -160.5q0 -248 -311 -438l-50 74q84 59 133.5 122.5t49.5 114.5q0 10 -9 11h-6q-6 -2 -16 -2q-63 0 -108.5 45.5t-45.5 111.5z" />
<glyph unicode="&#x157;" horiz-adv-x="1062" d="M37 0v104h29q94 0 113.5 15.5t19.5 81.5v450q0 143 -18.5 171t-112.5 28h-31v104l457 15v-248q109 279 340 278q98 0 161.5 -58t63.5 -148q0 -76 -50.5 -126.5t-125.5 -50.5q-66 0 -110 43t-44 109q0 47 35 96q-96 -29 -156 -133q-86 -152 -86 -395v-135q0 -63 28 -80 t126 -17h45v-104h-684zM199 -285q0 76 51 129.5t125 53.5q82 0 134 -61.5t52 -160.5q0 -248 -311 -438l-49 74q84 59 133 122.5t49 114.5q0 10 -8 11h-6q-6 -2 -17 -2q-63 0 -108 45.5t-45 111.5z" />
<glyph unicode="&#x158;" horiz-adv-x="1669" d="M41 2v111h31q141 0 168 28q10 14 12 35t2 121v887q0 100 -2 120.5t-12 34.5q-27 29 -168 29h-31v111h874q287 0 404 -74q166 -109 166 -297q0 -154 -98.5 -241t-311.5 -128q133 -43 196.5 -118.5t90.5 -217.5l14 -77q18 -127 33.5 -156t58.5 -29q90 0 95 195h110 q0 -166 -92 -266.5t-256 -100.5q-133 0 -218 62.5t-110 181.5q-14 76 -28 256q-12 152 -61.5 197t-170.5 45h-114v-414q0 -100 2 -120.5t12 -35.5q27 -29 170 -28h53v-111h-819zM403 1923h164l267 -170l268 170h164l-297 -328h-269zM623 823h112q205 0 282 59.5t77 215.5 q0 139 -66.5 204.5t-210.5 65.5h-49q-98 0 -121.5 -21.5t-23.5 -109.5v-414z" />
<glyph unicode="&#x159;" horiz-adv-x="1062" d="M37 0v104h29q94 0 113.5 15.5t19.5 81.5v450q0 143 -18.5 171t-112.5 28h-31v104l457 15v-248q109 279 340 278q98 0 161.5 -58t63.5 -148q0 -76 -50.5 -126.5t-125.5 -50.5q-66 0 -110 43t-44 109q0 47 35 96q-96 -29 -156 -133q-86 -152 -86 -395v-135q0 -63 28 -80 t126 -17h45v-104h-684zM135 1473h137l222 -191l223 191h137l-248 -365h-223z" />
<glyph unicode="&#x15a;" horiz-adv-x="1366" d="M104 565h105q84 -231 228.5 -360t318.5 -129q133 0 214 65.5t81 173.5q0 115 -90 164q-57 31 -222 62l-127 24q-242 45 -374 172t-132 316q0 205 146.5 330.5t384.5 125.5q205 0 369 -110l106 94h92l27 -530h-109q-182 440 -504 440q-121 0 -198.5 -60.5t-77.5 -154.5 q0 -127 139 -176q51 -18 209 -49l98 -23q266 -59 387 -174t121 -309q0 -215 -150.5 -351.5t-389.5 -136.5q-238 0 -420 137l-127 -120h-92zM449 1583l278 256q66 59 99.5 76.5t88.5 17.5q57 0 98.5 -26.5t41.5 -65.5q0 -57 -88 -96l-361 -162h-157z" />
<glyph unicode="&#x15b;" horiz-adv-x="1024" d="M78 358h92q143 -283 373 -282q82 0 129 32.5t47 88.5q0 88 -144 118l-149 33q-172 37 -254 117q-86 82 -86 203q0 145 111.5 238t283.5 93q141 0 254 -65l76 45h88l8 -324h-96q-76 125 -152.5 181.5t-175.5 56.5q-76 0 -124 -34t-48 -85q0 -39 25.5 -59.5t101.5 -40.5 l185 -45q111 -27 156.5 -47.5t86.5 -55.5q88 -78 88 -209q0 -154 -114.5 -251t-296.5 -97q-168 0 -289 72l-80 -37h-86zM342 1096l231 282q53 66 83 85.5t75 19.5q49 0 83 -30t34 -73q0 -63 -74 -106l-301 -178h-131z" />
<glyph unicode="&#x15c;" horiz-adv-x="1366" d="M104 565h105q84 -231 228.5 -360t318.5 -129q133 0 214 65.5t81 173.5q0 115 -90 164q-57 31 -222 62l-127 24q-242 45 -374 172t-132 316q0 205 146.5 330.5t384.5 125.5q205 0 369 -110l106 94h92l27 -530h-109q-182 440 -504 440q-121 0 -198.5 -60.5t-77.5 -154.5 q0 -127 139 -176q51 -18 209 -49l98 -23q266 -59 387 -174t121 -309q0 -215 -150.5 -351.5t-389.5 -136.5q-238 0 -420 137l-127 -120h-92zM252 1595l297 328h268l297 -328h-164l-266 170l-268 -170h-164z" />
<glyph unicode="&#x15d;" horiz-adv-x="1024" d="M78 358h92q143 -283 373 -282q82 0 129 32.5t47 88.5q0 88 -144 118l-149 33q-172 37 -254 117q-86 82 -86 203q0 145 111.5 238t283.5 93q141 0 254 -65l76 45h88l8 -324h-96q-76 125 -152.5 181.5t-175.5 56.5q-76 0 -124 -34t-48 -85q0 -39 25.5 -59.5t101.5 -40.5 l185 -45q111 -27 156.5 -47.5t86.5 -55.5q88 -78 88 -209q0 -154 -114.5 -251t-296.5 -97q-168 0 -289 72l-80 -37h-86zM152 1108l247 365h224l247 -365h-137l-221 190l-223 -190h-137z" />
<glyph unicode="&#x15e;" horiz-adv-x="1366" d="M104 565h105q84 -231 228.5 -360t318.5 -129q133 0 214 65.5t81 173.5q0 115 -90 164q-57 31 -222 62l-127 24q-242 45 -374 172t-132 316q0 205 146.5 330.5t384.5 125.5q205 0 369 -110l106 94h92l27 -530h-109q-182 440 -504 440q-121 0 -198.5 -60.5t-77.5 -154.5 q0 -127 139 -176q51 -18 209 -49l98 -23q266 -59 387 -174t121 -309q0 -215 -149.5 -351.5t-384.5 -136.5h-33l-45 -94q53 10 84 10q72 0 121 -44t49 -111q0 -82 -80 -133.5t-205 -51.5q-102 0 -194 39l37 92q76 -35 129 -34q47 0 73.5 21.5t26.5 57.5q0 33 -22.5 51.5 t-61.5 18.5q-25 0 -47 -12l-39 20l86 178q-176 27 -305 129l-127 -120h-92z" />
<glyph unicode="&#x15f;" horiz-adv-x="1024" d="M78 358h92q143 -283 373 -282q82 0 129 32.5t47 88.5q0 88 -144 118l-149 33q-172 37 -254 117q-86 82 -86 203q0 145 111.5 238t283.5 93q141 0 254 -65l76 45h88l8 -324h-96q-76 125 -152.5 181.5t-175.5 56.5q-76 0 -124 -34t-48 -85q0 -39 25.5 -59.5t101.5 -40.5 l185 -45q111 -27 156.5 -47.5t86.5 -55.5q88 -78 88 -209q0 -152 -113.5 -249t-293.5 -99l-41 -94q53 10 84 10q72 0 121 -44t49 -111q0 -82 -80 -133.5t-205 -51.5q-102 0 -194 39l36 92q76 -35 129 -34q47 0 74 21.5t27 57.5q0 33 -22.5 51.5t-61.5 18.5q-25 0 -47 -12 l-39 20l80 176q-119 16 -203 66l-80 -37h-86z" />
<glyph unicode="&#x160;" horiz-adv-x="1366" d="M104 565h105q84 -231 228.5 -360t318.5 -129q133 0 214 65.5t81 173.5q0 115 -90 164q-57 31 -222 62l-127 24q-242 45 -374 172t-132 316q0 205 146.5 330.5t384.5 125.5q205 0 369 -110l106 94h92l27 -530h-109q-182 440 -504 440q-121 0 -198.5 -60.5t-77.5 -154.5 q0 -127 139 -176q51 -18 209 -49l98 -23q266 -59 387 -174t121 -309q0 -215 -150.5 -351.5t-389.5 -136.5q-238 0 -420 137l-127 -120h-92zM252 1923h164l266 -170l268 170h164l-297 -328h-268z" />
<glyph unicode="&#x161;" horiz-adv-x="1024" d="M78 358h92q143 -283 373 -282q82 0 129 32.5t47 88.5q0 88 -144 118l-149 33q-172 37 -254 117q-86 82 -86 203q0 145 111.5 238t283.5 93q141 0 254 -65l76 45h88l8 -324h-96q-76 125 -152.5 181.5t-175.5 56.5q-76 0 -124 -34t-48 -85q0 -39 25.5 -59.5t101.5 -40.5 l185 -45q111 -27 156.5 -47.5t86.5 -55.5q88 -78 88 -209q0 -154 -114.5 -251t-296.5 -97q-168 0 -289 72l-80 -37h-86zM154 1473h137l221 -191l223 191h137l-247 -365h-224z" />
<glyph unicode="&#x162;" horiz-adv-x="1478" d="M31 924l30 555h1356l31 -555h-109q-41 223 -120 327q-94 121 -222 121q-45 0 -59 -15.5t-14 -68.5v-993q0 -98 2 -119.5t12 -34.5q25 -31 170 -30h45v-111h-387l-55 -125q53 10 84 10q72 0 121 -44t49 -111q0 -82 -80 -133.5t-205 -51.5q-102 0 -195 39l37 92 q76 -35 129 -34q47 0 74 21.5t27 57.5q0 33 -22.5 51.5t-61.5 18.5q-25 0 -47 -12l-39 20l92 201h-348v111h45q145 0 170 30q10 12 12 34t2 120v993q0 53 -14.5 68.5t-59.5 15.5q-141 0 -237 -145q-70 -100 -105 -303h-108z" />
<glyph unicode="&#x163;" horiz-adv-x="872" d="M47 846v106q289 33 338 422h129v-405h266v-123h-266v-527q0 -104 15.5 -140t60.5 -36q129 0 129 238h108q2 -20 2 -47q0 -156 -89 -259.5t-255 -105.5l-41 -94q53 10 84 10q72 0 121 -44t49 -111q0 -82 -79.5 -133.5t-204.5 -51.5q-102 0 -195 39l37 92q76 -35 129 -34 q47 0 73.5 21.5t26.5 57.5q0 33 -22.5 51.5t-61.5 18.5q-25 0 -47 -12l-39 20l82 178q-117 27 -161 105q-27 43 -35 96t-8 178v490h-146z" />
<glyph unicode="&#x164;" horiz-adv-x="1478" d="M31 924l30 555h1356l31 -555h-109q-41 223 -120 327q-94 121 -222 121q-45 0 -59 -15.5t-14 -68.5v-993q0 -98 2 -119.5t12 -34.5q25 -31 170 -30h45v-111h-827v111h45q145 0 170 30q10 12 12 34t2 120v993q0 53 -14.5 68.5t-59.5 15.5q-141 0 -237 -145 q-70 -100 -105 -303h-108zM309 1923h164l266 -170l269 170h163l-297 -328h-268z" />
<glyph unicode="&#x165;" horiz-adv-x="872" d="M47 846v106q289 33 338 422h129v-405h266v-123h-266v-527q0 -104 15.5 -140t60.5 -36q129 0 129 238h108q2 -20 2 -47q0 -156 -90 -260.5t-256 -104.5q-180 0 -247 113q-27 43 -35 96t-8 178v490h-146zM559 1491q0 76 51.5 129t124.5 53q82 0 134.5 -61.5t52.5 -159.5 q0 -248 -312 -438l-49 73q84 59 133 123t49 115q0 10 -8 10h-6q-6 -2 -16 -2q-63 0 -108.5 46t-45.5 112z" />
<glyph unicode="&#x168;" horiz-adv-x="1705" d="M31 1368v111h796v-111h-30q-145 0 -170 -31q-10 -12 -12.5 -33.5t-2.5 -119.5v-656q0 -233 80 -319t250 -86q258 0 348 194q35 76 35 306v411q0 137 -10 190.5t-43 88.5q-49 53 -168 55v111h584v-111q-123 -4 -172 -55q-33 -35 -43.5 -89.5t-10.5 -189.5v-411 q0 -180 -15 -268.5t-58 -157.5q-76 -119 -200 -173.5t-321 -54.5q-442 0 -571 236q-53 98 -53 330v649q0 98 -2 119.5t-13 33.5q-25 31 -168 31h-30zM465 1626q18 121 87 199t157 78q70 0 196 -62q104 -49 146 -49q33 0 52 21.5t42 80.5h100q-14 -119 -89 -197.5t-169 -78.5 q-53 0 -91 12t-116 56q-80 43 -123 43q-61 0 -90 -103h-102z" />
<glyph unicode="&#x169;" horiz-adv-x="1402" d="M27 850v104l485 15v-590q0 -117 34 -168t111 -51q57 0 107.5 31.5t75.5 84.5q35 68 34 211v164q0 143 -18 171t-113 28h-32v104l485 15v-748q0 -55 20.5 -71.5t92.5 -16.5h57v-110l-477 -23v168q-88 -109 -171 -154t-192 -45q-217 0 -303 176q-20 43 -26.5 87t-6.5 159 v260q-2 145 -19 172t-112 27h-32zM313 1157q18 121 87 199t157 78q70 0 197 -62q104 -49 145 -49q33 0 52.5 21.5t41.5 80.5h101q-14 -119 -89 -197.5t-169 -78.5q-53 0 -91 12.5t-116 55.5q-80 43 -123 43q-61 0 -90 -103h-103z" />
<glyph unicode="&#x16a;" horiz-adv-x="1705" d="M31 1368v111h796v-111h-30q-145 0 -170 -31q-10 -12 -12.5 -33.5t-2.5 -119.5v-656q0 -233 80 -319t250 -86q258 0 348 194q35 76 35 306v411q0 137 -10 190.5t-43 88.5q-49 53 -168 55v111h584v-111q-123 -4 -172 -55q-33 -35 -43.5 -89.5t-10.5 -189.5v-411 q0 -180 -15 -268.5t-58 -157.5q-76 -119 -200 -173.5t-321 -54.5q-442 0 -571 236q-53 98 -53 330v649q0 98 -2 119.5t-13 33.5q-25 31 -168 31h-30zM502 1677v164h704v-164h-704z" />
<glyph unicode="&#x16b;" horiz-adv-x="1402" d="M27 850v104l485 15v-590q0 -117 34 -168t111 -51q57 0 107.5 31.5t75.5 84.5q35 68 34 211v164q0 143 -18 171t-113 28h-32v104l485 15v-748q0 -55 20.5 -71.5t92.5 -16.5h57v-110l-477 -23v168q-88 -109 -171 -154t-192 -45q-217 0 -303 176q-20 43 -26.5 87t-6.5 159 v260q-2 145 -19 172t-112 27h-32zM350 1208v164h705v-164h-705z" />
<glyph unicode="&#x16c;" horiz-adv-x="1705" d="M31 1368v111h796v-111h-30q-145 0 -170 -31q-10 -12 -12.5 -33.5t-2.5 -119.5v-656q0 -233 80 -319t250 -86q258 0 348 194q35 76 35 306v411q0 137 -10 190.5t-43 88.5q-49 53 -168 55v111h584v-111q-123 -4 -172 -55q-33 -35 -43.5 -89.5t-10.5 -189.5v-411 q0 -180 -15 -268.5t-58 -157.5q-76 -119 -200 -173.5t-321 -54.5q-442 0 -571 236q-53 98 -53 330v649q0 98 -2 119.5t-13 33.5q-25 31 -168 31h-30zM467 1915h131q25 -152 258 -152q229 0 254 152h131q0 -145 -102.5 -227t-286.5 -82t-284.5 81t-100.5 228z" />
<glyph unicode="&#x16d;" horiz-adv-x="1402" d="M27 850v104l485 15v-590q0 -117 34 -168t111 -51q57 0 107.5 31.5t75.5 84.5q35 68 34 211v164q0 143 -18 171t-113 28h-32v104l485 15v-748q0 -55 20.5 -71.5t92.5 -16.5h57v-110l-477 -23v168q-88 -109 -171 -154t-192 -45q-217 0 -303 176q-20 43 -26.5 87t-6.5 159 v260q-2 145 -19 172t-112 27h-32zM379 1462h108q20 -168 215 -168q193 0 213 168h109q0 -162 -85 -252t-238.5 -90t-237.5 89t-84 253z" />
<glyph unicode="&#x16e;" horiz-adv-x="1705" d="M31 1368v111h796v-111h-30q-145 0 -170 -31q-10 -12 -12.5 -33.5t-2.5 -119.5v-656q0 -233 80 -319t250 -86q258 0 348 194q35 76 35 306v411q0 137 -10 190.5t-43 88.5q-49 53 -168 55v111h584v-111q-123 -4 -172 -55q-33 -35 -43.5 -89.5t-10.5 -189.5v-411 q0 -180 -15 -268.5t-58 -157.5q-76 -119 -200 -173.5t-321 -54.5q-442 0 -571 236q-53 98 -53 330v649q0 98 -2 119.5t-13 33.5q-25 31 -168 31h-30zM633 1792q0 90 65.5 154.5t155.5 64.5t154.5 -64.5t64.5 -154.5q0 -92 -64.5 -156.5t-158.5 -64.5q-88 0 -152.5 65.5 t-64.5 155.5zM745 1790q0 -45 32 -79t75 -34q45 0 77 34t32 81q0 45 -32 79t-75 34q-45 0 -77 -34t-32 -81z" />
<glyph unicode="&#x16f;" horiz-adv-x="1402" d="M27 850v104l485 15v-590q0 -117 34 -168t111 -51q57 0 107.5 31.5t75.5 84.5q35 68 34 211v164q0 143 -18 171t-113 28h-32v104l485 15v-748q0 -55 20.5 -71.5t92.5 -16.5h57v-110l-477 -23v168q-88 -109 -171 -154t-192 -45q-217 0 -303 176q-20 43 -26.5 87t-6.5 159 v260q-2 145 -19 172t-112 27h-32zM481 1292q0 90 65.5 154.5t156 64.5t155 -64.5t64.5 -154.5q0 -92 -64.5 -156.5t-159.5 -64.5q-88 0 -152.5 65.5t-64.5 155.5zM594 1290q0 -45 31.5 -78.5t74.5 -33.5q45 0 77 33.5t32 80.5q0 45 -32 79t-75 34q-45 0 -76.5 -34t-31.5 -81 z" />
<glyph unicode="&#x170;" horiz-adv-x="1705" d="M31 1368v111h796v-111h-30q-145 0 -170 -31q-10 -12 -12.5 -33.5t-2.5 -119.5v-656q0 -233 80 -319t250 -86q258 0 348 194q35 76 35 306v411q0 137 -10 190.5t-43 88.5q-49 53 -168 55v111h584v-111q-123 -4 -172 -55q-33 -35 -43.5 -89.5t-10.5 -189.5v-411 q0 -180 -15 -268.5t-58 -157.5q-76 -119 -200 -173.5t-321 -54.5q-442 0 -571 236q-53 98 -53 330v649q0 98 -2 119.5t-13 33.5q-25 31 -168 31h-30zM651 1638l39 199q14 74 35 109q31 47 86 47q43 0 72.5 -30t29.5 -71q0 -61 -53 -118l-158 -166zM977 1638l39 199 q14 74 35 109q31 47 86 47q43 0 72.5 -30t29.5 -71q0 -61 -53 -118l-158 -166z" />
<glyph unicode="&#x171;" horiz-adv-x="1402" d="M27 850v104l485 15v-590q0 -117 34 -168t111 -51q57 0 107.5 31.5t75.5 84.5q35 68 34 211v164q0 143 -18 171t-113 28h-32v104l485 15v-748q0 -55 20.5 -71.5t92.5 -16.5h57v-110l-477 -23v168q-88 -109 -171 -154t-192 -45q-217 0 -303 176q-20 43 -26.5 87t-6.5 159 v260q-2 145 -19 172t-112 27h-32zM500 1128l39 199q14 74 34 109q31 47 86 47q43 0 73 -30t30 -71q0 -61 -53 -118l-158 -166zM825 1128l39 199q14 74 35 109q31 47 86 47q43 0 72.5 -30t29.5 -71q0 -61 -53 -118l-157 -166z" />
<glyph unicode="&#x172;" horiz-adv-x="1705" d="M31 1368v111h796v-111h-30q-145 0 -170 -31q-10 -12 -12.5 -33.5t-2.5 -119.5v-656q0 -233 80 -319t250 -86q258 0 348 194q35 76 35 306v411q0 137 -10 190.5t-43 88.5q-49 53 -168 55v111h584v-111q-123 -4 -172 -55q-33 -35 -43.5 -89.5t-10.5 -189.5v-411 q0 -180 -15 -268.5t-58 -157.5q-104 -164 -312 -209q-66 -12 -102.5 -75t-36.5 -140q0 -45 28.5 -70t73.5 -25q41 0 89.5 25t54.5 25q31 0 30 -33q0 -70 -73.5 -130.5t-170 -60.5t-167 50.5t-70.5 140.5q0 139 125 274q-432 4 -561 236q-53 98 -53 330v649q0 98 -2 119.5 t-13 33.5q-25 31 -168 31h-30z" />
<glyph unicode="&#x173;" horiz-adv-x="1402" d="M27 850v104l485 15v-590q0 -117 34 -168t111 -51q57 0 107.5 31.5t75.5 84.5q35 68 34 211v164q0 143 -18 171t-113 28h-32v104l485 15v-748q0 -55 20.5 -71.5t92.5 -16.5h57v-110l-49 -3q-96 -4 -161.5 -76.5t-65.5 -170.5q0 -45 28.5 -70t73.5 -25q41 0 89 25t54 25 q31 0 31 -33q0 -70 -73.5 -130.5t-170 -60.5t-167 50.5t-70.5 140.5q0 92 42 162.5t120 150.5l-158 -8v168q-88 -109 -171 -154t-192 -45q-217 0 -303 176q-20 43 -26.5 87t-6.5 159v260q-2 145 -19 172t-112 27h-32z" />
<glyph unicode="&#x174;" horiz-adv-x="2009" d="M12 1368v111h635v-111q-72 -4 -96.5 -14.5t-24.5 -36.5q0 -23 17 -70l237 -733l164 514l-74 232q-20 66 -45.5 85t-85.5 23v111h607v-111q-74 -4 -97.5 -15.5t-23.5 -39.5q0 -18 12 -56l219 -729l178 584q27 88 27 125q0 63 -43 96t-141 35v111h516v-111 q-92 -18 -134 -70.5t-87 -203.5l-357 -1125h-149l-256 834l-271 -834h-153l-418 1280q-25 74 -55.5 96.5t-100.5 22.5zM573 1595l297 328h269l297 -328h-164l-266 170l-269 -170h-164z" />
<glyph unicode="&#x175;" horiz-adv-x="1820" d="M39 864v105h565v-105q-61 -2 -80.5 -11t-19.5 -38q0 -10 14 -47l178 -453l148 349l-51 122q-20 47 -44 62.5t-81 15.5v105h571v-105h-25q-57 0 -78.5 -11t-21.5 -36q0 -18 12 -45l189 -457l143 349q29 70 29 106q0 94 -131 94h-25v105h463v-105q-70 -4 -108.5 -40 t-83.5 -134l-322 -719h-154l-219 539l-233 -539h-156l-334 779q-29 66 -57.5 89t-87.5 25zM551 1108l248 365h223l248 -365h-137l-222 190l-223 -190h-137z" />
<glyph unicode="&#x176;" horiz-adv-x="1478" d="M-25 1368v111h738v-111h-33q-115 0 -115 -45q0 -25 25 -63l270 -449l205 365q25 41 29 94q0 45 -41 71.5t-109 26.5h-43v111h604v-111q-166 -12 -274 -190l-307 -527v-356q0 -98 2 -119.5t12 -34.5q25 -31 170 -30h45v-111h-827v111h45q145 0 170 30q10 12 12 34t2 120 v330l-418 669q-27 45 -60.5 59.5t-101.5 14.5zM307 1595l297 328h268l297 -328h-163l-267 170l-268 -170h-164z" />
<glyph unicode="&#x177;" d="M20 -233q0 76 51.5 127t127.5 51q68 0 110.5 -39t42.5 -101q0 -18 -9 -41.5t-9 -33.5q0 -12 18 -13q86 -2 174 162l47 88l-419 815q-27 51 -48.5 65.5t-76.5 16.5v105h581v-105h-37q-72 0 -71 -43q0 -23 16 -55l217 -442l170 374q18 45 19 84q0 82 -129 82h-31v105h461 v-105q-63 -4 -103.5 -40t-83.5 -128l-358 -772q-84 -182 -180.5 -264t-225.5 -82q-115 0 -184.5 52.5t-69.5 136.5zM328 1108l247 365h224l248 -365h-138l-221 190l-223 -190h-137z" />
<glyph unicode="&#x178;" horiz-adv-x="1478" d="M-25 1368v111h738v-111h-33q-115 0 -115 -45q0 -25 25 -63l270 -449l205 365q25 41 29 94q0 45 -41 71.5t-109 26.5h-43v111h604v-111q-166 -12 -274 -190l-307 -527v-356q0 -98 2 -119.5t12 -34.5q25 -31 170 -30h45v-111h-827v111h45q145 0 170 30q10 12 12 34t2 120 v330l-418 669q-27 45 -60.5 59.5t-101.5 14.5zM377 1761.5q0 59.5 43 101.5t102.5 42t101.5 -43t42 -101q0 -61 -43 -103t-102.5 -42t-101.5 43t-42 102.5zM817 1761.5q0 59.5 43 101.5t103 42q57 0 100 -43t43 -101q0 -61 -43 -103t-102.5 -42t-101.5 43t-42 102.5z" />
<glyph unicode="&#x179;" horiz-adv-x="1366" d="M49 0v119l821 1247h-151q-164 0 -250 -36t-154 -130q-63 -86 -110 -237h-105l25 516h1173v-115l-821 -1251h182q186 0 267 41q98 49 167.5 156.5t96.5 254.5h108l-32 -565h-1217zM449 1583l278 256q66 59 99.5 76.5t88.5 17.5q57 0 98.5 -26.5t41.5 -65.5q0 -57 -88 -96 l-361 -162h-157z" />
<glyph unicode="&#x17a;" horiz-adv-x="1099" d="M72 0v90l557 776h-105q-106 0 -148 -11t-77 -46q-39 -41 -90 -209h-105l25 369h885v-99l-553 -768h127q104 0 144 14.5t81 63.5q61 76 100 209h101l-21 -389h-921zM401 1096l232 282q53 66 82.5 85.5t75.5 19.5q49 0 82.5 -30t33.5 -73q0 -63 -73 -106l-302 -178h-131z " />
<glyph unicode="&#x17b;" horiz-adv-x="1366" d="M49 0v119l821 1247h-151q-164 0 -250 -36t-154 -130q-63 -86 -110 -237h-105l25 516h1173v-115l-821 -1251h182q186 0 267 41q98 49 167.5 156.5t96.5 254.5h108l-32 -565h-1217zM539 1761.5q0 59.5 43 101.5t102 42q57 0 100 -43t43 -101q0 -61 -43 -103t-102 -42 t-101 43t-42 102.5z" />
<glyph unicode="&#x17c;" horiz-adv-x="1099" d="M72 0v90l557 776h-105q-106 0 -148 -11t-77 -46q-39 -41 -90 -209h-105l25 369h885v-99l-553 -768h127q104 0 144 14.5t81 63.5q61 76 100 209h101l-21 -389h-921zM426 1290.5q0 59.5 43 101.5t102.5 42t101.5 -43t42 -101q0 -61 -43 -103t-102.5 -42t-101.5 43 t-42 102.5z" />
<glyph unicode="&#x17d;" horiz-adv-x="1366" d="M49 0v119l821 1247h-151q-164 0 -250 -36t-154 -130q-63 -86 -110 -237h-105l25 516h1173v-115l-821 -1251h182q186 0 267 41q98 49 167.5 156.5t96.5 254.5h108l-32 -565h-1217zM252 1923h164l266 -170l268 170h164l-297 -328h-268z" />
<glyph unicode="&#x17e;" horiz-adv-x="1099" d="M72 0v90l557 776h-105q-106 0 -148 -11t-77 -46q-39 -41 -90 -209h-105l25 369h885v-99l-553 -768h127q104 0 144 14.5t81 63.5q61 76 100 209h101l-21 -389h-921zM213 1473h137l221 -191l224 191h137l-248 -365h-223z" />
<glyph unicode="&#x17f;" horiz-adv-x="796" d="M29 846v123h178v26q0 227 123 366.5t323 139.5q127 0 212 -63.5t85 -159.5q0 -72 -47 -120t-117 -48q-66 0 -109.5 41t-43.5 100q0 31 30.5 78t30.5 49q0 16 -32 17q-31 0 -63 -23.5t-46 -58.5q-25 -53 -25 -228v-886q0 -61 28 -79t126 -18h37v-102h-676v102h29 q96 0 115.5 15.5t19.5 81.5v647h-178z" />
<glyph unicode="&#x18e;" horiz-adv-x="1554" d="M33 551h108q63 -229 178 -334.5t302 -105.5h61q76 0 104.5 5t47.5 23q33 31 32 115v455h-75q-92 0 -159 -77t-83 -214h-111v694h111q16 -137 82.5 -214t159.5 -77h75v371q0 100 -20 131q-33 45 -156 45h-57q-236 0 -346 -151q-70 -98 -119 -271h-107l13 533h1374v-111 h-31q-143 0 -168 -31q-10 -12 -12 -33.5t-2 -119.5v-889q0 -98 2 -119.5t12 -34.5q25 -31 168 -30h31v-111h-1391z" />
<glyph unicode="&#x192;" horiz-adv-x="1175" d="M29 -215q0 66 40 107.5t101 41.5q57 0 92 -33.5t35 -88.5q0 -23 -16 -66l-17 -41q0 -18 27 -18q23 0 46 18.5t34 44.5q20 51 37 295l47 768h-254v123h266q51 592 420 592q106 0 171.5 -50.5t65.5 -131.5q0 -66 -38.5 -108t-102.5 -42q-55 0 -92 35t-37 88q0 16 17.5 57 t17.5 53.5t-23 12.5q-68 0 -96 -109q-12 -49 -29 -397h279v-123h-287l-22 -371q-27 -420 -130.5 -630.5t-322.5 -210.5q-100 0 -164.5 51t-64.5 133z" />
<glyph unicode="&#x1a0;" horiz-adv-x="1705" d="M80 717q0 332 217 562t557 230q203 0 358 -79q47 29 35 55q-88 43 -88 145q0 53 43 90t98 37q68 0 112 -48t44 -112q0 -61 -40 -125.5t-103 -105.5q313 -260 313 -647q0 -322 -214 -536t-568 -214q-334 0 -549 211t-215 537zM489 756q0 -309 90.5 -494.5t276.5 -185.5 q176 0 268.5 165t92.5 476q0 317 -91.5 501.5t-269.5 184.5q-367 0 -367 -647z" />
<glyph unicode="&#x1a1;" d="M63 483q0 221 162 368.5t406 147.5q143 0 270 -65q23 4 57.5 37t32.5 45q-31 4 -55.5 46t-24.5 103q0 55 45 89t99 34q70 0 116 -54t46 -116q0 -78 -67 -156.5t-138 -101.5q174 -152 174 -381q0 -219 -161 -364.5t-402.5 -145.5t-400.5 145.5t-159 368.5zM418 483 q0 -408 207 -407q98 0 152 105.5t54 299.5q0 412 -204 412q-209 0 -209 -410z" />
<glyph unicode="&#x1af;" horiz-adv-x="1699" d="M31 1368v111h796v-111h-30q-145 0 -170 -31q-10 -12 -12.5 -33.5t-2.5 -119.5v-656q0 -233 80 -319t250 -86q258 0 348 194q35 76 35 306v411q0 137 -10 190.5t-43 88.5q-49 53 -168 55v111h358v-68q80 43 68 74q-88 43 -88 145q0 53 43 90t98 37q68 0 112 -48t44 -112 q0 -96 -79 -177t-198 -111v-686q0 -180 -15 -268.5t-58 -157.5q-76 -119 -200 -173.5t-321 -54.5q-442 0 -571 236q-53 98 -53 330v649q0 98 -2 119.5t-13 33.5q-25 31 -168 31h-30z" />
<glyph unicode="&#x1b0;" horiz-adv-x="1437" d="M27 850v104l485 15v-590q0 -117 34 -168t111 -51q57 0 107.5 31.5t75.5 84.5q35 68 34 211v164q0 143 -18 171t-113 28h-32v104l485 15v-66q33 16 60.5 53t19.5 66q-76 63 -76 139q0 53 41 90t98 37q66 0 111 -48t45 -112q0 -104 -92 -199t-207 -130v-578 q0 -55 20.5 -71.5t92.5 -16.5h57v-110l-477 -23v168q-88 -109 -171 -154t-192 -45q-217 0 -303 176q-20 43 -26.5 87t-6.5 159v260q-2 145 -19 172t-112 27h-32z" />
<glyph unicode="&#x1dd;" horiz-adv-x="1175" d="M66 469v33h686q0 186 -76 272t-203 86q-100 0 -173 -54t-134 -173l-100 41q133 326 487 325q252 0 402.5 -141t150.5 -364.5t-156.5 -374t-394.5 -150.5q-223 0 -356 135.5t-133 364.5zM387 324q0 -248 162 -248q92 0 146.5 84t54.5 229h-308q-31 0 -43 -14t-12 -51z" />
<glyph unicode="&#x1e6;" horiz-adv-x="1705" d="M80 717q0 330 203 545q229 248 587 247q111 0 197 -24.5t195 -85.5l120 102h91l18 -588h-109q-51 233 -178 361.5t-309 128.5q-90 0 -167 -41t-122 -113q-117 -188 -117 -520q0 -297 84 -477q39 -84 112 -130t167 -46q139 0 221 91t82 255q0 115 -22.5 135.5t-147.5 20.5 h-39v110h727v-110q-145 -2 -168 -29q-10 -12 -12 -34.5t-2 -121.5v-422h-109l-100 201q-76 -78 -143 -119q-150 -84 -344 -84q-317 0 -516 208t-199 540zM422 1923h164l266 -170l268 170h164l-297 -328h-268z" />
<glyph unicode="&#x1e7;" d="M61 -213q0 72 57.5 119t160.5 63q-186 51 -187 191q0 158 238 200q-225 78 -226 289q0 152 136.5 251t347.5 99q156 0 274 -59q129 162 262 162q68 0 110 -37t42 -96q0 -55 -37 -93t-90 -38q-41 0 -76 28.5t-35 63.5v8q0 10 -10 10q-35 0 -76 -57q68 -55 95.5 -107.5 t27.5 -124.5q0 -158 -122 -245.5t-355 -87.5h-37q-88 0 -121.5 -14.5t-33.5 -53.5q0 -37 25.5 -48t107.5 -11h141q258 0 366.5 -58.5t108.5 -214.5q0 -164 -153.5 -252t-440.5 -88q-500 0 -500 201zM268 1473h138l221 -191l223 191h137l-248 -365h-223zM328 -188 q0 -57 64.5 -88t182.5 -31q313 0 314 125q0 35 -9.5 52t-58.5 29.5t-149 12.5h-269q-75 -32 -75 -100zM436 668q0 -244 156 -244q72 0 111.5 61.5t39.5 169.5q0 238 -149 238q-158 0 -158 -225z" />
<glyph unicode="&#x1ea;" horiz-adv-x="1705" d="M80 717q0 332 217 562t557 230q336 0 554 -229t218 -561q0 -270 -155.5 -470t-421.5 -259q-70 -14 -111 -77t-41 -140q0 -45 28.5 -70t73.5 -25q41 0 89.5 25t54.5 25q31 0 31 -33q0 -70 -74 -130.5t-170 -60.5t-167 50.5t-71 140.5q0 139 125 274q-324 10 -530.5 219.5 t-206.5 528.5zM489 756q0 -309 90.5 -494.5t276.5 -185.5q176 0 268.5 165t92.5 476q0 317 -91.5 501.5t-269.5 184.5q-367 0 -367 -647z" />
<glyph unicode="&#x1eb;" d="M63 483q0 221 162 368.5t406 147.5q233 0 394 -150.5t161 -369.5q0 -174 -104.5 -305t-276.5 -180q-63 -18 -98 -81t-35 -140q0 -45 28.5 -70t73.5 -25q41 0 89 25t55 25q31 0 30 -33q0 -70 -73.5 -130.5t-170 -60.5t-167 50.5t-70.5 140.5q0 135 125 274 q-231 10 -380 154.5t-149 359.5zM418 483q0 -408 207 -407q98 0 152 105.5t54 299.5q0 412 -204 412q-209 0 -209 -410z" />
<glyph unicode="&#x1f4;" horiz-adv-x="1705" d="M80 717q0 330 203 545q229 248 587 247q111 0 197 -24.5t195 -85.5l120 102h91l18 -588h-109q-51 233 -178 361.5t-309 128.5q-90 0 -167 -41t-122 -113q-117 -188 -117 -520q0 -297 84 -477q39 -84 112 -130t167 -46q139 0 221 91t82 255q0 115 -22.5 135.5t-147.5 20.5 h-39v110h727v-110q-145 -2 -168 -29q-10 -12 -12 -34.5t-2 -121.5v-422h-109l-100 201q-76 -78 -143 -119q-150 -84 -344 -84q-317 0 -516 208t-199 540zM618 1583l279 256q66 59 99.5 76.5t88.5 17.5q57 0 98.5 -26.5t41.5 -65.5q0 -57 -88 -96l-361 -162h-158z" />
<glyph unicode="&#x1f5;" d="M61 -213q0 72 57.5 119t160.5 63q-186 51 -187 191q0 158 238 200q-225 78 -226 289q0 152 136.5 251t347.5 99q156 0 274 -59q129 162 262 162q68 0 110 -37t42 -96q0 -55 -37 -93t-90 -38q-41 0 -76 28.5t-35 63.5v8q0 10 -10 10q-35 0 -76 -57q68 -55 95.5 -107.5 t27.5 -124.5q0 -158 -122 -245.5t-355 -87.5h-37q-88 0 -121.5 -14.5t-33.5 -53.5q0 -37 25.5 -48t107.5 -11h141q258 0 366.5 -58.5t108.5 -214.5q0 -164 -153.5 -252t-440.5 -88q-500 0 -500 201zM328 -188q0 -57 64.5 -88t182.5 -31q313 0 314 125q0 35 -9.5 52 t-58.5 29.5t-149 12.5h-269q-75 -32 -75 -100zM436 668q0 -244 156 -244q72 0 111.5 61.5t39.5 169.5q0 238 -149 238q-158 0 -158 -225zM457 1096l231 282q53 66 83 85.5t75 19.5q49 0 83 -30t34 -73q0 -63 -74 -106l-301 -178h-131z" />
<glyph unicode="&#x1fa;" horiz-adv-x="1554" d="M-37 0v111q90 10 155.5 78.5t135.5 234.5l465 1085h155l527 -1269q33 -78 68.5 -101.5t123.5 -27.5v-111h-719v111l35 2q76 4 97.5 12t21.5 37q2 16 -24 84l-78 200h-510l-33 -77q-35 -84 -33 -117q0 -70 47 -102.5t158 -38.5v-111h-592zM469 584h405l-198 489zM561 2052 l279 256q66 59 99.5 76.5t88.5 17.5q57 0 98 -26.5t41 -65.5q0 -57 -88 -96l-360 -162h-158zM578 1792q0 90 65.5 154.5t155.5 64.5t154.5 -64.5t64.5 -154.5q0 -92 -64.5 -156.5t-158.5 -64.5q-88 0 -152.5 65.5t-64.5 155.5zM690 1790q0 -45 32 -79t75 -34q45 0 76.5 34 t31.5 81q0 45 -31.5 79t-74.5 34q-45 0 -77 -34t-32 -81z" />
<glyph unicode="&#x1fb;" d="M74 209q0 145 122.5 219t471.5 150q25 2 67 14v106q0 106 -38 150.5t-130 44.5q-61 0 -106 -19.5t-45 -46.5l22 -45q25 -43 25 -67q0 -57 -48 -95t-120 -38t-119 44t-47 109q0 121 128 192.5t339 71.5q233 0 347 -78.5t114 -269.5v-360q0 -90 11 -119t44 -29 q10 0 39 14.5t41 14.5q31 0 31 -33q0 -66 -69 -118t-157 -52q-162 0 -217 146q-82 -80 -170 -113t-221 -33q-150 0 -232.5 63.5t-82.5 176.5zM389 1542l279 256q66 59 99.5 76.5t88.5 17.5q57 0 98 -26.5t41 -65.5q0 -57 -88 -96l-360 -162h-158zM406 1282q0 90 65.5 154.5 t155.5 64.5t154.5 -64.5t64.5 -154.5q0 -92 -64.5 -156.5t-158.5 -64.5q-88 0 -152.5 65.5t-64.5 155.5zM416 252q0 -66 35.5 -104.5t95.5 -38.5q86 0 137 69.5t51 188.5v114l-108 -24q-211 -47 -211 -205zM518 1280q0 -45 32 -79t75 -34q45 0 76.5 34t31.5 81 q0 45 -31.5 79t-74.5 34q-45 0 -77 -34t-32 -81z" />
<glyph unicode="&#x1fc;" horiz-adv-x="2009" d="M-59 0v111q63 12 106 58t103 165l403 801q37 78 37 122q0 53 -43 82t-117 29h-61v111h1568l13 -533h-107q-49 176 -119 271q-49 68 -136 109.5t-181 41.5h-43q-92 0 -125 -45q-20 -31 -20 -131v-371h71q86 0 150.5 77t81.5 214h110v-694h-110q-16 139 -81 216t-151 77 h-71v-457q0 -88 30.5 -115.5t124.5 -27.5h35q193 0 322 153q80 98 133 287h108l-22 -551h-1309v111h64q106 0 131 30q10 12 12 33t2 121v246h-440l-101 -199q-45 -86 -45 -141q0 -41 39 -65.5t96 -24.5h58v-111h-516zM465 653h385v672q0 43 -21 43q-10 0 -16 -8t-20 -39z M770 1583l279 256q66 59 99.5 76.5t88.5 17.5q57 0 98 -26.5t41 -65.5q0 -57 -88 -96l-360 -162h-158z" />
<glyph unicode="&#x1fd;" horiz-adv-x="1781" d="M59 211q0 88 53.5 152.5t168.5 115.5q74 33 132 48.5t242 52.5q31 6 68 14v106q0 104 -38 148.5t-130 44.5q-61 0 -106.5 -19.5t-45.5 -46.5l23 -43q25 -43 25 -69q0 -55 -48.5 -93t-119.5 -38q-70 0 -118 43t-48 108q0 119 127 191.5t331 72.5q223 0 347 -104 q139 104 319 104q213 0 343 -138t130 -365l-2 -29h-686q10 -358 279 -358q100 0 173.5 54t133.5 173l100 -41q-131 -326 -479 -326q-260 0 -412 187q-178 -186 -442 -187q-152 0 -236 63.5t-84 178.5zM401 252q0 -66 36 -104.5t98 -38.5q86 0 137 69.5t51 188.5v116 l-109 -26q-113 -27 -163 -75t-50 -130zM721 1096l231 282q53 66 83 85.5t75 19.5q49 0 83 -30t34 -73q0 -63 -74 -106l-301 -178h-131zM1028 580h307q33 0 45.5 14t12.5 51q0 121 -42 184.5t-120 63.5q-94 0 -147.5 -84t-55.5 -229z" />
<glyph unicode="&#x1fe;" horiz-adv-x="1705" d="M80 743q0 328 224 548t558 220q217 0 393 -102l109 152h133l-154 -215q131 -106 206 -267t75 -331q0 -319 -222 -549t-556 -230q-233 0 -410 111l-117 -162h-133l162 227q-268 238 -268 598zM489 762q0 -211 39 -367l596 832q-90 178 -270 178t-272.5 -163t-92.5 -480z M571 270q45 -102 114 -148t175 -46q102 0 174 52t110 151.5t54 216t16 268.5q0 199 -40 344zM618 1583l279 256q66 59 99.5 76.5t88.5 17.5q57 0 98.5 -26.5t41.5 -65.5q0 -57 -88 -96l-361 -162h-158z" />
<glyph unicode="&#x1ff;" d="M63 483q0 217 161 366.5t394 149.5q119 0 224 -38l110 192h119l-137 -238q252 -162 252 -436q0 -219 -160 -364.5t-401 -145.5q-115 0 -219 37l-111 -190h-119l135 233q-115 63 -181.5 180t-66.5 254zM418 481q0 -125 20 -215l324 559q-55 68 -137 68q-207 0 -207 -412z M457 1096l231 282q53 66 83 85.5t75 19.5q49 0 83 -30t34 -73q0 -63 -74 -106l-301 -178h-131zM487 145q55 -70 136 -69q100 0 154 105.5t54 299.5q0 129 -20 221z" />
<glyph unicode="&#x200;" horiz-adv-x="1554" d="M-37 0v111q90 10 155.5 78.5t135.5 234.5l465 1085h155l527 -1269q33 -78 68.5 -101.5t123.5 -27.5v-111h-719v111l35 2q76 4 97.5 12t21.5 37q2 16 -24 84l-78 200h-510l-33 -77q-35 -84 -33 -117q0 -70 47 -102.5t158 -38.5v-111h-592zM412 1892q0 41 29.5 71t72.5 30 q55 0 86 -47q20 -35 35 -109l39 -199l-51 -30l-158 166q-53 57 -53 118zM469 584h405l-198 489zM737 1892q0 41 30 71t73 30q55 0 86 -47q20 -35 35 -109l38 -199l-51 -30l-157 166q-54 57 -54 118z" />
<glyph unicode="&#x201;" d="M74 209q0 145 122.5 219t471.5 150q25 2 67 14v106q0 106 -38 150.5t-130 44.5q-61 0 -106 -19.5t-45 -46.5l22 -45q25 -43 25 -67q0 -57 -48 -95t-120 -38t-119 44t-47 109q0 121 128 192.5t339 71.5q233 0 347 -78.5t114 -269.5v-360q0 -90 11 -119t44 -29 q10 0 39 14.5t41 14.5q31 0 31 -33q0 -66 -69 -118t-157 -52q-162 0 -217 146q-82 -80 -170 -113t-221 -33q-150 0 -232.5 63.5t-82.5 176.5zM240 1382q0 41 29.5 71t72.5 30q55 0 86 -47q20 -35 35 -109l39 -199l-51 -30l-158 166q-53 57 -53 118zM416 252 q0 -66 35.5 -104.5t95.5 -38.5q86 0 137 69.5t51 188.5v114l-108 -24q-211 -47 -211 -205zM565 1382q0 41 30 71t73 30q55 0 86 -47q20 -35 34 -109l39 -199l-51 -30l-158 166q-53 57 -53 118z" />
<glyph unicode="&#x204;" horiz-adv-x="1554" d="M33 0v111h30q143 0 168 30q10 12 12.5 34t2.5 120v889q0 98 -2 119.5t-13 33.5q-25 31 -168 31h-30v111h1374l12 -533h-106q-49 172 -119 271q-111 152 -346 151h-57q-123 0 -156 -45q-20 -31 -21 -131v-371h76q92 0 158.5 77t83.5 214h110v-694h-110q-16 137 -83 214 t-159 77h-76v-455q0 -84 33 -115q18 -18 47 -23t105 -5h61q186 0 301 105.5t178 334.5h109l-25 -551h-1390zM391 1892q0 41 30 71t73 30q55 0 86 -47q20 -35 34 -109l39 -199l-51 -30l-158 166q-53 57 -53 118zM717 1892q0 41 29.5 71t72.5 30q55 0 86 -47q20 -35 35 -109 l39 -199l-51 -30l-158 166q-53 57 -53 118z" />
<glyph unicode="&#x205;" horiz-adv-x="1175" d="M66 475q0 223 156.5 373.5t393.5 150.5q223 0 356.5 -135t133.5 -364v-33h-686q0 -186 75.5 -272t202.5 -86q100 0 173 54t135 173l100 -41q-133 -326 -488 -326q-252 0 -402 141.5t-150 364.5zM203 1382q0 41 29.5 71t72.5 30q55 0 86 -47q20 -35 35 -109l39 -199 l-51 -30l-158 166q-53 57 -53 118zM422 580h307q31 0 43 14t12 51q0 248 -161 248q-92 0 -146.5 -84t-54.5 -229zM528 1382q0 41 30 71t73 30q55 0 86 -47q20 -35 35 -109l39 -199l-52 -30l-157 166q-54 57 -54 118z" />
<glyph unicode="&#x208;" horiz-adv-x="909" d="M57 0v111h31q143 0 168 30q10 12 12 34t2 120v889q0 98 -2 119.5t-12 33.5q-25 31 -168 31h-31v111h797v-111h-31q-145 0 -170 -31q-10 -12 -12 -32.5t-2 -120.5v-889q0 -100 2 -120.5t12 -33.5q25 -31 170 -30h31v-111h-797zM70 1892q0 41 29.5 71t72.5 30q55 0 86 -47 q20 -35 35 -109l39 -199l-51 -30l-158 166q-53 57 -53 118zM395 1892q0 41 30 71t73 30q55 0 86 -47q20 -35 34 -109l39 -199l-51 -30l-157 166q-54 57 -54 118z" />
<glyph unicode="&#x209;" horiz-adv-x="757" d="M-8 1382q0 41 29.5 71t72.5 30q55 0 86 -47q20 -35 35 -109l39 -199l-51 -30l-158 166q-53 57 -53 118zM57 0v104h29q92 0 111.5 15.5t19.5 81.5v456q0 137 -18.5 165t-112.5 28h-29v104l482 15v-770q0 -63 18 -79t109 -16h32v-104h-641zM317 1382q0 41 30 71t73 30 q55 0 86 -47q20 -35 35 -109l39 -199l-52 -30l-157 166q-54 57 -54 118z" />
<glyph unicode="&#x20c;" horiz-adv-x="1705" d="M80 717q0 332 217 562t557 230q336 0 554 -229t218 -561q0 -322 -214 -536t-568 -214q-334 0 -549 211t-215 537zM467 1892q0 41 29.5 71t72.5 30q55 0 86 -47q20 -35 35 -109l39 -199l-51 -30l-158 166q-53 57 -53 118zM489 756q0 -309 90.5 -494.5t276.5 -185.5 q176 0 268.5 165t92.5 476q0 317 -91.5 501.5t-269.5 184.5q-367 0 -367 -647zM793 1892q0 41 29.5 71t72.5 30q55 0 86 -47q20 -35 35 -109l39 -199l-51 -30l-158 166q-53 57 -53 118z" />
<glyph unicode="&#x20d;" d="M63 483q0 221 162 368.5t406 147.5q233 0 394 -150.5t161 -369.5t-161 -364.5t-402.5 -145.5t-400.5 145.5t-159 368.5zM240 1382q0 41 29.5 71t72.5 30q55 0 86 -47q20 -35 35 -109l39 -199l-51 -30l-158 166q-53 57 -53 118zM418 483q0 -408 207 -407q98 0 152 105.5 t54 299.5q0 412 -204 412q-209 0 -209 -410zM565 1382q0 41 30 71t73 30q55 0 86 -47q20 -35 34 -109l39 -199l-51 -30l-158 166q-53 57 -53 118z" />
<glyph unicode="&#x210;" horiz-adv-x="1669" d="M41 2v111h31q141 0 168 28q10 14 12 35t2 121v887q0 100 -2 120.5t-12 34.5q-27 29 -168 29h-31v111h874q287 0 404 -74q166 -109 166 -297q0 -154 -98.5 -241t-311.5 -128q133 -43 196.5 -118.5t90.5 -217.5l14 -77q18 -127 33.5 -156t58.5 -29q90 0 95 195h110 q0 -166 -92 -266.5t-256 -100.5q-133 0 -218 62.5t-110 181.5q-14 76 -28 256q-12 152 -61.5 197t-170.5 45h-114v-414q0 -100 2 -120.5t12 -35.5q27 -29 170 -28h53v-111h-819zM449 1892q0 41 29.5 71t72.5 30q55 0 86 -47q20 -35 35 -109l39 -199l-52 -30l-157 166 q-53 57 -53 118zM623 823h112q205 0 282 59.5t77 215.5q0 139 -66.5 204.5t-210.5 65.5h-49q-98 0 -121.5 -21.5t-23.5 -109.5v-414zM774 1892q0 41 30 71t73 30q55 0 86 -47q20 -35 34 -109l39 -199l-51 -30l-158 166q-53 57 -53 118z" />
<glyph unicode="&#x211;" horiz-adv-x="1062" d="M37 0v104h29q94 0 113.5 15.5t19.5 81.5v450q0 143 -18.5 171t-112.5 28h-31v104l457 15v-248q109 279 340 278q98 0 161.5 -58t63.5 -148q0 -76 -50.5 -126.5t-125.5 -50.5q-66 0 -110 43t-44 109q0 47 35 96q-96 -29 -156 -133q-86 -152 -86 -395v-135q0 -63 28 -80 t126 -17h45v-104h-684zM109 1382q0 41 29.5 71t72.5 30q55 0 86 -47q20 -35 35 -109l39 -199l-52 -30l-157 166q-53 57 -53 118zM434 1382q0 41 30 71t73 30q55 0 86 -47q20 -35 34 -109l39 -199l-51 -30l-158 166q-53 57 -53 118z" />
<glyph unicode="&#x214;" horiz-adv-x="1705" d="M31 1368v111h796v-111h-30q-145 0 -170 -31q-10 -12 -12.5 -33.5t-2.5 -119.5v-656q0 -233 80 -319t250 -86q258 0 348 194q35 76 35 306v411q0 137 -10 190.5t-43 88.5q-49 53 -168 55v111h584v-111q-123 -4 -172 -55q-33 -35 -43.5 -89.5t-10.5 -189.5v-411 q0 -180 -15 -268.5t-58 -157.5q-76 -119 -200 -173.5t-321 -54.5q-442 0 -571 236q-53 98 -53 330v649q0 98 -2 119.5t-13 33.5q-25 31 -168 31h-30zM467 1892q0 41 29.5 71t72.5 30q55 0 86 -47q20 -35 35 -109l39 -199l-51 -30l-158 166q-53 57 -53 118zM793 1892 q0 41 29.5 71t72.5 30q55 0 86 -47q20 -35 35 -109l39 -199l-51 -30l-158 166q-53 57 -53 118z" />
<glyph unicode="&#x215;" horiz-adv-x="1402" d="M27 850v104l485 15v-590q0 -117 34 -168t111 -51q57 0 107.5 31.5t75.5 84.5q35 68 34 211v164q0 143 -18 171t-113 28h-32v104l485 15v-748q0 -55 20.5 -71.5t92.5 -16.5h57v-110l-477 -23v168q-88 -109 -171 -154t-192 -45q-217 0 -303 176q-20 43 -26.5 87t-6.5 159 v260q-2 145 -19 172t-112 27h-32zM315 1382q0 41 30 71t73 30q55 0 86 -47q20 -35 35 -109l39 -199l-52 -30l-157 166q-54 57 -54 118zM641 1382q0 41 29.5 71t72.5 30q55 0 86 -47q20 -35 35 -109l39 -199l-51 -30l-158 166q-53 57 -53 118z" />
<glyph unicode="&#x218;" horiz-adv-x="1366" d="M104 565h105q84 -231 228.5 -360t318.5 -129q133 0 214 65.5t81 173.5q0 115 -90 164q-57 31 -222 62l-127 24q-242 45 -374 172t-132 316q0 205 146.5 330.5t384.5 125.5q205 0 369 -110l106 94h92l27 -530h-109q-182 440 -504 440q-121 0 -198.5 -60.5t-77.5 -154.5 q0 -127 139 -176q51 -18 209 -49l98 -23q266 -59 387 -174t121 -309q0 -215 -150.5 -351.5t-389.5 -136.5q-238 0 -420 137l-127 -120h-92zM502 -285q0 76 51 129.5t125 53.5q82 0 134 -61.5t52 -160.5q0 -248 -311 -438l-49 74q84 59 133 122.5t49 114.5q0 10 -8 11h-6 q-6 -2 -17 -2q-63 0 -108 45.5t-45 111.5z" />
<glyph unicode="&#x219;" horiz-adv-x="1024" d="M78 358h92q143 -283 373 -282q82 0 129 32.5t47 88.5q0 88 -144 118l-149 33q-172 37 -254 117q-86 82 -86 203q0 145 111.5 238t283.5 93q141 0 254 -65l76 45h88l8 -324h-96q-76 125 -152.5 181.5t-175.5 56.5q-76 0 -124 -34t-48 -85q0 -39 25.5 -59.5t101.5 -40.5 l185 -45q111 -27 156.5 -47.5t86.5 -55.5q88 -78 88 -209q0 -154 -114.5 -251t-296.5 -97q-168 0 -289 72l-80 -37h-86zM332 -285q0 76 51 129.5t125 53.5q82 0 134 -61.5t52 -160.5q0 -248 -311 -438l-49 74q84 59 133 122.5t49 114.5q0 10 -8 11h-6q-6 -2 -17 -2 q-63 0 -108 45.5t-45 111.5z" />
<glyph unicode="&#x21a;" horiz-adv-x="1478" d="M31 924l30 555h1356l31 -555h-109q-41 223 -120 327q-94 121 -222 121q-45 0 -59 -15.5t-14 -68.5v-993q0 -98 2 -119.5t12 -34.5q25 -31 170 -30h45v-111h-827v111h45q145 0 170 30q10 12 12 34t2 120v993q0 53 -14.5 68.5t-59.5 15.5q-141 0 -237 -145 q-70 -100 -105 -303h-108zM559 -285q0 76 51.5 129.5t124.5 53.5q82 0 134.5 -61.5t52.5 -160.5q0 -248 -312 -438l-49 74q84 59 133 122.5t49 114.5q0 10 -8 11h-6q-6 -2 -16 -2q-63 0 -108.5 45.5t-45.5 111.5z" />
<glyph unicode="&#x21b;" horiz-adv-x="872" d="M47 846v106q289 33 338 422h129v-405h266v-123h-266v-527q0 -104 15.5 -140t60.5 -36q129 0 129 238h108q2 -20 2 -47q0 -156 -90 -260.5t-256 -104.5q-180 0 -247 113q-27 43 -35 96t-8 178v490h-146zM303 -285q0 76 51.5 129.5t124.5 53.5q82 0 134.5 -61.5 t52.5 -160.5q0 -248 -312 -438l-49 74q84 59 133 122.5t49 114.5q0 10 -8 11h-6q-6 -2 -16 -2q-63 0 -108.5 45.5t-45.5 111.5z" />
<glyph unicode="&#x258;" horiz-adv-x="1175" d="M66 295l100 41q61 -119 134 -173t173 -54q127 0 203 86t76 272h-686v33q0 229 133 364t356 135q238 0 394.5 -150.5t156.5 -373.5t-150.5 -364.5t-402.5 -141.5q-354 0 -487 326zM387 645q0 -37 12.5 -51t42.5 -14h308q0 145 -54.5 229t-146.5 84q-162 0 -162 -248z" />
<glyph unicode="&#x259;" horiz-adv-x="1175" d="M66 469v33h686q0 186 -76 272t-203 86q-100 0 -173 -54t-134 -173l-100 41q133 326 487 325q252 0 402.5 -141t150.5 -364.5t-156.5 -374t-394.5 -150.5q-223 0 -356 135.5t-133 364.5zM387 324q0 -248 162 -248q92 0 146.5 84t54.5 229h-308q-31 0 -43 -14t-12 -51z" />
<glyph unicode="&#x2be;" horiz-adv-x="890" d="M92 1200q80 250 326 250q172 0 277.5 -96.5t105.5 -251.5q0 -162 -115 -266.5t-293 -104.5q-131 0 -209 55.5t-78 147.5q0 59 38 95t102 36q57 0 92 -32t35 -83q0 -41 -31 -78l-12 -16q0 -20 55 -20q72 0 109.5 63.5t37.5 177.5q0 117 -41.5 182.5t-117.5 65.5 q-119 0 -180 -160q-4 -16 -19 -8l-72 23q-18 4 -10 20z" />
<glyph unicode="&#x2bf;" horiz-adv-x="890" d="M90 1079q0 162 114.5 266.5t293.5 104.5q131 0 208.5 -55.5t77.5 -147.5q0 -59 -37.5 -95t-101.5 -36q-57 0 -92 32t-35 83q0 41 31 78q12 14 12 16q0 20 -55 21q-72 0 -110 -63.5t-38 -178.5q0 -117 42 -182.5t118 -65.5q119 0 180 160q4 16 19 8l71 -23q18 -4 11 -20 q-80 -250 -326 -250q-172 0 -277.5 96t-105.5 252z" />
<glyph unicode="&#x2c6;" horiz-adv-x="681" d="M-18 1108l247 365h224l247 -365h-137l-221 190l-223 -190h-137z" />
<glyph unicode="&#x2c7;" horiz-adv-x="681" d="M-16 1473h137l221 -191l223 191h137l-247 -365h-224z" />
<glyph unicode="&#x2d8;" horiz-adv-x="681" d="M18 1462h109q20 -168 215 -168q193 0 213 168h109q0 -162 -85 -252t-239 -90t-238 89t-84 253z" />
<glyph unicode="&#x2d9;" horiz-adv-x="681" d="M197 1290.5q0 59.5 43 101.5t102 42t101 -43t42 -101q0 -61 -43 -103t-102 -42t-101 43t-42 102.5z" />
<glyph unicode="&#x2da;" horiz-adv-x="681" d="M121 1292q0 90 65.5 154.5t155.5 64.5t154.5 -64.5t64.5 -154.5q0 -92 -64.5 -156.5t-158.5 -64.5q-88 0 -152.5 65.5t-64.5 155.5zM233 1290q0 -45 32 -78.5t75 -33.5q45 0 77 33.5t32 80.5q0 45 -32 79t-75 34q-45 0 -77 -34t-32 -81z" />
<glyph unicode="&#x2db;" horiz-adv-x="681" d="M57 -305q0 94 43 164.5t127 156.5h138q-37 -61 -70 -127.5t-33 -115.5q0 -45 28.5 -70t74.5 -25q41 0 89 25t54 25q31 0 31 -33q0 -70 -74 -130.5t-170 -60.5t-167 50.5t-71 140.5z" />
<glyph unicode="&#x2dc;" horiz-adv-x="681" d="M-47 1157q18 121 87 199t157 78q70 0 196 -62q104 -49 146 -49q33 0 52 21.5t42 80.5h100q-14 -119 -89 -197.5t-169 -78.5q-53 0 -91 12.5t-116 55.5q-80 43 -123 43q-61 0 -90 -103h-102z" />
<glyph unicode="&#x2dd;" horiz-adv-x="681" d="M139 1128l39 199q14 74 35 109q31 47 86 47q43 0 72.5 -30t29.5 -71q0 -61 -53 -118l-158 -166zM465 1128l39 199q14 74 35 109q31 47 86 47q43 0 72.5 -30t29.5 -71q0 -61 -53 -118l-158 -166z" />
<glyph unicode="&#x300;" horiz-adv-x="0" d="M-963 1380q0 43 34 73t83 30q45 0 75 -19.5t83 -85.5l231 -282h-131l-301 178q-74 43 -74 106z" />
<glyph unicode="&#x301;" horiz-adv-x="0" d="M-795 1096l232 282q53 66 82.5 85.5t74.5 19.5q49 0 83 -30t34 -73q0 -63 -73 -106l-302 -178h-131z" />
<glyph unicode="&#x302;" horiz-adv-x="0" d="M-985 1108l248 365h223l248 -365h-137l-222 190l-223 -190h-137z" />
<glyph unicode="&#x303;" horiz-adv-x="0" d="M-1014 1157q18 121 87 199t157 78q70 0 197 -62q104 -49 145 -49q33 0 52.5 21.5t41.5 80.5h101q-14 -119 -89 -197.5t-170 -78.5q-53 0 -91 12.5t-115 55.5q-80 43 -123 43q-61 0 -90 -103h-103z" />
<glyph unicode="&#x304;" horiz-adv-x="0" d="M-977 1208v164h705v-164h-705z" />
<glyph unicode="&#x306;" horiz-adv-x="0" d="M-948 1462h108q20 -168 215 -168q193 0 213 168h109q0 -162 -85 -252t-238.5 -90t-237.5 89t-84 253z" />
<glyph unicode="&#x307;" horiz-adv-x="0" d="M-770 1290.5q0 59.5 43 101.5t102.5 42t101.5 -43t42 -101q0 -61 -43 -103t-102.5 -42t-101.5 43t-42 102.5z" />
<glyph unicode="&#x308;" horiz-adv-x="0" d="M-989 1292.5q0 59.5 43 101.5t102 42q57 0 100.5 -42t43.5 -102q0 -61 -43 -103t-102.5 -42t-101.5 43t-42 102.5zM-549 1292.5q0 59.5 43 101.5t102.5 42t101.5 -42t42 -102q0 -61 -43 -103t-102.5 -42t-101.5 43t-42 102.5z" />
<glyph unicode="&#x309;" horiz-adv-x="0" d="M-856 1370q0 59 66.5 98t168.5 39q106 0 167 -42t61 -111q0 -51 -30 -83t-112 -85q-45 -31 -57 -48.5t-14 -62.5h-76l2 43q0 31 10.5 52.5t55.5 84.5q39 57 39 107q0 78 -89 78q-45 0 -45 -10q51 -14 52 -70q0 -33 -27 -54.5t-68 -21.5q-45 0 -74.5 24.5t-29.5 61.5z" />
<glyph unicode="&#x30a;" horiz-adv-x="0" d="M-846 1292q0 90 65.5 154.5t155.5 64.5t154.5 -64.5t64.5 -154.5q0 -92 -64.5 -156.5t-158.5 -64.5q-88 0 -152.5 65.5t-64.5 155.5zM-733 1290q0 -45 31.5 -78.5t74.5 -33.5q45 0 77 33.5t32 80.5q0 45 -32 79t-75 34q-45 0 -76.5 -34t-31.5 -81z" />
<glyph unicode="&#x30b;" horiz-adv-x="0" d="M-827 1128l39 199q14 74 34 109q31 47 86 47q43 0 73 -30t30 -71q0 -61 -53 -118l-158 -166zM-502 1128l39 199q14 74 35 109q31 47 86 47q43 0 72.5 -30t29.5 -71q0 -61 -53 -118l-158 -166z" />
<glyph unicode="&#x30c;" horiz-adv-x="0" d="M-983 1473h137l221 -191l224 191h137l-248 -365h-223z" />
<glyph unicode="&#x30f;" horiz-adv-x="0" d="M-1012 1382q0 41 30 71t73 30q55 0 86 -47q20 -35 35 -109l38 -199l-51 -30l-157 166q-54 57 -54 118zM-686 1382q0 41 29.5 71t72.5 30q55 0 86 -47q20 -35 35 -109l39 -199l-51 -30l-158 166q-53 57 -53 118z" />
<glyph unicode="&#x311;" horiz-adv-x="0" d="M-948 1120q0 162 85 252t238.5 90t237.5 -89t84 -253h-109q-20 168 -215 168q-193 0 -213 -168h-108z" />
<glyph unicode="&#x323;" horiz-adv-x="0" d="M-770 -319.5q0 59.5 43 101.5t102.5 42t101.5 -43t42 -100q0 -61 -43 -103.5t-102.5 -42.5t-101.5 43t-42 102.5z" />
<glyph unicode="&#x326;" horiz-adv-x="0" d="M-807 -285q0 76 51 129.5t125 53.5q82 0 134.5 -61.5t52.5 -160.5q0 -248 -312 -438l-49 74q84 59 133 122.5t49 114.5q0 10 -8 11h-6q-6 -2 -16 -2q-63 0 -108.5 45.5t-45.5 111.5z" />
<glyph unicode="&#x32e;" horiz-adv-x="0" d="M-1012 -166h131q25 -152 258 -151q229 0 254 151h131q0 -145 -102 -227t-286.5 -82t-285 81t-100.5 228z" />
<glyph unicode="&#x32f;" horiz-adv-x="0" d="M-1012 -475q0 145 102.5 227t287 82t284.5 -81t100 -228h-131q-25 152 -258 151q-229 0 -254 -151h-131z" />
<glyph unicode="&#x330;" horiz-adv-x="0" d="M-1014 -455q18 121 87 199t157 78q70 0 197 -62q104 -49 145 -49q33 0 52.5 21.5t41.5 81.5h101q-14 -119 -89 -198t-170 -79q-53 0 -91 12.5t-115 55.5q-80 43 -123 43q-61 0 -90 -103h-103z" />
<glyph unicode="&#x331;" horiz-adv-x="0" d="M-977 -240h705v-163h-705v163z" />
<glyph unicode="&#x332;" horiz-adv-x="0" d="M-977 -240h705v-163h-705v163z" />
<glyph unicode="&#x391;" horiz-adv-x="1554" d="M-37 0v111q90 10 155.5 78.5t135.5 234.5l465 1085h155l527 -1269q33 -78 68.5 -101.5t123.5 -27.5v-111h-719v111l35 2q76 4 97.5 12t21.5 37q2 16 -24 84l-78 200h-510l-33 -77q-35 -84 -33 -117q0 -70 47 -102.5t158 -38.5v-111h-592zM469 584h405l-198 489z" />
<glyph unicode="&#x392;" horiz-adv-x="1593" d="M35 0v111h31q143 0 167 30q10 12 12.5 34t2.5 120v889q0 100 -2 120.5t-13 34.5q-27 29 -167 29h-31v111h790q182 0 274.5 -17.5t178.5 -64.5q76 -43 119 -118t43 -163q0 -139 -98.5 -222t-305.5 -116q227 -31 349 -132t122 -259q0 -102 -59 -192.5t-158 -133.5 q-137 -61 -426 -61h-829zM616 242q0 -92 19.5 -111.5t105.5 -19.5h62q156 0 234.5 77.5t78.5 221.5q0 150 -82 221t-276 71h-142v-460zM616 815h101q188 0 270 76t82 217q0 127 -70.5 193.5t-205.5 66.5h-62q-59 0 -87 -21.5t-28 -97.5v-434z" />
<glyph unicode="&#x393;" horiz-adv-x="1478" d="M45 0v111h31q143 0 168 30q10 12 12 34t2 120v889q0 98 -2 119.5t-12 33.5q-25 31 -168 31h-31v111h1356l12 -533h-106q-49 174 -119 271q-111 152 -346 151h-39q-123 0 -156 -45q-20 -31 -20 -131v-897q0 -98 2 -119.5t12 -34.5q25 -31 170 -30h53v-111h-819z" />
<glyph unicode="&#x394;" horiz-adv-x="1564" d="M45 0l674 1509h155l646 -1509h-1475zM276 113h781l-381 960z" />
<glyph unicode="&#x395;" horiz-adv-x="1554" d="M33 0v111h30q143 0 168 30q10 12 12.5 34t2.5 120v889q0 98 -2 119.5t-13 33.5q-25 31 -168 31h-30v111h1374l12 -533h-106q-49 172 -119 271q-111 152 -346 151h-57q-123 0 -156 -45q-20 -31 -21 -131v-371h76q92 0 158.5 77t83.5 214h110v-694h-110q-16 137 -83 214 t-159 77h-76v-455q0 -84 33 -115q18 -18 47 -23t105 -5h61q186 0 301 105.5t178 334.5h109l-25 -551h-1390z" />
<glyph unicode="&#x396;" horiz-adv-x="1366" d="M49 0v119l821 1247h-151q-164 0 -250 -36t-154 -130q-63 -86 -110 -237h-105l25 516h1173v-115l-821 -1251h182q186 0 267 41q98 49 167.5 156.5t96.5 254.5h108l-32 -565h-1217z" />
<glyph unicode="&#x397;" horiz-adv-x="1781" d="M41 0v111h31q143 0 168 30q10 12 12 34t2 120v887q0 100 -2 121.5t-12 33.5q-25 31 -168 31h-31v111h797v-111h-31q-145 0 -170 -31q-10 -12 -12 -33.5t-2 -121.5v-365h534v365q0 100 -2 121.5t-12 33.5q-25 31 -168 31h-31v111h797v-111h-31q-145 0 -170 -31 q-10 -12 -12 -33.5t-2 -121.5v-887q0 -100 2 -120.5t12 -33.5q25 -31 170 -30h31v-111h-797v111h31q143 0 168 30q10 12 12 34t2 120v399h-534v-399q0 -100 2 -120.5t12 -33.5q25 -31 170 -30h31v-111h-797z" />
<glyph unicode="&#x398;" horiz-adv-x="1705" d="M80 717q0 332 217 562t557 230q336 0 554 -229t218 -561q0 -322 -214 -536t-568 -214q-334 0 -549 211t-215 537zM489 756q0 -309 90.5 -494.5t276.5 -185.5q176 0 268.5 165t92.5 476q0 317 -91.5 501.5t-269.5 184.5q-367 0 -367 -647zM621 383v715h110v-31 q0 -123 15.5 -143.5t107.5 -20.5q90 0 105.5 20.5t17.5 143.5v31h110v-715h-110v31q0 123 -15.5 143.5t-107.5 20.5q-90 0 -105.5 -20.5t-17.5 -143.5v-31h-110z" />
<glyph unicode="&#x399;" horiz-adv-x="909" d="M57 0v111h31q143 0 168 30q10 12 12 34t2 120v889q0 98 -2 119.5t-12 33.5q-25 31 -168 31h-31v111h797v-111h-31q-145 0 -170 -31q-10 -12 -12 -32.5t-2 -120.5v-889q0 -100 2 -120.5t12 -33.5q25 -31 170 -30h31v-111h-797z" />
<glyph unicode="&#x39a;" horiz-adv-x="1669" d="M31 0v111h30q143 0 168 30q10 12 12.5 34t2.5 120v889q0 98 -2 119.5t-13 33.5q-25 31 -168 31h-30v111h796v-111h-30q-145 0 -170 -31q-10 -12 -12.5 -33.5t-2.5 -119.5v-479l453 479q63 68 68 112q0 72 -154 72h-49v111h690v-111q-102 -6 -192.5 -58.5t-223.5 -183.5 l-170 -178l426 -680q68 -111 98.5 -132t116.5 -25v-111h-745v111h26q139 0 140 47q0 23 -25 65l-287 469l-172 -180v-217q0 -98 2 -119.5t13 -34.5q25 -31 170 -30h30v-111h-796z" />
<glyph unicode="&#x39b;" horiz-adv-x="1554" d="M-37 0v111q90 10 155.5 78.5t135.5 234.5l465 1085h155l527 -1269q33 -78 68.5 -101.5t123.5 -27.5v-111h-719v111l35 2q76 4 97.5 12t21.5 37q2 16 -24 84l-328 827l-293 -704q-35 -84 -33 -117q0 -70 47 -102.5t158 -38.5v-111h-592z" />
<glyph unicode="&#x39c;" horiz-adv-x="2009" d="M18 0v111q119 2 168 55q33 35 43.5 89t10.5 189v740q0 98 -2 119.5t-13 33.5q-25 31 -170 31h-22v111h659l318 -881l299 881h667v-111h-22q-145 0 -170 -31q-10 -12 -12.5 -33.5t-2.5 -119.5v-889q0 -98 2.5 -119.5t12.5 -34.5q25 -31 170 -30h22v-111h-782v111h23 q145 0 169 30q10 12 12.5 34t2.5 120v1022l-453 -1317h-106l-465 1296v-852q0 -137 10 -190t43 -88q49 -51 172 -55v-111h-584z" />
<glyph unicode="&#x39d;" horiz-adv-x="1705" d="M33 2v111q57 2 85.5 7t60.5 22.5t45.5 53t21.5 95t8 153.5v807q-78 111 -217 115v113h516l790 -926v481q0 135 -10 189.5t-43 89.5q-49 53 -168 55v111h584v-111q-123 -4 -172 -55q-33 -35 -43 -88.5t-10 -190.5v-1048h-138l-952 1132v-674q0 -135 10.5 -188t42.5 -88 q47 -49 172 -55v-111h-583z" />
<glyph unicode="&#x39e;" horiz-adv-x="1529" d="M27 430h53q49 -125 116.5 -163t247.5 -38h623q180 0 247.5 38t117.5 163h53l-111 -430h-1237zM27 1049l110 430h1237l111 -430h-53q-49 125 -117 162.5t-248 37.5h-623q-180 0 -247.5 -37.5t-116.5 -162.5h-53zM317 350v715h111v-31q0 -125 31 -149q12 -10 32.5 -12.5 t120.5 -2.5h295q100 0 121 2t33 13q31 25 31 149v31h110v-715h-110v31q0 123 -31 147q-12 10 -33.5 12.5t-120.5 2.5h-295q-98 0 -119.5 -2t-33.5 -13q-31 -25 -31 -147v-31h-111z" />
<glyph unicode="&#x39f;" horiz-adv-x="1705" d="M80 717q0 332 217 562t557 230q336 0 554 -229t218 -561q0 -322 -214 -536t-568 -214q-334 0 -549 211t-215 537zM489 756q0 -309 90.5 -494.5t276.5 -185.5q176 0 268.5 165t92.5 476q0 317 -91.5 501.5t-269.5 184.5q-367 0 -367 -647z" />
<glyph unicode="&#x3a0;" horiz-adv-x="1781" d="M41 0v111h31q143 0 168 30q10 12 12 34t2 120v887q0 100 -2 121.5t-12 33.5q-25 31 -168 31h-31v111h1700v-111h-31q-145 0 -170 -31q-10 -12 -12 -33.5t-2 -121.5v-887q0 -100 2 -120.5t12 -33.5q25 -31 170 -30h31v-111h-797v111h31q143 0 168 30q10 12 12 34t2 120 v887q0 100 -2 121.5t-12 33.5q-25 31 -168 31h-168q-145 0 -170 -31q-10 -12 -12 -33.5t-2 -121.5v-887q0 -100 2 -120.5t12 -33.5q25 -31 170 -30h31v-111h-797z" />
<glyph unicode="&#x3a1;" horiz-adv-x="1554" d="M49 0v111h31q141 0 168 28q10 14 12 35t2 121v887q0 100 -2 120.5t-12 34.5q-27 29 -168 29h-31v113h813q328 0 485.5 -99.5t157.5 -312.5q0 -432 -645 -432h-229v-340q0 -100 2 -120.5t12 -35.5q27 -29 170 -28h45v-111h-811zM631 748h119q199 0 279.5 72.5t80.5 248.5 q0 154 -69.5 225.5t-215.5 71.5h-82q-70 0 -91 -23.5t-21 -99.5v-495z" />
<glyph unicode="&#x3a3;" horiz-adv-x="1533" d="M31 0l520 664l-481 815h1288l22 -338h-57q-27 147 -89.5 182t-258.5 35h-483l329 -541l-352 -448h588q186 0 257.5 37.5t123.5 162.5h57l-117 -569h-1347z" />
<glyph unicode="&#x3a4;" horiz-adv-x="1478" d="M31 924l30 555h1356l31 -555h-109q-41 223 -120 327q-94 121 -222 121q-45 0 -59 -15.5t-14 -68.5v-993q0 -98 2 -119.5t12 -34.5q25 -31 170 -30h45v-111h-827v111h45q145 0 170 30q10 12 12 34t2 120v993q0 53 -14.5 68.5t-59.5 15.5q-141 0 -237 -145 q-70 -100 -105 -303h-108z" />
<glyph unicode="&#x3a5;" horiz-adv-x="1478" d="M53 1110q0 152 60.5 260.5t173.5 108.5q94 0 168.5 -39t122 -112t80 -160t48 -203.5t21.5 -221t6 -231.5h12q0 127 6.5 231.5t21.5 221t48 203.5t80 160t122 112t169 39q113 0 173 -108.5t60 -260.5h-106q0 18 -10.5 28.5t-33 14.5t-37.5 5t-46 1q-53 0 -96 -21.5 t-71 -53t-47.5 -86t-29.5 -103.5t-16 -124t-7 -127t-1 -132v-217q0 -98 2 -119.5t12 -34.5q25 -31 170 -30h45v-111h-827v111h45q145 0 170 30q10 12 12 34t2 120v217q0 80 -1 132t-7 127t-16.5 124t-30 103.5t-47 86t-70.5 53t-96 21.5q-31 0 -46.5 -1t-38 -5t-32.5 -14.5 t-10 -28.5h-107z" />
<glyph unicode="&#x3a6;" horiz-adv-x="1599" d="M90 739q0 176 146.5 278.5t377.5 133.5v33q0 98 -2 119.5t-12 33.5q-25 31 -168 31h-31v111h797v-111h-31q-145 0 -170 -31q-10 -12 -12 -32.5t-2 -120.5v-33q231 -31 378.5 -133.5t147.5 -278.5t-147.5 -278.5t-378.5 -132.5v-33q0 -100 2 -120.5t12 -33.5 q25 -31 170 -30h31v-111h-797v111h31q143 0 168 30q10 12 12 34t2 120v33q-231 31 -377.5 133t-146.5 278zM442 739q0 -88 47.5 -158.5t124.5 -111.5v541q-78 -41 -125 -112t-47 -159zM983 467q80 43 127 114.5t47 157.5t-47 158t-127 115v-545z" />
<glyph unicode="&#x3a7;" horiz-adv-x="1478" d="M-25 0v111q90 4 148.5 39.5t146.5 144.5l301 371l-419 598q-43 61 -76 80.5t-101 23.5v111h734v-111q-90 -4 -115 -12t-25 -37q0 -25 21 -53l215 -310l143 177q70 84 70 131q0 104 -197 104v111h631v-111q-82 -8 -143.5 -43t-126.5 -115l-299 -364l362 -529 q94 -137 136 -169.5t124 -36.5v-111h-737v111q76 2 105.5 12t29.5 37q0 29 -26 69l-224 320l-180 -230q-41 -51 -41 -102q0 -53 52.5 -77.5t168.5 -28.5v-111h-678z" />
<glyph unicode="&#x3a8;" horiz-adv-x="1910" d="M90 1130v107q197 0 340 -121t143 -299q0 -109 53.5 -201t143.5 -143v711q0 98 -2 119.5t-12 33.5q-25 31 -168 31h-31v111h797v-111h-31q-145 0 -170 -31q-10 -12 -12 -32.5t-2 -120.5v-713q90 51 144 144.5t54 201.5q0 178 143.5 299t340.5 121v-107q-45 0 -74 -25.5 t-40 -78.5t-14 -96t-3 -113q0 -195 -156 -321.5t-395 -165.5v-35q0 -100 2 -120.5t12 -33.5q25 -31 170 -30h31v-111h-797v111h31q143 0 168 30q10 12 12 34t2 120v37q-238 37 -393.5 163t-155.5 322q0 70 -3 113t-14 96t-40 78.5t-74 25.5z" />
<glyph unicode="&#x3a9;" horiz-adv-x="1705" d="M27 430h53q49 -125 116.5 -163t247.5 -38h86v35q-43 76 -107.5 138.5t-120.5 104.5t-108.5 91t-83 119.5t-30.5 169.5q0 319 209 470.5t565 151.5t565 -151.5t209 -470.5q0 -98 -30.5 -169t-83 -120t-108.5 -91t-120.5 -104.5t-107.5 -138.5v-35h86q180 0 247.5 38 t116.5 163h53l-110 -430h-551v381q121 113 160 233.5t39 311.5q0 123 -12.5 202.5t-50.5 146t-111.5 97.5t-188.5 31t-189.5 -31t-112.5 -97.5t-51.5 -146t-13.5 -202.5q0 -190 39 -311t160 -234v-381h-551z" />
<glyph unicode="&#x3b1;" horiz-adv-x="1751" d="M90 473q0 227 183.5 376.5t433.5 149.5q156 0 289.5 -72.5t220.5 -197.5q113 233 167 289l146 -144q-166 -166 -242 -280q14 -37 25 -86l45 -199.5t46 -150.5t54 -82q47 0 71.5 48t24.5 114h107q0 -109 -56.5 -189t-146.5 -80q-233 0 -375 250q-164 -250 -376 -250 q-250 0 -433.5 142.5t-183.5 361.5zM442 473q0 -162 70 -279.5t195 -117.5q106 0 183 68.5t142 189.5q-18 51 -31 104q-18 84 -29 130t-37 118t-53.5 110t-72.5 67.5t-102 29.5q-129 0 -197 -124t-68 -296z" />
<glyph unicode="&#x3b2;" horiz-adv-x="1374" d="M23 -459q68 246 67 459v969q0 225 163 382.5t390 157.5q201 0 349.5 -105.5t148.5 -275.5q0 -102 -65.5 -185t-170.5 -130q168 -45 281.5 -150.5t113.5 -250.5q0 -207 -195.5 -325t-461.5 -118q-117 0 -233 45v-14q0 -256 -56 -459h-331zM410 133q111 -57 233 -57 q129 0 217 99t88 237q0 143 -111.5 239.5t-267.5 96.5v106q96 0 157.5 81t61.5 193q0 274 -145 275q-86 0 -140 -67.5t-73.5 -159t-19.5 -207.5v-836z" />
<glyph unicode="&#x3b3;" horiz-adv-x="1398" d="M90 532q0 190 85 328.5t235 138.5q117 0 197.5 -58t125.5 -167.5t66.5 -230.5t29.5 -285l19 21q256 274 256 690h205q0 -356 -383 -762l-92 -101l2 -233q0 -86 -4.5 -139t-18.5 -118t-48 -96.5t-89 -31.5q-84 0 -138.5 63.5t-58.5 154.5t41 190q33 61 203 247 q-4 119 -20.5 207t-50.5 167t-94 121t-148 42t-150.5 -39t-62.5 -109h-107zM586.5 -324q17.5 -82 89.5 -82q53 0 53 279l-2 117q-98 -119 -111 -142q-47 -90 -29.5 -172z" />
<glyph unicode="&#x3b4;" horiz-adv-x="1275" d="M90 436q0 307 514 361q-217 184 -217 387q0 135 91 230t222 95q135 0 245 -63.5t145 -177.5l-195 -60q-25 84 -75 139.5t-120 55.5q-74 0 -119.5 -65.5t-45.5 -153.5q0 -53 45 -113.5t88 -95.5t120 -90q88 -61 140.5 -102.5t121 -105t102.5 -123.5t34 -118 q0 -201 -162 -334t-385 -133t-386 133t-163 334zM442 436q0 -152 46.5 -256t150.5 -104q102 0 148.5 104.5t46.5 255.5q0 154 -105 258q-121 -14 -204 -84t-83 -174z" />
<glyph unicode="&#x3b5;" horiz-adv-x="1267" d="M90 303q0 158 143 227q-90 68 -90 179q0 264 527 264q211 0 393 -103l-53 -94q-158 90 -340 90q-84 0 -145.5 -44t-61.5 -113q0 -72 55 -111q109 10 336 10v-170q-240 0 -350 13q-94 -51 -94 -148q0 -98 95 -149.5t226 -51.5q215 0 377 140l70 -80q-195 -166 -447 -166 q-641 0 -641 307z" />
<glyph unicode="&#x3b6;" horiz-adv-x="1105" d="M90 371q0 287 107.5 532.5t298.5 360.5q-80 96 -68 215h205q-6 -84 26 -148q70 16 138 17q211 0 211 -109q0 -106 -211 -106q-98 0 -189 43q-57 -51 -94 -135.5t-51 -210t-17.5 -215t-3.5 -244.5q0 -131 93.5 -224.5t224.5 -93.5q127 0 214 -95t87 -226q0 -102 -78 -173 t-186 -71q-129 0 -236 55l47 95q86 -43 189 -44q63 0 110 39t47 99q0 88 -55 151.5t-139 63.5q-174 0 -321.5 43t-248 142.5t-100.5 238.5z" />
<glyph unicode="&#x3b7;" horiz-adv-x="1501" d="M90 727q0 109 53.5 190.5t143.5 81.5q98 0 182 -48t135 -132q45 82 119 131t166 49q211 0 366.5 -103t155.5 -275q0 -104 -39 -310.5t-39 -310.5q0 -213 68 -459h-332q-55 203 -55 459q0 102 22.5 309t22.5 312q0 113 -43 192.5t-127 79.5q-98 0 -164 -81t-66 -191v-621 h-319v621q0 84 -2 129t-14.5 94t-36.5 49q-90 0 -90 -166h-107z" />
<glyph unicode="&#x3b8;" horiz-adv-x="1153" d="M90 729q0 150 28.5 286t86 248.5t154 179t219 66.5t218 -66.5t153 -179t86 -248.5t28.5 -286q0 -199 -50 -365.5t-164 -280.5t-271 -114q-160 0 -274 114t-164 280.5t-50 365.5zM442 676q0 -174 6.5 -284.5t38 -213t91.5 -102.5q37 0 62.5 38t38.5 92t20.5 142t9.5 157.5 t2 170.5h-269zM442 782h269q0 102 -2 175t-9.5 164t-20.5 146.5t-39 95.5t-62 40q-59 0 -91 -106.5t-38.5 -220.5t-6.5 -294z" />
<glyph unicode="&#x3b9;" horiz-adv-x="942" d="M180 242v727h320v-727q0 -68 30.5 -117t83.5 -49q57 0 94 49t37 117h107q0 -111 -67.5 -192t-170.5 -81q-178 0 -306 70t-128 203z" />
<glyph unicode="&#x3ba;" horiz-adv-x="1341" d="M90 0v969h320v-307q41 39 94 110q174 227 338 227q88 0 164.5 -44t121.5 -121l-92 -54q-66 113 -194 113q-51 0 -101.5 -32t-78 -62.5t-74.5 -91.5q-76 -94 -111 -125q176 -10 296 -73t120 -185q0 -57 1 -89t7 -75t22.5 -63.5t41.5 -20.5q74 0 127 48t53 118h106 q0 -115 -84 -194t-202 -79q-160 0 -276 102.5t-116 252.5q0 111 -163 143v-467h-320z" />
<glyph unicode="&#x3bb;" horiz-adv-x="1454" d="M90 0l531 987l-37 98q-18 47 -29.5 72t-33 58.5t-48.5 49t-59 15.5q-39 0 -65.5 -31.5t-26.5 -74.5h-107q0 127 51 219t148 92q45 0 86 -31t75.5 -94.5t55 -108.5t51.5 -127l293 -759q68 -166 182 -166q41 0 70.5 31.5t29.5 74.5h107q0 -127 -55.5 -219t-151.5 -92 q-45 0 -84 21.5t-63.5 48t-53 81t-42 86t-37.5 95.5l-105 268l-317 -594h-365z" />
<glyph unicode="&#x3bc;" horiz-adv-x="1636" d="M180 -512q31 375 31 754v727h319v-727q0 -72 56.5 -119t134.5 -47q121 0 209 82q-18 37 -19 84v727h320v-727q0 -68 22.5 -117t71.5 -49q53 0 84 49t31 117h106q0 -111 -62.5 -192t-158.5 -81q-213 0 -332 103q-115 -102 -272 -103q-207 0 -338 54q35 -281 147 -535h-350 z" />
<glyph unicode="&#x3bd;" horiz-adv-x="1359" d="M90 608q0 80 6 141.5t23.5 123t55.5 94t95.5 32.5t106.5 -24.5t92 -79.5t67.5 -93t65.5 -114l252 -467l137 80q80 47 126 130t46 179q0 39 -41 79t-78.5 59.5t-109.5 52.5l135 291q201 -92 201 -482q0 -125 -60.5 -232.5t-165.5 -168.5l-417 -240l-303 559 q-14 39 -2 100.5t33.5 120t4 101.5t-89.5 43q-20 0 -35.5 -19.5t-22.5 -43t-11 -68.5t-4 -74v-80h-107z" />
<glyph unicode="&#x3be;" horiz-adv-x="1259" d="M90 231q0 248 268 365q-182 78 -182 258q0 156 102.5 267.5t272.5 170.5q-63 88 -70 187h205q6 -78 45 -144q80 12 164 13q74 0 115 -2.5t96 -11.5t81.5 -32.5t26.5 -62.5q0 -37 -26.5 -60.5t-81.5 -32.5t-96 -11t-115 -2q-106 0 -201 45q-76 -53 -121 -139.5t-45 -184.5 q0 -125 138 -176q156 20 335 20v-170q-215 0 -319 7q-240 -98 -240 -304q0 -104 90.5 -168.5t212.5 -62.5q184 2 316.5 -65.5t132.5 -202.5q0 -100 -48 -172t-128 -72q-92 0 -160 63l74 78q35 -35 86 -35q70 0 69 138q0 166 -342 162q-127 -2 -236.5 13t-207.5 52 t-154.5 106.5t-56.5 165.5z" />
<glyph unicode="&#x3bf;" d="M63 483q0 221 162 368.5t406 147.5q233 0 394 -150.5t161 -369.5t-161 -364.5t-402.5 -145.5t-400.5 145.5t-159 368.5zM418 483q0 -408 207 -407q98 0 152 105.5t54 299.5q0 412 -204 412q-209 0 -209 -410z" />
<glyph unicode="&#x3c0;" horiz-adv-x="1630" d="M90 645q0 166 60.5 285t181.5 119q123 0 379 -32t387 -30q180 4 348 55l94 -307q-150 -43 -280 -57v-381q0 -96 78.5 -158.5t187.5 -62.5v-107q-113 0 -212.5 17.5t-186.5 53.5t-137 102.5t-50 154.5v377q-106 8 -330 37v-267q0 -205 -135 -351t-332 -146v205 q145 0 253 81.5t108 210.5v277q-115 8 -172 8q-55 0 -95 -21.5t-40 -62.5h-107z" />
<glyph unicode="&#x3c1;" horiz-adv-x="1464" d="M90 473q0 229 191.5 377.5t451.5 148.5q258 0 449.5 -148.5t191.5 -377.5q0 -223 -190.5 -363.5t-450.5 -140.5q-135 0 -254 39q8 -119 8 -178q0 -207 -51 -342h-340q72 193 72 342q0 109 -39 321.5t-39 321.5zM442 473q0 -119 25 -348q127 -49 266 -49q131 0 210 117.5 t79 279.5q0 170 -78 295t-211 125q-135 0 -213 -125t-78 -295z" />
<glyph unicode="&#x3c2;" horiz-adv-x="1116" d="M90 567q0 133 87 233.5t222.5 149.5t290.5 49q80 0 124 -2t107.5 -18t104.5 -47l-127 -160q-156 121 -209 121q-121 0 -200.5 -96.5t-79.5 -229.5q0 -104 43 -193t127 -138l247 -144q162 -98 162 -219q0 -76 -56 -129t-134 -53q-195 0 -353 116l66 87q125 -96 287 -97 q35 0 59.5 21.5t24.5 54.5q0 27 -19.5 53.5t-38 40t-55.5 35.5q-29 18 -244 141l-122 73q-42 26 -112.5 75t-106 87t-65.5 89t-30 100z" />
<glyph unicode="&#x3c3;" horiz-adv-x="1347" d="M90 483q0 221 162 368.5t405 147.5q43 0 82 -6q164 18 453 146l65 -146q-123 -55 -296 -75q117 -70 184 -186t67 -253q0 -219 -160.5 -364.5t-402 -145.5t-400.5 145.5t-159 368.5zM444 483q0 -408 207 -407q98 0 152.5 105.5t54.5 299.5q0 412 -205 412 q-209 0 -209 -410z" />
<glyph unicode="&#x3c4;" horiz-adv-x="1366" d="M90 645q0 166 60.5 285t181.5 119q39 0 350 -66q240 -47 467 51l127 -291q-203 -90 -432 -94v-407q0 -68 30.5 -117t83.5 -49q57 0 94.5 49t37.5 117h106q0 -111 -68.5 -192t-169.5 -81q-178 0 -306 70t-128 203v452q-121 35 -192 35q-55 0 -95 -21.5t-40 -62.5h-107z " />
<glyph unicode="&#x3c5;" horiz-adv-x="1413" d="M90 727q0 109 53.5 190.5t143.5 81.5q152 0 262 -74.5t110 -197.5q0 -68 -7 -203t-7 -200q0 -100 47 -174t127 -74q168 0 283 129t115 307q0 182 -314 283l94 303q164 -51 245 -214t81 -372q0 -221 -146.5 -382t-357.5 -161q-137 0 -253.5 38t-194.5 121t-78 196 q0 68 23.5 200.5t23.5 202.5q0 39 -1 59.5t-5 50t-16.5 43t-30.5 13.5q-90 0 -90 -166h-107z" />
<glyph unicode="&#x3c6;" horiz-adv-x="1714" d="M90 485q0 299 449 510l45 -98q-41 -18 -69 -54t-42 -71t-21.5 -93t-8.5 -93t-1 -101q0 -133 77 -238.5t200 -148.5q-20 348 -21 414q0 201 131.5 344t323.5 143q199 0 335 -151.5t136 -362.5q0 -205 -164 -335t-416 -166l5 -111q0 -238 -74 -385h-359q113 221 113 385 l-4 102q-270 29 -452.5 162t-182.5 348zM1018 512q0 -133 20 -395q104 49 169 148.5t65 219.5q0 74 -1 115t-7.5 105.5t-17.5 98.5t-34.5 61.5t-58.5 27.5q-47 0 -76.5 -31t-42 -98.5t-14.5 -114.5t-2 -137z" />
<glyph unicode="&#x3c7;" horiz-adv-x="1341" d="M90 653q0 131 53.5 226.5t153.5 95.5q45 0 85 -28.5t78 -90t59.5 -102.5t58.5 -121l94 -213q190 303 190 549h320q0 -145 -60.5 -299t-144.5 -274l-176 -263l151 -332q37 -84 183 -84q43 0 71.5 35t28.5 82h106q0 -131 -53 -226t-153 -95q-168 0 -281 243l-121 269 q-164 -276 -164 -506h-319q0 106 31.5 215.5t82 201t114 190.5t126.5 187l-125 275q-37 84 -79 133t-103 49q-43 0 -71.5 -35t-28.5 -82h-107z" />
<glyph unicode="&#x3c8;" horiz-adv-x="1601" d="M90 727q0 109 53.5 190.5t143.5 81.5q152 0 262 -74.5t110 -197.5q0 -68 -7 -203t-7 -200q0 -74 42 -131.5t112 -88.5v381q0 492 -107 994h320q-106 -487 -107 -994v-407q8 -2 27 -2q195 0 334 126t139 310q0 182 -313 283l94 303q164 -51 244.5 -214t80.5 -372 q0 -227 -171 -385t-408 -158h-27v-481h-106v487q-221 18 -363.5 103.5t-142.5 245.5q0 68 23.5 200.5t23.5 202.5q0 39 -1 59.5t-5 50t-16.5 43t-30.5 13.5q-90 0 -90 -166h-107z" />
<glyph unicode="&#x3c9;" horiz-adv-x="1728" d="M90 496q0 174 130 308t329 214l41 -98q-180 -72 -180 -424q0 -420 200 -420q145 0 185 237q-33 137 -33 332h205q0 -86 1 -132t5 -126t13 -124t25.5 -93t43 -71.5t63.5 -22.5q201 0 201 420q0 352 -180 424l41 98q199 -80 328.5 -214t129.5 -308q0 -217 -152.5 -372 t-367.5 -155q-178 0 -266 181q-84 -180 -242 -181q-215 0 -367.5 155t-152.5 372z" />
<glyph unicode="&#x3d1;" horiz-adv-x="1579" d="M90 727q0 111 59.5 191.5t153.5 80.5q145 0 250.5 -75.5t105.5 -196.5q0 -70 -22.5 -203t-22.5 -200q0 -100 50.5 -174t134.5 -74q43 0 75.5 25.5t52 81t32 106.5t16.5 142t5 144.5t1 151.5l-2 193q-246 25 -365 200q-84 129 -36.5 259t174.5 130q193 0 332 -131 t204 -340q74 10 176 35l25 -102q-84 -20 -176 -37q20 -96 20 -207q0 -197 -60.5 -367t-184 -280.5t-289.5 -110.5q-219 0 -378 93.5t-159 261.5q0 68 39 200.5t39 202.5q0 166 -37 166q-51 0 -78.5 -49t-27.5 -117h-107zM669.5 1330q-16.5 -73 35.5 -150q84 -127 268 -152 q-27 375 -221 375q-66 0 -82.5 -73z" />
<glyph unicode="&#x3d5;" horiz-adv-x="1302" d="M90 483q0 203 138.5 346.5t355.5 165.5l-35 484h205l-35 -482q211 -23 352 -169t141 -349q0 -205 -142 -347t-363 -161v-483h-111v483q-221 16 -363.5 159.5t-142.5 352.5zM444 483q0 -346 152 -399v401l-8 396q-144 -60 -144 -398zM707 86q152 57 151 395 q0 344 -143 402l-8 -398v-399z" />
<glyph unicode="&#x3d6;" horiz-adv-x="1728" d="M90 496q0 174 130 308t329 214l41 -98q-180 -72 -180 -424q0 -420 200 -420q145 0 185 237q-33 137 -33 332h205q0 -86 1 -132t5 -126t13 -124t25.5 -93t43 -71.5t63.5 -22.5q201 0 201 420q0 143 -17.5 264t-57.5 230.5t-116.5 172t-185.5 62.5q-289 0 -584 -54l-20 105 q301 55 604 55q199 0 360.5 -117.5t248.5 -308t87 -409.5q0 -217 -152.5 -372t-367.5 -155q-178 0 -266 181q-84 -180 -242 -181q-215 0 -367.5 155t-152.5 372z" />
<glyph unicode="&#x3f5;" horiz-adv-x="1202" d="M90 514q0 164 121 277.5t296 160.5t384 47h156v-106h-156q-174 0 -304 -99.5t-143 -252.5q49 6 123 29l124 39q50 15 123 20.5t120 -23.5l-88 -186q-43 20 -97.5 27.5t-95.5 4.5t-106.5 -9.5t-100.5 -8.5q16 -154 91 -256t196 -102q82 0 248 139l131 -160 q-49 -39 -118.5 -59.5t-122 -23.5t-138.5 -3q-260 0 -451.5 154.5t-191.5 390.5z" />
<glyph unicode="&#x400;" horiz-adv-x="1554" d="M33 0v111h30q143 0 168 30q10 12 12.5 34t2.5 120v889q0 98 -2 119.5t-13 33.5q-25 31 -168 31h-30v111h1374l12 -533h-106q-49 172 -119 271q-111 152 -346 151h-57q-123 0 -156 -45q-20 -31 -21 -131v-371h35q121 0 193.5 75t89.5 216h110v-694h-110q-16 141 -89 216 t-194 75h-35v-455q0 -84 33 -115q18 -18 47 -23t105 -5h61q186 0 301 105.5t178 334.5h109l-25 -551h-1390zM487 1968q0 43 34 73t83 30q51 0 98 -37q12 -8 60 -68l231 -283h-131l-301 179q-74 43 -74 106z" />
<glyph unicode="&#x401;" horiz-adv-x="1554" d="M33 0v111h30q143 0 168 30q10 12 12.5 34t2.5 120v889q0 98 -2 119.5t-13 33.5q-25 31 -168 31h-30v111h1374l12 -533h-106q-49 172 -119 271q-111 152 -346 151h-57q-123 0 -156 -45q-20 -31 -21 -131v-371h35q121 0 193.5 75t89.5 216h110v-694h-110q-16 141 -89 216 t-194 75h-35v-455q0 -84 33 -115q18 -18 47 -23t105 -5h61q186 0 301 105.5t178 334.5h109l-25 -551h-1390zM428 1777.5q0 59.5 43 101.5t102 42q57 0 100.5 -43t43.5 -100q0 -61 -43 -103.5t-102.5 -42.5t-101.5 43t-42 102.5zM868 1777.5q0 59.5 43 101.5t102.5 42 t101.5 -43t42 -100q0 -61 -43 -103.5t-102.5 -42.5t-101.5 43t-42 102.5z" />
<glyph unicode="&#x402;" horiz-adv-x="1884" d="M31 924l30 555h1356l31 -555h-109q-41 223 -120 327q-94 121 -222 121q-45 0 -59 -15.5t-14 -68.5v-444h229q645 0 645 -432q0 -115 -54 -205t-153 -135q-156 -72 -436 -72h-829v111h45q145 0 170 30q10 12 12 34t2 120v993q0 53 -14.5 68.5t-59.5 15.5q-141 0 -237 -145 q-70 -100 -105 -303h-108zM924 236q0 -76 21.5 -99.5t90.5 -23.5h82q145 0 215 71.5t70 225.5q0 176 -81 248.5t-280 72.5h-118v-495z" />
<glyph unicode="&#x403;" horiz-adv-x="1507" d="M45 0v111h31q143 0 168 30q10 12 11 29.5t1 124.5v887v76q0 28 -1 44.5t-3 22.5t-8 12q-25 31 -168 31h-31v111h1372l25 -551h-109q-55 193 -133 286q-129 154 -346 154h-43q-76 0 -104.5 -5t-47.5 -24q-33 -31 -32 -114v-930q0 -98 2 -119.5t12 -34.5q25 -31 170 -30h45 v-111h-811zM393 1597l232 283q53 66 82.5 85.5t74.5 19.5q49 0 83 -30t34 -73q0 -63 -74 -106l-301 -179h-131z" />
<glyph unicode="&#x404;" horiz-adv-x="1593" d="M82 721q0 344 218 566t556 222q109 0 191.5 -23.5t183.5 -84.5l110 100h89l20 -586l-109 -12q-70 256 -184.5 378t-284.5 122q-365 0 -383 -586h535v-123h-535q8 -305 109.5 -451.5t300.5 -146.5q176 0 295 117t160 330l127 -31q-59 -274 -218 -408.5t-432 -134.5 q-350 0 -555 226q-194 215 -194 526z" />
<glyph unicode="&#x405;" horiz-adv-x="1366" d="M104 565h105q84 -231 228.5 -360t318.5 -129q133 0 214 65.5t81 173.5q0 115 -90 164q-57 31 -222 62l-127 24q-242 45 -374 172t-132 316q0 205 146.5 330.5t384.5 125.5q205 0 369 -110l106 94h92l27 -530h-109q-182 440 -504 440q-121 0 -198.5 -60.5t-77.5 -154.5 q0 -127 139 -176q51 -18 209 -49l98 -23q266 -59 387 -174t121 -309q0 -215 -150.5 -351.5t-389.5 -136.5q-238 0 -420 137l-127 -120h-92z" />
<glyph unicode="&#x406;" horiz-adv-x="909" d="M57 0v111h31q143 0 168 30q10 12 12 34t2 120v889q0 98 -2 119.5t-12 33.5q-25 31 -168 31h-31v111h797v-111h-31q-145 0 -170 -31q-10 -12 -12 -32.5t-2 -120.5v-889q0 -100 2 -120.5t12 -33.5q25 -31 170 -30h31v-111h-797z" />
<glyph unicode="&#x407;" horiz-adv-x="909" d="M57 0v111h31q143 0 168 30q10 12 12 34t2 120v889q0 98 -2 119.5t-12 33.5q-25 31 -168 31h-31v111h797v-111h-31q-145 0 -170 -31q-10 -12 -12 -32.5t-2 -120.5v-889q0 -100 2 -120.5t12 -33.5q25 -31 170 -30h31v-111h-797zM92 1777.5q0 59.5 43 101.5t103 42 q57 0 100 -43t43 -100q0 -61 -43 -103.5t-102.5 -42.5t-101.5 43t-42 102.5zM532 1777.5q0 59.5 43 101.5t102.5 42t101.5 -43t42 -100q0 -61 -43 -103.5t-102.5 -42.5t-101.5 43t-42 102.5z" />
<glyph unicode="&#x408;" horiz-adv-x="1327" d="M8 373q0 131 72 217t182 86q92 0 151.5 -59.5t59.5 -149.5q0 -84 -53 -138.5t-135 -54.5q-23 0 -49 7q-20 4 -25 4q-39 0 -39 -39q0 -59 72.5 -105.5t169.5 -46.5q80 0 148.5 33t107.5 88q55 84 55 287v682q0 100 -2 120.5t-12 32.5q-25 31 -168 31h-31v111h797v-111h-31 q-145 0 -170 -31q-10 -12 -12 -32.5t-2 -120.5v-611q0 -182 -42 -291.5t-139 -187.5q-156 -125 -409 -125q-229 0 -362.5 108t-133.5 296z" />
<glyph unicode="&#x409;" horiz-adv-x="2529" d="M8 283q2 106 58.5 158.5t148.5 50.5q100 -2 151.5 -51.5t49.5 -116.5q-2 -72 -30 -92.5t-63.5 -21.5t-46.5 -22q-16 -33 16 -55t83 -22q84 0 139 102t76.5 241.5t21.5 303.5v424q0 61 -7 97t-10 40t-15 18q-25 31 -168 31h-31v111h1403v-111h-31q-145 0 -170 -31 q-10 -12 -12 -33.5t-2 -119.5v-340h229q645 0 645 -432q0 -115 -54 -205t-153 -135q-156 -72 -436 -72h-813v111h31q133 0 158 30q25 29 24 154v1061h-237q-115 0 -121 -172v-418q-6 -799 -516 -799q-145 0 -230.5 91.5t-87.5 224.5zM1569 236q0 -76 21.5 -99.5t90.5 -23.5 h82q145 0 215 71.5t70 225.5q0 176 -81 248.5t-279 72.5h-119v-495z" />
<glyph unicode="&#x40a;" horiz-adv-x="2486" d="M41 0v111h31q143 0 168 30q10 12 12 34t2 120v887q0 100 -2 121.5t-12 33.5q-25 31 -168 31h-31v111h797v-111h-31q-145 0 -170 -31q-10 -12 -12 -33.5t-2 -121.5v-365h534v365q0 100 -2 121.5t-12 33.5q-25 31 -168 31h-31v111h797v-111h-31q-145 0 -170 -31 q-10 -12 -12 -33.5t-2 -119.5v-340h229q645 0 645 -432q0 -115 -54 -205t-153 -135q-156 -72 -436 -72h-813v111h31q143 0 168 30q10 12 12 34t2 120v399h-534v-399q0 -100 2 -120.5t12 -33.5q25 -31 170 -30h31v-111h-797zM1526 236q0 -76 21.5 -99.5t90.5 -23.5h82 q145 0 215 71.5t70 225.5q0 176 -81 248.5t-279 72.5h-119v-495z" />
<glyph unicode="&#x40b;" horiz-adv-x="1478" d="M31 924l30 555h1356l31 -555h-109q-41 223 -120 327q-94 121 -222 121q-45 0 -59 -15.5t-14 -68.5v-624q72 88 185.5 138t231.5 50q166 0 252 -98q78 -84 78 -265v-194v-94q0 -63 27.5 -80t126.5 -17h8v-104h-625v104q90 0 116 17.5t26 77.5v96v166q0 201 -146 201 q-61 0 -139 -36t-111 -85q-31 -49 -30 -195v-51q0 -98 2 -119.5t12 -34.5q25 -31 170 -30h45v-111h-827v111h45q145 0 170 30q10 12 12 34t2 120v993q0 53 -14.5 68.5t-59.5 15.5q-141 0 -237 -145q-70 -100 -105 -303h-108z" />
<glyph unicode="&#x40c;" horiz-adv-x="1605" d="M41 0v111h31q143 0 168 30q10 12 11 29.5t1 124.5v889v77q0 28 -1 43t-3 21t-8 12q-25 31 -168 31h-31v111h797v-111h-31q-145 0 -170 -31q-10 -12 -12 -33.5t-2 -119.5v-346l84 -2q82 0 134 28.5t71.5 75.5t31.5 107.5t14.5 124t19.5 124t46 107.5t97.5 75.5t170.5 28.5 q66 0 117 -16t79 -40t44 -54.5t20 -54t2 -44.5q-4 -59 -38.5 -107t-88.5 -48q-164 0 -163 102q-2 29 -3 56.5t11 46t37 16.5l6 8q8 10 -5.5 19.5t-54.5 9.5q-39 0 -55 -91t-19 -204t-43 -220.5t-124 -135.5q100 -10 164.5 -61.5t88 -120t37 -146.5t13.5 -143.5t15.5 -108.5 t45.5 -43q39 0 48.5 46t13.5 159h172q0 -117 -28 -195t-78 -111.5t-97 -46t-109 -12.5q-172 0 -233 73t-61 189q-2 100 -30 188.5t-99.5 159t-178.5 72.5h-75v-354q0 -98 2 -119.5t12 -34.5q25 -31 170 -30h31v-111h-797zM393 1597l232 283q53 66 82.5 85.5t74.5 19.5 q49 0 83 -30t34 -73q0 -63 -74 -106l-301 -179h-131z" />
<glyph unicode="&#x40d;" horiz-adv-x="1781" d="M41 0v111h31q143 0 168 30q10 12 12 34t2 120v887q0 100 -2 121.5t-12 33.5q-25 31 -168 31h-31v111h797v-111h-31q-145 0 -170 -31q-10 -12 -12 -33.5t-2 -121.5v-645l534 581v64q0 100 -2 121.5t-12 33.5q-25 31 -168 31h-31v111h797v-111h-31q-145 0 -170 -31 q-10 -12 -12 -33.5t-2 -121.5v-887q0 -100 2 -120.5t12 -33.5q25 -31 170 -30h31v-111h-797v111h31q143 0 168 30q10 12 12 34t2 120v618l-534 -581v-37q0 -100 2 -120.5t12 -33.5q25 -31 170 -30h31v-111h-797zM639 1968q0 43 34 73t83 30q51 0 98 -37q12 -8 59 -68 l232 -283h-131l-301 179q-74 43 -74 106z" />
<glyph unicode="&#x40e;" horiz-adv-x="1505" d="M-25 1368v111h734v-111q-158 0 -158 -59q0 -37 20 -78l269 -510l219 412q43 70 43 145q0 49 -41 69.5t-139 20.5v111h610v-111q-186 -14 -281 -158l-522 -985q-90 -164 -140 -202.5t-161 -40.5q-102 -2 -179 62.5t-77 162.5q0 84 41 131t102 47q68 0 106 -35t38 -98 q0 -25 -7.5 -42t-17.5 -24.5l-20 -15.5q-2 -2 -8 -4q-16 -10 -17 -23q0 -39 53 -39q29 0 54.5 13.5t46 43t33 51t32 63.5l25.5 55l-481 934q-33 61 -68 80.5t-109 23.5zM498 1960h108q20 -168 215 -168q193 0 213 168h109q0 -162 -85 -252t-238.5 -90t-237.5 89t-84 253z " />
<glyph unicode="&#x40f;" horiz-adv-x="1781" d="M41 0v111h31q145 0 170 30q6 6 8 12.5t3 23t1 43.5v77v887v77q0 28 -1 43t-3 21t-8 12q-25 31 -170 31h-31v111h797v-111h-31q-143 0 -168 -31q-10 -12 -12 -33.5t-2 -119.5v-1061h534v1061q0 100 -2 120.5t-12 32.5q-25 31 -170 31h-31v111h797v-111h-31 q-143 0 -168 -31q-10 -12 -12 -33.5t-2 -119.5v-887q0 -100 2 -121.5t12 -34.5q25 -31 168 -30h31v-111h-1700z" />
<glyph unicode="&#x410;" horiz-adv-x="1554" d="M-37 0v111q90 10 155.5 78.5t135.5 234.5l465 1085h155l527 -1269q33 -78 68.5 -101.5t123.5 -27.5v-111h-719v111l35 2q68 0 93.5 10t25.5 38.5t-24 84.5l-78 200h-510l-33 -77q-33 -74 -33 -117q0 -70 47 -102.5t158 -38.5v-111h-592zM469 584h405l-198 489z" />
<glyph unicode="&#x411;" horiz-adv-x="1593" d="M35 0v111h31q143 0 167 30q10 12 12.5 34t2.5 120v889q0 100 -2 120.5t-13 34.5q-27 29 -167 29h-31v111h1376l25 -551h-109q-55 193 -133 286q-129 154 -346 154h-43q-76 0 -104.5 -5t-47.5 -24q-37 -35 -37 -114v-410l52 10q53 10 88 11q369 0 560 -101.5t191 -347.5 q0 -227 -217 -326q-143 -61 -426 -61h-829zM616 242q0 -74 7 -90q18 -41 118 -41h62q143 0 217 61q96 80 96 238q0 168 -112 243q-113 72 -246 70q-37 0 -90 -10l-52 -11v-460z" />
<glyph unicode="&#x412;" horiz-adv-x="1593" d="M35 0v111h31q143 0 167 30q10 12 12.5 34t2.5 120v889q0 100 -2 120.5t-13 34.5q-27 29 -167 29h-31v111h790q184 0 276.5 -16.5t176.5 -65.5q76 -41 119 -117t43 -164q0 -190 -189 -280q-74 -35 -215 -58q143 -18 238 -63q233 -104 233 -328q0 -102 -59 -191.5 t-158 -134.5q-143 -61 -426 -61h-829zM616 242q0 -74 7 -90q18 -41 118 -41h62q143 0 217 61q96 80 96 238q0 168 -112 243q-76 49 -246 49h-142v-460zM616 815h101q176 0 252 62q100 78 100 231q0 127 -70.5 193.5t-205.5 66.5h-62q-61 0 -90 -27q-25 -20 -25 -92v-434z " />
<glyph unicode="&#x413;" horiz-adv-x="1507" d="M45 0v111h31q143 0 168 30q10 12 11 29.5t1 124.5v887v76q0 28 -1 44.5t-3 22.5t-8 12q-25 31 -168 31h-31v111h1372l25 -551h-109q-55 193 -133 286q-129 154 -346 154h-43q-76 0 -104.5 -5t-47.5 -24q-33 -31 -32 -114v-930q0 -98 2 -119.5t12 -34.5q25 -31 170 -30h45 v-111h-811z" />
<glyph unicode="&#x414;" horiz-adv-x="1714" d="M25 -455l32 566h174q84 0 139.5 102t77 241.5t21.5 303.5v424q0 61 -7 97t-10 40t-16 18q-25 31 -168 31h-30v111h1402v-111h-30q-145 0 -170 -31q-6 -6 -8 -12t-3.5 -22.5t-1.5 -44.5v-76v-887q0 -100 2.5 -120.5t12.5 -33.5q25 -31 168 -30h30l33 -566h-108 q-29 147 -97.5 256t-167.5 158q-80 41 -266 41h-370q-186 0 -267 -41q-98 -49 -166.5 -157.5t-97.5 -256.5h-108zM574 164q1 -12 5.5 -18.5t20.5 -10.5t24.5 -5t28.5 -1h221q133 0 158 31l14 13q5 5 8 32.5t3 89.5v1053h-238q-59 0 -89 -38t-32 -128v-416q-2 -377 -114 -571 q-11 -19 -10 -31z" />
<glyph unicode="&#x415;" horiz-adv-x="1554" d="M33 0v111h30q143 0 168 30q10 12 12.5 34t2.5 120v889q0 98 -2 119.5t-13 33.5q-25 31 -168 31h-30v111h1374l12 -533h-106q-49 172 -119 271q-111 152 -346 151h-57q-123 0 -156 -45q-20 -31 -21 -131v-371h35q121 0 193.5 75t89.5 216h110v-694h-110q-16 141 -89 216 t-194 75h-35v-455q0 -84 33 -115q18 -18 47 -23t105 -5h61q186 0 301 105.5t178 334.5h109l-25 -551h-1390z" />
<glyph unicode="&#x416;" horiz-adv-x="2371" d="M29 332h172q2 -25 2 -47.5t2 -43t4 -38t6 -31.5t10 -24.5t15.5 -15.5t21.5 -5q31 0 46.5 43t15.5 108.5t13 143.5t36.5 146.5t88 119.5t165.5 62q-84 29 -124 136t-43 220t-19.5 204t-55.5 91q-41 0 -54.5 -9.5t-6.5 -19.5l8 -8q25 2 37 -16.5t11 -46t-3 -56.5 q0 -102 -164 -102q-53 0 -88 48t-39 107q-2 20 2 44t20.5 54.5t44 54.5t79 40t116.5 16q102 0 171 -28.5t97.5 -75.5t46 -107.5t19.5 -124t14.5 -124t32 -107.5t71.5 -75.5t134 -28.5l84 2v346v77q0 28 -1 43t-3 21t-8 12q-25 31 -168 31h-31v111h797v-111h-31 q-145 0 -170 -31q-10 -12 -12 -33.5t-2 -119.5v-346l84 -2q82 0 134 28.5t71.5 75.5t31.5 107.5t14 124t19.5 124t46.5 107.5t97.5 75.5t170.5 28.5q66 0 117 -16t78.5 -40t44 -54.5t20.5 -54t2 -44.5q-4 -59 -38.5 -107t-88.5 -48q-164 0 -163 102q-2 29 -3.5 56.5t11 46 t37.5 16.5l6 8q8 10 -5.5 19.5t-54.5 9.5q-39 0 -55 -91t-19 -204t-43 -220.5t-124 -135.5q100 -10 164.5 -61.5t88 -120t37 -146.5t13.5 -143.5t15.5 -108.5t45.5 -43q39 0 48.5 46t13.5 159h172q0 -117 -28 -195t-78 -111.5t-97 -46t-109 -12.5q-172 0 -233 73t-61 189 q-2 100 -30 188.5t-99.5 159t-178.5 72.5h-75v-354q0 -98 2 -119.5t12 -34.5q25 -31 170 -30h31v-111h-797v111h31q143 0 168 30q10 12 11 29.5t1 124.5v354h-76q-106 -2 -178 -72.5t-99.5 -158.5t-29.5 -189q0 -117 -61.5 -189.5t-233.5 -72.5q-61 0 -108.5 12.5t-97.5 46 t-77.5 111.5t-27.5 195z" />
<glyph unicode="&#x417;" horiz-adv-x="1366" d="M49 426q0 164 144 164q63 0 104 -38t41 -85q0 -61 -55 -107q-23 -18 -60 -14q-6 2 -13 6t-9 4q-18 0 -29.5 -12t-5.5 -31q0 -74 48 -123t125 -69.5t132 -26.5t111 -6q164 0 266 83t102 247q0 111 -95 190.5t-216 79.5h-184v166h178q156 0 236.5 78t80.5 194 q0 135 -74.5 207t-199.5 70q-86 0 -150.5 -19.5t-111.5 -51.5t-89 -91t-72 -119.5t-71 -158.5h-108l26 530h93l106 -94q164 111 369 110q244 0 401.5 -113.5t157.5 -312.5q0 -88 -55.5 -189t-131.5 -124q94 -12 167 -113.5t73 -226.5q0 -113 -42 -198t-107.5 -134 t-161 -78.5t-185.5 -40t-200 -10.5q-229 0 -381 113t-154 344z" />
<glyph unicode="&#x418;" horiz-adv-x="1781" d="M41 0v111h31q143 0 168 30q10 12 12 34t2 120v887q0 100 -2 121.5t-12 33.5q-25 31 -168 31h-31v111h797v-111h-31q-145 0 -170 -31q-10 -12 -12 -33.5t-2 -121.5v-645l534 581v64q0 100 -2 121.5t-12 33.5q-25 31 -168 31h-31v111h797v-111h-31q-145 0 -170 -31 q-10 -12 -12 -33.5t-2 -121.5v-887q0 -100 2 -120.5t12 -33.5q25 -31 170 -30h31v-111h-797v111h31q143 0 168 30q10 12 12 34t2 120v618l-534 -581v-37q0 -100 2 -120.5t12 -33.5q25 -31 170 -30h31v-111h-797z" />
<glyph unicode="&#x419;" horiz-adv-x="1781" d="M41 0v111h31q143 0 168 30q10 12 12 34t2 120v887q0 100 -2 121.5t-12 33.5q-25 31 -168 31h-31v111h797v-111h-31q-145 0 -170 -31q-10 -12 -12 -33.5t-2 -121.5v-645l534 581v64q0 100 -2 121.5t-12 33.5q-25 31 -168 31h-31v111h797v-111h-31q-145 0 -170 -31 q-10 -12 -12 -33.5t-2 -121.5v-887q0 -100 2 -120.5t12 -33.5q25 -31 170 -30h31v-111h-797v111h31q143 0 168 30q10 12 12 34t2 120v618l-534 -581v-37q0 -100 2 -120.5t12 -33.5q25 -31 170 -30h31v-111h-797zM565 1960h109q20 -168 215 -168q193 0 213 168h108 q0 -162 -85 -252t-238.5 -90t-237.5 89t-84 253z" />
<glyph unicode="&#x41a;" horiz-adv-x="1605" d="M41 0v111h31q143 0 168 30q10 12 11 29.5t1 124.5v889v77q0 28 -1 43t-3 21t-8 12q-25 31 -168 31h-31v111h797v-111h-31q-145 0 -170 -31q-10 -12 -12 -33.5t-2 -119.5v-346l84 -2q82 0 134 28.5t71.5 75.5t31.5 107.5t14.5 124t19.5 124t46 107.5t97.5 75.5t170.5 28.5 q66 0 117 -16t79 -40t44 -54.5t20 -54t2 -44.5q-4 -59 -38.5 -107t-88.5 -48q-164 0 -163 102q-2 29 -3 56.5t11 46t37 16.5l6 8q8 10 -5.5 19.5t-54.5 9.5q-39 0 -55 -91t-19 -204t-43 -220.5t-124 -135.5q100 -10 164.5 -61.5t88 -120t37 -146.5t13.5 -143.5t15.5 -108.5 t45.5 -43q39 0 48.5 46t13.5 159h172q0 -117 -28 -195t-78 -111.5t-97 -46t-109 -12.5q-172 0 -233 73t-61 189q-2 100 -30 188.5t-99.5 159t-178.5 72.5h-75v-354q0 -98 2 -119.5t12 -34.5q25 -31 170 -30h31v-111h-797z" />
<glyph unicode="&#x41b;" horiz-adv-x="1824" d="M8 283q2 106 58.5 158.5t148.5 50.5q164 -2 164 -144q0 -49 -16.5 -78.5t-35 -39t-35 -21.5t-16.5 -31q0 -68 99 -67q84 0 139 102t76.5 241.5t21.5 303.5v424q0 61 -7 97t-10 40t-15 18q-25 31 -168 31h-31v111h1403v-111h-31q-145 0 -170 -31q-6 -6 -8 -12t-3 -22.5 t-1 -44.5v-76v-887v-77q0 -28 1 -43t3 -21.5t8 -12.5q25 -31 170 -30h31v-111h-797v111h31q133 0 158 30q25 29 24 154v1061h-237q-115 0 -121 -172v-418q-6 -799 -516 -799q-145 0 -230.5 91.5t-87.5 224.5z" />
<glyph unicode="&#x41c;" horiz-adv-x="2039" d="M41 0v111q119 2 168 55q33 35 43 89t10 189v740q0 98 -2 119.5t-12 33.5q-25 31 -170 31h-23v111h660l317 -881l299 881h668v-111h-23q-145 0 -170 -31q-10 -12 -12 -33.5t-2 -119.5v-889q0 -98 2 -119.5t12 -34.5q25 -31 170 -30h23v-111h-782v111h22q145 0 170 30 q10 12 12 34t2 120v1022l-452 -1317h-107l-465 1296v-852q0 -137 10.5 -190t43.5 -88q49 -51 172 -55v-111h-584z" />
<glyph unicode="&#x41d;" horiz-adv-x="1781" d="M41 0v111h31q143 0 168 30q10 12 12 34t2 120v887q0 100 -2 121.5t-12 33.5q-25 31 -168 31h-31v111h797v-111h-31q-145 0 -170 -31q-10 -12 -12 -33.5t-2 -121.5v-365h534v365q0 100 -2 121.5t-12 33.5q-25 31 -168 31h-31v111h797v-111h-31q-145 0 -170 -31 q-10 -12 -12 -33.5t-2 -121.5v-887q0 -100 2 -120.5t12 -33.5q25 -31 170 -30h31v-111h-797v111h31q143 0 168 30q10 12 12 34t2 120v399h-534v-399q0 -100 2 -120.5t12 -33.5q25 -31 170 -30h31v-111h-797z" />
<glyph unicode="&#x41e;" horiz-adv-x="1705" d="M80 717q0 180 72.5 344t201.5 274q199 174 500 174q297 0 498 -174q127 -109 200.5 -273.5t73.5 -342.5q0 -369 -274 -590q-203 -160 -508 -160q-334 0 -549 211t-215 537zM489 755.5q0 -325.5 105 -522.5q84 -158 262 -157q176 0 268.5 165t92.5 476q0 338 -105 528 q-90 158 -256 158q-176 0 -262 -146q-105 -176 -105 -501.5z" />
<glyph unicode="&#x41f;" horiz-adv-x="1781" d="M41 0v111h31q143 0 168 30q10 12 12 34t2 120v887q0 100 -2 121.5t-12 33.5q-25 31 -168 31h-31v111h1700v-111h-31q-145 0 -170 -31q-6 -6 -8 -12t-3 -22.5t-1 -44.5v-76v-887v-77q0 -28 1 -43t3 -21.5t8 -12.5q25 -31 170 -30h31v-111h-797v111h31q143 0 168 30 q10 12 12 34t2 120v1061h-534v-1061q0 -100 2 -120.5t12 -33.5q25 -31 170 -30h31v-111h-797z" />
<glyph unicode="&#x420;" horiz-adv-x="1554" d="M49 0v111h31q141 0 168 28q10 14 12 35t2 121v887q0 100 -2 120.5t-12 34.5q-27 29 -168 29h-31v113h813q281 0 436 -72q98 -45 152.5 -135t54.5 -205q0 -432 -645 -432h-229v-340q0 -100 2 -120.5t12 -35.5q27 -29 170 -28h45v-111h-811zM631 748h119q199 0 279.5 72.5 t80.5 248.5q0 154 -69.5 225.5t-215.5 71.5h-82q-70 0 -91 -23.5t-21 -99.5v-495z" />
<glyph unicode="&#x421;" horiz-adv-x="1593" d="M82 721q0 344 218 566t556 222q109 0 191.5 -23.5t183.5 -84.5l110 100h89l20 -586l-109 -12q-70 256 -184.5 378t-284.5 122q-188 0 -285.5 -164t-97.5 -481q0 -338 100.5 -500t309.5 -162q176 0 295 117t160 330l127 -31q-59 -274 -218 -408.5t-432 -134.5 q-350 0 -555 226q-194 215 -194 526z" />
<glyph unicode="&#x422;" horiz-adv-x="1478" d="M31 924l30 555h1356l31 -555h-109q-41 223 -120 327q-94 121 -222 121q-45 0 -59 -15.5t-14 -68.5v-993q0 -98 2 -119.5t12 -34.5q25 -31 170 -30h45v-111h-827v111h45q145 0 170 30q10 12 12 34t2 120v993q0 53 -14.5 68.5t-59.5 15.5q-141 0 -237 -145 q-70 -100 -105 -303h-108z" />
<glyph unicode="&#x423;" horiz-adv-x="1505" d="M-25 1368v111h734v-111q-158 0 -158 -59q0 -37 20 -78l269 -510l219 412q43 70 43 145q0 49 -41 69.5t-139 20.5v111h610v-111q-186 -14 -281 -158l-522 -985q-90 -164 -140 -202.5t-161 -40.5q-102 -2 -179 62.5t-77 162.5q0 84 41 131t102 47q68 0 106 -35t38 -98 q0 -25 -7.5 -42t-17.5 -24.5l-20 -15.5q-2 -2 -8 -4q-16 -10 -17 -23q0 -39 53 -39q29 0 54.5 13.5t46 43t33 51t32 63.5l25.5 55l-481 934q-33 61 -68 80.5t-109 23.5z" />
<glyph unicode="&#x424;" horiz-adv-x="1921" d="M29 770q0 102 29.5 185t79.5 135.5t113.5 94.5t131.5 61.5t134.5 34.5t119.5 14t89 3.5t44 -0.5v29q0 68 -16 86q-25 31 -168 31h-31v110h797v-110h-31q-145 0 -170 -31q-12 -14 -12 -86v-29q8 4 45 0t91 -3t121.5 -14t136.5 -33.5t134.5 -59.5t116.5 -92.5t81.5 -132 t30.5 -181.5q0 -104 -28.5 -189t-75.5 -140.5t-108.5 -99.5t-127 -64.5t-131 -38t-122 -17.5t-97.5 -4t-59 0h-8v-18v-18q0 -37 12 -52q25 -31 170 -30h31v-111h-797v111h31q143 0 168 30q16 18 16 70v18q-10 4 -53 -1t-112 6l-144 24q-76 12 -153 53t-139.5 95.5 t-101 149.5t-38.5 214zM385 758q0 -84 15.5 -152.5t40 -112.5t56 -80t65.5 -51.5t68 -29t62.5 -13.5t49 -4t28.5 0v908h-8q-37 2 -67.5 0t-93 -24.5t-104.5 -67t-77 -141.5t-35 -232zM1139 315q10 4 34.5 -1t61.5 4l77 20q40 10 80 45t72.5 81t52 125t19.5 181 q0 133 -36 227.5t-79 136.5t-109.5 64.5t-95 24.5t-67.5 0h-10v-908z" />
<glyph unicode="&#x425;" horiz-adv-x="1478" d="M-25 0v111q90 4 148.5 39.5t146.5 144.5l301 371l-419 598q-43 61 -76 80.5t-101 23.5v111h734v-111q-90 -4 -115 -12t-25 -37q0 -25 21 -53l215 -310l143 177q70 82 70 131q0 104 -197 104v111h631v-111q-80 -6 -140.5 -41t-129.5 -117l-299 -364l362 -529 q94 -137 136 -169.5t124 -36.5v-111h-737v111q76 2 105.5 12t29.5 37q0 37 -26 69l-224 320l-180 -230q-41 -51 -41 -102q0 -53 52.5 -77.5t168.5 -28.5v-111h-678z" />
<glyph unicode="&#x426;" horiz-adv-x="1798" d="M41 0v111h31q145 0 170 30q10 12 12 34t2 122v887q0 100 -2 120.5t-12 32.5q-25 31 -170 31h-31v111h797v-111h-31q-143 0 -168 -31q-10 -12 -12 -33.5t-2 -119.5v-1061h534v1061q0 100 -2 120.5t-12 32.5q-25 31 -170 31h-31v111h797v-111h-31q-143 0 -168 -31 q-10 -12 -12 -33.5t-2 -119.5v-887q0 -100 2 -121.5t12 -34.5q25 -31 168 -30h31l33 -566h-109q-27 147 -96.5 255t-167.5 157q-84 43 -266 43h-1094z" />
<glyph unicode="&#x427;" horiz-adv-x="1742" d="M41 1368v111h797v-111h-31q-145 0 -170 -31q-10 -12 -12 -33.5t-2 -121.5v-357q2 -59 74.5 -120.5t160.5 -59.5q82 -2 140.5 39t119.5 117v381q0 100 -2 121.5t-12 33.5q-25 31 -168 31h-31v111h797v-111h-31q-145 0 -170 -31q-10 -12 -12 -33.5t-2 -121.5v-887 q0 -100 2 -120.5t12 -33.5q25 -31 170 -30h31v-111h-797v111h31q143 0 168 30q10 12 12 34t2 120v369q-102 -141 -307 -142q-84 0 -167 12.5t-178 42t-153.5 94t-58.5 154.5v357q0 100 -2 121.5t-12 33.5q-25 31 -168 31h-31z" />
<glyph unicode="&#x428;" horiz-adv-x="2527" d="M41 0v111h31q143 0 168 30q10 12 12 34t2 122v887q0 98 -2 119.5t-12 33.5q-25 31 -168 31h-31v111h776v-111h-31q-125 0 -149 -31q-10 -12 -12 -32.5t-2 -120.5v-1061h458v1061q0 98 -2 119.5t-12 33.5q-25 31 -147 31h-31v111h756v-111h-31q-125 0 -150 -31 q-10 -12 -12 -32.5t-2 -120.5v-1061h453v1061q0 98 -2.5 119.5t-12.5 33.5q-25 31 -147 31h-31v111h776v-111h-30q-145 0 -170 -31q-10 -12 -12.5 -32.5t-2.5 -120.5v-887q0 -100 2 -121.5t13 -34.5q25 -31 170 -30h30v-111h-2445z" />
<glyph unicode="&#x429;" horiz-adv-x="2543" d="M41 0v111h31q143 0 168 30q10 12 12 34t2 122v887q0 98 -2 119.5t-12 33.5q-25 31 -168 31h-31v111h776v-111h-31q-125 0 -149 -31q-10 -12 -12 -32.5t-2 -120.5v-1061h458v1061q0 98 -2 119.5t-12 33.5q-25 31 -147 31h-31v111h756v-111h-31q-125 0 -150 -31 q-10 -12 -12 -32.5t-2 -120.5v-1061h453v1061q0 98 -2.5 119.5t-12.5 33.5q-25 31 -147 31h-31v111h776v-111h-30q-145 0 -170 -31q-10 -12 -12.5 -32.5t-2.5 -120.5v-887q0 -100 2 -121.5t13 -34.5q25 -31 170 -30h30l33 -566h-109q-27 147 -96 255t-168 157 q-84 43 -266 43h-1839z" />
<glyph unicode="&#x42a;" horiz-adv-x="1884" d="M31 924l30 555h1092v-111h-45q-143 0 -170 -29q-10 -14 -12 -34.5t-2 -120.5v-340l86 16q86 14 143 14q305 0 475 -122.5t170 -339.5q0 -115 -54 -205t-153 -135q-156 -72 -436 -72h-813v113h31q141 0 168 28q10 14 12 35t2 121v991q0 53 -14.5 68.5t-59.5 15.5 q-141 0 -237 -145q-70 -100 -105 -303h-108zM924 236q0 -76 21.5 -99.5t90.5 -23.5h82q145 0 215 71.5t70 225.5q0 184 -78 267t-283 85q-31 0 -75 -17l-43 -14v-495z" />
<glyph unicode="&#x42b;" horiz-adv-x="2330" d="M41 0v113h31q141 0 168 28q10 14 12 35t2 121v887q0 100 -2 120.5t-12 34.5q-27 29 -168 29h-31v111h811v-111h-45q-143 0 -170 -29q-10 -14 -12 -34.5t-2 -120.5v-340l86 16q86 14 143 14q305 0 475 -122.5t170 -339.5q0 -115 -54 -205t-153 -135q-156 -72 -436 -72 h-813zM623 236q0 -76 21.5 -99.5t90.5 -23.5h82q145 0 215 71.5t70 225.5q0 184 -78 267t-283 85q-31 0 -73 -17l-45 -14v-495zM1493 0v111h31q143 0 168 30q10 12 12 34t2 120v889q0 98 -2 119.5t-12 33.5q-25 31 -168 31h-31v111h797v-111h-31q-145 0 -170 -31 q-10 -12 -12 -32.5t-2 -120.5v-889q0 -100 2 -120.5t12 -33.5q25 -31 170 -30h31v-111h-797z" />
<glyph unicode="&#x42c;" horiz-adv-x="1583" d="M41 0v113h31q141 0 168 28q10 14 12 35t2 121v887q0 100 -2 120.5t-12 34.5q-27 29 -168 29h-31v111h811v-111h-45q-143 0 -170 -29q-10 -14 -12 -34.5t-2 -120.5v-340l86 16q86 14 143 14q305 0 475 -122.5t170 -339.5q0 -115 -54 -205t-153 -135q-156 -72 -436 -72 h-813zM623 236q0 -76 21.5 -99.5t90.5 -23.5h82q145 0 215 71.5t70 225.5q0 184 -78 267t-283 85q-31 0 -73 -17l-45 -14v-495z" />
<glyph unicode="&#x42d;" horiz-adv-x="1497" d="M49 915l21 586h88l110 -100q100 61 183.5 84.5t191.5 23.5q338 0 556 -222t218 -566q0 -311 -194 -526q-203 -223 -605 -224q-229 0 -398 134.5t-169 316.5q0 164 144 164q63 0 104 -39t41 -84q0 -63 -55 -107q-23 -18 -60 -14q-6 2 -13 6t-9 4q-35 0 -35 -43 q0 -55 167 -134t265 -79q199 0 299 146.5t109 451.5h-533v123h533q-16 586 -381 586q-170 0 -285 -122t-184 -378z" />
</font>
</defs>
</svg>
