<?xml version="1.0" encoding="UTF-8" standalone="no"?>
<!-- Created with Inkscape (http://www.inkscape.org/) -->

<svg
   xmlns:dc="http://purl.org/dc/elements/1.1/"
   xmlns:cc="http://creativecommons.org/ns#"
   xmlns:rdf="http://www.w3.org/1999/02/22-rdf-syntax-ns#"
   xmlns:svg="http://www.w3.org/2000/svg"
   xmlns="http://www.w3.org/2000/svg"
   xmlns:sodipodi="http://sodipodi.sourceforge.net/DTD/sodipodi-0.dtd"
   xmlns:inkscape="http://www.inkscape.org/namespaces/inkscape"
   width="704.27161"
   height="537.521"
   id="svg2"
   version="1.1"
   inkscape:version="0.48.3.1 r9886"
   sodipodi:docname="sozi-links-tutorial-base.svg">
  <sodipodi:namedview
     id="base"
     pagecolor="#ffffff"
     bordercolor="#666666"
     borderopacity="1.0"
     inkscape:pageopacity="0.0"
     inkscape:pageshadow="2"
     inkscape:zoom="0.98994949"
     inkscape:cx="379.87291"
     inkscape:cy="275.90773"
     inkscape:document-units="px"
     inkscape:current-layer="layer1"
     showgrid="false"
     inkscape:window-width="905"
     inkscape:window-height="764"
     inkscape:window-x="1"
     inkscape:window-y="44"
     inkscape:window-maximized="0"
     units="cm"
     fit-margin-top="1"
     fit-margin-right="1"
     fit-margin-left="1"
     fit-margin-bottom="1" />
  <defs
     id="defs4" />
  <metadata
     id="metadata7">
    <rdf:RDF>
      <cc:Work
         rdf:about="">
        <dc:format>image/svg+xml</dc:format>
        <dc:type
           rdf:resource="http://purl.org/dc/dcmitype/StillImage" />
        <dc:title />
      </cc:Work>
    </rdf:RDF>
  </metadata>
  <g
     transform="translate(3.7789685,-19.500538)"
     id="layer1"
     inkscape:groupmode="layer"
     inkscape:label="Calque 1">
    <g
       style="font-size:24px;font-style:normal;font-variant:normal;font-weight:normal;font-stretch:normal;text-align:start;line-height:125%;letter-spacing:0px;word-spacing:0px;text-anchor:start;fill:#ff0000;fill-opacity:1;stroke:none;font-family:Purisa;-inkscape-font-specification:Purisa"
       id="text5916">
      <path
         inkscape:connector-curvature="0"
         d="m 157.08228,151.00559 c 0,-0.27198 0.36,-0.81598 1.08,-1.632 0.72,-0.81598 1.176,-1.22398 1.368,-1.224 0.62399,2e-5 1.95999,0.12802 4.008,0.384 2.04799,0.25602 3.26399,0.44802 3.648,0.576 1.07199,0.30402 1.60799,1.03202 1.608,2.184 -10e-6,0.54402 -0.13601,1.10402 -0.408,1.68 -0.25601,0.56002 -0.54401,1.03202 -0.864,1.416 -0.32001,0.36801 -0.61601,0.71201 -0.888,1.032 -0.25601,0.32001 -0.38401,0.52001 -0.384,0.6 -1e-5,0.11201 -0.46401,0.47201 -1.392,1.08 -0.91201,0.59201 -1.72001,1.07201 -2.424,1.44 -0.57601,0.32001 -0.86401,0.52001 -0.864,0.6 -1e-5,0.032 0.29599,0.15201 0.888,0.36 0.60799,0.19201 1.33599,0.45601 2.184,0.792 0.84799,0.33601 1.50399,0.66401 1.968,0.984 0.73599,0.51201 1.18399,0.76801 1.344,0.768 0.22399,0.016 0.58399,0.28801 1.08,0.816 0.51199,0.51201 0.76799,0.88001 0.768,1.104 -1e-5,0.40001 -0.14401,0.60001 -0.432,0.6 -0.25601,1e-5 -0.68801,-0.15999 -1.296,-0.48 -0.59201,-0.31999 -1.36801,-0.73599 -2.328,-1.248 -0.94401,-0.52799 -1.84001,-0.95199 -2.688,-1.272 l -1.872,-0.744 0.096,2.808 c 0.016,0.43201 0.024,0.93601 0.024,1.512 -10e-6,0.032 -10e-6,0.08 0,0.144 -10e-6,0.304 -0.008,0.52 -0.024,0.648 -0.016,0.144 -0.072,0.272 -0.168,0.384 -0.096,0.128 -0.24801,0.192 -0.456,0.192 -0.60801,0 -0.912,-0.976 -0.912,-2.928 0,-2.04799 -0.328,-3.22399 -0.984,-3.528 -0.48,-0.20799 -0.72,-0.49599 -0.72,-0.864 0,-0.33599 0.232,-0.61599 0.696,-0.84 l 0.792,-0.36 -0.192,-2.736 c -0.096,-1.45598 -0.2,-2.46398 -0.312,-3.024 -0.096,-0.57598 -0.232,-0.86398 -0.408,-0.864 -0.048,2e-5 -0.144,0.056 -0.288,0.168 -0.144,0.11202 -0.32,0.16802 -0.528,0.168 -0.192,2e-5 -0.36,-0.064 -0.504,-0.192 -0.144,-0.12798 -0.216,-0.29598 -0.216,-0.504 m 10.296,0.12 c -1e-5,-0.064 -0.016,-0.11198 -0.048,-0.144 -0.032,-0.032 -0.18401,-0.096 -0.456,-0.192 -0.25601,-0.096 -0.68001,-0.22398 -1.272,-0.384 -1.08801,-0.30398 -2.19201,-0.45598 -3.312,-0.456 l -1.728,0 0.168,1.296 c 0.048,0.32002 0.11999,1.00002 0.216,2.04 0.096,1.02402 0.18399,1.93601 0.264,2.736 0.08,0.78401 0.13599,1.17601 0.168,1.176 0.22399,1e-5 0.81599,-0.26399 1.776,-0.792 0.95999,-0.52799 1.63199,-0.96799 2.016,-1.32 0.41599,-0.36799 0.88799,-1.03198 1.416,-1.992 0.52799,-0.95998 0.79199,-1.61598 0.792,-1.968"
         id="path6612" />
      <path
         inkscape:connector-curvature="0"
         d="m 184.62753,160.77359 c 0.08,10e-6 0.11999,0.064 0.12,0.192 -1e-5,0.28801 -0.21601,0.75201 -0.648,1.392 -0.41601,0.64001 -0.86401,1.16801 -1.344,1.584 -1.68001,1.488 -3.36001,2.232 -5.04,2.232 -0.64001,0 -1.28001,-0.144 -1.92,-0.432 -0.62401,-0.304 -1.208,-0.728 -1.752,-1.272 -0.544,-0.54399 -0.984,-1.27199 -1.32,-2.184 -0.336,-0.91199 -0.504,-1.92799 -0.504,-3.048 0,-0.68799 0.08,-1.27199 0.24,-1.752 0.32,-0.97599 1,-2.00799 2.04,-3.096 1.05599,-1.08798 2.04799,-1.63198 2.976,-1.632 0.25599,2e-5 0.63999,0.024 1.152,0.072 0.76799,0.064 1.30399,0.14402 1.608,0.24 0.31999,0.096 0.67999,0.29602 1.08,0.6 0.51199,0.38402 0.95199,0.88002 1.32,1.488 0.38399,0.59201 0.57599,1.08801 0.576,1.488 -1e-5,0.51201 -0.20001,0.90401 -0.6,1.176 -0.40001,0.25601 -1.17601,0.51201 -2.328,0.768 -1.48801,0.33601 -2.96001,0.54401 -4.416,0.624 l -2.232,0.12 0,0.96 c 0,1.18401 0.552,2.30401 1.656,3.36 0.83199,0.80001 1.69599,1.2 2.592,1.2 0.68799,0 1.41599,-0.20799 2.184,-0.624 0.78399,-0.43199 1.44799,-0.90399 1.992,-1.416 0.54399,-0.51199 1.06399,-0.97599 1.56,-1.392 0.49599,-0.43199 0.83199,-0.64799 1.008,-0.648 m -3.864,-5.856 c -0.49601,-0.44798 -0.87201,-0.72798 -1.128,-0.84 -0.24001,-0.12798 -0.56001,-0.19198 -0.96,-0.192 -0.80001,2e-5 -1.40001,0.08 -1.8,0.24 -0.38401,0.14402 -0.77601,0.44802 -1.176,0.912 -1.216,1.39201 -1.824,2.32001 -1.824,2.784 0,0.20801 0.192,0.31201 0.576,0.312 1.45599,1e-5 3.51999,-0.30399 6.192,-0.912 0.79999,-0.19199 1.19999,-0.52799 1.2,-1.008 -10e-6,-0.22399 -0.36001,-0.65599 -1.08,-1.296"
         id="path6614" />
      <path
         inkscape:connector-curvature="0"
         d="m 201.19203,166.17359 c -2e-5,0.352 -0.072,0.624 -0.216,0.816 -0.12802,0.208 -0.24802,0.328 -0.36,0.36 -0.096,0.048 -0.18402,0.072 -0.264,0.072 -0.20802,0 -0.38401,-0.072 -0.528,-0.216 -0.14401,-0.128 -0.25601,-0.368 -0.336,-0.72 -0.08,-0.336 -0.13601,-0.592 -0.168,-0.768 -0.016,-0.176 -0.048,-0.504 -0.096,-0.984 -0.11201,-1.61599 -0.24001,-2.42399 -0.384,-2.424 -0.17601,1e-5 -0.45601,0.23201 -0.84,0.696 -1.79201,2.112 -3.68001,3.168 -5.664,3.168 -0.59201,0 -1.18401,-0.112 -1.776,-0.336 -2.048,-0.768 -3.072,-2.33599 -3.072,-4.704 0,-1.02399 0.168,-1.99999 0.504,-2.928 0.352,-0.94399 0.792,-1.73599 1.32,-2.376 0.544,-0.63999 1.08799,-1.17598 1.632,-1.608 0.54399,-0.43198 1.06399,-0.73598 1.56,-0.912 0.62399,-0.23998 1.05599,-0.35998 1.296,-0.36 0.41599,2e-5 1.11199,0.27202 2.088,0.816 0.99199,0.54402 1.67999,1.07201 2.064,1.584 0.43199,0.57601 0.75999,0.86401 0.984,0.864 0.016,1e-5 0.024,1e-5 0.024,0 -1e-5,-0.016 0.008,-0.024 0.024,-0.024 0.17599,-0.11199 0.26399,-2.19998 0.264,-6.264 -1e-5,-4.01598 0.096,-6.29597 0.288,-6.84 0.20799,-0.49597 0.51998,-0.74397 0.936,-0.744 l 0.648,0 -0.192,9.864 c -0.048,2.44802 -0.072,4.63201 -0.072,6.552 -2e-5,2.60801 0.056,4.47201 0.168,5.592 0.11198,1.12 0.16798,1.728 0.168,1.824 m -5.616,-10.632 c -0.94401,-0.62399 -1.60001,-0.93598 -1.968,-0.936 -0.32001,2e-5 -1.04001,0.54401 -2.16,1.632 -1.12001,1.08801 -1.784,1.88801 -1.992,2.4 -0.16,0.38401 -0.24,1.08001 -0.24,2.088 0,1.23201 0.104,2.03201 0.312,2.4 0.16,0.28801 0.54399,0.60001 1.152,0.936 0.62399,0.33601 1.23999,0.50401 1.848,0.504 1.08799,1e-5 2.46399,-0.79999 4.128,-2.4 1.31199,-1.26399 1.96799,-2.08799 1.968,-2.472 -1e-5,-0.52799 -0.33601,-1.23199 -1.008,-2.112 -0.65601,-0.87999 -1.33601,-1.55999 -2.04,-2.04"
         id="path6616" />
    </g>
    <g
       style="font-size:24px;font-style:normal;font-variant:normal;font-weight:normal;font-stretch:normal;text-align:start;line-height:125%;letter-spacing:0px;word-spacing:0px;text-anchor:start;fill:#008000;fill-opacity:1;stroke:none;font-family:Purisa;-inkscape-font-specification:Purisa"
       id="text5920">
      <path
         inkscape:connector-curvature="0"
         d="m 498.35774,156.96328 c -0.51201,1e-5 -1.01601,-0.096 -1.512,-0.288 -0.49601,-0.19199 -0.74401,-0.50399 -0.744,-0.936 -1e-5,-0.27199 0.11999,-0.47999 0.36,-0.624 0.23999,-0.14399 0.51199,-0.26399 0.816,-0.36 0.30399,-0.096 0.49599,-0.21599 0.576,-0.36 0.08,-0.12798 0.35999,-0.19198 0.84,-0.192 0.62399,2e-5 1.35999,0.096 2.208,0.288 0.84798,0.19201 1.40798,0.40001 1.68,0.624 0.46398,0.38401 0.81598,1.35201 1.056,2.904 0.25598,1.55201 0.38398,3.33601 0.384,5.352 -2e-5,1.056 -0.14402,1.68 -0.432,1.872 -0.12802,0.112 -0.27202,0.168 -0.432,0.168 -0.16002,0 -0.32802,-0.08 -0.504,-0.24 -0.32002,-0.304 -0.48002,-1.34399 -0.48,-3.12 l 0,-2.736 -0.768,1.272 c -0.91202,1.50401 -1.94401,2.68001 -3.096,3.528 -1.15201,0.832 -2.26401,1.248 -3.336,1.248 -0.62401,0 -1.20801,-0.152 -1.752,-0.456 -0.41601,-0.224 -0.72801,-0.488 -0.936,-0.792 -0.19201,-0.31999 -0.39201,-0.87199 -0.6,-1.656 -0.24001,-0.83199 -0.36001,-1.59199 -0.36,-2.28 -10e-6,-0.47999 0.048,-1.11199 0.144,-1.896 0.15999,-1.27999 0.38399,-2.28799 0.672,-3.024 0.30399,-0.73599 0.88799,-1.74398 1.752,-3.024 0.60799,-0.89598 1.27199,-1.66398 1.992,-2.304 0.71999,-0.63998 1.33599,-1.07998 1.848,-1.32 0.52799,-0.23998 0.99999,-0.46398 1.416,-0.672 0.43199,-0.22398 0.69599,-0.41598 0.792,-0.576 0.15999,-0.27198 0.56798,-0.40798 1.224,-0.408 0.70398,2e-5 1.27998,0.15202 1.728,0.456 0.46398,0.28802 0.69598,0.58402 0.696,0.888 -2e-5,0.19202 -0.096,0.48002 -0.288,0.864 -0.19202,0.36802 -0.39202,0.55202 -0.6,0.552 -0.17602,2e-5 -0.32002,-0.18398 -0.432,-0.552 -0.11202,-0.38398 -0.28802,-0.57598 -0.528,-0.576 -0.24002,2e-5 -0.54402,0.048 -0.912,0.144 -0.36802,0.096 -0.84001,0.29602 -1.416,0.6 -0.56001,0.30402 -1.12801,0.68002 -1.704,1.128 -0.56001,0.44802 -1.16801,1.08002 -1.824,1.896 -0.65601,0.80002 -1.24801,1.71202 -1.776,2.736 -0.48001,0.92801 -0.77601,1.62401 -0.888,2.088 -0.11201,0.46401 -0.16801,1.24001 -0.168,2.328 -1e-5,1.56801 0.13599,2.64001 0.408,3.216 0.27199,0.56001 0.78399,0.84001 1.536,0.84 1.59999,1e-5 2.91999,-0.68799 3.96,-2.064 0.51199,-0.68799 0.95199,-1.43199 1.32,-2.232 0.36798,-0.79999 0.55198,-1.40799 0.552,-1.824 -2e-5,-0.25599 -0.10402,-0.47999 -0.312,-0.672 -0.19201,-0.20799 -0.39201,-0.31199 -0.6,-0.312 -0.12801,1e-5 -0.30401,0.088 -0.528,0.264 -0.20801,0.16001 -0.55201,0.24001 -1.032,0.24"
         id="path6601" />
      <path
         inkscape:connector-curvature="0"
         d="m 516.00299,153.55528 c 0.27199,2e-5 0.51199,0.088 0.72,0.264 0.20799,0.16002 0.31199,0.29602 0.312,0.408 -10e-6,0.19201 -0.30401,0.40801 -0.912,0.648 -0.99201,0.40001 -2.00801,1.36801 -3.048,2.904 -1.02401,1.52001 -1.64801,2.99201 -1.872,4.416 -0.25601,1.61601 -0.46401,2.672 -0.624,3.168 -0.16001,0.512 -0.36801,0.768 -0.624,0.768 -0.22401,0 -0.40001,-0.08 -0.528,-0.24 -0.11201,-0.16 -0.19201,-0.336 -0.24,-0.528 -0.032,-0.192 -0.072,-0.544 -0.12,-1.056 -0.016,-0.096 -0.024,-0.16799 -0.024,-0.216 -0.38401,-4.03199 -0.57601,-7.21599 -0.576,-9.552 -1e-5,-0.83198 0.032,-1.34398 0.096,-1.536 0.17599,-0.51198 0.39999,-0.76798 0.672,-0.768 0.25599,2e-5 0.38399,0.21602 0.384,0.648 -10e-6,0.72002 0.11199,1.88001 0.336,3.48 0.22399,1.60001 0.39199,2.40001 0.504,2.4 0.14399,1e-5 0.43999,-0.43999 0.888,-1.32 0.55999,-1.03999 1.30399,-1.94399 2.232,-2.712 0.94399,-0.78398 1.75199,-1.17598 2.424,-1.176"
         id="path6603" />
      <path
         inkscape:connector-curvature="0"
         d="m 532.30836,160.05928 c 0.08,1e-5 0.11999,0.064 0.12,0.192 -10e-6,0.28801 -0.21601,0.75201 -0.648,1.392 -0.41601,0.64001 -0.86401,1.16801 -1.344,1.584 -1.68001,1.488 -3.36001,2.232 -5.04,2.232 -0.64,0 -1.28,-0.144 -1.92,-0.432 -0.624,-0.304 -1.208,-0.728 -1.752,-1.272 -0.544,-0.54399 -0.984,-1.27199 -1.32,-2.184 -0.336,-0.91199 -0.504,-1.92799 -0.504,-3.048 0,-0.68799 0.08,-1.27199 0.24,-1.752 0.32,-0.97599 1,-2.00799 2.04,-3.096 1.056,-1.08798 2.048,-1.63198 2.976,-1.632 0.25599,2e-5 0.63999,0.024 1.152,0.072 0.76799,0.064 1.30399,0.14402 1.608,0.24 0.31999,0.096 0.67999,0.29602 1.08,0.6 0.51199,0.38402 0.95199,0.88002 1.32,1.488 0.38399,0.59201 0.57599,1.08801 0.576,1.488 -1e-5,0.51201 -0.20001,0.90401 -0.6,1.176 -0.40001,0.25601 -1.17601,0.51201 -2.328,0.768 -1.48801,0.33601 -2.96001,0.54401 -4.416,0.624 l -2.232,0.12 0,0.96 c 0,1.18401 0.552,2.30401 1.656,3.36 0.832,0.80001 1.696,1.20001 2.592,1.2 0.68799,10e-6 1.41599,-0.20799 2.184,-0.624 0.78399,-0.43199 1.44799,-0.90399 1.992,-1.416 0.54399,-0.51199 1.06399,-0.97599 1.56,-1.392 0.49599,-0.43199 0.83199,-0.64799 1.008,-0.648 m -3.864,-5.856 c -0.49601,-0.44798 -0.87201,-0.72798 -1.128,-0.84 -0.24001,-0.12798 -0.56001,-0.19198 -0.96,-0.192 -0.80001,2e-5 -1.40001,0.08 -1.8,0.24 -0.384,0.14402 -0.776,0.44802 -1.176,0.912 -1.216,1.39201 -1.824,2.32001 -1.824,2.784 0,0.20801 0.192,0.31201 0.576,0.312 1.456,1e-5 3.51999,-0.30399 6.192,-0.912 0.79999,-0.19199 1.19999,-0.52799 1.2,-1.008 -10e-6,-0.22399 -0.36001,-0.65599 -1.08,-1.296"
         id="path6605" />
      <path
         inkscape:connector-curvature="0"
         d="m 547.12086,160.05928 c 0.08,1e-5 0.11999,0.064 0.12,0.192 -10e-6,0.28801 -0.21601,0.75201 -0.648,1.392 -0.41601,0.64001 -0.86401,1.16801 -1.344,1.584 -1.68001,1.488 -3.36001,2.232 -5.04,2.232 -0.64,0 -1.28,-0.144 -1.92,-0.432 -0.624,-0.304 -1.208,-0.728 -1.752,-1.272 -0.544,-0.54399 -0.984,-1.27199 -1.32,-2.184 -0.336,-0.91199 -0.504,-1.92799 -0.504,-3.048 0,-0.68799 0.08,-1.27199 0.24,-1.752 0.32,-0.97599 1,-2.00799 2.04,-3.096 1.056,-1.08798 2.048,-1.63198 2.976,-1.632 0.25599,2e-5 0.63999,0.024 1.152,0.072 0.76799,0.064 1.30399,0.14402 1.608,0.24 0.31999,0.096 0.67999,0.29602 1.08,0.6 0.51199,0.38402 0.95199,0.88002 1.32,1.488 0.38399,0.59201 0.57599,1.08801 0.576,1.488 -1e-5,0.51201 -0.20001,0.90401 -0.6,1.176 -0.40001,0.25601 -1.17601,0.51201 -2.328,0.768 -1.48801,0.33601 -2.96001,0.54401 -4.416,0.624 l -2.232,0.12 0,0.96 c 0,1.18401 0.552,2.30401 1.656,3.36 0.832,0.80001 1.696,1.20001 2.592,1.2 0.68799,10e-6 1.41599,-0.20799 2.184,-0.624 0.78399,-0.43199 1.44799,-0.90399 1.992,-1.416 0.54399,-0.51199 1.06399,-0.97599 1.56,-1.392 0.49599,-0.43199 0.83199,-0.64799 1.008,-0.648 m -3.864,-5.856 c -0.49601,-0.44798 -0.87201,-0.72798 -1.128,-0.84 -0.24001,-0.12798 -0.56001,-0.19198 -0.96,-0.192 -0.80001,2e-5 -1.40001,0.08 -1.8,0.24 -0.384,0.14402 -0.776,0.44802 -1.176,0.912 -1.216,1.39201 -1.824,2.32001 -1.824,2.784 0,0.20801 0.192,0.31201 0.576,0.312 1.456,1e-5 3.51999,-0.30399 6.192,-0.912 0.79999,-0.19199 1.19999,-0.52799 1.2,-1.008 -10e-6,-0.22399 -0.36001,-0.65599 -1.08,-1.296"
         id="path6607" />
      <path
         inkscape:connector-curvature="0"
         d="m 551.32536,152.23528 c 0,-0.54398 0.16,-0.81598 0.48,-0.816 0.208,2e-5 0.36,0.24002 0.456,0.72 0.096,0.46402 0.272,1.85602 0.528,4.176 0.32,2.59201 0.488,3.90401 0.504,3.936 0.016,0.016 0.08,-0.13599 0.192,-0.456 0.128,-0.33599 0.296,-0.83199 0.504,-1.488 0.32,-1.05599 0.59199,-1.81599 0.816,-2.28 0.22399,-0.47999 0.62399,-1.13599 1.2,-1.968 1.16799,-1.61598 2.07199,-2.42398 2.712,-2.424 0.41599,2e-5 0.80799,0.28002 1.176,0.84 0.49599,0.73602 0.79999,1.46402 0.912,2.184 0.11199,0.72001 0.19199,2.42401 0.24,5.112 0.032,1.72801 0.048,2.75201 0.048,3.072 -10e-6,0.80001 -0.032,1.38401 -0.096,1.752 -0.048,0.352 -0.12801,0.568 -0.24,0.648 -0.096,0.096 -0.27201,0.152 -0.528,0.168 -0.14401,0 -0.24001,-0.064 -0.288,-0.192 -0.048,-0.112 -0.072,-0.384 -0.072,-0.816 -10e-6,-0.23999 0.016,-0.75199 0.048,-1.536 0.032,-0.79999 0.048,-1.47199 0.048,-2.016 -1e-5,-1.35999 -0.056,-2.68799 -0.168,-3.984 -0.096,-1.31199 -0.21601,-2.15199 -0.36,-2.52 -0.08,-0.20798 -0.20801,-0.42398 -0.384,-0.648 -0.17601,-0.22398 -0.34401,-0.33598 -0.504,-0.336 -0.33601,2e-5 -0.87201,0.57602 -1.608,1.728 -0.73601,1.13601 -1.36801,2.33601 -1.896,3.6 -0.49601,1.15201 -0.832,2.04001 -1.008,2.664 -0.16,0.60801 -0.296,1.44001 -0.408,2.496 -0.176,1.632 -0.304,2.448 -0.384,2.448 -0.128,0 -0.312,-0.136 -0.552,-0.408 -0.176,-0.176 -0.296,-0.552 -0.36,-1.128 -0.064,-0.59199 -0.152,-1.75199 -0.264,-3.48 -0.112,-1.74399 -0.264,-3.50399 -0.456,-5.28 -0.192,-1.83998 -0.288,-3.09598 -0.288,-3.768"
         id="path6609" />
    </g>
    <g
       style="font-size:24px;font-style:normal;font-variant:normal;font-weight:normal;font-stretch:normal;text-align:start;line-height:125%;letter-spacing:0px;word-spacing:0px;text-anchor:start;fill:#0000ff;fill-opacity:1;stroke:none;font-family:Purisa;-inkscape-font-specification:Purisa"
       id="text5924">
      <path
         inkscape:connector-curvature="0"
         d="m 168.58629,413.21471 c -0.208,0 -0.504,0.072 -0.888,0.216 -0.384,0.128 -0.664,0.192 -0.84,0.192 -0.208,0 -0.384,-0.072 -0.528,-0.216 -0.128,-0.16 -0.24,-0.392 -0.336,-0.696 -0.08,-0.32 -0.144,-0.68 -0.192,-1.08 -0.048,-0.4 -0.096,-0.896 -0.144,-1.488 -0.032,-0.592 -0.072,-1.18399 -0.12,-1.776 -0.032,-0.59199 -0.088,-1.29599 -0.168,-2.112 -0.064,-0.83199 -0.144,-1.62399 -0.24,-2.376 -0.176,-1.58399 -0.312,-2.97599 -0.408,-4.176 l -0.168,-2.16 -0.936,0 c -0.8,2e-5 -1.2,-0.17598 -1.2,-0.528 0,-0.51198 1.232,-1.08798 3.696,-1.728 0.992,-0.25598 2.448,-0.38398 4.368,-0.384 0.73599,2e-5 1.22399,0.04 1.464,0.12 0.25599,0.064 0.51199,0.23202 0.768,0.504 0.39999,0.46402 0.59999,0.84002 0.6,1.128 -1e-5,0.73602 -0.20801,1.52002 -0.624,2.352 -0.40001,0.83201 -0.80801,1.53601 -1.224,2.112 -0.40001,0.57601 -0.60001,0.92001 -0.6,1.032 -1e-5,0.096 0.11199,0.14401 0.336,0.144 0.31999,10e-6 0.79999,0.20001 1.44,0.6 0.65599,0.38401 1.07999,0.73601 1.272,1.056 0.38399,0.62401 0.57599,1.54401 0.576,2.76 -10e-6,1.90401 -0.53601,3.512 -1.608,4.824 -1.05601,1.312 -2.05601,1.968 -3,1.968 -0.16,0 -0.368,-0.048 -0.624,-0.144 -0.256,-0.096 -0.48,-0.144 -0.672,-0.144 m 3.096,-16.584 c -0.24001,-0.25598 -0.82401,-0.38398 -1.752,-0.384 -0.576,2e-5 -1.104,0.04 -1.584,0.12 -1.184,0.20802 -1.848,0.36002 -1.992,0.456 -0.16,0.11202 -0.24,0.39202 -0.24,0.84 l 0,0.48 c 0,0.97602 0.096,2.12001 0.288,3.432 0.112,0.86401 0.216,1.42401 0.312,1.68 0.096,0.24001 0.256,0.36001 0.48,0.36 0.352,10e-6 1.04,-0.59999 2.064,-1.8 1.03999,-1.19999 1.75999,-2.23199 2.16,-3.096 0.39999,-0.89598 0.59999,-1.40798 0.6,-1.536 -1e-5,-0.11198 -0.11201,-0.29598 -0.336,-0.552 m 1.536,10.416 c -1e-5,-2.09599 -0.77601,-3.14399 -2.328,-3.144 -0.40001,10e-6 -0.808,0.064 -1.224,0.192 -0.4,0.11201 -0.856,0.28801 -1.368,0.528 -0.496,0.22401 -0.84,0.36801 -1.032,0.432 -0.16,0.064 -0.272,0.16001 -0.336,0.288 -0.048,0.12801 -0.072,0.40801 -0.072,0.84 0,0.43201 0.024,1.12801 0.072,2.088 0.032,0.57601 0.056,1.032 0.072,1.368 0.032,0.32 0.064,0.64 0.096,0.96 0.048,0.32 0.112,0.552 0.192,0.696 0.08,0.144 0.16,0.288 0.24,0.432 0.096,0.128 0.232,0.216 0.408,0.264 0.176,0.048 0.352,0.088 0.528,0.12 0.192,0.016 0.448,0.032 0.768,0.048 0.08,0 0.184,0.008 0.312,0.024 0.128,0 0.216,0 0.264,0 0.39999,0 0.70399,-0.072 0.912,-0.216 0.20799,-0.144 0.56799,-0.52 1.08,-1.128 0.54399,-0.608 0.91199,-1.144 1.104,-1.608 0.20799,-0.47999 0.31199,-1.20799 0.312,-2.184"
         id="path6577" />
      <path
         inkscape:connector-curvature="0"
         d="m 178.88942,397.99871 c -0.096,-1.02398 -0.144,-2.15198 -0.144,-3.384 0,-1.23198 0.032,-2.16798 0.096,-2.808 0.064,-0.65598 0.144,-1.07198 0.24,-1.248 0.096,-0.17598 0.232,-0.26398 0.408,-0.264 0.16,2e-5 0.288,0.072 0.384,0.216 0.096,0.16002 0.384,3.86402 0.864,11.112 0.49599,7.24801 0.74399,11.016 0.744,11.304 -1e-5,0.208 -0.048,0.352 -0.144,0.432 -0.096,0.064 -0.25601,0.096 -0.48,0.096 -0.384,0 -0.632,-0.272 -0.744,-0.816 -0.112,-0.56 -0.272,-2.296 -0.48,-5.208 -0.256,-3.51999 -0.504,-6.66399 -0.744,-9.432"
         id="path6579" />
      <path
         inkscape:connector-curvature="0"
         d="m 185.41329,405.34271 c 0,-2.99199 0.224,-4.48799 0.672,-4.488 0.08,10e-6 0.16,0.016 0.24,0.048 0.096,0.032 0.208,0.15201 0.336,0.36 0.128,0.19201 0.192,0.46401 0.192,0.816 0,0.16001 -0.016,0.43201 -0.048,0.816 -0.032,0.36801 -0.048,0.78401 -0.048,1.248 0,1.29601 0.072,2.87201 0.216,4.728 0.144,1.856 0.296,3.072 0.456,3.648 0.16,0.624 0.432,0.936 0.816,0.936 0.368,0 0.928,-0.328 1.68,-0.984 0.928,-0.816 1.816,-2.088 2.664,-3.816 0.86399,-1.72799 1.46399,-3.45599 1.8,-5.184 0.31999,-1.69599 0.58399,-2.59999 0.792,-2.712 0.15999,-0.11199 0.32799,-0.16799 0.504,-0.168 0.38399,10e-6 0.57599,0.22401 0.576,0.672 -1e-5,0.22401 -0.12001,1.16001 -0.36,2.808 -0.22401,1.64801 -0.33601,2.83201 -0.336,3.552 -1e-5,1.00801 0.19999,2.264 0.6,3.768 0.41599,1.488 0.62399,2.336 0.624,2.544 -1e-5,0.16 -0.064,0.288 -0.192,0.384 -0.12801,0.096 -0.24001,0.152 -0.336,0.168 -0.08,0.032 -0.14401,0.048 -0.192,0.048 -0.28801,0 -0.57601,-0.408 -0.864,-1.224 -0.27201,-0.816 -0.52001,-1.632 -0.744,-2.448 -0.20801,-0.816 -0.39201,-1.224 -0.552,-1.224 -0.032,0 -0.064,0.008 -0.096,0.024 -0.032,0.016 -0.072,0.048 -0.12,0.096 -0.032,0.032 -0.064,0.072 -0.096,0.12 -0.032,0.048 -0.08,0.112 -0.144,0.192 -0.048,0.08 -0.096,0.152 -0.144,0.216 -0.032,0.064 -0.088,0.16 -0.168,0.288 -0.08,0.128 -0.144,0.232 -0.192,0.312 -0.704,1.104 -1.488,2.024 -2.352,2.76 -0.848,0.736 -1.568,1.104 -2.16,1.104 -0.672,0 -1.176,-0.152 -1.512,-0.456 -0.336,-0.288 -0.608,-0.816 -0.816,-1.584 -0.192,-0.768 -0.368,-1.984 -0.528,-3.648 -0.112,-1.05599 -0.168,-2.29599 -0.168,-3.72"
         id="path6581" />
      <path
         inkscape:connector-curvature="0"
         d="m 211.75254,408.63071 c 0.08,10e-6 0.11999,0.064 0.12,0.192 -10e-6,0.28801 -0.21601,0.752 -0.648,1.392 -0.41601,0.64 -0.86401,1.168 -1.344,1.584 -1.68001,1.488 -3.36,2.232 -5.04,2.232 -0.64,0 -1.28,-0.144 -1.92,-0.432 -0.624,-0.304 -1.208,-0.728 -1.752,-1.272 -0.544,-0.544 -0.984,-1.272 -1.32,-2.184 -0.336,-0.91199 -0.504,-1.92799 -0.504,-3.048 0,-0.68799 0.08,-1.27199 0.24,-1.752 0.32,-0.97599 1,-2.00799 2.04,-3.096 1.056,-1.08799 2.048,-1.63199 2.976,-1.632 0.256,10e-6 0.64,0.024 1.152,0.072 0.768,0.064 1.304,0.14401 1.608,0.24 0.31999,0.096 0.67999,0.29601 1.08,0.6 0.51199,0.38401 0.95199,0.88001 1.32,1.488 0.38399,0.59201 0.57599,1.08801 0.576,1.488 -1e-5,0.51201 -0.20001,0.90401 -0.6,1.176 -0.40001,0.25601 -1.17601,0.51201 -2.328,0.768 -1.488,0.33601 -2.96,0.54401 -4.416,0.624 l -2.232,0.12 0,0.96 c 0,1.184 0.552,2.304 1.656,3.36 0.832,0.8 1.696,1.2 2.592,1.2 0.688,0 1.416,-0.208 2.184,-0.624 0.78399,-0.432 1.44799,-0.904 1.992,-1.416 0.54399,-0.512 1.06399,-0.976 1.56,-1.392 0.49599,-0.43199 0.83199,-0.64799 1.008,-0.648 m -3.864,-5.856 c -0.496,-0.44799 -0.872,-0.72799 -1.128,-0.84 -0.24,-0.12799 -0.56,-0.19199 -0.96,-0.192 -0.8,1e-5 -1.4,0.08 -1.8,0.24 -0.384,0.14401 -0.776,0.44801 -1.176,0.912 -1.216,1.39201 -1.824,2.32001 -1.824,2.784 0,0.20801 0.192,0.31201 0.576,0.312 1.456,1e-5 3.52,-0.30399 6.192,-0.912 0.79999,-0.19199 1.19999,-0.52799 1.2,-1.008 -1e-5,-0.22399 -0.36001,-0.65599 -1.08,-1.296"
         id="path6583" />
    </g>
    <g
       style="font-size:24px;font-style:normal;font-variant:normal;font-weight:normal;font-stretch:normal;text-align:start;line-height:125%;letter-spacing:0px;word-spacing:0px;text-anchor:start;fill:#ff00ff;fill-opacity:1;stroke:none;font-family:Purisa;-inkscape-font-specification:Purisa"
       id="text5928">
      <path
         inkscape:connector-curvature="0"
         d="m 484.11656,416.20907 c -0.208,-10e-6 -0.376,-0.14401 -0.504,-0.432 -0.112,-0.28801 -0.208,-0.912 -0.288,-1.872 -0.08,-0.96 -0.136,-2.248 -0.168,-3.864 -0.016,-1.632 -0.024,-3.88 -0.024,-6.744 0,-4.91199 0.096,-7.48799 0.288,-7.728 0.224,-0.30398 0.52,-0.45598 0.888,-0.456 0.208,2e-5 0.408,0.20802 0.6,0.624 0.20799,0.41601 0.47199,1.17601 0.792,2.28 0.47999,1.74401 1.03199,3.32001 1.656,4.728 0.63999,1.39201 1.09599,2.08801 1.368,2.088 0.27199,10e-6 0.84799,-0.74399 1.728,-2.232 0.87999,-1.50399 1.88799,-3.46399 3.024,-5.88 0.20799,-0.44799 0.47999,-0.80799 0.816,-1.08 0.33599,-0.27198 0.66398,-0.40798 0.984,-0.408 0.22398,2e-5 0.39998,0.064 0.528,0.192 0.35198,0.32001 0.58398,1.04001 0.696,2.16 0.11198,1.10401 0.18398,3.44001 0.216,7.008 0.016,2.16 0.064,3.92 0.144,5.28 0.08,1.36 0.15998,2.224 0.24,2.592 0.096,0.352 0.17598,0.648 0.24,0.888 0.064,0.24 0.096,0.472 0.096,0.696 -2e-5,0.496 -0.22402,0.744 -0.672,0.744 -0.25602,0 -0.50402,-0.08 -0.744,-0.24 -0.24002,-0.16 -0.40802,-0.368 -0.504,-0.624 -0.096,-0.256 -0.19202,-1.672 -0.288,-4.248 -0.096,-2.576 -0.19202,-5.07199 -0.288,-7.488 -0.096,-2.41599 -0.20001,-3.62399 -0.312,-3.624 -0.14401,10e-6 -0.45601,0.53601 -0.936,1.608 -0.57601,1.31201 -1.32001,2.76001 -2.232,4.344 -0.33601,0.59201 -0.84801,1.128 -1.536,1.608 -0.67201,0.464 -1.26401,0.696 -1.776,0.696 -0.12801,0 -0.36001,-0.2 -0.696,-0.6 -0.33601,-0.416 -0.67201,-0.91199 -1.008,-1.488 l -1.224,-2.088 0,6.192 c -0.016,3.04 -0.096,5.024 -0.24,5.952 -0.12801,0.94399 -0.416,1.41599 -0.864,1.416"
         id="path6586" />
      <path
         inkscape:connector-curvature="0"
         d="m 507.55406,402.55307 c -0.73601,1e-5 -1.52001,0.15201 -2.352,0.456 -0.81601,0.30401 -1.54401,0.61601 -2.184,0.936 -0.64001,0.30401 -1.104,0.45601 -1.392,0.456 -0.192,10e-6 -0.288,-0.08 -0.288,-0.24 0,-0.22399 0.048,-0.41599 0.144,-0.576 0.096,-0.15999 0.272,-0.31199 0.528,-0.456 0.25599,-0.14399 0.49599,-0.26399 0.72,-0.36 0.23999,-0.096 0.61599,-0.23199 1.128,-0.408 0.51199,-0.19199 0.95199,-0.36799 1.32,-0.528 0.86399,-0.33599 1.59199,-0.50399 2.184,-0.504 1.05599,10e-6 1.87999,0.57601 2.472,1.728 0.28799,0.56001 0.45599,1.08001 0.504,1.56 0.048,0.46401 0.088,1.784 0.12,3.96 0.016,1.216 0.04,2.24 0.072,3.072 0.032,0.816 0.064,1.336 0.096,1.56 l 0.048,0.312 c -10e-6,0.224 -0.10401,0.464 -0.312,0.72 -0.19201,0.256 -0.33601,0.384 -0.432,0.384 -0.32001,0 -0.56801,-0.504 -0.744,-1.512 -0.17601,-1.024 -0.27201,-1.536 -0.288,-1.536 -0.048,0 -0.12001,0.088 -0.216,0.264 -0.32001,0.528 -0.96801,1.112 -1.944,1.752 -0.96001,0.624 -1.76801,0.936 -2.424,0.936 -0.40001,0 -0.87201,-0.072 -1.416,-0.216 -0.52801,-0.16 -0.912,-0.328 -1.152,-0.504 -0.176,-0.144 -0.328,-0.432 -0.456,-0.864 -0.112,-0.432 -0.168,-0.872 -0.168,-1.32 0,-0.672 0.176,-1.248 0.528,-1.728 0.368,-0.496 1.01599,-1 1.944,-1.512 1.00799,-0.592 1.98399,-0.888 2.928,-0.888 0.38399,0 0.70399,0.064 0.96,0.192 0.25599,0.128 0.44799,0.264 0.576,0.408 0.12799,0.128 0.23199,0.192 0.312,0.192 0.064,0 0.21599,0.088 0.456,0.264 0.23999,0.16 0.36799,0.24 0.384,0.24 0.064,0 0.096,-0.176 0.096,-0.528 -10e-6,-2.144 -0.15201,-3.63199 -0.456,-4.464 -0.28801,-0.83199 -0.72001,-1.24799 -1.296,-1.248 m 1.08,7.44 c -10e-6,-0.064 -0.024,-0.136 -0.072,-0.216 -0.032,-0.096 -0.11201,-0.2 -0.24,-0.312 -0.11201,-0.128 -0.26401,-0.24 -0.456,-0.336 -0.17601,-0.112 -0.42401,-0.2 -0.744,-0.264 -0.32001,-0.08 -0.68001,-0.12 -1.08,-0.12 -0.68801,0 -1.29601,0.12 -1.824,0.36 -0.51201,0.24 -0.89601,0.544 -1.152,0.912 -0.25601,0.368 -0.44801,0.712 -0.576,1.032 -0.11201,0.304 -0.16801,0.576 -0.168,0.816 -1e-5,0.4 0.032,0.672 0.096,0.816 0.08,0.144 0.26399,0.296 0.552,0.456 0.35199,0.176 0.67199,0.264 0.96,0.264 0.54399,0 1.21599,-0.192 2.016,-0.576 0.81599,-0.4 1.22399,-0.688 1.224,-0.864 -10e-6,-0.128 0.23999,-0.432 0.72,-0.912 0.49599,-0.496 0.74399,-0.848 0.744,-1.056"
         id="path6588" />
      <path
         inkscape:connector-curvature="0"
         d="m 524.51343,419.04107 c 0.14399,-10e-6 0.27199,-0.016 0.384,-0.048 0.12799,-0.016 0.23199,-0.048 0.312,-0.096 0.08,-0.048 0.15199,-0.096 0.216,-0.144 0.064,-0.048 0.11199,-0.11201 0.144,-0.192 0.032,-0.064 0.056,-0.12801 0.072,-0.192 0.032,-0.048 0.048,-0.11201 0.048,-0.192 -10e-6,-0.064 -10e-6,-0.12001 0,-0.168 -10e-6,-0.032 -10e-6,-0.072 0,-0.12 l 0,-0.072 c -10e-6,-1.53601 -0.10401,-2.992 -0.312,-4.368 l -0.336,-2.088 c -0.11201,-1.632 -0.22401,-2.448 -0.336,-2.448 -0.064,0 -0.18401,0.144 -0.36,0.432 -0.40001,0.592 -1.04801,1.256 -1.944,1.992 -0.89601,0.736 -1.64001,1.216 -2.232,1.44 -0.688,0.272 -1.448,0.408 -2.28,0.408 -0.512,0 -0.92,-0.064 -1.224,-0.192 -0.288,-0.128 -0.672,-0.4 -1.152,-0.816 -0.464,-0.416 -0.792,-0.784 -0.984,-1.104 -0.192,-0.32 -0.344,-0.776 -0.456,-1.368 -0.112,-0.592 -0.168,-1.096 -0.168,-1.512 0,-0.304 0.024,-0.528 0.072,-0.672 0.112,-0.432 0.408,-1.104 0.888,-2.016 0.48,-0.91199 0.92,-1.62399 1.32,-2.136 0.336,-0.44799 0.96,-0.96799 1.872,-1.56 0.928,-0.60799 1.744,-1.02399 2.448,-1.248 0.75199,-0.23999 1.59199,-0.35999 2.52,-0.36 1.18399,10e-6 2.16799,0.20801 2.952,0.624 0.78399,0.40001 1.17599,1.02401 1.176,1.872 -10e-6,0.48001 -0.12001,1.07201 -0.36,1.776 -0.22401,0.70401 -0.33601,1.32 -0.336,1.848 -1e-5,0.576 0.18399,3.224 0.552,7.944 l 0.36,4.968 -0.84,0.672 c -0.44801,0.36799 -0.90401,0.55199 -1.368,0.552 -0.84801,-10e-6 -1.88001,-0.21601 -3.096,-0.648 -1.21601,-0.41601 -2.264,-0.90401 -3.144,-1.464 -0.88,-0.54401 -1.32,-0.99201 -1.32,-1.344 0,-0.41601 0.216,-0.92801 0.648,-1.536 0.448,-0.608 0.824,-0.912 1.128,-0.912 0.352,0 0.528,0.12 0.528,0.36 0,0.144 -0.072,0.36 -0.216,0.648 -0.144,0.28799 -0.216,0.56799 -0.216,0.84 0,0.44799 0.296,0.83999 0.888,1.176 0.59199,0.33599 1.09599,0.50399 1.512,0.504 0.23999,-1e-5 0.63199,0.15999 1.176,0.48 0.55999,0.31999 1.04799,0.47999 1.464,0.48 m -9.12,-10.896 c 0,0.928 0.24,1.776 0.72,2.544 0.48,0.768 1.08,1.152 1.8,1.152 0.976,0 2.024,-0.44 3.144,-1.32 1.13599,-0.896 2.05599,-2.008 2.76,-3.336 0.38399,-0.752 0.71199,-1.608 0.984,-2.568 0.28799,-0.97599 0.43199,-1.74399 0.432,-2.304 -10e-6,-0.31999 -0.056,-0.51199 -0.168,-0.576 -0.36801,-0.19199 -0.95201,-0.28799 -1.752,-0.288 -0.73601,10e-6 -1.36801,0.08 -1.896,0.24 -1.392,0.40001 -2.744,1.33601 -4.056,2.808 -1.312,1.472 -1.968,2.688 -1.968,3.648"
         id="path6590" />
      <path
         inkscape:connector-curvature="0"
         d="m 542.73243,409.34507 c 0.08,0 0.11999,0.064 0.12,0.192 -10e-6,0.288 -0.21601,0.752 -0.648,1.392 -0.41601,0.64 -0.86401,1.168 -1.344,1.584 -1.68001,1.488 -3.36001,2.232 -5.04,2.232 -0.64,0 -1.28,-0.144 -1.92,-0.432 -0.624,-0.304 -1.208,-0.728 -1.752,-1.272 -0.544,-0.544 -0.984,-1.272 -1.32,-2.184 -0.336,-0.912 -0.504,-1.928 -0.504,-3.048 0,-0.688 0.08,-1.272 0.24,-1.752 0.32,-0.97599 1,-2.00799 2.04,-3.096 1.056,-1.08799 2.048,-1.63199 2.976,-1.632 0.256,10e-6 0.64,0.024 1.152,0.072 0.76799,0.064 1.30399,0.14401 1.608,0.24 0.31999,0.096 0.67999,0.29601 1.08,0.6 0.51199,0.38401 0.95199,0.88001 1.32,1.488 0.38399,0.59201 0.57599,1.08801 0.576,1.488 -10e-6,0.512 -0.20001,0.904 -0.6,1.176 -0.40001,0.256 -1.17601,0.512 -2.328,0.768 -1.488,0.336 -2.96,0.544 -4.416,0.624 l -2.232,0.12 0,0.96 c 0,1.184 0.552,2.304 1.656,3.36 0.832,0.8 1.696,1.2 2.592,1.2 0.688,0 1.416,-0.208 2.184,-0.624 0.78399,-0.432 1.44799,-0.904 1.992,-1.416 0.54399,-0.512 1.06399,-0.976 1.56,-1.392 0.49599,-0.432 0.83199,-0.648 1.008,-0.648 m -3.864,-5.856 c -0.49601,-0.44799 -0.87201,-0.72799 -1.128,-0.84 -0.24001,-0.12799 -0.56,-0.19199 -0.96,-0.192 -0.8,1e-5 -1.4,0.08 -1.8,0.24 -0.384,0.14401 -0.776,0.44801 -1.176,0.912 -1.216,1.39201 -1.824,2.32 -1.824,2.784 0,0.208 0.192,0.312 0.576,0.312 1.456,0 3.52,-0.304 6.192,-0.912 0.79999,-0.192 1.19999,-0.52799 1.2,-1.008 -10e-6,-0.22399 -0.36001,-0.65599 -1.08,-1.296"
         id="path6592" />
      <path
         inkscape:connector-curvature="0"
         d="m 546.93693,401.52107 c 0,-0.54399 0.16,-0.81599 0.48,-0.816 0.208,1e-5 0.36,0.24001 0.456,0.72 0.096,0.46401 0.272,1.85601 0.528,4.176 0.32,2.592 0.488,3.904 0.504,3.936 0.016,0.016 0.08,-0.136 0.192,-0.456 0.128,-0.336 0.296,-0.832 0.504,-1.488 0.32,-1.056 0.592,-1.816 0.816,-2.28 0.224,-0.47999 0.624,-1.13599 1.2,-1.968 1.16799,-1.61599 2.07199,-2.42399 2.712,-2.424 0.41599,1e-5 0.80799,0.28001 1.176,0.84 0.49599,0.73601 0.79999,1.46401 0.912,2.184 0.11199,0.72001 0.19199,2.424 0.24,5.112 0.032,1.728 0.048,2.752 0.048,3.072 -10e-6,0.8 -0.032,1.384 -0.096,1.752 -0.048,0.352 -0.12801,0.568 -0.24,0.648 -0.096,0.096 -0.27201,0.152 -0.528,0.168 -0.14401,0 -0.24001,-0.064 -0.288,-0.192 -0.048,-0.112 -0.072,-0.384 -0.072,-0.816 -10e-6,-0.24 0.016,-0.752 0.048,-1.536 0.032,-0.8 0.048,-1.472 0.048,-2.016 -10e-6,-1.36 -0.056,-2.688 -0.168,-3.984 -0.096,-1.31199 -0.21601,-2.15199 -0.36,-2.52 -0.08,-0.20799 -0.20801,-0.42399 -0.384,-0.648 -0.17601,-0.22399 -0.34401,-0.33599 -0.504,-0.336 -0.33601,1e-5 -0.87201,0.57601 -1.608,1.728 -0.736,1.136 -1.368,2.336 -1.896,3.6 -0.496,1.152 -0.832,2.04 -1.008,2.664 -0.16,0.608 -0.296,1.44 -0.408,2.496 -0.176,1.632 -0.304,2.44799 -0.384,2.448 -0.128,-10e-6 -0.312,-0.13601 -0.552,-0.408 -0.176,-0.176 -0.296,-0.552 -0.36,-1.128 -0.064,-0.592 -0.152,-1.752 -0.264,-3.48 -0.112,-1.744 -0.264,-3.504 -0.456,-5.28 -0.192,-1.83999 -0.288,-3.09599 -0.288,-3.768"
         id="path6594" />
      <path
         inkscape:connector-curvature="0"
         d="m 564.38831,397.82507 c -1e-5,-0.59199 -0.056,-1.34399 -0.168,-2.256 -0.11201,-0.91198 -0.16801,-1.67198 -0.168,-2.28 -1e-5,-0.30398 0.008,-0.50398 0.024,-0.6 0.048,-0.25598 0.13599,-0.45598 0.264,-0.6 0.14399,-0.15998 0.28799,-0.23998 0.432,-0.24 0.19199,2e-5 0.32799,0.088 0.408,0.264 0.048,0.11202 0.11999,0.70402 0.216,1.776 0.096,1.07202 0.18399,2.12001 0.264,3.144 0.08,1.02401 0.13599,1.55201 0.168,1.584 0.016,0.016 0.04,0.024 0.072,0.024 0.12799,10e-6 0.49599,-0.064 1.104,-0.192 0.62399,-0.14399 1.13599,-0.21599 1.536,-0.216 0.79999,10e-6 1.19999,0.17601 1.2,0.528 -10e-6,0.35201 -0.88001,0.74401 -2.64,1.176 l -1.2,0.288 0.144,4.056 c 0.08,2.384 0.23199,4.616 0.456,6.696 0.22399,2.064 0.33599,3.232 0.336,3.504 -10e-6,0.496 -0.18401,0.744 -0.552,0.744 -0.28801,0 -0.52801,-0.256 -0.72,-0.768 -0.17601,-0.512 -0.26401,-1.176 -0.264,-1.992 -10e-6,-0.592 -0.024,-1.192 -0.072,-1.8 -0.048,-0.624 -0.13601,-1.584 -0.264,-2.88 -0.11201,-1.312 -0.22401,-2.65599 -0.336,-4.032 -0.048,-0.73599 -0.088,-1.30399 -0.12,-1.704 -0.016,-0.39999 -0.04,-0.69599 -0.072,-0.888 -0.032,-0.19199 -0.056,-0.30399 -0.072,-0.336 -0.016,-0.048 -0.048,-0.072 -0.096,-0.072 -0.25601,1e-5 -0.87201,0.088 -1.848,0.264 -0.976,0.17601 -1.584,0.26401 -1.824,0.264 -0.464,10e-6 -0.696,-0.19199 -0.696,-0.576 0,-0.27199 0.288,-0.50399 0.864,-0.696 0.592,-0.19199 1.256,-0.35999 1.992,-0.504 0.73599,-0.15999 1.19199,-0.29599 1.368,-0.408 0.17599,-0.12799 0.26399,-0.55199 0.264,-1.272"
         id="path6596" />
      <path
         inkscape:connector-curvature="0"
         d="m 579.92906,402.55307 c -0.73601,1e-5 -1.52001,0.15201 -2.352,0.456 -0.81601,0.30401 -1.54401,0.61601 -2.184,0.936 -0.64001,0.30401 -1.104,0.45601 -1.392,0.456 -0.192,10e-6 -0.288,-0.08 -0.288,-0.24 0,-0.22399 0.048,-0.41599 0.144,-0.576 0.096,-0.15999 0.272,-0.31199 0.528,-0.456 0.25599,-0.14399 0.49599,-0.26399 0.72,-0.36 0.23999,-0.096 0.61599,-0.23199 1.128,-0.408 0.51199,-0.19199 0.95199,-0.36799 1.32,-0.528 0.86399,-0.33599 1.59199,-0.50399 2.184,-0.504 1.05599,10e-6 1.87999,0.57601 2.472,1.728 0.28799,0.56001 0.45599,1.08001 0.504,1.56 0.048,0.46401 0.088,1.784 0.12,3.96 0.016,1.216 0.04,2.24 0.072,3.072 0.032,0.816 0.064,1.336 0.096,1.56 l 0.048,0.312 c -1e-5,0.224 -0.10401,0.464 -0.312,0.72 -0.19201,0.256 -0.33601,0.384 -0.432,0.384 -0.32001,0 -0.56801,-0.504 -0.744,-1.512 -0.17601,-1.024 -0.27201,-1.536 -0.288,-1.536 -0.048,0 -0.12001,0.088 -0.216,0.264 -0.32001,0.528 -0.96801,1.112 -1.944,1.752 -0.96001,0.624 -1.76801,0.936 -2.424,0.936 -0.40001,0 -0.87201,-0.072 -1.416,-0.216 -0.52801,-0.16 -0.912,-0.328 -1.152,-0.504 -0.176,-0.144 -0.328,-0.432 -0.456,-0.864 -0.112,-0.432 -0.168,-0.872 -0.168,-1.32 0,-0.672 0.176,-1.248 0.528,-1.728 0.368,-0.496 1.01599,-1 1.944,-1.512 1.00799,-0.592 1.98399,-0.888 2.928,-0.888 0.38399,0 0.70399,0.064 0.96,0.192 0.25599,0.128 0.44799,0.264 0.576,0.408 0.12799,0.128 0.23199,0.192 0.312,0.192 0.064,0 0.21599,0.088 0.456,0.264 0.23999,0.16 0.36799,0.24 0.384,0.24 0.064,0 0.096,-0.176 0.096,-0.528 -10e-6,-2.144 -0.15201,-3.63199 -0.456,-4.464 -0.28801,-0.83199 -0.72001,-1.24799 -1.296,-1.248 m 1.08,7.44 c -10e-6,-0.064 -0.024,-0.136 -0.072,-0.216 -0.032,-0.096 -0.11201,-0.2 -0.24,-0.312 -0.11201,-0.128 -0.26401,-0.24 -0.456,-0.336 -0.17601,-0.112 -0.42401,-0.2 -0.744,-0.264 -0.32001,-0.08 -0.68001,-0.12 -1.08,-0.12 -0.68801,0 -1.29601,0.12 -1.824,0.36 -0.51201,0.24 -0.89601,0.544 -1.152,0.912 -0.25601,0.368 -0.44801,0.712 -0.576,1.032 -0.11201,0.304 -0.16801,0.576 -0.168,0.816 -10e-6,0.4 0.032,0.672 0.096,0.816 0.08,0.144 0.26399,0.296 0.552,0.456 0.35199,0.176 0.67199,0.264 0.96,0.264 0.54399,0 1.21599,-0.192 2.016,-0.576 0.81599,-0.4 1.22399,-0.688 1.224,-0.864 -1e-5,-0.128 0.23999,-0.432 0.72,-0.912 0.49599,-0.496 0.74399,-0.848 0.744,-1.056"
         id="path6598" />
    </g>
    <rect
       inkscape:label="#rect5940"
       y="55.933609"
       x="52.857143"
       height="300"
       width="377.85715"
       id="red-rect"
       style="fill:none;stroke:#ff0000;stroke-width:2;stroke-miterlimit:4;stroke-dasharray:none" />
    <rect
       inkscape:label="#rect5942"
       style="fill:none;stroke:#008000;stroke-width:2;stroke-miterlimit:4;stroke-opacity:1;stroke-dasharray:none"
       id="green-rect"
       width="377.85715"
       height="300"
       x="276.10086"
       y="67.045288" />
    <rect
       inkscape:label="#rect5944"
       y="220.58847"
       x="286.20239"
       height="300"
       width="377.85715"
       id="magenta-rect"
       style="fill:none;stroke:#ff00ff;stroke-width:2;stroke-miterlimit:4;stroke-opacity:1;stroke-dasharray:none" />
    <rect
       inkscape:label="#rect5946"
       style="fill:none;stroke:#0000ff;stroke-width:2;stroke-miterlimit:4;stroke-opacity:1;stroke-dasharray:none"
       id="blue-rect"
       width="377.85715"
       height="300"
       x="32.654102"
       y="210.48694" />
    <rect
       inkscape:label="#rect5948"
       y="182.19505"
       x="224.84317"
       height="201.04854"
       width="253.31075"
       id="black-rect"
       style="fill:none;stroke:#000000;stroke-width:2;stroke-miterlimit:4;stroke-dasharray:none" />
    <path
       d="m 344.10713,254.59433 c 0,11.4895 -9.31408,20.80357 -20.80357,20.80357 -11.4895,0 -20.80357,-9.31407 -20.80357,-20.80357 0,-11.4895 9.31407,-20.80357 20.80357,-20.80357 11.48949,0 20.80357,9.31407 20.80357,20.80357 z"
       sodipodi:ry="20.803572"
       sodipodi:rx="20.803572"
       sodipodi:cy="254.59433"
       sodipodi:cx="323.30356"
       id="path3798"
       style="fill:#ff0000;fill-opacity:1;stroke:none"
       sodipodi:type="arc" />
    <path
       transform="translate(56.607143,0)"
       sodipodi:type="arc"
       style="fill:#008000;fill-opacity:1;stroke:none"
       id="path3800"
       sodipodi:cx="323.30356"
       sodipodi:cy="254.59433"
       sodipodi:rx="20.803572"
       sodipodi:ry="20.803572"
       d="m 344.10713,254.59433 c 0,11.4895 -9.31408,20.80357 -20.80357,20.80357 -11.4895,0 -20.80357,-9.31407 -20.80357,-20.80357 0,-11.4895 9.31407,-20.80357 20.80357,-20.80357 11.48949,0 20.80357,9.31407 20.80357,20.80357 z" />
    <path
       transform="translate(0,56.25)"
       sodipodi:type="arc"
       style="fill:#0000ff;fill-opacity:1;stroke:none"
       id="path3802"
       sodipodi:cx="323.30356"
       sodipodi:cy="254.59433"
       sodipodi:rx="20.803572"
       sodipodi:ry="20.803572"
       d="m 344.10713,254.59433 c 0,11.4895 -9.31408,20.80357 -20.80357,20.80357 -11.4895,0 -20.80357,-9.31407 -20.80357,-20.80357 0,-11.4895 9.31407,-20.80357 20.80357,-20.80357 11.48949,0 20.80357,9.31407 20.80357,20.80357 z" />
    <path
       d="m 344.10713,254.59433 c 0,11.4895 -9.31408,20.80357 -20.80357,20.80357 -11.4895,0 -20.80357,-9.31407 -20.80357,-20.80357 0,-11.4895 9.31407,-20.80357 20.80357,-20.80357 11.48949,0 20.80357,9.31407 20.80357,20.80357 z"
       sodipodi:ry="20.803572"
       sodipodi:rx="20.803572"
       sodipodi:cy="254.59433"
       sodipodi:cx="323.30356"
       id="path3804"
       style="fill:#ff00ff;fill-opacity:1;stroke:none"
       sodipodi:type="arc"
       transform="translate(56.607143,56.25)" />
  </g>
</svg>
