<?xml version="1.0" encoding="UTF-8" standalone="no"?>
<svg
   xmlns:dc="http://purl.org/dc/elements/1.1/"
   xmlns:cc="http://creativecommons.org/ns#"
   xmlns:rdf="http://www.w3.org/1999/02/22-rdf-syntax-ns#"
   xmlns:svg="http://www.w3.org/2000/svg"
   xmlns="http://www.w3.org/2000/svg"
   xmlns:xlink="http://www.w3.org/1999/xlink"
   xmlns:sodipodi="http://sodipodi.sourceforge.net/DTD/sodipodi-0.dtd"
   xmlns:inkscape="http://www.inkscape.org/namespaces/inkscape"
   version="1.0"
   width="128"
   height="128"
   id="svg2"
   sodipodi:version="0.32"
   inkscape:version="0.48.2 r9819"
   sodipodi:docname="sozi.py.svg"
   inkscape:output_extension="org.inkscape.output.svg.inkscape"
   inkscape:export-filename="/home/valessio/Desenvolvimento/inkscape/inkscape/inkscape.png"
   inkscape:export-xdpi="45"
   inkscape:export-ydpi="45">
  <sodipodi:namedview
     bordercohor="#666666"
     inkscape:window-height="744"
     inkscape:window-width="1304"
     inkscape:pageshadow="2"
     inkscape:pageopacity="0.0"
     guidetolerance="10.0"
     gridtolerance="10.0"
     objecttolerance="10.0"
     borderopacity="1.0"
     bordercolor="#666666"
     pagecolor="#ffffff"
     id="base"
     inkscape:zoom="0.70710678"
     inkscape:cx="173.16912"
     inkscape:cy="-42.875889"
     inkscape:window-x="56"
     inkscape:window-y="24"
     inkscape:current-layer="g28"
     showgrid="false"
     inkscape:window-maximized="1" />
  <defs
     id="defs4">
    <linearGradient
       id="WhiteTransparent"
       gradientUnits="userSpaceOnUse">
      <stop
         style="stop-color:white;stop-opacity:1"
         offset="0"
         id="stop7" />
      <stop
         style="stop-color:white;stop-opacity:0"
         offset="1"
         id="stop9" />
    </linearGradient>
    <linearGradient
       id="BlackTransparent"
       gradientUnits="userSpaceOnUse">
      <stop
         style="stop-color:black;stop-opacity:1"
         offset="0"
         id="stop12" />
      <stop
         style="stop-color:black;stop-opacity:0"
         offset="1"
         id="stop14" />
    </linearGradient>
    <linearGradient
       id="liquidShade"
       xlink:href="#BlackTransparent"
       x1="0"
       y1="128"
       x2="0"
       y2="64"
       gradientUnits="userSpaceOnUse"
       gradientTransform="matrix(0.5454768,0,0,0.5454768,24.255878,18.477074)" />
    <linearGradient
       id="liquidSpecular"
       xlink:href="#WhiteTransparent"
       x1="0"
       y1="128"
       x2="0"
       y2="76"
       gradientUnits="userSpaceOnUse" />
    <linearGradient
       id="sideSpecular"
       xlink:href="#WhiteTransparent"
       x1="80"
       y1="20"
       x2="60"
       y2="40"
       gradientUnits="userSpaceOnUse" />
    <linearGradient
       id="IcecapTip"
       xlink:href="#WhiteTransparent"
       x1="60"
       y1="20"
       x2="90"
       y2="50"
       gradientUnits="userSpaceOnUse"
       gradientTransform="matrix(0.5454768,0,0,0.5454768,24.255878,18.477074)" />
    <linearGradient
       id="shinySpecular"
       xlink:href="#WhiteTransparent"
       x1="33"
       y1="35"
       x2="58"
       y2="60"
       gradientUnits="userSpaceOnUse"
       gradientTransform="matrix(0.5454768,0,0,0.5454768,24.255878,18.477074)" />
    <clipPath
       clipPathUnits="userSpaceOnUse"
       id="clipoutline1">
      <path
         id="outline1"
         d="M 54.1,12.5 L 12.9,54.7 C -2.7,70.3 23,69 32.3,74.9 C 36.6,77.7 18.5,81.3 22.2,85 C 25.8,88.7 43.9,92.1 47.5,95.7 C 51.1,99.4 40.2,103.3 43.8,107 C 47.3,110.7 55.7,107.2 57.2,115.6 C 58.3,121.8 72.6,118.7 79,113.4 C 83,110 72.1,110 75.7,106.3 C 84.7,97.2 92.7,102.2 96,93.8 C 97.8,89.3 82.4,86.1 86.5,83.2 C 96.3,76.3 132.3,72.8 115.7,56.2 L 73,12.5 C 67.7,7.5 59,7.5 54.1,12.5 z M 44.2,77.2 C 45.1,77.2 75,81.2 63.5,84.3 C 59.1,85.5 38.9,77.2 44.2,77.2 z M 101.4,93.8 C 101.4,95.9 117.7,97.1 116.8,93.3 C 115.5,86.9 103.2,87.4 101.4,93.8 z M 31.9,104.9 C 35.6,108.1 41.2,104.2 43,99.7 C 39.4,95 26.1,100 31.9,104.9 z M 99.4,98.2 C 94.8,102.4 100.2,106.8 104.7,103.9 C 105.9,103.1 104.6,99.2 99.4,98.2 z " />
    </clipPath>
    <filter
       id="ShadowBlur"
       filterUnits="userSpaceOnUse"
       x="0"
       y="0">
      <feGaussianBlur
         in="SourceAlpha"
         stdDeviation="3"
         result="blur"
         id="feGaussianBlur24" />
    </filter>
    <filter
       inkscape:collect="always"
       id="filter3969"
       x="-0.71610892"
       width="2.4322178"
       y="-0.76086572"
       height="2.5217314">
      <feGaussianBlur
         inkscape:collect="always"
         stdDeviation="7.6086572"
         id="feGaussianBlur3971" />
    </filter>
  </defs>
  <style
     type="text/css"
     id="style26">
	.specularity {opacity:0.5;}
	.low-specularity {opacity:0.25;}
	.full-specularity {opacity:1;}
	.black {fill:#000000;}
	.white {fill:#ffffff;}
	.outline-big {stroke-width:16;stroke:none;opacity:0.1;fill:none;}
	.outline-small {stroke-width:8;stroke:none;opacity:0.2;fill:none;}
	.stroke-highlight {fill:none;stroke:none;opacity:0.2;}
       	.base-shadow 	{fill:black;opacity:75;}
	</style>
  <g
     id="g28">
    <path
       sodipodi:type="arc"
       style="fill:none;stroke:#ffffff;stroke-width:13.45712851999999948;stroke-miterlimit:4;stroke-opacity:1;stroke-dasharray:none;filter:url(#filter3969)"
       id="path3151"
       sodipodi:cx="99.25"
       sodipodi:cy="33"
       sodipodi:rx="12.75"
       sodipodi:ry="12"
       d="M 112,33 A 12.75,12 0 1 1 86.5,33 12.75,12 0 1 1 112,33 z"
       transform="matrix(3.2732906,0,0,3.7035068,-267.99564,-48.996415)" />
    <path
       class="base-shadow"
       d="m 8,62.9 c -2.5,9.4 15.4,11.1 24.3,14.7 2.2,1 1.2,-3.2 0.1,-4.2 C 25.2,69.8 10.2,69 8,62.9 z m 111.6,1 c -2.7,8.9 -25,13.1 -33,17.8 -2.1,1.2 -3.2,6.3 0.4,4.3 9.6,-5.3 35.8,-10.7 32.6,-22.1 z M 44.3,75.7 C 41,75.7 39,77.3 44.9,79.4 52.6,80 63.7,83 66,84 69.8,77.5 45,75.7 44.3,75.7 z m -21.1,8.5 c -1.4,-1.2 -2.9,1 -0.9,2.8 3.5,3.8 22.6,7.9 26.3,11.5 1.8,0.9 1.2,-2.5 0.1,-3.6 C 45.3,91.5 28.2,87.6 23.2,84.2 z m 78.5,9.7 c 0.2,3.5 15.8,7.6 15.2,0.1 -0.2,-2.6 -15.4,-2.7 -15.2,-0.1 z m -6.1,-0.2 c -3.4,7.1 -11.3,2.5 -19.8,11.1 -2.3,1.7 -1.3,6.2 1,3.8 8.7,-8.2 16.4,-3.7 19.4,-12.6 0.2,-1 0,-1.6 -0.6,-2.3 z M 31.5,106 c 4.5,5 9.8,1.8 11.5,-5.7 -0.4,-1.7 -16.8,0.1 -11.5,5.7 z m 67.2,-5.8 c -5.4,4.4 3.3,9.4 6,5.8 3.6,-4.7 -3.4,-3.4 -6,-5.8 z M 43.5,105 c -0.9,1.2 -0.8,3 0.3,4.2 3.6,3.6 12,0.1 13.5,8.6 1.1,6.1 15.2,3.5 22,-1.4 1.5,-1.6 1.6,-5.4 -0.3,-4.4 -29.8,13.4 -10.8,-3.8 -35.5,-7 z"
       id="path30"
       inkscape:connector-curvature="0"
       transform="matrix(0.5454768,0,0,0.5454768,24.255878,18.477074)"
       style="fill:#000000;filter:url(#ShadowBlur)" />
    <use
       class="outline-big"
       xlink:href="#outline1"
       id="use32"
       transform="matrix(0.5454768,0,0,0.5454768,24.255878,18.477074)"
       style="opacity:0.1;fill:none;stroke:none"
       x="0"
       y="0"
       width="128"
       height="128" />
    <use
       class="outline-small"
       xlink:href="#outline1"
       id="use34"
       transform="matrix(0.5454768,0,0,0.5454768,24.255878,18.477074)"
       style="opacity:0.2;fill:none;stroke:none"
       x="0"
       y="0"
       width="128"
       height="128" />
    <use
       class="black;"
       xlink:href="#outline1"
       id="use36"
       transform="matrix(0.5454768,0,0,0.5454768,24.255878,18.477074)"
       x="0"
       y="0"
       width="128"
       height="128" />
    <use
       clip-path="url(#clipoutline1)"
       xlink:href="#outline1"
       class="stroke-highlight"
       id="use38"
       transform="matrix(0.5454768,0,0,0.5454768,24.255878,18.477074)"
       style="opacity:0.2;fill:none;stroke:none"
       x="0"
       y="0"
       width="128"
       height="128" />
    <use
       style="opacity:0.5;fill:url(#liquidSpecular)"
       class="specularity"
       xlink:href="#outline1"
       id="use40"
       transform="matrix(0.5454768,0,0,0.5454768,24.255878,18.477074)"
       x="0"
       y="0"
       width="128"
       height="128" />
    <use
       style="opacity:0.25;fill:url(#sideSpecular)"
       class="low-specularity"
       xlink:href="#outline1"
       id="use42"
       transform="matrix(0.5454768,0,0,0.5454768,24.255878,18.477074)"
       x="0"
       y="0"
       width="128"
       height="128" />
    <path
       class="specularity"
       style="opacity:0.5;fill:url(#shinySpecular)"
       d="m 33.419892,49.514709 c -6.054792,6.000243 4.582004,4.309267 12.764157,7.52758 L 63.093825,27.313801 c -2.563741,-2.61829 -5.836596,-2.4001 -8.182147,0 L 33.419892,49.514709 z"
       id="path44"
       inkscape:connector-curvature="0" />
    <path
       style="fill:url(#liquidShade)"
       class="shade"
       d="m 29.110626,52.132991 c -1.418246,5.127487 7.309384,5.018389 12.164133,6.927562 0.818213,-0.490934 1.254591,-1.090959 0.654566,-1.636435 -3.927429,-1.963715 -11.673198,-1.963715 -12.818699,-5.291127 z m 60.602469,0.545483 c -1.472787,4.854742 -13.909658,6.709365 -18.218924,9.273106 -0.600025,0.600025 -0.218191,1.145501 0.490929,1.690977 5.345672,-2.672839 19.473522,-4.745651 17.727995,-10.964083 z m -41.292593,6.000243 c -1.745526,0 -2.836478,0.872763 0.327287,2.018264 4.200167,0.327286 10.254966,2.018263 11.564107,2.563739 2.018263,-3.600142 -11.455016,-4.582003 -11.891394,-4.582003 z m -11.509558,4.636552 c -0.709123,0.490927 -1.090958,1.036403 -0.490934,1.581886 1.909173,2.018264 11.727754,3.872881 13.746017,5.836603 0.490927,-0.654574 0.654574,-1.309148 0.05452,-1.963722 -1.854624,-1.854617 -10.582253,-3.600143 -13.309633,-5.454767 z m 43.529046,4.96384 c -0.381834,0.436378 -0.70912,0.927311 -0.818215,1.472787 0,1.145501 8.400343,1.854624 8.400343,-0.327286 -0.163644,-0.381836 -0.327287,-0.763665 -0.654572,-1.145501 -1.527336,0.872763 -5.291126,0.654574 -6.927556,0 z m -4.036528,0.218189 c -1.854622,3.872888 -6.163888,1.363696 -10.800441,6.054792 -0.763667,0.81822 -0.327286,1.254598 0.381834,1.636434 4.745648,-4.472912 9.109462,-1.581885 10.745892,-6.436628 0.109096,-0.490927 0,-0.872762 -0.327285,-1.254598 z m -29.455748,3.818339 c -1.309141,1.745526 -3.600143,2.891026 -5.236577,1.472787 -0.163641,-0.109098 -0.272739,-0.272737 -0.381837,-0.436378 -0.600018,0.763666 -0.600018,1.581879 0.381837,2.454642 1.963714,1.690977 5.072937,-0.436378 6.000242,-2.836477 -0.16364,-0.272739 -0.490927,-0.490927 -0.763665,-0.654574 z m 30.928535,0.545476 c -1.254597,2.018263 1.254597,3.654698 3.491052,2.400099 0.327285,-0.381836 0.272738,-1.1455 -0.327287,-1.909166 -1.309144,0.654568 -2.563741,0.272739 -3.163765,-0.490933 z m -29.673936,2.127361 c -0.490934,0.600025 -0.654574,1.309141 -0.05452,1.963715 1.963715,1.963715 6.545719,0.05452 7.363932,4.691102 0.600025,3.327411 8.018514,1.581885 11.727754,-1.090952 0.818216,-0.894585 0.436381,-1.472789 -0.272737,-1.909173 -3.872889,2.618288 -10.909541,4.200175 -11.455017,1.036409 -0.818213,-4.636552 -5.345668,-2.781935 -7.309383,-4.691101 z"
       id="path46"
       inkscape:connector-curvature="0" />
    <path
       id="icecap"
       class="full-specularity"
       style="fill:url(#IcecapTip)"
       d="m 62.711996,26.931964 8.891269,9.054917 c 0.818216,0.818214 0.818216,2.509191 0.327287,3.000125 l -4.418362,-3.60015 -0.872762,5.291126 -3.654695,-1.963715 -5.9457,3.76379 -1.963714,-7.909416 -3.163766,6.873007 -7.909414,-0.05452 c -1.527331,0 -1.309142,-1.581879 0.272737,-3.163765 3.109223,-3.436502 9.164015,-9.273105 11.07318,-11.291369 1.963715,-2.018263 5.400224,-1.963714 7.36394,0 z"
       inkscape:connector-curvature="0" />
    <path
       style="fill:#ffcc00;fill-opacity:1;stroke:#ffcc00;stroke-width:0.3035191;stroke-linecap:round;stroke-linejoin:miter;stroke-miterlimit:4;stroke-opacity:1;stroke-dasharray:none;stroke-dashoffset:0"
       d="m 107.08165,56.490294 c -0.29512,-0.962097 -1.09256,-4.902091 -1.54571,-7.637144 -0.90865,-5.484629 -1.33149,-10.017136 -1.54944,-16.60783 -0.0857,-2.593981 -0.0688,-2.953356 0.13747,-2.953356 0.85894,0 5.1247,1.940191 6.99136,3.179916 3.7595,2.496767 5.74899,5.692816 5.94718,9.554033 0.0744,1.444515 0.0418,1.737691 -0.31235,2.838286 -0.81582,2.533809 -2.83824,5.427297 -6.00493,8.591266 -1.0981,1.097131 -2.35282,2.290208 -2.78821,2.651275 -0.67946,0.563437 -0.80354,0.617803 -0.8754,0.383542 l 0,0 z"
       id="path3007"
       inkscape:connector-curvature="0" />
    <path
       style="fill:#ff6600;fill-opacity:1;stroke:#ff6600;stroke-width:0.60751653;stroke-linecap:round;stroke-linejoin:miter;stroke-miterlimit:4;stroke-opacity:1;stroke-dasharray:none;stroke-dashoffset:0"
       d="m 24.262702,56.35219 c -6.3846,-14.94526 -8.264752,-29.714002 -4.677866,-36.744926 2.095071,-4.10661 6.343595,-5.976865 11.788852,-5.189561 2.483687,0.359109 7.26778,1.318467 7.707803,1.735093 0.11702,0.110787 -1.027999,1.069342 -1.616328,1.997536 -1.450725,2.288744 -4.130941,7.834553 -5.412697,11.199739 -3.365858,8.836781 -5.54377,20.108495 -6.254606,30.912095 -0.06268,0.952791 -0.139654,-0.643259 -1.535158,-3.909976 z"
       id="path3792"
       inkscape:connector-curvature="0"
       sodipodi:nodetypes="ssssssss" />
    <path
       style="fill:#ddafe9;fill-opacity:1;stroke:#ddafe9;stroke-width:0.30375826px;stroke-linecap:butt;stroke-linejoin:miter;stroke-opacity:1"
       d="m 105.46596,9.888582 c -0.7061,0.05537 -1.40811,0.236412 -2.04429,0.550189 -0.36323,0.191154 -0.77466,0.473879 -0.8033,0.922245 -0.0159,0.626821 0.42162,1.2015 0.99778,1.420459 0.68219,0.268259 1.45827,0.201753 2.13917,-0.03416 1.00361,-0.372958 1.75928,-1.226511 2.21101,-2.176343 0.0543,-0.154653 0.28454,-0.423302 -0.0274,-0.389324 -0.8083,-0.129419 -1.61912,-0.278692 -2.43964,-0.294102 l -0.0351,6.71e-4 z"
       id="path3800"
       inkscape:connector-curvature="0" />
    <path
       style="fill:#00ccff;fill-opacity:1;stroke:#00ccff;stroke-width:0.30375826;stroke-opacity:1"
       d="m 80.901515,97.47534 c -7.08448,-2.47786 -10.175055,-6.230052 -9.484607,-9.91038 0.453761,-2.418665 3.801456,-6.331445 9.047331,-10.532988 2.995492,-2.399098 10.887241,-7.969306 12.327891,-8.845522 0.34837,-0.211909 0.0587,0.909838 -0.11505,3.301498 -0.66695,9.184583 -2.02127,15.789661 -4.628152,21.704352 -1.130157,2.56433 -2.58331,5.73867 -2.923402,5.69948 -0.109101,-0.0125 -1.878149,-0.50757 -3.003408,-0.90113 z"
       id="path3794"
       inkscape:connector-curvature="0"
       sodipodi:nodetypes="csssssccc" />
    <path
       style="fill:#000000;stroke:#000000;stroke-width:0.60751653;stroke-linecap:butt;stroke-linejoin:round;stroke-miterlimit:4;stroke-opacity:1;stroke-dasharray:none"
       d="M 30.024147,70.180376 C 14.893897,46.480033 6.238607,-3.8312842 47.78994,19.979741 c 0.436538,0.186808 -0.633537,0.205843 -0.828969,0.0923 C 5.68665,-3.9083106 16.423542,47.472264 29.743348,68.117971 38.422161,81.570127 80.948331,147.963 1.10331,117.58718 0.647167,117.42242 0.890771,115.10632 1.378077,115.29471 74.193572,143.43608 45.15434,93.88073 30.024107,70.180398 z"
       id="path2985"
       inkscape:connector-curvature="0"
       sodipodi:nodetypes="zcsscsz" />
    <path
       style="fill:#000000;stroke:#000000;stroke-width:0.60751653;stroke-linecap:butt;stroke-linejoin:round;stroke-miterlimit:4;stroke-opacity:1;stroke-dasharray:none"
       d="M 117.46582,41.63805 C 116.2956,25.113058 82.615072,25.28928 69.991274,25.158004 c -0.403582,-0.0063 -0.109604,0.458631 0.05675,0.456307 14.701829,-0.204669 46.309906,0.02623 47.568246,15.96542 1.30183,16.489789 -48.818254,36.084911 -46.214632,47.801297 2.603661,11.716372 33.847352,13.018212 45.997682,13.018212 1.08487,0.10849 1.3421,-1.33901 -0.16722,-1.44192 C 99.51984,99.74945 54.651436,98.30175 78.195232,79.252186 91.67207,68.347867 118.59088,57.526394 117.4657,41.63805 z"
       id="path2989"
       inkscape:connector-curvature="0"
       sodipodi:nodetypes="scssscsss" />
    <path
       style="fill:#000000;stroke:#000000;stroke-width:0.60751653;stroke-linecap:butt;stroke-linejoin:round;stroke-miterlimit:4;stroke-opacity:1;stroke-dasharray:none"
       d="M 128.01632,80.840902 C 105.6556,83.371945 101.10705,33.7292 104.6548,17.90206 c -5.92858,26.476831 6.19767,66.976362 23.49518,64.381719 1.26575,-0.230151 0.9403,-1.673005 -0.1335,-1.442877 z"
       id="path2991"
       inkscape:connector-curvature="0"
       sodipodi:nodetypes="cccc" />
    <path
       style="fill:#000000;stroke:#000000;stroke-width:0.60751653;stroke-linecap:butt;stroke-linejoin:round;stroke-miterlimit:4;stroke-opacity:1;stroke-dasharray:none"
       d="m 107.28758,11.902782 c 1.25591,-1.286045 1.71903,-4.905476 1.71011,-4.835787 -0.20707,1.617104 -0.6147,3.279961 -1.64642,4.577442 -0.68779,0.875297 -1.79103,1.090903 -2.27403,0.984042 -1.41572,-0.152331 -1.4933,-1.271029 -1.71679,-2.501771 -0.0314,-0.174985 -0.16803,-0.677654 -0.72921,-0.21636 -0.69534,0.776231 -0.70601,2.002743 -0.26028,2.440226 1.58995,1.559832 3.66061,0.838246 4.91647,-0.447789 z"
       id="path3763"
       inkscape:connector-curvature="0"
       sodipodi:nodetypes="zsccscsz" />
    <path
       inkscape:connector-curvature="0"
       id="path3846"
       style="fill:#000000;stroke:#000000;stroke-width:0.60751653;stroke-linecap:butt;stroke-linejoin:miter;stroke-miterlimit:4;stroke-opacity:1;stroke-dasharray:none"
       d="M 55.036429,5.241536 C 90.81222,-3.8073375 110.53327,96.99022 69.657207,109.06947 10.783244,126.46731 17.358143,14.771614 55.036429,5.241536 z M 59.193832,3.026903 C 24.243003,3.393568 7.390308,107.63796 58.383417,111.512 113.81268,115.72303 94.14465,2.660237 59.193832,3.026903 z" />
  </g>
  <!-- Copyright License -->
  <metadata
     id="metadata49">
    <rdf:RDF>
      <cc:Work
         rdf:about="etiquette-icon">
        <dc:format>image/svg+xml</dc:format>
        <dc:type
           rdf:resource="http://purl.org/dc/dcmitype/StillImage" />
        <dc:creator>
          <cc:Agent>
            <dc:title>Andy Fitzsimon</dc:title>
          </cc:Agent>
        </dc:creator>
        <dc:rights>
          <cc:Agent>
            <dc:title>Andrew Michael Fitzsimon</dc:title>
          </cc:Agent>
        </dc:rights>
        <dc:publisher>
          <cc:Agent>
            <dc:title>Fitzsimon IT Consulting Pty Ltd</dc:title>
          </cc:Agent>
        </dc:publisher>
        <dc:identifier>http://andy.fitzsimon.com.au</dc:identifier>
        <dc:date>2006</dc:date>
        <cc:license
           rdf:resource="http://creativecommons.org/licenses/by-sa/2/" />
        <dc:title />
      </cc:Work>
      <cc:License
         rdf:about="http://creativecommons.org/licenses/by-sa/2/">
        <cc:permits
           rdf:resource="http://web.resource.org/cc/Reproduction" />
        <cc:permits
           rdf:resource="http://web.resource.org/cc/Distribution" />
        <cc:requires
           rdf:resource="http://web.resource.org/cc/Notice" />
        <cc:requires
           rdf:resource="http://web.resource.org/cc/Attribution" />
        <cc:permits
           rdf:resource="http://web.resource.org/cc/DerivativeWorks" />
        <cc:requires
           rdf:resource="http://web.resource.org/cc/ShareAlike" />
      </cc:License>
    </rdf:RDF>
  </metadata>
</svg>
